/* XPM */
static const char * RigidRegistration_xpm[] = {
"128 128 29 1",
" 	c None",
".	c #000000",
"+	c #FF0000",
"@	c #FC0000",
"#	c #F40000",
"$	c #F50000",
"%	c #B10000",
"&	c #BE0000",
"*	c #360000",
"=	c #F80000",
"-	c #7B0000",
";	c #590000",
">	c #100000",
",	c #9D0000",
"'	c #740000",
")	c #FE0000",
"!	c #FA0000",
"~	c #F60000",
"{	c #F10000",
"]	c #F20000",
"^	c #F30000",
"/	c #FD0000",
"(	c #FB0000",
"_	c #F90000",
":	c #F70000",
"<	c #DE0000",
"[	c #910000",
"}	c #120000",
"|	c #520000",
"                                                                                                                                ",
"                                                                                                                                ",
"                                                                                                                                ",
"                                                                                                                                ",
"                                                                                                                                ",
"                                                                                                                                ",
"                                                                                                                                ",
"                                                                                                                                ",
"                                                                                                                                ",
"                                                                                                                                ",
"                                                                                                                                ",
"                                                                                                                                ",
"                                                                                                                                ",
"                                                                                                                                ",
"                                                                                                                                ",
"                                                                                                                                ",
"                                                                                                                                ",
"                         ...............................................................................                        ",
"                        ..................................................................................                      ",
"                       ....................................................................................                     ",
"                       ....................................................................................                     ",
"                      ......................................................................................                    ",
"                      ......................................................................................                    ",
"                      ......................................................................................                    ",
"                      ......................................................................................                    ",
"                      ......................................................................................                    ",
"                      ......................................................................................                    ",
"                      ..........                                                              ...+@#$.......                    ",
"                      ..........                                                           ...+++++++#......                    ",
"                      ..........                                                        ...+++++++++++%.....                    ",
"                      ..........                                                     ...+++++++++++++++.....                    ",
"                      ..........                                                  ...&+++++++++++++++++.....                    ",
"                      ..........                                                ..*++++++++++++++++++++=....                    ",
"                      ..........                                             ...++++++++++++++++++++++++....                    ",
"                      ..........                                          ...+++++++++++++++++++++++++++....                    ",
"                      ..........                                       ...++++++++++++++++++++++++++++++@...                    ",
"                      ..........                                    ...&++++++++++++++++++++++..-++++++++...                    ",
"                      ..........                                 ...;++++++++++++++++++++++...  .++++++++>..                    ",
"                      ..........                               ...++++++++++++++++++++++*..      .++++++++..                    ",
"                      ..........                            ...++++++++++++++++++++++,...        .++++++++..                    ",
"                      ..........                         ...+++++++++++++++++++++++...           .'+++++++%.                    ",
"                      ..........                      ...+++++++++++++++++++++++...               .++++++++.                    ",
"                      ..........                   ...;++++++++++++++++++++++...                  .)+++++++.                    ",
"                      ..........                 ...++++++++++++++++++++++...                     .>+++++++#.                   ",
"                      ..........              ...++++++++++++++++++++++,...                       ..++++++++.                   ",
"                      ..........           ...+++++++++++++++++++++++...                          ..!+++++++.                   ",
"                      ..........        ...+++++++++++++++++++++++...                             ...++++++++.                  ",
"                      ..........     ...,++++++++++++++++++++++...                                ...++++++++.                  ",
"                      ..........   ...++++++++++++++++++++++...                                   ...~+++++++.                  ",
"                      .............++++++++++++++++++++++*...                                     ....++++++++.                 ",
"                      ..........+++++++++++++++++++++++...                                        ....++++++++.                 ",
"                      .......{++++++++++++++++++++++...                                           ....]+++++++*.                ",
"                      ....^++++++++++++++++++++++...                                              .....++++++++.                ",
"                      .../++++++++++++++++++++...                                                 .....++++++++.                ",
"                      ..@++++++++++++++++++*...                                                   .....%+++++++-.               ",
"                      ..++++++++++++++++,...                                                      ......++++++++.               ",
"                      ..++++++++++++++...                                                         ......++++++++.               ",
"                      ..+++++++++++...                                                            .......++++++++.              ",
"                      ../++++++++..                                                               .......++++++++.              ",
"                      ..>++++++++.                                                                .......(+++++++.              ",
"                      ...++++++++.                                                                ........++++++++.             ",
"                      ..._+++++++.                                                                ........++++++++.             ",
"                      ....++++++++.                                                               ........:+++++++.             ",
"                      ....++++++++.                                                               .........++++++++.            ",
"                      ....#+++++++..                                                              .........++++++++.            ",
"                      .....++++++++.                                                              .........$+++++++..           ",
"                      .....++++++++.                                                              ..........++++++++.           ",
"                      .....{+++++++;.                                                             ..........++++++++.           ",
"                      ......++++++++.                                                             ..........<+++++++,.          ",
"                      ......++++++++.                                                             ...........++++++++.          ",
"                      ......[+++++++&.                                                            ...........++++++++.          ",
"                      .......++++++++.                                                            ...........*+++++++<.         ",
"                      .......)+++++++.                                                            .......... .++++++++.         ",
"                      ........++++++++.                                                           .......... .++++++++.         ",
"                      ........++++++++.                                                           .......... ..++++++++.        ",
"                      ........!+++++++.                                                           ..........  .++++++++.        ",
"                      .........++++++++.                                                          ..........  .++++++++.        ",
"                      .........++++++++.                                                          ..........   .++++++++.       ",
"                      .........:+++++++.                                                          ..........   .++++++++.       ",
"                      ..........++++++++.                                                         ..........   .++++++++..      ",
"                      ..........++++++++.                                                         ..........    .++++++++.      ",
"                      ..........++++++++*.                                                        ..........    .++++++++.      ",
"                      ...........++++++++.                                                        ..........    .<+++++++;.     ",
"                      ...........++++++++.                                                        ..........     .++++++++.     ",
"                      ...........&+++++++&.                                                       ..........     .++++++++.     ",
"                      .......... .++++++++.                                                       ..........     .-++++++++.    ",
"                      .......... .++++++++.                                                       ..........      .++++++++.    ",
"                      .......... .*++++++++.                                                      ..........      .++++++++.    ",
"                      ..........  .++++++++.                                                      ..........      ..++++++++.   ",
"                      ..........  .++++++++.                                                      ..........       .++++++++.   ",
"                      ..........   .++++++++.                                                     ..........       .++++++++.   ",
"                      ..........   .++++++++.                                                     ..........        .++++++++.  ",
"                      ..........   .++++++++.                                                     ..........        .++++++++.  ",
"                      ..........    .++++++++.                                                    ..........        .++++++++.. ",
"                      ..........    .++++++++.                                                    ..........         .++++++++. ",
"                      ...............$+++++++...............................................................         .++++++++. ",
"                      ................+++++++)..............................................................         .++++++++}.",
"                      ................++++++++..............................................................          .++++++++.",
"                      ................[+++++++[.............................................................          .++++++++.",
"                      .................++++++++.............................................................          .-+++++++&",
"                       ................++++++++............................................................            .++++++++",
"                       ................|+++++++{...........................................................           .+++++++++",
"                        ................++++++++..........................................................         ...;+++++++++",
"                         ...............@+++++++.........................................................        ...++++++++++++",
"                           ..............+++++++~......................................................       ...+++++++++++++++",
"                                        .++++++++.                                                         ...++++++++++++++++++",
"                                        .++++++++.                                                      ...++++++++++++++++++++}",
"                                         .++++++++.                                                  ...;+++++++++++++++++++++,.",
"                                         .++++++++.                                                ...++++++++++++++++++++++..  ",
"                                         .++++++++..                                            ...++++++++++++++++++++++-...   ",
"                                          .++++++++.                                         ...+++++++++++++++++++++++...      ",
"                                          .++++++++.                                      ...+++++++++++++++++++++++...         ",
"                                          .<+++++++*.                                  ...&++++++++++++++++++++++...            ",
"                                           .++++++++.                                ...++++++++++++++++++++++...               ",
"                                           .++++++++.                             ...++++++++++++++++++++++*...                 ",
"                                           .*++++++++.                         ...++++++++++++++++++++++<...                    ",
"                                            .++++++++.                      ...+++++++++++++++++++++++...                       ",
"                                            .++++++++.                   ...&++++++++++++++++++++++...                          ",
"                                            ..++++++++.                ..;++++++++++++++++++++++...                             ",
"                                             .++++++++.             ...++++++++++++++++++++++*...                               ",
"                                             .++++++++.          ...++++++++++++++++++++++,...                                  ",
"                                              .++++++++.      ...+++++++++++++++++++++++...                                     ",
"                                              .++++++++.   ...&++++++++++++++++++++++...                                        ",
"                                              .++++++++-...;++++++++++++++++++++++...                                           ",
"                                               .+++++++++++++++++++++++++++++++}..                                              ",
"                                               .++++++++++++++++++++++++++++,...                                                ",
"                                               .++++++++++++++++++++++++++...                                                   ",
"                                                .++++++++++++++++++++++...                                                      "};
