/* XPM */
static char *PointBasedRegistration___[] = {
/* columns rows colors chars-per-pixel */
"48 48 232 2",
"   c #763F4D",
".  c #7A3E4C",
"X  c #6E424E",
"o  c #72414D",
"O  c #6E4D55",
"+  c #7C4653",
"@  c #714953",
"#  c #6E535A",
"$  c #635A5E",
"%  c #6D5A5F",
"&  c #585F66",
"*  c #645F61",
"=  c #7C5562",
"-  c #715C61",
";  c #5E6465",
":  c #56656A",
">  c #5D646B",
",  c #576F75",
"<  c #596D72",
"1  c #44717C",
"2  c #636467",
"3  c #646B72",
"4  c #686B74",
"5  c #706F72",
"6  c #647174",
"7  c #6D767C",
"8  c #72797F",
"9  c #7E7A7D",
"0  c #8F374D",
"q  c #833D4E",
"w  c #8B394D",
"e  c #90364D",
"r  c #9D314B",
"t  c #90394D",
"y  c #953C52",
"u  c #9A3D54",
"i  c #A72E4B",
"p  c #AB2D4C",
"a  c #BF264B",
"s  c #B42A4B",
"d  c #BC284D",
"f  c #A0304B",
"g  c #AC304E",
"h  c #B52F50",
"j  c #BF2D50",
"k  c #A53752",
"l  c #BF3457",
"z  c #BF3B5D",
"x  c #834050",
"c  c #8B4356",
"v  c #934255",
"b  c #8E4F62",
"n  c #855461",
"m  c #895662",
"M  c #8A5B67",
"N  c #8C5E6C",
"B  c #975162",
"V  c #966370",
"C  c #91767E",
"Z  c #C14D6C",
"A  c #C1506D",
"S  c #C1627E",
"D  c #3B7987",
"F  c #367989",
"G  c #397C8C",
"H  c #2F7D90",
"J  c #407383",
"K  c #4C7883",
"L  c #4D7F8C",
"P  c #537884",
"I  c #597E87",
"U  c #5B7F8D",
"Y  c #637A86",
"T  c #6F7A8D",
"R  c #7F7480",
"E  c #747D84",
"W  c #7A7C84",
"Q  c #6E7D93",
"!  c #867780",
"~  c #827D86",
"^  c #C16680",
"/  c #C2768C",
"(  c #2C8095",
")  c #26869D",
"_  c #2C869B",
"`  c #3A8194",
"'  c #34869A",
"]  c #3A879B",
"[  c #3C8B9D",
"{  c #1F8EA9",
"}  c #1890AD",
"|  c #0E9BBD",
" . c #1595B5",
".. c #1299B8",
"X. c #218AA3",
"o. c #44808F",
"O. c #52838D",
"+. c #5E828B",
"@. c #4C8494",
"#. c #4E8F9F",
"$. c #5B8390",
"%. c #518E9D",
"&. c #5F8A9A",
"*. c #6F8085",
"=. c #61818E",
"-. c #758185",
";. c #73868C",
":. c #7C858C",
">. c #768A8F",
",. c #798A8D",
"<. c #628795",
"1. c #6A8296",
"2. c #6E8B96",
"3. c #648B99",
"4. c #6F8F9D",
"5. c #7C8693",
"6. c #778B90",
"7. c #7E8890",
"8. c #778F9A",
"9. c #7D8C99",
"0. c #67909A",
"q. c #6D929E",
"w. c #7C939B",
"e. c #7E999E",
"r. c #6C94A2",
"t. c #6E9AA9",
"y. c #7094A2",
"u. c #7A9AA5",
"i. c #7C9FAB",
"p. c #76A7B7",
"a. c #0A9EC2",
"s. c #08A2C7",
"d. c #04A6CD",
"f. c #00AAD3",
"g. c #08ADD4",
"h. c #1CB2D7",
"j. c #22B4D6",
"k. c #38BBD8",
"l. c #44BFDA",
"z. c #4DC1DB",
"x. c #5EC6DC",
"c. c #6CC9DE",
"v. c #76CCDF",
"b. c #848089",
"n. c #8B858F",
"m. c #81898F",
"M. c #8C8C8F",
"N. c #90898E",
"B. c #9D898D",
"V. c #838C94",
"C. c #8F8A94",
"Z. c #928693",
"A. c #928C93",
"S. c #859196",
"D. c #889197",
"F. c #869399",
"G. c #8B949A",
"H. c #8F999F",
"J. c #909195",
"K. c #939699",
"L. c #91999F",
"P. c #899DA0",
"I. c #829FAA",
"U. c #9D97A3",
"Y. c #939DA3",
"T. c #989EA3",
"R. c #A49AA1",
"E. c #80A0AE",
"W. c #97A1A7",
"Q. c #99A1A7",
"!. c #93A4AA",
"~. c #9CA4AA",
"^. c #9FA8AE",
"/. c #8CA9B4",
"(. c #86ABB9",
"). c #88AEBB",
"_. c #96ACB0",
"`. c #98AFB3",
"'. c #91AAB8",
"]. c #9AB0B7",
"[. c #9CB6B8",
"{. c #A0A7AE",
"}. c #ACA0A8",
"|. c #A1A9AE",
" X c #A1A7B0",
".X c #ADA7B1",
"XX c #A4ACB2",
"oX c #AFA9B3",
"OX c #B2A8B0",
"+X c #B9ADB4",
"@X c #A7B0B7",
"#X c #A9B2B7",
"$X c #A5B3BA",
"%X c #AAB3B9",
"&X c #A4BABF",
"*X c #AEB8BF",
"=X c #B6B0B8",
"-X c #B0B8BE",
";X c #C3869B",
":X c #C5899E",
">X c #C790A4",
",X c #C79DAE",
"<X c #C9A4B5",
"1X c #C4ADB1",
"2X c #CAAFBD",
"3X c #C8B2B9",
"4X c #A7BFC4",
"5X c #ACBBC2",
"6X c #ABBFC8",
"7X c #B4BDC3",
"8X c #CCB5C2",
"9X c #CBBBC5",
"0X c #A9C4C7",
"qX c #B7C0C6",
"wX c #B8C0C6",
"eX c #BCC5CB",
"rX c #8BD3E1",
"tX c #91D4E2",
"yX c #9BD8E3",
"uX c #ACDCE5",
"iX c #BEE2E7",
"pX c #D2C3CC",
"aX c #C2CBD1",
"sX c #D5C7D2",
"dX c #D7CAD5",
"fX c #DECDD7",
"gX c #DCCED9",
"hX c #CDD5DB",
"jX c #DED2DB",
"kX c #E1D0DA",
"lX c #C5DDE2",
"zX c None",
/* pixels */
"zXzXzXzXzXzXzXzXzXzXzXzXzXzXzXzXzXzXzXzXzXzXzXzXzXzXzXzXzXzXzXzXzXzXzXzXzXzXzXzXzXzXzXzXzXzXzXzX",
"zXzXzXzXzXzXzXzXzXzXo zXzXzXzXzXzXzXzXzXzXzXzXzXzXzXzXzXzXzXzXzXzXzXzXzXzXzXzXzXzXzXzXzXzXzXzXzX",
"zXzXzXzXzXzXzXw r s a a p e o zXzXzXzXzXzXzXzXzXzXzXzXzXzXzXzXzXzXzXzXzXzXzXzXzXzXzXzXzXzXzXzXzX",
"zXzXzXzXzXx h / ,X<X>X^ d a a t x zXzXzXzXzXzXzXzXzXzXzXzXzXzXzXzXzXzXzXzXzXzXzXzXzXzXzXzXzXzXzX",
"zXzXzXzX0 z 8XjXkXkXgX9Xj a a a g @ zXzXzXzXzXzXzXzXzXzXzXzXzXzXzXzXzXzXzXzXzXzXzXzXzXzXzXzXzXzX",
"zXzXzX. l 8XkXkXdX<XS a a a a a a f # zXzXzXzXzXzXzXzXzXzXzXzXzXzXzXzXzXzXzXzXzXzXzXzXzXzXzXzXzX",
"zXzXX s <XkXjX2XZ a a a a a a a a a x - zXzXzXzXzXzXzXzXzXzXzXzXzXzXzXzXzXzXzXzXzXzXzXzXzXzXzXzX",
"zXzXw a 8XsX:Xa a a a a a a a a a a d O zXzXzXzXzXzXzXzXzXzXzXzXzXzXzXzXzXzXzXzXzXzXzXzXzXzXzXzX",
"zXzXi a ;XZ a a a a a a a a a a a a a + zXzXzXzXzXzXzXzXzXzXzXzXzXzXzXzXV.r.zXzXzXzXzXzXzXzXzXzX",
"zXzXa a a a a a a a a a a a a a a a a q zXzXzXzXzXzXzXzXzXzXzXzXzXB.8.r.w.G.T zXzXzXzXzXzXzXzXzX",
"zX  a a a a a a a a a a a a a a a a a y - zXzXzXzXzXzXzXzXzXzXA.8.r.F.G.G.G.1.zXzXzXzXzXzXzXzXzX",
"zXo a a a a a a a a a a a a a a a a a t zXzXzXzXzXzXzXzXzX9.3.q.F.F.F.D.S.F.5.zXzXzXzXzXzXzXzXzX",
"zXzXs a a a a a a a a a a a a a a a a c zXzXzXzXzXzXzX<.3.w.:.Y.G.Y.P.L.Y.P.C.zXzXzXzXzXzXzXzXzX",
"zXzXr a a a a a a a a a a a a a a a a M zXzXzXzX4 U <.F.G.G.S.T.^.Q.~.~.Q.~.C.zXzXzXzXzXzXzXzXzX",
"zXzXq a a a a a a a a a a a a a a a g ! zXzXY $.2.G.G.G.G.G.Y.Q.~.~.~.~.~.~.A.zXzXzXzXzXzXzXzXzX",
"zXzXzXf a a a a a a a a a a a a a a m }.E.r.;.D.G.G.G.G.G.G.Q.^.Y.^.Q.~.Q.~.A.zXzXzXzXzXzXzXzXzX",
"zXzXzXo d a a a a a a a a a a a a c u.i.Y.G.:.-.G.G.H.G.G.G.~.XXQ.~.~.~.~.~.n.zXzXzXzXzXzXzXzXzX",
"zXzXzXzXo s a a a a a a a a a a c W Y.Y.Y.G.V.E G.G.G.G.G.G.Q.$X~.Q.~.Q.Q.Q.Z.zXzXzXzXzXzXzXzXzX",
"zXzXzXzXzXm u a a a a a a a p = G.Y.Y.Y.Y.G.V.W 7.G.G.G.G.G.W.%X|.Y.Q.~.XX-XoXzXzXzXzXzXzXzXzXzX",
"zXzXzXzXzXzX1XV B v k y B N ! Y.Y.Y.Y.Y.Y.F.V.:.E G.G.G.G.G.W.XX~.{.XXqXwXwXoXzXzXzXzXzXzXzXzXzX",
"zXzXzXzXzXzXzXzXr.:.pXM.%X%X@XS.F.F.F.F.G.F.V.V.7.G.Y.Y.Y.V.V.S.F.D.Y.%X%X%X.XzXzXzXzXzXzXzXzXzX",
"zXzXzXzXzXzXOXp.5XD.kXA.7X@X@XL.G.G.G.G.G.D.P.W.Q.Q.XX~.~.W.F.G.F.T P @.' ] @.O.e.zXzXzXzXzXzXzX",
"zXzXzXzXzXzXzX(.wXK.fXJ.-X#X#X|.G.K.G.G.G.S.Y.Q.^. X^.~.~.Q.S.V.K | f.j.x.x.c.h...L &XzXzXzXzXzX",
"zXzXzXzXzXzXzX'.7XL.pXK.qX@X#X#XG.G.G.G.L.C.Y.^.{.Q.^.~.~.Q.Y _ f.f.c.uXiXiXiXuXv.f.' 3.zXzXzXzX",
"zXzXzXzXzXzXzX3X(.~.+XK.wX@X#X#XQ.G.G.G.F.V.Y.@X%XXX~.~.~.S.{ f.f.f.l.rXuXiXiXiXiXrXf.X.zXzXzXzX",
"zXzXzXzXzXzXzXzX(.XXR.~.wX@X#X@X@XG.D.D.L.W.^.%X%X%X{.~.~.o.f.f.f.f.f.f.g.k.c.yXiXiXz.f.F zXzXzX",
"zXzXzXzXzXzXzXzX=X/.N.{.7X@X|.L.G.K.D.~.Q.Q.^.@X%X@XXX{.+.d.f.f.f.f.f.f.f.f.f.f.l.rXtXf.s.D zXzX",
"zXzXzXzXzXzXzXzXzX(.C XX@XV.L.^.wXqXS.~.~.W.XX%X@X%X@X~.` f.f.f.f.f.f.f.f.f.f.f.f.f.f.f.f.G zXzX",
"zXzXzXzXzXzXzXzXzX!.5 L.{.XXeXeXeXeXY.G.!.W.^.XXXXXXXXY._ f.f.f.f.f.f.f.f.f.f.f.f.f.f.f.f.( zXzX",
"zXzXzXzXzXzXzXzXzXzX2 5XeXaXaXaXaXaX5XF.~.~.P.L.H.Y.P.:.| f.f.f.f.f.f.f.f.f.f.f.f.f.f.f.f.} zXzX",
"zXzXzXzXzXzXzXzXzXzX* $X-XaXhXhXhXhXhXXXXX~.C.:.:.:.:., d.f.f.f.f.f.f.f.f.f.f.f.f.f.f.f.f.a.I zX",
"zXzXzXzXzXzXzXzXzXzX* y.-XaXhXhXhXhXhX7X^.~.S.:.:.7 > &  .f.f.f.f.f.f.f.f.f.f.f.f.f.f.f.f.X.w.zX",
"zXzXzXzXzXzXzXzXzXzX$ <.*XeXhXhXhXhXhXhX{.^.7.4 > > 7 7 ( f.f.f.f.f.f.f.f.f.f.f.f.f.f.f.f.( zXzX",
"zXzXzXzXzXzXzXzXzXzX% 4 I.aXhXhXhXhXhXhXXXD.4 3 7 7 7 7 F f.f.f.f.f.f.f.f.f.f.f.f.f.f.f.f.` zXzX",
"zXzXzXzXzXzXzXzXzXzXzXzX3.aXhXhXhXaX*XXX XV.W 7 7 E 7 7 , | f.f.f.f.f.f.f.f.f.f.f.f.f.f. .u.zXzX",
"zXzXzXzXzXzXzXzXzXzXzXzXY 6XhXaX%X{. X5X7XY.E 7 7 7 7 7 8 1 f.f.f.f.f.f.f.f.f.f.f.f.f.d.O.zXzXzX",
"zXzXzXzXzXzXzXzXzXzXzXzXzXt.XX{.@X7XwXwX7X^.7 7 7 7 7 7 7 `.[ f.f.f.f.f.f.f.f.f.f.f.f.` 4XzXzXzX",
"zXzXzXzXzXzXzXzXzXzXzXzXzXQ U.oXoXoXoXoXoX}.9 b.b.b.b.E _.0X8 J s.f.f.f.f.f.f.f.f.a.L ].zXzXzXzX",
"zXzXzXzXzXzXzXzXzXzXzXzXzXzXzXzXzXzXzXzXzXzXzXzXzXzX6.!.[.;.zXzX1 ) a.f.f.f.f.a._ P zXzXzXzXzXzX",
"zXzXzXzXzXzXzXzXzXzXzXzXzXzXzXzXzXzXzXzXzXzXzXzXzX6.P.!.;.zXzXzXzXzX_.0.#.%.q.`.lXzXzXzXzXzXzXzX",
"zXzXzXzXzXzXzXzXzXzXzXzXzXzXzXzXzXzXzXzXzXzXzXzXzXS.S.zXzXzXzXzXzXzXzXzXzXzXzXzXzXzXzXzXzXzXzXzX",
"zXzXzXzXzXzXzXzXzXzXzXzXzXzXzXzXzXzXzXzXzXzXzXzX-.,.zXzXzXzXzXzXzXzXzXzXzXzXzXzXzXzXzXzXzXzXzXzX",
"zXzXzXzXzXzXzXzXzXzXzXzXzXzXzXzXzXzXzXzXzXzXzX6 *.zXzXzXzXzXzXzXzXzXzXzXzXzXzXzXzXzXzXzXzXzXzXzX",
"zXzXzXzXzXzXzXzXzXzXzXzXzXzXzXzXzXzXzXzXzXzX; 7 zXzXzXzXzXzXzXzXzXzXzXzXzXzXzXzXzXzXzXzXzXzXzXzX",
"zXzXzXzXzXzXzXzXzXzXzXzXzXzXzXzXzXzXzXzXzX; 6 zXzXzXzXzXzXzXzXzXzXzXzXzXzXzXzXzXzXzXzXzXzXzXzXzX",
"zXzXzXzXzXzXzXzXzXzXzXzXzXzXzXzXzXzXzXzX: < zXzXzXzXzXzXzXzXzXzXzXzXzXzXzXzXzXzXzXzXzXzXzXzXzXzX",
"zXzXzXzXzXzXzXzXzXzXzXzXzXzXzXzXzXzXzXzXzXzXzXzXzXzXzXzXzXzXzXzXzXzXzXzXzXzXzXzXzXzXzXzXzXzXzXzX",
"zXzXzXzXzXzXzXzXzXzXzXzXzXzXzXzXzXzXzXzXzXzXzXzXzXzXzXzXzXzXzXzXzXzXzXzXzXzXzXzXzXzXzXzXzXzXzXzX"
};
