/* XPM */
static char * icon_xpm[] = {
"100 100 4 1",
" 	c None",
".	c #FFFFFF",
"+	c #000000",
"@	c #22B14C",
"....................................................................................................",
"....................................................................................................",
"....................................................................................................",
"....................................................................................................",
"....................................................................................................",
"....................................................................................................",
"....................................................................................................",
"....................................................................................................",
"....................................................................................................",
"....................................................................................................",
"....................................................................................................",
".............................++++...................................................................",
"...........................++++++...................................................................",
"..........................+++++++...................................................................",
".........................+++.++++...................................................................",
".........................++..++++...................................................................",
".............................++++...................................................................",
".............................++++...........................+++++++.................................",
".............................++++.........................++++++++++................................",
".............................++++.........................+++++++++++...............................",
".............................++++.........................++....+++++...............................",
".............................++++................................++++...............................",
".............................++++................................++++...............................",
".............................++++...............................++++................................",
".............................++++...........................+++++++.................................",
".............................++++...........................+++++++.................................",
".........................++++++++++++.......................+++++++++...............................",
".........................++++++++++++............................+++++..............................",
".........................++++++++++++.............................++++..............................",
"..................................................................++++..............................",
"..................................................................++++..............................",
"..........................................................++.....+++++..............................",
"..........................................................+++++++++++...............................",
"..........................................................++++++++++................................",
"............................................................++++++..................................",
"....................................................................................................",
"....................................................................................................",
"....................................................................................................",
"....................................................................................................",
"....................................................................................................",
"....................................................................................................",
"....................................................................................................",
"..........................................++++++....................................................",
"........................................++++++++++..................................................",
"........................................++++++++++..................................................",
"........................................++....+++++.................................................",
"...............................................++++.................................................",
"...............................................++++.................................................",
"...............................................++++.................................................",
"..............................................++++..................................................",
"..............................................++++..................................................",
".............................................++++...................................................",
"............................................++++....................................................",
"...........................................++++.....................................................",
"..........................................++++......................................................",
".........................................++++.......................................................",
".........................................+++........................................................",
"........................................++++++++++++................................................",
"........................................++++++++++++................................................",
"........................................++++++++++++................................................",
"....................................................................................................",
"....................................................................................................",
"....................................................................................................",
"....................................................................................................",
"....................................................................................................",
"....................................................+++.............................................",
"...................................................+++++++..........................................",
"...................................................++++++++++.......................................",
"...................................................++++++++++++.....................................",
"...................................................+++++++++++++++..................................",
"........................+++++++++++++++++++++++++++++++++++++++++++++...............................",
".......................+++++++++++++++++++++++++++++++++@++++++++++++++.............................",
".......................+++++++++++++++++++++++++++++++++@@@@++++++++++++++..........................",
".......................+++++++++++++++++++++++++++++++++@@@@@@+++++++++++++++.......................",
".......................++++++++++++++++++++++++++++++++@@@@@@@@@@++++++++++++++.....................",
".......................+++++@@@@@@@@@@@@@@@@@@@@@@@@@@@@@@@@@@@@@@@@++++++++++++++..................",
".......................+++++@@@@@@@@@@@@@@@@@@@@@@@@@@@@@@@@@@@@@@@@@@+++++++++++++.................",
".......................+++++@@@@@@@@@@@@@@@@@@@@@@@@@@@@@@@@@@@@@@@@@@@@@+++++++++++................",
".......................+++++@@@@@@@@@@@@@@@@@@@@@@@@@@@@@@@@@@@@@@@@@@@@@+++++++++++................",
".......................+++++@@@@@@@@@@@@@@@@@@@@@@@@@@@@@@@@@@@@@@@@@@+++++++++++++.................",
".......................+++++@@@@@@@@@@@@@@@@@@@@@@@@@@@@@@@@@@@@@@@@++++++++++++++..................",
".......................++++++++++++++++++++++++++++++++@@@@@@@@@@++++++++++++++.....................",
".......................+++++++++++++++++++++++++++++++++@@@@@@+++++++++++++++.......................",
".......................+++++++++++++++++++++++++++++++++@@@@++++++++++++++..........................",
".......................+++++++++++++++++++++++++++++++++@++++++++++++++.............................",
"........................+++++++++++++++++++++++++++++++++++++++++++++...............................",
"...................................................+++++++++++++++..................................",
"...................................................++++++++++++.....................................",
"...................................................++++++++++.......................................",
"...................................................+++++++..........................................",
"....................................................+++.............................................",
"....................................................................................................",
"....................................................................................................",
"....................................................................................................",
"....................................................................................................",
"....................................................................................................",
"....................................................................................................",
"....................................................................................................",
"....................................................................................................",
"...................................................................................................."};
