solid ascii
 facet normal 0.427176 0.0420712 0.903189
  outer loop
   vertex 565.676 9.31088e-005 1137.38
   vertex 554.807 110.358 1137.38
   vertex 450.396 89.5894 1187.73
  endloop
 endfacet
 facet normal 0.427176 0.0420706 0.903189
  outer loop
   vertex 565.676 9.31088e-005 1137.38
   vertex 450.396 89.5894 1187.73
   vertex 459.22 0.000131153 1187.73
  endloop
 endfacet
 facet normal 0.336705 0.0331605 0.941026
  outer loop
   vertex 459.22 0.000131153 1187.73
   vertex 450.396 89.5894 1187.73
   vertex 341.648 67.9581 1227.41
  endloop
 endfacet
 facet normal 0.336705 0.0331611 0.941026
  outer loop
   vertex 459.22 0.000131153 1187.73
   vertex 341.648 67.9581 1227.41
   vertex 348.341 5.14113e-005 1227.41
  endloop
 endfacet
 facet normal 0.242911 0.0239236 0.969754
  outer loop
   vertex 348.341 5.14113e-005 1227.41
   vertex 341.648 67.9581 1227.41
   vertex 229.61 45.6723 1256.02
  endloop
 endfacet
 facet normal 0.242911 0.0239235 0.969754
  outer loop
   vertex 348.341 5.14113e-005 1227.41
   vertex 229.61 45.6723 1256.02
   vertex 234.108 4.76884e-005 1256.02
  endloop
 endfacet
 facet normal 0.146716 0.0144496 0.989073
  outer loop
   vertex 234.108 4.76884e-005 1256.02
   vertex 229.61 45.6723 1256.02
   vertex 115.361 22.9466 1273.3
  endloop
 endfacet
 facet normal 0.146716 0.0144497 0.989073
  outer loop
   vertex 234.108 4.76884e-005 1256.02
   vertex 115.361 22.9466 1273.3
   vertex 117.62 3.10671e-005 1273.3
  endloop
 endfacet
 facet normal 0.0490671 0.00483248 0.998784
  outer loop
   vertex 117.62 3.10671e-005 1273.3
   vertex 115.361 22.9466 1273.3
   vertex 0 0 1279.08
  endloop
 endfacet
 facet normal 0.0471814 0.0143123 0.998784
  outer loop
   vertex 115.361 22.9466 1273.3
   vertex 108.667 45.0114 1273.3
   vertex 0 0 1279.08
  endloop
 endfacet
 facet normal 0.141078 0.0427954 0.989073
  outer loop
   vertex 229.61 45.6723 1256.02
   vertex 216.288 89.5894 1256.02
   vertex 108.667 45.0114 1273.3
  endloop
 endfacet
 facet normal 0.141078 0.0427955 0.989073
  outer loop
   vertex 229.61 45.6723 1256.02
   vertex 108.667 45.0114 1273.3
   vertex 115.361 22.9466 1273.3
  endloop
 endfacet
 facet normal 0.233575 0.0708543 0.969754
  outer loop
   vertex 341.648 67.9581 1227.41
   vertex 321.826 133.305 1227.41
   vertex 216.288 89.5894 1256.02
  endloop
 endfacet
 facet normal 0.233575 0.0708543 0.969754
  outer loop
   vertex 341.648 67.9581 1227.41
   vertex 216.288 89.5894 1256.02
   vertex 229.61 45.6723 1256.02
  endloop
 endfacet
 facet normal 0.323765 0.0982133 0.941026
  outer loop
   vertex 450.396 89.5894 1187.73
   vertex 424.264 175.736 1187.73
   vertex 321.826 133.305 1227.41
  endloop
 endfacet
 facet normal 0.323765 0.098213 0.941026
  outer loop
   vertex 450.396 89.5894 1187.73
   vertex 321.826 133.305 1227.41
   vertex 341.648 67.9581 1227.41
  endloop
 endfacet
 facet normal 0.41076 0.124603 0.903189
  outer loop
   vertex 554.807 110.358 1137.38
   vertex 522.617 216.475 1137.38
   vertex 424.264 175.736 1187.73
  endloop
 endfacet
 facet normal 0.41076 0.124603 0.903189
  outer loop
   vertex 554.807 110.358 1137.38
   vertex 424.264 175.736 1187.73
   vertex 450.396 89.5894 1187.73
  endloop
 endfacet
 facet normal 0.45501 0.243208 0.856631
  outer loop
   vertex 615.936 255.129 1076.84
   vertex 554.328 370.39 1076.84
   vertex 470.342 314.273 1137.38
  endloop
 endfacet
 facet normal 0.45501 0.243208 0.856631
  outer loop
   vertex 615.936 255.129 1076.84
   vertex 470.342 314.273 1137.38
   vertex 522.617 216.475 1137.38
  endloop
 endfacet
 facet normal 0.378558 0.202344 0.903189
  outer loop
   vertex 522.617 216.475 1137.38
   vertex 470.342 314.273 1137.38
   vertex 381.828 255.129 1187.73
  endloop
 endfacet
 facet normal 0.378558 0.202344 0.903189
  outer loop
   vertex 522.617 216.475 1137.38
   vertex 381.828 255.129 1187.73
   vertex 424.264 175.736 1187.73
  endloop
 endfacet
 facet normal 0.298384 0.159489 0.941026
  outer loop
   vertex 424.264 175.736 1187.73
   vertex 381.828 255.129 1187.73
   vertex 289.635 193.528 1227.41
  endloop
 endfacet
 facet normal 0.298384 0.15949 0.941026
  outer loop
   vertex 424.264 175.736 1187.73
   vertex 289.635 193.528 1227.41
   vertex 321.826 133.305 1227.41
  endloop
 endfacet
 facet normal 0.215264 0.115061 0.969754
  outer loop
   vertex 321.826 133.305 1227.41
   vertex 289.635 193.528 1227.41
   vertex 194.654 130.064 1256.02
  endloop
 endfacet
 facet normal 0.215264 0.115061 0.969754
  outer loop
   vertex 321.826 133.305 1227.41
   vertex 194.654 130.064 1256.02
   vertex 216.288 89.5894 1256.02
  endloop
 endfacet
 facet normal 0.130018 0.069496 0.989073
  outer loop
   vertex 216.288 89.5894 1256.02
   vertex 194.654 130.064 1256.02
   vertex 97.7979 65.3465 1273.3
  endloop
 endfacet
 facet normal 0.130018 0.069496 0.989073
  outer loop
   vertex 216.288 89.5894 1256.02
   vertex 97.7979 65.3465 1273.3
   vertex 108.667 45.0114 1273.3
  endloop
 endfacet
 facet normal 0.0434826 0.023242 0.998784
  outer loop
   vertex 108.667 45.0114 1273.3
   vertex 97.7979 65.3465 1273.3
   vertex 0 0 1279.08
  endloop
 endfacet
 facet normal 0.0381128 0.0312784 0.998784
  outer loop
   vertex 97.7979 65.3465 1273.3
   vertex 83.1703 83.1703 1273.3
   vertex 0 0 1279.08
  endloop
 endfacet
 facet normal 0.113962 0.0935259 0.989073
  outer loop
   vertex 194.654 130.064 1256.02
   vertex 165.54 165.54 1256.02
   vertex 83.1703 83.1703 1273.3
  endloop
 endfacet
 facet normal 0.113962 0.0935259 0.989073
  outer loop
   vertex 194.654 130.064 1256.02
   vertex 83.1703 83.1703 1273.3
   vertex 97.7979 65.3465 1273.3
  endloop
 endfacet
 facet normal 0.188681 0.154846 0.969754
  outer loop
   vertex 289.635 193.528 1227.41
   vertex 246.315 246.315 1227.41
   vertex 165.54 165.54 1256.02
  endloop
 endfacet
 facet normal 0.188681 0.154846 0.969754
  outer loop
   vertex 289.635 193.528 1227.41
   vertex 165.54 165.54 1256.02
   vertex 194.654 130.064 1256.02
  endloop
 endfacet
 facet normal 0.261536 0.214637 0.941026
  outer loop
   vertex 381.828 255.129 1187.73
   vertex 324.718 324.718 1187.73
   vertex 246.315 246.315 1227.41
  endloop
 endfacet
 facet normal 0.261536 0.214637 0.941026
  outer loop
   vertex 381.828 255.129 1187.73
   vertex 246.315 246.315 1227.41
   vertex 289.635 193.528 1227.41
  endloop
 endfacet
 facet normal 0.331809 0.272309 0.903189
  outer loop
   vertex 470.342 314.273 1137.38
   vertex 399.993 399.993 1137.38
   vertex 324.718 324.718 1187.73
  endloop
 endfacet
 facet normal 0.331809 0.272309 0.903189
  outer loop
   vertex 470.342 314.273 1137.38
   vertex 324.718 324.718 1187.73
   vertex 381.828 255.129 1187.73
  endloop
 endfacet
 facet normal 0.272309 0.331809 0.903189
  outer loop
   vertex 399.993 399.993 1137.38
   vertex 314.273 470.342 1137.38
   vertex 255.129 381.828 1187.73
  endloop
 endfacet
 facet normal 0.272309 0.331809 0.903189
  outer loop
   vertex 399.993 399.993 1137.38
   vertex 255.129 381.828 1187.73
   vertex 324.718 324.718 1187.73
  endloop
 endfacet
 facet normal 0.214637 0.261536 0.941026
  outer loop
   vertex 324.718 324.718 1187.73
   vertex 255.129 381.828 1187.73
   vertex 193.528 289.635 1227.41
  endloop
 endfacet
 facet normal 0.214637 0.261536 0.941026
  outer loop
   vertex 324.718 324.718 1187.73
   vertex 193.528 289.635 1227.41
   vertex 246.315 246.315 1227.41
  endloop
 endfacet
 facet normal 0.154846 0.188681 0.969754
  outer loop
   vertex 246.315 246.315 1227.41
   vertex 193.528 289.635 1227.41
   vertex 130.064 194.654 1256.02
  endloop
 endfacet
 facet normal 0.154846 0.188681 0.969754
  outer loop
   vertex 246.315 246.315 1227.41
   vertex 130.064 194.654 1256.02
   vertex 165.54 165.54 1256.02
  endloop
 endfacet
 facet normal 0.0935259 0.113962 0.989073
  outer loop
   vertex 165.54 165.54 1256.02
   vertex 130.064 194.654 1256.02
   vertex 65.3465 97.7979 1273.3
  endloop
 endfacet
 facet normal 0.0935259 0.113962 0.989073
  outer loop
   vertex 165.54 165.54 1256.02
   vertex 65.3465 97.7979 1273.3
   vertex 83.1703 83.1703 1273.3
  endloop
 endfacet
 facet normal 0.0312784 0.0381129 0.998784
  outer loop
   vertex 83.1703 83.1703 1273.3
   vertex 65.3465 97.7979 1273.3
   vertex 0 0 1279.08
  endloop
 endfacet
 facet normal 0.023242 0.0434827 0.998784
  outer loop
   vertex 65.3465 97.7979 1273.3
   vertex 45.0114 108.667 1273.3
   vertex 0 0 1279.08
  endloop
 endfacet
 facet normal 0.069496 0.130018 0.989073
  outer loop
   vertex 130.064 194.654 1256.02
   vertex 89.5894 216.288 1256.02
   vertex 45.0114 108.667 1273.3
  endloop
 endfacet
 facet normal 0.069496 0.130018 0.989073
  outer loop
   vertex 130.064 194.654 1256.02
   vertex 45.0114 108.667 1273.3
   vertex 65.3465 97.7979 1273.3
  endloop
 endfacet
 facet normal 0.115061 0.215264 0.969754
  outer loop
   vertex 193.528 289.635 1227.41
   vertex 133.305 321.826 1227.41
   vertex 89.5894 216.288 1256.02
  endloop
 endfacet
 facet normal 0.115061 0.215264 0.969754
  outer loop
   vertex 193.528 289.635 1227.41
   vertex 89.5894 216.288 1256.02
   vertex 130.064 194.654 1256.02
  endloop
 endfacet
 facet normal 0.159489 0.298384 0.941026
  outer loop
   vertex 255.129 381.828 1187.73
   vertex 175.736 424.264 1187.73
   vertex 133.305 321.826 1227.41
  endloop
 endfacet
 facet normal 0.159489 0.298384 0.941026
  outer loop
   vertex 255.129 381.828 1187.73
   vertex 133.305 321.826 1227.41
   vertex 193.528 289.635 1227.41
  endloop
 endfacet
 facet normal 0.098213 0.323765 0.941026
  outer loop
   vertex 175.736 424.264 1187.73
   vertex 89.5894 450.396 1187.73
   vertex 67.9581 341.648 1227.41
  endloop
 endfacet
 facet normal 0.0982131 0.323765 0.941026
  outer loop
   vertex 175.736 424.264 1187.73
   vertex 67.9581 341.648 1227.41
   vertex 133.305 321.826 1227.41
  endloop
 endfacet
 facet normal 0.0708543 0.233575 0.969754
  outer loop
   vertex 133.305 321.826 1227.41
   vertex 67.9581 341.648 1227.41
   vertex 45.6723 229.61 1256.02
  endloop
 endfacet
 facet normal 0.0708543 0.233575 0.969754
  outer loop
   vertex 133.305 321.826 1227.41
   vertex 45.6723 229.61 1256.02
   vertex 89.5894 216.288 1256.02
  endloop
 endfacet
 facet normal 0.0427954 0.141078 0.989073
  outer loop
   vertex 89.5894 216.288 1256.02
   vertex 45.6723 229.61 1256.02
   vertex 22.9466 115.36 1273.3
  endloop
 endfacet
 facet normal 0.0427954 0.141078 0.989073
  outer loop
   vertex 89.5894 216.288 1256.02
   vertex 22.9466 115.36 1273.3
   vertex 45.0114 108.667 1273.3
  endloop
 endfacet
 facet normal 0.0143123 0.0471814 0.998784
  outer loop
   vertex 45.0114 108.667 1273.3
   vertex 22.9466 115.36 1273.3
   vertex 0 0 1279.08
  endloop
 endfacet
 facet normal 0.00483267 0.049067 0.998784
  outer loop
   vertex 22.9466 115.36 1273.3
   vertex -6.15827e-006 117.621 1273.3
   vertex 0 0 1279.08
  endloop
 endfacet
 facet normal 0.0144502 0.146716 0.989073
  outer loop
   vertex 45.6723 229.61 1256.02
   vertex -1.7137e-005 234.108 1256.02
   vertex -6.15827e-006 117.621 1273.3
  endloop
 endfacet
 facet normal 0.0144502 0.146716 0.989073
  outer loop
   vertex 45.6723 229.61 1256.02
   vertex -6.15827e-006 117.621 1273.3
   vertex 22.9466 115.36 1273.3
  endloop
 endfacet
 facet normal 0.0239245 0.24291 0.969754
  outer loop
   vertex 67.9581 341.648 1227.41
   vertex -6.77876e-006 348.342 1227.41
   vertex -1.7137e-005 234.108 1256.02
  endloop
 endfacet
 facet normal 0.0239245 0.24291 0.969754
  outer loop
   vertex 67.9581 341.648 1227.41
   vertex -1.7137e-005 234.108 1256.02
   vertex 45.6723 229.61 1256.02
  endloop
 endfacet
 facet normal 0.0331625 0.336705 0.941026
  outer loop
   vertex 89.5894 450.396 1187.73
   vertex -3.01963e-005 459.22 1187.73
   vertex -6.77876e-006 348.342 1227.41
  endloop
 endfacet
 facet normal 0.0331624 0.336705 0.941026
  outer loop
   vertex 89.5894 450.396 1187.73
   vertex -6.77876e-006 348.342 1227.41
   vertex 67.9581 341.648 1227.41
  endloop
 endfacet
 facet normal -0.0331627 0.336705 0.941026
  outer loop
   vertex -3.01963e-005 459.22 1187.73
   vertex -89.5894 450.396 1187.73
   vertex -67.9581 341.648 1227.41
  endloop
 endfacet
 facet normal -0.0331626 0.336705 0.941026
  outer loop
   vertex -3.01963e-005 459.22 1187.73
   vertex -67.9581 341.648 1227.41
   vertex -6.77876e-006 348.342 1227.41
  endloop
 endfacet
 facet normal -0.0239246 0.24291 0.969754
  outer loop
   vertex -6.77876e-006 348.342 1227.41
   vertex -67.9581 341.648 1227.41
   vertex -45.6723 229.61 1256.02
  endloop
 endfacet
 facet normal -0.0239246 0.24291 0.969754
  outer loop
   vertex -6.77876e-006 348.342 1227.41
   vertex -45.6723 229.61 1256.02
   vertex -1.7137e-005 234.108 1256.02
  endloop
 endfacet
 facet normal -0.0144503 0.146716 0.989073
  outer loop
   vertex -1.7137e-005 234.108 1256.02
   vertex -45.6723 229.61 1256.02
   vertex -22.9466 115.36 1273.3
  endloop
 endfacet
 facet normal -0.0144503 0.146716 0.989073
  outer loop
   vertex -1.7137e-005 234.108 1256.02
   vertex -22.9466 115.36 1273.3
   vertex -6.15827e-006 117.621 1273.3
  endloop
 endfacet
 facet normal -0.00483269 0.049067 0.998784
  outer loop
   vertex -6.15827e-006 117.621 1273.3
   vertex -22.9466 115.36 1273.3
   vertex 0 0 1279.08
  endloop
 endfacet
 facet normal -0.0143123 0.0471814 0.998784
  outer loop
   vertex -22.9466 115.36 1273.3
   vertex -45.0114 108.667 1273.3
   vertex 0 0 1279.08
  endloop
 endfacet
 facet normal -0.0427955 0.141078 0.989073
  outer loop
   vertex -45.6723 229.61 1256.02
   vertex -89.5894 216.288 1256.02
   vertex -45.0114 108.667 1273.3
  endloop
 endfacet
 facet normal -0.0427955 0.141078 0.989073
  outer loop
   vertex -45.6723 229.61 1256.02
   vertex -45.0114 108.667 1273.3
   vertex -22.9466 115.36 1273.3
  endloop
 endfacet
 facet normal -0.0708545 0.233575 0.969754
  outer loop
   vertex -67.9581 341.648 1227.41
   vertex -133.305 321.826 1227.41
   vertex -89.5894 216.288 1256.02
  endloop
 endfacet
 facet normal -0.0708544 0.233575 0.969754
  outer loop
   vertex -67.9581 341.648 1227.41
   vertex -89.5894 216.288 1256.02
   vertex -45.6723 229.61 1256.02
  endloop
 endfacet
 facet normal -0.0982133 0.323765 0.941026
  outer loop
   vertex -89.5894 450.396 1187.73
   vertex -175.736 424.264 1187.73
   vertex -133.305 321.826 1227.41
  endloop
 endfacet
 facet normal -0.0982133 0.323765 0.941026
  outer loop
   vertex -89.5894 450.396 1187.73
   vertex -133.305 321.826 1227.41
   vertex -67.9581 341.648 1227.41
  endloop
 endfacet
 facet normal -0.15949 0.298384 0.941026
  outer loop
   vertex -175.736 424.264 1187.73
   vertex -255.129 381.827 1187.73
   vertex -193.528 289.635 1227.41
  endloop
 endfacet
 facet normal -0.159489 0.298384 0.941026
  outer loop
   vertex -175.736 424.264 1187.73
   vertex -193.528 289.635 1227.41
   vertex -133.305 321.826 1227.41
  endloop
 endfacet
 facet normal -0.115061 0.215264 0.969754
  outer loop
   vertex -133.305 321.826 1227.41
   vertex -193.528 289.635 1227.41
   vertex -130.064 194.654 1256.02
  endloop
 endfacet
 facet normal -0.115061 0.215264 0.969754
  outer loop
   vertex -133.305 321.826 1227.41
   vertex -130.064 194.654 1256.02
   vertex -89.5894 216.288 1256.02
  endloop
 endfacet
 facet normal -0.0694961 0.130018 0.989073
  outer loop
   vertex -89.5894 216.288 1256.02
   vertex -130.064 194.654 1256.02
   vertex -65.3465 97.7979 1273.3
  endloop
 endfacet
 facet normal -0.0694961 0.130018 0.989073
  outer loop
   vertex -89.5894 216.288 1256.02
   vertex -65.3465 97.7979 1273.3
   vertex -45.0114 108.667 1273.3
  endloop
 endfacet
 facet normal -0.023242 0.0434827 0.998784
  outer loop
   vertex -45.0114 108.667 1273.3
   vertex -65.3465 97.7979 1273.3
   vertex 0 0 1279.08
  endloop
 endfacet
 facet normal -0.0312784 0.0381129 0.998784
  outer loop
   vertex -65.3465 97.7979 1273.3
   vertex -83.1703 83.1703 1273.3
   vertex 0 0 1279.08
  endloop
 endfacet
 facet normal -0.093526 0.113962 0.989073
  outer loop
   vertex -130.064 194.654 1256.02
   vertex -165.54 165.54 1256.02
   vertex -83.1703 83.1703 1273.3
  endloop
 endfacet
 facet normal -0.093526 0.113962 0.989073
  outer loop
   vertex -130.064 194.654 1256.02
   vertex -83.1703 83.1703 1273.3
   vertex -65.3465 97.7979 1273.3
  endloop
 endfacet
 facet normal -0.154846 0.188681 0.969754
  outer loop
   vertex -193.528 289.635 1227.41
   vertex -246.315 246.315 1227.41
   vertex -165.54 165.54 1256.02
  endloop
 endfacet
 facet normal -0.154846 0.188681 0.969754
  outer loop
   vertex -193.528 289.635 1227.41
   vertex -165.54 165.54 1256.02
   vertex -130.064 194.654 1256.02
  endloop
 endfacet
 facet normal -0.214637 0.261536 0.941026
  outer loop
   vertex -255.129 381.827 1187.73
   vertex -324.718 324.717 1187.73
   vertex -246.315 246.315 1227.41
  endloop
 endfacet
 facet normal -0.214637 0.261536 0.941026
  outer loop
   vertex -255.129 381.827 1187.73
   vertex -246.315 246.315 1227.41
   vertex -193.528 289.635 1227.41
  endloop
 endfacet
 facet normal -0.272309 0.331809 0.903189
  outer loop
   vertex -314.273 470.342 1137.38
   vertex -399.993 399.993 1137.38
   vertex -324.718 324.717 1187.73
  endloop
 endfacet
 facet normal -0.272309 0.331809 0.903189
  outer loop
   vertex -314.273 470.342 1137.38
   vertex -324.718 324.717 1187.73
   vertex -255.129 381.827 1187.73
  endloop
 endfacet
 facet normal -0.331809 0.272309 0.903189
  outer loop
   vertex -399.993 399.993 1137.38
   vertex -470.342 314.273 1137.38
   vertex -381.827 255.129 1187.73
  endloop
 endfacet
 facet normal -0.331809 0.272309 0.903189
  outer loop
   vertex -399.993 399.993 1137.38
   vertex -381.827 255.129 1187.73
   vertex -324.718 324.717 1187.73
  endloop
 endfacet
 facet normal -0.261536 0.214637 0.941026
  outer loop
   vertex -324.718 324.717 1187.73
   vertex -381.827 255.129 1187.73
   vertex -289.635 193.528 1227.41
  endloop
 endfacet
 facet normal -0.261536 0.214637 0.941026
  outer loop
   vertex -324.718 324.717 1187.73
   vertex -289.635 193.528 1227.41
   vertex -246.315 246.315 1227.41
  endloop
 endfacet
 facet normal -0.188681 0.154846 0.969754
  outer loop
   vertex -246.315 246.315 1227.41
   vertex -289.635 193.528 1227.41
   vertex -194.654 130.064 1256.02
  endloop
 endfacet
 facet normal -0.188681 0.154846 0.969754
  outer loop
   vertex -246.315 246.315 1227.41
   vertex -194.654 130.064 1256.02
   vertex -165.54 165.54 1256.02
  endloop
 endfacet
 facet normal -0.113962 0.0935259 0.989073
  outer loop
   vertex -165.54 165.54 1256.02
   vertex -194.654 130.064 1256.02
   vertex -97.7979 65.3465 1273.3
  endloop
 endfacet
 facet normal -0.113962 0.0935259 0.989073
  outer loop
   vertex -165.54 165.54 1256.02
   vertex -97.7979 65.3465 1273.3
   vertex -83.1703 83.1703 1273.3
  endloop
 endfacet
 facet normal -0.0381129 0.0312784 0.998784
  outer loop
   vertex -83.1703 83.1703 1273.3
   vertex -97.7979 65.3465 1273.3
   vertex 0 0 1279.08
  endloop
 endfacet
 facet normal -0.0434827 0.023242 0.998784
  outer loop
   vertex -97.7979 65.3465 1273.3
   vertex -108.667 45.0114 1273.3
   vertex 0 0 1279.08
  endloop
 endfacet
 facet normal -0.130018 0.069496 0.989073
  outer loop
   vertex -194.654 130.064 1256.02
   vertex -216.288 89.5893 1256.02
   vertex -108.667 45.0114 1273.3
  endloop
 endfacet
 facet normal -0.130018 0.069496 0.989073
  outer loop
   vertex -194.654 130.064 1256.02
   vertex -108.667 45.0114 1273.3
   vertex -97.7979 65.3465 1273.3
  endloop
 endfacet
 facet normal -0.215264 0.115061 0.969754
  outer loop
   vertex -289.635 193.528 1227.41
   vertex -321.826 133.304 1227.41
   vertex -216.288 89.5893 1256.02
  endloop
 endfacet
 facet normal -0.215264 0.115061 0.969754
  outer loop
   vertex -289.635 193.528 1227.41
   vertex -216.288 89.5893 1256.02
   vertex -194.654 130.064 1256.02
  endloop
 endfacet
 facet normal -0.298384 0.159489 0.941026
  outer loop
   vertex -381.827 255.129 1187.73
   vertex -424.264 175.736 1187.73
   vertex -321.826 133.304 1227.41
  endloop
 endfacet
 facet normal -0.298384 0.159489 0.941026
  outer loop
   vertex -381.827 255.129 1187.73
   vertex -321.826 133.304 1227.41
   vertex -289.635 193.528 1227.41
  endloop
 endfacet
 facet normal -0.378559 0.202344 0.903189
  outer loop
   vertex -470.342 314.273 1137.38
   vertex -522.616 216.475 1137.38
   vertex -424.264 175.736 1187.73
  endloop
 endfacet
 facet normal -0.378558 0.202344 0.903189
  outer loop
   vertex -470.342 314.273 1137.38
   vertex -424.264 175.736 1187.73
   vertex -381.827 255.129 1187.73
  endloop
 endfacet
 facet normal -0.45501 0.243208 0.85663
  outer loop
   vertex -554.328 370.39 1076.84
   vertex -615.936 255.129 1076.84
   vertex -522.616 216.475 1137.38
  endloop
 endfacet
 facet normal -0.45501 0.243208 0.856631
  outer loop
   vertex -554.328 370.39 1076.84
   vertex -522.616 216.475 1137.38
   vertex -470.342 314.273 1137.38
  endloop
 endfacet
 facet normal -0.41076 0.124603 0.903189
  outer loop
   vertex -522.616 216.475 1137.38
   vertex -554.807 110.358 1137.38
   vertex -450.396 89.5893 1187.73
  endloop
 endfacet
 facet normal -0.41076 0.124603 0.903189
  outer loop
   vertex -522.616 216.475 1137.38
   vertex -450.396 89.5893 1187.73
   vertex -424.264 175.736 1187.73
  endloop
 endfacet
 facet normal -0.323765 0.0982131 0.941026
  outer loop
   vertex -424.264 175.736 1187.73
   vertex -450.396 89.5893 1187.73
   vertex -341.648 67.958 1227.41
  endloop
 endfacet
 facet normal -0.323765 0.098213 0.941026
  outer loop
   vertex -424.264 175.736 1187.73
   vertex -341.648 67.958 1227.41
   vertex -321.826 133.304 1227.41
  endloop
 endfacet
 facet normal -0.233576 0.0708543 0.969754
  outer loop
   vertex -321.826 133.304 1227.41
   vertex -341.648 67.958 1227.41
   vertex -229.61 45.6722 1256.02
  endloop
 endfacet
 facet normal -0.233576 0.0708543 0.969754
  outer loop
   vertex -321.826 133.304 1227.41
   vertex -229.61 45.6722 1256.02
   vertex -216.288 89.5893 1256.02
  endloop
 endfacet
 facet normal -0.141078 0.0427954 0.989073
  outer loop
   vertex -216.288 89.5893 1256.02
   vertex -229.61 45.6722 1256.02
   vertex -115.36 22.9466 1273.3
  endloop
 endfacet
 facet normal -0.141078 0.0427954 0.989073
  outer loop
   vertex -216.288 89.5893 1256.02
   vertex -115.36 22.9466 1273.3
   vertex -108.667 45.0114 1273.3
  endloop
 endfacet
 facet normal -0.0471814 0.0143123 0.998784
  outer loop
   vertex -108.667 45.0114 1273.3
   vertex -115.36 22.9466 1273.3
   vertex 0 0 1279.08
  endloop
 endfacet
 facet normal -0.0490671 0.00483267 0.998784
  outer loop
   vertex -115.36 22.9466 1273.3
   vertex -117.621 -1.61218e-005 1273.3
   vertex 0 0 1279.08
  endloop
 endfacet
 facet normal -0.146716 0.0144502 0.989073
  outer loop
   vertex -229.61 45.6722 1256.02
   vertex -234.108 -3.12181e-005 1256.02
   vertex -117.621 -1.61218e-005 1273.3
  endloop
 endfacet
 facet normal -0.146716 0.0144502 0.989073
  outer loop
   vertex -229.61 45.6722 1256.02
   vertex -117.621 -1.61218e-005 1273.3
   vertex -115.36 22.9466 1273.3
  endloop
 endfacet
 facet normal -0.24291 0.0239245 0.969754
  outer loop
   vertex -341.648 67.958 1227.41
   vertex -348.341 -3.37464e-005 1227.41
   vertex -234.108 -3.12181e-005 1256.02
  endloop
 endfacet
 facet normal -0.24291 0.0239245 0.969754
  outer loop
   vertex -341.648 67.958 1227.41
   vertex -234.108 -3.12181e-005 1256.02
   vertex -229.61 45.6722 1256.02
  endloop
 endfacet
 facet normal -0.336705 0.0331625 0.941026
  outer loop
   vertex -450.396 89.5893 1187.73
   vertex -459.22 -6.42044e-005 1187.73
   vertex -348.341 -3.37464e-005 1227.41
  endloop
 endfacet
 facet normal -0.336705 0.0331624 0.941026
  outer loop
   vertex -450.396 89.5893 1187.73
   vertex -348.341 -3.37464e-005 1227.41
   vertex -341.648 67.958 1227.41
  endloop
 endfacet
 facet normal -0.427176 0.042073 0.903189
  outer loop
   vertex -554.807 110.358 1137.38
   vertex -565.676 -2.27033e-005 1137.38
   vertex -459.22 -6.42044e-005 1187.73
  endloop
 endfacet
 facet normal -0.427176 0.0420732 0.903189
  outer loop
   vertex -554.807 110.358 1137.38
   vertex -459.22 -6.42044e-005 1187.73
   vertex -450.396 89.5893 1187.73
  endloop
 endfacet
 facet normal -0.427176 -0.0420733 0.903189
  outer loop
   vertex -565.676 -2.27033e-005 1137.38
   vertex -554.807 -110.358 1137.38
   vertex -450.396 -89.5894 1187.73
  endloop
 endfacet
 facet normal -0.427176 -0.0420734 0.903189
  outer loop
   vertex -565.676 -2.27033e-005 1137.38
   vertex -450.396 -89.5894 1187.73
   vertex -459.22 -6.42044e-005 1187.73
  endloop
 endfacet
 facet normal -0.336705 -0.0331627 0.941026
  outer loop
   vertex -459.22 -6.42044e-005 1187.73
   vertex -450.396 -89.5894 1187.73
   vertex -341.648 -67.9581 1227.41
  endloop
 endfacet
 facet normal -0.336705 -0.0331624 0.941026
  outer loop
   vertex -459.22 -6.42044e-005 1187.73
   vertex -341.648 -67.9581 1227.41
   vertex -348.341 -3.37464e-005 1227.41
  endloop
 endfacet
 facet normal -0.24291 -0.0239245 0.969754
  outer loop
   vertex -348.341 -3.37464e-005 1227.41
   vertex -341.648 -67.9581 1227.41
   vertex -229.61 -45.6723 1256.02
  endloop
 endfacet
 facet normal -0.24291 -0.0239247 0.969754
  outer loop
   vertex -348.341 -3.37464e-005 1227.41
   vertex -229.61 -45.6723 1256.02
   vertex -234.108 -3.12181e-005 1256.02
  endloop
 endfacet
 facet normal -0.146716 -0.0144503 0.989073
  outer loop
   vertex -234.108 -3.12181e-005 1256.02
   vertex -229.61 -45.6723 1256.02
   vertex -115.36 -22.9466 1273.3
  endloop
 endfacet
 facet normal -0.146716 -0.0144503 0.989073
  outer loop
   vertex -234.108 -3.12181e-005 1256.02
   vertex -115.36 -22.9466 1273.3
   vertex -117.621 -1.61218e-005 1273.3
  endloop
 endfacet
 facet normal -0.0490671 -0.00483269 0.998784
  outer loop
   vertex -117.621 -1.61218e-005 1273.3
   vertex -115.36 -22.9466 1273.3
   vertex 0 0 1279.08
  endloop
 endfacet
 facet normal -0.0471814 -0.0143124 0.998784
  outer loop
   vertex -115.36 -22.9466 1273.3
   vertex -108.667 -45.0114 1273.3
   vertex 0 0 1279.08
  endloop
 endfacet
 facet normal -0.141078 -0.0427955 0.989073
  outer loop
   vertex -229.61 -45.6723 1256.02
   vertex -216.288 -89.5894 1256.02
   vertex -108.667 -45.0114 1273.3
  endloop
 endfacet
 facet normal -0.141078 -0.0427955 0.989073
  outer loop
   vertex -229.61 -45.6723 1256.02
   vertex -108.667 -45.0114 1273.3
   vertex -115.36 -22.9466 1273.3
  endloop
 endfacet
 facet normal -0.233575 -0.0708545 0.969754
  outer loop
   vertex -341.648 -67.9581 1227.41
   vertex -321.826 -133.305 1227.41
   vertex -216.288 -89.5894 1256.02
  endloop
 endfacet
 facet normal -0.233575 -0.0708544 0.969754
  outer loop
   vertex -341.648 -67.9581 1227.41
   vertex -216.288 -89.5894 1256.02
   vertex -229.61 -45.6723 1256.02
  endloop
 endfacet
 facet normal -0.323765 -0.0982133 0.941026
  outer loop
   vertex -450.396 -89.5894 1187.73
   vertex -424.264 -175.736 1187.73
   vertex -321.826 -133.305 1227.41
  endloop
 endfacet
 facet normal -0.323765 -0.0982133 0.941026
  outer loop
   vertex -450.396 -89.5894 1187.73
   vertex -321.826 -133.305 1227.41
   vertex -341.648 -67.9581 1227.41
  endloop
 endfacet
 facet normal -0.41076 -0.124603 0.903189
  outer loop
   vertex -554.807 -110.358 1137.38
   vertex -522.616 -216.475 1137.38
   vertex -424.264 -175.736 1187.73
  endloop
 endfacet
 facet normal -0.41076 -0.124603 0.903189
  outer loop
   vertex -554.807 -110.358 1137.38
   vertex -424.264 -175.736 1187.73
   vertex -450.396 -89.5894 1187.73
  endloop
 endfacet
 facet normal -0.45501 -0.243208 0.856631
  outer loop
   vertex -615.936 -255.129 1076.84
   vertex -554.327 -370.39 1076.84
   vertex -470.342 -314.273 1137.38
  endloop
 endfacet
 facet normal -0.45501 -0.243208 0.856631
  outer loop
   vertex -615.936 -255.129 1076.84
   vertex -470.342 -314.273 1137.38
   vertex -522.616 -216.475 1137.38
  endloop
 endfacet
 facet normal -0.378559 -0.202344 0.903189
  outer loop
   vertex -522.616 -216.475 1137.38
   vertex -470.342 -314.273 1137.38
   vertex -381.827 -255.129 1187.73
  endloop
 endfacet
 facet normal -0.378559 -0.202344 0.903189
  outer loop
   vertex -522.616 -216.475 1137.38
   vertex -381.827 -255.129 1187.73
   vertex -424.264 -175.736 1187.73
  endloop
 endfacet
 facet normal -0.298384 -0.15949 0.941026
  outer loop
   vertex -424.264 -175.736 1187.73
   vertex -381.827 -255.129 1187.73
   vertex -289.635 -193.528 1227.41
  endloop
 endfacet
 facet normal -0.298384 -0.15949 0.941026
  outer loop
   vertex -424.264 -175.736 1187.73
   vertex -289.635 -193.528 1227.41
   vertex -321.826 -133.305 1227.41
  endloop
 endfacet
 facet normal -0.215264 -0.115061 0.969754
  outer loop
   vertex -321.826 -133.305 1227.41
   vertex -289.635 -193.528 1227.41
   vertex -194.654 -130.064 1256.02
  endloop
 endfacet
 facet normal -0.215264 -0.115061 0.969754
  outer loop
   vertex -321.826 -133.305 1227.41
   vertex -194.654 -130.064 1256.02
   vertex -216.288 -89.5894 1256.02
  endloop
 endfacet
 facet normal -0.130018 -0.069496 0.989073
  outer loop
   vertex -216.288 -89.5894 1256.02
   vertex -194.654 -130.064 1256.02
   vertex -97.7979 -65.3465 1273.3
  endloop
 endfacet
 facet normal -0.130018 -0.069496 0.989073
  outer loop
   vertex -216.288 -89.5894 1256.02
   vertex -97.7979 -65.3465 1273.3
   vertex -108.667 -45.0114 1273.3
  endloop
 endfacet
 facet normal -0.0434827 -0.023242 0.998784
  outer loop
   vertex -108.667 -45.0114 1273.3
   vertex -97.7979 -65.3465 1273.3
   vertex 0 0 1279.08
  endloop
 endfacet
 facet normal -0.0381129 -0.0312784 0.998784
  outer loop
   vertex -97.7979 -65.3465 1273.3
   vertex -83.1702 -83.1703 1273.3
   vertex 0 0 1279.08
  endloop
 endfacet
 facet normal -0.113962 -0.093526 0.989073
  outer loop
   vertex -194.654 -130.064 1256.02
   vertex -165.54 -165.54 1256.02
   vertex -83.1702 -83.1703 1273.3
  endloop
 endfacet
 facet normal -0.113962 -0.093526 0.989073
  outer loop
   vertex -194.654 -130.064 1256.02
   vertex -83.1702 -83.1703 1273.3
   vertex -97.7979 -65.3465 1273.3
  endloop
 endfacet
 facet normal -0.188681 -0.154846 0.969754
  outer loop
   vertex -289.635 -193.528 1227.41
   vertex -246.315 -246.315 1227.41
   vertex -165.54 -165.54 1256.02
  endloop
 endfacet
 facet normal -0.188681 -0.154846 0.969754
  outer loop
   vertex -289.635 -193.528 1227.41
   vertex -165.54 -165.54 1256.02
   vertex -194.654 -130.064 1256.02
  endloop
 endfacet
 facet normal -0.261536 -0.214637 0.941026
  outer loop
   vertex -381.827 -255.129 1187.73
   vertex -324.717 -324.718 1187.73
   vertex -246.315 -246.315 1227.41
  endloop
 endfacet
 facet normal -0.261536 -0.214637 0.941026
  outer loop
   vertex -381.827 -255.129 1187.73
   vertex -246.315 -246.315 1227.41
   vertex -289.635 -193.528 1227.41
  endloop
 endfacet
 facet normal -0.331809 -0.272309 0.903189
  outer loop
   vertex -470.342 -314.273 1137.38
   vertex -399.993 -399.993 1137.38
   vertex -324.717 -324.718 1187.73
  endloop
 endfacet
 facet normal -0.331809 -0.272309 0.903189
  outer loop
   vertex -470.342 -314.273 1137.38
   vertex -324.717 -324.718 1187.73
   vertex -381.827 -255.129 1187.73
  endloop
 endfacet
 facet normal -0.272309 -0.33181 0.903189
  outer loop
   vertex -399.993 -399.993 1137.38
   vertex -314.273 -470.342 1137.38
   vertex -255.129 -381.827 1187.73
  endloop
 endfacet
 facet normal -0.272309 -0.33181 0.903189
  outer loop
   vertex -399.993 -399.993 1137.38
   vertex -255.129 -381.827 1187.73
   vertex -324.717 -324.718 1187.73
  endloop
 endfacet
 facet normal -0.214637 -0.261536 0.941026
  outer loop
   vertex -324.717 -324.718 1187.73
   vertex -255.129 -381.827 1187.73
   vertex -193.528 -289.635 1227.41
  endloop
 endfacet
 facet normal -0.214637 -0.261536 0.941026
  outer loop
   vertex -324.717 -324.718 1187.73
   vertex -193.528 -289.635 1227.41
   vertex -246.315 -246.315 1227.41
  endloop
 endfacet
 facet normal -0.154846 -0.188681 0.969754
  outer loop
   vertex -246.315 -246.315 1227.41
   vertex -193.528 -289.635 1227.41
   vertex -130.064 -194.654 1256.02
  endloop
 endfacet
 facet normal -0.154846 -0.188681 0.969754
  outer loop
   vertex -246.315 -246.315 1227.41
   vertex -130.064 -194.654 1256.02
   vertex -165.54 -165.54 1256.02
  endloop
 endfacet
 facet normal -0.0935259 -0.113962 0.989073
  outer loop
   vertex -165.54 -165.54 1256.02
   vertex -130.064 -194.654 1256.02
   vertex -65.3464 -97.7979 1273.3
  endloop
 endfacet
 facet normal -0.0935259 -0.113962 0.989073
  outer loop
   vertex -165.54 -165.54 1256.02
   vertex -65.3464 -97.7979 1273.3
   vertex -83.1702 -83.1703 1273.3
  endloop
 endfacet
 facet normal -0.0312784 -0.0381129 0.998784
  outer loop
   vertex -83.1702 -83.1703 1273.3
   vertex -65.3464 -97.7979 1273.3
   vertex 0 0 1279.08
  endloop
 endfacet
 facet normal -0.023242 -0.0434827 0.998784
  outer loop
   vertex -65.3464 -97.7979 1273.3
   vertex -45.0114 -108.667 1273.3
   vertex 0 0 1279.08
  endloop
 endfacet
 facet normal -0.069496 -0.130018 0.989073
  outer loop
   vertex -130.064 -194.654 1256.02
   vertex -89.5893 -216.288 1256.02
   vertex -45.0114 -108.667 1273.3
  endloop
 endfacet
 facet normal -0.069496 -0.130018 0.989073
  outer loop
   vertex -130.064 -194.654 1256.02
   vertex -45.0114 -108.667 1273.3
   vertex -65.3464 -97.7979 1273.3
  endloop
 endfacet
 facet normal -0.115061 -0.215265 0.969754
  outer loop
   vertex -193.528 -289.635 1227.41
   vertex -133.304 -321.825 1227.41
   vertex -89.5893 -216.288 1256.02
  endloop
 endfacet
 facet normal -0.115061 -0.215265 0.969754
  outer loop
   vertex -193.528 -289.635 1227.41
   vertex -89.5893 -216.288 1256.02
   vertex -130.064 -194.654 1256.02
  endloop
 endfacet
 facet normal -0.159489 -0.298384 0.941026
  outer loop
   vertex -255.129 -381.827 1187.73
   vertex -175.736 -424.264 1187.73
   vertex -133.304 -321.825 1227.41
  endloop
 endfacet
 facet normal -0.159489 -0.298384 0.941026
  outer loop
   vertex -255.129 -381.827 1187.73
   vertex -133.304 -321.825 1227.41
   vertex -193.528 -289.635 1227.41
  endloop
 endfacet
 facet normal -0.098213 -0.323766 0.941026
  outer loop
   vertex -175.736 -424.264 1187.73
   vertex -89.5892 -450.396 1187.73
   vertex -67.958 -341.648 1227.41
  endloop
 endfacet
 facet normal -0.0982132 -0.323765 0.941026
  outer loop
   vertex -175.736 -424.264 1187.73
   vertex -67.958 -341.648 1227.41
   vertex -133.304 -321.825 1227.41
  endloop
 endfacet
 facet normal -0.0708544 -0.233576 0.969754
  outer loop
   vertex -133.304 -321.825 1227.41
   vertex -67.958 -341.648 1227.41
   vertex -45.6722 -229.61 1256.02
  endloop
 endfacet
 facet normal -0.0708543 -0.233576 0.969754
  outer loop
   vertex -133.304 -321.825 1227.41
   vertex -45.6722 -229.61 1256.02
   vertex -89.5893 -216.288 1256.02
  endloop
 endfacet
 facet normal -0.0427954 -0.141078 0.989073
  outer loop
   vertex -89.5893 -216.288 1256.02
   vertex -45.6722 -229.61 1256.02
   vertex -22.9466 -115.36 1273.3
  endloop
 endfacet
 facet normal -0.0427955 -0.141078 0.989073
  outer loop
   vertex -89.5893 -216.288 1256.02
   vertex -22.9466 -115.36 1273.3
   vertex -45.0114 -108.667 1273.3
  endloop
 endfacet
 facet normal -0.0143123 -0.0471814 0.998784
  outer loop
   vertex -45.0114 -108.667 1273.3
   vertex -22.9466 -115.36 1273.3
   vertex 0 0 1279.08
  endloop
 endfacet
 facet normal -0.00483267 -0.0490671 0.998784
  outer loop
   vertex -22.9466 -115.36 1273.3
   vertex 2.69495e-005 -117.621 1273.3
   vertex 0 0 1279.08
  endloop
 endfacet
 facet normal -0.0144502 -0.146716 0.989073
  outer loop
   vertex -45.6722 -229.61 1256.02
   vertex 4.23762e-005 -234.108 1256.02
   vertex 2.69495e-005 -117.621 1273.3
  endloop
 endfacet
 facet normal -0.0144502 -0.146716 0.989073
  outer loop
   vertex -45.6722 -229.61 1256.02
   vertex 2.69495e-005 -117.621 1273.3
   vertex -22.9466 -115.36 1273.3
  endloop
 endfacet
 facet normal -0.0239245 -0.24291 0.969754
  outer loop
   vertex -67.958 -341.648 1227.41
   vertex 4.31762e-005 -348.341 1227.41
   vertex 4.23762e-005 -234.108 1256.02
  endloop
 endfacet
 facet normal -0.0239245 -0.24291 0.969754
  outer loop
   vertex -67.958 -341.648 1227.41
   vertex 4.23762e-005 -234.108 1256.02
   vertex -45.6722 -229.61 1256.02
  endloop
 endfacet
 facet normal -0.0331623 -0.336705 0.941026
  outer loop
   vertex -89.5892 -450.396 1187.73
   vertex 9.47559e-005 -459.22 1187.73
   vertex 4.31762e-005 -348.341 1227.41
  endloop
 endfacet
 facet normal -0.0331625 -0.336705 0.941026
  outer loop
   vertex -89.5892 -450.396 1187.73
   vertex 4.31762e-005 -348.341 1227.41
   vertex -67.958 -341.648 1227.41
  endloop
 endfacet
 facet normal 0.0331627 -0.336705 0.941026
  outer loop
   vertex 9.47559e-005 -459.22 1187.73
   vertex 89.5894 -450.396 1187.73
   vertex 67.9581 -341.648 1227.41
  endloop
 endfacet
 facet normal 0.0331626 -0.336705 0.941026
  outer loop
   vertex 9.47559e-005 -459.22 1187.73
   vertex 67.9581 -341.648 1227.41
   vertex 4.31762e-005 -348.341 1227.41
  endloop
 endfacet
 facet normal 0.0239247 -0.24291 0.969754
  outer loop
   vertex 4.31762e-005 -348.341 1227.41
   vertex 67.9581 -341.648 1227.41
   vertex 45.6723 -229.61 1256.02
  endloop
 endfacet
 facet normal 0.0239247 -0.24291 0.969754
  outer loop
   vertex 4.31762e-005 -348.341 1227.41
   vertex 45.6723 -229.61 1256.02
   vertex 4.23762e-005 -234.108 1256.02
  endloop
 endfacet
 facet normal 0.0144503 -0.146716 0.989073
  outer loop
   vertex 4.23762e-005 -234.108 1256.02
   vertex 45.6723 -229.61 1256.02
   vertex 22.9466 -115.36 1273.3
  endloop
 endfacet
 facet normal 0.0144503 -0.146716 0.989073
  outer loop
   vertex 4.23762e-005 -234.108 1256.02
   vertex 22.9466 -115.36 1273.3
   vertex 2.69495e-005 -117.621 1273.3
  endloop
 endfacet
 facet normal 0.00483271 -0.0490671 0.998784
  outer loop
   vertex 2.69495e-005 -117.621 1273.3
   vertex 22.9466 -115.36 1273.3
   vertex 0 0 1279.08
  endloop
 endfacet
 facet normal 0.0143124 -0.0471814 0.998784
  outer loop
   vertex 22.9466 -115.36 1273.3
   vertex 45.0114 -108.667 1273.3
   vertex 0 0 1279.08
  endloop
 endfacet
 facet normal 0.0427955 -0.141078 0.989073
  outer loop
   vertex 45.6723 -229.61 1256.02
   vertex 89.5894 -216.288 1256.02
   vertex 45.0114 -108.667 1273.3
  endloop
 endfacet
 facet normal 0.0427955 -0.141078 0.989073
  outer loop
   vertex 45.6723 -229.61 1256.02
   vertex 45.0114 -108.667 1273.3
   vertex 22.9466 -115.36 1273.3
  endloop
 endfacet
 facet normal 0.0708544 -0.233576 0.969754
  outer loop
   vertex 67.9581 -341.648 1227.41
   vertex 133.305 -321.825 1227.41
   vertex 89.5894 -216.288 1256.02
  endloop
 endfacet
 facet normal 0.0708544 -0.233576 0.969754
  outer loop
   vertex 67.9581 -341.648 1227.41
   vertex 89.5894 -216.288 1256.02
   vertex 45.6723 -229.61 1256.02
  endloop
 endfacet
 facet normal 0.0982135 -0.323766 0.941026
  outer loop
   vertex 89.5894 -450.396 1187.73
   vertex 175.736 -424.264 1187.73
   vertex 133.305 -321.825 1227.41
  endloop
 endfacet
 facet normal 0.0982133 -0.323766 0.941026
  outer loop
   vertex 89.5894 -450.396 1187.73
   vertex 133.305 -321.825 1227.41
   vertex 67.9581 -341.648 1227.41
  endloop
 endfacet
 facet normal 0.15949 -0.298384 0.941026
  outer loop
   vertex 175.736 -424.264 1187.73
   vertex 255.129 -381.827 1187.73
   vertex 193.528 -289.635 1227.41
  endloop
 endfacet
 facet normal 0.15949 -0.298384 0.941026
  outer loop
   vertex 175.736 -424.264 1187.73
   vertex 193.528 -289.635 1227.41
   vertex 133.305 -321.825 1227.41
  endloop
 endfacet
 facet normal 0.115061 -0.215264 0.969754
  outer loop
   vertex 133.305 -321.825 1227.41
   vertex 193.528 -289.635 1227.41
   vertex 130.064 -194.654 1256.02
  endloop
 endfacet
 facet normal 0.115061 -0.215264 0.969754
  outer loop
   vertex 133.305 -321.825 1227.41
   vertex 130.064 -194.654 1256.02
   vertex 89.5894 -216.288 1256.02
  endloop
 endfacet
 facet normal 0.0694961 -0.130018 0.989073
  outer loop
   vertex 89.5894 -216.288 1256.02
   vertex 130.064 -194.654 1256.02
   vertex 65.3465 -97.7979 1273.3
  endloop
 endfacet
 facet normal 0.0694961 -0.130018 0.989073
  outer loop
   vertex 89.5894 -216.288 1256.02
   vertex 65.3465 -97.7979 1273.3
   vertex 45.0114 -108.667 1273.3
  endloop
 endfacet
 facet normal 0.023242 -0.0434827 0.998784
  outer loop
   vertex 45.0114 -108.667 1273.3
   vertex 65.3465 -97.7979 1273.3
   vertex 0 0 1279.08
  endloop
 endfacet
 facet normal 0.0312784 -0.0381129 0.998784
  outer loop
   vertex 65.3465 -97.7979 1273.3
   vertex 83.1703 -83.1702 1273.3
   vertex 0 0 1279.08
  endloop
 endfacet
 facet normal 0.093526 -0.113962 0.989073
  outer loop
   vertex 130.064 -194.654 1256.02
   vertex 165.54 -165.539 1256.02
   vertex 83.1703 -83.1702 1273.3
  endloop
 endfacet
 facet normal 0.093526 -0.113962 0.989073
  outer loop
   vertex 130.064 -194.654 1256.02
   vertex 83.1703 -83.1702 1273.3
   vertex 65.3465 -97.7979 1273.3
  endloop
 endfacet
 facet normal 0.154846 -0.188681 0.969754
  outer loop
   vertex 193.528 -289.635 1227.41
   vertex 246.315 -246.314 1227.41
   vertex 165.54 -165.539 1256.02
  endloop
 endfacet
 facet normal 0.154846 -0.188681 0.969754
  outer loop
   vertex 193.528 -289.635 1227.41
   vertex 165.54 -165.539 1256.02
   vertex 130.064 -194.654 1256.02
  endloop
 endfacet
 facet normal 0.214637 -0.261536 0.941026
  outer loop
   vertex 255.129 -381.827 1187.73
   vertex 324.717 -324.717 1187.73
   vertex 246.315 -246.314 1227.41
  endloop
 endfacet
 facet normal 0.214637 -0.261536 0.941026
  outer loop
   vertex 255.129 -381.827 1187.73
   vertex 246.315 -246.314 1227.41
   vertex 193.528 -289.635 1227.41
  endloop
 endfacet
 facet normal 0.272309 -0.331809 0.903189
  outer loop
   vertex 314.273 -470.342 1137.38
   vertex 399.993 -399.993 1137.38
   vertex 324.717 -324.717 1187.73
  endloop
 endfacet
 facet normal 0.272309 -0.331809 0.903189
  outer loop
   vertex 314.273 -470.342 1137.38
   vertex 324.717 -324.717 1187.73
   vertex 255.129 -381.827 1187.73
  endloop
 endfacet
 facet normal 0.331809 -0.272309 0.903189
  outer loop
   vertex 399.993 -399.993 1137.38
   vertex 470.342 -314.272 1137.38
   vertex 381.827 -255.129 1187.73
  endloop
 endfacet
 facet normal 0.33181 -0.272309 0.903189
  outer loop
   vertex 399.993 -399.993 1137.38
   vertex 381.827 -255.129 1187.73
   vertex 324.717 -324.717 1187.73
  endloop
 endfacet
 facet normal 0.261536 -0.214637 0.941026
  outer loop
   vertex 324.717 -324.717 1187.73
   vertex 381.827 -255.129 1187.73
   vertex 289.635 -193.528 1227.41
  endloop
 endfacet
 facet normal 0.261536 -0.214637 0.941026
  outer loop
   vertex 324.717 -324.717 1187.73
   vertex 289.635 -193.528 1227.41
   vertex 246.315 -246.314 1227.41
  endloop
 endfacet
 facet normal 0.188681 -0.154846 0.969754
  outer loop
   vertex 246.315 -246.314 1227.41
   vertex 289.635 -193.528 1227.41
   vertex 194.654 -130.064 1256.02
  endloop
 endfacet
 facet normal 0.188681 -0.154846 0.969754
  outer loop
   vertex 246.315 -246.314 1227.41
   vertex 194.654 -130.064 1256.02
   vertex 165.54 -165.539 1256.02
  endloop
 endfacet
 facet normal 0.113962 -0.0935259 0.989073
  outer loop
   vertex 165.54 -165.539 1256.02
   vertex 194.654 -130.064 1256.02
   vertex 97.7979 -65.3464 1273.3
  endloop
 endfacet
 facet normal 0.113962 -0.0935259 0.989073
  outer loop
   vertex 165.54 -165.539 1256.02
   vertex 97.7979 -65.3464 1273.3
   vertex 83.1703 -83.1702 1273.3
  endloop
 endfacet
 facet normal 0.0381129 -0.0312784 0.998784
  outer loop
   vertex 83.1703 -83.1702 1273.3
   vertex 97.7979 -65.3464 1273.3
   vertex 0 0 1279.08
  endloop
 endfacet
 facet normal 0.0434827 -0.0232419 0.998784
  outer loop
   vertex 97.7979 -65.3464 1273.3
   vertex 108.667 -45.0114 1273.3
   vertex 0 0 1279.08
  endloop
 endfacet
 facet normal 0.130018 -0.069496 0.989073
  outer loop
   vertex 194.654 -130.064 1256.02
   vertex 216.288 -89.5893 1256.02
   vertex 108.667 -45.0114 1273.3
  endloop
 endfacet
 facet normal 0.130018 -0.069496 0.989073
  outer loop
   vertex 194.654 -130.064 1256.02
   vertex 108.667 -45.0114 1273.3
   vertex 97.7979 -65.3464 1273.3
  endloop
 endfacet
 facet normal 0.215264 -0.115061 0.969754
  outer loop
   vertex 289.635 -193.528 1227.41
   vertex 321.825 -133.304 1227.41
   vertex 216.288 -89.5893 1256.02
  endloop
 endfacet
 facet normal 0.215265 -0.115061 0.969754
  outer loop
   vertex 289.635 -193.528 1227.41
   vertex 216.288 -89.5893 1256.02
   vertex 194.654 -130.064 1256.02
  endloop
 endfacet
 facet normal 0.298384 -0.15949 0.941026
  outer loop
   vertex 381.827 -255.129 1187.73
   vertex 424.264 -175.736 1187.73
   vertex 321.825 -133.304 1227.41
  endloop
 endfacet
 facet normal 0.298384 -0.15949 0.941026
  outer loop
   vertex 381.827 -255.129 1187.73
   vertex 321.825 -133.304 1227.41
   vertex 289.635 -193.528 1227.41
  endloop
 endfacet
 facet normal 0.378558 -0.202344 0.903189
  outer loop
   vertex 470.342 -314.272 1137.38
   vertex 522.616 -216.475 1137.38
   vertex 424.264 -175.736 1187.73
  endloop
 endfacet
 facet normal 0.378559 -0.202344 0.903189
  outer loop
   vertex 470.342 -314.272 1137.38
   vertex 424.264 -175.736 1187.73
   vertex 381.827 -255.129 1187.73
  endloop
 endfacet
 facet normal 0.45501 -0.243208 0.85663
  outer loop
   vertex 554.327 -370.39 1076.84
   vertex 615.935 -255.129 1076.84
   vertex 522.616 -216.475 1137.38
  endloop
 endfacet
 facet normal 0.45501 -0.243208 0.85663
  outer loop
   vertex 554.327 -370.39 1076.84
   vertex 522.616 -216.475 1137.38
   vertex 470.342 -314.272 1137.38
  endloop
 endfacet
 facet normal 0.41076 -0.124603 0.903189
  outer loop
   vertex 522.616 -216.475 1137.38
   vertex 554.806 -110.358 1137.38
   vertex 450.396 -89.5892 1187.73
  endloop
 endfacet
 facet normal 0.41076 -0.124602 0.903189
  outer loop
   vertex 522.616 -216.475 1137.38
   vertex 450.396 -89.5892 1187.73
   vertex 424.264 -175.736 1187.73
  endloop
 endfacet
 facet normal 0.323766 -0.0982131 0.941026
  outer loop
   vertex 424.264 -175.736 1187.73
   vertex 450.396 -89.5892 1187.73
   vertex 341.648 -67.958 1227.41
  endloop
 endfacet
 facet normal 0.323766 -0.0982131 0.941026
  outer loop
   vertex 424.264 -175.736 1187.73
   vertex 341.648 -67.958 1227.41
   vertex 321.825 -133.304 1227.41
  endloop
 endfacet
 facet normal 0.233576 -0.0708542 0.969754
  outer loop
   vertex 321.825 -133.304 1227.41
   vertex 341.648 -67.958 1227.41
   vertex 229.61 -45.6722 1256.02
  endloop
 endfacet
 facet normal 0.233576 -0.0708543 0.969754
  outer loop
   vertex 321.825 -133.304 1227.41
   vertex 229.61 -45.6722 1256.02
   vertex 216.288 -89.5893 1256.02
  endloop
 endfacet
 facet normal 0.141078 -0.0427954 0.989073
  outer loop
   vertex 216.288 -89.5893 1256.02
   vertex 229.61 -45.6722 1256.02
   vertex 115.36 -22.9466 1273.3
  endloop
 endfacet
 facet normal 0.141078 -0.0427954 0.989073
  outer loop
   vertex 216.288 -89.5893 1256.02
   vertex 115.36 -22.9466 1273.3
   vertex 108.667 -45.0114 1273.3
  endloop
 endfacet
 facet normal 0.0471815 -0.0143123 0.998784
  outer loop
   vertex 108.667 -45.0114 1273.3
   vertex 115.36 -22.9466 1273.3
   vertex 0 0 1279.08
  endloop
 endfacet
 facet normal 0.0490671 -0.00483266 0.998784
  outer loop
   vertex 115.36 -22.9466 1273.3
   vertex 117.62 3.10671e-005 1273.3
   vertex 0 0 1279.08
  endloop
 endfacet
 facet normal 0.146716 -0.0144503 0.989073
  outer loop
   vertex 229.61 -45.6722 1256.02
   vertex 234.108 4.76884e-005 1256.02
   vertex 117.62 3.10671e-005 1273.3
  endloop
 endfacet
 facet normal 0.146716 -0.0144502 0.989073
  outer loop
   vertex 229.61 -45.6722 1256.02
   vertex 117.62 3.10671e-005 1273.3
   vertex 115.36 -22.9466 1273.3
  endloop
 endfacet
 facet normal 0.242911 -0.0239245 0.969754
  outer loop
   vertex 341.648 -67.958 1227.41
   vertex 348.341 5.14113e-005 1227.41
   vertex 234.108 4.76884e-005 1256.02
  endloop
 endfacet
 facet normal 0.24291 -0.0239246 0.969754
  outer loop
   vertex 341.648 -67.958 1227.41
   vertex 234.108 4.76884e-005 1256.02
   vertex 229.61 -45.6722 1256.02
  endloop
 endfacet
 facet normal 0.336705 -0.0331624 0.941026
  outer loop
   vertex 450.396 -89.5892 1187.73
   vertex 459.22 0.000131153 1187.73
   vertex 348.341 5.14113e-005 1227.41
  endloop
 endfacet
 facet normal 0.336705 -0.0331625 0.941026
  outer loop
   vertex 450.396 -89.5892 1187.73
   vertex 348.341 5.14113e-005 1227.41
   vertex 341.648 -67.958 1227.41
  endloop
 endfacet
 facet normal 0.427176 -0.042073 0.903189
  outer loop
   vertex 554.806 -110.358 1137.38
   vertex 565.676 9.31088e-005 1137.38
   vertex 459.22 0.000131153 1187.73
  endloop
 endfacet
 facet normal 0.427176 -0.0420729 0.903189
  outer loop
   vertex 554.806 -110.358 1137.38
   vertex 459.22 0.000131153 1187.73
   vertex 450.396 -89.5892 1187.73
  endloop
 endfacet
 facet normal 0.398823 0.327306 0.856628
  outer loop
   vertex 554.328 370.39 1076.84
   vertex 474.599 467.54 1076.84
   vertex 471.692 468.163 1077.96
  endloop
 endfacet
 facet normal 0.398819 0.327303 0.856631
  outer loop
   vertex 554.328 370.39 1076.84
   vertex 471.692 468.163 1077.96
   vertex 470.342 314.273 1137.38
  endloop
 endfacet
 facet normal 0.398833 0.327301 0.856625
  outer loop
   vertex 470.342 314.273 1137.38
   vertex 471.692 468.163 1077.96
   vertex 468.785 468.785 1079.07
  endloop
 endfacet
 facet normal 0.398819 0.327303 0.856631
  outer loop
   vertex 470.342 314.273 1137.38
   vertex 468.785 468.785 1079.07
   vertex 399.993 399.993 1137.38
  endloop
 endfacet
 facet normal 0.327304 0.398821 0.856629
  outer loop
   vertex 327.983 490.861 1122.59
   vertex 314.273 470.342 1137.38
   vertex 399.993 399.993 1137.38
  endloop
 endfacet
 facet normal 0.327302 0.39882 0.856631
  outer loop
   vertex 327.983 490.861 1122.59
   vertex 399.993 399.993 1137.38
   vertex 468.785 468.785 1079.07
  endloop
 endfacet
 facet normal 0.202343 0.378557 0.90319
  outer loop
   vertex 314.273 470.342 1137.38
   vertex 262.418 498.06 1137.38
   vertex 235.425 500.629 1142.35
  endloop
 endfacet
 facet normal 0.202343 0.378559 0.903189
  outer loop
   vertex 314.273 470.342 1137.38
   vertex 235.425 500.629 1142.35
   vertex 255.129 381.828 1187.73
  endloop
 endfacet
 facet normal 0.202343 0.378559 0.903189
  outer loop
   vertex 255.129 381.828 1187.73
   vertex 235.425 500.629 1142.35
   vertex 208.432 503.198 1147.32
  endloop
 endfacet
 facet normal 0.202344 0.378559 0.903189
  outer loop
   vertex 255.129 381.828 1187.73
   vertex 208.432 503.198 1147.32
   vertex 175.736 424.264 1187.73
  endloop
 endfacet
 facet normal 0.243207 0.455013 0.856629
  outer loop
   vertex 314.273 470.342 1137.38
   vertex 327.983 490.861 1122.59
   vertex 295.2 494.46 1129.99
  endloop
 endfacet
 facet normal 0.243211 0.455015 0.856627
  outer loop
   vertex 314.273 470.342 1137.38
   vertex 295.2 494.46 1129.99
   vertex 262.418 498.06 1137.38
  endloop
 endfacet
 facet normal 0.124602 0.410759 0.903189
  outer loop
   vertex 101.287 509.205 1159.37
   vertex 89.5894 450.396 1187.73
   vertex 175.736 424.264 1187.73
  endloop
 endfacet
 facet normal 0.124603 0.41076 0.903189
  outer loop
   vertex 101.287 509.205 1159.37
   vertex 175.736 424.264 1187.73
   vertex 208.432 503.198 1147.32
  endloop
 endfacet
 facet normal 0.0420733 0.427177 0.903189
  outer loop
   vertex -2.30499e-005 511.112 1163.19
   vertex -3.01963e-005 459.22 1187.73
   vertex 89.5894 450.396 1187.73
  endloop
 endfacet
 facet normal 0.0420724 0.427176 0.903189
  outer loop
   vertex -2.30499e-005 511.112 1163.19
   vertex 89.5894 450.396 1187.73
   vertex 101.287 509.205 1159.37
  endloop
 endfacet
 facet normal -0.0420734 0.427177 0.903189
  outer loop
   vertex -101.287 509.205 1159.37
   vertex -89.5894 450.396 1187.73
   vertex -3.01963e-005 459.22 1187.73
  endloop
 endfacet
 facet normal -0.0420735 0.427177 0.903189
  outer loop
   vertex -101.287 509.205 1159.37
   vertex -3.01963e-005 459.22 1187.73
   vertex -2.30499e-005 511.112 1163.19
  endloop
 endfacet
 facet normal -0.124603 0.41076 0.903189
  outer loop
   vertex -208.432 503.198 1147.32
   vertex -175.736 424.264 1187.73
   vertex -89.5894 450.396 1187.73
  endloop
 endfacet
 facet normal -0.124602 0.410761 0.903189
  outer loop
   vertex -208.432 503.198 1147.32
   vertex -89.5894 450.396 1187.73
   vertex -101.287 509.205 1159.37
  endloop
 endfacet
 facet normal -0.24321 0.455013 0.856629
  outer loop
   vertex -314.273 470.342 1137.38
   vertex -262.418 498.06 1137.38
   vertex -295.2 494.46 1129.99
  endloop
 endfacet
 facet normal -0.243206 0.455011 0.856631
  outer loop
   vertex -314.273 470.342 1137.38
   vertex -295.2 494.46 1129.99
   vertex -327.983 490.861 1122.59
  endloop
 endfacet
 facet normal -0.202344 0.378559 0.903189
  outer loop
   vertex -175.736 424.264 1187.73
   vertex -208.432 503.198 1147.32
   vertex -235.425 500.629 1142.35
  endloop
 endfacet
 facet normal -0.202344 0.378558 0.903189
  outer loop
   vertex -175.736 424.264 1187.73
   vertex -235.425 500.629 1142.35
   vertex -255.129 381.827 1187.73
  endloop
 endfacet
 facet normal -0.202344 0.378558 0.903189
  outer loop
   vertex -255.129 381.827 1187.73
   vertex -235.425 500.629 1142.35
   vertex -262.418 498.06 1137.38
  endloop
 endfacet
 facet normal -0.202344 0.378558 0.903189
  outer loop
   vertex -255.129 381.827 1187.73
   vertex -262.418 498.06 1137.38
   vertex -314.273 470.342 1137.38
  endloop
 endfacet
 facet normal -0.327303 0.398819 0.856631
  outer loop
   vertex -468.786 468.785 1079.07
   vertex -399.993 399.993 1137.38
   vertex -314.273 470.342 1137.38
  endloop
 endfacet
 facet normal -0.327303 0.398819 0.856631
  outer loop
   vertex -468.786 468.785 1079.07
   vertex -314.273 470.342 1137.38
   vertex -327.983 490.861 1122.59
  endloop
 endfacet
 facet normal -0.398821 0.327301 0.856631
  outer loop
   vertex -399.993 399.993 1137.38
   vertex -468.786 468.785 1079.07
   vertex -471.692 468.163 1077.96
  endloop
 endfacet
 facet normal -0.39882 0.327303 0.856631
  outer loop
   vertex -399.993 399.993 1137.38
   vertex -471.692 468.163 1077.96
   vertex -470.342 314.273 1137.38
  endloop
 endfacet
 facet normal -0.398815 0.327303 0.856632
  outer loop
   vertex -470.342 314.273 1137.38
   vertex -471.692 468.163 1077.96
   vertex -474.598 467.54 1076.84
  endloop
 endfacet
 facet normal -0.39882 0.327303 0.856631
  outer loop
   vertex -470.342 314.273 1137.38
   vertex -474.598 467.54 1076.84
   vertex -554.328 370.39 1076.84
  endloop
 endfacet
 facet normal -0.526993 0.281683 0.801831
  outer loop
   vertex -623.688 258.34 1070.62
   vertex -615.936 255.129 1076.84
   vertex -554.328 370.39 1076.84
  endloop
 endfacet
 facet normal -0.526994 0.281684 0.80183
  outer loop
   vertex -623.688 258.34 1070.62
   vertex -554.328 370.39 1076.84
   vertex -604.003 403.582 1032.53
  endloop
 endfacet
 facet normal -0.571819 0.173462 0.801831
  outer loop
   vertex -615.936 255.129 1076.84
   vertex -623.688 258.34 1070.62
   vertex -625.193 238.996 1073.73
  endloop
 endfacet
 facet normal -0.571813 0.173457 0.801837
  outer loop
   vertex -615.936 255.129 1076.84
   vertex -625.193 238.996 1073.73
   vertex -626.698 219.652 1076.84
  endloop
 endfacet
 facet normal -0.493711 0.149766 0.856633
  outer loop
   vertex -615.936 255.129 1076.84
   vertex -626.698 219.652 1076.84
   vertex -630.065 172.825 1083.09
  endloop
 endfacet
 facet normal -0.493715 0.149766 0.85663
  outer loop
   vertex -615.936 255.129 1076.84
   vertex -630.065 172.825 1083.09
   vertex -522.616 216.475 1137.38
  endloop
 endfacet
 facet normal -0.493715 0.149767 0.85663
  outer loop
   vertex -522.616 216.475 1137.38
   vertex -630.065 172.825 1083.09
   vertex -633.432 125.997 1089.33
  endloop
 endfacet
 facet normal -0.493715 0.149767 0.85663
  outer loop
   vertex -522.616 216.475 1137.38
   vertex -633.432 125.997 1089.33
   vertex -554.807 110.358 1137.38
  endloop
 endfacet
 facet normal -0.513445 0.0505698 0.856631
  outer loop
   vertex -636.398 -4.75646e-005 1094.99
   vertex -565.676 -2.27033e-005 1137.38
   vertex -554.807 110.358 1137.38
  endloop
 endfacet
 facet normal -0.513446 0.0505706 0.85663
  outer loop
   vertex -636.398 -4.75646e-005 1094.99
   vertex -554.807 110.358 1137.38
   vertex -633.432 125.997 1089.33
  endloop
 endfacet
 facet normal -0.513446 -0.0505701 0.856631
  outer loop
   vertex -633.432 -125.998 1089.33
   vertex -554.807 -110.358 1137.38
   vertex -565.676 -2.27033e-005 1137.38
  endloop
 endfacet
 facet normal -0.513445 -0.0505706 0.856631
  outer loop
   vertex -633.432 -125.998 1089.33
   vertex -565.676 -2.27033e-005 1137.38
   vertex -636.398 -4.75646e-005 1094.99
  endloop
 endfacet
 facet normal -0.493714 -0.149767 0.856631
  outer loop
   vertex -554.807 -110.358 1137.38
   vertex -633.432 -125.998 1089.33
   vertex -630.065 -172.825 1083.09
  endloop
 endfacet
 facet normal -0.493714 -0.149767 0.856631
  outer loop
   vertex -554.807 -110.358 1137.38
   vertex -630.065 -172.825 1083.09
   vertex -522.616 -216.475 1137.38
  endloop
 endfacet
 facet normal -0.493714 -0.149767 0.856631
  outer loop
   vertex -522.616 -216.475 1137.38
   vertex -630.065 -172.825 1083.09
   vertex -626.697 -219.653 1076.84
  endloop
 endfacet
 facet normal -0.493714 -0.149767 0.856631
  outer loop
   vertex -522.616 -216.475 1137.38
   vertex -626.697 -219.653 1076.84
   vertex -615.936 -255.129 1076.84
  endloop
 endfacet
 facet normal -0.571828 -0.173462 0.801826
  outer loop
   vertex -615.936 -255.129 1076.84
   vertex -626.697 -219.653 1076.84
   vertex -625.193 -238.997 1073.73
  endloop
 endfacet
 facet normal -0.571825 -0.17346 0.801828
  outer loop
   vertex -615.936 -255.129 1076.84
   vertex -625.193 -238.997 1073.73
   vertex -623.688 -258.34 1070.62
  endloop
 endfacet
 facet normal -0.526995 -0.281685 0.801829
  outer loop
   vertex -604.002 -403.581 1032.53
   vertex -554.327 -370.39 1076.84
   vertex -615.936 -255.129 1076.84
  endloop
 endfacet
 facet normal -0.526997 -0.281685 0.801828
  outer loop
   vertex -604.002 -403.581 1032.53
   vertex -615.936 -255.129 1076.84
   vertex -623.688 -258.34 1070.62
  endloop
 endfacet
 facet normal -0.461915 0.379083 0.80183
  outer loop
   vertex -604.003 403.582 1032.53
   vertex -554.328 370.39 1076.84
   vertex -474.598 467.54 1076.84
  endloop
 endfacet
 facet normal -0.461915 0.379087 0.801828
  outer loop
   vertex -604.003 403.582 1032.53
   vertex -474.598 467.54 1076.84
   vertex -596.69 438.757 1020.11
  endloop
 endfacet
 facet normal -0.0420729 -0.427177 0.903189
  outer loop
   vertex 6.77067e-005 -513.354 1162.13
   vertex 9.47559e-005 -459.22 1187.73
   vertex -89.5892 -450.396 1187.73
  endloop
 endfacet
 facet normal -0.0420734 -0.427177 0.903188
  outer loop
   vertex 6.77067e-005 -513.354 1162.13
   vertex -89.5892 -450.396 1187.73
   vertex -101.997 -512.772 1157.65
  endloop
 endfacet
 facet normal 0.0420734 -0.427177 0.903189
  outer loop
   vertex 101.997 -512.772 1157.65
   vertex 89.5894 -450.396 1187.73
   vertex 9.47559e-005 -459.22 1187.73
  endloop
 endfacet
 facet normal 0.0420734 -0.427177 0.903189
  outer loop
   vertex 101.997 -512.772 1157.65
   vertex 9.47559e-005 -459.22 1187.73
   vertex 6.77067e-005 -513.354 1162.13
  endloop
 endfacet
 facet normal 0.124603 -0.41076 0.903189
  outer loop
   vertex 211.54 -510.702 1143.48
   vertex 175.736 -424.264 1187.73
   vertex 89.5894 -450.396 1187.73
  endloop
 endfacet
 facet normal 0.124602 -0.410761 0.903189
  outer loop
   vertex 211.54 -510.702 1143.48
   vertex 89.5894 -450.396 1187.73
   vertex 101.997 -512.772 1157.65
  endloop
 endfacet
 facet normal 0.202344 -0.378558 0.903189
  outer loop
   vertex 175.736 -424.264 1187.73
   vertex 211.54 -510.702 1143.48
   vertex 226.192 -510.147 1140.43
  endloop
 endfacet
 facet normal 0.202344 -0.378558 0.903189
  outer loop
   vertex 175.736 -424.264 1187.73
   vertex 226.192 -510.147 1140.43
   vertex 255.129 -381.827 1187.73
  endloop
 endfacet
 facet normal -0.398828 -0.32731 0.856624
  outer loop
   vertex -554.327 -370.39 1076.84
   vertex -477.491 -464.015 1076.84
   vertex -471.698 -464.96 1079.18
  endloop
 endfacet
 facet normal -0.39882 -0.327302 0.856631
  outer loop
   vertex -554.327 -370.39 1076.84
   vertex -471.698 -464.96 1079.18
   vertex -470.342 -314.273 1137.38
  endloop
 endfacet
 facet normal -0.398816 -0.327303 0.856632
  outer loop
   vertex -470.342 -314.273 1137.38
   vertex -471.698 -464.96 1079.18
   vertex -465.905 -465.905 1081.51
  endloop
 endfacet
 facet normal -0.398819 -0.327303 0.856631
  outer loop
   vertex -470.342 -314.273 1137.38
   vertex -465.905 -465.905 1081.51
   vertex -399.993 -399.993 1137.38
  endloop
 endfacet
 facet normal -0.461915 -0.379085 0.801828
  outer loop
   vertex -477.491 -464.015 1076.84
   vertex -604.002 -403.581 1032.53
   vertex -596.557 -439.984 1019.61
  endloop
 endfacet
 facet normal -0.461915 -0.379084 0.801829
  outer loop
   vertex -477.491 -464.015 1076.84
   vertex -554.327 -370.39 1076.84
   vertex -604.002 -403.581 1032.53
  endloop
 endfacet
 facet normal -0.327304 -0.398821 0.85663
  outer loop
   vertex -325.67 -487.4 1125.09
   vertex -314.273 -470.342 1137.38
   vertex -399.993 -399.993 1137.38
  endloop
 endfacet
 facet normal -0.202344 -0.378559 0.903189
  outer loop
   vertex -314.273 -470.342 1137.38
   vertex -267.382 -495.406 1137.38
   vertex -255.129 -381.827 1187.73
  endloop
 endfacet
 facet normal -0.202344 -0.378559 0.903189
  outer loop
   vertex -208.354 -503.011 1147.42
   vertex -175.736 -424.264 1187.73
   vertex -255.129 -381.827 1187.73
  endloop
 endfacet
 facet normal -0.243207 -0.455012 0.85663
  outer loop
   vertex -314.273 -470.342 1137.38
   vertex -325.67 -487.4 1125.09
   vertex -296.526 -491.403 1131.23
  endloop
 endfacet
 facet normal -0.24321 -0.455014 0.856628
  outer loop
   vertex -314.273 -470.342 1137.38
   vertex -296.526 -491.403 1131.23
   vertex -267.382 -495.406 1137.38
  endloop
 endfacet
 facet normal -0.124602 -0.410761 0.903188
  outer loop
   vertex -208.354 -503.011 1147.42
   vertex -101.997 -512.772 1157.65
   vertex -89.5892 -450.396 1187.73
  endloop
 endfacet
 facet normal -0.124603 -0.41076 0.903189
  outer loop
   vertex -175.736 -424.264 1187.73
   vertex -208.354 -503.011 1147.42
   vertex -89.5892 -450.396 1187.73
  endloop
 endfacet
 facet normal 0.39882 -0.327302 0.85663
  outer loop
   vertex 399.993 -399.993 1137.38
   vertex 462.727 -462.726 1084.21
   vertex 471.905 -461.182 1080.52
  endloop
 endfacet
 facet normal 0.39882 -0.327303 0.856631
  outer loop
   vertex 399.993 -399.993 1137.38
   vertex 471.905 -461.182 1080.52
   vertex 470.342 -314.272 1137.38
  endloop
 endfacet
 facet normal 0.398819 -0.327303 0.856631
  outer loop
   vertex 470.342 -314.272 1137.38
   vertex 471.905 -461.182 1080.52
   vertex 481.083 -459.638 1076.84
  endloop
 endfacet
 facet normal 0.39882 -0.327303 0.85663
  outer loop
   vertex 470.342 -314.272 1137.38
   vertex 481.083 -459.638 1076.84
   vertex 554.327 -370.39 1076.84
  endloop
 endfacet
 facet normal 0.243209 -0.455011 0.856629
  outer loop
   vertex 314.273 -470.342 1137.38
   vertex 257.289 -500.8 1137.38
   vertex 291.825 -494.617 1130.86
  endloop
 endfacet
 facet normal 0.243209 -0.455011 0.85663
  outer loop
   vertex 314.273 -470.342 1137.38
   vertex 291.825 -494.617 1130.86
   vertex 326.36 -488.433 1124.34
  endloop
 endfacet
 facet normal 0.202344 -0.378558 0.903189
  outer loop
   vertex 257.289 -500.8 1137.38
   vertex 255.129 -381.827 1187.73
   vertex 226.192 -510.147 1140.43
  endloop
 endfacet
 facet normal 0.202344 -0.378558 0.903189
  outer loop
   vertex 257.289 -500.8 1137.38
   vertex 314.273 -470.342 1137.38
   vertex 255.129 -381.827 1187.73
  endloop
 endfacet
 facet normal 0.327304 -0.398821 0.85663
  outer loop
   vertex 314.273 -470.342 1137.38
   vertex 326.36 -488.433 1124.34
   vertex 399.993 -399.993 1137.38
  endloop
 endfacet
 facet normal 0.526989 -0.281681 0.801835
  outer loop
   vertex 622.509 -257.852 1071.56
   vertex 615.935 -255.129 1076.84
   vertex 554.327 -370.39 1076.84
  endloop
 endfacet
 facet normal 0.493714 0.14977 0.85663
  outer loop
   vertex 522.617 216.475 1137.38
   vertex 634.676 170.303 1080.87
   vertex 628.665 213.165 1076.84
  endloop
 endfacet
 facet normal 0.493714 0.149766 0.856631
  outer loop
   vertex 522.617 216.475 1137.38
   vertex 628.665 213.165 1076.84
   vertex 615.936 255.129 1076.84
  endloop
 endfacet
 facet normal 0.461915 0.379084 0.801829
  outer loop
   vertex 588.615 440.66 1023.87
   vertex 474.599 467.54 1076.84
   vertex 554.328 370.39 1076.84
  endloop
 endfacet
 facet normal 0.461914 0.379085 0.801829
  outer loop
   vertex 588.615 440.66 1023.87
   vertex 554.328 370.39 1076.84
   vertex 596.97 398.883 1038.8
  endloop
 endfacet
 facet normal 0.571806 0.173455 0.801842
  outer loop
   vertex 615.936 255.129 1076.84
   vertex 628.665 213.165 1076.84
   vertex 625.28 235.381 1074.45
  endloop
 endfacet
 facet normal 0.571815 0.17346 0.801835
  outer loop
   vertex 615.936 255.129 1076.84
   vertex 625.28 235.381 1074.45
   vertex 621.895 257.598 1072.06
  endloop
 endfacet
 facet normal 0.526988 0.281681 0.801835
  outer loop
   vertex 615.936 255.129 1076.84
   vertex 621.895 257.598 1072.06
   vertex 554.328 370.39 1076.84
  endloop
 endfacet
 facet normal 0.513445 0.0505675 0.856631
  outer loop
   vertex 633.388 0.000112278 1096.8
   vertex 554.807 110.358 1137.38
   vertex 565.676 9.31088e-005 1137.38
  endloop
 endfacet
 facet normal 0.513445 -0.0505698 0.856631
  outer loop
   vertex 633.388 0.000112278 1096.8
   vertex 565.676 9.31088e-005 1137.38
   vertex 554.806 -110.358 1137.38
  endloop
 endfacet
 facet normal 0.493713 -0.149752 0.856634
  outer loop
   vertex 522.616 -216.475 1137.38
   vertex 633.069 -195.29 1077.43
   vertex 633.094 -193.955 1077.65
  endloop
 endfacet
 facet normal 0.493715 -0.149767 0.856631
  outer loop
   vertex 522.616 -216.475 1137.38
   vertex 633.094 -193.955 1077.65
   vertex 554.806 -110.358 1137.38
  endloop
 endfacet
 facet normal 0.493768 -0.149782 0.856597
  outer loop
   vertex 615.935 -255.129 1076.84
   vertex 633.074 -198.63 1076.84
   vertex 633.069 -195.29 1077.43
  endloop
 endfacet
 facet normal 0.493714 -0.149767 0.85663
  outer loop
   vertex 615.935 -255.129 1076.84
   vertex 633.069 -195.29 1077.43
   vertex 522.616 -216.475 1137.38
  endloop
 endfacet
 facet normal 0.493715 -0.149767 0.856631
  outer loop
   vertex 633.282 -125.968 1089.42
   vertex 554.806 -110.358 1137.38
   vertex 633.094 -193.955 1077.65
  endloop
 endfacet
 facet normal 0.571752 -0.173451 0.801882
  outer loop
   vertex 633.074 -198.63 1076.84
   vertex 622.509 -257.852 1071.56
   vertex 628.33 -226.467 1074.2
  endloop
 endfacet
 facet normal 0.571816 -0.173458 0.801834
  outer loop
   vertex 633.074 -198.63 1076.84
   vertex 615.935 -255.129 1076.84
   vertex 622.509 -257.852 1071.56
  endloop
 endfacet
 facet normal 0.493738 0.149772 0.856616
  outer loop
   vertex 631.543 203.679 1076.84
   vertex 628.665 213.165 1076.84
   vertex 634.676 170.303 1080.87
  endloop
 endfacet
 facet normal 0.493713 0.149764 0.856632
  outer loop
   vertex 632.911 125.894 1089.65
   vertex 634.676 170.303 1080.87
   vertex 522.617 216.475 1137.38
  endloop
 endfacet
 facet normal 0.493715 0.149767 0.85663
  outer loop
   vertex 554.807 110.358 1137.38
   vertex 632.911 125.894 1089.65
   vertex 522.617 216.475 1137.38
  endloop
 endfacet
 facet normal 0.571817 0.173456 0.801834
  outer loop
   vertex 628.665 213.165 1076.84
   vertex 631.543 203.679 1076.84
   vertex 625.28 235.381 1074.45
  endloop
 endfacet
 facet normal -0.970469 0.220206 -0.0984812
  outer loop
   vertex 622.509 -257.852 1071.56
   vertex 585.484 -441.787 1025.14
   vertex 594.013 -396.907 1041.44
  endloop
 endfacet
 facet normal 0.526994 -0.281685 0.80183
  outer loop
   vertex 554.327 -370.39 1076.84
   vertex 594.013 -396.907 1041.44
   vertex 622.509 -257.852 1071.56
  endloop
 endfacet
 facet normal 0.461915 -0.379083 0.80183
  outer loop
   vertex 585.484 -441.787 1025.14
   vertex 594.013 -396.907 1041.44
   vertex 481.083 -459.638 1076.84
  endloop
 endfacet
 facet normal 0.327303 -0.39882 0.85663
  outer loop
   vertex 326.36 -488.433 1124.34
   vertex 462.727 -462.726 1084.21
   vertex 399.993 -399.993 1137.38
  endloop
 endfacet
 facet normal 0.526995 0.281685 0.801829
  outer loop
   vertex 554.328 370.39 1076.84
   vertex 621.895 257.598 1072.06
   vertex 596.97 398.883 1038.8
  endloop
 endfacet
 facet normal 0.513446 0.0505685 0.85663
  outer loop
   vertex 554.807 110.358 1137.38
   vertex 633.388 0.000112278 1096.8
   vertex 632.911 125.894 1089.65
  endloop
 endfacet
 facet normal 0.513446 -0.0505704 0.856631
  outer loop
   vertex 554.806 -110.358 1137.38
   vertex 633.282 -125.968 1089.42
   vertex 633.388 0.000112278 1096.8
  endloop
 endfacet
 facet normal -0.327302 -0.39882 0.856631
  outer loop
   vertex -399.993 -399.993 1137.38
   vertex -465.905 -465.905 1081.51
   vertex -325.67 -487.4 1125.09
  endloop
 endfacet
 facet normal -0.202344 -0.378559 0.903189
  outer loop
   vertex -267.382 -495.406 1137.38
   vertex -208.354 -503.011 1147.42
   vertex -255.129 -381.827 1187.73
  endloop
 endfacet
 facet normal -0.0257974 0.912782 -0.407631
  outer loop
   vertex -474.598 467.54 1076.84
   vertex 0 5.24537e-005 -0.127935
   vertex -596.69 438.757 1020.11
  endloop
 endfacet
 facet normal -0.0371149 0.91058 -0.411662
  outer loop
   vertex -474.598 467.54 1076.84
   vertex -471.692 468.163 1077.96
   vertex 0 5.24537e-005 -0.127935
  endloop
 endfacet
 facet normal -0.0371311 0.910577 -0.411668
  outer loop
   vertex -468.786 468.785 1079.07
   vertex 0 5.24537e-005 -0.127935
   vertex -471.692 468.163 1077.96
  endloop
 endfacet
 facet normal -0.0181527 0.914148 -0.404975
  outer loop
   vertex -327.983 490.861 1122.59
   vertex 0 5.24537e-005 -0.127935
   vertex -468.786 468.785 1079.07
  endloop
 endfacet
 facet normal -0.00957782 0.915184 -0.402923
  outer loop
   vertex -327.983 490.861 1122.59
   vertex -295.2 494.46 1129.99
   vertex 0 5.24537e-005 -0.127935
  endloop
 endfacet
 facet normal -0.00957801 0.915184 -0.402923
  outer loop
   vertex -262.418 498.06 1137.38
   vertex 0 5.24537e-005 -0.127935
   vertex -295.2 494.46 1129.99
  endloop
 endfacet
 facet normal -0.0127836 0.914878 -0.403529
  outer loop
   vertex -262.418 498.06 1137.38
   vertex -235.425 500.629 1142.35
   vertex 0 5.24537e-005 -0.127935
  endloop
 endfacet
 facet normal -0.0127836 0.914878 -0.403529
  outer loop
   vertex -208.432 503.198 1147.32
   vertex 0 5.24537e-005 -0.127935
   vertex -235.425 500.629 1142.35
  endloop
 endfacet
 facet normal -0.00604857 0.915387 -0.402529
  outer loop
   vertex -101.287 509.205 1159.37
   vertex 0 5.24537e-005 -0.127935
   vertex -208.432 503.198 1147.32
  endloop
 endfacet
 facet normal -0.00208277 0.91553 -0.402245
  outer loop
   vertex -2.30499e-005 511.112 1163.19
   vertex 0 5.24537e-005 -0.127935
   vertex -101.287 509.205 1159.37
  endloop
 endfacet
 facet normal 0.00208326 0.91553 -0.402245
  outer loop
   vertex 101.287 509.205 1159.37
   vertex 0 5.24537e-005 -0.127935
   vertex -2.30499e-005 511.112 1163.19
  endloop
 endfacet
 facet normal 0.00604812 0.915387 -0.402529
  outer loop
   vertex 208.432 503.198 1147.32
   vertex 0 5.24537e-005 -0.127935
   vertex 101.287 509.205 1159.37
  endloop
 endfacet
 facet normal 0.0127836 0.914878 -0.403529
  outer loop
   vertex 208.432 503.198 1147.32
   vertex 235.425 500.629 1142.35
   vertex 0 5.24537e-005 -0.127935
  endloop
 endfacet
 facet normal 0.0127826 0.914878 -0.403528
  outer loop
   vertex 262.418 498.06 1137.38
   vertex 0 5.24537e-005 -0.127935
   vertex 235.425 500.629 1142.35
  endloop
 endfacet
 facet normal 0.00957884 0.915184 -0.402923
  outer loop
   vertex 262.418 498.06 1137.38
   vertex 295.2 494.46 1129.99
   vertex 0 5.24537e-005 -0.127935
  endloop
 endfacet
 facet normal 0.00957864 0.915184 -0.402923
  outer loop
   vertex 327.983 490.861 1122.59
   vertex 0 5.24537e-005 -0.127935
   vertex 295.2 494.46 1129.99
  endloop
 endfacet
 facet normal 0.0181536 0.914147 -0.404975
  outer loop
   vertex 468.785 468.785 1079.07
   vertex 0 5.24537e-005 -0.127935
   vertex 327.983 490.861 1122.59
  endloop
 endfacet
 facet normal 0.0371226 0.910579 -0.411665
  outer loop
   vertex 468.785 468.785 1079.07
   vertex 471.692 468.163 1077.96
   vertex 0 5.24537e-005 -0.127935
  endloop
 endfacet
 facet normal 0.0371138 0.910581 -0.411662
  outer loop
   vertex 474.599 467.54 1076.84
   vertex 0 5.24537e-005 -0.127935
   vertex 471.692 468.163 1077.96
  endloop
 endfacet
 facet normal 0.0257972 0.912782 -0.407631
  outer loop
   vertex 474.599 467.54 1076.84
   vertex 588.615 440.66 1023.87
   vertex 0 5.24537e-005 -0.127935
  endloop
 endfacet
 facet normal 0.86774 -0.00417471 -0.497
  outer loop
   vertex 596.97 398.883 1038.8
   vertex 0 5.24537e-005 -0.127935
   vertex 588.615 440.66 1023.87
  endloop
 endfacet
 facet normal 0.861153 0.0325239 -0.507305
  outer loop
   vertex 596.97 398.883 1038.8
   vertex 621.895 257.598 1072.06
   vertex 0 5.24537e-005 -0.127935
  endloop
 endfacet
 facet normal 0.854674 0.0749145 -0.513732
  outer loop
   vertex 621.895 257.598 1072.06
   vertex 625.28 235.381 1074.45
   vertex 0 5.24537e-005 -0.127935
  endloop
 endfacet
 facet normal 0.844834 0.127694 -0.519567
  outer loop
   vertex 625.28 235.381 1074.45
   vertex 631.543 203.679 1076.84
   vertex 0 5.24537e-005 -0.127935
  endloop
 endfacet
 facet normal 0.860853 0.0194176 -0.508483
  outer loop
   vertex 634.676 170.303 1080.87
   vertex 0 5.24537e-005 -0.127935
   vertex 631.543 203.679 1076.84
  endloop
 endfacet
 facet normal 0.863816 -0.130564 -0.486595
  outer loop
   vertex 634.676 170.303 1080.87
   vertex 632.911 125.894 1089.65
   vertex 0 5.24537e-005 -0.127935
  endloop
 endfacet
 facet normal 0.865726 -0.025089 -0.499889
  outer loop
   vertex 633.388 0.000112278 1096.8
   vertex 0 5.24537e-005 -0.127935
   vertex 632.911 125.894 1089.65
  endloop
 endfacet
 facet normal 0.865646 0.0285265 -0.499843
  outer loop
   vertex 633.282 -125.968 1089.42
   vertex 0 5.24537e-005 -0.127935
   vertex 633.388 0.000112278 1096.8
  endloop
 endfacet
 facet normal 0.461914 -0.379083 0.80183
  outer loop
   vertex 554.327 -370.39 1076.84
   vertex 481.083 -459.638 1076.84
   vertex 594.013 -396.907 1041.44
  endloop
 endfacet
 facet normal 0.865723 0.0831065 -0.493577
  outer loop
   vertex 633.282 -125.968 1089.42
   vertex 633.094 -193.955 1077.65
   vertex 0 5.24537e-005 -0.127935
  endloop
 endfacet
 facet normal 0.865498 0.0655473 -0.496605
  outer loop
   vertex 633.094 -193.955 1077.65
   vertex 633.069 -195.29 1077.43
   vertex 0 5.24537e-005 -0.127935
  endloop
 endfacet
 facet normal 0.865748 0.0879168 -0.492697
  outer loop
   vertex 633.074 -198.63 1076.84
   vertex 0 5.24537e-005 -0.127935
   vertex 633.069 -195.29 1077.43
  endloop
 endfacet
 facet normal 0.850291 -0.0958716 -0.517508
  outer loop
   vertex 628.33 -226.467 1074.2
   vertex 0 5.24537e-005 -0.127935
   vertex 633.074 -198.63 1076.84
  endloop
 endfacet
 facet normal 0.847029 -0.113434 -0.519302
  outer loop
   vertex 622.509 -257.852 1071.56
   vertex 0 5.24537e-005 -0.127935
   vertex 628.33 -226.467 1074.2
  endloop
 endfacet
 facet normal 0.85611 -0.0643628 -0.512771
  outer loop
   vertex 594.013 -396.907 1041.44
   vertex 0 5.24537e-005 -0.127935
   vertex 622.509 -257.852 1071.56
  endloop
 endfacet
 facet normal 0.870731 0.0131166 -0.491584
  outer loop
   vertex 585.484 -441.787 1025.14
   vertex 0 5.24537e-005 -0.127935
   vertex 594.013 -396.907 1041.44
  endloop
 endfacet
 facet normal -0.0305501 -0.924163 -0.380776
  outer loop
   vertex 0 5.24537e-005 -0.127935
   vertex 585.484 -441.787 1025.14
   vertex 481.083 -459.638 1076.84
  endloop
 endfacet
 facet normal -0.00237728 -0.920118 -0.391634
  outer loop
   vertex 481.083 -459.638 1076.84
   vertex 471.905 -461.182 1080.52
   vertex 0 5.24537e-005 -0.127935
  endloop
 endfacet
 facet normal -0.00237728 -0.920118 -0.391634
  outer loop
   vertex 462.727 -462.726 1084.21
   vertex 0 5.24537e-005 -0.127935
   vertex 471.905 -461.182 1080.52
  endloop
 endfacet
 facet normal 0.0508935 -0.910539 -0.410279
  outer loop
   vertex 462.727 -462.726 1084.21
   vertex 326.36 -488.433 1124.34
   vertex 0 5.24537e-005 -0.127935
  endloop
 endfacet
 facet normal 0.0832603 -0.904968 -0.417253
  outer loop
   vertex 326.36 -488.433 1124.34
   vertex 291.825 -494.617 1130.86
   vertex 0 5.24537e-005 -0.127935
  endloop
 endfacet
 facet normal 0.083261 -0.904968 -0.417254
  outer loop
   vertex 257.289 -500.8 1137.38
   vertex 0 5.24537e-005 -0.127935
   vertex 291.825 -494.617 1130.86
  endloop
 endfacet
 facet normal 0.219935 -0.873499 -0.434313
  outer loop
   vertex 226.192 -510.147 1140.43
   vertex 0 5.24537e-005 -0.127935
   vertex 257.289 -500.8 1137.38
  endloop
 endfacet
 facet normal -0.0484967 -0.915325 -0.399786
  outer loop
   vertex 211.54 -510.702 1143.48
   vertex 0 5.24537e-005 -0.127935
   vertex 226.192 -510.147 1140.43
  endloop
 endfacet
 facet normal -0.0347394 -0.914915 -0.402148
  outer loop
   vertex 101.997 -512.772 1157.65
   vertex 0 5.24537e-005 -0.127935
   vertex 211.54 -510.702 1143.48
  endloop
 endfacet
 facet normal -0.0125104 -0.914674 -0.403999
  outer loop
   vertex 6.77067e-005 -513.354 1162.13
   vertex 0 5.24537e-005 -0.127935
   vertex 101.997 -512.772 1157.65
  endloop
 endfacet
 facet normal 0.0125104 -0.914674 -0.403999
  outer loop
   vertex -101.997 -512.772 1157.65
   vertex 0 5.24537e-005 -0.127935
   vertex 6.77067e-005 -513.354 1162.13
  endloop
 endfacet
 facet normal -0.0444506 -0.911978 -0.407824
  outer loop
   vertex -101.997 -512.772 1157.65
   vertex -208.354 -503.011 1147.42
   vertex 0 5.24537e-005 -0.127935
  endloop
 endfacet
 facet normal -0.0480365 -0.911582 -0.408301
  outer loop
   vertex -208.354 -503.011 1147.42
   vertex -267.382 -495.406 1137.38
   vertex 0 5.24537e-005 -0.127935
  endloop
 endfacet
 facet normal -0.0395257 -0.912673 -0.406776
  outer loop
   vertex -267.382 -495.406 1137.38
   vertex -296.526 -491.403 1131.23
   vertex 0 5.24537e-005 -0.127935
  endloop
 endfacet
 facet normal -0.0395292 -0.912672 -0.406776
  outer loop
   vertex -325.67 -487.4 1125.09
   vertex 0 5.24537e-005 -0.127935
   vertex -296.526 -491.403 1131.23
  endloop
 endfacet
 facet normal -0.0157071 -0.915834 -0.401251
  outer loop
   vertex -465.905 -465.905 1081.51
   vertex 0 5.24537e-005 -0.127935
   vertex -325.67 -487.4 1125.09
  endloop
 endfacet
 facet normal 0.00830603 -0.919686 -0.392567
  outer loop
   vertex -465.905 -465.905 1081.51
   vertex -471.698 -464.96 1079.18
   vertex 0 5.24537e-005 -0.127935
  endloop
 endfacet
 facet normal 0.00831716 -0.919688 -0.392563
  outer loop
   vertex -477.491 -464.015 1076.84
   vertex 0 5.24537e-005 -0.127935
   vertex -471.698 -464.96 1079.18
  endloop
 endfacet
 facet normal 0.00398522 -0.919018 -0.394195
  outer loop
   vertex -596.557 -439.984 1019.61
   vertex 0 5.24537e-005 -0.127935
   vertex -477.491 -464.015 1076.84
  endloop
 endfacet
 facet normal -0.863586 0.00233994 -0.504196
  outer loop
   vertex -604.002 -403.581 1032.53
   vertex 0 5.24537e-005 -0.127935
   vertex -596.557 -439.984 1019.61
  endloop
 endfacet
 facet normal -0.86548 0.0139999 -0.500747
  outer loop
   vertex -623.688 -258.34 1070.62
   vertex 0 5.24537e-005 -0.127935
   vertex -604.002 -403.581 1032.53
  endloop
 endfacet
 facet normal -0.865412 0.0132668 -0.500885
  outer loop
   vertex -623.688 -258.34 1070.62
   vertex -625.193 -238.997 1073.73
   vertex 0 5.24537e-005 -0.127935
  endloop
 endfacet
 facet normal -0.865412 0.0132641 -0.500885
  outer loop
   vertex -626.697 -219.653 1076.84
   vertex 0 5.24537e-005 -0.127935
   vertex -625.193 -238.997 1073.73
  endloop
 endfacet
 facet normal -0.86473 0.00480516 -0.502214
  outer loop
   vertex -626.697 -219.653 1076.84
   vertex -630.065 -172.825 1083.09
   vertex 0 5.24537e-005 -0.127935
  endloop
 endfacet
 facet normal -0.86473 0.00480517 -0.502214
  outer loop
   vertex -633.432 -125.998 1089.33
   vertex 0 5.24537e-005 -0.127935
   vertex -630.065 -172.825 1083.09
  endloop
 endfacet
 facet normal -0.864608 0.00221514 -0.502442
  outer loop
   vertex -636.398 -4.75646e-005 1094.99
   vertex 0 5.24537e-005 -0.127935
   vertex -633.432 -125.998 1089.33
  endloop
 endfacet
 facet normal -0.864608 -0.00221688 -0.502442
  outer loop
   vertex -633.432 125.997 1089.33
   vertex 0 5.24537e-005 -0.127935
   vertex -636.398 -4.75646e-005 1094.99
  endloop
 endfacet
 facet normal -0.86473 -0.00480746 -0.502214
  outer loop
   vertex -633.432 125.997 1089.33
   vertex -630.065 172.825 1083.09
   vertex 0 5.24537e-005 -0.127935
  endloop
 endfacet
 facet normal -0.86473 -0.00480508 -0.502214
  outer loop
   vertex -626.698 219.652 1076.84
   vertex 0 5.24537e-005 -0.127935
   vertex -630.065 172.825 1083.09
  endloop
 endfacet
 facet normal -0.865412 -0.0132638 -0.500886
  outer loop
   vertex -626.698 219.652 1076.84
   vertex -625.193 238.996 1073.73
   vertex 0 5.24537e-005 -0.127935
  endloop
 endfacet
 facet normal -0.865412 -0.0132669 -0.500885
  outer loop
   vertex -623.688 258.34 1070.62
   vertex 0 5.24537e-005 -0.127935
   vertex -625.193 238.996 1073.73
  endloop
 endfacet
 facet normal -0.86548 -0.0140006 -0.500748
  outer loop
   vertex -604.003 403.582 1032.53
   vertex 0 5.24537e-005 -0.127935
   vertex -623.688 258.34 1070.62
  endloop
 endfacet
 facet normal -0.863007 0.00107045 -0.505191
  outer loop
   vertex -604.003 403.582 1032.53
   vertex -596.69 438.757 1020.11
   vertex 0 5.24537e-005 -0.127935
  endloop
 endfacet
endsolid
