solid ascii
 facet normal -0.343613 -0.0945502 -0.934339
  outer loop
   vertex -138.271 0 -1285.15
   vertex -0.00170943 0 -1336
   vertex -42.7283 -347.212 -1285.15
  endloop
 endfacet
 facet normal -0.531893 -0.14636 -0.834067
  outer loop
   vertex -183.069 -351.185 -1194.96
   vertex -138.271 0 -1285.15
   vertex -42.7283 -347.212 -1285.15
  endloop
 endfacet
 facet normal -0.756605 -0.0704397 -0.650067
  outer loop
   vertex -266.015 0 -1136.47
   vertex -138.271 0 -1285.15
   vertex -183.069 -351.185 -1194.96
  endloop
 endfacet
 facet normal 0.137313 -0.160054 -0.977511
  outer loop
   vertex -42.7283 -347.212 -1285.15
   vertex -0.00170943 0 -1336
   vertex 111.86 -214.587 -1285.15
  endloop
 endfacet
 facet normal 0.413821 0 -0.910358
  outer loop
   vertex 111.86 -214.587 -1285.15
   vertex -0.00170943 0 -1336
   vertex 111.86 214.587 -1285.15
  endloop
 endfacet
 facet normal 0.619054 0 -0.785348
  outer loop
   vertex 111.86 214.587 -1285.15
   vertex 226.282 0 -1194.96
   vertex 111.86 -214.587 -1285.15
  endloop
 endfacet
 facet normal 0.738044 -0.114011 -0.66505
  outer loop
   vertex 215.207 -412.839 -1136.47
   vertex 111.86 -214.587 -1285.15
   vertex 226.282 0 -1194.96
  endloop
 endfacet
 facet normal 0.738044 0.114011 -0.66505
  outer loop
   vertex 226.282 0 -1194.96
   vertex 111.86 214.587 -1285.15
   vertex 215.207 412.839 -1136.47
  endloop
 endfacet
 facet normal 0.137313 0.160054 -0.977511
  outer loop
   vertex 111.86 214.587 -1285.15
   vertex -0.00170943 0 -1336
   vertex -42.7283 347.212 -1285.15
  endloop
 endfacet
 facet normal -0.343613 0.0945502 -0.934339
  outer loop
   vertex -0.00170943 0 -1336
   vertex -138.271 0 -1285.15
   vertex -42.7283 347.212 -1285.15
  endloop
 endfacet
 facet normal -0.531893 0.14636 -0.834067
  outer loop
   vertex -138.271 0 -1285.15
   vertex -183.069 351.185 -1194.96
   vertex -42.7283 347.212 -1285.15
  endloop
 endfacet
 facet normal -0.756605 0.0704397 -0.650067
  outer loop
   vertex -183.069 351.185 -1194.96
   vertex -138.271 0 -1285.15
   vertex -266.015 0 -1136.47
  endloop
 endfacet
 facet normal -0.682961 -0.33707 -0.648034
  outer loop
   vertex -183.069 -351.185 -1194.96
   vertex -126.664 -528.344 -1162.25
   vertex -201.63 -502.015 -1096.94
  endloop
 endfacet
 facet normal 0.803904 -0.302695 -0.511971
  outer loop
   vertex 215.207 -412.839 -1136.47
   vertex 250.145 -479.861 -1041.99
   vertex 207.544 -501.637 -1096.01
  endloop
 endfacet
 facet normal 0.895935 0 -0.444185
  outer loop
   vertex 226.282 0 -1194.96
   vertex 307.317 155.449 -1031.51
   vertex 307.317 -155.449 -1031.51
  endloop
 endfacet
 facet normal 0.653172 0.359963 -0.666178
  outer loop
   vertex 215.207 412.839 -1136.47
   vertex 99.3519 536.753 -1183.11
   vertex 207.544 501.637 -1096.01
  endloop
 endfacet
 facet normal -0.908206 0.0534519 -0.415096
  outer loop
   vertex -266.015 0 -1136.47
   vertex -309.483 0 -1041.37
   vertex -304.902 239.985 -1020.49
  endloop
 endfacet
 facet normal -0.908206 -0.0534519 -0.415096
  outer loop
   vertex -309.483 0 -1041.37
   vertex -266.015 0 -1136.47
   vertex -304.902 -239.985 -1020.49
  endloop
 endfacet
 facet normal -0.682961 0.33707 -0.648034
  outer loop
   vertex -183.069 351.185 -1194.96
   vertex -201.63 502.015 -1096.94
   vertex -126.664 528.344 -1162.25
  endloop
 endfacet
 facet normal -0.830097 -0.228415 -0.508691
  outer loop
   vertex -300.97 -351.185 -1002.56
   vertex -183.069 -351.185 -1194.96
   vertex -297.995 -392.201 -989
  endloop
 endfacet
 facet normal 0.653173 -0.359963 -0.666177
  outer loop
   vertex 215.207 -412.839 -1136.47
   vertex 207.544 -501.637 -1096.01
   vertex 99.3517 -536.753 -1183.11
  endloop
 endfacet
 facet normal 0.803904 0.302694 -0.511971
  outer loop
   vertex 250.145 479.861 -1041.99
   vertex 215.207 412.839 -1136.47
   vertex 207.544 501.637 -1096.01
  endloop
 endfacet
 facet normal -0.830097 0.228414 -0.508691
  outer loop
   vertex -201.63 502.015 -1096.94
   vertex -183.069 351.185 -1194.96
   vertex -279.752 458.5 -989
  endloop
 endfacet
 facet normal -0.0795071 0.41111 -0.908112
  outer loop
   vertex -66.6455 541.572 -1195.07
   vertex 58.239 545.3 -1204.31
   vertex -42.7283 347.212 -1285.15
  endloop
 endfacet
 facet normal -5.82782e-006 -0.927474 0.373888
  outer loop
   vertex -126.664 -528.344 -1162.25
   vertex -66.6455 -541.573 -1195.07
   vertex -201.63 -502.015 -1096.94
  endloop
 endfacet
 facet normal -0.079507 -0.41111 -0.908112
  outer loop
   vertex -42.7283 -347.212 -1285.15
   vertex 58.2391 -545.3 -1204.31
   vertex -66.6455 -541.573 -1195.07
  endloop
 endfacet
 facet normal 0.878588 -0.170767 -0.446007
  outer loop
   vertex 250.145 -479.861 -1041.99
   vertex 297.993 -372.082 -989.001
   vertex 281.196 -458.5 -989.001
  endloop
 endfacet
 facet normal -0.976774 7.71844e-008 0.214273
  outer loop
   vertex -304.902 -239.985 -1020.49
   vertex -297.995 392.201 -989
   vertex -300.97 351.185 -1002.56
  endloop
 endfacet
 facet normal 0.829815 -0.228529 0.509099
  outer loop
   vertex -300.97 351.185 -1002.56
   vertex -297.995 392.201 -989
   vertex -293.796 451.336 -969.3
  endloop
 endfacet
 facet normal 0.878588 0.170767 -0.446007
  outer loop
   vertex 215.207 412.839 -1136.47
   vertex 297.993 372.082 -989.001
   vertex 303.791 273.21 -1015.43
  endloop
 endfacet
 facet normal 0.878588 -0.170767 -0.446006
  outer loop
   vertex 281.196 -458.5 -989.001
   vertex 297.993 -372.082 -989.001
   vertex 293.469 -450.783 -967.779
  endloop
 endfacet
 facet normal 0.878588 0.170768 -0.446007
  outer loop
   vertex 215.207 412.839 -1136.47
   vertex 250.145 479.861 -1041.99
   vertex 281.196 458.5 -989.001
  endloop
 endfacet
 facet normal -0.830097 -0.228414 -0.508691
  outer loop
   vertex -183.069 -351.185 -1194.96
   vertex -201.63 -502.015 -1096.94
   vertex -279.752 -458.5 -989
  endloop
 endfacet
 facet normal 1.77868e-006 -0.92747 0.373898
  outer loop
   vertex 99.3517 -536.753 -1183.11
   vertex -201.63 -502.015 -1096.94
   vertex 72.7956 -544.017 -1201.13
  endloop
 endfacet
 facet normal 1.24564e-006 -2.48111e-007 1
  outer loop
   vertex -195.997 246 -557
   vertex -195.997 -246 -557
   vertex 195.995 -246 -557
  endloop
 endfacet
 facet normal 1.40135e-006 -1.24055e-007 1
  outer loop
   vertex 195.995 -246 -557
   vertex 195.995 246 -557
   vertex -195.997 246 -557
  endloop
 endfacet
 facet normal -0.967846 0 0.251545
  outer loop
   vertex -195.997 246 -557
   vertex -251.096 378.5 -769
   vertex -251.096 -378.5 -769
  endloop
 endfacet
 facet normal -0.967846 -6.2411e-008 0.251545
  outer loop
   vertex -251.096 -378.5 -769
   vertex -195.997 -246 -557
   vertex -195.997 246 -557
  endloop
 endfacet
 facet normal 6.57033e-007 -0.847998 0.529999
  outer loop
   vertex -195.997 -246 -557
   vertex -251.096 -378.5 -769
   vertex 251.094 -378.5 -769
  endloop
 endfacet
 facet normal 6.60188e-007 -0.847998 0.529999
  outer loop
   vertex 251.094 -378.5 -769
   vertex 195.995 -246 -557
   vertex -195.997 -246 -557
  endloop
 endfacet
 facet normal 0.967846 -0 0.251542
  outer loop
   vertex 195.995 -246 -557
   vertex 251.094 -378.5 -769
   vertex 251.094 378.5 -769
  endloop
 endfacet
 facet normal 0.967846 5.88447e-008 0.251543
  outer loop
   vertex 251.094 378.5 -769
   vertex 195.995 246 -557
   vertex 195.995 -246 -557
  endloop
 endfacet
 facet normal 6.43683e-007 0.847999 0.529999
  outer loop
   vertex -251.096 378.5 -769
   vertex -195.997 246 -557
   vertex 195.995 246 -557
  endloop
 endfacet
 facet normal 7.08565e-007 0.847999 0.529999
  outer loop
   vertex 195.995 246 -557
   vertex 251.094 378.5 -769
   vertex -251.096 378.5 -769
  endloop
 endfacet
 facet normal -0.507781 -0.310044 -0.803761
  outer loop
   vertex -42.7283 -347.212 -1285.15
   vertex -66.6455 -541.573 -1195.07
   vertex -126.664 -528.344 -1162.25
  endloop
 endfacet
 facet normal -0.507782 -0.310043 -0.80376
  outer loop
   vertex -126.664 -528.344 -1162.25
   vertex -183.069 -351.185 -1194.96
   vertex -42.7283 -347.212 -1285.15
  endloop
 endfacet
 facet normal -0.847115 -0.113626 -0.51912
  outer loop
   vertex -183.069 -351.185 -1194.96
   vertex -300.97 -351.185 -1002.56
   vertex -304.902 -239.985 -1020.49
  endloop
 endfacet
 facet normal -0.847115 -0.113626 -0.51912
  outer loop
   vertex -304.902 -239.985 -1020.49
   vertex -266.015 0 -1136.47
   vertex -183.069 -351.185 -1194.96
  endloop
 endfacet
 facet normal 0.228144 -0.265927 -0.936607
  outer loop
   vertex -42.7283 -347.212 -1285.15
   vertex 111.86 -214.587 -1285.15
   vertex 72.7956 -544.017 -1201.13
  endloop
 endfacet
 facet normal 0.228154 -0.265921 -0.936607
  outer loop
   vertex 72.7956 -544.017 -1201.13
   vertex 58.2391 -545.3 -1204.31
   vertex -42.7283 -347.212 -1285.15
  endloop
 endfacet
 facet normal 0.590003 -0.26452 -0.762841
  outer loop
   vertex 72.7956 -544.017 -1201.13
   vertex 111.86 -214.587 -1285.15
   vertex 215.207 -412.839 -1136.47
  endloop
 endfacet
 facet normal 0.590002 -0.264519 -0.762841
  outer loop
   vertex 215.207 -412.839 -1136.47
   vertex 99.3517 -536.753 -1183.11
   vertex 72.7956 -544.017 -1201.13
  endloop
 endfacet
 facet normal 1.13626e-006 -0.927471 0.373896
  outer loop
   vertex -201.63 -502.015 -1096.94
   vertex -66.6455 -541.573 -1195.07
   vertex 58.2391 -545.3 -1204.31
  endloop
 endfacet
 facet normal -3.21406e-006 -0.927474 0.373887
  outer loop
   vertex 58.2391 -545.3 -1204.31
   vertex 72.7956 -544.017 -1201.13
   vertex -201.63 -502.015 -1096.94
  endloop
 endfacet
 facet normal 0.852636 0.0956409 -0.513677
  outer loop
   vertex 215.207 412.839 -1136.47
   vertex 303.791 273.21 -1015.43
   vertex 307.317 155.449 -1031.51
  endloop
 endfacet
 facet normal 0.852636 0.0956408 -0.513677
  outer loop
   vertex 307.317 155.449 -1031.51
   vertex 226.282 0 -1194.96
   vertex 215.207 412.839 -1136.47
  endloop
 endfacet
 facet normal 0.852636 -0.0956409 -0.513677
  outer loop
   vertex 307.317 -155.449 -1031.51
   vertex 303.791 -273.21 -1015.43
   vertex 215.207 -412.839 -1136.47
  endloop
 endfacet
 facet normal 0.852636 -0.0956408 -0.513677
  outer loop
   vertex 215.207 -412.839 -1136.47
   vertex 226.282 0 -1194.96
   vertex 307.317 -155.449 -1031.51
  endloop
 endfacet
 facet normal 0.590004 0.264519 -0.76284
  outer loop
   vertex 111.86 214.587 -1285.15
   vertex 72.7956 544.017 -1201.13
   vertex 99.3519 536.753 -1183.11
  endloop
 endfacet
 facet normal 0.590003 0.26452 -0.762841
  outer loop
   vertex 99.3519 536.753 -1183.11
   vertex 215.207 412.839 -1136.47
   vertex 111.86 214.587 -1285.15
  endloop
 endfacet
 facet normal 0.228144 0.265927 -0.936607
  outer loop
   vertex -42.7283 347.212 -1285.15
   vertex 58.239 545.3 -1204.31
   vertex 72.7956 544.017 -1201.13
  endloop
 endfacet
 facet normal 0.228144 0.265927 -0.936607
  outer loop
   vertex 72.7956 544.017 -1201.13
   vertex 111.86 214.587 -1285.15
   vertex -42.7283 347.212 -1285.15
  endloop
 endfacet
 facet normal -3.56785e-006 0.927469 0.3739
  outer loop
   vertex 99.3519 536.753 -1183.11
   vertex 72.7956 544.017 -1201.13
   vertex 58.239 545.3 -1204.31
  endloop
 endfacet
 facet normal 8.97556e-007 0.927472 0.373893
  outer loop
   vertex 58.239 545.3 -1204.31
   vertex -66.6455 541.572 -1195.07
   vertex 99.3519 536.753 -1183.11
  endloop
 endfacet
 facet normal -0.847115 0.113626 -0.51912
  outer loop
   vertex -304.902 239.985 -1020.49
   vertex -300.97 351.185 -1002.56
   vertex -183.069 351.185 -1194.96
  endloop
 endfacet
 facet normal -0.847115 0.113626 -0.51912
  outer loop
   vertex -183.069 351.185 -1194.96
   vertex -266.015 0 -1136.47
   vertex -304.902 239.985 -1020.49
  endloop
 endfacet
 facet normal -0.976773 0 0.214276
  outer loop
   vertex -304.902 -239.985 -1020.49
   vertex -300.97 351.185 -1002.56
   vertex -304.902 239.985 -1020.49
  endloop
 endfacet
 facet normal -0.976774 0 0.214274
  outer loop
   vertex -304.902 239.985 -1020.49
   vertex -309.483 0 -1041.37
   vertex -304.902 -239.985 -1020.49
  endloop
 endfacet
 facet normal -0.507782 0.310043 -0.80376
  outer loop
   vertex -42.7283 347.212 -1285.15
   vertex -183.069 351.185 -1194.96
   vertex -126.664 528.344 -1162.25
  endloop
 endfacet
 facet normal -0.50778 0.310044 -0.803761
  outer loop
   vertex -126.664 528.344 -1162.25
   vertex -66.6455 541.572 -1195.07
   vertex -42.7283 347.212 -1285.15
  endloop
 endfacet
 facet normal -0.830097 -0.228413 -0.508691
  outer loop
   vertex -293.796 -451.336 -969.3
   vertex -297.995 -392.201 -989
   vertex -183.069 -351.185 -1194.96
  endloop
 endfacet
 facet normal -0.830096 -0.228415 -0.508691
  outer loop
   vertex -183.069 -351.185 -1194.96
   vertex -279.752 -458.5 -989
   vertex -293.796 -451.336 -969.3
  endloop
 endfacet
 facet normal 0.878588 0.170767 -0.446006
  outer loop
   vertex 293.469 450.783 -967.779
   vertex 297.993 372.082 -989.001
   vertex 215.207 412.839 -1136.47
  endloop
 endfacet
 facet normal 0.878588 0.170765 -0.446006
  outer loop
   vertex 215.207 412.839 -1136.47
   vertex 281.196 458.5 -989.001
   vertex 293.469 450.783 -967.779
  endloop
 endfacet
 facet normal 8.82333e-007 0.927472 0.373893
  outer loop
   vertex 99.3519 536.753 -1183.11
   vertex -66.6455 541.572 -1195.07
   vertex 250.145 479.861 -1041.99
  endloop
 endfacet
 facet normal 3.50609e-006 0.927473 0.373891
  outer loop
   vertex 250.145 479.861 -1041.99
   vertex 207.544 501.637 -1096.01
   vertex 99.3519 536.753 -1183.11
  endloop
 endfacet
 facet normal 4.47507e-007 -0.927471 0.373895
  outer loop
   vertex 250.145 -479.861 -1041.99
   vertex 281.196 -458.5 -989.001
   vertex -279.752 -458.5 -989
  endloop
 endfacet
 facet normal 3.82384e-007 -0.927471 0.373894
  outer loop
   vertex -279.752 -458.5 -989
   vertex 207.544 -501.637 -1096.01
   vertex 250.145 -479.861 -1041.99
  endloop
 endfacet
 facet normal 4.47506e-007 0.927471 0.373894
  outer loop
   vertex -201.63 502.015 -1096.94
   vertex -279.752 458.5 -989
   vertex 281.196 458.5 -989.001
  endloop
 endfacet
 facet normal 7.91205e-007 0.927472 0.373893
  outer loop
   vertex 281.196 458.5 -989.001
   vertex -126.664 528.344 -1162.25
   vertex -201.63 502.015 -1096.94
  endloop
 endfacet
 facet normal -0.978024 0 0.208494
  outer loop
   vertex -251.096 378.5 -769
   vertex -293.796 451.336 -969.3
   vertex -293.796 -451.336 -969.3
  endloop
 endfacet
 facet normal -0.978024 0 0.208494
  outer loop
   vertex -293.796 -451.336 -969.3
   vertex -251.096 -378.5 -769
   vertex -251.096 378.5 -769
  endloop
 endfacet
 facet normal 0.978024 -0 0.208491
  outer loop
   vertex 251.094 -378.5 -769
   vertex 293.469 -450.783 -967.779
   vertex 293.469 450.783 -967.779
  endloop
 endfacet
 facet normal 0.978024 0 0.208491
  outer loop
   vertex 293.469 450.783 -967.779
   vertex 251.094 378.5 -769
   vertex 251.094 -378.5 -769
  endloop
 endfacet
 facet normal 3.6535e-007 0.939794 0.341743
  outer loop
   vertex 251.094 378.5 -769
   vertex 293.469 450.783 -967.779
   vertex -293.796 451.336 -969.3
  endloop
 endfacet
 facet normal 4.56882e-007 0.939794 0.341742
  outer loop
   vertex -293.796 451.336 -969.3
   vertex -251.096 378.5 -769
   vertex 251.094 378.5 -769
  endloop
 endfacet
 facet normal -0.830096 0.228415 -0.508691
  outer loop
   vertex -293.796 451.336 -969.3
   vertex -279.752 458.5 -989
   vertex -183.069 351.185 -1194.96
  endloop
 endfacet
 facet normal -0.830097 0.228414 -0.508691
  outer loop
   vertex -183.069 351.185 -1194.96
   vertex -300.97 351.185 -1002.56
   vertex -293.796 451.336 -969.3
  endloop
 endfacet
 facet normal 3.65574e-007 -0.939794 0.341743
  outer loop
   vertex -251.096 -378.5 -769
   vertex -293.796 -451.336 -969.3
   vertex 293.469 -450.783 -967.779
  endloop
 endfacet
 facet normal 3.99772e-007 -0.939794 0.341743
  outer loop
   vertex 293.469 -450.783 -967.779
   vertex 251.094 -378.5 -769
   vertex -251.096 -378.5 -769
  endloop
 endfacet
 facet normal 0.878588 -0.170767 -0.446007
  outer loop
   vertex 303.791 -273.21 -1015.43
   vertex 297.993 -372.082 -989.001
   vertex 250.145 -479.861 -1041.99
  endloop
 endfacet
 facet normal 0.878588 -0.170767 -0.446006
  outer loop
   vertex 250.145 -479.861 -1041.99
   vertex 215.207 -412.839 -1136.47
   vertex 303.791 -273.21 -1015.43
  endloop
 endfacet
 facet normal 3.63045e-007 0.939793 0.341743
  outer loop
   vertex -279.752 458.5 -989
   vertex -293.796 451.336 -969.3
   vertex 293.469 450.783 -967.779
  endloop
 endfacet
 facet normal 4.09024e-007 0.939794 0.341742
  outer loop
   vertex 293.469 450.783 -967.779
   vertex 281.196 458.5 -989.001
   vertex -279.752 458.5 -989
  endloop
 endfacet
 facet normal 8.33765e-007 -0.927471 0.373895
  outer loop
   vertex -279.752 -458.5 -989
   vertex -201.63 -502.015 -1096.94
   vertex 99.3517 -536.753 -1183.11
  endloop
 endfacet
 facet normal 3.43616e-007 -0.927471 0.373894
  outer loop
   vertex 99.3517 -536.753 -1183.11
   vertex 207.544 -501.637 -1096.01
   vertex -279.752 -458.5 -989
  endloop
 endfacet
 facet normal 3.66197e-007 -0.939794 0.341742
  outer loop
   vertex 281.196 -458.5 -989.001
   vertex 293.469 -450.783 -967.779
   vertex -293.796 -451.336 -969.3
  endloop
 endfacet
 facet normal 4.09025e-007 -0.939793 0.341743
  outer loop
   vertex -293.796 -451.336 -969.3
   vertex -279.752 -458.5 -989
   vertex 281.196 -458.5 -989.001
  endloop
 endfacet
 facet normal 0.976774 -0 0.214272
  outer loop
   vertex 297.993 372.082 -989.001
   vertex 297.993 -372.082 -989.001
   vertex 303.791 -273.21 -1015.43
  endloop
 endfacet
 facet normal 0.976774 -2.01452e-008 0.214272
  outer loop
   vertex 303.791 -273.21 -1015.43
   vertex 307.317 -155.449 -1031.51
   vertex 297.993 372.082 -989.001
  endloop
 endfacet
 facet normal -0.976774 0 0.214274
  outer loop
   vertex -300.97 -351.185 -1002.56
   vertex -297.995 -392.201 -989
   vertex -297.995 392.201 -989
  endloop
 endfacet
 facet normal -0.976773 -3.78957e-008 0.214276
  outer loop
   vertex -297.995 392.201 -989
   vertex -304.902 -239.985 -1020.49
   vertex -300.97 -351.185 -1002.56
  endloop
 endfacet
 facet normal 0.976774 -0 0.214272
  outer loop
   vertex 297.993 372.082 -989.001
   vertex 307.317 -155.449 -1031.51
   vertex 307.317 155.449 -1031.51
  endloop
 endfacet
 facet normal 0.976774 1.78292e-007 0.214271
  outer loop
   vertex 307.317 155.449 -1031.51
   vertex 303.791 273.21 -1015.43
   vertex 297.993 372.082 -989.001
  endloop
 endfacet
 facet normal -5.97482e-007 0.927471 0.373896
  outer loop
   vertex -66.6455 541.572 -1195.07
   vertex -126.664 528.344 -1162.25
   vertex 281.196 458.5 -989.001
  endloop
 endfacet
 facet normal -4.31688e-007 0.927471 0.373895
  outer loop
   vertex 281.196 458.5 -989.001
   vertex 250.145 479.861 -1041.99
   vertex -66.6455 541.572 -1195.07
  endloop
 endfacet
 facet normal -0.978024 0 0.208493
  outer loop
   vertex -293.796 -451.336 -969.3
   vertex -293.796 451.336 -969.3
   vertex -297.995 392.201 -989
  endloop
 endfacet
 facet normal -0.978024 0 0.208493
  outer loop
   vertex -297.995 392.201 -989
   vertex -297.995 -392.201 -989
   vertex -293.796 -451.336 -969.3
  endloop
 endfacet
 facet normal 0.978024 -0 0.20849
  outer loop
   vertex 293.469 450.783 -967.779
   vertex 293.469 -450.783 -967.779
   vertex 297.993 -372.082 -989.001
  endloop
 endfacet
 facet normal 0.978024 0 0.20849
  outer loop
   vertex 297.993 -372.082 -989.001
   vertex 297.993 372.082 -989.001
   vertex 293.469 450.783 -967.779
  endloop
 endfacet
endsolid
