/* XPM */
static char * QmitkSliderDialogBar_xpm[] = {
"22 22 5 1",
" 	c None",
".	c #02C01D",
"+	c #000000",
"@	c #FFFFFF",
"#	c #D80503",
"                      ",
"                      ",
"          ..          ",
"          ..     +    ",
"          ..    +++   ",
"          ..   ++@++  ",
"          ..   +@@@+  ",
"          ..   ++@++  ",
"          ..    +@+   ",
"  ########  ####+@+#  ",
"  ########  ####+@+#  ",
"          ..    +@+   ",
"          ..   ++@++  ",
"          ..   +@@@+  ",
"          ..   ++@++  ",
"      +++ .. ++++++   ",
"     ++@++++++@+++    ",
"    ++@@@@@@@@@@++    ",
"     ++@++++++@++     ",
"      +++ .. +++      ",
"                      ",
"                      "};
