/* XPM */
static char *DeformableRegistration___[] = {
/* columns rows colors chars-per-pixel */
"48 48 181 2",
"   c #735C62",
".  c #57666F",
"X  c #577076",
"o  c #587177",
"O  c #56747A",
"+  c #5E747B",
"@  c #7E646A",
"#  c #63767E",
"$  c #76757B",
"%  c #994F60",
"&  c #865A6D",
"*  c #965061",
"=  c #9A5063",
"-  c #A04B60",
";  c #A75166",
":  c #A75468",
">  c #A9576B",
",  c #A35C6D",
"<  c #AA5B6F",
"1  c #A95E70",
"2  c #83656C",
"3  c #86686F",
"4  c #856970",
"5  c #85767C",
"6  c #8C7A7F",
"7  c #97757D",
"8  c #9C757F",
"9  c #AE6375",
"0  c #B06577",
"q  c #B56B7D",
"w  c #4F7781",
"e  c #4A7D89",
"r  c #5E7C83",
"t  c #647B83",
"y  c #6C7E86",
"u  c #647188",
"i  c #747D83",
"p  c #737E89",
"a  c #957A81",
"s  c #997A82",
"d  c #3C8FA2",
"f  c #3495AD",
"g  c #3D9CB4",
"h  c #35A1BA",
"j  c #438291",
"k  c #428999",
"l  c #5C8691",
"z  c #508C9F",
"x  c #5D899D",
"c  c #608087",
"v  c #6E828A",
"b  c #72848C",
"n  c #72898F",
"m  c #6F8F97",
"M  c #6C8F98",
"N  c #748791",
"B  c #798690",
"V  c #768B92",
"C  c #7B8C94",
"Z  c #7C8E98",
"A  c #67909A",
"S  c #6E9199",
"D  c #73939B",
"F  c #7C949B",
"G  c #7E999F",
"H  c #448FA1",
"J  c #4D90A3",
"K  c #4496AC",
"L  c #469AAF",
"P  c #4C9AAD",
"I  c #5693A2",
"U  c #5C93A4",
"Y  c #5997A9",
"T  c #539AAB",
"R  c #5B9DAE",
"E  c #449DB3",
"W  c #4F9EB1",
"Q  c #549FB2",
"!  c #5B9FB1",
"~  c #6296A5",
"^  c #6E97A6",
"/  c #6798A6",
"(  c #6D9BA6",
")  c #649CAB",
"_  c #6A9DA9",
"`  c #7096A2",
"'  c #7A96A1",
"]  c #759AA3",
"[  c #7C9CA4",
"{  c #729DA8",
"}  c #41A0B7",
"|  c #4EA1B6",
" . c #47A3B9",
".. c #4DA5BB",
"X. c #57A0B3",
"o. c #5CA5B6",
"O. c #5EA9BB",
"+. c #7DA1A9",
"@. c #62A4B4",
"#. c #6BA1B0",
"$. c #65ABBC",
"%. c #69ACBD",
"&. c #74ADBB",
"*. c #7CAEBB",
"=. c #3AAAC4",
"-. c #50ACC4",
";. c #56B9D1",
":. c #63B1C4",
">. c #6CB2C2",
",. c #79B2C0",
"<. c #71B9CA",
"1. c #7AB9C8",
"2. c #8D858D",
"3. c #9D858B",
"4. c #9F888D",
"5. c #838591",
"6. c #868890",
"7. c #858E98",
"8. c #948B92",
"9. c #9B8B91",
"0. c #82959D",
"q. c #8A949F",
"w. c #81989F",
"e. c #A1838A",
"r. c #A2888E",
"t. c #A58C92",
"y. c #AB8F96",
"u. c #B0999E",
"i. c #829CA2",
"p. c #8A9EA6",
"a. c #A49EA3",
"s. c #AB9EA4",
"d. c #B59EA4",
"f. c #89A0A7",
"g. c #84A4AB",
"h. c #8CA4AA",
"j. c #91A6AE",
"k. c #91A8AF",
"l. c #82A7B0",
"z. c #85A9B2",
"x. c #8DABB2",
"c. c #8AAFB8",
"v. c #93ACB3",
"b. c #83B0BC",
"n. c #8DB0B8",
"m. c #96B1B7",
"M. c #98B0B6",
"N. c #95B2B8",
"B. c #98B2B8",
"V. c #9DB8BF",
"C. c #BAA0A6",
"Z. c #BCA4AA",
"A. c #A3B6BF",
"S. c #A0B9BF",
"D. c #C2ABB0",
"F. c #CAB3B9",
"G. c #84B8C6",
"H. c #82BECC",
"J. c #94BBC4",
"K. c #9CBAC2",
"L. c #94BFCA",
"P. c #A3BDC3",
"I. c #A8BAC2",
"U. c #88C0CE",
"Y. c #93C2CE",
"T. c #9CC4CD",
"R. c #8CC3D1",
"E. c #A6C0C7",
"W. c #A3C3CA",
"Q. c #AEC7CD",
"!. c #AEC9D0",
"~. c #B4CCD2",
"^. c #A6D1DB",
"/. c #B9D3D9",
"(. c #BFD8DF",
"). c #BEE0E7",
"_. c #E0C9CF",
"`. c #C1DBE1",
"'. c #C7E0E6",
"]. c #CEE7ED",
"[. c None",
/* pixels */
"< 9 9 9 9 9 9 9 : % % % % % * % % > 1 1 1 1 1 1 1 ; , , , , : , , ; [.[.[.[.[.[.[.[.[.[.[.[.[.[.",
"0 F.F.F.F.F.F.F.s               @ 3.d.d.d.d.d.d.d.s 3.3.e.r.3.3.4., [.[.[.[.[.[.[.[.[.[.[.[.[.[.",
"0 F.F.F.F.F.F.F.s @             @ 3.d.d.d.d.d.d.d.s 3.3.4.4.4.4.4., [.[.[.[.[.[.[.[.[.[.[.[.[.[.",
"0 F.F.F.F.F.F.F.s               @ e.d.d.d.d.d.d.d.s 3.r.4.4.4.4.3.9 [.[.[.[.[.[.[.[.[.[.[.[.[.[.",
"0 F.F.F.F.F.F.F.s               @ s d.d.d.d.d.d.d.s 3.4.4.4.4.4.4., [.[.[.[.[.[.[.[.[.[.[.[.[.[.",
"0 F.F.F.F.F.F.F.s               2 r.d.d.d.d.d.d.d.s 3.3.4.4.4.4.3., [.[.[.[.[.[.[.[.[.[.[.[.[.[.",
"0 F.F.F.F.F.F.F.s               @ 3.d.d.d.d.d.d.d.s 3.t.4.4.4.4.4.9 [.[.[.[.[.[.[.[.[.[.[.[.[.[.",
"0 F.F.F.F.F.F.F.a               @ e.d.d.d.d.d.d.d.s 3.4.4.4.4.4.4., [.[.[.[.[.[.[.[.[.[.[.[.[.[.",
"< y.y.y.y.y.y.y.7 2 2 2 2 2 2 2 3 8 e.e.r.e.e.e.3.7 a a a 5.` ~ I U I T T P T P [.[.[.[.[.[.[.[.",
"9 C.C.C.C.C.C.C.s r.r.r.r.r.r.r.3.3 @ @ @ @ @ @ @ a [ @.$.&.b.v.0.F i.i.i.w.i.[ _ Y P L [.[.[.[.",
"q _._._._._._._.3.u.d.d.d.d.d.d.r.2           $ Y $.b.B.B.B.B.B.f.C i.i.f.f.G [ i.i.i.[ E [.[.[.",
"q _._._._._._._.e.u.d.d.d.d.d.d.t.2       i R %.N.N.N.B.B.B.B.B.m.6.G i.w.w.f.G i.i.i.i.L [.[.[.",
"q _._._._._._._.e.u.d.d.d.d.d.d.t.2   $ z Y N.B.B.B.B.B.B.B.M.N.B.q.S i.i.i.+.G i.i.f.[ W [.[.[.",
"q _._._._._._._.s u.d.d.d.d.d.d.t.2 v T F y f.N.B.B.B.B.B.B.B.B.B.h.S i.i.i.w.f.i.i.i.w.T [.[.[.",
"q _._._._._._._.e.u.d.d.d.d.d.d.t.~ R i.i.F b v.M.N.N.B.B.B.B.B.B.B.D D i.i.G G i.G i.i._ I [.[.",
"q _._._._._._._.e.u.d.d.d.d.d.s.R { i.i.i.i.C V B.B.M.M.B.B.B.B.B.B.h.S i.i.f.i.i.f.i.i.f.P [.[.",
"q _._._._._._._.3.u.C.C.d.d.a.X.[ i.i.i.i.i.i.b w.B.B.B.B.B.j.h.f.p.+.A S G G f.G f.G f.w.P [.[.",
"> r.e.r.e.r.e.r.8 7 7 6 8 2.X.[ i.i.i.i.i.i.i.G C h.M.h.0.F F 0.w.7.G [ D +.D M S D G G [ T [.[.",
"9 D.D.D.D.D.D.D.s 3.3.3.8.X.i.i.i.i.i.i.i.i.i.i.p.C F 0.i.i.i.i.i.i.[ G +.Q.Q.S.m.g.D S F R [.[.",
"0 F.F.F.F.F.F.F.s 3.4.4.X.[ i.i.i.i.i.i.i.i.i.p.p.F i.i.i.i.i.i.G f.w.f.] E.Q.Q.Q.Q.Q.N.+.Y I [.",
"0 F.F.F.F.F.F.F.s 3.4.! [ i.i.i.i.i.i.i.i.p.p.f.v.h.0.i.i.i.i.i.f.G i.i.[ v.Q.Q.Q.Q.!.Q.Q.V.| [.",
"0 F.F.F.F.F.F.F.s 3./ ( w.i.i.i.i.i.i.i.p.f.v.B.B.B.0.w.i.i.i.i.i.i.i.i.[ z.Q.Q.Q.Q.Q.Q.Q.Q.O.[.",
"0 F.F.F.F.F.F.F.s G H.h.0.w.w.i.i.i.i.f.h.M.N.B.B.B.h.0.i.i.i.i.i.i.i.i.w.[ Q.Q.Q.Q.Q.Q.Q.Q.$.[.",
"0 F.F.F.F.F.F.F.2.>.Q.Q.S.0.0.w.i.i.h.h.B.M.B.B.B.B.B.0.i.i.i.i.i.i.i.i.i.] V.Q.Q.Q.Q.Q.Q.Q.$.[.",
"0 F.F.F.F.F.F.F.o.Q.Q.Q.Q.Q.f.q.w.0.k.N.B.B.B.B.B.B.N.h.0.i.i.i.i.i.i.i.i.[ x.Q.Q.Q.Q.Q.Q.Q.>.[.",
"1 D.Z.Z.Z.Z.Z.p.U.Q.Q.Q.Q.Q.Q.f.B w.B.M.M.B.B.B.B.B.M.M.0.i.i.i.i.0.i.i.i.i.+.Q.Q.Q.Q.Q.Q.Q.1.[.",
"- 2 2 2 2 3 5 :.Q.Q.~.Q.Q.Q.E.w.S.V f.M.N.B.N.N.M.B.B.M.0.0.0.F w.q.z.g.[ [ _ g.m.E.Q.Q.Q.Q.U.[.",
"-           ) T.Q.Q.Q.Q.Q.Q.f.~.].P.# h.B.B.M.M.B.v.p.p.i.i.v.Q.Q.Q.Q.Q.Q.Q.] m S S +.B.Q.Q.Y.) ",
"%         i <.Q.Q.Q.Q.Q.Q.j.A.].].].k.# v.M.N.m.C b w.w.i.0.v.Q.Q.Q.Q.Q.Q.Q.g.F i.i.F S g.P.T.o.",
"%         ) Q.Q.Q.Q.Q.Q.M.B.].].].].].p.v M.k.v t i.i.i.i.w.p.Q.Q.Q.Q.Q.Q.Q.z.m i.i.i.i.D S g.o.",
"%       y H.Q.Q.Q.Q.Q.I.j.].].].].].].].V v # V i.i.i.i.i.i.p.P.Q.Q.Q.Q.Q.Q.x.D i.i.i.i.i.G m E ",
"%       ! Q.Q.Q.Q.Q.Q.h.~.].].].].].].].k.. V i.i.i.i.i.i.i.0.k.Q.~.Q.Q.Q.Q.V.S i.i.i.i.i.i.i.P ",
"%     r L.Q.Q.Q.Q.Q.M.A.].].].].].].].v.v h.t i.i.i.i.i.i.i.G h.Q.Q.Q.Q.Q.Q.E.D i.i.i.i.i.i.i.P ",
"%     J ! #.n.Q.Q.E.j.'.].].].].].].k.v E.Q.v V i.i.i.i.G f.i.w.E.Q.Q.Q.Q.Q.Q.D i.i.i.i.i.i.i.P ",
"% * * * = & u x ) ^ I.].].].].].].A.C Q.Q.Q.S.i i.i.i.i.f.G i.C h.V.B.B.E.Q.Q.+.w.f.G [ i.i.i.P ",
"[.[.[.[.[.[.[.[.[.[.-.^.].].].].(.+.E.Q.Q.Q.Q.g.D i.i.i.w.D S D ] z.n.n.z.] +.D G w.f.G i.[ f.P ",
"[.[.[.[.[.[.[.[.[.[.[.[.;.).].].h.V.Q.Q.Q.Q.Q.E.m i.w.D D z.m.S.g.].].].].`.Q.l.D S G i.i.i.i.P ",
"[.[.[.[.[.[.[.[.[.[.[.[.[.=.R.B.g.Q.Q.Q.Q.Q.Q.Q.z.V S z.E.Q.Q.Q.+.].].].].].].J.N.x.D m G i.i.P ",
"[.[.[.[.[.[.[.[.[.[.[.[.[.[.[.! Q.Q.Q.Q.Q.Q.Q.Q.g.M V.Q.Q.Q.~.Q.g.`.].].].].].V.N.Q.Q.x.D G i.P ",
"[.[.[.[.[.[.[.[.[.[.[.[.[.[.[.[.@.Q.Q.Q.Q.Q.W.[ r c M.Q.Q.Q.Q.Q.g.Q.].].].].].V.m.Q.Q.Q.V.D D P ",
"[.[.[.[.[.[.[.[.[.[.[.[.[.[.[.[.[.$.Q.Q.Q.E.D r X + +.Q.Q.Q.Q.Q.x.K.].].].].].K.B.Q.Q.Q.Q.E.[ K ",
"[.[.[.[.[.[.[.[.[.[.[.[.[.[.[.[.[.[.$.Q.Q.[ + X X X m Q.Q.Q.Q.Q.V.x.].].].].].W.B.Q.Q.Q.Q.Q.V.h ",
"[.[.[.[.[.[.[.[.[.[.[.[.[.[.[.[.[.[.[.&.g.r o X X X r x.Q.~.Q.Q.Q.+.].].].].].Q.V.Q.Q.Q.Q.!...[.",
"[.[.[.[.[.[.[.[.[.[.[.[.[.[.[.[.[.[.[.h l X X X w j k W %.G.W.Q.J.R 1.T./.].].Q.S.Q.Q.Q.Q.,.[.[.",
"[.[.[.[.[.[.[.[.[.[.[.[.[.[.[.[.[.[.[.[.f O e d H [.[.[.[.[.E E [.[.[.[.[...:.*.P.Q.Q.Q.Q. .[.[.",
"[.[.[.[.[.[.[.[.[.[.[.[.[.[.[.[.[.[.[.[.[.f [.[.[.[.[.[.[.[.[.[.[.[.[.[.[.[.[.[.| T.Q.Q.O.[.[.[.",
"[.[.[.[.[.[.[.[.[.[.[.[.[.[.[.[.[.[.[.[.[.[.[.[.[.[.[.[.[.[.[.[.[.[.[.[.[.[.[.[.[.} %.J. .[.[.[.",
"[.[.[.[.[.[.[.[.[.[.[.[.[.[.[.[.[.[.[.[.[.[.[.[.[.[.[.[.[.[.[.[.[.[.[.[.[.[.[.[.[.[.[.} [.[.[.[."
};
