/* XPM */
static char * btn_ctrl_xpm[] = {
"32 16 41 1",
" 	c None",
".	c #666666",
"+	c #7F7F7F",
"@	c #999999",
"#	c #FFFFFF",
"$	c #E5E5E5",
"%	c #CCCCCC",
"&	c #CBCBCB",
"*	c #B2B2B2",
"=	c #919191",
"-	c #949494",
";	c #989898",
">	c #9C9C9C",
",	c #9F9F9F",
"'	c #A3A3A3",
")	c #A7A7A7",
"!	c #AAAAAA",
"~	c #AEAEAE",
"{	c #B5B5B5",
"]	c #B9B9B9",
"^	c #BDBDBD",
"/	c #C0C0C0",
"(	c #C4C4C4",
"_	c #C8C8C8",
":	c #CFCFCF",
"<	c #D3D3D3",
"[	c #D6D6D6",
"}	c #8D8D8D",
"|	c #000000",
"1	c #DADADA",
"2	c #DEDEDE",
"3	c #E1E1E1",
"4	c #E9E9E9",
"5	c #ECECEC",
"6	c #F0F0F0",
"7	c #F4F4F4",
"8	c #F7F7F7",
"9	c #FBFBFB",
"0	c #FEFEFE",
"a	c #4C4C4C",
"b	c #333333",
"  .+@@@@@@@@@++++++++.....      ",
" +##$$$$$%%%%%%%%%%%%%%%%&+.    ",
".#%**@@=-;>,')!~*{]^/(_&:<[%+.  ",
"+#*@}|||>,|||~*|||/(_|:<[12%%*+ ",
"@$@=|;>,|)!|*{]|/(|&:|[123$%***.",
"@$-;|,')!~*|]^/|_&|<[|23$45%@@@+",
"+*>,|)!~*{]|/(_|||[12|$4567$@@@+",
"+*')|~*{|^/|_&:|[1|3$|56789$@+@+",
".*!~*|||/(_|:<[|23|45|||90#$++@+",
".~*{]^/(_&:<[123$4567890##$%++++",
" +]^/(_&:<[123$4567890###$%+++++",
" .*****%%%%%%%%%%%$$$$$$$%@@@+++",
"  +%****@@@@@@@@@@+++++++++@*@+.",
"  .%***@@@@@@@@++++++.....++@*@a",
"   +%***@@@@@@@@+++++++....++@a ",
"    a.++++++++++++.......aaabb  "};
