/* XPM */
static char * remove_xpm[] = {
"32 32 400 2",
"  	c None",
". 	c #8D8E89",
"+ 	c #888A85",
"@ 	c #8B8D88",
"# 	c #8D8F8A",
"$ 	c #F3F3F3",
"% 	c #F7F7F7",
"& 	c #F6F6F6",
"* 	c #F5F5F5",
"= 	c #F2F2F2",
"- 	c #E6E6E6",
"; 	c #E5E5E5",
"> 	c #E4E4E4",
", 	c #E3E3E3",
"' 	c #E2E2E2",
") 	c #E1E1E1",
"! 	c #F4F4F4",
"~ 	c #204B88",
"{ 	c #234D8A",
"] 	c #868A88",
"^ 	c #F1F1F1",
"/ 	c #CACACA",
"( 	c #C3C3C3",
"_ 	c #C2C2C2",
": 	c #C1C1C1",
"< 	c #C8C8C8",
"[ 	c #E0E0E0",
"} 	c #244E8C",
"| 	c #224C89",
"1 	c #5485C5",
"2 	c #598BCB",
"3 	c #7D8181",
"4 	c #DDDDDD",
"5 	c #CECECE",
"6 	c #CDCDCD",
"7 	c #CCCCCC",
"8 	c #CBCBCB",
"9 	c #DEDEDE",
"0 	c #7D7F7A",
"a 	c #4C7DBC",
"b 	c #214C89",
"c 	c #3965A2",
"d 	c #6090CD",
"e 	c #727676",
"f 	c #C9C9C9",
"g 	c #BABABA",
"h 	c #A6A6A6",
"i 	c #9F9F9F",
"j 	c #9E9E9E",
"k 	c #A4A4A4",
"l 	c #B8B8B8",
"m 	c #B7B7B7",
"n 	c #B6B6B6",
"o 	c #727470",
"p 	c #325F9C",
"q 	c #5B86C1",
"r 	c #406492",
"s 	c #646763",
"t 	c #6B6D69",
"u 	c #6A6B67",
"v 	c #6D6E6A",
"w 	c #395983",
"x 	c #224C8A",
"y 	c #28528E",
"z 	c #769FD4",
"A 	c #5A8BCB",
"B 	c #3B5D88",
"C 	c #243953",
"D 	c #243954",
"E 	c #263B56",
"F 	c #263B57",
"G 	c #273D59",
"H 	c #273E5A",
"I 	c #283E5B",
"J 	c #283F5D",
"K 	c #29405E",
"L 	c #29415F",
"M 	c #2A4261",
"N 	c #2B4362",
"O 	c #2B4463",
"P 	c #2C4565",
"Q 	c #2D4666",
"R 	c #2D4768",
"S 	c #2E4869",
"T 	c #2E496A",
"U 	c #2F4A6C",
"V 	c #304B6D",
"W 	c #3C5074",
"X 	c #5C85C2",
"Y 	c #5E8ECC",
"Z 	c #2B5793",
"` 	c #5179B1",
" .	c #739DD3",
"..	c #5F81BC",
"+.	c #89425D",
"@.	c #AB1213",
"#.	c #AB1314",
"$.	c #884B67",
"%.	c #5477AE",
"&.	c #7499C8",
"*.	c #6794CE",
"=.	c #588ACA",
"-.	c #667AB0",
";.	c #BE4E52",
">.	c #E18080",
",.	c #E17E7E",
"'.	c #B84C52",
").	c #758BBC",
"!.	c #234D89",
"~.	c #224D8A",
"{.	c #7A9AC5",
"].	c #5581BA",
"^.	c #4978B5",
"/.	c #4878B5",
"(.	c #4976B2",
"_.	c #704D72",
":.	c #6B5178",
"<.	c #4877B3",
"[.	c #668DC1",
"}.	c #2F5892",
"|.	c #214B88",
"1.	c #587BAB",
"2.	c #809DC2",
"3.	c #819EC3",
"4.	c #809DC3",
"5.	c #7F9DC2",
"6.	c #7E9BC1",
"7.	c #7C9AC1",
"8.	c #7C9AC0",
"9.	c #7A98C0",
"0.	c #7998BF",
"a.	c #7897BE",
"b.	c #7796BE",
"c.	c #7595BD",
"d.	c #7494BD",
"e.	c #7393BC",
"f.	c #7192BB",
"g.	c #7191BB",
"h.	c #7091BB",
"i.	c #6E8FBA",
"j.	c #6D8FBA",
"k.	c #6C8EB9",
"l.	c #6A8CB7",
"m.	c #29518C",
"n.	c #204A85",
"o.	c #204A87",
"p.	c #204986",
"q.	c #898A89",
"r.	c #B8B9B6",
"s.	c #8B8D89",
"t.	c #838581",
"u.	c #C6C6C5",
"v.	c #BDBEBD",
"w.	c #B3B4B3",
"x.	c #B0B0AF",
"y.	c #A9AAA8",
"z.	c #B0B1B0",
"A.	c #C4C5C4",
"B.	c #B1B2B1",
"C.	c #ADADAC",
"D.	c #B6B7B5",
"E.	c #ABACAA",
"F.	c #B5B5B4",
"G.	c #787A76",
"H.	c #9D9E9B",
"I.	c #BFC0BD",
"J.	c #C3C4C3",
"K.	c #7D7F7C",
"L.	c #888985",
"M.	c #848581",
"N.	c #C0C1C0",
"O.	c #BBBBBB",
"P.	c #BCBDBC",
"Q.	c #B4B5B4",
"R.	c #BFC0BF",
"S.	c #BFBFBE",
"T.	c #A4A4A3",
"U.	c #B2B3B2",
"V.	c #C8C8C7",
"W.	c #C6C6C6",
"X.	c #B1B1B0",
"Y.	c #B4B5B3",
"Z.	c #B9B9B8",
"`.	c #7C7D7A",
" +	c #A9AAA6",
".+	c #C8C8C6",
"++	c #C0C1BE",
"@+	c #727371",
"#+	c #BEBFBC",
"$+	c #8E908A",
"%+	c #898B86",
"&+	c #BDBDBC",
"*+	c #BEBFBE",
"=+	c #B6B7B6",
"-+	c #BEBEBD",
";+	c #D2D2D2",
">+	c #A6A7A5",
",+	c #C7C8C7",
"'+	c #C9C9C8",
")+	c #B2B3B1",
"!+	c #C1C2C1",
"~+	c #CFCFCF",
"{+	c #B8B9B8",
"]+	c #BABAB9",
"^+	c #B8B9B5",
"/+	c #D2D3D0",
"(+	c #BCBDBA",
"_+	c #686A66",
":+	c #C4C5C2",
"<+	c #92948F",
"[+	c #CBCCCB",
"}+	c #C4C4C3",
"|+	c #BDBEBC",
"1+	c #C3C3C2",
"2+	c #D3D3D3",
"3+	c #AFB0AE",
"4+	c #CDCDCC",
"5+	c #D1D1D1",
"6+	c #BBBCBA",
"7+	c #B7B7B6",
"8+	c #C5C6C5",
"9+	c #D6D6D6",
"0+	c #8F918C",
"a+	c #BFC0BC",
"b+	c #D8D9D6",
"c+	c #B5B7B3",
"d+	c #C8C9C7",
"e+	c #999A93",
"f+	c #92938E",
"g+	c #D9D9D9",
"h+	c #C9CAC9",
"i+	c #C7C7C6",
"j+	c #BFC0BE",
"k+	c #DBDBDB",
"l+	c #BEBFBD",
"m+	c #C2C2C1",
"n+	c #D0D0CF",
"o+	c #DFDFDF",
"p+	c #C1C2C0",
"q+	c #C3C4C2",
"r+	c #CACAC9",
"s+	c #B6B6B5",
"t+	c #989994",
"u+	c #C8C8C4",
"v+	c #DEDEDC",
"w+	c #ABADA9",
"x+	c #CCCDCA",
"y+	c #9EA09C",
"z+	c #929490",
"A+	c #EAEAEA",
"B+	c #D8D8D7",
"C+	c #D2D2D1",
"D+	c #A0A09D",
"E+	c #CFCFCE",
"F+	c #CBCBCA",
"G+	c #D6D6D5",
"H+	c #E0E0DF",
"I+	c #D1D2D1",
"J+	c #B2B3B0",
"K+	c #9EA09B",
"L+	c #CCCDC9",
"M+	c #E2E3E0",
"N+	c #A1A29E",
"O+	c #CACBC8",
"P+	c #A7A9A3",
"Q+	c #AEAEAC",
"R+	c #A3A4A1",
"S+	c #E7E7E6",
"T+	c #E3E4E3",
"U+	c #E8E8E8",
"V+	c #DEDEDD",
"W+	c #D5D5D4",
"X+	c #DDDEDD",
"Y+	c #DADAD9",
"Z+	c #D3D4D2",
"`+	c #DCDCDC",
" @	c #D4D5D4",
".@	c #AAABA8",
"+@	c #E4E4E3",
"@@	c #A0A29E",
"#@	c #D1D2CE",
"$@	c #E7E7E5",
"%@	c #90928F",
"&@	c #CACAC8",
"*@	c #A9ABA7",
"=@	c #DCDDDC",
"-@	c #F8F8F8",
";@	c #959792",
">@	c #EDEDEC",
",@	c #EFEFEE",
"'@	c #D3D3D2",
")@	c #AFB1AB",
"!@	c #C4C4C2",
"~@	c #E9E9E9",
"{@	c #D9D9D8",
"]@	c #E7E7E7",
"^@	c #D1D2D0",
"/@	c #D7D8D7",
"(@	c #EBEBEA",
"_@	c #F0F0F0",
":@	c #9A9B96",
"<@	c #EEEEED",
"[@	c #D4D5D1",
"}@	c #EBEBE9",
"|@	c #838480",
"1@	c #C6C7C4",
"2@	c #BABCB6",
"3@	c #A2A4A0",
"4@	c #989995",
"5@	c #E1E2E1",
"6@	c #D2D3D1",
"7@	c #AEAFAC",
"8@	c #B5B7B1",
"9@	c #A0A29D",
"0@	c #BABBB8",
"a@	c #AEB0AC",
"b@	c #E2E3E2",
"c@	c #9D9E99",
"d@	c #A2A39F",
"e@	c #B5B6B2",
"f@	c #D7D8D3",
"g@	c #767774",
"h@	c #C1C2BE",
"i@	c #BDBFBC",
"j@	c #A3A5A0",
"k@	c #9FA19C",
"l@	c #AEB0AA",
"m@	c #9FA09B",
"n@	c #969794",
"o@	c #BBBDB7",
"p@	c #B3B5AF",
"q@	c #999A96",
"r@	c #9B9D98",
"s@	c #A2A39E",
"t@	c #ABADA7",
"u@	c #979995",
"v@	c #9A9C97",
"w@	c #A6A7A2",
"x@	c #B2B4AE",
"y@	c #C8C9C3",
"z@	c #EBECEA",
"A@	c #BBBCB9",
"B@	c #C1C3BE",
"C@	c #B9BBB5",
"D@	c #CBCDC7",
"E@	c #D7D8D4",
"F@	c #C4C5C0",
"G@	c #CDCEC8",
"H@	c #D9DAD6",
"I@	c #E8E8E6",
"J@	c #AAADA9",
"K@	c #C7C8C4",
"L@	c #B4B6B0",
"M@	c #C6C8C2",
"N@	c #DADAD6",
"O@	c #E3E4E1",
"P@	c #C5C5C3",
"Q@	c #B2B4AF",
"R@	c #ADAFAB",
"S@	c #AEAFAB",
"T@	c #B0B1AC",
"U@	c #B0B2AC",
"V@	c #AFB1AD",
"W@	c #B0B1AE",
"X@	c #B0B2AE",
"Y@	c #B1B2AD",
"Z@	c #B1B3AF",
"`@	c #B2B3AE",
" #	c #B2B3AF",
".#	c #B3B4B1",
"+#	c #B4B5B1",
"@#	c #B4B5B0",
"##	c #B5B6B1",
"$#	c #B4B5B2",
"%#	c #BEC0BC",
"&#	c #D3D4D1",
"*#	c #D8D9D5",
"=#	c #6B6D6B",
"-#	c #C7C8C5",
";#	c #C7C7C5",
">#	c #C7C7C4",
",#	c #C6C6C3",
"'#	c #C5C6C3",
")#	c #C5C5C2",
"!#	c #C6C6C4",
"~#	c #DBDBD9",
"{#	c #484946",
"]#	c #B3B3B0",
"^#	c #DCDDDB",
"/#	c #DDDDDB",
"(#	c #DDDDDC",
"_#	c #DEDFDD",
":#	c #DFDFDD",
"<#	c #DFDFDE",
"[#	c #DCDDDA",
"}#	c #5F5F5D",
"|#	c #424442",
"1#	c #454643",
"2#	c #454744",
"3#	c #414541",
"                                                                ",
"            . + + + + + + + + + + + + + + + + + + @             ",
"            # $ % & & & & & & & & & & & & * * * * +             ",
"            @ = - ; > > , , , , , ' ' ' ' ) ' , ! +             ",
"        ~ { ] ^ , / ( ( _ _ _ _ _ _ _ _ : : < [ $ + } |         ",
"      | 1 2 3 4 5 6 7 8 8 8 8 / 8 7 7 8 8 8 8 / 9 0 2 a b       ",
"      c d 2 e f g h i i i i j j k l m m m m m n / o 2 2 p       ",
"    { q d r s t u u u u u u u u u u u u u u u u v u w 2 a x     ",
"    y z A B C D E F G H I J K L M N O P Q R S T U V W X Y Z     ",
"  | `  .2 2 2 2 2 2 2 2 2 2 2 2 2 2 2 2 2 2 2 2 ..+.@.#.$.%.{   ",
"  } &.*.=.=.=.=.=.=.=.=.=.=.=.=.=.=.=.=.=.=.=.=.-.;.>.,.'.).!.  ",
"  ~.{.].^.^.^.^.^.^.^.^.^././././././././././././.(._.:.<.[.}.  ",
"  |.1.2.3.3.3.3.3.3.3.4.5.6.7.8.9.0.a.b.c.d.e.f.g.h.i.j.k.l.m.  ",
"    n.o.o.o.o.o.o.o.o.o.o.o.o.o.o.o.o.o.o.o.o.o.o.o.o.o.o.o.p.  ",
"      q.r.s.t.u.v.v.w._ x.f y.z.A.f B.C.v.5 D.E.F.G.H.I.J.      ",
"      K.r.L.M.N.O.P.Q.R.S.5 T.U.V.W.X.X._ 6 Y.C.Z.`. +.+++      ",
"      @+#+$+%+( &+*+=+S.-+;+>+Q.,+'+Y.)+!+~+{+B.]+%+^+/+(+      ",
"      _+:+<+# [+}+A.|+1+-+2+3+{+4+5+6+7+8+9+N.7+v.0+a+b+c+      ",
"        d+e+f+g+4 h+i+4+j+k+l+m+n+o+p+q+r+[ ;+s+m+t+u+v+w+      ",
"        x+y+z+A+4+B+C+, D+, E+F+G+H+F+I+E+> ; J+'+K+L+M+N+      ",
"        O+P+Q+& R+S+T+U+z+V+[ W+X+Y+Z+`+ @- = .@+@@@#@$@%@      ",
"        &@*@=@-@;@>@,@'@)@!@~@{@]@^@4+]@/@(@_@:@<@3+[@}@|@      ",
"        1@2@3@H+4@5@6@7@8@9@]@'@V+0@a@W+W+5@b@c@d@e@f@}@g@      ",
"        h@i@j@k@l@m@n@)@o@p@;@q@r@s@t@9@u@4@v@w@x@y@f@z@        ",
"        A@B@o@o@o@o@o@o@o@o@o@o@C@o@o@o@o@o@o@o@o@D@E@z@        ",
"        F.F@o@o@o@o@o@o@o@o@o@o@o@o@o@o@o@o@o@o@o@G@H@I@        ",
"        J@K@L@l@l@l@l@l@l@l@l@l@l@l@l@l@l@l@l@l@l@M@N@O@        ",
"        q@P@Q@R@S@a@T@U@V@W@X@Y@Z@`@Q@ #.#+#@###$#%#&#*#        ",
"        =#W+x+-#-#;#;#>#1@1@1@1@,#,#'#'#'#'#P@P@)#!#~#(+        ",
"        {#]#^#/#/#(#(#X+V+v+v+v+V+V+_#_#_#:#:#<#<#[#m+}#        ",
"          |#1#2#2#2#2#2#2#2#2#2#2#2#2#2#2#2#2#2#2#2#3#          ",
"                                                                "};
