<?xml version="1.0" encoding="UTF-8" standalone="no"?>
<svg
   xmlns:dc="http://purl.org/dc/elements/1.1/"
   xmlns:cc="http://creativecommons.org/ns#"
   xmlns:rdf="http://www.w3.org/1999/02/22-rdf-syntax-ns#"
   xmlns:svg="http://www.w3.org/2000/svg"
   xmlns="http://www.w3.org/2000/svg"
   xmlns:sodipodi="http://sodipodi.sourceforge.net/DTD/sodipodi-0.dtd"
   xmlns:inkscape="http://www.inkscape.org/namespaces/inkscape"
   version="1.1"
   id="svg2"
   viewBox="0 0 1792 1792"
   height="128"
   width="128"
   inkscape:version="0.91 r13725"
   sodipodi:docname="helpIndex.svg">
  <sodipodi:namedview
     pagecolor="#ffffff"
     bordercolor="#666666"
     borderopacity="1"
     objecttolerance="10"
     gridtolerance="10"
     guidetolerance="10"
     inkscape:pageopacity="0"
     inkscape:pageshadow="2"
     inkscape:window-width="686"
     inkscape:window-height="480"
     id="namedview8"
     showgrid="false"
     inkscape:zoom="0.13169643"
     inkscape:cx="896"
     inkscape:cy="896"
     inkscape:window-x="0"
     inkscape:window-y="0"
     inkscape:window-maximized="0"
     inkscape:current-layer="svg2" />
  <metadata
     id="metadata10">
    <rdf:RDF>
      <cc:Work
         rdf:about="">
        <dc:format>image/svg+xml</dc:format>
        <dc:type
           rdf:resource="http://purl.org/dc/dcmitype/StillImage" />
        <dc:title />
      </cc:Work>
    </rdf:RDF>
  </metadata>
  <defs
     id="defs8" />
  <g
     style="display:inline;fill:#00ff00;fill-opacity:1;stroke:none"
     id="layer1">
    <path
       id="path4276"
       d="m 20.29325,1526.1369 c -2.794945,-1.2695 -7.116109,-4.0943 -9.602585,-6.2775 l -4.5208655,-3.9693 -2.8974148,-5.8825 -2.89741471,-5.8827 0,-103.75 0,-103.75 2.33506821,-4.375 c 1.2842877,-2.4062 3.6072724,-6.0768 5.1621885,-8.157 l 2.8271203,-3.782 6.712812,-3.718 6.712811,-3.718 101.11997,-0.3481 101.11997,-0.3481 6.489,1.8864 6.48898,1.8863 5.65435,4.9772 5.65435,4.9771 2.70203,6.2811 2.70204,6.281 -0.34035,104.0786 -0.34034,104.0785 -2.06208,3.75 c -1.13415,2.0625 -4.45635,6.1177 -7.38267,9.0115 l -5.3206,5.2615 -5.6525,1.926 -5.6525,1.926 -101.96483,-0.027 -101.96482,-0.028 -5.08172,-2.3081 z m 385.24109,0.5278 -4.84063,-1.7255 -4.53437,-3.6666 -4.53437,-3.6667 -3.4375,-6.5707 -3.4375,-6.5708 0,-83.6072 c 0,-45.984 0.25006,-83.6073 0.55569,-83.6073 0.30562,0 7.75285,5.1143 16.54938,11.3649 98.85169,70.2426 211.70063,109.1265 337.26993,116.2118 l 25,1.4105 21.25,-0.809 c 78.24642,-2.9792 146.71676,-16.9623 215.62503,-44.0353 l 20.625,-8.1032 23.8023,-11.5595 c 61.4393,-29.8378 113.728,-66.2552 162.0288,-112.8479 l 17.2708,-16.66 272.1991,0.3264 272.199,0.3263 5.0852,2.722 5.0853,2.722 4.7237,5.2285 4.7236,5.2287 1.7537,4.1967 1.7535,4.1969 0,103.5446 0,103.5448 -3.2233,6.4682 -3.2232,6.4681 -4.996,3.957 -4.9962,3.9569 -4.5931,1.6405 -4.5932,1.6404 -678.125,0 -678.12503,0 -4.84063,-1.7255 z M 733.49997,1412.6772 C 447.48419,1393.0483 224.10249,1183.7407 189.10898,902.58522 l -1.83089,-14.71028 -1.50395,-28.44747 -1.50395,-28.44748 1.47612,-27.80252 1.47611,-27.80253 1.92812,-15.625 c 3.19427,-25.8855 6.61292,-44.33157 13.10764,-70.72519 l 6.17646,-25.10017 6.9258,-20.16016 C 288.88189,429.75277 475.86796,279.20992 700.99997,252.77509 l 16.875,-1.98145 37.02041,-0.68389 37.02041,-0.68388 18.60459,1.4484 c 10.23253,0.79661 25.63584,2.30791 34.22959,3.35843 l 15.625,1.91005 24.375,4.85113 24.375,4.85114 19.49809,5.65068 c 91.66944,26.56648 175.07224,75.08134 244.12214,142.00424 l 17.4114,16.875 13.2342,15.10794 c 90.2278,103.00252 139.8278,226.43541 145.0108,360.86872 l 0.9744,25.27334 -1.0074,25.625 -1.0074,25.625 -1.9555,16.875 c -2.8,24.16193 -7.4476,50.0013 -13.2651,73.75 l -5.0524,20.62496 -7.3425,21.9103 c -23.3439,69.6585 -58.7707,132.5579 -108.0502,191.8397 l -12.4691,15 -19.4257,19.4879 -19.4257,19.4879 -13.6713,11.6299 c -64.4663,54.8395 -139.4527,95.2846 -219.07846,118.1631 l -19.75027,5.6749 -21.57238,4.3481 -21.57236,4.348 -19.05264,2.4295 c -10.47893,1.3362 -28.04302,3.0204 -39.03128,3.7426 l -19.97868,1.3131 -23.77132,-0.2183 c -13.07424,-0.1202 -26.30259,-0.3922 -29.39634,-0.6044 z m 93.75,-99.7231 c 43.36605,-6.1063 76.21234,-14.6113 114.88746,-29.748 l 19.26246,-7.539 21.98754,-11.0082 21.98757,-11.008 17.2153,-10.6111 c 20.9394,-12.9066 39.3203,-26.1779 58.4097,-42.1726 l 14.375,-12.0447 18.7539,-19.2238 18.754,-19.2238 10.9946,-13.75 c 6.0471,-7.5625 16.8333,-22.4687 23.9694,-33.125 l 12.9747,-19.375 9.7207,-17.5 9.7206,-17.5 8.9502,-20 c 24.7236,-55.24715 37.5382,-106.07867 41.9112,-166.24996 l 1.4537,-20 -0.7614,-24.375 -0.7614,-24.375 -1.9842,-16.875 C 1237.1503,675.87068 1194.6175,582.27479 1125.0181,504.26427 l -12.1431,-13.61069 -14.4245,-13.26431 c -25.9435,-23.85684 -50.9098,-42.62765 -80.0931,-60.21784 l -16.7324,-10.0854 -20.00003,-9.8255 c -62.35566,-30.63376 -118.83923,-45.7211 -187.5,-50.08316 l -22.5,-1.42944 -18.75,0.79971 C 507.33442,357.02039 313.59116,536.47845 284.51422,780.37494 l -1.63925,13.75 0.0244,38.125 0.0244,38.125 2.23185,17.5 c 11.98757,93.99466 50.33812,182.57266 110.43976,255.08176 l 13.40159,16.1682 15.73136,15.625 c 25.62295,25.4497 50.52401,45.2978 81.3917,64.8755 l 16.55579,10.5004 21.3496,10.9866 c 27.1822,13.988 46.20344,22.1288 71.48269,30.593 l 20.13307,6.7412 17.46995,4.2896 c 19.02586,4.6717 41.76483,8.7107 60.38889,10.7269 6.53125,0.707 13.84375,1.5098 16.25,1.7841 2.40625,0.2744 22.09375,0.326 43.75,0.115 l 39.375,-0.3839 14.375,-2.0241 z m -132.28966,-108.3863 -5.41465,-2.6802 -3.33535,-5.0389 -3.33534,-5.0388 -0.35321,-66.9675 -0.35322,-66.9675 1.99685,-5.2542 1.99685,-5.2543 4.27745,-3.7556 4.27745,-3.7557 5.03169,-1.3549 5.0317,-1.3548 65.29721,0.3647 65.29723,0.3648 3.9136,2.1426 c 2.15249,1.1785 5.36525,3.8678 7.13946,5.9764 l 3.22586,3.8337 1.29107,4.6487 1.29107,4.6486 0,63.125 0,63.125 -1.31122,4.7217 -1.31122,4.7217 -3.97478,4.527 -3.97478,4.527 -4.04189,1.6888 -4.04187,1.6888 -66.60265,-9e-4 -66.60265,-10e-4 -5.41466,-2.6802 z m 3.10865,-229.14117 -4.80602,-1.71358 -3.17138,-2.91906 -3.17139,-2.91905 -2.30765,-5 -2.30765,-5 -0.003,-34.375 -0.002,-34.375 1.25504,-8.75 c 2.66551,-18.58371 10.12991,-40.40907 18.99731,-55.54672 l 4.07275,-6.95328 11.25,-11.3642 11.25,-11.36421 16.57822,-10.91716 16.57823,-10.91717 24.67177,-11.73916 c 34.80425,-16.56032 47.9228,-23.48436 61.69063,-32.56062 l 12.01885,-7.92328 4.10476,-4.67506 4.10475,-4.67506 3.2514,-6.93204 3.25139,-6.93204 0,-13.81482 0,-13.81484 -4.72778,-9.566 -4.72777,-9.56601 -6.16285,-6.74314 -6.16285,-6.74314 -9.45005,-6.53281 -9.45006,-6.53281 -10.28432,-4.81262 -10.28432,-4.8126 -10,-2.7482 -10,-2.7482 -20,-0.58477 -20,-0.58478 -11.875,2.46437 -11.875,2.46435 -10.03078,3.88272 -10.03077,3.88273 -9.88665,6.49048 -9.88665,6.49049 -14.45758,14.5373 -14.45757,14.53729 -13.48949,16.28329 -13.48949,16.28327 -4.36542,2.08173 -4.36541,2.08172 -6.5683,0 -6.56829,0 -4.3268,-2.23114 c -4.81138,-2.481 -80.7419,-59.74007 -87.12384,-65.69992 l -4.04704,-3.77939 -2.06035,-5.39492 -2.06033,-5.39494 0.79917,-5.93735 0.79916,-5.93734 9.29054,-13.75 c 24.72033,-36.58609 53.15994,-65.42409 86.32589,-87.53515 l 13.75,-9.16684 13.35802,-6.83367 c 31.46449,-16.09655 64.72769,-25.76991 104.41423,-30.36496 l 17.22775,-1.9947 28.125,0.62106 28.125,0.62106 11.25,2.07021 c 6.1875,1.13862 17.55482,3.73379 25.26072,5.76704 l 14.01073,3.69683 13.22029,5.10645 c 7.27116,2.80855 19.24758,8.18826 26.61427,11.95492 l 13.39399,6.84846 15.625,10.38835 c 43.10706,28.6599 72.64513,59.89583 90.77313,95.99087 l 5.6839,11.31727 4.8426,14.5064 4.8426,14.5064 2.0014,11.25 2.0014,11.25 0.7328,16.39666 0.7327,16.39665 -1.5574,14.22835 -1.5574,14.22834 -3.4924,13.88584 -3.4924,13.88585 -4.3771,10.1006 -4.3772,10.1006 -7.1399,11.01355 -7.1399,11.01356 -13.92592,13.83159 -13.92591,13.83157 -12.6748,10.07004 c -14.00306,11.12533 -23.94818,17.48443 -57.3252,36.65481 -12.375,7.10769 -26.71875,15.73429 -31.875,19.17022 l -9.375,6.24712 -7.93086,8.04118 -7.93087,8.04117 -2.99442,6.43115 -2.99443,6.43115 -0.0193,16.875 -0.0191,16.875 -1.38029,4.97181 -1.38029,4.97183 -4.57842,4.57842 -4.57843,4.57843 -4.97182,1.38029 -4.97181,1.38028 -63.75,-0.0479 -63.75,-0.0479 -4.80602,-1.71357 z M 22.6165,1142.9392 l -5.258469,-1.6436 -4.805331,-3.8059 -4.8053309,-3.8059 -3.6861996,-6.6544 -3.68619951,-6.6545 -0.34864016,-99.9403 -0.34864017,-99.94027 1.38018684,-6.64833 1.3801869,-6.64832 4.011617,-5.25958 4.0116166,-5.25958 6.10677,-3.77679 6.106769,-3.77679 56.238405,-0.36166 56.238399,-0.36166 0.94769,0.98666 0.94769,0.98666 1.45991,12.5 c 9.27229,79.39126 33.72651,158.08796 70.23955,226.03926 l 7.27521,13.5393 -0.70963,1.1482 -0.70963,1.1482 -93.36373,-0.084 -93.36373,-0.084 -5.25847,-1.6435 z m 1299.6335,0.363 c 0,-0.8111 6.1495,-13.8952 13.6656,-29.076 l 13.6656,-27.6013 7.461,-18.75 c 21.8551,-54.924 35.5175,-109.88608 42.4134,-170.62496 l 0.9225,-8.125 182.4757,-0.3167 182.4758,-0.3167 5.8884,1.95581 5.8885,1.95583 5.1787,5.0258 5.1788,5.02581 2.3655,5.21008 2.3656,5.21007 0.028,103.47766 0.027,103.4776 -1.7535,4.1968 -1.7536,4.1969 -4.7237,5.2285 -4.7237,5.2286 -5.0853,2.722 -5.0852,2.7219 -223.4375,0.326 -223.4375,0.326 0,-1.4747 z M 26.40797,759.69447 C 16.752095,757.78522 7.9196176,750.82045 2.7002007,740.99994 L 0.37496999,736.62494 0.02681789,635.50497 -0.3213342,534.385 l 2.0182676,-7.00503 2.0182675,-7.00503 6.4548841,-6.27624 6.454885,-6.27623 5.145025,-1.53627 5.145024,-1.53626 98.292471,0 98.29248,0 0,1.2029 c 0,0.6616 -4.03611,8.39598 -8.96915,17.1875 -36.73423,65.46686 -62.54555,142.05466 -73.53644,218.19865 l -2.55105,17.67341 -1.53417,0.97463 -1.53419,0.97462 -51.875,-0.11775 -51.875,-0.11775 -5.217,-1.03156 z m 1373.65983,-0.23288 -1.2783,-1.58665 -3.3302,-21.875 c -11.608,-76.25081 -38.2915,-153.23155 -75.5615,-217.99187 -3.5188,-6.11428 -6.3978,-11.59865 -6.3978,-12.1875 l 0,-1.07063 227.2546,0 227.2545,0 6.4661,3.22219 6.4661,3.22219 3.3477,3.96531 c 1.8411,2.18092 4.3732,6.21531 5.6268,8.96531 l 2.2793,5 0.015,103.125 0.015,103.125 -2.9148,6.2591 -2.9147,6.2591 -4.7946,4.20976 c -2.6372,2.31538 -6.8044,5.12379 -9.2607,6.24092 l -4.4658,2.03112 -183.2644,0.33665 -183.2644,0.33664 -1.2784,-1.58664 z M 19.05546,373.03282 l -6.319509,-2.9427 -4.6641615,-5.44903 -4.6641618,-5.44902 -1.864481,-6.41359 -1.8644809,-6.4136 0.34815209,-101.11996 0.3481521,-101.11998 2.70714261,-5.05619 2.7071428,-5.05618 5.5230286,-5.09095 5.52303,-5.09095 4.894827,-1.72786 4.894829,-1.72787 102.5,0 102.5,0 4.54945,2.06604 4.54946,2.06604 4.9886,4.50691 4.98861,4.5069 2.67728,6.2235 2.67729,6.2235 -0.34035,104.07856 -0.34034,104.07855 -2.20935,4.04269 c -1.21515,2.22347 -4.25203,6.08535 -6.74861,8.58194 l -4.53924,4.53925 -5.1264,2.32811 -5.1264,2.32811 -103.125,0.0152 -103.125,0.0153 -6.31951,-2.9427 z M 1197.25,364.0191 C 1094.5269,270.57997 969.37666,214.6973 830.37497,200.2004 l -21.25,-2.21621 -40,-0.0353 -40,-0.0352 -15.625,1.60361 c -117.37069,12.04597 -220.22785,49.79638 -310.5483,113.97677 -8.71218,6.19071 -16.38231,11.25587 -17.04473,11.25587 l -1.20441,0 0.33623,-91.76795 0.33621,-91.76795 3.78179,-5.3802 3.78178,-5.3802 5.25459,-4.0078 5.25458,-4.0078 6.58863,-1.35917 6.58863,-1.35917 675.62503,0.32762 675.625,0.32762 5.9233,2.91719 5.9235,2.9172 4.794,5.44634 4.7942,5.44633 1.47,4.90649 1.47,4.9065 -0.027,102.35498 -0.028,102.35497 -2.2793,5 c -1.2536,2.75 -3.7857,6.78439 -5.6269,8.96531 l -3.3476,3.96532 -6.4661,3.22218 -6.466,3.22219 -278.817,-0.021 -278.8171,-0.021 -13.125,-11.93879 z"
       style="fill:#00ff00;fill-opacity:1;stroke:none" />
  </g>
  <g
     style="display:inline"
     id="layer2" />
</svg>
