<?xml version="1.0" encoding="UTF-8" standalone="no"?>
<svg
   xmlns:dc="http://purl.org/dc/elements/1.1/"
   xmlns:cc="http://creativecommons.org/ns#"
   xmlns:rdf="http://www.w3.org/1999/02/22-rdf-syntax-ns#"
   xmlns:svg="http://www.w3.org/2000/svg"
   xmlns="http://www.w3.org/2000/svg"
   xmlns:sodipodi="http://sodipodi.sourceforge.net/DTD/sodipodi-0.dtd"
   xmlns:inkscape="http://www.inkscape.org/namespaces/inkscape"
   version="1.1"
   id="svg2"
   viewBox="0 0 1792 1792"
   height="128"
   width="128"
   inkscape:version="0.91 r13725"
   sodipodi:docname="helpSearch.svg">
  <sodipodi:namedview
     pagecolor="#ffffff"
     bordercolor="#666666"
     borderopacity="1"
     objecttolerance="10"
     gridtolerance="10"
     guidetolerance="10"
     inkscape:pageopacity="0"
     inkscape:pageshadow="2"
     inkscape:window-width="686"
     inkscape:window-height="480"
     id="namedview7"
     showgrid="false"
     inkscape:zoom="0.13169643"
     inkscape:cx="896"
     inkscape:cy="896"
     inkscape:window-x="0"
     inkscape:window-y="0"
     inkscape:window-maximized="0"
     inkscape:current-layer="svg2" />
  <metadata
     id="metadata10">
    <rdf:RDF>
      <cc:Work
         rdf:about="">
        <dc:format>image/svg+xml</dc:format>
        <dc:type
           rdf:resource="http://purl.org/dc/dcmitype/StillImage" />
        <dc:title />
      </cc:Work>
    </rdf:RDF>
  </metadata>
  <defs
     id="defs8" />
  <path
     id="path4"
     d="M1216 832q0-185-131.5-316.5t-316.5-131.5-316.5 131.5-131.5 316.5 131.5 316.5 316.5 131.5 316.5-131.5 131.5-316.5zm512 832q0 52-38 90t-90 38q-54 0-90-38l-343-342q-179 124-399 124-143 0-273.5-55.5t-225-150-150-225-55.5-273.5 55.5-273.5 150-225 225-150 273.5-55.5 273.5 55.5 225 150 150 225 55.5 273.5q0 220-124 399l343 343q37 37 37 90z"
     style="fill:#00ff00;fill-opacity:1;stroke:none" />
  <path
     id="path4-3"
     d="m 851.9887,1061.8192 0,121.2429 c 0,7.0725 -2.27331,12.8821 -6.81992,17.4287 -4.54661,4.5466 -10.35617,6.8199 -17.42868,6.8199 l -121.24293,0 c -7.0725,0 -12.88206,-2.2733 -17.42867,-6.8199 -4.54661,-4.5466 -6.81992,-10.3562 -6.81992,-17.4287 l 0,-121.2429 c 0,-7.0725 2.27331,-12.8821 6.81992,-17.4287 4.54661,-4.5466 10.35617,-6.8199 17.42867,-6.8199 l 121.24293,0 c 7.07251,0 12.88207,2.2733 17.42868,6.8199 4.54661,4.5466 6.81992,10.3562 6.81992,17.4287 z m 193.9887,-375.85311 c 0,25.25895 -3.7888,47.992 -11.3665,68.19916 -7.5777,20.20716 -19.0706,37.63583 -34.4785,52.28602 -15.40795,14.65019 -28.5426,25.76412 -39.40395,33.3418 -10.86134,7.57768 -25.89041,16.6709 -45.08722,27.27967 -16.16572,9.09321 -27.91113,16.16572 -35.23622,21.21751 -7.3251,5.05179 -13.89243,11.11393 -19.70198,18.18644 -5.80955,7.0725 -8.71433,14.39759 -8.71433,21.97528 l 0,24.24859 c 0,7.0725 -2.27331,12.88206 -6.81992,17.42867 -4.54661,4.54661 -10.35617,6.81992 -17.42868,6.81992 l -121.24293,0 c -7.0725,0 -12.88206,-2.27331 -17.42867,-6.81992 -4.54661,-4.54661 -6.81992,-10.35617 -6.81992,-17.42867 l 0,-51.52825 c 0,-17.68126 2.65219,-33.97328 7.95657,-48.87606 5.30438,-14.90278 11.36653,-26.90078 18.18644,-35.99399 6.81991,-9.09323 16.6709,-18.06015 29.55297,-26.90078 12.88206,-8.84063 23.23823,-15.28166 31.0685,-19.32309 7.83027,-4.04143 19.07051,-9.34581 33.7207,-15.91314 26.77447,-12.62947 45.71868,-23.49082 56.83262,-32.58405 11.11394,-9.09321 16.67091,-21.47009 16.67091,-37.13064 0,-21.21751 -10.98764,-39.27766 -32.96293,-54.18044 -21.97528,-14.90278 -46.09757,-22.35417 -72.36688,-22.35417 -28.29002,0 -52.28602,6.81992 -71.988,20.45975 -14.65019,10.10357 -34.85734,31.0685 -60.62146,62.89478 -4.54661,6.06214 -10.86135,9.09321 -18.94421,9.09321 -5.55697,0 -10.35617,-1.51554 -14.3976,-4.54661 l -81.83899,-62.13701 c -5.05178,-3.53625 -8.08285,-8.58803 -9.09321,-15.15536 -1.01036,-6.56732 0.25259,-12.37688 3.78884,-17.42867 61.63183,-96.99435 149.78555,-145.49153 264.46116,-145.49153 65.16808,0 125.41067,22.60676 180.72776,67.82027 55.31713,45.21351 82.97563,99.39395 82.97563,162.54131 z"
     style="fill:#00ff00;fill-opacity:1;stroke:none" />
</svg>
