/* XPM */
static char * btnLoadPACS_xpm[] = {
"19 14 40 1",
" 	c None",
".	c #FF6969",
"+	c #000000",
"@	c #C15752",
"#	c #FF5B53",
"$	c #FF6363",
"%	c #B5C9A5",
"&	c #B4D3A5",
"*	c #FFFFFF",
"=	c #FF9292",
"-	c #DE4844",
";	c #FF403B",
">	c #FF4945",
",	c #FF534B",
"'	c #F97D6D",
")	c #E5AA7B",
"!	c #BCE78D",
"~	c #B9EC90",
"{	c #FFECEC",
"]	c #562626",
"^	c #D83935",
"/	c #FF2823",
"(	c #FF241F",
"_	c #F2362C",
":	c #CF3E3B",
"<	c #FF4343",
"[	c #FF3631",
"}	c #F03F28",
"|	c #D27C5E",
"1	c #DD8877",
"2	c #FFD4D1",
"3	c #FC8C87",
"4	c #F0847F",
"5	c #EF504D",
"6	c #E82E2E",
"7	c #AE1616",
"8	c #CF211D",
"9	c #DB1F1F",
"0	c #F45C58",
"a	c #CC6260",
"                   ",
"      .            ",
"  +++@##$      %&  ",
" +***=-;>,   ')!~  ",
"+****{]^/(_:<[}|1  ",
"+******234567890   ",
"+***++++++++++a    ",
"+**+**********+    ",
"+*+***********+    ",
"+*+**********+     ",
"++***********+     ",
"+***********+      ",
"++*********+       ",
" +++++++++++       "};
