/* XPM */
static char * btnSavePACS_xpm[] = {
"19 16 67 1",
" 	c None",
".	c #000000",
"+	c #FFFFFF",
"@	c #FCC3C3",
"#	c #FFA5A5",
"$	c #FFCACA",
"%	c #FEFEFE",
"&	c #C15752",
"*	c #FF5B53",
"=	c #F75850",
"-	c #FFABAB",
";	c #5E2727",
">	c #FBFBFB",
",	c #22221A",
"'	c #B5C9A5",
")	c #B4D3A5",
"!	c #FF9292",
"~	c #FF6965",
"{	c #FF403B",
"]	c #FF6F6C",
"^	c #FF7D77",
"/	c #FFC4C2",
"(	c #100707",
"_	c #FBCECB",
":	c #FBB2A8",
"<	c #BA8A64",
"[	c #BCE78D",
"}	c #B9EC90",
"|	c #251212",
"1	c #FCCCCC",
"2	c #D83935",
"3	c #FF2823",
"4	c #FF241F",
"5	c #FF4339",
"6	c #CF3E3B",
"7	c #FF4444",
"8	c #FF3732",
"9	c #F03F28",
"0	c #D27C5E",
"a	c #DD8877",
"b	c #FFCCC9",
"c	c #FC7069",
"d	c #EC5D56",
"e	c #EB231F",
"f	c #E51111",
"g	c #D31B1B",
"h	c #CF211D",
"i	c #DB1F1F",
"j	c #F45C58",
"k	c #F4E9E9",
"l	c #C2A39C",
"m	c #B99286",
"n	c #BA5550",
"o	c #9E3636",
"p	c #B04946",
"q	c #B4514E",
"r	c #B45655",
"s	c #ECE7E4",
"t	c #EDE9E5",
"u	c #E6CDCA",
"v	c #75514F",
"w	c #F0CACA",
"x	c #EFDAD6",
"y	c #41322E",
"z	c #FFF7F7",
"A	c #FAF4F4",
"B	c #170C0C",
" ..............    ",
".++.++@#$%++.++.   ",
".++.+.&*=-;>.++,') ",
".++.++!~{]^/(_:<[} ",
".++.+.|1234567890a ",
".++.++++bcdefghij  ",
".++.++++klmnopqr   ",
".++.+++++stuvwxy   ",
".+++........+zAB   ",
".++++++++++++++.   ",
".++++.......+++.   ",
".+++.+..++++.++.   ",
".+++.+..++++.++.   ",
".+++.+..++++.++.   ",
" .++.+++++++.++.   ",
"  .............    "};
