<?xml version="1.0" encoding="UTF-8" standalone="no"?>
<!-- Generator: Adobe Illustrator 19.1.0, SVG Export Plug-In . SVG Version: 6.00 Build 0)  -->

<svg
   xmlns:dc="http://purl.org/dc/elements/1.1/"
   xmlns:cc="http://creativecommons.org/ns#"
   xmlns:rdf="http://www.w3.org/1999/02/22-rdf-syntax-ns#"
   xmlns:svg="http://www.w3.org/2000/svg"
   xmlns="http://www.w3.org/2000/svg"
   xmlns:sodipodi="http://sodipodi.sourceforge.net/DTD/sodipodi-0.dtd"
   xmlns:inkscape="http://www.inkscape.org/namespaces/inkscape"
   version="1.1"
   x="0px"
   y="0px"
   viewBox="0 0 40 36.7"
   style="enable-background:new 0 0 40 36.7;"
   xml:space="preserve"
   id="svg2"
   inkscape:version="0.91 r13725"
   sodipodi:docname="icon_tof_settings.svg"><metadata
     id="metadata31"><rdf:RDF><cc:Work
         rdf:about=""><dc:format>image/svg+xml</dc:format><dc:type
           rdf:resource="http://purl.org/dc/dcmitype/StillImage" /></cc:Work></rdf:RDF></metadata><defs
     id="defs29" /><sodipodi:namedview
     pagecolor="#ffffff"
     bordercolor="#666666"
     borderopacity="1"
     objecttolerance="10"
     gridtolerance="10"
     guidetolerance="10"
     inkscape:pageopacity="0"
     inkscape:pageshadow="2"
     inkscape:window-width="686"
     inkscape:window-height="480"
     id="namedview27"
     showgrid="false"
     inkscape:zoom="6.4305176"
     inkscape:cx="20"
     inkscape:cy="18.35"
     inkscape:window-x="0"
     inkscape:window-y="0"
     inkscape:window-maximized="0"
     inkscape:current-layer="svg2" /><style
     type="text/css"
     id="style4">
	.st0{display:none;}
	.st1{display:inline;fill:#9D9D9C;}
	.st2{fill:#FFFFFF;}
	.st3{fill:none;stroke:#000000;stroke-width:7;stroke-miterlimit:10;}
	.st4{fill:#C0C5CD;}
	.st5{fill:none;stroke:#000000;stroke-width:2;stroke-miterlimit:10;}
	.st6{fill:none;stroke:#C0C5CD;stroke-width:2;stroke-miterlimit:10;}
	.st7{fill:#0096AE;}
	.st8{fill:#244F9E;}
	.st9{fill:none;stroke:#000000;stroke-width:5;stroke-miterlimit:10;}
	.st10{fill:none;stroke:#000000;stroke-width:5;stroke-linecap:round;stroke-miterlimit:10;}
	.st11{fill:none;stroke:#000000;stroke-width:5;stroke-linecap:square;stroke-miterlimit:10;}
	.st12{fill:none;stroke:#000000;stroke-miterlimit:10;}
	.st13{fill:#CEC917;}
	.st14{fill:none;stroke:#FFFFFF;stroke-width:6;stroke-linecap:round;stroke-miterlimit:10;}
	.st15{fill:none;stroke:#1D71B8;stroke-width:4;stroke-miterlimit:10;}
	.st16{fill:none;stroke:#FFFFFF;stroke-width:5;stroke-linecap:round;stroke-miterlimit:10;}
	.st17{fill:none;stroke:#E6007E;stroke-width:4;stroke-miterlimit:10;}
	.st18{fill:#1C1C1B;}
	.st19{fill:#010202;stroke:#FFFFFF;stroke-miterlimit:10;}
	.st20{fill:none;stroke:#FFFFFF;stroke-miterlimit:10;}
	.st21{fill:#010202;}
	.st22{stroke:#000000;stroke-linejoin:round;stroke-miterlimit:10;}
	.st23{fill:none;stroke:#000000;stroke-linejoin:round;stroke-miterlimit:10;}
	.st24{fill:none;stroke:#1C1C1B;stroke-miterlimit:10;}
	.st25{fill:none;stroke:#1C1C1B;stroke-linecap:round;stroke-linejoin:round;stroke-miterlimit:10;}
	.st26{fill:none;stroke:#009640;stroke-width:2;stroke-linecap:round;stroke-miterlimit:10;}
	.st27{fill:none;}
	.st28{clip-path:url(#SVGID_2_);}
	.st29{clip-path:url(#SVGID_2_);fill:none;}
	.st30{clip-path:url(#SVGID_4_);fill:none;}
	.st31{clip-path:url(#SVGID_4_);}
	.st32{clip-path:url(#SVGID_6_);fill:none;}
	.st33{clip-path:url(#SVGID_6_);}
	.st34{clip-path:url(#SVGID_8_);}
	.st35{clip-path:url(#SVGID_8_);fill:none;}
	.st36{clip-path:url(#SVGID_10_);fill:#FFFFFF;}
	.st37{clip-path:url(#SVGID_10_);}
	.st38{fill:none;stroke:#009640;stroke-width:6;stroke-linecap:round;stroke-miterlimit:10;}
	.st39{fill:none;stroke:#010202;stroke-width:2;stroke-linecap:round;stroke-miterlimit:10;}
	.st40{fill:none;stroke:#010202;stroke-width:6;stroke-linecap:round;stroke-miterlimit:10;}
	.st41{fill:none;stroke:#010202;stroke-width:9;stroke-linecap:round;stroke-miterlimit:10;}
	.st42{fill:none;stroke:#010202;stroke-width:3;stroke-linecap:round;stroke-miterlimit:10;}
	.st43{fill:none;stroke:#000000;stroke-width:0.5;stroke-miterlimit:10;}
	.st44{fill:#E6007E;}
	.st45{fill:none;stroke:#E6007E;stroke-width:7;stroke-miterlimit:10;}
	.st46{fill:none;stroke:#1C1C1B;stroke-width:5;stroke-miterlimit:10;}
	.st47{fill:none;stroke:#1C1C1B;stroke-width:5;stroke-miterlimit:10;stroke-dasharray:9.8182,4.0909;}
	.st48{fill:none;stroke:#1C1C1B;stroke-width:5;stroke-miterlimit:10;stroke-dasharray:12,5;}
	.st49{fill:none;stroke:#1C1C1B;stroke-width:4;stroke-miterlimit:10;}
	.st50{fill:none;stroke:#1C1C1B;stroke-width:4;stroke-miterlimit:10;stroke-dasharray:9.8182,4.0909;}
	.st51{fill:none;stroke:#1C1C1B;stroke-width:4;stroke-miterlimit:10;stroke-dasharray:12,5;}
	.st52{fill:none;stroke:#000000;stroke-width:8;stroke-miterlimit:10;}
	.st53{clip-path:url(#SVGID_12_);}
	.st54{clip-path:url(#SVGID_12_);fill:none;}
	.st55{clip-path:url(#SVGID_14_);}
	.st56{fill:none;stroke:#81181A;stroke-miterlimit:10;}
	.st57{fill:none;stroke:#037C90;stroke-miterlimit:10;}
	.st58{fill:none;stroke:#35393B;stroke-miterlimit:10;}
	.st59{fill:none;stroke:#A0151A;stroke-miterlimit:10;}
	.st60{fill:none;stroke:#1C1C1B;stroke-linecap:square;stroke-miterlimit:10;}
	.st61{fill:none;stroke:#1C1C1B;stroke-width:2;stroke-linecap:round;stroke-linejoin:round;stroke-miterlimit:10;}
	.st62{clip-path:url(#SVGID_16_);}
	.st63{fill:none;stroke:#FFFFFF;stroke-width:4;stroke-miterlimit:10;}
	.st64{clip-path:url(#SVGID_18_);}
	.st65{clip-path:url(#SVGID_18_);fill:#FFFFFF;}
	.st66{clip-path:url(#SVGID_20_);}
	.st67{clip-path:url(#SVGID_22_);}
</style><g
     id="Ebene_4"
     class="st0"><rect
       x="-142.8"
       y="-1023.8"
       class="st1"
       width="1421.9"
       height="1801.4"
       id="rect7" /></g><g
     id="Ebene_2"
     style="fill:#00ff00;fill-opacity:1;stroke:none" /><g
     id="Ebene_1"
     style="fill:#00ff00;fill-opacity:1;stroke:none" /><g
     id="Ebene_3"
     style="fill:#00ff00;fill-opacity:1;stroke:none"><g
       id="g12"
       style="fill:#00ff00;fill-opacity:1;stroke:none"><g
         id="g14"
         style="fill:#00ff00;fill-opacity:1;stroke:none"><path
           class="st18"
           d="M38.8,23.3H1.2c-0.7,0-1.2,0.6-1.2,1.2v6.2c0,0.7,0.6,1.2,1.2,1.2h37.5c0.7,0,1.2-0.6,1.2-1.2v-6.2     C40,23.9,39.4,23.3,38.8,23.3z M7.7,29.6c-1,0-1.9-0.8-1.9-1.9s0.8-1.9,1.9-1.9c1,0,1.9,0.8,1.9,1.9S8.7,29.6,7.7,29.6z      M17.4,29.6c-1,0-1.9-0.8-1.9-1.9s0.8-1.9,1.9-1.9c1,0,1.9,0.8,1.9,1.9S18.5,29.6,17.4,29.6z M22.6,29.6c-1,0-1.9-0.8-1.9-1.9     s0.8-1.9,1.9-1.9c1,0,1.9,0.8,1.9,1.9S23.6,29.6,22.6,29.6z"
           id="path16"
           style="fill:#00ff00;fill-opacity:1;stroke:none" /><path
           class="st18"
           d="M15.4,36.7c-0.4-1.1-0.5-1.2-0.1-1.4l4-2.3c0.4-0.2,0.9-0.2,1.3,0l4,2.3c0.4,0.2,0.3,0.4-0.1,1.4H15.4z"
           id="path18"
           style="fill:#00ff00;fill-opacity:1;stroke:none" /></g><g
         id="g20"
         style="fill:#00ff00;fill-opacity:1;stroke:none"><g
           id="XMLID_56_"
           style="fill:#00ff00;fill-opacity:1;stroke:none"><g
             id="g23"
             style="fill:#00ff00;fill-opacity:1;stroke:none"><path
               d="M20,13.3c1.8,0,3.3-1.5,3.3-3.3c0-1.8-1.5-3.3-3.3-3.3c-1.8,0-3.3,1.5-3.3,3.3C16.7,11.8,18.2,13.3,20,13.3z M30,9.2       c0,0,0,0.4,0,0.8c0,0.4,0,0.6,0,0.6c0,0.2-0.2,0.5-0.4,0.6l-1.6,0.7c0,0-0.1,0-0.1,0.1c-0.2,0.7-0.4,1.3-0.8,2       c0,0.1,0,0.1,0,0.2l0.7,1.6c0.1,0.2,0,0.6-0.1,0.7l-1,1c-0.2,0.2-0.5,0.2-0.7,0.1L24.2,17c-0.1,0-0.1,0-0.2,0       c-0.6,0.3-1.2,0.6-1.9,0.8c0,0-0.1,0.1-0.1,0.1l-0.7,1.7c-0.1,0.2-0.4,0.4-0.6,0.4c0,0-0.4,0-0.8,0c-0.4,0-0.6,0-0.6,0       c-0.2,0-0.5-0.2-0.6-0.4l-0.7-1.6c0,0,0-0.1-0.1-0.1c-0.7-0.2-1.3-0.4-1.9-0.8c-0.1,0-0.1,0-0.2,0l-1.6,0.7       c-0.2,0.1-0.6,0-0.7-0.1l-1-1c-0.2-0.2-0.2-0.5-0.1-0.7l0.7-1.7c0,0,0-0.1,0-0.2c-0.3-0.6-0.6-1.2-0.8-1.8c0,0-0.1-0.1-0.1-0.1       l-1.7-0.7c-0.2-0.1-0.4-0.4-0.4-0.6c0,0,0-0.4,0-0.8c0-0.4,0-0.6,0-0.6c0-0.2,0.2-0.5,0.4-0.6l1.6-0.7c0,0,0.1,0,0.1-0.1       c0.2-0.7,0.4-1.3,0.8-1.9c0-0.1,0-0.1,0-0.2l-0.7-1.6c-0.1-0.2,0-0.6,0.1-0.7l1-1c0.2-0.2,0.5-0.2,0.7-0.1L15.8,3       c0,0,0.1,0,0.2,0c0.6-0.3,1.2-0.6,1.8-0.8c0,0,0.1-0.1,0.1-0.1l0.7-1.7c0.1-0.2,0.4-0.4,0.6-0.4c0,0,0.4,0,0.8,0       c0.4,0,0.6,0,0.6,0c0.2,0,0.5,0.2,0.6,0.4l0.7,1.6c0,0,0.1,0.1,0.1,0.1c0.7,0.2,1.3,0.4,2,0.8c0.1,0,0.1,0,0.2,0l1.6-0.7       c0.2-0.1,0.6,0,0.7,0.1l1,1c0.2,0.2,0.2,0.5,0.1,0.7L27,5.8c0,0.1,0,0.1,0,0.2c0.3,0.6,0.6,1.2,0.8,1.9c0.1,0,0.1,0.1,0.1,0.1       l1.7,0.7C29.7,8.7,29.9,8.9,30,9.2z"
               id="path25"
               style="fill:#00ff00;fill-opacity:1;stroke:none" /></g></g></g></g></g></svg>