<?xml version="1.0" encoding="UTF-8" standalone="no"?>
<!-- Generator: Adobe Illustrator 19.1.0, SVG Export Plug-In . SVG Version: 6.00 Build 0)  -->

<svg
   xmlns:dc="http://purl.org/dc/elements/1.1/"
   xmlns:cc="http://creativecommons.org/ns#"
   xmlns:rdf="http://www.w3.org/1999/02/22-rdf-syntax-ns#"
   xmlns:svg="http://www.w3.org/2000/svg"
   xmlns="http://www.w3.org/2000/svg"
   xmlns:sodipodi="http://sodipodi.sourceforge.net/DTD/sodipodi-0.dtd"
   xmlns:inkscape="http://www.inkscape.org/namespaces/inkscape"
   version="1.0"
   id="Ebene_1"
   x="0px"
   y="0px"
   viewBox="0 0 128 128"
   style="enable-background:new 0 0 128 128;"
   xml:space="preserve"
   sodipodi:docname="icon.svg"
   inkscape:version="0.92.3 (2405546, 2018-03-11)"><metadata
   id="metadata49"><rdf:RDF><cc:Work
       rdf:about=""><dc:format>image/svg+xml</dc:format><dc:type
         rdf:resource="http://purl.org/dc/dcmitype/StillImage" /><dc:title /></cc:Work></rdf:RDF></metadata><defs
   id="defs47" /><sodipodi:namedview
   pagecolor="#ffffff"
   bordercolor="#666666"
   borderopacity="1"
   objecttolerance="10"
   gridtolerance="10"
   guidetolerance="10"
   inkscape:pageopacity="0"
   inkscape:pageshadow="2"
   inkscape:window-width="1600"
   inkscape:window-height="1137"
   id="namedview45"
   showgrid="false"
   inkscape:zoom="3.9396621"
   inkscape:cx="36.288566"
   inkscape:cy="69.726165"
   inkscape:window-x="1912"
   inkscape:window-y="-8"
   inkscape:window-maximized="1"
   inkscape:current-layer="Ebene_1" />
<style
   type="text/css"
   id="style2">
	.st0{fill:#F39200;}
	.st1{fill:#1D1D1B;}
	.st2{fill:#FFFFFF;}
	.st3{fill:none;stroke:#F39200;stroke-linecap:round;stroke-miterlimit:10;}
	.st4{fill:#F39200;stroke:#F39200;stroke-width:0.25;stroke-miterlimit:10;}
	.st5{fill:none;stroke:#1D1D1B;stroke-linecap:round;stroke-miterlimit:10;}
	.st6{fill:#FFFFFF;stroke:#FFFFFF;stroke-width:4;stroke-linecap:round;stroke-linejoin:round;stroke-miterlimit:10;}
	.st7{fill:none;stroke:#E6007E;stroke-linecap:round;stroke-miterlimit:10;}
	.st8{fill:#009FE3;}
	.st9{fill:#1C2E52;}
	.st10{fill:#C0C5CD;}
	.st11{fill:none;stroke:#1D1D1B;stroke-width:2;stroke-miterlimit:10;}
	.st12{fill:none;stroke:#C0C5CD;stroke-width:2;stroke-miterlimit:10;}
	.st13{fill:#0096AE;}
	.st14{fill:none;stroke:#1D1D1B;stroke-width:7;stroke-miterlimit:10;}
	.st15{fill:#1D1D1B;stroke:#1D1D1B;stroke-width:0.1;stroke-linecap:round;stroke-linejoin:round;stroke-miterlimit:10;}
	.st16{fill:none;}
	.st17{fill:none;stroke:#1D1C1B;stroke-width:2;stroke-linecap:round;stroke-linejoin:round;stroke-miterlimit:10;}
	.st18{fill:#1D1D1B;stroke:#FFFFFF;stroke-width:2;stroke-linecap:round;stroke-linejoin:round;stroke-miterlimit:10;}
	.st19{fill:none;stroke:#1D1D1B;stroke-width:2;stroke-linecap:round;stroke-linejoin:round;stroke-miterlimit:10;}
	.st20{fill:#E71D73;}
	.st21{fill:#F0F0F0;}
	.st22{fill:#E6007E;}
	.st23{fill:none;stroke:#1D1D1B;stroke-width:3;stroke-miterlimit:10;}
	.st24{fill:none;stroke:#1D1D1B;stroke-width:5;stroke-miterlimit:10;}
	.st25{fill:none;stroke:#1D1D1B;stroke-width:10;stroke-miterlimit:10;}
	.st26{fill:none;stroke:#1D1D1B;stroke-width:6;stroke-miterlimit:10;}
	.st27{fill:#009640;}
	.st28{fill:none;stroke:#009FE3;stroke-width:5;stroke-linejoin:round;}
	.st29{fill:none;stroke:#009FE3;stroke-width:3;stroke-linejoin:round;}
	.st30{fill:none;stroke:#1D1D1B;stroke-width:5;stroke-linejoin:round;}
	.st31{fill:#51509C;}
	.st32{fill:none;stroke:#1D1D1B;stroke-miterlimit:10;}
	.st33{fill:none;stroke:#FFFFFF;stroke-miterlimit:10;}
	.st34{fill:none;stroke:#FFFFFF;stroke-width:2;stroke-miterlimit:10;}
	.st35{fill:#1D1D1B;stroke:#FFFFFF;stroke-miterlimit:10;}
	.st36{fill:#FFFFFF;stroke:#1D1D1B;stroke-miterlimit:10;}
	.st37{fill:none;stroke:#1D1D1B;stroke-width:2;stroke-linecap:round;stroke-miterlimit:10;}
	.st38{fill:#009C3E;}
	.st39{fill:#E61883;}
	.st40{fill:#1D1D1B;stroke:#FFFFFF;stroke-linecap:round;stroke-linejoin:round;stroke-miterlimit:10;}
	.st41{fill:#1D1D1B;stroke:#1D1D1B;stroke-width:2;stroke-linecap:round;stroke-linejoin:round;stroke-miterlimit:10;}
	.st42{fill:#FFFFFF;stroke:#FFFFFF;stroke-width:6;stroke-linecap:round;stroke-linejoin:round;stroke-miterlimit:10;}
	.st43{fill:none;stroke:#1D1D1B;stroke-linecap:round;stroke-linejoin:round;stroke-miterlimit:10;}
	.st44{fill:#1D1D1B;stroke:#1D1D1B;stroke-linecap:round;stroke-linejoin:round;stroke-miterlimit:10;}
	.st45{fill:none;stroke:#1D1D1B;stroke-width:2;stroke-linecap:round;stroke-linejoin:round;}
	.st46{fill:none;stroke:#FFFFFF;stroke-width:3;stroke-linecap:round;stroke-miterlimit:10;}
	.st47{fill:none;stroke:#FFFFFF;stroke-width:2;stroke-linecap:round;stroke-miterlimit:10;}
	.st48{fill:#FFFFFF;stroke:#FFFFFF;stroke-width:4;stroke-miterlimit:10;}
	.st49{fill:none;stroke:#F39200;stroke-width:1.5;stroke-linecap:round;stroke-miterlimit:10;}
	.st50{fill:#00FF00;}
	.st51{fill:none;stroke:#1D1D1B;stroke-width:1.5;stroke-linecap:round;stroke-linejoin:round;}
	.st52{fill:#FF00FF;}
</style>

<path
   style="color:#000000;font-style:normal;font-variant:normal;font-weight:normal;font-stretch:normal;font-size:medium;line-height:normal;font-family:sans-serif;font-variant-ligatures:normal;font-variant-position:normal;font-variant-caps:normal;font-variant-numeric:normal;font-variant-alternates:normal;font-feature-settings:normal;text-indent:0;text-align:start;text-decoration:none;text-decoration-line:none;text-decoration-style:solid;text-decoration-color:#000000;letter-spacing:normal;word-spacing:normal;text-transform:none;writing-mode:lr-tb;direction:ltr;text-orientation:mixed;dominant-baseline:auto;baseline-shift:baseline;text-anchor:start;white-space:normal;shape-padding:0;clip-rule:nonzero;display:inline;overflow:visible;visibility:visible;opacity:1;isolation:auto;mix-blend-mode:normal;color-interpolation:sRGB;color-interpolation-filters:linearRGB;solid-color:#000000;solid-opacity:1;vector-effect:none;fill:#00ff00;fill-opacity:1;fill-rule:evenodd;stroke:none;stroke-width:2;stroke-linecap:butt;stroke-linejoin:miter;stroke-miterlimit:4;stroke-dasharray:6, 6;stroke-dashoffset:0;stroke-opacity:1;color-rendering:auto;image-rendering:auto;shape-rendering:auto;text-rendering:auto;enable-background:accumulate"
   d="M 105.63672 56.921875 C 105.96547 57.619009 106.27564 58.324171 106.56445 59.039062 L 107.58789 59.15625 L 109.16211 59.427734 L 109.5 57.457031 L 107.89844 57.181641 L 107.87109 57.177734 L 107.84375 57.173828 L 105.73242 56.929688 L 105.69922 56.925781 L 105.66602 56.923828 L 105.63672 56.921875 z M 115.43555 58.875 L 114.89258 60.800781 L 117.40039 61.505859 L 120.66992 62.423828 L 121.21094 60.498047 L 117.94141 59.580078 L 115.43555 58.875 z M 86.164062 62.935547 L 81.164062 65.929688 L 81.017578 66.017578 L 82.044922 67.734375 L 82.191406 67.646484 L 87.193359 64.650391 L 86.164062 62.935547 z M 75.869141 69.095703 L 74.787109 69.742188 L 74.769531 69.751953 L 71.488281 71.625 L 71.46875 71.636719 L 70.697266 72.050781 L 71.646484 73.8125 L 72.439453 73.384766 L 72.449219 73.378906 L 72.458984 73.373047 L 75.779297 71.478516 L 75.787109 71.474609 L 75.796875 71.46875 L 76.894531 70.8125 L 75.869141 69.095703 z M 65.400391 74.796875 L 64.759766 75.115234 L 64.755859 75.117188 L 61.4375 76.597656 L 61.417969 76.605469 L 61.400391 76.613281 L 59.984375 77.177734 L 60.726562 79.035156 L 62.179688 78.455078 L 62.197266 78.447266 L 62.214844 78.439453 L 65.609375 76.925781 L 65.628906 76.917969 L 65.648438 76.908203 L 66.291016 76.585938 L 65.400391 74.796875 z M 54.416016 78.964844 L 53.267578 79.236328 L 53.253906 79.240234 L 51.744141 79.521484 L 51.736328 79.523438 L 50.876953 79.634766 C 51.074952 80.285505 51.316323 80.925657 51.591797 81.558594 L 52.001953 81.505859 L 52.027344 81.501953 L 52.054688 81.496094 L 53.667969 81.197266 L 53.691406 81.193359 L 53.714844 81.1875 L 54.876953 80.912109 L 54.416016 78.964844 z "
   id="path1174-3-7" /><path
   style="color:#000000;font-style:normal;font-variant:normal;font-weight:normal;font-stretch:normal;font-size:medium;line-height:normal;font-family:sans-serif;font-variant-ligatures:normal;font-variant-position:normal;font-variant-caps:normal;font-variant-numeric:normal;font-variant-alternates:normal;font-feature-settings:normal;text-indent:0;text-align:start;text-decoration:none;text-decoration-line:none;text-decoration-style:solid;text-decoration-color:#000000;letter-spacing:normal;word-spacing:normal;text-transform:none;writing-mode:lr-tb;direction:ltr;text-orientation:mixed;dominant-baseline:auto;baseline-shift:baseline;text-anchor:start;white-space:normal;shape-padding:0;clip-rule:nonzero;display:inline;overflow:visible;visibility:visible;opacity:1;isolation:auto;mix-blend-mode:normal;color-interpolation:sRGB;color-interpolation-filters:linearRGB;solid-color:#000000;solid-opacity:1;vector-effect:none;fill:#00ff00;fill-opacity:1;fill-rule:evenodd;stroke:none;stroke-width:3.5;stroke-linecap:butt;stroke-linejoin:miter;stroke-miterlimit:4;stroke-dasharray:7, 3.5;stroke-dashoffset:3.5;stroke-opacity:1;color-rendering:auto;image-rendering:auto;shape-rendering:auto;text-rendering:auto;enable-background:accumulate"
   d="M 108.21875 44.533203 L 107.43359 44.544922 L 107.48828 48.044922 L 108.23047 48.033203 L 111.36914 48.109375 L 114.33398 48.3125 L 114.57227 44.820312 L 111.56055 44.615234 L 111.52344 44.611328 L 111.48438 44.611328 L 108.28906 44.533203 L 108.25391 44.533203 L 108.21875 44.533203 z M 103.82812 44.716797 L 103.12891 44.773438 L 103.0957 44.775391 L 103.06445 44.779297 L 101.375 44.974609 L 101.3418 44.978516 L 101.30664 44.984375 L 99.611328 45.248047 L 99.574219 45.253906 L 99.537109 45.261719 L 97.839844 45.601562 L 97.798828 45.609375 L 97.761719 45.619141 L 97.662109 45.644531 C 98.639971 46.598401 99.558689 47.609967 100.42578 48.664062 L 101.8457 48.443359 L 103.44141 48.259766 L 103.4668 48.255859 L 104.10547 48.207031 L 103.82812 44.716797 z M 118.15039 45.197266 L 117.71875 48.669922 L 119.77539 48.925781 L 119.77539 48.923828 L 124.20703 49.494141 L 124.24414 49.498047 L 124.28125 49.501953 L 124.73242 49.541016 L 125.0293 46.052734 L 124.61914 46.017578 L 120.21484 45.453125 L 120.21094 45.453125 L 120.20703 45.451172 L 118.15039 45.197266 z M 80.519531 55.375 L 78.453125 57.59375 L 81.013672 59.978516 L 83.429688 57.384766 L 83.439453 57.375 C 82.526295 56.623191 81.552508 55.951798 80.519531 55.375 z M 76.091797 60.224609 L 75.832031 60.515625 L 75.820312 60.527344 L 75.810547 60.541016 L 71.712891 65.302734 L 71.708984 65.308594 L 71.501953 65.544922 L 74.146484 67.839844 L 74.357422 67.595703 L 74.359375 67.59375 L 74.361328 67.589844 L 78.441406 62.847656 L 78.462891 62.822266 L 78.701172 62.558594 L 76.091797 60.224609 z M 69.208984 68.189453 L 68.275391 69.265625 L 68.267578 69.273438 L 66.675781 70.976562 L 66.660156 70.994141 L 65.169922 72.443359 L 64.509766 73.007812 L 66.78125 75.669922 L 67.488281 75.068359 L 67.53125 75.03125 L 67.572266 74.990234 L 69.160156 73.443359 L 69.191406 73.414062 L 69.21875 73.384766 L 70.833984 71.65625 L 70.855469 71.632812 L 70.876953 71.607422 L 71.851562 70.482422 L 69.208984 68.189453 z M 61.9375 74.947266 L 61.339844 75.310547 L 60.527344 75.753906 L 59.658203 76.167969 L 59.460938 76.25 L 59.460938 79.998047 L 59.988281 79.8125 L 60.03125 79.796875 L 60.074219 79.779297 L 61.050781 79.376953 L 61.09375 79.359375 L 61.134766 79.339844 L 62.070312 78.894531 L 62.111328 78.875 L 62.152344 78.853516 L 63.050781 78.365234 L 63.091797 78.34375 L 63.128906 78.320312 L 63.763672 77.931641 L 61.9375 74.947266 z "
   id="path1174-3" /><path
   style="color:#000000;font-style:normal;font-variant:normal;font-weight:normal;font-stretch:normal;font-size:medium;line-height:normal;font-family:sans-serif;font-variant-ligatures:normal;font-variant-position:normal;font-variant-caps:normal;font-variant-numeric:normal;font-variant-alternates:normal;font-feature-settings:normal;text-indent:0;text-align:start;text-decoration:none;text-decoration-line:none;text-decoration-style:solid;text-decoration-color:#000000;letter-spacing:normal;word-spacing:normal;text-transform:none;writing-mode:lr-tb;direction:ltr;text-orientation:mixed;dominant-baseline:auto;baseline-shift:baseline;text-anchor:start;white-space:normal;shape-padding:0;clip-rule:nonzero;display:inline;overflow:visible;visibility:visible;opacity:1;isolation:auto;mix-blend-mode:normal;color-interpolation:sRGB;color-interpolation-filters:linearRGB;solid-color:#000000;solid-opacity:1;vector-effect:none;fill:#00ff00;fill-opacity:1;fill-rule:evenodd;stroke:none;stroke-width:8;stroke-linecap:butt;stroke-linejoin:miter;stroke-miterlimit:4;stroke-dasharray:none;stroke-dashoffset:0;stroke-opacity:1;color-rendering:auto;image-rendering:auto;shape-rendering:auto;text-rendering:auto;enable-background:accumulate"
   d="M 127.12109 21.6875 C 126.79952 21.717048 125.95992 21.719307 125.17773 21.724609 L 125.17773 29.755859 C 126.14458 29.748429 127.04892 29.726276 127.85352 29.652344 L 127.12109 21.6875 z M 105.17773 22.849609 C 96.932237 24.139101 87.738287 26.969125 80.173828 33.326172 L 88.632812 33.326172 C 89.91366 33.326172 90.943359 34.041334 90.943359 34.927734 L 90.943359 35.650391 C 95.427319 33.244226 100.36617 31.793216 105.20508 30.939453 C 105.19468 30.877635 105.17773 30.817718 105.17773 30.753906 L 105.17773 22.849609 z M 70.744141 53.027344 C 70.385134 53.024794 70.025146 53.032187 69.666016 53.054688 C 68.304805 53.063316 66.987649 53.228666 65.720703 53.525391 C 64.201923 56.716349 62.899741 59.754923 61.621094 62.425781 C 60.899969 63.932078 60.182556 65.277731 59.460938 66.515625 C 59.478285 66.594944 59.496094 66.675039 59.496094 66.757812 L 59.496094 78.607422 C 60.352321 78.008381 61.151907 77.34986 61.876953 76.628906 C 64.907664 73.615307 66.931695 69.856518 68.835938 65.878906 C 70.770053 61.838894 72.588431 57.533123 74.804688 53.328125 C 74.800185 53.327334 74.795519 53.32696 74.791016 53.326172 L 73.255859 53.326172 C 72.784276 53.326172 72.347307 53.228976 71.982422 53.0625 C 71.927851 53.061665 71.875034 53.054999 71.820312 53.054688 C 71.46118 53.042388 71.103147 53.029894 70.744141 53.027344 z M 2.2226562 65.044922 C 1.369998 65.039907 0.49828945 65.044579 -0.39453125 65.060547 L -0.25 73.058594 C 1.1947675 73.032755 2.5604569 73.040125 3.8769531 73.068359 L 3.8769531 65.074219 C 3.3306134 65.062264 2.7859399 65.048235 2.2226562 65.044922 z M 23.876953 67.845703 L 23.876953 76.154297 C 25.103148 76.526717 26.300507 76.906879 27.455078 77.296875 C 29.077485 77.844898 30.671803 78.41033 32.283203 78.951172 C 32.064575 77.463949 31.950753 75.977268 31.990234 74.513672 C 31.922749 73.137858 31.947579 71.769965 32.044922 70.414062 C 31.362991 70.178714 30.740272 69.963524 30.015625 69.71875 C 28.135595 69.083706 26.094403 68.444474 23.876953 67.845703 z "
   id="path1174" /><rect
   style="opacity:1;fill:#ff00ff;fill-opacity:1;stroke:none;stroke-width:3"
   id="rect1145"
   width="15"
   height="15"
   x="6.3015518"
   y="64.003433"
   rx="1.734"
   ry="1.2" /><path
   style="opacity:1;fill:#ff00ff;fill-opacity:1;stroke:none;stroke-width:3"
   d="M 80.128906 36.046875 C 82.981232 36.755275 85.756769 37.771207 88.373047 39.115234 C 88.37568 39.116499 88.378226 39.117876 88.380859 39.119141 L 88.380859 37.246094 C 88.380859 36.581294 87.609073 36.046875 86.648438 36.046875 L 80.128906 36.046875 z "
   id="rect1145-7" /><path
   style="opacity:1;fill:#ff00ff;fill-opacity:1;stroke:none;stroke-width:3"
   d="M 51.144531 67.587891 C 49.545208 72.469975 49.655253 77.865986 52.082031 82.587891 L 54.960938 82.587891 C 55.921573 82.587891 56.693359 82.053472 56.693359 81.388672 L 56.693359 68.789062 C 56.693359 68.124262 55.921573 67.587891 54.960938 67.587891 L 51.144531 67.587891 z "
   id="rect1145-78" /><rect
   style="opacity:1;fill:#ff00ff;fill-opacity:1;stroke:none;stroke-width:3"
   id="rect1145-2"
   width="15"
   height="15"
   x="107.60796"
   y="14.999483"
   rx="1.734"
   ry="1.2" /><text
   xml:space="preserve"
   style="font-style:normal;font-variant:normal;font-weight:bold;font-stretch:normal;font-size:40px;line-height:1.25;font-family:Arial;-inkscape-font-specification:'Arial Bold';letter-spacing:0px;word-spacing:0px;fill:#00ff00;fill-opacity:1;stroke:none;stroke-width:1px;stroke-linecap:butt;stroke-linejoin:miter;stroke-opacity:1;"
   x="5"
   y="34.5"
   id="text1208"><tspan
     sodipodi:role="line"
     id="tspan1206"
     x="5"
     y="34.5"
     style="font-style:normal;font-variant:normal;font-weight:bold;font-stretch:normal;font-size:40px;font-family:Arial;-inkscape-font-specification:'Arial Bold';fill:#00ff00;">FIT</tspan></text>


<path
   inkscape:connector-curvature="0"
   d="m 29.199975,126.14834 17.62249,-17.6225 c 0.79539,-0.79539 1.23728,-1.8736 1.23728,-3.00482 v -2.88112 c 6.23945,4.87845 14.08739,7.77722 22.62466,7.77722 20.30916,0 36.765075,-16.455832 36.765075,-36.764995 0,-20.30918 -16.455915,-36.76508 -36.765075,-36.76508 -20.30917,0 -36.76508,16.4559 -36.76508,36.76508 0,8.537273 2.89878,16.385193 7.77724,22.624663 h -2.88112 c -1.13121,0 -2.20944,0.44189 -3.00483,1.23728 l -17.62249,17.622422 c -1.6615,1.66149 -1.6615,4.34818 0,5.992 l 5.00218,5.00218 c 1.66148,1.66149 4.34817,1.66149 6.00967,0.0176 z m 18.85977,-52.496215 c 0,-12.49659 10.1104,-22.62467 22.62466,-22.62467 12.49658,0 22.62465,10.1104 22.62465,22.62467 0,12.496593 -10.11038,22.624663 -22.62465,22.624663 -12.49658,0 -22.62466,-10.1104 -22.62466,-22.624663 z"
   id="path2"
   style="fill:#ff00ff;stroke:none;stroke-width:4.30000019;stroke-miterlimit:4;stroke-dasharray:none;stroke-opacity:1;paint-order:stroke fill markers" /></svg>