<?xml version="1.0" encoding="UTF-8" standalone="no"?>
<svg
   xmlns:dc="http://purl.org/dc/elements/1.1/"
   xmlns:cc="http://creativecommons.org/ns#"
   xmlns:rdf="http://www.w3.org/1999/02/22-rdf-syntax-ns#"
   xmlns:svg="http://www.w3.org/2000/svg"
   xmlns="http://www.w3.org/2000/svg"
   xmlns:sodipodi="http://sodipodi.sourceforge.net/DTD/sodipodi-0.dtd"
   xmlns:inkscape="http://www.inkscape.org/namespaces/inkscape"
   width="91.490349"
   height="84.452599"
   viewBox="0 0 91.490349 84.452599"
   id="svg2"
   version="1.1"
   inkscape:version="0.92.3 (2405546, 2018-03-11)"
   sodipodi:docname="data-manager.svg">
  <sodipodi:namedview
     pagecolor="#ffffff"
     bordercolor="#666666"
     borderopacity="1"
     objecttolerance="10"
     gridtolerance="10"
     guidetolerance="10"
     inkscape:pageopacity="0"
     inkscape:pageshadow="2"
     inkscape:window-width="1680"
     inkscape:window-height="1028"
     id="namedview6"
     showgrid="false"
     inkscape:zoom="0.37249375"
     inkscape:cx="978.46159"
     inkscape:cy="953.7016"
     inkscape:window-x="1672"
     inkscape:window-y="-8"
     inkscape:window-maximized="1"
     inkscape:current-layer="svg2"
     fit-margin-top="0"
     fit-margin-left="0"
     fit-margin-right="0"
     fit-margin-bottom="0" />
  <metadata
     id="metadata10">
    <rdf:RDF>
      <cc:Work
         rdf:about="">
        <dc:format>image/svg+xml</dc:format>
        <dc:type
           rdf:resource="http://purl.org/dc/dcmitype/StillImage" />
        <dc:title></dc:title>
      </cc:Work>
    </rdf:RDF>
  </metadata>
  <defs
     id="defs8" />
  <path
     id="path4326"
     d="m 56.301747,38.7074 q 0,-1.4295 -1.04466,-2.4742 -1.04466,-1.0446 -2.47419,-1.0446 h -14.07544 q -1.42954,0 -2.4742,1.0446 -1.04466,1.0447 -1.04466,2.4742 0,1.4296 1.04466,2.4742 1.04466,1.0447 2.4742,1.0447 h 14.07544 q 1.42953,0 2.47419,-1.0447 1.04466,-1.0446 1.04466,-2.4742 z m 31.66974,-10.5565 v 52.7828 q 0,1.4296 -1.04466,2.4742 -1.04466,1.0447 -2.4742,1.0447 H 7.037719 q -1.429537,0 -2.474198,-1.0447 Q 3.518859,82.3633 3.518859,80.9337 V 28.1509 q 0,-1.4296 1.044662,-2.4742 1.044661,-1.0447 2.474198,-1.0447 h 77.414908 q 1.42954,0 2.4742,1.0447 1.04466,1.0446 1.04466,2.4742 z m 3.51886,-24.6321 v 14.0755 q 0,1.4295 -1.04466,2.4742 -1.04466,1.0446 -2.4742,1.0446 H 3.518859 q -1.429536,0 -2.474198,-1.0446 Q 0,19.0238 0,17.5943 V 3.5188 Q 0,2.0893 1.044661,1.0446 2.089323,0 3.518859,0 h 84.452628 q 1.42954,0 2.4742,1.0446 1.04465,1.0447 1.04465,2.4742 z"
     inkscape:connector-curvature="0"
     style="fill:#000000;fill-opacity:1;stroke-width:0.05653269" />
</svg>
