/* XPM */
static char * btnClear_xpm[] = {
"13 9 52 1",
" 	c None",
".	c #B8B8B8",
"+	c #DEDEDE",
"@	c #BABABA",
"#	c #CCCCCC",
"$	c #C7C7C7",
"%	c #090909",
"&	c #080808",
"*	c #000000",
"=	c #0D0D0D",
"-	c #D4D4D4",
";	c #C3C3C3",
">	c #ECECEC",
",	c #FFFFFF",
"'	c #FCFCFC",
")	c #E6E6E6",
"!	c #0B0B0B",
"~	c #CFCFCF",
"{	c #DFDFDF",
"]	c #B5B5B5",
"^	c #FBFBFB",
"/	c #F5F5F5",
"(	c #CDCDCD",
"_	c #D5D5D5",
":	c #FEFEFE",
"<	c #FAFAFA",
"[	c #F4F4F4",
"}	c #0C0C0C",
"|	c #D8D8D8",
"1	c #050505",
"2	c #E1E1E1",
"3	c #F3F3F3",
"4	c #FDFDFD",
"5	c #CBCBCB",
"6	c #010101",
"7	c #040404",
"8	c #D1D1D1",
"9	c #E4E4E4",
"0	c #C9C9C9",
"a	c #D7D7D7",
"b	c #CECECE",
"c	c #EAEAEA",
"d	c #EEEEEE",
"e	c #F8F8F8",
"f	c #020202",
"g	c #DCDCDC",
"h	c #C8C8C8",
"i	c #D0D0D0",
"j	c #C1C1C1",
"k	c #0F0F0F",
"l	c #111111",
"m	c #BFBFBF",
".+@#$%&**=&**",
"-;+-%>,,'),!*",
"~{]*^,/,,,*(*",
";_*,:/,<[}#|1",
"2*34,'<<}(5*$",
"*=6*7*7*-8*9-",
"*,,:,,'10*_ab",
"}c,4de,f*ghij",
"*1*%kl**ambig"};
