/* XPM */
static const char * disabled_xpm[] = {
"16 16 2 1",
" 	c None",
".	c #FE0202",
"     ......     ",
"   ..........   ",
"  ...      ...  ",
" ...      ..... ",
" ..      ... .. ",
"..      ...   ..",
"..      ..    ..",
"..     ..     ..",
"..    ..      ..",
"..   ...      ..",
" .. ...      .. ",
" .....      ... ",
"  ...      ...  ",
"   ..........   ",
"     ......     ",
"                "};
