/* XPM */
static const char * redoarrow_xpm[] = {
"32 32 5 1",
" 	c None",
".	c #838183",
"+	c #00008B",
"@	c #000083",
"#	c #8B858B",
"                                ",
"                                ",
"                                ",
"                                ",
"                                ",
"                                ",
"                                ",
"                                ",
"                                ",
"                                ",
"         .+@+@+@                ",
"        @+@+@+@+@+      @       ",
"       .+@      +@+@   @+       ",
"       +@         @+@ @+@       ",
"       @+          @+@+@+       ",
"       +@           @+@+@       ",
"       @+          @+@+@+       ",
"       +@         @+@+@+@       ",
"       .+@       @+@+@+@+       ",
"        @+@#                    ",
"         @+@                    ",
"                                ",
"                                ",
"                                ",
"                                ",
"                                ",
"                                ",
"                                ",
"                                ",
"                                ",
"                                ",
"                                "};
