/* XPM */
static const char * series_import_xpm[] = {
"12 30 19 1",
" 	c None",
".	c #000000",
"+	c #FFFFFF",
"@	c #12E6FF",
"#	c #1A801A",
"$	c #313431",
"%	c #100C00",
"&	c #FFC700",
"*	c #524500",
"=	c #A45900",
"-	c #BD9A00",
";	c #8C6D00",
">	c #FFCB00",
",	c #8C6100",
"'	c #845D00",
")	c #BD9200",
"!	c #0024FF",
"~	c #5A3C00",
"{	c #535353",
"   .........",
"   .+++++++.",
"   .+@@@@@+.",
"   .+@###@+.",
"   .+@###@+.",
"   .+$%%#@+.",
"   .$%&*%=+.",
"   $%-&;%++.",
"   $%-&*%...",
"  $%-&&;%   ",
"  $%-&&*%   ",
" $%-&&&;%   ",
" $%-&&&*%   ",
"$%->&&&,%   ",
"$%->&&&'%   ",
" $%)&&&,%   ",
" $%)&&&'%   ",
"  $%)&&,%   ",
"  $%)&&'%...",
"   $%)&,%++.",
"   $%)&'%!+.",
"    $%&~%++.",
"    .$%%!!+.",
"    .++++++.",
"    .+!!!!+.",
"    .+++{{{.",
"    .+!!{{. ",
"    .+++{.  ",
"    .....   ",
"            "};
