/* XPM */
static const char * undoarrow_xpm[] = {
"32 32 5 1",
" 	c None",
".	c #00008B",
"+	c #000083",
"@	c #8B858B",
"#	c #838183",
"                                ",
"                                ",
"                                ",
"                                ",
"                                ",
"                                ",
"                                ",
"                                ",
"                                ",
"                                ",
"                .+.+.+@         ",
"       .      +.+.+.+.+.        ",
"       +.   .+.+      .+@       ",
"       .+. .+.         .+       ",
"       +.+.+.          +.       ",
"       .+.+.           .+       ",
"       +.+.+.          +.       ",
"       .+.+.+.         .+       ",
"       +.+.+.+.       .+@       ",
"                    #.+.        ",
"                    .+.         ",
"                                ",
"                                ",
"                                ",
"                                ",
"                                ",
"                                ",
"                                ",
"                                ",
"                                ",
"                                ",
"                                "};
