<?xml version="1.0" encoding="UTF-8" standalone="no"?>
<!-- Generator: Adobe Illustrator 19.1.0, SVG Export Plug-In . SVG Version: 6.00 Build 0)  -->

<svg
   version="1.0"
   id="Ebene_1"
   x="0px"
   y="0px"
   viewBox="0 0 128 128"
   style="enable-background:new 0 0 128 128;"
   xml:space="preserve"
   sodipodi:docname="undo_redo_view.svg"
   inkscape:version="1.3 (0e150ed6c4, 2023-07-21)"
   xmlns:inkscape="http://www.inkscape.org/namespaces/inkscape"
   xmlns:sodipodi="http://sodipodi.sourceforge.net/DTD/sodipodi-0.dtd"
   xmlns="http://www.w3.org/2000/svg"
   xmlns:svg="http://www.w3.org/2000/svg"
   xmlns:rdf="http://www.w3.org/1999/02/22-rdf-syntax-ns#"
   xmlns:cc="http://creativecommons.org/ns#"
   xmlns:dc="http://purl.org/dc/elements/1.1/"><metadata
   id="metadata49"><rdf:RDF><cc:Work
       rdf:about=""><dc:format>image/svg+xml</dc:format><dc:type
         rdf:resource="http://purl.org/dc/dcmitype/StillImage" /></cc:Work></rdf:RDF></metadata><defs
   id="defs47" /><sodipodi:namedview
   pagecolor="#ffffff"
   bordercolor="#666666"
   borderopacity="1"
   objecttolerance="10"
   gridtolerance="10"
   guidetolerance="10"
   inkscape:pageopacity="0"
   inkscape:pageshadow="2"
   inkscape:window-width="2560"
   inkscape:window-height="1369"
   id="namedview45"
   showgrid="false"
   inkscape:zoom="4.1799878"
   inkscape:cx="116.02905"
   inkscape:cy="52.75135"
   inkscape:window-x="-8"
   inkscape:window-y="-8"
   inkscape:window-maximized="1"
   inkscape:current-layer="g1"
   inkscape:showpageshadow="2"
   inkscape:pagecheckerboard="0"
   inkscape:deskcolor="#d1d1d1" />&#10;<style
   type="text/css"
   id="style2">&#10;	.st0{fill:#F39200;}&#10;	.st1{fill:#1D1D1B;}&#10;	.st2{fill:#FFFFFF;}&#10;	.st3{fill:none;stroke:#F39200;stroke-linecap:round;stroke-miterlimit:10;}&#10;	.st4{fill:#F39200;stroke:#F39200;stroke-width:0.25;stroke-miterlimit:10;}&#10;	.st5{fill:none;stroke:#1D1D1B;stroke-linecap:round;stroke-miterlimit:10;}&#10;	.st6{fill:#FFFFFF;stroke:#FFFFFF;stroke-width:4;stroke-linecap:round;stroke-linejoin:round;stroke-miterlimit:10;}&#10;	.st7{fill:none;stroke:#E6007E;stroke-linecap:round;stroke-miterlimit:10;}&#10;	.st8{fill:#009FE3;}&#10;	.st9{fill:#1C2E52;}&#10;	.st10{fill:#C0C5CD;}&#10;	.st11{fill:none;stroke:#1D1D1B;stroke-width:2;stroke-miterlimit:10;}&#10;	.st12{fill:none;stroke:#C0C5CD;stroke-width:2;stroke-miterlimit:10;}&#10;	.st13{fill:#0096AE;}&#10;	.st14{fill:none;stroke:#1D1D1B;stroke-width:7;stroke-miterlimit:10;}&#10;	.st15{fill:#1D1D1B;stroke:#1D1D1B;stroke-width:0.1;stroke-linecap:round;stroke-linejoin:round;stroke-miterlimit:10;}&#10;	.st16{fill:none;}&#10;	.st17{fill:none;stroke:#1D1C1B;stroke-width:2;stroke-linecap:round;stroke-linejoin:round;stroke-miterlimit:10;}&#10;	.st18{fill:#1D1D1B;stroke:#FFFFFF;stroke-width:2;stroke-linecap:round;stroke-linejoin:round;stroke-miterlimit:10;}&#10;	.st19{fill:none;stroke:#1D1D1B;stroke-width:2;stroke-linecap:round;stroke-linejoin:round;stroke-miterlimit:10;}&#10;	.st20{fill:#E71D73;}&#10;	.st21{fill:#F0F0F0;}&#10;	.st22{fill:#E6007E;}&#10;	.st23{fill:none;stroke:#1D1D1B;stroke-width:3;stroke-miterlimit:10;}&#10;	.st24{fill:none;stroke:#1D1D1B;stroke-width:5;stroke-miterlimit:10;}&#10;	.st25{fill:none;stroke:#1D1D1B;stroke-width:10;stroke-miterlimit:10;}&#10;	.st26{fill:none;stroke:#1D1D1B;stroke-width:6;stroke-miterlimit:10;}&#10;	.st27{fill:#009640;}&#10;	.st28{fill:none;stroke:#009FE3;stroke-width:5;stroke-linejoin:round;}&#10;	.st29{fill:none;stroke:#009FE3;stroke-width:3;stroke-linejoin:round;}&#10;	.st30{fill:none;stroke:#1D1D1B;stroke-width:5;stroke-linejoin:round;}&#10;	.st31{fill:#51509C;}&#10;	.st32{fill:none;stroke:#1D1D1B;stroke-miterlimit:10;}&#10;	.st33{fill:none;stroke:#FFFFFF;stroke-miterlimit:10;}&#10;	.st34{fill:none;stroke:#FFFFFF;stroke-width:2;stroke-miterlimit:10;}&#10;	.st35{fill:#1D1D1B;stroke:#FFFFFF;stroke-miterlimit:10;}&#10;	.st36{fill:#FFFFFF;stroke:#1D1D1B;stroke-miterlimit:10;}&#10;	.st37{fill:none;stroke:#1D1D1B;stroke-width:2;stroke-linecap:round;stroke-miterlimit:10;}&#10;	.st38{fill:#009C3E;}&#10;	.st39{fill:#E61883;}&#10;	.st40{fill:#1D1D1B;stroke:#FFFFFF;stroke-linecap:round;stroke-linejoin:round;stroke-miterlimit:10;}&#10;	.st41{fill:#1D1D1B;stroke:#1D1D1B;stroke-width:2;stroke-linecap:round;stroke-linejoin:round;stroke-miterlimit:10;}&#10;	.st42{fill:#FFFFFF;stroke:#FFFFFF;stroke-width:6;stroke-linecap:round;stroke-linejoin:round;stroke-miterlimit:10;}&#10;	.st43{fill:none;stroke:#1D1D1B;stroke-linecap:round;stroke-linejoin:round;stroke-miterlimit:10;}&#10;	.st44{fill:#1D1D1B;stroke:#1D1D1B;stroke-linecap:round;stroke-linejoin:round;stroke-miterlimit:10;}&#10;	.st45{fill:none;stroke:#1D1D1B;stroke-width:2;stroke-linecap:round;stroke-linejoin:round;}&#10;	.st46{fill:none;stroke:#FFFFFF;stroke-width:3;stroke-linecap:round;stroke-miterlimit:10;}&#10;	.st47{fill:none;stroke:#FFFFFF;stroke-width:2;stroke-linecap:round;stroke-miterlimit:10;}&#10;	.st48{fill:#FFFFFF;stroke:#FFFFFF;stroke-width:4;stroke-miterlimit:10;}&#10;	.st49{fill:none;stroke:#F39200;stroke-width:1.5;stroke-linecap:round;stroke-miterlimit:10;}&#10;	.st50{fill:#00FF00;}&#10;	.st51{fill:none;stroke:#1D1D1B;stroke-width:1.5;stroke-linecap:round;stroke-linejoin:round;}&#10;	.st52{fill:#FF00FF;}&#10;</style>&#10;&#10;&#10;&#10;&#10;&#10;&#10;&#10;&#10;&#10;&#10;&#10;<g
   id="g1"
   transform="translate(0.2221148,0.13217885)"><path
     d="m 2.3328804,15.02449 v 24.566416 c 0,0.950466 0.347271,1.773002 1.041878,2.467608 0.694601,0.694607 1.517137,1.041879 2.467608,1.041879 H 30.408782 c 1.535404,0 2.613857,-0.731124 3.235308,-2.19343 0.621455,-1.42573 0.365591,-2.686951 -0.767699,-3.783665 L 25.30906,29.555962 c 5.410476,-5.008315 11.789685,-7.512499 19.137673,-7.512499 3.801931,0 7.430246,0.740284 10.884901,2.220851 3.45465,1.480562 6.4432,3.482071 8.965646,6.004516 2.522445,2.52244 4.523948,5.51099 6.004515,8.965645 1.480563,3.45465 2.220846,7.082969 2.220846,10.884896 0,3.801926 -0.740283,7.430249 -2.220846,10.884899 -1.480567,3.45465 -3.48207,6.4432 -6.004515,8.96564 -2.522446,2.52245 -5.510996,4.52395 -8.965646,6.00452 -3.454655,1.48056 -7.08297,2.22084 -10.884901,2.22084 -4.350284,0 -8.462965,-0.95046 -12.338042,-2.85145 -3.875077,-1.90099 -7.146908,-4.58795 -9.815602,-8.06086 -0.255917,-0.36559 -0.676287,-0.58493 -1.26122,-0.65803 -0.511782,0 -0.968785,0.16451 -1.370894,0.49352 l -7.512499,7.56734 c -0.329015,0.29244 -0.50268,0.66718 -0.520941,1.12413 -0.01824,0.45695 0.118833,0.86822 0.411268,1.23381 3.984751,4.82554 8.810299,8.56353 14.47664,11.21391 5.666346,2.65037 11.643441,3.97559 17.93129,3.97559 5.702921,0 11.14992,-1.11498 16.341054,-3.34498 5.19114,-2.23001 9.669354,-5.22766 13.434763,-8.99307 3.765409,-3.7654 6.763056,-8.24362 8.993061,-13.43476 2.23001,-5.19113 3.344981,-10.63813 3.344981,-16.341049 0,-5.702921 -1.114971,-11.14992 -3.344981,-16.341055 C 80.985606,28.587177 77.987959,24.108963 74.22255,20.343555 70.457141,16.578151 65.978927,13.580499 60.787787,11.350494 55.596653,9.1204893 50.149654,8.0055123 44.446733,8.0055123 c -5.373901,0 -10.574142,1.014463 -15.600771,3.0433817 -5.026628,2.028925 -9.495741,4.88954 -13.407341,8.581798 l -7.1286459,-7.07381 c -1.06014,-1.133295 -2.3396787,-1.389155 -3.8385017,-0.767704 -1.425731,0.621455 -2.138593,1.699909 -2.138593,3.235312 z"
     id="path3"
     inkscape:connector-curvature="0"
     style="fill:#00ff00;fill-opacity:1;stroke-width:0.999998" /><path
     d="m 125.22289,42.521386 v 24.566416 c 0,0.950466 -0.34727,1.773002 -1.04188,2.467608 -0.6946,0.694607 -1.51713,1.041879 -2.46761,1.041879 H 97.146993 c -1.53541,0 -2.61386,-0.731124 -3.23531,-2.19343 -0.62145,-1.42573 -0.36559,-2.686951 0.7677,-3.783665 l 7.567327,-7.567336 c -5.410477,-5.008315 -11.789687,-7.512499 -19.13767,-7.512499 -3.801931,0 -7.430247,0.740284 -10.884897,2.220851 -3.45465,1.480562 -6.4432,3.482071 -8.96565,6.004516 -2.52245,2.52244 -4.52395,5.51099 -6.00452,8.965645 -1.48056,3.45465 -2.22084,7.082969 -2.22084,10.884896 0,3.801926 0.74028,7.430249 2.22084,10.884899 1.48057,3.45465 3.48207,6.4432 6.00452,8.96564 2.52245,2.52245 5.511,4.523954 8.96565,6.004524 3.45465,1.48056 7.082966,2.22084 10.884897,2.22084 4.350284,0 8.462963,-0.95046 12.338043,-2.85145 3.87508,-1.90099 7.146907,-4.587954 9.815597,-8.060864 0.25592,-0.36559 0.67629,-0.58493 1.26122,-0.65803 0.51178,0 0.96879,0.16451 1.37089,0.49352 l 7.5125,7.567344 c 0.32902,0.29244 0.50268,0.66718 0.52094,1.12413 0.0182,0.45695 -0.11883,0.86822 -0.41126,1.23381 -3.98475,4.82554 -8.8103,8.56353 -14.47664,11.21391 -5.666347,2.65037 -11.643437,3.97559 -17.93129,3.97559 -5.702921,0 -11.149917,-1.11498 -16.341057,-3.34498 -5.19114,-2.23001 -9.66935,-5.22766 -13.43476,-8.99307 -3.76541,-3.7654 -6.76306,-8.243624 -8.99306,-13.434764 -2.23001,-5.19113 -3.34498,-10.63813 -3.34498,-16.341049 0,-5.702921 1.11497,-11.14992 3.34498,-16.341055 2.23,-5.191139 5.22765,-9.669353 8.99306,-13.434761 3.76541,-3.765404 8.24362,-6.763056 13.43476,-8.993061 5.19114,-2.230005 10.638136,-3.344982 16.341057,-3.344982 5.373901,0 10.574143,1.014463 15.600773,3.043382 5.026627,2.028925 9.495737,4.88954 13.407337,8.581798 l 7.12864,-7.07381 c 1.06014,-1.133295 2.33968,-1.389155 3.83851,-0.767704 1.42573,0.621455 2.13859,1.699909 2.13859,3.235312 z"
     id="path3-8"
     inkscape:connector-curvature="0"
     style="fill:#ff00ff;fill-opacity:1;stroke-width:0.999998" /><path
     id="path3-2"
     style="fill:#00ff00;fill-opacity:1;stroke-width:0.999998"
     d="M 74.303276 20.428368 L 63.939995 29.928368 C 64.058383 30.042553 64.181013 30.151808 64.297416 30.268212 C 66.819859 32.790649 68.820757 35.780357 70.301323 39.235009 C 71.781884 42.689655 72.522026 46.317851 72.522026 50.119774 C 72.522026 53.548153 71.915399 56.833152 70.711479 59.979149 L 83.096245 66.719384 C 83.134569 66.631614 83.177504 66.5478 83.215385 66.459618 C 85.445393 61.268493 86.561088 55.822688 86.561088 50.119774 C 86.561088 44.416859 85.445393 38.969107 83.215385 33.777977 C 81.001592 28.62459 78.030214 24.176684 74.303276 20.428368 z " /></g></svg>
