<svg xmlns="http://www.w3.org/2000/svg" xmlns:xlink="http://www.w3.org/1999/xlink" viewBox="0 0 262.073 53.829" height="203.447" width="990.511" xmlns:v="https://vecta.io/nano"><style><![CDATA[.I{fill:#004d00}.J{stroke-linejoin:round}.K{fill:#4d0000}]]></style><g transform="matrix(1.191465 .047829 -.064688 1.611633 -16.234082 -66.349027)"><path d="M214.092 40.108l7.016-5.212-.2 6.114z" class="I"/><path d="M232.634 45.152l3.14.501-4.109 7.717z" class="K"/><g fill="#00254d"><path d="M231.598 53.438l-.738 6.444-.264 2.309-3.207-.768z"/><path d="M214.092 40.108l.267 9.622 17.239 3.708 1.27-10.457z"/><path d="M214.092 40.108l-15.201-2.305 1.169 8.853 4.176.802z"/></g><path d="M203.668 47.858l10.424-7.751.267 9.622-9.455 9.154z" class="I"/><path d="M200.06 46.656l4.176.802-.568.401 1.236 11.025-16.103-4.677z" class="K"/><path d="M205.873 68.171l5.98-7.083-6.949-2.205z" class="I"/><path d="M214.359 49.729l-9.455 9.154 20.513 6.047 6.181-11.493z" class="K"/><g fill="none" stroke-width=".577" class="J"><path d="M211.853 61.088l-5.98 7.083-2.205-20.312 17.439-12.963-.2 6.114" stroke="#00b000"/><path d="M200.06 46.656l-1.169-8.853 33.977 5.178-2.272 19.21-3.074-.835" stroke="#0080ff"/><path d="M200.06 46.656l-11.259 7.55 36.616 10.724 10.357-19.277-3.007-.434" stroke="#c00000"/></g><path stroke="#c00000" fill="#4a0000" d="M10.265 10.265h49.471v49.471H10.265z" transform="matrix(.837953 -.024868 .033634 .619491 7.391043 36.131644)" class="J"/><g fill="#c00000" transform="matrix(1.162098 -.034488 .046645 .859128 0 0)"><path d="M18.228 82.444l-.453-1.287h-1.771l-.453 1.287h-.802l1.724-4.652h.843l1.721 4.652zm-.65-1.939l-.44-1.268q-.025-.082-.073-.231-.048-.152-.095-.307-.048-.158-.079-.266-.032.13-.079.292-.044.158-.089.298-.041.139-.063.215l-.444 1.268zm2.776.146l-1.172-1.714h.849l.802 1.233.805-1.233h.846l-1.179 1.714 1.239 1.794h-.852l-.859-1.315-.862 1.315h-.846z"/><use xlink:href="#A"/><use xlink:href="#B"/><path d="M29.477 82.444h-.748v-4.931h.748z"/></g><g transform="translate(-.008 -.146)"><path stroke="#00b000" d="M65.5 10.5h49.471v49.471H65.5z" transform="matrix(.837953 -.024868 .033634 .619491 7.391043 36.131644)" class="I J"/><g fill-opacity=".992" fill="#00b000" transform="matrix(1.162098 -.034488 .046645 .859128 0 0)"><path d="M57.319 81.183q0 .412-.203.71-.2.298-.577.456-.374.158-.894.158-.254 0-.485-.029-.231-.029-.437-.082-.203-.057-.371-.136v-.716q.282.124.631.225.349.098.71.098.295 0 .488-.076.196-.079.292-.222.095-.146.095-.339 0-.206-.111-.349-.111-.143-.336-.26-.222-.12-.558-.257-.228-.092-.437-.209-.206-.117-.368-.276-.162-.158-.257-.374-.092-.219-.092-.513 0-.393.187-.672.19-.279.532-.428.345-.149.805-.149.364 0 .684.076.323.076.634.215l-.241.612q-.285-.117-.555-.187-.266-.07-.545-.07-.241 0-.409.073-.168.073-.257.206-.086.13-.086.311 0 .203.098.342.101.136.311.25.212.114.545.254.383.158.65.333.269.174.412.418.143.241.143.605z"/><use x="33.178" xlink:href="#B"/><path d="M62.909 84.003q-.713 0-1.093-.257-.38-.257-.38-.719 0-.323.203-.548.203-.222.58-.307-.143-.063-.247-.196-.101-.136-.101-.301 0-.196.111-.336.111-.139.333-.269-.276-.117-.444-.38-.165-.266-.165-.624 0-.38.162-.646.162-.269.472-.409.311-.143.751-.143.095 0 .206.013.114.01.209.025.098.013.149.029h1.214v.415l-.596.111q.086.12.136.276.051.152.051.333 0 .545-.377.859-.374.311-1.033.311-.158-.006-.307-.025-.114.07-.174.155-.06.082-.06.187 0 .086.06.139.06.051.177.076.12.025.292.025h.605q.577 0 .881.244.304.244.304.716 0 .599-.494.922-.494.326-1.423.326zm.029-.523q.39 0 .656-.076.266-.076.402-.219.136-.139.136-.333 0-.171-.086-.263-.086-.092-.257-.127-.171-.035-.425-.035h-.551q-.206 0-.364.063-.158.067-.247.19-.086.124-.086.298 0 .241.212.371.215.13.608.13zm.146-2.731q.326 0 .485-.177.158-.181.158-.507 0-.355-.165-.532-.162-.177-.482-.177-.314 0-.478.181-.162.181-.162.536 0 .32.162.501.165.177.482.177z"/><use x="42.355" xlink:href="#A"/><use xlink:href="#C"/><use x="2.573" xlink:href="#C"/><use x="47.501" xlink:href="#B"/><path d="M76.978 82.444h-.748v-4.931h.748z"/></g></g><g transform="translate(90.12 -36.947)"><path stroke="#0080ff" fill="#00254d" d="M10.5 65.5h49.471v49.471H10.5z" transform="matrix(.837953 -.024868 .033634 .619491 7.391043 36.131644)" class="J"/><g fill="#0080ff" transform="matrix(1.162098 -.034488 .046645 .859128 -.022247 -.409756)"><path d="M17.331 118.579q-.333 0-.596.12-.26.12-.44.349-.181.225-.276.548-.095.32-.095.722 0 .539.152.928.152.387.463.596.311.206.786.206.295 0 .574-.057.279-.057.577-.155v.646q-.282.111-.57.162-.288.051-.665.051-.71 0-1.179-.295-.466-.295-.697-.83-.228-.536-.228-1.255 0-.526.146-.963.146-.437.425-.754.279-.32.688-.491.412-.174.941-.174.349 0 .684.079.339.076.627.219l-.266.627q-.241-.114-.504-.196-.263-.082-.545-.082z"/><use xlink:href="#D"/><path d="M25.145 119.058q.089 0 .193.01.105.01.181.025l-.07.697q-.067-.019-.165-.028-.095-.01-.171-.01-.2 0-.38.067-.181.063-.32.196-.139.13-.219.326-.079.196-.079.456v1.835h-.748v-3.508h.583l.101.618h.035q.105-.187.26-.342.155-.155.355-.247.203-.095.444-.095z"/><use x="6.768" xlink:href="#D"/><path d="M31.965 119.058q.593 0 .922.307.333.304.333.979v2.288h-.745v-2.148q0-.409-.168-.612-.168-.206-.52-.206-.51 0-.71.314-.196.314-.196.909v1.743h-.745v-3.508h.58l.105.475h.041q.114-.184.282-.301.171-.12.38-.181.212-.06.44-.06z"/><use y="40.188" x="9.291" xlink:href="#B"/><path d="M38.768 122.632h-.748v-4.931h.748z"/></g></g><path d="M170.268 46.067l.182 3.357-14.471.429.367 6.762 14.471-.429.182 3.357 14.268-7.172z" fill="#f1f1f1"/></g><defs><path d="M23.897 78.936v3.508h-.745v-3.508zm-.368-1.344q.171 0 .295.092.127.092.127.317 0 .222-.127.317-.124.092-.295.092-.177 0-.301-.092-.12-.095-.12-.317 0-.225.12-.317.124-.092.301-.092z" id="A"/><path d="M26.34 78.87q.665 0 1.004.295.342.295.342.919v2.361h-.529l-.143-.497h-.025q-.149.19-.307.314-.158.124-.368.184-.206.063-.504.063-.314 0-.561-.114-.247-.117-.39-.355-.143-.238-.143-.602 0-.542.402-.814.406-.273 1.223-.301l.608-.022v-.184q0-.364-.171-.52-.168-.155-.475-.155-.263 0-.51.076-.247.076-.482.187l-.241-.526q.257-.136.583-.222.33-.086.684-.086zm.608 1.898l-.453.016q-.558.019-.783.19-.225.171-.225.469 0 .26.155.38.155.117.409.117.387 0 .64-.219.257-.222.257-.65z" id="B"/><path d="M68.625 81.905q.146 0 .288-.025.143-.029.26-.067v.564q-.124.054-.32.092-.196.038-.409.038-.298 0-.536-.098-.238-.101-.377-.345-.139-.244-.139-.675v-1.885h-.478v-.333l.513-.263.244-.751h.469v.78h1.004v.567H68.14v1.876q0 .266.133.396.133.13.352.13z" id="C"/><path d="M22.506 120.871q0 .437-.114.776-.114.339-.333.574-.219.231-.526.355-.307.12-.694.12-.361 0-.662-.12-.301-.124-.523-.355-.219-.234-.339-.574-.12-.339-.12-.776 0-.58.2-.982.203-.406.577-.618.374-.212.89-.212.485 0 .856.212.371.212.58.618.209.406.209.982zm-2.545 0q0 .383.092.656.095.273.292.418.196.143.507.143.311 0 .507-.143.196-.146.288-.418.092-.273.092-.656 0-.383-.092-.65-.092-.269-.288-.409-.196-.143-.51-.143-.463 0-.675.311-.212.311-.212.89z" id="D"/></defs></svg>