<?xml version="1.0" encoding="UTF-8" standalone="no"?>
<svg
   xmlns:dc="http://purl.org/dc/elements/1.1/"
   xmlns:cc="http://creativecommons.org/ns#"
   xmlns:rdf="http://www.w3.org/1999/02/22-rdf-syntax-ns#"
   xmlns:svg="http://www.w3.org/2000/svg"
   xmlns="http://www.w3.org/2000/svg"
   xmlns:xlink="http://www.w3.org/1999/xlink"
   xmlns:sodipodi="http://sodipodi.sourceforge.net/DTD/sodipodi-0.dtd"
   xmlns:inkscape="http://www.inkscape.org/namespaces/inkscape"
   inkscape:version="1.0 (4035a4fb49, 2020-05-01)"
   sodipodi:docname="crosshair.svg"
   id="svg94"
   version="1.1"
   viewBox="0 0 262.07287 53.82867"
   height="203.44653"
   width="990.51135">
  <metadata
     id="metadata98">
    <rdf:RDF>
      <cc:Work
         rdf:about="">
        <dc:format>image/svg+xml</dc:format>
        <dc:type
           rdf:resource="http://purl.org/dc/dcmitype/StillImage" />
      </cc:Work>
    </rdf:RDF>
  </metadata>
  <sodipodi:namedview
     inkscape:current-layer="g86"
     inkscape:window-maximized="1"
     inkscape:window-y="-8"
     inkscape:window-x="-8"
     inkscape:cy="155.15508"
     inkscape:cx="330.65032"
     inkscape:zoom="2.5207802"
     showgrid="false"
     id="namedview96"
     inkscape:window-height="1377"
     inkscape:window-width="2560"
     inkscape:pageshadow="2"
     inkscape:pageopacity="0"
     guidetolerance="10"
     gridtolerance="10"
     objecttolerance="10"
     borderopacity="1"
     bordercolor="#666666"
     pagecolor="#ffffff"
     inkscape:document-rotation="0" />
  <style
     id="style2"><![CDATA[.B{fill:#004d00}.C{stroke-linejoin:round}.D{fill:#4d0000}.E{stroke-width:1}]]></style>
  <g
     id="g86"
     transform="matrix(1.191465,0.047829,-0.064688,1.611633,-16.234082,-66.349027)">
    <g
       transform="translate(-0.25577904,-9.3710345)"
       id="g937">
      <path
         d="m 214.34752,49.478589 7.016,-5.212 -0.2,6.114 z"
         class="B"
         id="path4" />
      <path
         d="m 232.88952,54.522589 3.14,0.501 -4.109,7.717 z"
         class="D"
         id="path6" />
      <g
         fill="#00254d"
         id="g14"
         transform="translate(35.337521,8.3295886)">
        <path
           d="m 196.516,54.479 -0.738,6.444 -0.264,2.309 -3.207,-0.768 z"
           id="path8" />
        <path
           d="m 179.01,41.149 0.267,9.622 17.239,3.708 1.27,-10.457 z"
           id="path10" />
        <path
           d="m 179.01,41.149 -15.201,-2.305 1.169,8.853 4.176,0.802 z"
           id="path12" />
      </g>
      <path
         d="m 203.92352,57.228589 10.424,-7.751 0.267,9.622 -9.455,9.154 z"
         class="B"
         id="path16" />
      <path
         d="m 200.31552,56.026589 4.176,0.802 -0.568,0.401 1.236,11.025 -16.103,-4.677 z"
         class="D"
         id="path18" />
      <path
         d="m 206.12852,77.541589 5.98,-7.083 -6.949,-2.205 z"
         class="B"
         id="path20" />
      <path
         d="m 214.61452,59.099589 -9.455,9.154 20.513,6.047 6.181,-11.493 z"
         class="D"
         id="path22" />
      <g
         fill="none"
         stroke-width="0.577"
         class="C"
         id="g30"
         transform="translate(35.337521,8.3295886)">
        <path
           d="m 176.771,62.129 -5.98,7.083 -2.205,-20.312 17.439,-12.963 -0.2,6.114"
           stroke="#00b000"
           id="path24" />
        <path
           d="m 164.978,47.697 -1.169,-8.853 33.977,5.178 -2.272,19.21 -3.074,-0.835"
           stroke="#0080ff"
           id="path26" />
        <path
           d="m 164.978,47.697 -11.259,7.55 36.616,10.724 10.357,-19.277 -3.007,-0.434"
           stroke="#c00000"
           id="path28" />
      </g>
    </g>
    <path
       id="path32"
       class="C E"
       stroke="#c00000"
       fill="#4a0000"
       d="M 10.265,10.265 H 59.736 V 59.736 H 10.265 Z"
       transform="matrix(0.837953,-0.024868,0.033634,0.619491,7.391043,36.131644)" />
    <g
       id="g42"
       fill="#c00000"
       transform="matrix(1.162098,-0.034488,0.046645,0.859128,0,0)">
      <path
         id="path34"
         d="m 18.228,82.444 -0.453,-1.287 h -1.771 l -0.453,1.287 h -0.802 l 1.724,-4.652 h 0.843 l 1.721,4.652 z m -0.65,-1.939 -0.44,-1.268 q -0.025,-0.082 -0.073,-0.231 -0.048,-0.152 -0.095,-0.307 -0.048,-0.158 -0.079,-0.266 -0.032,0.13 -0.079,0.292 -0.044,0.158 -0.089,0.298 -0.041,0.139 -0.063,0.215 l -0.444,1.268 z m 2.776,0.146 -1.172,-1.714 h 0.849 l 0.802,1.233 0.805,-1.233 h 0.846 l -1.179,1.714 1.239,1.794 h -0.852 l -0.859,-1.315 -0.862,1.315 h -0.846 z" />
      <use
         height="100%"
         width="100%"
         y="0"
         x="0"
         id="use36"
         xlink:href="#B" />
      <use
         height="100%"
         width="100%"
         y="0"
         x="0"
         id="use38"
         xlink:href="#C" />
      <path
         id="path40"
         d="m 29.477,82.444 h -0.748 v -4.931 h 0.748 z" />
    </g>
    <g
       id="g64"
       transform="translate(-0.008,-0.146)">
      <path
         id="path44"
         class="B C E"
         stroke="#00b000"
         d="m 65.5,10.5 h 49.471 V 59.971 H 65.5 Z"
         transform="matrix(0.837953,-0.024868,0.033634,0.619491,7.391043,36.131644)" />
      <g
         id="g62"
         fill-opacity="0.992"
         fill="#00b000"
         transform="matrix(1.162098,-0.034488,0.046645,0.859128,0,0)">
        <path
           id="path46"
           d="m 57.319,81.183 q 0,0.412 -0.203,0.71 -0.2,0.298 -0.577,0.456 -0.374,0.158 -0.894,0.158 -0.254,0 -0.485,-0.029 -0.231,-0.029 -0.437,-0.082 -0.203,-0.057 -0.371,-0.136 v -0.716 q 0.282,0.124 0.631,0.225 0.349,0.098 0.71,0.098 0.295,0 0.488,-0.076 0.196,-0.079 0.292,-0.222 0.095,-0.146 0.095,-0.339 0,-0.206 -0.111,-0.349 -0.111,-0.143 -0.336,-0.26 -0.222,-0.12 -0.558,-0.257 -0.228,-0.092 -0.437,-0.209 -0.206,-0.117 -0.368,-0.276 -0.162,-0.158 -0.257,-0.374 -0.092,-0.219 -0.092,-0.513 0,-0.393 0.187,-0.672 0.19,-0.279 0.532,-0.428 0.345,-0.149 0.805,-0.149 0.364,0 0.684,0.076 0.323,0.076 0.634,0.215 l -0.241,0.612 q -0.285,-0.117 -0.555,-0.187 -0.266,-0.07 -0.545,-0.07 -0.241,0 -0.409,0.073 -0.168,0.073 -0.257,0.206 -0.086,0.13 -0.086,0.311 0,0.203 0.098,0.342 0.101,0.136 0.311,0.25 0.212,0.114 0.545,0.254 0.383,0.158 0.65,0.333 0.269,0.174 0.412,0.418 0.143,0.241 0.143,0.605 z" />
        <use
           height="100%"
           width="100%"
           y="0"
           id="use48"
           x="33.178001"
           xlink:href="#C" />
        <path
           id="path50"
           d="m 62.909,84.003 q -0.713,0 -1.093,-0.257 -0.38,-0.257 -0.38,-0.719 0,-0.323 0.203,-0.548 0.203,-0.222 0.58,-0.307 -0.143,-0.063 -0.247,-0.196 -0.101,-0.136 -0.101,-0.301 0,-0.196 0.111,-0.336 0.111,-0.139 0.333,-0.269 -0.276,-0.117 -0.444,-0.38 -0.165,-0.266 -0.165,-0.624 0,-0.38 0.162,-0.646 0.162,-0.269 0.472,-0.409 0.311,-0.143 0.751,-0.143 0.095,0 0.206,0.013 0.114,0.01 0.209,0.025 0.098,0.013 0.149,0.029 h 1.214 v 0.415 l -0.596,0.111 q 0.086,0.12 0.136,0.276 0.051,0.152 0.051,0.333 0,0.545 -0.377,0.859 -0.374,0.311 -1.033,0.311 -0.158,-0.006 -0.307,-0.025 -0.114,0.07 -0.174,0.155 -0.06,0.082 -0.06,0.187 0,0.086 0.06,0.139 0.06,0.051 0.177,0.076 0.12,0.025 0.292,0.025 h 0.605 q 0.577,0 0.881,0.244 0.304,0.244 0.304,0.716 0,0.599 -0.494,0.922 -0.494,0.326 -1.423,0.326 z m 0.029,-0.523 q 0.39,0 0.656,-0.076 0.266,-0.076 0.402,-0.219 0.136,-0.139 0.136,-0.333 0,-0.171 -0.086,-0.263 -0.086,-0.092 -0.257,-0.127 -0.171,-0.035 -0.425,-0.035 h -0.551 q -0.206,0 -0.364,0.063 -0.158,0.067 -0.247,0.19 -0.086,0.124 -0.086,0.298 0,0.241 0.212,0.371 0.215,0.13 0.608,0.13 z m 0.146,-2.731 q 0.326,0 0.485,-0.177 0.158,-0.181 0.158,-0.507 0,-0.355 -0.165,-0.532 -0.162,-0.177 -0.482,-0.177 -0.314,0 -0.478,0.181 -0.162,0.181 -0.162,0.536 0,0.32 0.162,0.501 0.165,0.177 0.482,0.177 z" />
        <use
           height="100%"
           width="100%"
           y="0"
           id="use52"
           x="42.355"
           xlink:href="#B" />
        <use
           height="100%"
           width="100%"
           y="0"
           x="0"
           id="use54"
           xlink:href="#D" />
        <use
           height="100%"
           width="100%"
           y="0"
           id="use56"
           x="2.573"
           xlink:href="#D" />
        <use
           height="100%"
           width="100%"
           y="0"
           id="use58"
           x="47.500999"
           xlink:href="#C" />
        <path
           id="path60"
           d="M 76.978,82.444 H 76.23 v -4.931 h 0.748 z" />
      </g>
    </g>
    <g
       id="g84"
       transform="translate(90.12,-36.947)">
      <path
         id="path66"
         class="C E"
         stroke="#0080ff"
         fill="#00254d"
         d="m 10.5,65.5 h 49.471 v 49.471 H 10.5 Z"
         transform="matrix(0.837953,-0.024868,0.033634,0.619491,7.391043,36.131644)" />
      <g
         id="g82"
         fill="#0080ff"
         transform="matrix(1.162098,-0.034488,0.046645,0.859128,-0.02224685,-0.40975601)">
        <path
           id="path68"
           d="m 17.331,118.579 q -0.333,0 -0.596,0.12 -0.26,0.12 -0.44,0.349 -0.181,0.225 -0.276,0.548 -0.095,0.32 -0.095,0.722 0,0.539 0.152,0.928 0.152,0.387 0.463,0.596 0.311,0.206 0.786,0.206 0.295,0 0.574,-0.057 0.279,-0.057 0.577,-0.155 v 0.646 q -0.282,0.111 -0.57,0.162 -0.288,0.051 -0.665,0.051 -0.71,0 -1.179,-0.295 -0.466,-0.295 -0.697,-0.83 -0.228,-0.536 -0.228,-1.255 0,-0.526 0.146,-0.963 0.146,-0.437 0.425,-0.754 0.279,-0.32 0.688,-0.491 0.412,-0.174 0.941,-0.174 0.349,0 0.684,0.079 0.339,0.076 0.627,0.219 l -0.266,0.627 q -0.241,-0.114 -0.504,-0.196 -0.263,-0.082 -0.545,-0.082 z" />
        <use
           height="100%"
           width="100%"
           y="0"
           x="0"
           id="use70"
           xlink:href="#E" />
        <path
           id="path72"
           d="m 25.145,119.058 q 0.089,0 0.193,0.01 0.105,0.01 0.181,0.025 l -0.07,0.697 q -0.067,-0.019 -0.165,-0.028 -0.095,-0.01 -0.171,-0.01 -0.2,0 -0.38,0.067 -0.181,0.063 -0.32,0.196 -0.139,0.13 -0.219,0.326 -0.079,0.196 -0.079,0.456 v 1.835 h -0.748 v -3.508 h 0.583 l 0.101,0.618 h 0.035 q 0.105,-0.187 0.26,-0.342 0.155,-0.155 0.355,-0.247 0.203,-0.095 0.444,-0.095 z" />
        <use
           height="100%"
           width="100%"
           y="0"
           id="use74"
           x="6.7680001"
           xlink:href="#E" />
        <path
           id="path76"
           d="m 31.965,119.058 q 0.593,0 0.922,0.307 0.333,0.304 0.333,0.979 v 2.288 h -0.745 v -2.148 q 0,-0.409 -0.168,-0.612 -0.168,-0.206 -0.52,-0.206 -0.51,0 -0.71,0.314 -0.196,0.314 -0.196,0.909 v 1.743 h -0.745 v -3.508 h 0.58 l 0.105,0.475 h 0.041 q 0.114,-0.184 0.282,-0.301 0.171,-0.12 0.38,-0.181 0.212,-0.06 0.44,-0.06 z" />
        <use
           height="100%"
           width="100%"
           id="use78"
           y="40.188"
           x="9.2910004"
           xlink:href="#C" />
        <path
           id="path80"
           d="M 38.768,122.632 H 38.02 v -4.931 h 0.748 z" />
      </g>
    </g>
    <path
       d="m 170.26843,46.066781 0.18225,3.356831 -14.47126,0.429469 0.36713,6.762132 14.47126,-0.429468 0.18225,3.35683 14.26827,-7.172038 z"
       style="fill:#f1f1f1;fill-opacity:1;stroke:none;stroke-width:0.144214;stroke-linecap:round;stroke-linejoin:round"
       id="rect939"
       sodipodi:nodetypes="cccccccc" />
  </g>
  <defs
     id="defs92">
    <path
       d="m 23.897,78.936 v 3.508 h -0.745 v -3.508 z m -0.368,-1.344 q 0.171,0 0.295,0.092 0.127,0.092 0.127,0.317 0,0.222 -0.127,0.317 -0.124,0.092 -0.295,0.092 -0.177,0 -0.301,-0.092 -0.12,-0.095 -0.12,-0.317 0,-0.225 0.12,-0.317 0.124,-0.092 0.301,-0.092 z"
       id="B" />
    <path
       d="m 26.34,78.87 q 0.665,0 1.004,0.295 0.342,0.295 0.342,0.919 v 2.361 h -0.529 l -0.143,-0.497 h -0.025 q -0.149,0.19 -0.307,0.314 -0.158,0.124 -0.368,0.184 -0.206,0.063 -0.504,0.063 -0.314,0 -0.561,-0.114 -0.247,-0.117 -0.39,-0.355 -0.143,-0.238 -0.143,-0.602 0,-0.542 0.402,-0.814 0.406,-0.273 1.223,-0.301 l 0.608,-0.022 v -0.184 q 0,-0.364 -0.171,-0.52 -0.168,-0.155 -0.475,-0.155 -0.263,0 -0.51,0.076 -0.247,0.076 -0.482,0.187 L 25.07,79.179 q 0.257,-0.136 0.583,-0.222 0.33,-0.086 0.684,-0.086 z m 0.608,1.898 -0.453,0.016 q -0.558,0.019 -0.783,0.19 -0.225,0.171 -0.225,0.469 0,0.26 0.155,0.38 0.155,0.117 0.409,0.117 0.387,0 0.64,-0.219 0.257,-0.222 0.257,-0.65 z"
       id="C" />
    <path
       d="m 68.625,81.905 q 0.146,0 0.288,-0.025 0.143,-0.029 0.26,-0.067 v 0.564 q -0.124,0.054 -0.32,0.092 -0.196,0.038 -0.409,0.038 -0.298,0 -0.536,-0.098 -0.238,-0.101 -0.377,-0.345 -0.139,-0.244 -0.139,-0.675 v -1.885 h -0.478 v -0.333 l 0.513,-0.263 0.244,-0.751 h 0.469 v 0.78 h 1.004 v 0.567 H 68.14 v 1.876 q 0,0.266 0.133,0.396 0.133,0.13 0.352,0.13 z"
       id="D" />
    <path
       d="m 22.506,120.871 q 0,0.437 -0.114,0.776 -0.114,0.339 -0.333,0.574 -0.219,0.231 -0.526,0.355 -0.307,0.12 -0.694,0.12 -0.361,0 -0.662,-0.12 -0.301,-0.124 -0.523,-0.355 -0.219,-0.234 -0.339,-0.574 -0.12,-0.339 -0.12,-0.776 0,-0.58 0.2,-0.982 0.203,-0.406 0.577,-0.618 0.374,-0.212 0.89,-0.212 0.485,0 0.856,0.212 0.371,0.212 0.58,0.618 0.209,0.406 0.209,0.982 z m -2.545,0 q 0,0.383 0.092,0.656 0.095,0.273 0.292,0.418 0.196,0.143 0.507,0.143 0.311,0 0.507,-0.143 0.196,-0.146 0.288,-0.418 0.092,-0.273 0.092,-0.656 0,-0.383 -0.092,-0.65 -0.092,-0.269 -0.288,-0.409 -0.196,-0.143 -0.51,-0.143 -0.463,0 -0.675,0.311 -0.212,0.311 -0.212,0.89 z"
       id="E" />
  </defs>
</svg>
