<svg xmlns="http://www.w3.org/2000/svg" viewBox="0 0 110 110" height="415.748" width="415.748" xmlns:v="https://vecta.io/nano"><style><![CDATA[.B{stroke:#000}.C{stroke-linejoin:round}.D{stroke-width:1.009}]]></style><g transform="matrix(.991287 0 0 .991287 -210.21991 -66.025765)" class="B C"><g transform="translate(24.871 -1.043)"><path d="M212.821 120.093v23.094c0 15.024 12.095 27.12 27.12 27.12h5.48c15.024 0 27.12-12.095 27.12-27.12v-23.065c-19.403 3.515-39.31 3.609-59.72-.029zm31.481-32.752v31.442c9.531-.082 18.94-1.004 28.239-2.731v-1.592c0-15.024-12.095-27.12-27.12-27.12zm-4.361 0c-15.024 0-27.12 12.095-27.12 27.12v1.566c9.276 1.692 18.434 2.596 27.482 2.742V87.341z" fill="#fff" class="D"/><g fill="#df2121"><rect width="7.558" height="23.622" x="238.524" y="91.594" ry="3.779" class="D"/><g stroke-width="1.522"><path d="M246.823 78.043l-22.302-5.298 15.739-16.665z" transform="matrix(.645836 -.153738 .15424 .643736 78.431557 73.118732)"/><path transform="matrix(.645836 .153738 .15424 -.643736 78.431559 133.27609)" d="M246.823 78.043l-22.302-5.298 15.739-16.665z"/></g></g></g></g></svg>
