<svg xmlns="http://www.w3.org/2000/svg" viewBox="0 0 110 110" height="415.748" width="415.748" xmlns:v="https://vecta.io/nano"><g transform="matrix(.991287 0 0 .991287 25.614991 -66.025749)"><g transform="translate(-76.155)" stroke="#000" stroke-linejoin="round"><g stroke-width="1.009"><path d="M75.938 119.532v23.094c0 15.024 12.095 27.12 27.12 27.12h5.48c15.024 0 27.12-12.095 27.12-27.12v-23.065c-19.403 3.515-39.31 3.609-59.72-.029z" fill="#fff"/><path d="M107.42 86.781v31.442a161.97 161.97 0 0 0 28.239-2.731V113.9c0-15.024-12.095-27.12-27.12-27.12z" fill="#df2121"/><g fill="#fff"><path d="M103.058 86.781c-15.024 0-27.12 12.095-27.12 27.12v1.566c9.276 1.692 18.434 2.596 27.482 2.742V86.781z"/><rect ry="3.779" y="91.034" x="101.641" height="23.622" width="7.558"/></g></g><g stroke-width="1.522" fill="#df2121"><path d="M246.823 78.043l-22.302-5.298 15.739-16.665z" transform="matrix(.645836 -.153738 .15424 .643736 -58.797323 130.81758)"/><path transform="matrix(.645836 .153738 .15424 -.643736 -58.797313 159.75391)" d="M246.823 78.043l-22.302-5.298 15.739-16.665z"/></g></g></g></svg>
