/* XPM */
static char *ImageProcessing___[] = {
/* columns rows colors chars-per-pixel */
"81 48 225 2",
"   c #2E3436",
".  c #2F3436",
"X  c #2F3437",
"o  c #2F3537",
"O  c #313435",
"+  c #303537",
"@  c #303637",
"#  c #343436",
"$  c #363436",
"%  c #3B3237",
"&  c #3E3337",
"*  c #303538",
"=  c #313739",
"-  c #323638",
";  c #343639",
":  c #343739",
">  c #353739",
",  c #363739",
"<  c #36363A",
"1  c #37363A",
"2  c #39373A",
"3  c #3D373B",
"4  c #33393B",
"5  c #3D3A3D",
"6  c #383D3F",
"7  c #562F3A",
"8  c #5F2F3C",
"9  c #423237",
"0  c #413238",
"q  c #4A3138",
"w  c #41393D",
"e  c #42383D",
"r  c #42383E",
"t  c #43393E",
"y  c #45393E",
"u  c #46393E",
"i  c #47393F",
"p  c #48393F",
"a  c #4A3A3F",
"s  c #58303B",
"d  c #652F3B",
"f  c #632F3C",
"g  c #6A2D3D",
"h  c #682E3D",
"j  c #732D3F",
"k  c #752D3F",
"l  c #742E3F",
"z  c #393E40",
"x  c #513A41",
"c  c #523A41",
"v  c #543A42",
"b  c #553B43",
"n  c #563A42",
"m  c #573A42",
"M  c #593A43",
"N  c #5A3B44",
"B  c #5B3B44",
"V  c #5D3B44",
"C  c #7A2C40",
"Z  c #633B45",
"A  c #673A45",
"S  c #643A46",
"D  c #663A46",
"F  c #6A3946",
"G  c #6C3946",
"H  c #6F3847",
"J  c #6F3947",
"K  c #753646",
"L  c #763747",
"P  c #703947",
"I  c #723947",
"U  c #7E3648",
"Y  c #3F4345",
"T  c #404547",
"R  c #424748",
"E  c #424749",
"W  c #434749",
"Q  c #434849",
"!  c #43484A",
"~  c #45494A",
"^  c #474B4D",
"/  c #484A4C",
"(  c #535657",
")  c #5F5155",
"_  c #5B5658",
"`  c #565859",
"'  c #56595A",
"]  c #57595A",
"[  c #575A5B",
"{  c #5C5F60",
"}  c #625E60",
"|  c #625F61",
" . c #606263",
".. c #626265",
"X. c gray40",
"o. c #696063",
"O. c #6A6366",
"+. c #6B6366",
"@. c #6C6265",
"#. c #6C6467",
"$. c #666768",
"%. c #656869",
"&. c #666869",
"*. c #686868",
"=. c DimGray",
"-. c #68696A",
";. c #69696A",
":. c #696A6A",
">. c #696A6B",
",. c #6A6C6C",
"<. c #6C6C6C",
"1. c #6C6D6E",
"2. c #6D6F6F",
"3. c #6E6E6F",
"4. c #6E6F6F",
"5. c #7A696D",
"6. c #6F6E71",
"7. c #7B6B70",
"8. c #717272",
"9. c #717273",
"0. c #717373",
"q. c #777274",
"w. c #737474",
"e. c #737475",
"r. c #757677",
"t. c #757777",
"y. c #767777",
"u. c #7C7274",
"i. c #7C7376",
"p. c #787577",
"a. c #797577",
"s. c #777879",
"d. c #787979",
"f. c #7C7E7E",
"g. c #7E7F7F",
"h. c #852B41",
"j. c #862A42",
"k. c #882B41",
"l. c #8D2B43",
"z. c #9F2E49",
"x. c #9D2F4A",
"c. c #863348",
"v. c #833648",
"b. c #873549",
"n. c #8B3349",
"m. c #8F3249",
"M. c #8C334A",
"N. c #883448",
"B. c #A12E49",
"V. c #A12D4A",
"C. c #A42D4A",
"Z. c #A52D4B",
"A. c #A72C4A",
"S. c #A82C4A",
"D. c #A92C4A",
"F. c #AA2C4A",
"G. c #AC2C4A",
"H. c #B62749",
"J. c #B8264A",
"K. c #BA274B",
"L. c #BB274B",
"P. c #BC264A",
"I. c #BD264B",
"U. c #BC274B",
"Y. c #BE264B",
"T. c #BF264B",
"R. c #BE274B",
"E. c #B4294A",
"W. c #B6284A",
"Q. c #B42A4B",
"!. c #B8284B",
"~. c #B9284B",
"^. c #BB284B",
"/. c #B53453",
"(. c #87515E",
"). c #81545F",
"_. c #89505E",
"`. c #8A5863",
"'. c #92636D",
"]. c #846970",
"[. c #856B71",
"{. c #867279",
"}. c #80777A",
"|. c #86777B",
" X c #89747A",
".X c #87787B",
"XX c #897A7E",
"oX c #8D7A7F",
"OX c #8F7A7F",
"+X c #897C7F",
"@X c #9F707A",
"#X c #7E7F80",
"$X c #837F81",
"%X c #847F81",
"&X c #8B7B80",
"*X c #8D7B80",
"=X c #7E8080",
"-X c #7F8081",
";X c #808181",
":X c #808282",
">X c #828383",
",X c #828284",
"<X c #848385",
"1X c #838484",
"2X c #838485",
"3X c #848485",
"4X c #878485",
"5X c #8C888B",
"6X c #9D9D9E",
"7X c #BB8A94",
"8X c #A2A2A2",
"9X c gray65",
"0X c #A9A9A9",
"qX c gray67",
"wX c gray68",
"eX c #AEAEAE",
"rX c gray70",
"tX c #C1949D",
"yX c #C3949D",
"uX c #C5959F",
"iX c #CA96A1",
"pX c #CF98A3",
"aX c gray79",
"sX c #E1D0DA",
"dX c None",
/* pixels */
"dXdXdXdXdXdXdXdXdXdXdXdXdXdXdXdXdXdXdXdXdXdXdXdXdXdXdXdXdXdXdXdXdXdXdXdXdXdXdXdXdXdXdXdXdXdXdXdXdXdXdXdXdXdXdXdXdXdXdXdXdXdXdXdXdXdXdXdXdXdXdXdXdXdXdXdXdXdXdXdXdX",
"dXdXdXdXdXdXdXdXdXdXdXdXdXdXdXdXdXdXdXdXdXdXdXdXdXdXdXdXdXdXdXdXdXdXdXdXdXdXdXdXdXdXdXdXdXdXdXdXdXdXdXdXdXdXdXdXdXdXdXdXdXdXdXdXdXdXdXdXdXdXdXdXdXdXdXdXdXdXdXdXdX",
"dXdXdXdXdXdXdXdXdXdXdXdXdXdXdX                                                                            @     dXdXdXdXdXdXdXdXdXdXdXdXdXdXdXdXdXdXdXdXdXdXdXdXdX",
"dXdXdXdXdXdXdXdXdXdXdXdXdXdXdX                                                                        + S D     dXdXdXdXdXdXdXdXdXdXdXdXdXdXdXdXdXdXdXdXdXdXdXdXdX",
"dXdXdXdXdXdXdXdXdXdXdXdXdXdXdX                                                                      3 U Y.S.5   dXdXdXdXdXdXdXdXdXdXdXdXdXdXdXdXdXdXdXdXdXdXdXdXdX",
"dXdXdXdXdXdXdXdXdXdXdXdXdXdXdX                                                                    x x.T.A.n o   dXdXdXdXdXdXdXdXdXdXdXdXdXdXdXdXdXdXdXdXdXdXdXdXdX",
"dXdXdXdXdXdXdXdXdXdXdXdXdXdXdX                                                                - A W.T.m.i       dXdXdXdXdXdXdXdXdXdXdXdXdXdXdXdXdXdXdXdXdXdXdXdXdX",
"dXdXdXdXdXdXdXdXdXdXdXdXdXdXdX                                                              w v.T.R.L 2         dXdXdXdXdXdXdXdXdXdXdXdXdXdXdXdXdXdXdXdXdXdXdXdXdX",
"dXdXdXdXdXdXdXdXdXdXdXdXdXdXdX                                                          o v B.T.Q.Z @           dXdXdXdXdXdXdXdXdXdXdXdXdXdXdXdXdXdXdXdXdXdXdXdXdX",
"dXdXdXdXdXdXdXdXdXdXdXdXdXdXdX                                                        > F !.T.z.c               dXdXdXdXdXdXdXdXdXdXdXdXdXdXdXdXdXdXdXdXdXdXdXdXdX",
"dXdXdXdXdXdXdXdXdXdXdXdXdXdXdX                                                      t b.T.T.N.r                 dXdXdXdXdXdXdXdXdXdXdXdXdXdXdXdXdXdXdXdXdXdXdXdXdX",
"dXdXdXdXdXdXdXdXdXdXdXdXdXdXdX                                                    m C.T.L.P ,                   dXdXdXdXdXdXdXdXdXdXdXdXdXdXdXdXdXdXdXdXdXdXdXdXdX",
"dXdXdXdXdXdXdXdXdXdXdXdXdXdXdX                                                ; H ^.T.F.B o                     dXdXdXdXdXdXdXdXdXdXdXdXdXdXdXdXdXdXdXdXdXdXdXdXdX",
"dXdXdXdXdXdXdXdXdXdXdXdXdXdXdX                                              u n.T.T.M.p                         dXdXdXdXdXdXdXdXdXdXdXdXdXdXdXdXdXdXdXdXdXdXdXdXdX",
"dXdXdXdXdXdXdXdXdXdXdXdXdXdXdX                                          o N D.T.K.J <                           dXdXdXdXdXdXdXdXdXdXdXdXdXdXdXdXdXdXdXdXdXdXdXdXdX",
"dXdXdXdXdXdXdXdXdXdXdXdXdXdXdX                                        1 I U.T.Z.M                               dXdXdXdXdXdXdXdXdXdXdXdXdXdXdXdXdXdXdXdXdXdXdXdXdX",
"dXdXdXdXdXdXdXdXdXdXdXdXdXdXdX                                      a m.T.T.c.y                                 dXdXdXdXdXdXdXdXdXdXdXdXdXdXdXdXdXdXdXdXdXdXdXdXdX",
"dXdXdXdXdXdXdXdXdXdXdXdXdXdXdX                                  o V G.T.~.G :                                   dXdXdXdXdXdXdXdXdXdXdXdXdXdXdXdXdXdXdXdXdXdXdXdXdX",
"dXdXdXdXdXdXdXdXdXdXdXdXdXdXdX                                * I I.T.V.b                                       dXdXdXdXdXdXdXdXdXdXdXdXdXdXdXdXdXdXdXdXdXdXdXdXdX",
"dXdXdXdXdXdXdXdXdXdXdXdXdXdXdX                            . Y O.J.E.K e                                         dXdXdXdXdXdXdXdXdXdXdXdXdXdXdXdXdXdXdXdXdXdXdXdXdX",
"dXdXdXdXdXdXdXdXdXdXdXdXdXdXdX                      $ f j.k.4XaX) i                                             dXdXdXdXdXdXdXdXdXdXdXdXdXdXdXdXdXdXdXdXdXdXdXdXdX",
"dXdXdXdXdXdXdXdXdXdXdXdXdXdXdX                    % h.T.T.T.(._ .                                               dXdXdXdXdXdXdXdXdXdXdXdXdXdXdXdXdXdXdXdXdXdXdXdXdX",
"dXdXdXdXdXdXdXdXdXdXdXdXdXdXdX                  O C T.T.T.T.H.0                                                 dXdXdXdXdXdXdXdXdXdXdXdXdXdXdXdXdXdXdXdXdXdXdXdXdX",
"dXdXdXdXdXdXdXdXdXdXdXdXdXdXdX                  h d T.T.T.T.g                                                   dXdXdXdXdXdXdXdXdXdXdXdXdXdXdXdXdXdXdXdXdXdXdXdXdX",
"dXdXdXdXdXdXdXdXdXdXdXdXdXdXdX                q P.7 l l.j s X                                                   dXdXdXdXdXdXdXdXdXdXdXdXdXdXdXdXdXdXdXdXdXdXdXdXdX",
"dXdXdXdXdXdXdXdXdXdXdXdXdXdXdX                8 k & # .                                                         dXdXdXdXdXdXdXdXdXdXdXdXdXdXdXdXdXdXdXdXdXdXdXdXdX",
"dXdXdXdXdXdXdXdXdXdXdXdXdXdXdX                9 .                                                               dXdXdXdXdXdXdXdXdXdXdXdXdXdXdXdXdXdXdXdXdXdXdXdXdX",
"dXdXdXdXdXdXdXdXdXdXdXdXdXdXdX= ] ` ` ` ( #.o.@.@.} +.@.@.@.| 6.6.6.6...6.6.6.6. .&.&.&.&.' ` ` ` [ { &.&.&.%.4 dXdXdXdXdXdXdXdXdXdXdXdXdXdXdXdXdXdXdXdXdXdXdXdXdX",
"dXdXdXdXdXdXdXdXdXdXdXdXdXdXdX4 ;.X.X.X.$.yX'.7XpXOXiXpXpXpX&XsXsXsXsX5XsXsXsXsX,XrXrXrXrX8.X.X.X.*.f.rXrXrX9X6 dXdXdXdXdXdXdXdXdXdXdXdXdXdXdXdXdXdXdXdXdXdXdXdXdX",
"dXdXdXdXdXdXdXdXdXdXdXdXdXdXdX4 ;.X.X.X.$.yX`.@XpXOXiXpXpXpX&XsXsXsXsX5XsXsXsXsX,XrXrXrXrX8.X.X.X.*.f.rXrXrX9X6 dXdXdXdXdXdXdXdXdXdXdXdXdXdXdXdXdXdXdXdXdXdXdXdXdX",
"dXdXdXdXdXdXdXdXdXdXdXdXdXdXdX4 ;.X.X.X.$.yXpXpXpXOXiXpXpXpX&XsXsXsXsX5XsXsXsXsX,XrXrXrXrX8.X.X.X.*.f.rXrXrX9X6 dXdXdXdXdXdXdXdXdXdXdXdXdXdXdXdXdXdXdXdXdXdXdXdXdX",
"dXdXdXdXdXdXdXdXdXdXdXdXdXdXdX4 ;.X.X.X.$.yXpXpXpXOXiXpXpXpX&XsXsXsXsX5XsXsXsXsX,XrXrXrXrX8.X.X.X.*.f.rXrXrX9X6 dXdXdXdXdXdXdXdXdXdXdXdXdXdXdXdXdXdXdXdXdXdXdXdXdX",
"dXdXdXdXdXdXdXdXdXdXdXdXdXdXdX4 9.9.9.9.2.[.].].].5..X|.|.|.u.{.{.{.{.7.{.{.{.{.p.#X#X#X#X0.9.9.9.w.9.r.r.r.y.z dXdXdXdXdXdXdXdXdXdXdXdXdXdXdXdXdXdXdXdXdXdXdXdXdX",
"dXdXdXdXdXdXdXdXdXdXdXdXdXdXdX4 6XrXrXrX2X/.T.T.T._.iXpXpXpX XT.T.T.T.).T.T.T.T.}.rXrXrXrX;XrXrXrXeX,.X.X.X.=.6 dXdXdXdXdXdXdXdXdXdXdXdXdXdXdXdXdXdXdXdXdXdXdXdXdX",
"dXdXdXdXdXdXdXdXdXdXdXdXdXdXdX4 6XrXrXrX2X/.T.T.T._.iXpXpXpX XT.T.T.T.).T.T.T.T.}.rXrXrXrX;XrXrXrXeX,.X.X.X.=.6 dXdXdXdXdXdXdXdXdXdXdXdXdXdXdXdXdXdXdXdXdXdXdXdXdX",
"dXdXdXdXdXdXdXdXdXdXdXdXdXdXdX4 6XrXrXrX2X/.T.T.T._.iXpXpXpX XT.T.T.T.).T.T.T.T.}.rXrXrXrX;XrXrXrXeX,.X.X.X.=.6 dXdXdXdXdXdXdXdXdXdXdXdXdXdXdXdXdXdXdXdXdXdXdXdXdX",
"dXdXdXdXdXdXdXdXdXdXdXdXdXdXdX4 6XrXrXrX2X/.T.T.T._.iXpXpXpX XT.T.T.T.).T.T.T.T.}.rXrXrXrX;XrXrXrXeX,.X.X.X.=.6 dXdXdXdXdXdXdXdXdXdXdXdXdXdXdXdXdXdXdXdXdXdXdXdXdX",
"dXdXdXdXdXdXdXdXdXdXdXdXdXdXdX4 ,.:.:.:.>.$X%X%X%Xa.*XoXoXoXi.%X%X%X%Xq.%X%X%X%X3.:.:.:.:.e.1X1X1X2Xt.;X;X;X-Xz dXdXdXdXdXdXdXdXdXdXdXdXdXdXdXdXdXdXdXdXdXdXdXdXdX",
"dXdXdXdXdXdXdXdXdXdXdXdXdXdXdX4 ;.X.X.X.$.qXrXrXrX3XiXpXpXpXXXrXrXrXrX=XrXrXrXrX1.X.X.X.X.d.rXrXrXeX:XrXrXrX9X6 dXdXdXdXdXdXdXdXdXdXdXdXdXdXdXdXdXdXdXdXdXdXdXdXdX",
"dXdXdXdXdXdXdXdXdXdXdXdXdXdXdX4 ;.X.X.X.$.qXrXrXrX3XiXpXpXpXXXrXrXrXrX=XrXrXrXrX1.X.X.X.X.d.rXrXrXeX:XrXrXrX9X6 dXdXdXdXdXdXdXdXdXdXdXdXdXdXdXdXdXdXdXdXdXdXdXdXdX",
"dXdXdXdXdXdXdXdXdXdXdXdXdXdXdX4 ;.X.X.X.$.qXrXrXrX3XiXpXpXpXXXrXrXrXrX=XrXrXrXrX1.X.X.X.X.d.rXrXrXeX:XrXrXrX9X6 dXdXdXdXdXdXdXdXdXdXdXdXdXdXdXdXdXdXdXdXdXdXdXdXdX",
"dXdXdXdXdXdXdXdXdXdXdXdXdXdXdX4 <.=.=.=.-.9XwXwXwX<XtXuXuXuX+XwXwXwXwXg.wXwXwXwX4.=.=.=.=.s.wXwXwX0X>XwXwXwX8X6 dXdXdXdXdXdXdXdXdXdXdXdXdXdXdXdXdXdXdXdXdXdXdXdXdX",
"dXdXdXdXdXdXdXdXdXdXdXdXdXdXdXo W W W W T ^ ^ ^ ^ ! / / / / ~ ^ ^ ^ ^ Q ^ ^ ^ ^ R W W W W E ^ ^ ^ ^ Q ^ ^ ^ ^ = dXdXdXdXdXdXdXdXdXdXdXdXdXdXdXdXdXdXdXdXdXdXdXdXdX",
"dXdXdXdXdXdXdXdXdXdXdXdXdXdXdXdXdXdXdXdXdXdXdXdXdXdXdXdXdXdXdXdXdXdXdXdXdXdXdXdXdXdXdXdXdXdXdXdXdXdXdXdXdXdXdXdXdXdXdXdXdXdXdXdXdXdXdXdXdXdXdXdXdXdXdXdXdXdXdXdXdX",
"dXdXdXdXdXdXdXdXdXdXdXdXdXdXdXdXdXdXdXdXdXdXdXdXdXdXdXdXdXdXdXdXdXdXdXdXdXdXdXdXdXdXdXdXdXdXdXdXdXdXdXdXdXdXdXdXdXdXdXdXdXdXdXdXdXdXdXdXdXdXdXdXdXdXdXdXdXdXdXdXdX",
"dXdXdXdXdXdXdXdXdXdXdXdXdXdXdXdXdXdXdXdXdXdXdXdXdXdXdXdXdXdXdXdXdXdXdXdXdXdXdXdXdXdXdXdXdXdXdXdXdXdXdXdXdXdXdXdXdXdXdXdXdXdXdXdXdXdXdXdXdXdXdXdXdXdXdXdXdXdXdXdXdX",
"dXdXdXdXdXdXdXdXdXdXdXdXdXdXdXdXdXdXdXdXdXdXdXdXdXdXdXdXdXdXdXdXdXdXdXdXdXdXdXdXdXdXdXdXdXdXdXdXdXdXdXdXdXdXdXdXdXdXdXdXdXdXdXdXdXdXdXdXdXdXdXdXdXdXdXdXdXdXdXdXdX",
"dXdXdXdXdXdXdXdXdXdXdXdXdXdXdXdXdXdXdXdXdXdXdXdXdXdXdXdXdXdXdXdXdXdXdXdXdXdXdXdXdXdXdXdXdXdXdXdXdXdXdXdXdXdXdXdXdXdXdXdXdXdXdXdXdXdXdXdXdXdXdXdXdXdXdXdXdXdXdXdXdX"
};
