/* XPM */
static char *ImageProcessing___[] = {
/* columns rows colors chars-per-pixel */
"64 64 238 2",
"   c #3F3135",
".  c #552F39",
"X  c #403236",
"o  c #403337",
"O  c #4F313A",
"+  c #503038",
"@  c #513038",
"#  c #513138",
"$  c #513139",
"%  c #523038",
"&  c #533039",
"*  c #533139",
"=  c #553039",
"-  c #602F3B",
";  c #612F3B",
":  c #632E3B",
">  c #642E3B",
",  c #652E3B",
"<  c #632F3C",
"1  c #652E3C",
"2  c #6B2D3C",
"3  c #6C2E3D",
"4  c #732D3E",
"5  c #762E3F",
"6  c #7A2C3F",
"7  c #7B2D3F",
"8  c #533940",
"9  c #7B2C40",
"0  c #7C2D40",
"q  c #763E4B",
"w  c #753F4C",
"e  c #773F4D",
"r  c #7E3B4B",
"t  c #7B3C4B",
"y  c #7D3C4B",
"u  c #7E3B4C",
"i  c #783E4C",
"p  c #793E4C",
"a  c #7C3D4C",
"s  c #7E3C4C",
"d  c #4C4C4C",
"f  c #64444B",
"g  c #63444C",
"h  c #63454C",
"j  c #63444D",
"k  c #63464C",
"l  c #62464D",
"z  c #65454C",
"x  c #65444D",
"c  c #64454D",
"v  c #65454D",
"b  c #66444C",
"n  c #67444C",
"m  c #66454C",
"M  c #67444D",
"N  c #66454D",
"B  c #67464D",
"V  c #6D414B",
"C  c #69434C",
"Z  c #6B434C",
"A  c #6E404C",
"S  c #6F414C",
"D  c #6C424C",
"F  c #6D424C",
"G  c #6C424D",
"H  c #6E424D",
"J  c #69444D",
"K  c #6A444D",
"L  c #6B444D",
"P  c #72414D",
"I  c #694E55",
"U  c #714450",
"Y  c #704650",
"T  c #615E5F",
"R  c #7C505A",
"E  c gray40",
"W  c #686868",
"Q  c #6C6C6C",
"!  c #6D6C6C",
"~  c #6D6D6D",
"^  c gray43",
"/  c #6F6F6F",
"(  c gray45",
")  c #747474",
"_  c #767676",
"`  c #777777",
"'  c gray47",
"]  c #797979",
"[  c gray48",
"{  c #7C7C7C",
"}  c #7E7E7E",
"|  c #912B43",
" . c #9E2945",
".. c #9E2A46",
"X. c #8C374C",
"o. c #813B4C",
"O. c #833A4C",
"+. c #87394C",
"@. c #843B4C",
"#. c #823C4C",
"$. c #89384C",
"%. c #8A384C",
"&. c #93354B",
"*. c #93354C",
"=. c #90374D",
"-. c #94354C",
";. c #9B334B",
":. c #98344B",
">. c #9D314C",
",. c #9D334D",
"<. c #99344C",
"1. c #AA2748",
"2. c #A42F4B",
"3. c #A72E4B",
"4. c #AC2848",
"5. c #AB2D4B",
"6. c #AF2C4B",
"7. c #AA2D4C",
"8. c #AD2C4C",
"9. c #AC2D4C",
"0. c #B52749",
"q. c #B9264A",
"w. c #B8274A",
"e. c #BA274A",
"r. c #BA274B",
"t. c #BB274B",
"y. c #BC274B",
"u. c #BE264B",
"i. c #BF264B",
"p. c #BE274B",
"a. c #BF274B",
"s. c #BD274C",
"d. c #B22A4B",
"f. c #B32A4B",
"g. c #B22B4B",
"h. c #B4294B",
"j. c #B7284B",
"k. c #B12C4B",
"l. c #B12B4C",
"z. c #B62A4C",
"x. c #B12C4C",
"c. c #B9284B",
"v. c #BB284B",
"b. c #A0304C",
"n. c #A0314C",
"m. c #A4304C",
"M. c #B92E50",
"N. c #B33755",
"B. c #9B5969",
"V. c #995B6A",
"C. c #A34E63",
"Z. c #866169",
"A. c #896069",
"S. c #8E6B72",
"D. c #8B6E75",
"F. c #8C6C74",
"G. c #8E6C74",
"H. c #8F6D76",
"J. c #8D6E76",
"K. c #897177",
"L. c #887277",
"P. c #8D7075",
"I. c #887378",
"U. c #897378",
"Y. c #887479",
"T. c #807E7E",
"R. c #807E7F",
"E. c #877F80",
"W. c #877F82",
"Q. c #887F83",
"!. c #808080",
"~. c #818181",
"^. c gray51",
"/. c #838383",
"(. c #868384",
"). c #868686",
"_. c gray53",
"`. c #888082",
"'. c #8B8184",
"]. c #8B8385",
"[. c #888485",
"{. c #8B8485",
"}. c #898686",
"|. c #8C8487",
" X c #888888",
".X c #898989",
"XX c gray54",
"oX c #8B8B8B",
"OX c gray55",
"+X c #8D8C8C",
"@X c #8D8D8D",
"#X c #8E8E8E",
"$X c gray56",
"%X c #908183",
"&X c #908586",
"*X c #908687",
"=X c #908588",
"-X c #928588",
";X c #938589",
":X c #908688",
">X c #928789",
",X c #958588",
"<X c #9B888C",
"1X c #9E898D",
"2X c #909090",
"3X c #929292",
"4X c #939393",
"5X c gray58",
"6X c #959595",
"7X c #979797",
"8X c #9C979A",
"9X c gray61",
"0X c #9F9F9F",
"qX c #B0808A",
"wX c #AB8D93",
"eX c #AD8D94",
"rX c #B08C94",
"tX c #B59097",
"yX c #B89199",
"uX c #BB929A",
"iX c gray63",
"pX c #A2A2A2",
"aX c #A6A1A4",
"sX c #A4A4A4",
"dX c gray65",
"fX c #A8A2A6",
"gX c #A9A9A9",
"hX c #AEAEAE",
"jX c #B2B2B2",
"kX c gray70",
"lX c #C0939C",
"zX c #CF98A3",
"xX c #C0B4BB",
"cX c #C5B9C0",
"vX c gray80",
"bX c #D8C8D1",
"nX c #E1D0DA",
"mX c None",
/* pixels */
"mXmXmXmXmXmXmXmXmXmXmXmXmXmXmXmXmXmXmXmXmXmXmXmXmXmXmXmXmXmXmXmXmXmXmXmXmXmXmXmXmXmXmXmXmXmXmXmXmXmXmXmXmXmXmXmXmXmXmXmXmXmXmXmX",
"mXmXmXmXmXmXmXmXmXmXmXmXmXmXmXmXmXmXmXmXmXmXmXmXmXmXmXmXmXmXmXmXmXmXmXmXmXmXmXmXmXmXmXmXmXmXmXmXmXmXmXmXmXmXmXmXmXmXmXmXmXmXmXmX",
"mXmXmXmXmXmXmXmXmXmXmXmXmXmXmXmXmXmXmXmXmXmXmXmXmXmXmXmXmXmXmXmXmXmXmXmXmXmXmXmXmXmXmXmXmXmXmXmXmXmXmXmXmXmXmXmXmXmXc mXmXmXmXmX",
"mXmXmXmXmXmXmXmXmXmXmXmXmXmXmXmXmXmXmXmXmXmXmXmXmXmXmXmXmXmXmXmXmXmXmXmXmXmXmXmXmXmXmXmXmXmXmXmXmXmXmXmXmXmXmXmXmXH f.i mXmXmXmX",
"mXmXmXmXmXmXmXmXmXmXmXmXmXmXmXmXmXmXmXmXmXmXmXmXmXmXmXmXmXmXmXmXmXmXmXmXmXmXmXmXmXmXmXmXmXmXmXmXmXmXmXmXmXmXmXmXO.p.i.g.z mXmXmX",
"mXmXmXmXmXmXmXmXmXmXmXmXmXmXmXmXmXmXmXmXmXmXmXmXmXmXmXmXmXmXmXmXmXmXmXmXmXmXmXmXmXmXmXmXmXmXmXmXmXmXmXmXmXmXm n.i.i.a.o.mXmXmXmX",
"mXmXmXmXmXmXmXmXmXmXmXmXmXmXmXmXmXmXmXmXmXmXmXmXmXmXmXmXmXmXmXmXmXmXmXmXmXmXmXmXmXmXmXmXmXmXmXmXmXmXmXmXmXS z.i.i.j.A mXmXmXmXmX",
"mXmXmXmXmXmXmXmXmXmXmXmXmXmXmXmXmXmXmXmXmXmXmXmXmXmXmXmXmXmXmXmXmXmXmXmXmXmXmXmXmXmXmXmXmXmXmXmXmXmXmXmX+.u.i.i.7.b mXmXmXmXmXmX",
"mXmXmXmXmXmXmXmXmXmXmXmXmXmXmXmXmXmXmXmXmXmXmXmXmXmXmXmXmXmXmXmXmXmXmXmXmXmXmXmXmXmXmXmXmXmXmXmXmXmXM 2.i.i.i.*.l mXmXmXmXmXmXmX",
"mXmXmXmXmXmXmXmXmXmXmXmXmXmXmXmXmXmXmXmXmXmXmXmXmXmXmXmXmXmXmXmXmXmXmXmXmXmXmXmXmXmXmXmXmXmXmXmXmXP j.i.i.s.a mXmXmXmXmXmXmXmXmX",
"mXmXmXmXmXmXmXmXmXmXmXmXmXmXmXmXmXmXmXmXmXmXmXmXmXmXmXmXmXmXmXmXmXmXmXmXmXmXmXmXmXmXmXmXmXmXmXc %.i.i.i.h.Z mXmXmXmXmXmXmXmXmXmX",
"mXmXmXmXmXmXmXmXmXmXmXmXmXmXmXmXmXmXmXmXmXmXmXmXmXmXmXmXmXmXmXmXmXmXmXmXmXmXmXmXmXmXmXmXmXmXn 3.i.i.i.m.B mXmXmXmXmXmXmXmXmXmXmX",
"mXmXmXmXmXmXmXmXmXmXmXmXmXmXmXmXmXmXmXmXmXmXmXmXmXmXmXmXmXmXmXmXmXmXmXmXmXmXmXmXmXmXmXmXmXw c.i.i.i.X.j mXmXmXmXmXmXmXmXmXmXmXmX",
"mXmXmXmXmXmXmXmXmXmXmXmXmXmXmXmXmXmXmXmXmXmXmXmXmXmXmXmXmXmXmXmXmXmXmXmXmXmXmXmXmXmXmXh =.i.i.i.v.e mXmXmXmXmXmXmXmXmXmXmXmXmXmX",
"mXmXmXmXmXmXmXmXmXmXmXmXmXmXmXmXmXmXmXmXmXmXmXmXmXmXmXmXmXmXmXmXmXmXmXmXmXmXmXmXmXmXJ 5.i.i.i.l.K mXmXmXmXmXmXmXmXmXmXmXmXmXmXmX",
"mXmXmXmXmXmXmXmXmXmXmXmXmXmXmXmXmXmXmXmXmXmXmXmXmXmXmXmXmXmXmXmXmXmXmXmXmXmXmXmXmXp r.i.i.i.>.f mXmXmXmXmXmXmXmXmXmXmXmXmXmXmXmX",
"mXmXmXmXmXmXmXmXmXmXmXmXmXmXmXmXmXmXmXmXmXmXmXmXmXmXmXmXmXmXmXmXmXmXmXmXmXmXmXx &.i.i.i.p.#.mXmXmXmXmXmXmXmXmXmXmXmXmXmXmXmXmXmX",
"mXmXmXmXmXmXmXmXmXmXmXmXmXmXmXmXmXmXmXmXmXmXmXmXmXmXmXmXmXmXmXmXmXmXmXmXmXmXL 8.i.i.i.d.F mXmXmXmXmXmXmXmXmXmXmXmXmXmXmXmXmXmXmX",
"mXmXmXmXmXmXmXmXmXmXmXmXmXmXmXmXmXmXmXmXmXmXmXmXmXmXmXmXmXmXmXmXmXmXmXmXmXt t.i.i.i.;.x mXmXmXmXmXmXmXmXmXmXmXmXmXmXmXmXmXmXmXmX",
"mXmXmXmXmXmXmXmXmXmXmXmXmXmXmXmXmXmXmXmXmXmXmXmXmXmXmXmXmXmXmXmXmXmXmXv :.i.i.i.s.s mXmXmXmXmXmXmXmXmXmXmXmXmXmXmXmXmXmXmXmXmXmX",
"mXmXmXmXmXmXmXmXmXmXmXmXmXmXmXmXmXmXmXmXmXmXmXmXmXmXmXmXmXmXmXmXmXmXG k.i.i.i.l.D mXmXmXmXmXmXmXmXmXmXmXmXmXmXmXmXmXmXmXmXmXmXmX",
"mXmXmXmXmXmXmXmXmXmXmXmXmXmXmXmXmXmXmXmXmXmXmXmXmXmXmXmXmXmXmXmXmXu s.i.i.i.<.v mXmXmXmXmXmXmXmXmXmXmXmXmXmXmXmXmXmXmXmXmXmXmXmX",
"mXmXmXmXmXmXmXmXmXmXmXmXmXmXmXmXmXmXmXmXmXmXmXmXmXmXmXmXmXmXmXN ,.i.i.i.y.a mXmXmXmXmXmXmXmXmXmXmXmXmXmXmXmXmXmXmXmXmXmXmXmXmXmX",
"mXmXmXmXmXmXmXmXmXmXmXmXmXmXmXmXmXmXmXmXmXmXmXmXmXmXmXmXmXmXV d.i.i.i.6.L mXmXmXmXmXmXmXmXmXmXmXmXmXmXmXmXmXmXmXmXmXmXmXmXmXmXmX",
"mXmXmXmXmXmXmXmXmXmXmXmXmXmXmXmXmXmXmXmXmXmXmXmXmXmXmXmXmX@.p.i.i.i.-.k mXmXmXmXmXmXmXmXmXmXmXmXmXmXmXmXmXmXmXmXmXmXmXmXmXmXmXmX",
"mXmXmXmXmXmXmXmXmXmXmXmXmXmXmXmXmXmXmXmXmXmXmXmXmXmXmXN b.i.i.i.v.p mXmXmXmXmXmXmXmXmXmXmXmXmXmXmXmXmXmXmXmXmXmXmXmXmXmXmXmXmXmX",
"mXmXmXmXmXmXmXmXmXmXmXmXmXmXmXmXmXmXmXmXmXmXmXmXmXmXg x.i.i.i.9.C mXmXmXmXmXmXmXmXmXmXmXmXmXmXmXmXmXmXmXmXmXmXmXmXmXmXmXmXmXmXmX",
"mXmXmXmXmXmXmXmXmXmXmXmXmXmXmXmXmXmXmXmXmXmXmXmXmX! U i.i.z.s c mXmXmXmXmXmXmXmXmXmXmXmXmXmXmXmXmXmXmXmXmXmXmXmXmXmXmXmXmXmXmXmX",
"mXmXmXmXmXmXmXmXmXmXmXmXmXmXmXmXmXmXmXmX+ , 1 8 } vX}.r y v mXmXmXmXmXmXmXmXmXmXmXmXmXmXmXmXmXmXmXmXmXmXmXmXmXmXmXmXmXmXmXmXmXmX",
"mXmXmXmXmXmXmXmXmXmXmXmXmXmXmXmXmXmX# 9 w.i.i.$.jXvXsXd mXmXmXmXmXmXmXmXmXmXmXmXmXmXmXmXmXmXmXmXmXmXmXmXmXmXmXmXmXmXmXmXmXmXmXmX",
"mXmXmXmXmXmXmXmXmXmXmXmXmXmXmXmXmX@  .i.i.i.i.e.I T mXmXmXmXmXmXmXmXmXmXmXmXmXmXmXmXmXmXmXmXmXmXmXmXmXmXmXmXmXmXmXmXmXmXmXmXmXmX",
"mXmXmXmXmXmXmXmXmXmXmXmXmXmXmXmX. 1.i.i.i.i.i.i.i.- mXmXmXmXmXmXmXmXmXmXmXmXmXmXmXmXmXmXmXmXmXmXmXmXmXmXmXmXmXmXmXmXmXmXmXmXmXmX",
"mXmXmXmXmXmXmXmXmXmXmXmXmXmXmXo 5 i.i.i.i.i.i.i.0.# mXmXmXmXmXmXmXmXmXmXmXmXmXmXmXmXmXmXmXmXmXmXmXmXmXmXmXmXmXmXmXmXmXmXmXmXmXmX",
"mXmXmXmXmXmXmXmXmXmXmXmXmXmXmX6 = i.i.i.i.i.i.i.4 mXmXmXmXmXmXmXmXmXmXmXmXmXmXmXmXmXmXmXmXmXmXmXmXmXmXmXmXmXmXmXmXmXmXmXmXmXmXmX",
"mXmXmXmXmXmXmXmXmXmXmXmXmXmX; i.* 4.i.i.i.i.q.3 mXmXmXmXmXmXmXmXmXmXmXmXmXmXmXmXmXmXmXmXmXmXmXmXmXmXmXmXmXmXmXmXmXmXmXmXmXmXmXmX",
"mXmXmXmXmXmXmXmXmXmXmXmXmXmX..i.>   2 | 7 : % mXmXmXmXmXmXmXmXmXmXmXmXmXmXmXmXmXmXmXmXmXmXmXmXmXmXmXmXmXmXmXmXmXmXmXmXmXmXmXmXmX",
"mXmXmXmXmXmXmXmXmXmXmXmXmXO w.0 $ mXmXmXmXmXmXmXmXmXmXmXmXmXmXmXmXmXmXmXmXmXmXmXmXmXmXmXmXmXmXmXmXmXmXmXmXmXmXmXmXmXmXmXmXmXmXmX",
"mXmXmXmXmXmXmXmXmXmXmXmXmX& < mXmXmXmXmXmXmXmXmXmXmXmXmXmXmXmXmXmXmXmXmXmXmXmXmXmXmXmXmXmXmXmXmXmXmXmXmXmXmXmXmXmXmXmXmXmXmXmXmX",
"mXmXmXmXmXmXmXmXmXmXmXmXmXX mXmXmXmXmXmXmXmXmXmXmXmXmXmXmXmXmXmXmXmXmXmXmXmXmXmXmXmXmXmXmXmXmXmXmXmXmXmXmXmXmXmXmXmXmXmXmXmXmXmX",
"mXmXmXmXmXmXmXmXmXmXmXmXmXmXmXmXmXmXmXmXmXmXmXmXmXmXmXmXmXmXmXmXmXmXmXmXmXmXmXmXmXmXmXmXmXmXmXmXmXmXmXmXmXmXmXmXmXmXmXmXmXmXmXmX",
"mXmX] ~ ~ ~ ~ ~ ~ R.eXyXP.rXyXyX1X;XyXyXyXyXyXyX>XxXcXcXcXcXcX8X8XcXcXcXcXcXcXOXsXsXsXsXsXsX#X` ~ ~ ~ ~ ~ / ~.sXsXsXsXsXsX$XmXmX",
"mXmX_ E E E E E E T.lXzXY A.zXzXwX<XzXzXzXzXzXzX>XbXnXnXnXnXnXfXaXnXnXnXnXnXnX+XkXkXkXkXkXkX5X( E E E E E W ~.kXkXkXkXkXkX3XmXmX",
"mXmX_ E E E E E E T.lXzXq R zXzXwX<XzXzXzXzXzXzX>XbXnXnXnXnXnXfXaXnXnXnXnXnXnX+XkXkXkXkXkXkX5X( E E E E E W ~.kXkXkXkXkXkX3XmXmX",
"mXmX_ E E E E E E T.lXzXZ.qXzXzXwX<XzXzXzXzXzXzX>XbXnXnXnXnXnXfXaXnXnXnXnXnXnX+XkXkXkXkXkXkX5X( E E E E E W ~.kXkXkXkXkXkX3XmXmX",
"mXmX_ E E E E E E T.lXzXzXzXzXzXwX<XzXzXzXzXzXzX>XbXnXnXnXnXnXfXaXnXnXnXnXnXnX+XkXkXkXkXkXkX5X( E E E E E W ~.kXkXkXkXkXkX3XmXmX",
"mXmX_ E E E E E E T.lXzXzXzXzXzXwX<XzXzXzXzXzXzX>XbXnXnXnXnXnXfXaXnXnXnXnXnXnX+XkXkXkXkXkXkX5X( E E E E E W ~.kXkXkXkXkXkX3XmXmX",
"mXmX] ~ ~ ~ ~ ~ ~ R.eXyXyXyXyXyX1X;XyXyXyXyXyXyX>XxXcXcXcXcXcX8X8XcXcXcXcXcXcXOXsXsXsXsXsXsX#X` ~ ~ ~ ~ ~ / ~.sXsXsXsXsXsX$XmXmX",
"mXmX XoXoXoXoXoXoX[.F.S.S.S.S.S.K.|.=X=X=X=X=X=XQ.H.S.S.S.S.S.Y.U.S.S.S.S.S.S.E.oXoXoXoXoXoX.X).oXoXoXoXoXOX^.[ [ [ [ [ [ { mXmX",
"mXmX2XkXkXkXkXkXkX].N.i.i.i.i.i.C.<XzXzXzXzXzXzX%XM.i.i.i.i.i.B.V.i.i.i.i.i.i.'.kXkXkXkXkXkX5X7XkXkXkXkXkXhX/.E E E E E E _ mXmX",
"mXmX2XkXkXkXkXkXkX].N.i.i.i.i.i.C.<XzXzXzXzXzXzX%XM.i.i.i.i.i.B.V.i.i.i.i.i.i.'.kXkXkXkXkXkX5X7XkXkXkXkXkXhX/.E E E E E E _ mXmX",
"mXmX2XkXkXkXkXkXkX].N.i.i.i.i.i.C.<XzXzXzXzXzXzX%XM.i.i.i.i.i.B.V.i.i.i.i.i.i.'.kXkXkXkXkXkX5X7XkXkXkXkXkXhX/.E E E E E E _ mXmX",
"mXmX2XkXkXkXkXkXkX].N.i.i.i.i.i.C.<XzXzXzXzXzXzX%XM.i.i.i.i.i.B.V.i.i.i.i.i.i.'.kXkXkXkXkXkX5X7XkXkXkXkXkXhX/.E E E E E E _ mXmX",
"mXmX2XkXkXkXkXkXkX].N.i.i.i.i.i.C.<XzXzXzXzXzXzX%XM.i.i.i.i.i.B.V.i.i.i.i.i.i.'.kXkXkXkXkXkX5X7XkXkXkXkXkXhX/.E E E E E E _ mXmX",
"mXmX2XkXkXkXkXkXkX].N.i.i.i.i.i.C.<XzXzXzXzXzXzX%XM.i.i.i.i.i.B.V.i.i.i.i.i.i.'.kXkXkXkXkXkX5X7XkXkXkXkXkXhX/.E E E E E E _ mXmX",
"mXmX_.XXXXXXXXXXXX(.D.G.G.G.G.G.L.{.&X&X&X&X&X&X`.J.G.G.G.G.G.Y.I.G.G.G.G.G.G.W.XXXXXXXXXXXX).).XXXXXXXXXXoX^.[ [ [ [ [ [ { mXmX",
"mXmX' Q Q Q Q Q Q } 0XdXdXdXdXdX5X,XuXuXuXuXuXuX*XpXdXdXdXdXdX$X$XdXdXdXdXdXdX!.Q Q Q Q Q Q ' 2XdXdXdXdXdXpXXXdXdXdXdXdXdX#XmXmX",
"mXmX_ E E E E E E } gXkXkXkXkXkX9X<XzXzXzXzXzXzX:XhXkXkXkXkXkX6X6XkXkXkXkXkXkX!.E E E E E E ) 7XkXkXkXkXkXhXoXkXkXkXkXkXkX3XmXmX",
"mXmX_ E E E E E E } gXkXkXkXkXkX9X<XzXzXzXzXzXzX:XhXkXkXkXkXkX6X6XkXkXkXkXkXkX!.E E E E E E ) 7XkXkXkXkXkXhXoXkXkXkXkXkXkX3XmXmX",
"mXmX_ E E E E E E } gXkXkXkXkXkX9X<XzXzXzXzXzXzX:XhXkXkXkXkXkX6X6XkXkXkXkXkXkX!.E E E E E E ) 7XkXkXkXkXkXhXoXkXkXkXkXkXkX3XmXmX",
"mXmX_ E E E E E E } gXkXkXkXkXkX9X<XzXzXzXzXzXzX:XhXkXkXkXkXkX6X6XkXkXkXkXkXkX!.E E E E E E ) 7XkXkXkXkXkXhXoXkXkXkXkXkXkX3XmXmX",
"mXmX_ E E E E E E } gXkXkXkXkXkX9X<XzXzXzXzXzXzX:XhXkXkXkXkXkX6X6XkXkXkXkXkXkX!.E E E E E E ) 7XkXkXkXkXkXhXoXkXkXkXkXkXkX3XmXmX",
"mXmX] ^ ^ ^ ^ ^ ^ !.9XiXiXiXiXiX4X-XtXtXtXtXtXtX*X0XiXiXiXiXiX@X#XiXiXiXiXiXiX!.^ ^ ^ ^ ^ ^ ] $XiXiXiXiXiX0XoXiXiXiXiXiXiX@XmXmX",
"mXmXmXmXmXmXmXmXmXmXmXmXmXmXmXmXmXmXmXmXmXmXmXmXmXmXmXmXmXmXmXmXmXmXmXmXmXmXmXmXmXmXmXmXmXmXmXmXmXmXmXmXmXmXmXmXmXmXmXmXmXmXmXmX",
"mXmXmXmXmXmXmXmXmXmXmXmXmXmXmXmXmXmXmXmXmXmXmXmXmXmXmXmXmXmXmXmXmXmXmXmXmXmXmXmXmXmXmXmXmXmXmXmXmXmXmXmXmXmXmXmXmXmXmXmXmXmXmXmX"
};
