<?xml version="1.0" encoding="UTF-8" standalone="no"?>
<svg
   xmlns:dc="http://purl.org/dc/elements/1.1/"
   xmlns:cc="http://creativecommons.org/ns#"
   xmlns:rdf="http://www.w3.org/1999/02/22-rdf-syntax-ns#"
   xmlns:svg="http://www.w3.org/2000/svg"
   xmlns="http://www.w3.org/2000/svg"
   xmlns:sodipodi="http://sodipodi.sourceforge.net/DTD/sodipodi-0.dtd"
   xmlns:inkscape="http://www.inkscape.org/namespaces/inkscape"
   xml:space="preserve"
   enable-background="new 0 0 1792 1792"
   viewBox="0 0 1792 1792"
   height="1792px"
   width="1792px"
   y="0px"
   x="0px"
   id="Layer_1"
   version="1.1"
   inkscape:version="0.91 r13725"
   sodipodi:docname="pai.svg"><sodipodi:namedview
     pagecolor="#ffffff"
     bordercolor="#666666"
     borderopacity="1"
     objecttolerance="10"
     gridtolerance="10"
     guidetolerance="10"
     inkscape:pageopacity="0"
     inkscape:pageshadow="2"
     inkscape:window-width="1676"
     inkscape:window-height="1011"
     id="namedview7"
     showgrid="true"
     inkscape:zoom="0.26339286"
     inkscape:cx="500.8735"
     inkscape:cy="627.03137"
     inkscape:window-x="0"
     inkscape:window-y="18"
     inkscape:window-maximized="0"
     inkscape:current-layer="Layer_1"><inkscape:grid
       type="xygrid"
       id="grid8657" /></sodipodi:namedview><metadata
     id="metadata11"><rdf:RDF><cc:Work
         rdf:about=""><dc:format>image/svg+xml</dc:format><dc:type
           rdf:resource="http://purl.org/dc/dcmitype/StillImage" /><dc:title /></cc:Work></rdf:RDF></metadata><defs
     id="defs9"><inkscape:path-effect
       effect="envelope"
       id="path-effect5580"
       is_visible="true"
       yy="true"
       xx="false"
       bendpath1="M 166.50847,51.355932 C 1182.5085,361.35593 760,-48 1720.4068,252.57627"
       bendpath2="m 1728,2 0,1790"
       bendpath3="M 196.88135,1583.1864 C 640,1552 1160,1592 1735.5932,1731.2542"
       bendpath4="m 64,2 0,1790"
       bendpath1-nodetypes="cc"
       bendpath3-nodetypes="cc" /><marker
       inkscape:stockid="Arrow1Lend"
       orient="auto"
       refY="0.0"
       refX="0.0"
       id="marker41021"
       style="overflow:visible;"
       inkscape:isstock="true"><path
         id="path41023"
         d="M 0.0,0.0 L 5.0,-5.0 L -12.5,0.0 L 5.0,5.0 L 0.0,0.0 z "
         style="fill-rule:evenodd;stroke:#00ff00;stroke-width:1pt;stroke-opacity:1;fill:#00ff00;fill-opacity:1"
         transform="scale(0.8) rotate(180) translate(12.5,0)" /></marker><marker
       inkscape:isstock="true"
       style="overflow:visible;"
       id="marker39943"
       refX="0.0"
       refY="0.0"
       orient="auto"
       inkscape:stockid="Arrow1Lend"><path
         transform="scale(0.8) rotate(180) translate(12.5,0)"
         style="fill-rule:evenodd;stroke:#00ff00;stroke-width:1pt;stroke-opacity:1;fill:#00ff00;fill-opacity:1"
         d="M 0.0,0.0 L 5.0,-5.0 L -12.5,0.0 L 5.0,5.0 L 0.0,0.0 z "
         id="path39945" /></marker><marker
       inkscape:isstock="true"
       style="overflow:visible;"
       id="marker26915"
       refX="0.0"
       refY="0.0"
       orient="auto"
       inkscape:stockid="Arrow1Lend"><path
         transform="scale(0.8) rotate(180) translate(12.5,0)"
         style="fill-rule:evenodd;stroke:#00ff00;stroke-width:1pt;stroke-opacity:1;fill:#00ff00;fill-opacity:1"
         d="M 0.0,0.0 L 5.0,-5.0 L -12.5,0.0 L 5.0,5.0 L 0.0,0.0 z "
         id="path26917" /></marker><marker
       inkscape:stockid="Arrow1Lend"
       orient="auto"
       refY="0.0"
       refX="0.0"
       id="marker26449"
       style="overflow:visible;"
       inkscape:isstock="true"><path
         id="path26451"
         d="M 0.0,0.0 L 5.0,-5.0 L -12.5,0.0 L 5.0,5.0 L 0.0,0.0 z "
         style="fill-rule:evenodd;stroke:#00ff00;stroke-width:1pt;stroke-opacity:1;fill:#00ff00;fill-opacity:1"
         transform="scale(0.8) rotate(180) translate(12.5,0)" /></marker><marker
       inkscape:isstock="true"
       style="overflow:visible;"
       id="marker25905"
       refX="0.0"
       refY="0.0"
       orient="auto"
       inkscape:stockid="Arrow1Lend"><path
         transform="scale(0.8) rotate(180) translate(12.5,0)"
         style="fill-rule:evenodd;stroke:#00ff00;stroke-width:1pt;stroke-opacity:1;fill:#00ff00;fill-opacity:1"
         d="M 0.0,0.0 L 5.0,-5.0 L -12.5,0.0 L 5.0,5.0 L 0.0,0.0 z "
         id="path25907" /></marker><marker
       inkscape:stockid="Arrow1Lend"
       orient="auto"
       refY="0.0"
       refX="0.0"
       id="marker25475"
       style="overflow:visible;"
       inkscape:isstock="true"><path
         id="path25477"
         d="M 0.0,0.0 L 5.0,-5.0 L -12.5,0.0 L 5.0,5.0 L 0.0,0.0 z "
         style="fill-rule:evenodd;stroke:#00ff00;stroke-width:1pt;stroke-opacity:1;fill:#00ff00;fill-opacity:1"
         transform="scale(0.8) rotate(180) translate(12.5,0)" /></marker><marker
       inkscape:isstock="true"
       style="overflow:visible;"
       id="marker24955"
       refX="0.0"
       refY="0.0"
       orient="auto"
       inkscape:stockid="Arrow1Lend"><path
         transform="scale(0.8) rotate(180) translate(12.5,0)"
         style="fill-rule:evenodd;stroke:#00ff00;stroke-width:1pt;stroke-opacity:1;fill:#00ff00;fill-opacity:1"
         d="M 0.0,0.0 L 5.0,-5.0 L -12.5,0.0 L 5.0,5.0 L 0.0,0.0 z "
         id="path24957" /></marker><marker
       inkscape:stockid="Arrow1Lend"
       orient="auto"
       refY="0.0"
       refX="0.0"
       id="marker24483"
       style="overflow:visible;"
       inkscape:isstock="true"><path
         id="path24485"
         d="M 0.0,0.0 L 5.0,-5.0 L -12.5,0.0 L 5.0,5.0 L 0.0,0.0 z "
         style="fill-rule:evenodd;stroke:#00ff00;stroke-width:1pt;stroke-opacity:1;fill:#00ff00;fill-opacity:1"
         transform="scale(0.8) rotate(180) translate(12.5,0)" /></marker><marker
       inkscape:isstock="true"
       style="overflow:visible;"
       id="marker24017"
       refX="0.0"
       refY="0.0"
       orient="auto"
       inkscape:stockid="Arrow1Lend"><path
         transform="scale(0.8) rotate(180) translate(12.5,0)"
         style="fill-rule:evenodd;stroke:#00ff00;stroke-width:1pt;stroke-opacity:1;fill:#00ff00;fill-opacity:1"
         d="M 0.0,0.0 L 5.0,-5.0 L -12.5,0.0 L 5.0,5.0 L 0.0,0.0 z "
         id="path24019" /></marker><marker
       inkscape:stockid="Arrow1Lend"
       orient="auto"
       refY="0.0"
       refX="0.0"
       id="marker23275"
       style="overflow:visible;"
       inkscape:isstock="true"><path
         id="path23277"
         d="M 0.0,0.0 L 5.0,-5.0 L -12.5,0.0 L 5.0,5.0 L 0.0,0.0 z "
         style="fill-rule:evenodd;stroke:#00ff00;stroke-width:1pt;stroke-opacity:1;fill:#00ff00;fill-opacity:1"
         transform="scale(0.8) rotate(180) translate(12.5,0)" /></marker><marker
       inkscape:isstock="true"
       style="overflow:visible;"
       id="marker22815"
       refX="0.0"
       refY="0.0"
       orient="auto"
       inkscape:stockid="Arrow1Lend"><path
         transform="scale(0.8) rotate(180) translate(12.5,0)"
         style="fill-rule:evenodd;stroke:#00ff00;stroke-width:1pt;stroke-opacity:1;fill:#00ff00;fill-opacity:1"
         d="M 0.0,0.0 L 5.0,-5.0 L -12.5,0.0 L 5.0,5.0 L 0.0,0.0 z "
         id="path22817" /></marker><marker
       inkscape:isstock="true"
       style="overflow:visible;"
       id="marker21943"
       refX="0.0"
       refY="0.0"
       orient="auto"
       inkscape:stockid="Arrow1Lend"><path
         transform="scale(0.8) rotate(180) translate(12.5,0)"
         style="fill-rule:evenodd;stroke:#00ff00;stroke-width:1pt;stroke-opacity:1;fill:#00ff00;fill-opacity:1"
         d="M 0.0,0.0 L 5.0,-5.0 L -12.5,0.0 L 5.0,5.0 L 0.0,0.0 z "
         id="path21945" /></marker><marker
       inkscape:stockid="Arrow1Lend"
       orient="auto"
       refY="0.0"
       refX="0.0"
       id="marker21543"
       style="overflow:visible;"
       inkscape:isstock="true"><path
         id="path21545"
         d="M 0.0,0.0 L 5.0,-5.0 L -12.5,0.0 L 5.0,5.0 L 0.0,0.0 z "
         style="fill-rule:evenodd;stroke:#00ff00;stroke-width:1pt;stroke-opacity:1;fill:#00ff00;fill-opacity:1"
         transform="scale(0.8) rotate(180) translate(12.5,0)" /></marker><marker
       inkscape:isstock="true"
       style="overflow:visible;"
       id="marker21167"
       refX="0.0"
       refY="0.0"
       orient="auto"
       inkscape:stockid="Arrow1Lend"><path
         transform="scale(0.8) rotate(180) translate(12.5,0)"
         style="fill-rule:evenodd;stroke:#00ff00;stroke-width:1pt;stroke-opacity:1;fill:#00ff00;fill-opacity:1"
         d="M 0.0,0.0 L 5.0,-5.0 L -12.5,0.0 L 5.0,5.0 L 0.0,0.0 z "
         id="path21169" /></marker><marker
       inkscape:stockid="Arrow1Lend"
       orient="auto"
       refY="0.0"
       refX="0.0"
       id="marker20809"
       style="overflow:visible;"
       inkscape:isstock="true"><path
         id="path20811"
         d="M 0.0,0.0 L 5.0,-5.0 L -12.5,0.0 L 5.0,5.0 L 0.0,0.0 z "
         style="fill-rule:evenodd;stroke:#00ff00;stroke-width:1pt;stroke-opacity:1;fill:#00ff00;fill-opacity:1"
         transform="scale(0.8) rotate(180) translate(12.5,0)" /></marker><marker
       inkscape:isstock="true"
       style="overflow:visible;"
       id="marker20433"
       refX="0.0"
       refY="0.0"
       orient="auto"
       inkscape:stockid="Arrow1Lend"><path
         transform="scale(0.8) rotate(180) translate(12.5,0)"
         style="fill-rule:evenodd;stroke:#00ff00;stroke-width:1pt;stroke-opacity:1;fill:#00ff00;fill-opacity:1"
         d="M 0.0,0.0 L 5.0,-5.0 L -12.5,0.0 L 5.0,5.0 L 0.0,0.0 z "
         id="path20435" /></marker><marker
       inkscape:stockid="Arrow1Lend"
       orient="auto"
       refY="0.0"
       refX="0.0"
       id="marker19997"
       style="overflow:visible;"
       inkscape:isstock="true"><path
         id="path19999"
         d="M 0.0,0.0 L 5.0,-5.0 L -12.5,0.0 L 5.0,5.0 L 0.0,0.0 z "
         style="fill-rule:evenodd;stroke:#00ff00;stroke-width:1pt;stroke-opacity:1;fill:#00ff00;fill-opacity:1"
         transform="scale(0.8) rotate(180) translate(12.5,0)" /></marker><marker
       inkscape:isstock="true"
       style="overflow:visible;"
       id="marker19597"
       refX="0.0"
       refY="0.0"
       orient="auto"
       inkscape:stockid="Arrow1Lend"><path
         transform="scale(0.8) rotate(180) translate(12.5,0)"
         style="fill-rule:evenodd;stroke:#00ff00;stroke-width:1pt;stroke-opacity:1;fill:#00ff00;fill-opacity:1"
         d="M 0.0,0.0 L 5.0,-5.0 L -12.5,0.0 L 5.0,5.0 L 0.0,0.0 z "
         id="path19599" /></marker><marker
       inkscape:stockid="Arrow1Lend"
       orient="auto"
       refY="0.0"
       refX="0.0"
       id="marker19269"
       style="overflow:visible;"
       inkscape:isstock="true"><path
         id="path19271"
         d="M 0.0,0.0 L 5.0,-5.0 L -12.5,0.0 L 5.0,5.0 L 0.0,0.0 z "
         style="fill-rule:evenodd;stroke:#00ff00;stroke-width:1pt;stroke-opacity:1;fill:#00ff00;fill-opacity:1"
         transform="scale(0.8) rotate(180) translate(12.5,0)" /></marker><marker
       inkscape:isstock="true"
       style="overflow:visible;"
       id="marker5311"
       refX="0.0"
       refY="0.0"
       orient="auto"
       inkscape:stockid="Arrow1Lend"><path
         transform="scale(0.8) rotate(180) translate(12.5,0)"
         style="fill-rule:evenodd;stroke:#00ff00;stroke-width:1pt;stroke-opacity:1;fill:#00ff00;fill-opacity:1"
         d="M 0.0,0.0 L 5.0,-5.0 L -12.5,0.0 L 5.0,5.0 L 0.0,0.0 z "
         id="path5313" /></marker></defs><g
     id="g5576"
     inkscape:path-effect="#path-effect5580"><path
       style="stroke:none;fill:#00ff00;fill-opacity:1"
       d="m 1207.5056,874.57393 c 0.1108,5.96259 -0.9809,10.92016 -3.2538,14.86418 -2.2731,3.94528 -5.0071,5.62718 -8.1804,5.05736 -3.1751,-0.57013 -5.9299,-3.23694 -8.2925,-7.98506 -0.2198,-0.4417 -0.4298,-0.88843 -0.6301,-1.3402 0,0 0,0 0,0 -1.9481,-4.45252 -3.0251,-9.26907 -3.1345,-14.67058 -0.4153,-20.50052 -7.2383,-38.80965 -25.4959,-51.02971 -1.8836,-1.26071 -3.8091,-2.45625 -5.7757,-3.58738 -12.9039,-7.25704 -29.301,-11.19728 -48.8508,-12.19266 -7.8401,-0.34258 -16.1296,-0.24286 -24.8525,0.27952 -8.5702,0.51322 -16.5544,-1.09211 -23.6472,-4.84669 -7.1254,-3.77259 -10.991,-8.45674 -11.3417,-14.22764 -0.3504,-5.76733 2.9128,-10.95558 9.4963,-15.66076 6.551,-4.68197 14.2428,-7.33903 22.7841,-7.90555 8.7509,-0.58043 17.0134,-0.84433 24.7935,-0.77547 0,0 0,0 0,0 19.8359,0.30593 36.1477,2.94946 48.9686,8.2337 0.7893,0.33322 1.5715,0.67438 2.3466,1.02352 13.6386,6.14346 23.9967,15.49787 32.0163,28.04107 2.5508,3.9344 5.0215,8.15433 7.4088,12.66134 9.954,18.79506 15.1975,40.20681 15.6409,64.06101 z m 70.5612,10.65729 c -0.4898,-33.44372 -7.1836,-65.11156 -19.4876,-95.50798 -0.5956,-1.47143 -1.1983,-2.93092 -1.808,-4.37842 -11.8303,-28.32096 -26.1826,-52.12317 -41.7552,-71.24016 -1.4491,-1.77899 -2.8977,-3.52377 -4.3448,-5.23391 -10.7931,-13.04396 -22.385,-24.21058 -34.6775,-33.4577 0,0 0,0 0,0 -4.2853,-3.2812 -9.0143,-6.2515 -14.2236,-8.9166 -6.6995,-3.42732 -14.0262,-6.2245 -21.963,-8.4301 -13.2669,-3.59438 -29.7589,-5.01714 -49.5341,-4.58909 -7.7269,0.21061 -15.9013,0.68073 -24.5325,1.39346 -13.8885,1.14687 -28.8768,2.91507 -44.9483,5.22991 -10.899,1.56535 -21.98454,3.27902 -33.25545,5.13202 -18.26859,2.99985 -37.05567,6.37276 -56.34769,10.08137 -7.92034,1.46038 -15.79095,2.96562 -23.61197,4.51679 -56.56649,11.21986 -105.96336,23.49793 -149.78619,38.45254 -20.02488,6.833 -38.03218,14.48542 -54.17363,23.12889 -18.64862,10.2573 -34.78941,22.03933 -48.50637,35.43714 -25.26954,24.68303 -37.43836,52.72587 -36.72055,84.14984 1.00379,43.9437 27.13555,85.91865 79.34704,124.1898 3.17344,2.21747 7.06132,4.90905 11.62895,8.0429 6.61521,4.44841 14.76284,9.85688 24.31298,16.07888 14.61978,9.5257 30.3001,19.5752 36.63901,23.6688 94.38325,65.7694 148.25911,120.9042 161.80132,180.2312 1.45371,6.4266 2.40051,12.8405 2.86146,19.2354 16.62693,0.053 32.84792,0.038 48.66185,-0.036 10.68428,-0.052 21.18384,-0.131 31.49844,-0.2345 0,0 0,0 0,0 24.8311,-0.2447 47.0544,-0.1406 66.6857,0.4169 19.1678,0.6494 35.5677,1.8189 49.2177,3.6188 3.6931,0.5017 7.2791,1.015 10.758,1.5411 8.4842,-39.0791 22.3823,-73.741 38.3227,-111.8401 0,0 0,0 0,0 10.5403,-25.1217 22.7736,-50.6117 36.3652,-75.8704 0.7535,-1.3783 1.5164,-2.7564 2.2892,-4.1343 2.6794,-4.3748 7.1947,-11.576 13.0637,-20.5053 5.7835,-8.7991 10.8479,-16.2853 13.7095,-20.5495 5.3008,-8.38716 10.0693,-17.19525 14.2151,-26.46902 12.4067,-27.48334 18.8125,-58.062 18.2986,-93.15306 z m 74.4323,12.12967 c 0.6158,49.41821 -8.9967,91.91615 -28.15,128.90511 -8.726,16.8873 -19.2407,32.46 -31.2464,46.9172 -13.4976,16.1152 -24.7488,31.2428 -33.8826,44.7543 -2.1003,3.1334 -4.097,6.1926 -5.9913,9.1723 -10.1845,16.0202 -20.0667,36.1473 -30.6282,60.9346 -5.8718,13.7824 -10.6158,27.3712 -14.1739,40.484 -2.7727,10.3164 -4.8747,20.4399 -6.2188,30.3702 1.3115,1.4857 2.5579,3.0123 3.7386,4.5801 11.394,14.8778 17.324,33.4088 15.8574,55.8189 -1.1111,16.9773 -6.6605,30.7461 -16.9134,41.5651 8.0168,13.8984 11.8296,29.2813 10.4407,46.2082 -1.8078,22.0314 -11.0196,38.095 -28.3287,48.5819 -1.3999,0.8503 -2.8539,1.6618 -4.3621,2.4346 1.1614,3.3445 2.1069,6.6726 2.8279,9.9833 1.7351,7.9024 2.19,15.7026 1.2269,23.4062 -1.1864,9.4895 -3.6633,17.7585 -7.5469,24.8464 -4.6821,8.5625 -11.4008,15.3464 -20.2817,20.3982 -12.4014,7.054 -26.6288,10.5014 -42.252,10.3901 -4.7904,-0.038 -9.736,-0.4073 -14.8252,-1.1048 -12.8909,16.7532 -29.5659,29.6718 -50.1627,39.0172 0,0 0,0 0,0 -2.4256,1.1002 -4.9039,2.1499 -7.4337,3.1492 -17.0406,6.731 -34.3968,10.4322 -51.5851,11.1156 -7.00861,0.2788 -13.99442,0.058 -20.9762,-0.6558 -11.38893,-1.1637 -21.92584,-3.5497 -31.8378,-7.1309 -7.09252,-2.5623 -13.85816,-5.7357 -20.3736,-9.5117 -3.67941,-2.1325 -7.27989,-4.4577 -10.81532,-6.9743 -7.9866,-5.6848 -15.10293,-11.9855 -21.34493,-18.8884 -8.24823,-9.116 -14.98171,-19.3468 -20.05015,-30.6761 -26.32751,-1.6486 -47.91974,-8.4675 -65.82787,-20.41 -17.85386,-11.9063 -27.44011,-27.9903 -27.52989,-47.951 -0.0469,-10.4367 3.8671,-20.4233 12.17493,-29.956 -28.28486,-14.1496 -43.52433,-32.8488 -44.30357,-55.4392 -0.55655,-16.1343 7.15977,-29.5175 24.11691,-40.2752 -17.25349,-12.7071 -26.39746,-27.2813 -26.92113,-43.3644 -0.76819,-23.5925 15.05074,-40.1892 49.74265,-50.6313 -3.0079,-22.0073 -15.78164,-45.7724 -38.99216,-72.2537 -11.97215,-13.6589 -23.98805,-26.2847 -35.89084,-37.8144 -10.86023,-10.7231 -21.68005,-20.4912 -32.38838,-29.2784 -22.46971,-18.4386 -49.91452,-39.1874 -83.32659,-63.6673 C 522.5143,978.70504 484.47925,915.03387 482.96115,846.95472 c -0.97237,-43.60582 14.00666,-82.44133 45.04624,-116.20783 31.13619,-33.87159 72.64208,-60.00524 125.29876,-79.67861 15.58676,-5.82328 31.86631,-11.20659 48.87682,-16.19654 41.51851,-11.84378 87.07262,-22.00212 138.08231,-31.80039 26.93315,-5.17351 54.46321,-9.97916 82.61901,-14.48804 18.5792,-3.10861 36.72704,-6.02899 54.41181,-8.72099 10.8964,-1.6607 21.63366,-3.23789 32.2081,-4.72228 15.575,-2.1921 30.1953,-3.98244 43.8321,-5.29142 8.4743,-0.81343 16.5307,-1.4373 24.1809,-1.85403 19.639,-0.97644 36.2825,-0.45725 50.0161,1.8938 14.5507,2.56092 27.3776,6.64523 38.3757,12.46355 2.8735,1.49196 5.7463,3.07688 8.6164,4.7548 10.0807,5.89322 19.7909,12.65475 29.083,20.24175 0,0 0,10e-6 0,10e-6 16.1321,12.90198 32.5325,28.43089 48.6238,46.08948 0.803,0.87495 1.6049,1.75592 2.4056,2.64287 25.2861,28.00901 47.9305,62.70197 66.1881,102.7862 0.8499,1.86489 1.6896,3.74201 2.5188,5.63128 18.7318,42.67702 28.5824,86.95623 29.1544,132.86256 z"
       id="path3"
       inkscape:original-d="M1081.897,889.075c0,7.193-2.63,13.417-7.885,18.672c-5.256,5.257-11.479,7.885-18.673,7.885s-13.418-2.628-18.673-7.885  c-5.256-5.256-7.885-11.479-7.885-18.672c0-25.45-14.938-45.091-44.813-58.923C954.093,816.32,924.77,809.405,896,809.405  c-7.193,0-13.417-2.628-18.673-7.884c-5.255-5.256-7.884-11.48-7.884-18.673s2.628-13.417,7.884-18.673  c5.256-5.256,11.48-7.884,18.673-7.884c27.663,0,55.188,4.426,82.574,13.278c27.387,8.853,51.453,23.791,72.201,44.814  C1071.522,835.408,1081.897,860.305,1081.897,889.075z M1214.68,889.075c0-39.835-9.544-76.904-28.632-111.206  c-19.087-34.302-43.983-62.38-74.689-84.234s-64.732-39.005-102.078-51.454c-37.345-12.448-75.105-18.672-113.28-18.672  c-38.175,0-75.936,6.224-113.281,18.672c-37.345,12.449-71.371,29.6-102.076,51.454c-30.707,21.854-55.603,49.932-74.691,84.234  c-19.087,34.302-28.631,71.371-28.631,111.206c0,55.879,18.812,105.672,56.433,149.38c5.533,6.086,13.97,15.215,25.312,27.387  c11.342,12.173,19.778,21.301,25.312,27.387c70.817,84.649,109.822,167.085,117.015,247.309h189.216  c7.193-80.224,46.199-162.659,117.017-247.309c5.532-6.086,13.969-15.214,25.312-27.387c11.342-12.172,19.779-21.301,25.311-27.387  C1195.869,994.747,1214.68,944.954,1214.68,889.075z M1320.906,889.075c0,85.755-28.493,159.893-85.479,222.412  c-24.897,27.11-45.505,51.177-61.827,72.201c-16.321,21.023-32.78,47.442-49.379,79.254c-16.597,31.812-26.003,61.551-28.216,89.215  c26.003,15.491,39.006,38.174,39.006,68.051c0,20.472-6.917,38.175-20.748,53.113c13.831,14.938,20.748,32.643,20.748,53.114  c0,28.769-12.448,51.176-37.346,67.221c7.192,12.725,10.788,25.727,10.788,39.005c0,25.45-8.714,45.091-26.142,58.923  c-17.429,13.832-38.867,20.747-64.317,20.747c-11.064,24.344-27.663,43.708-49.793,58.092C946.07,1784.807,922.003,1792,896,1792  s-50.07-7.193-72.201-21.578c-22.131-14.384-38.729-33.748-49.794-58.092c-25.451,0-46.889-6.915-64.317-20.747  s-26.142-33.473-26.142-58.923c0-13.278,3.596-26.28,10.789-39.005c-24.896-16.045-37.345-38.452-37.345-67.221  c0-20.472,6.915-38.176,20.748-53.114c-13.833-14.938-20.748-32.642-20.748-53.113c0-29.877,13.002-52.56,39.005-68.051  c-2.213-27.664-11.618-57.402-28.216-89.215c-16.598-31.812-33.058-58.23-49.379-79.254c-16.321-21.024-36.93-45.091-61.827-72.201  c-56.987-62.519-85.479-136.656-85.479-222.412c0-54.773,12.31-105.812,36.931-153.116c24.621-47.304,56.986-86.586,97.097-117.845  c40.112-31.259,85.479-55.88,136.104-73.861C791.848,526.272,843.44,517.282,896,517.282c52.56,0,104.151,8.991,154.775,26.972  c50.624,17.98,95.991,42.602,136.103,73.861c40.11,31.259,72.478,70.541,97.099,117.845  C1308.597,783.263,1320.906,834.302,1320.906,889.075z" /><path
       style="stroke:none;fill:#00ff00;fill-opacity:1"
       d="m 1697.2041,826.04484 c 0.1864,76.94217 1.3007,154.13177 3.3424,231.57286 -12.5559,42.2991 -38.94,72.7028 -78.6914,92.3944 -39.7192,19.6757 -84.7725,23.8538 -134.8523,13.1484 0.2464,8.9329 0.5014,17.8677 0.7648,26.8045 0.2306,7.8224 -2.1375,13.6942 -7.1065,17.6479 -4.9675,3.9525 -11.4253,5.1047 -19.3483,3.4838 -13.7145,-2.8056 -27.3445,-5.5121 -40.8904,-8.115 -4.296,-0.8281 -8.5649,-1.6458 -12.8066,-2.4527 -7.6492,-1.4551 -13.9063,-5.1309 -18.828,-11.0556 -4.9175,-5.9199 -7.4199,-12.7868 -7.5664,-20.6026 -3.0155,-160.8465 -5.0434,-321.50373 -6.0838,-481.97159 -0.051,-7.79459 2.2912,-13.76088 7.0859,-17.83462 4.7984,-4.07692 10.9983,-5.36335 18.6553,-3.82481 4.2461,0.85319 8.5197,1.72093 12.821,2.60246 13.5678,2.77031 27.2162,5.67441 40.9466,8.70332 7.931,1.74958 14.4603,5.72336 19.5562,11.87566 5.0985,6.15559 7.6276,13.11763 7.5907,20.87474 -0.042,8.86577 -0.076,17.73351 -0.101,26.60322 40.3802,9.22375 78.0533,28.50201 112.6326,57.05258 -22.164,10.96632 -43.982,22.20671 -65.5478,33.79235 0,0 -2.0918,-46.52614 -10.0658,-103.55816 -7.9555,-56.90019 -21.8448,-124.76487 -46.6474,-166.76962 -16.455,-27.8676 -35.8169,-54.72565 -57.4966,-80.16104 -30.1467,-35.60005 -64.4904,-68.75622 -101.2147,-97.4846 0,0 0,-10e-6 0,-10e-6 -16.1445,-12.62635 -32.6664,-24.50029 -49.4503,-35.40775 -10.4045,-6.76157 -20.9878,-13.05375 -31.7189,-18.82232 -21.3821,-11.52278 -43.2311,-21.08217 -65.2562,-28.21124 -17.8721,-5.83663 -36.1704,-10.0788 -54.636,-12.65858 -16.1054,-2.2855 -33.0104,-3.13718 -50.496,-2.83086 -16.5378,0.30317 -34.1448,1.83413 -52.6751,4.13412 0,0 -10e-5,0 -10e-5,0 -7.2578,0.91248 -14.64758,1.93497 -22.15861,3.04283 -12.06365,1.77936 -24.5373,3.79335 -37.44326,5.94768 -8.63842,1.43994 -17.40176,2.91242 -26.20274,4.39011 -14.26849,2.39438 -28.5734,4.79248 -43.28819,7.20647 -58.73627,9.4151 -123.73478,19.22366 -178.68478,28.94891 -27.77363,5.0019 -55.01822,10.55916 -81.42424,16.91899 -66.64343,16.05091 -129.77,34.59026 -185.30059,59.43591 -39.17557,17.5603 -74.92562,38.13138 -105.33349,62.40646 -37.12958,29.64112 -62.84586,87.91945 -77.85175,140.55694 -14.88753,52.22232 -18.73126,97.22251 -18.73126,97.22251 -27.69661,-20.37115 -54.80296,-40.89303 -81.32883,-61.62409 44.60129,-13.19137 93.47899,-15.3846 147.00523,-7.47385 0.51058,-8.60923 1.07013,-17.21277 1.67864,-25.81062 0.53239,-7.52228 4.38567,-13.18468 11.51059,-16.96837 7.13021,-3.78649 15.95231,-4.85611 26.49837,-3.24117 24.11055,3.69209 48.39388,7.34286 72.85214,10.93478 1.54342,0.22667 3.04471,0.49691 4.50389,0.81069 8.62634,1.88613 15.82323,5.29703 21.56227,10.23463 6.71142,5.77419 9.92596,12.34111 9.5824,19.75201 -7.06361,152.36805 -2.42515,305.99767 13.91536,460.88883 0.79452,7.5313 -2.02242,13.3995 -8.38761,17.6403 -5.44307,3.6264 -12.44047,5.3669 -20.96878,5.2105 -1.44251,-0.022 -2.92999,-0.099 -4.46247,-0.2284 -24.28501,-2.0583 -48.41876,-4.0522 -72.40131,-5.9722 -10.48993,-0.8398 -19.42236,-3.9813 -26.82779,-9.4634 -7.4003,-5.4783 -11.63242,-12.0832 -12.64229,-19.7848 -1.15425,-8.8027 -2.25953,-17.5996 -3.31584,-26.3909 -66.01956,-5.6524 -125.82514,-24.8965 -179.49918,-59.1774 C 78.37225,966.15141 41.538361,924.33982 22.724229,875.23211 18.733764,810.45546 18.187025,746.0694 21.084013,682.07393 24.965447,596.33174 58.984112,518.36152 119.62521,450.10012 c 60.75296,-68.38733 137.85361,-119.97189 226.1309,-158.28321 36.85229,-15.99347 75.26726,-29.47452 115.12853,-40.95841 56.08464,-16.12295 113.65972,-27.7495 175.25287,-38.72137 22.27281,-3.96756 44.41603,-7.65054 66.35298,-11.16496 49.95478,-7.96964 101.06707,-15.84681 149.93263,-24.69432 11.93823,-2.1635 23.85281,-4.39611 35.8313,-6.66194 7.38273,-1.39651 14.76073,-2.80013 22.18692,-4.20848 10.96359,-2.07922 22.04017,-4.16713 33.16321,-6.14888 6.92262,-1.23338 13.84445,-2.42235 20.78188,-3.54402 18.0469,-2.91787 36.13567,-5.34803 54.33557,-6.83039 19.4995,-1.58799 39.038,-2.06807 58.4637,-1.16685 22.1986,1.02726 44.2071,3.83196 65.8357,8.32596 26.0263,5.40048 51.4729,13.2067 76.3479,22.99022 10.3221,4.05775 20.5365,8.45753 30.652,13.17577 20.6229,9.61931 40.4364,20.27992 59.4583,31.67954 0,0 0,1e-5 0,1e-5 38.8112,23.26311 74.5502,49.98013 107.3785,78.72523 25.5396,22.29635 49.3591,45.98974 71.5188,70.81149 64.5363,72.28928 115.5067,154.34507 153.415,241.61341 38.1432,87.80925 57.3472,173.13713 57.2223,255.99157"
       id="path5"
       inkscape:original-d="M 1725.825,706 1728,986 c -14.667,55.333 -44.833,100.833 -90.5,136.5 -45.667,35.667 -97.833,53.5 -156.5,53.5 l 0,32 c 0,9.333 -3,17 -9,23 -6,6 -13.667,9 -23,9 l -64,0 c -9.333,0 -17,-3 -23,-9 -6,-6 -9,-13.667 -9,-23 l 0,-576 c 0,-9.333 3,-17 9,-23 6,-6 13.667,-9 23,-9 l 64,0 c 9.333,0 17,3 23,9 6,6 9,13.667 9,23 l 0,32 c 47.333,0 90.667,11.833 130,35.5 l -75,60.5 c 0,0 -9.333,-221.667 -68,-309 -58.667,-87.333 -147.5,-157 -246.5,-209 -99,-52 -214.167,-78 -325.5,-78 -111.333,0 -226.5,26 -325.5,78 -99,52 -187.833,121.667 -246.5,209 -58.667,87.333 -68,309 -68,309 L 181,699.5 C 220.333,675.833 263.667,664 311,664 l 0,-32 c 0,-9.333 3,-17 9,-23 6,-6 13.667,-9 23,-9 l 64,0 c 9.333,0 17,3 23,9 6,6 9,13.667 9,23 l 0,576 c 0,9.333 -3,17 -9,23 -6,6 -13.667,9 -23,9 l -64,0 c -9.333,0 -17,-3 -23,-9 -6,-6 -9,-13.667 -9,-23 l 0,-32 c -58.667,0 -110.833,-17.833 -156.5,-53.5 C 108.833,1086.833 78.667,1041.333 64,986 L 64,760 C 64,659.333 86.333,562.333 131,469 175.667,375.667 235.333,294.833 310,226.5 384.667,158.167 473.333,103.667 576,63 678.667,22.333 785.333,2 896,2 c 110.667,0 217.333,20.333 320,61 102.667,40.667 191.333,95.167 266,163.5 74.667,68.333 134.333,149.167 179,242.5 44.667,93.333 67,190.333 67,291" /></g></svg>