/* XPM */
static const char * mitkErasePaintbrushTool_xpm[] = {
/* columns rows colors chars-per-pixel */
"24 24 68 1",
"  c gray40",
". c #676767",
"X c #686868",
"o c gray43",
"O c #717171",
"+ c gray46",
"@ c #767676",
"# c #777777",
"$ c #7C7C7C",
"% c gray49",
"& c #7F7F7F",
"* c #90364C",
"= c #95344C",
"- c #94354C",
"; c #96344C",
": c #98334C",
"> c #9B324C",
", c #9D324C",
"< c #A52F4B",
"1 c #AF2B4B",
"2 c #AB2D4B",
"3 c #A82E4B",
"4 c #BC274B",
"5 c #B22A4B",
"6 c #B22B4B",
"7 c #B5294B",
"8 c #B6294B",
"9 c #B52A4B",
"0 c #B9284B",
"q c #A2304C",
"w c #8C4758",
"e c #808080",
"r c #818181",
"t c gray51",
"y c #848484",
"u c #868686",
"i c gray53",
"p c gray55",
"a c #8D8D8D",
"s c #909090",
"d c #939091",
"f c #939393",
"g c gray58",
"h c #989898",
"j c #9A9A9A",
"k c #9B9B9B",
"l c gray61",
"z c #9F9F9F",
"x c #A0A0A0",
"c c gray63",
"v c #A2A2A2",
"b c #A4A4A4",
"n c #A5A5A5",
"m c gray65",
"M c #A7A7A7",
"N c #ABA7A9",
"B c #AAAAAA",
"V c gray67",
"C c #ACACAC",
"Z c #B4ADB0",
"A c gray69",
"S c #B1B1B1",
"D c gray70",
"F c #BDB3B9",
"G c #BFB4BB",
"H c #CDBFC7",
"J c #E1D0DA",
"K c None",
/* pixels */
"KKKKKKKKKKKKKKKKKKKKKKKK",
"KKKKKKKKKKKKKKKKKKKKK<-K",
"KKKKKKKKKKKKKKKKKKKK6,KK",
"KKKKKKKKKKKKKKKKKK:7*KKK",
"KKKKKKKKKKKKKKKKK31KKKKK",
"KKKKKKKKKKKKKKKK9qKKKKKK",
"KKKKKKKKKKKKKK>0;KKKKKKK",
"KKKKKKKKKKKKK25KKKKKKKKK",
"KKKKKKKKKKK*83KKKKKKKKKK",
"KKKKKKKKKK=4>KKKKKKKKKKK",
"KKKKKKKKidwKKKKKKKKKKKKK",
"KKKKKKaDD&KKKKKKKKKKKKKK",
"KKKKKesDBKKKKKKKKKKKKKKK",
"KKKKKpOKKKKKKKKKKKKKKKKK",
"KKKKKKKKKKKKKKKKKKKKKKKK",
"KX ooKKKKKKKHJFADk  tDDK",
"KX oKKKKKKKKHJFADk  tDDK",
"K$$eKKKKKKKKZGNxcf%%uggK",
"KADbKKKKKKKKKKKADvDDp  K",
"KADbKKKKKKKKKKKADvDDp  K",
"K##ybbKKKKbzlbh##rvvgjjK",
"KX tDDKKKnDCMDzX +DDxDDK",
"KX.tSSKKKbSVmSzX.@SSzSSK",
"KKKKKKKKKKKKKKKKKKKKKKKK"
};
