/* XPM */
static const char * mitkAddContourTool_xpm[] = {
/* columns rows colors chars-per-pixel */
"40 24 102 2",
"   c #2E3436",
".  c #2F3537",
"X  c #313638",
"o  c #34393B",
"O  c #333A3C",
"+  c #353B3D",
"@  c #353B3E",
"#  c #383E3F",
"$  c #383E40",
"%  c #3A4144",
"&  c #3B4245",
"*  c #3E4547",
"=  c #40484A",
"-  c #42484A",
";  c #434A4B",
":  c #434B4C",
">  c #444D4E",
",  c #454E4F",
"<  c #4B5456",
"1  c #4D5759",
"2  c #4E575A",
"3  c #4E585A",
"4  c #4F585B",
"5  c #4F595C",
"6  c #515B5C",
"7  c #515B5D",
"8  c #535D60",
"9  c #586466",
"0  c #596567",
"q  c #5A6467",
"w  c #5C696A",
"e  c #5C686B",
"r  c #5D696C",
"t  c #5E6A6D",
"y  c #5F6B6E",
"u  c #606D6F",
"i  c #616E70",
"p  c #616E71",
"a  c #627072",
"s  c #627073",
"d  c #657274",
"f  c #697375",
"g  c #68777A",
"h  c #6A787B",
"j  c #6A797C",
"k  c #6C7B7E",
"l  c #6E7C7F",
"z  c #6F7F82",
"x  c #707E80",
"c  c #718183",
"v  c #718184",
"b  c #76878A",
"n  c #7A8B8D",
"m  c #7B8D91",
"M  c #7C8E91",
"N  c #7F9295",
"B  c #829598",
"V  c #879B9F",
"C  c #889DA0",
"Z  c #8A9FA2",
"A  c #8A9FA3",
"S  c #8AA0A3",
"D  c #8DA1A5",
"F  c #8EA3A7",
"G  c #90A3A5",
"H  c #90A5AA",
"J  c #91A7AB",
"K  c #93A9AD",
"L  c #93AAAD",
"P  c #94AAAE",
"I  c #94ABAE",
"U  c #95ACB0",
"Y  c #96AEB1",
"T  c #99B1B5",
"R  c #9CB4B8",
"E  c #9CB5B8",
"W  c #9DB5B9",
"Q  c #9EB8BB",
"!  c #A1BBBF",
"~  c #A1BCBF",
"^  c #A6C0C4",
"/  c #A6C1C5",
"(  c #A7C2C6",
")  c #A8C3C6",
"_  c #A8C3C8",
"`  c #A8C4C8",
"'  c #A8C4C9",
"]  c #AAC7CB",
"[  c #ADC9CE",
"{  c #B1CED3",
"}  c #B1D1D4",
"|  c #B3D1D6",
" . c #B4D3D7",
".. c #B5D3D8",
"X. c #B6D5DA",
"o. c #B8D8DD",
"O. c #BBDCE1",
"+. c #BCDEE3",
"@. c #BEE0E5",
"#. c #BEE1E6",
"$. c #BFE2E7",
"%. c None",
/* pixels */
"%.%.%.%.%.%.%.%.%.%.%.%.%.%.%.%.%.%.%.%.%.%.%.%.%.%.%.%.%.%.%.%.%.%.%.%.%.%.%.%.",
"%.%.%.%.%.%.%.                        - 5 < ;           %.%.%.%.%.%.%.%.%.%.%.%.",
"%.%.%.%.%.%.%.                  , M W +.$.$.@.P r       %.%.%.%.%.%.%.%.%.%.%.%.",
"%.%.%.%.%.%.%.              + c  .} A j w t b ' @.d     %.%.%.%.%.%.%.%.%.%.%.%.",
"%.%.%.%.%.%.%.            + I #.S =           % ~ X.>   %.%.%.%.%.%.%.%.%.%.%.%.",
"%.%.%.%.%.%.%.          X C ..u                 r $.y   %.%.%.%.%.%.%.%.%.%.%.%.",
"%.%.%.%.%.%.%.          p $.m                   7 $.k   %.%.%.%.%.%.%.%.%.%.%.%.",
"%.%.%.%.%.%.%.          J X.:                   v @.1   %.%.%.%.%.%.%.%.%.%.%.%.",
"%.%.%.%.%.%.%.        o  .K X .               * ' T     %.%.%.%.%.%.%.%.%.%.%.%.",
"%.%.%.%.%.%.%.          / ` ^ ~ g           & R } 3     %.%.%.%.%.%.%.%.%.%.%.%.",
"%.%.%.%.%.%.%.          H $.E f | =       s _ o.0       %.%.%.%.%.%.%.%.%.%.%.%.",
"%.%.%.%.%.%.%.          6 ] G @.@.x z V ! $.L <         %.%.%.%.%.%.%.%.%.%.%.%.",
"%.%.%.%.%.%.%.            l / $.$.$.$...F i .           %.%.%.%.%.%.%.%.%.%.%.%.",
"%.%.%.%.%.%.%.              # { D 8 2 $                 %.%.%.%.%.%.%.%.%.%.%.%.",
"%.%.%.%.%.%.%.              9 $.e                       %.%.%.%.%.%.%.%.%.%.%.%.",
"%.%.%.%.%.%.%.              N [ @                       %.%.%.%.%.%.%.%.%.%.%.%.",
"%.%.%.%.%.%.%.            = | B                         %.%.%.%.%.%.%.%.%.%.%.%.",
"%.%.%.%.%.%.%.            n $.q                         %.%.%.%.%.%.%.%.%.%.%.%.",
"%.%.%.%.%.%.%.      h Q ) O.( O                         %.%.%.%.%.%.%.%.%.%.%.%.",
"%.%.%.%.%.%.%.      a Z Y U 4                           %.%.%.%.%.%.%.%.%.%.%.%.",
"%.%.%.%.%.%.%.                                          %.%.%.%.%.%.%.%.%.%.%.%.",
"%.%.%.%.%.%.%.%.%.%.%.%.%.%.%.%.%.%.%.%.%.%.%.%.%.%.%.%.%.%.%.%.%.%.%.%.%.%.%.%.",
"%.%.%.%.%.%.%.%.%.%.%.%.%.%.%.%.%.%.%.%.%.%.%.%.%.%.%.%.%.%.%.%.%.%.%.%.%.%.%.%.",
"%.%.%.%.%.%.%.%.%.%.%.%.%.%.%.%.%.%.%.%.%.%.%.%.%.%.%.%.%.%.%.%.%.%.%.%.%.%.%.%."
};
