/* XPM */
static const char * mitkDrawPaintbrushTool_xpm[] = {
/* columns rows colors chars-per-pixel */
"24 24 107 2",
"   c gray40",
".  c #676767",
"X  c #686868",
"o  c DimGray",
"O  c #6C6C6C",
"+  c #6D6D6D",
"@  c gray43",
"#  c gray46",
"$  c #767676",
"%  c #777777",
"&  c #797778",
"*  c gray47",
"=  c #7C7B7B",
"-  c #7C7B7C",
";  c gray49",
":  c #7E7E7E",
">  c #7F7F7F",
",  c #92354C",
"<  c #93354C",
"1  c #95344C",
"2  c #96344C",
"3  c #97344C",
"4  c #A42F4B",
"5  c #A52F4B",
"6  c #A62F4B",
"7  c #A92D4B",
"8  c #AE2C4B",
"9  c #BF264B",
"0  c #B12B4B",
"q  c #B22A4B",
"w  c #B7294B",
"e  c #B42A4B",
"r  c #BA284B",
"t  c #BB2C4E",
"y  c #A3304B",
"u  c #A0314C",
"i  c #B73152",
"p  c #B83052",
"a  c #AB425C",
"s  c #A9475D",
"d  c #A8455E",
"f  c #A8465E",
"g  c #AC445D",
"h  c #8C5764",
"j  c #9D5768",
"k  c #9B5C6B",
"l  c #A74C61",
"z  c #A35265",
"x  c #A46C7A",
"c  c #AF6E7E",
"v  c #B06D7F",
"b  c #B16E7F",
"n  c #A6727F",
"m  c #808080",
"M  c #858285",
"N  c #868385",
"B  c #868485",
"V  c #8D8687",
"C  c #939393",
"Z  c #959595",
"A  c #989898",
"S  c #9A9A9A",
"D  c gray61",
"F  c #9D9D9D",
"G  c #A8848F",
"H  c #AC8F9A",
"J  c #A29B9D",
"K  c #B3939D",
"L  c #B894A0",
"P  c #A0A0A0",
"I  c gray63",
"U  c #A2A2A2",
"Y  c #A4A1A3",
"T  c #A4A4A4",
"R  c #A5A5A5",
"E  c #A8A5A6",
"W  c #A9A6A8",
"Q  c gray66",
"!  c gray67",
"~  c #ADACAD",
"^  c #B8A3AC",
"/  c #BEA7B1",
"(  c #BDAAB1",
")  c gray69",
"_  c #B1B1B1",
"`  c #B3B2B2",
"'  c gray70",
"]  c #B4B3B4",
"[  c gray71",
"{  c #BCBCBC",
"}  c #C0ABB4",
"|  c #C6ABB5",
" . c #C0ACB5",
".. c #C0AFB7",
"X. c #C5B9C0",
"o. c #C9BDC4",
"O. c #CABDC5",
"+. c #C0C0C0",
"@. c gray78",
"#. c gray80",
"$. c #D1C0C9",
"%. c #D2C3CB",
"&. c #D7C3CE",
"*. c #D5C6CE",
"=. c #DBCBD4",
"-. c #E1D0DA",
";. c None",
/* pixels */
";.;.;.;.;.;.;.;.;.;.;.;.;.;.;.;.;.;.;.;.;.;.;.;.",
";.;.;.;.;.;.;.;.;.;.;.;.;.;.;.;.;.;.;.;.;., 3 ;.",
";.;.;.;.;.;.;.;.;.;.;.;.;.;.;.;.;.;.;.;.y 8 ;.;.",
";.;.;.;.;.;.;.;.;.;.;.;.;.;.;.;.;.;.;.0 u ;.;.;.",
";.;.;.;.;.;.;.;.;.;.;.;.;.;.;.;.;.< w , ;.;.;.;.",
";.;.;.;.;.;.;.;.;.;.;.;.;.;.;.;.4 0 ;.;.;.;.;.;.",
";.;.;.;.;.;.;.;.;.;.;.;.;.;.;.q 5 ;.;.;.;.;.;.;.",
";.;.;.;.;.;.;.;.;.;.;.;.;.1 r 2 ;.;.;.;.;.;.;.;.",
";.;.;.;.;.;.;.;.;.;.;.;.6 e ;.;.;.;.;.;.;.;.;.;.",
";.;.;.;.;.;.;.;.;.;.;.e 7 ;.;.;.;.;.;.;.;.;.;.;.",
";.;.;.;.;.;.;.;.;.V h 1 ;.;.;.;.;.;.;.;.;.;.;.;.",
";.;.;.;.;.;.;.p 9 k ;.;.;.;.;.;.;.;.;.;.;.;.;.;.",
";.;.;.;.;.;.l 9 9 s ;.;.;.;.;.;.;.;.;.;.;.;.;.;.",
";.;.;.;.;.;.j z ;.;.;.;.;.;.;.;.;.;.;.;.;.;.;.;.",
";.;.;.;.;.;.;.;.;.;.;.;.;.;.;.;.;.;.;.;.;.;.;.;.",
";.+ X @ O.| ( t t c =.=.` @.{ R ) U o X * ) ) ;.",
";.+   O $.&. .9 9 v -.-.[ #.+.Q ' T .   % ' ' ;.",
";.- & = ^ / H a a n / / E ] ~ F U S $ # m D D ;.",
";.o.-.X.i 9 g 9 9 d 9 9 ..-.%.Q ' R _ ' A     ;.",
";.o.-.X.i 9 g 9 9 d 9 9 ..-.%.Q ' R _ ' A     ;.",
";.B M N K L G f f x L L J W Y : ; > P P Z C C ;.",
";.O   + *.-.} 9 9 b -.-.R ' ! O   @ _ ' I ' ' ;.",
";.O   + *.-.} 9 9 b -.-.R ' ! O   @ _ ' I ' ' ;.",
";.;.;.;.;.;.;.;.;.;.;.;.;.;.;.;.;.;.;.;.;.;.;.;."
};
