/* XPM */
static const char * mitkEraseRegionTool_xpm[] = {
/* columns rows colors chars-per-pixel */
"40 24 107 2",
"   c #2E3436",
".  c #2F3537",
"X  c #303638",
"o  c #313638",
"O  c #32373A",
"+  c #33383A",
"@  c #353A3C",
"#  c #393B3D",
"$  c #3C3B3F",
"%  c #393E3F",
"&  c #3C3C3F",
"*  c #3D3C3F",
"=  c #403C40",
"-  c #463F43",
";  c #4D3E43",
":  c #4A3E44",
">  c #523D45",
",  c #583E47",
"<  c #5F3F49",
"1  c #693F4B",
"2  c #713B4A",
"3  c #713E4C",
"4  c #723E4C",
"5  c #723F4D",
"6  c #7C394B",
"7  c #7D3D4E",
"8  c #454245",
"9  c #464245",
"0  c #474246",
"q  c #464346",
"w  c #4F4046",
"e  c #4F4147",
"r  c #4F4247",
"t  c #4E4148",
"y  c #494D4E",
"u  c #504046",
"i  c #514047",
"p  c #504147",
"a  c #57454C",
"s  c #5F414A",
"d  c #5D454D",
"f  c #5F444C",
"g  c #5D464E",
"h  c #4A4D50",
"j  c #4F5153",
"k  c #515455",
"l  c #55595A",
"z  c #5B5D5F",
"x  c #68434D",
"c  c #6A434E",
"v  c #6A444F",
"b  c #6B444F",
"n  c #664650",
"m  c #734251",
"M  c #784553",
"N  c #794954",
"B  c #5E5F62",
"V  c #5E6061",
"C  c #5F6264",
"Z  c #646769",
"A  c #707172",
"S  c #727274",
"D  c #7E7E7F",
"F  c #84394C",
"G  c #963B52",
"H  c #913D51",
"J  c #9A3A51",
"K  c #9D3D53",
"L  c #983F56",
"P  c #9F3C54",
"I  c #9E3E56",
"U  c #BF264B",
"Y  c #BD294D",
"T  c #BB2C4E",
"R  c #B92E50",
"E  c #A33651",
"W  c #A13A54",
"Q  c #B63353",
"!  c #B83152",
"~  c #8A4757",
"^  c #8C4456",
"/  c #8E4558",
"(  c #8C4658",
")  c #8E4758",
"_  c #864A59",
"`  c #834C5A",
"'  c #89495A",
"]  c #914154",
"[  c #944055",
"{  c #964155",
"}  c #974457",
"|  c #7D7F80",
" . c #818182",
".. c #838384",
"X. c #838285",
"o. c #858486",
"O. c #939494",
"+. c #959696",
"@. c #989899",
"#. c #A6A6A7",
"$. c #B1B2B2",
"%. c gray71",
"&. c gray78",
"*. c #C8C8C8",
"=. c #C9C8C9",
"-. c gray80",
";. c None",
/* pixels */
";.;.;.;.;.;.;.;.;.;.;.;.;.;.;.;.;.;.;.;.;.;.;.;.;.;.;.;.;.;.;.;.;.;.;.;.;.;.;.;.",
";.;.;.;.;.;.;.                                          ;.;.;.;.;.;.;.;.;.;.;.;.",
";.;.;.;.;.;.;.                          y B %           ;.;.;.;.;.;.;.;.;.;.;.;.",
";.;.;.;.;.;.;.                        . O.S D Z X       ;.;.;.;.;.;.;.;.;.;.;.;.",
";.;.;.;.;.;.;.                        z o.&.*.X. .k     ;.;.;.;.;.;.;.;.;.;.;.;.",
";.;.;.;.;.;.;.                        A +.-.-.-.%...j   ;.;.;.;.;.;.;.;.;.;.;.;.",
";.;.;.;.;.;.;.                        @ | =.-.-.-.-.V   ;.;.;.;.;.;.;.;.;.;.;.;.",
";.;.;.;.;.;.;.                            h @.-.-.#.o   ;.;.;.;.;.;.;.;.;.;.;.;.",
";.;.;.;.;.;.;.                              . C $.l     ;.;.;.;.;.;.;.;.;.;.;.;.",
";.;.;.;.;.;.;.                                  +       ;.;.;.;.;.;.;.;.;.;.;.;.",
";.;.;.;.;.;.;.                                          ;.;.;.;.;.;.;.;.;.;.;.;.",
";.;.;.;.;.;.;.& 4 3 c 3 x 3 5 v 3 >         , 3 b 3 3 = ;.;.;.;.;.;.;.;.;.;.;.;.",
";.;.;.;.;.;.;.0 Y U G U H U T K U 2         6 U J U U w ;.;.;.;.;.;.;.;.;.;.;.;.",
";.;.;.;.;.;.;.9 P W ~ W ' W I ) E 1         m W ( W W t ;.;.;.;.;.;.;.;.;.;.;.;.",
";.;.;.;.;.;.;.0 ! R [ R ] R Q #             7 R L R R p ;.;.;.;.;.;.;.;.;.;.;.;.",
";.;.;.;.;.;.;.0 Y U G U H U T #             6 U J U U w ;.;.;.;.;.;.;.;.;.;.;.;.",
";.;.;.;.;.;.;.q / ^ ` ^ N < s O             ; < n ^ ^ r ;.;.;.;.;.;.;.;.;.;.;.;.",
";.;.;.;.;.;.;.0 Y U G U F                       : U U w ;.;.;.;.;.;.;.;.;.;.;.;.",
";.;.;.;.;.;.;.8 } { _ { M                   * - a { { e ;.;.;.;.;.;.;.;.;.;.;.;.",
";.;.;.;.;.;.;.0 Y U G U F                   6 U J U U w ;.;.;.;.;.;.;.;.;.;.;.;.",
";.;.;.;.;.;.;.0 Y U G U F                   6 U J U U w ;.;.;.;.;.;.;.;.;.;.;.;.",
";.;.;.;.;.;.;.;.f f g f i                   u f d f f $ ;.;.;.;.;.;.;.;.;.;.;.;.",
";.;.;.;.;.;.;.;.;.;.;.;.;.;.;.;.;.;.;.;.;.;.;.;.;.;.;.;.;.;.;.;.;.;.;.;.;.;.;.;.",
";.;.;.;.;.;.;.;.;.;.;.;.;.;.;.;.;.;.;.;.;.;.;.;.;.;.;.;.;.;.;.;.;.;.;.;.;.;.;.;."
};
