/* XPM */
static const char * mitkCorrectorTool2D_xpm[] = {
/* columns rows colors chars-per-pixel */
"24 24 8 1",
"  c #00A9D3",
". c #00AAD2",
"X c #00ABD2",
"o c #00AAD3",
"O c #00ABD3",
"+ c #00AAD4",
"@ c #00ABD5",
"# c None",
/* pixels */
"########################",
"########################",
"########################",
"####################X###",
"###O oooooO#########o###",
"###################o####",
"##################o#####",
"#################o######",
"############### oo######",
"#############ooo########",
"###########+o ##########",
"########oo+#############",
"######oo################",
"##################o#####",
"####o############@o#####",
"###o#############@o#####",
"###o###########  oo+ +##",
"##o###########.o.ooo..##",
"##o##############@o#####",
"#################@o#####",
"##o##############O #####",
"########################",
"########################",
"########################"
};
