/* XPM */
static const char * mitkDrawPaintbrushTool_xpm[] = {
/* columns rows colors chars-per-pixel */
"24 24 100 2",
"   c gray40",
".  c DimGray",
"X  c gray42",
"o  c #6C6C6C",
"O  c #6F6F6F",
"+  c gray45",
"@  c #757475",
"#  c #787778",
"$  c gray47",
"%  c #7B7A7B",
"&  c #7B7B7B",
"*  c #7C7B7C",
"=  c #7E7E7E",
"-  c #93354C",
";  c #90364C",
":  c #94354C",
">  c #98334C",
",  c #99334C",
"<  c #A42F4B",
"1  c #A62F4B",
"2  c #A92D4B",
"3  c #AF2C4B",
"4  c #BF264B",
"5  c #BF274C",
"6  c #B12B4B",
"7  c #B32A4B",
"8  c #B7294B",
"9  c #B42A4B",
"0  c #B52A4B",
"q  c #BA284B",
"w  c #A1304C",
"e  c #A2304C",
"r  c #B92F51",
"t  c #B73152",
"y  c #8E4C5C",
"u  c #AC405A",
"i  c #AA435D",
"p  c #A9465D",
"a  c #A8475E",
"s  c #AB465E",
"d  c #A7485F",
"f  c #995C6C",
"g  c #A74A61",
"h  c #996270",
"j  c #A46F7D",
"k  c #817E80",
"l  c #A67884",
"z  c #A67986",
"x  c #AD7B89",
"c  c #B27988",
"v  c #B17A89",
"b  c #818181",
"n  c #838383",
"m  c #848484",
"M  c #8B8688",
"N  c #8D878A",
"B  c #8B888A",
"V  c #8E8A8C",
"C  c #8E8E8E",
"Z  c gray58",
"A  c #979797",
"S  c gray60",
"D  c gray62",
"F  c #9F9F9F",
"G  c #AD8C96",
"H  c #B78A97",
"J  c #A49DA1",
"K  c #B69DA7",
"L  c #BD9EA8",
"P  c gray63",
"I  c #A2A2A2",
"U  c gray64",
"Y  c #A4A1A3",
"T  c #A4A4A4",
"R  c #A5A5A5",
"E  c #A6A5A5",
"W  c #A9A7A8",
"Q  c #A9A9A9",
"!  c #ACA9AB",
"~  c #ACACAC",
"^  c gray68",
"/  c #B9A2A9",
"(  c #BCA0AA",
")  c gray69",
"_  c gray70",
"`  c #B6B6B6",
"'  c gray74",
"]  c #C1AEB6",
"[  c #C4B5BC",
"{  c #CAB6BF",
"}  c #CBB7BF",
"|  c #CDBFC8",
" . c gray76",
".. c #CDC0C6",
"X. c gray80",
"o. c #D5C6CE",
"O. c #D9C5D0",
"+. c #DAC6D0",
"@. c #E1D0DA",
"#. c None",
/* pixels */
"#.#.#.#.#.#.#.#.#.#.#.#.#.#.#.#.#.#.#.#.#.#.#.#.",
"#.#.#.#.#.#.#.#.#.#.#.#.#.#.#.#.#.#.#.#.#.; > #.",
"#.#.#.#.#.#.#.#.#.#.#.#.#.#.#.#.#.#.#.#.e 3 #.#.",
"#.#.#.#.#.#.#.#.#.#.#.#.#.#.#.#.#.#.#.6 w #.#.#.",
"#.#.#.#.#.#.#.#.#.#.#.#.#.#.#.#.#.: 8 - #.#.#.#.",
"#.#.#.#.#.#.#.#.#.#.#.#.#.#.#.#.1 6 #.#.#.#.#.#.",
"#.#.#.#.#.#.#.#.#.#.#.#.#.#.#.9 < #.#.#.#.#.#.#.",
"#.#.#.#.#.#.#.#.#.#.#.#.#., q : #.#.#.#.#.#.#.#.",
"#.#.#.#.#.#.#.#.#.#.#.#.2 7 #.#.#.#.#.#.#.#.#.#.",
"#.#.#.#.#.#.#.#.#.#.#.0 1 #.#.#.#.#.#.#.#.#.#.#.",
"#.#.#.#.#.#.#.#.#.M y : #.#.#.#.#.#.#.#.#.#.#.#.",
"#.#.#.#.#.#.#.r 4 h #.#.#.#.#.#.#.#.#.#.#.#.#.#.",
"#.#.#.#.#.#.a 4 5 d #.#.#.#.#.#.#.#.#.#.#.#.#.#.",
"#.#.#.#.#.s f g #.#.#.#.#.#.#.#.#.#.#.#.#.#.#.#.",
"#.#.#.#.#.#.#.#.#.#.#.#.#.#.#.#.#.#.#.#.#.#.#.#.",
"#.O . % } { K t t x o.o.)  ._ I ~ F . . & ~ ~ #.",
"#.o   * O.+.L 4 4 c @.@.` X.' Q _ U     $ _ _ #.",
"#.# @ k ] ] G u u z ] ] W ` ^ D T S + + = F F #.",
"#...@./ 4 4 i 4 4 d 4 4 [ @.| Q _ R _ _ A     #.",
"#...@./ 4 4 i 4 4 d 4 4 [ @.| Q _ R _ _ A     #.",
"#.B V N H H l p p j H H J ! Y b n m I I Z C C #.",
"#.X   % @.@.( 4 4 v @.@.E _ Q X   O _ _ P _ _ #.",
"#.X   % @.@.( 4 4 v @.@.E _ Q X   O _ _ P _ _ #.",
"#.#.#.#.#.#.#.#.#.#.#.#.#.#.#.#.#.#.#.#.#.#.#.#."
};
