/* XPM */
static const char * mitkCorrectorTool2D_xpm[] = {
/* columns rows colors chars-per-pixel */
"24 24 12 1",
"  c #BEE1E7",
". c #BFE1E7",
"X c #BFE2E7",
"o c #BFE3E7",
"O c #BEE1E8",
"+ c #BEE2E8",
"@ c #BFE2E8",
"# c #C0E3E6",
"$ c #C0E2E7",
"% c #C0E3E7",
"& c #C0E2E8",
"* c None",
/* pixels */
"************************",
"************************",
"************************",
"************************",
"********************X***",
"*******************.****",
"******************X*****",
"*****************X******",
"************************",
"**************X*********",
"***********+#***********",
"********$X@*************",
"******$O*********.******",
"*****.***********&******",
"****X************&******",
"***o**********ooo$oo.***",
"*** *************&******",
"**%**************&******",
"**X**************&******",
"************************",
"**$*********************",
"************************",
"************************",
"************************"
};
