/* XPM */
static const char * mitkErasePaintbrushTool_xpm[] = {
/* columns rows colors chars-per-pixel */
"24 24 121 2",
"   c #994157",
".  c #974659",
"X  c #95475A",
"o  c #94475B",
"O  c #96475A",
"+  c #984458",
"@  c #95495C",
"#  c #934E5F",
"$  c #954D5E",
"%  c #944F60",
"&  c #8A5D67",
"*  c #895E6A",
"=  c #895F6A",
"-  c #8E5E6A",
";  c #925161",
":  c #915362",
">  c #905664",
",  c #9F5365",
"<  c #9F5567",
"1  c #915C69",
"2  c #9B5A6A",
"3  c #985C6B",
"4  c #A34E63",
"5  c #A44D62",
"6  c #AF576C",
"7  c #AA5B6E",
"8  c #A75F70",
"9  c #82616C",
"0  c #8C646F",
"q  c #91616C",
"w  c #91626E",
"e  c #936873",
"r  c #986A76",
"t  c #9A6A76",
"y  c #9E6B78",
"u  c #996F79",
"i  c #9E6C78",
"p  c #86797E",
"a  c #9A717C",
"s  c #9E717D",
"d  c #AF6679",
"f  c #A16C79",
"g  c #A16D7A",
"h  c #AA6979",
"j  c #AB6A7B",
"k  c #AC6A79",
"l  c #AC687A",
"z  c #AD697A",
"x  c #AE6A7A",
"c  c #AE6B7B",
"v  c #A86D7B",
"b  c #A96D7B",
"n  c #AA6C7B",
"m  c #AC6C7B",
"M  c #A86D7C",
"N  c #AA6E7C",
"B  c #B46376",
"V  c #B16679",
"C  c #B26679",
"Z  c #B46578",
"A  c #B66578",
"S  c #BA6278",
"D  c #A2707C",
"F  c #A5707C",
"G  c #A5707D",
"H  c #7E7E81",
"J  c #8A7F82",
"K  c #A97784",
"L  c #AF7584",
"P  c #AE7988",
"I  c #B57488",
"U  c #CE6F88",
"Y  c #838383",
"T  c #838485",
"R  c #94868E",
"E  c #97898C",
"W  c #8B8B90",
"Q  c gray58",
"!  c #979797",
"~  c #949299",
"^  c #9C9698",
"/  c #989898",
"(  c #9B9B9B",
")  c #9A9BA2",
"_  c #9AA5A7",
"`  c #9BA6AB",
"'  c #9EA5AC",
"]  c #95ABAE",
"[  c #9FA8AF",
"{  c #9DABAF",
"}  c #9EAAAF",
"|  c #98ADB0",
" . c #9DACB1",
".. c #9FAEB2",
"X. c #A3A7AE",
"o. c #AAAAAA",
"O. c gray68",
"+. c #AFAFAF",
"@. c #A3AFB5",
"#. c #A6AFB6",
"$. c #A0B0B5",
"%. c #A2B2B7",
"&. c #A2B3B8",
"*. c #A3B4B9",
"=. c #A5B7BC",
"-. c #A7BABF",
";. c gray70",
":. c #A2BCC0",
">. c #A4BEC2",
",. c #A6BFC3",
"<. c #AABCC1",
"1. c #A5C0C3",
"2. c #A6C1C5",
"3. c #A6C2C6",
"4. c #A7C2C6",
"5. c #A8C3C7",
"6. c #A9C5C9",
"7. c #A9C6CA",
"8. c #B0CBD0",
"9. c #BFE2E7",
"0. c None",
/* pixels */
"0.0.0.0.0.0.0.0.0.0.0.0.0.0.0.0.0.0.0.0.0.0.H 0.",
"0..   0.S S 0.    f S z x S i     0.S S w ) -.0.",
"0..   0.S S 0.    f S z x S i     0.S B ` 9.' 0.",
"0.0.0.0.0.0.0.0.0.0.0.0.0.0.0.0.0.0.0.} 9...* 0.",
"0.Z S 0.6 6 0.S S y 6 8 j S g     - X.9.$.o + 0.",
"0.Z S 0.6 6 0.S S y 6 8 j S g   o { 9.#.e   + 0.",
"0.0.0.0.0.0.0.0.0.0.0.0.0.0.0.=  .9.*.a 0.0.0.0.",
"0.@   0.6 6 0.    0.S C c S u [ 9.&.d S 0.S S 0.",
"0.% O q 7 7 0.O O t Z x b h %.9.@.0 Z Z 0.Z Z 0.",
"0.D M 0.0.0.0.0.0.0.0.0.0.:.9.=.s 0.M M 0.> > 0.",
"0.C S 0.0.0.0.0.0.0.0.0.>.9.,.l S 0.S S 0.    0.",
"0.G n 0.0.0.0.0.0.0.0.1.9.4.0.N n 0.n n 0.: : 0.",
"0.; @ 0.0.0.0.0.0.0.2.9.<.I K < , 0.@ @ 0.C C 0.",
"0.@   0.0.0.0.0.0.3.9.6.P U L 4 5 0.    0.S S 0.",
"0.0.0.0.0.0.0.0.5.9.7.0.0.0.0.0.0.0.0.0.0.0.0.0.",
"0.#   0.0.0.0.| 9.2.0.0.2 5 3 Z S 0.    0.S S 0.",
"0.#   0.0.! ( _ ] 0.0.0.2 5 3 Z S 0.    0.S S 0.",
"0.0.0.J ;.;./ Y 0.0.0.0.0.0.0.0.0.0.0.0.0.0.0.0.",
"0.x r +.;.;.o.0.0.0.0.0.0.0.0.Z S 0.S S 0.    0.",
"0.k W O.;.;.Q 0.0.0.0.0.0.0.0.Z S 0.S S 0.    0.",
"0.p 8.T ^ E 0.0.0.0.0.0.0.0.0.0.0.0.0.0.0.0.0.0.",
"0.R ~ & S S 0.0.0.0.S A m S M O   0.S S 0.S S 0.",
"0.9 X q Z Z 0.0.0.0.Z V v Z F $ O 1 Z Z 0.Z Z 0.",
"0.0.0.0.0.0.0.0.0.0.0.0.0.0.0.0.0.0.0.0.0.0.0.0."
};
