/* XPM */
static const char * mitkFillRegionTool_xpm[] = {
/* columns rows colors chars-per-pixel */
"40 24 142 2",
"   c #3A2F35",
".  c #3B2F36",
"X  c #3F2E35",
"o  c #2D3335",
"O  c #2F3334",
"+  c #2E3436",
"@  c #303335",
"#  c #333136",
"$  c #3C3035",
"%  c #323739",
"&  c #33393B",
"*  c #353A3C",
"=  c #363B3D",
"-  c #363C3D",
";  c #373D3F",
":  c #412E35",
">  c #472D35",
",  c #492933",
"<  c #4A2C37",
"1  c #512B37",
"2  c #512C36",
"3  c #622A39",
"4  c #66293A",
"5  c #503E45",
"6  c #5D3E47",
"7  c #5C3F47",
"8  c #4A4D4E",
"9  c #574149",
"0  c #594349",
"q  c #5D4049",
"w  c #535356",
"e  c #575A5B",
"r  c #6E404E",
"t  c #714550",
"y  c #774452",
"u  c #7B4251",
"i  c #7C4352",
"p  c #784653",
"a  c #7E4855",
"s  c #6B565C",
"d  c #755C63",
"f  c #7E5A63",
"g  c #7A5B64",
"h  c #656768",
"j  c #796067",
"k  c #79696F",
"l  c #7B6F74",
"z  c #747676",
"x  c #7A7678",
"c  c #777879",
"v  c #797A7B",
"b  c #7A7C7D",
"n  c #7C7E7E",
"m  c #7D7E7F",
"M  c #83263E",
"N  c #85243D",
"B  c #83283E",
"V  c #8C2740",
"C  c #87384D",
"Z  c #873A4E",
"A  c #853D50",
"S  c #8F3F53",
"D  c #973B51",
"F  c #9E3951",
"G  c #9B3E56",
"H  c #A82545",
"J  c #AE2748",
"K  c #B02648",
"L  c #B92649",
"P  c #B9274A",
"I  c #BD264A",
"U  c #BE264B",
"Y  c #BF264B",
"T  c #B52F4F",
"R  c #BD294D",
"E  c #B92E50",
"W  c #B13654",
"Q  c #B83152",
"!  c #8D4054",
"~  c #8F4055",
"^  c #8E4254",
"/  c #8F4256",
"(  c #8B4556",
")  c #8E4658",
"_  c #814A58",
"`  c #824B5A",
"'  c #824B5B",
"]  c #854A59",
"[  c #864B59",
"{  c #854C5C",
"}  c #844F5D",
"|  c #934156",
" . c #904356",
".. c #974056",
"X. c #944357",
"o. c #904559",
"O. c #964458",
"+. c #9C465C",
"@. c #A0475D",
"#. c #9D4F63",
"$. c #895262",
"%. c #82656D",
"&. c #8B646E",
"*. c #89666F",
"=. c #806D72",
"-. c #8A6B74",
";. c #8A6D75",
":. c #976D77",
">. c #81767A",
",. c #837B7E",
"<. c #827C7E",
"1. c #7E7E80",
"2. c #7F8081",
"3. c #808080",
"4. c #808182",
"5. c #818282",
"6. c #818383",
"7. c #828383",
"8. c #848586",
"9. c #8E8387",
"0. c #868788",
"q. c #878889",
"w. c #878989",
"e. c #888989",
"r. c #898A8A",
"t. c #898A8B",
"y. c #8A8B8C",
"u. c #8D8E8F",
"i. c #959595",
"p. c #979797",
"a. c gray60",
"s. c #99999A",
"d. c #9A9A9B",
"f. c #9B9C9C",
"g. c #A09194",
"h. c #A2A2A3",
"j. c #A5A6A6",
"k. c #A8A5A6",
"l. c #AEAEAE",
"z. c #AFAEAE",
"x. c gray70",
"c. c None",
/* pixels */
"c.c.c.c.c.c.c.c.c.c.c.c.c.c.c.c.c.c.c.c.c.c.c.c.c.c.c.c.c.c.c.c.c.c.c.c.c.c.c.c.",
"c.c.c.c.c.c.c.+ + + + + + + + + + + + + + w r . + + + + c.c.c.c.c.c.c.c.c.c.c.c.",
"c.c.c.c.c.c.c.+ + + + + + + + + + + + + 8 z.@.K 4 # + + c.c.c.c.c.c.c.c.c.c.c.c.",
"c.c.c.c.c.c.c.+ + + + + + + + + + + + % d.g.P Y Y V @ + c.c.c.c.c.c.c.c.c.c.c.c.",
"c.c.c.c.c.c.c.+ + + + + + + + + + + + e x.#.Y Y Y Y 2 + c.c.c.c.c.c.c.c.c.c.c.c.",
"c.c.c.c.c.c.c.+ + + + + + + + + + + + <.:.I Y Y Y Y : + c.c.c.c.c.c.c.c.c.c.c.c.",
"c.c.c.c.c.c.c.+ + + + + + + + + + + + 6 J Y Y Y Y B + + c.c.c.c.c.c.c.c.c.c.c.c.",
"c.c.c.c.c.c.c.+ + + + + + + + + + +   1 : M U Y H X + + c.c.c.c.c.c.c.c.c.c.c.c.",
"c.c.c.c.c.c.c.+ + + + + + + + + + + > N + o < 3 $ + + + c.c.c.c.c.c.c.c.c.c.c.c.",
"c.c.c.c.c.c.c.+ + + + + + + + + + + + O + + + + + + + + c.c.c.c.c.c.c.c.c.c.c.c.",
"c.c.c.c.c.c.c.+ + + + + + + + + + + + , + + + + + + + + c.c.c.c.c.c.c.c.c.c.c.c.",
"c.c.c.c.c.c.c.& A C y C u C C p C d k L t h s C i Z C 5 c.c.c.c.c.c.c.c.c.c.c.c.",
"c.c.c.c.c.c.c.* T Y S Y D Y Y | Y &.k.+.a 3.g Y F R Y 7 c.c.c.c.c.c.c.c.c.c.c.c.",
"c.c.c.c.c.c.c.* ) ~ ` ~ ] ~ ~ f $.=.t.0.z c j ~ [ / ~ 9 c.c.c.c.c.c.c.c.c.c.c.c.",
"c.c.c.c.c.c.c.* T Y S Y D Y Y >.a.6.x.j.f.x.-.Y F R Y 7 c.c.c.c.c.c.c.c.c.c.c.c.",
"c.c.c.c.c.c.c.* T Y S Y D Y Y >.a.6.x.j.f.x.-.Y F R Y 7 c.c.c.c.c.c.c.c.c.c.c.c.",
"c.c.c.c.c.c.c.* o.| ' | { 9.9.1.y.2.u.e.n 4.x 9.,.X.| 0 c.c.c.c.c.c.c.c.c.c.c.c.",
"c.c.c.c.c.c.c.* T Y S Y ..x.x.u.x.w.x.j.r.a.4.x.i.R Y 7 c.c.c.c.c.c.c.c.c.c.c.c.",
"c.c.c.c.c.c.c.* ( ! _ ! } q.q.v 4.b q.8.m 4.l *.%.^ ! 9 c.c.c.c.c.c.c.c.c.c.c.c.",
"c.c.c.c.c.c.c.* T Y S Y ..x.x.4.a.6.x.j.f.x.-.Y F R Y 7 c.c.c.c.c.c.c.c.c.c.c.c.",
"c.c.c.c.c.c.c.* W E  .E O.l.l.5.p.7.l.h.s.l.;.E G Q E q c.c.c.c.c.c.c.c.c.c.c.c.",
"c.c.c.c.c.c.c.c.= = - = - = = ; = - = = - = - = = = = c.c.c.c.c.c.c.c.c.c.c.c.c.",
"c.c.c.c.c.c.c.c.c.c.c.c.c.c.c.c.c.c.c.c.c.c.c.c.c.c.c.c.c.c.c.c.c.c.c.c.c.c.c.c.",
"c.c.c.c.c.c.c.c.c.c.c.c.c.c.c.c.c.c.c.c.c.c.c.c.c.c.c.c.c.c.c.c.c.c.c.c.c.c.c.c."
};
