/* XPM */
static const char * mitkEraseRegionTool_xpm[] = {
/* columns rows colors chars-per-pixel */
"24 24 73 1",
"  c #343235",
". c #424042",
"X c #454446",
"o c #49484A",
"O c #4A494A",
"+ c #4A494B",
"@ c #4B4B4C",
"# c #4D4B4D",
"$ c #4D4C4D",
"% c #4E4D4E",
"& c #4E4E4F",
"* c #4F4E4F",
"= c #4F4E50",
"- c #504F50",
"; c #515051",
": c #535253",
"> c #555455",
", c #555556",
"< c #585758",
"1 c gray35",
"2 c #5A5A5A",
"3 c #5B5B5C",
"4 c gray36",
"5 c #5E5D5E",
"6 c #5F5F5F",
"7 c gray38",
"8 c #626262",
"9 c gray39",
"0 c #646464",
"q c gray40",
"w c #BF264B",
"e c #BB2C4E",
"r c #AF3E57",
"t c #AF3C58",
"y c #AF3D59",
"u c #AD3E59",
"i c #AE3E59",
"p c #B73152",
"a c #B73252",
"s c #B33755",
"d c #B23957",
"f c #B23A56",
"g c #B03C56",
"h c #B03D58",
"j c #AB425C",
"k c #A9455D",
"l c #AB445C",
"z c #A8465E",
"x c #A8475E",
"c c #A8465F",
"v c #A9475F",
"b c #A5495F",
"n c #A7485F",
"m c #A6495F",
"M c #9F5366",
"N c #9C5566",
"B c #9F5567",
"V c #9D5667",
"C c #9C5768",
"Z c #A64960",
"A c #A34F62",
"S c #A44D60",
"D c #A54C61",
"F c #A44E63",
"G c #A84A62",
"H c #A05165",
"J c #A25064",
"K c #A35364",
"L c #A05266",
"P c #A05366",
"I c #A05367",
"U c #A05466",
"Y c None",
/* pixels */
"YYYYYYYYYYYYYYYYYYYYYYYY",
"YYYYYYYYYYYYYY-%YYYYYYYY",
"YYYYYYYYYYYYY*8X<:YYYYYY",
"YYYYYYYYYYYYY9Oq5@2&YYYY",
"YYYYYYYYYYYY:13qqq>%2oYY",
"YYYYYYYYYYYY0$qqqqqq#:;Y",
"YYYYYYYYYYYY.7qqqqqqq8o ",
"YYYYYYYYYYYYY=0qqqqqqq0Y",
"YYYYYYYYYYYYYYY,qqqqqq-Y",
"YYYYYYYYYYYYYYYYY4qqq6YY",
"YYYYYYYYYYYYYYYYYY%7q+YY",
"YYYYYYYYYYYYYYYYYYYY+YYY",
"YziIuuKuuIuvYYYYYYuuMiiY",
"YawmwwcwwbwpYYYYYYwwnwwY",
"YtaJppSppJphYYYYYYppFaaY",
"YlfUddHddYYYYYYYYYddLffY",
"YawmwwcwwYYYYYYYYYwwnwwY",
"YzyBrrLggYYYYYYYYYggPyyY",
"YseDeeGYYYYYYYYYYYYYkeeY",
"YawmwwcYYYYYYYYYYYYYjwwY",
"YAnCnnNYYYYYYYYYYYYYVnnY",
"YawZwwxYYYYYYYYYYYwwnwwY",
"YawZwwxYYYYYYYYYYYwwnwwY",
"YYYYYYYYYYYYYYYYYYYYYYYY"
};
