/* XPM */
static const char * mitkDrawPaintbrushTool_xpm[] = {
"16 16 3 1",
" 	c None",
".	c #2E3436",
"+	c #EEEEEC",
"     .......    ",
"   ...........  ",
"  ............. ",
"  ............. ",
" .......+.......",
" .......+.......",
" .......+.......",
" ....+++++++....",
" .......+.......",
" .......+.......",
" .......+.......",
"  ............. ",
"  ............. ",
"   ...........  ",
"     .......    ",
"                "};
