/* XPM */
static const char * mitkClosingTool_xpm[] = {
/* columns rows colors chars-per-pixel */
"24 24 130 2",
"   c #7F5278",
".  c #78557C",
"X  c #78577D",
"o  c #BB274B",
"O  c #BD244A",
"+  c #BD254A",
"@  c #BE254A",
"#  c #BE254B",
"$  c #BF254B",
"%  c #BC264B",
"&  c #BE264A",
"*  c #BE274A",
"=  c #BF274A",
"-  c #BE264B",
";  c #BF264B",
":  c #BE274B",
">  c #BC234C",
",  c #BB274D",
"<  c #BD254C",
"1  c #BE254C",
"2  c #BD264C",
"3  c #BE274C",
"4  c #B72B4F",
"5  c #BC284B",
"6  c #B9294E",
"7  c #B9294F",
"8  c #BA294E",
"9  c #BB2B4F",
"0  c #BD284C",
"q  c #B62A50",
"w  c #B62B50",
"e  c #B72B51",
"r  c #B52B52",
"t  c #B22F52",
"y  c #B42C51",
"u  c #B72C51",
"i  c #B42C52",
"p  c #B42D52",
"a  c #B52C53",
"s  c #B02F55",
"d  c #B02F56",
"f  c #B82C51",
"g  c #AF3055",
"h  c #AD3257",
"j  c #A7365C",
"k  c #A7375C",
"l  c #A4365E",
"z  c #AB3258",
"x  c #AB3358",
"c  c #AB3359",
"v  c #AD3058",
"b  c #AE3158",
"n  c #AC3258",
"m  c #AE3258",
"M  c #A8365A",
"N  c #A1395F",
"B  c #A3385E",
"V  c #A13A5E",
"C  c #A33A5E",
"Z  c #A23A5F",
"A  c #A5385D",
"S  c #A4395E",
"D  c #A5385F",
"F  c #A6385E",
"G  c #B03153",
"H  c #B13054",
"J  c #B13155",
"K  c #9D3B63",
"L  c #9E3C61",
"P  c #9D3C62",
"I  c #9C3C63",
"U  c #9F3C63",
"Y  c #9A3F64",
"T  c #9C3D64",
"R  c #993F68",
"E  c #A13760",
"W  c #A13A61",
"Q  c #A03C60",
"!  c #C0274B",
"~  c #8A4A6F",
"^  c #8C486D",
"/  c #954167",
"(  c #974066",
")  c #964166",
"_  c #974166",
"`  c #964267",
"'  c #984066",
"]  c #934368",
"[  c #964069",
"{  c #944368",
"}  c #954368",
"|  c #954269",
" . c #944369",
".. c #974269",
"X. c #94436A",
"o. c #91456A",
"O. c #91476B",
"+. c #91436C",
"@. c #864A72",
"#. c #864E73",
"$. c #824E76",
"%. c #8B4970",
"&. c #894B71",
"*. c #894B72",
"=. c #884A73",
"-. c #825176",
";. c #805178",
":. c #6C5E86",
">. c #725A81",
",. c #67628A",
"<. c #2890B9",
"1. c #0F9EC9",
"2. c #06A7CF",
"3. c #00A9D1",
"4. c #00AAD1",
"5. c #00A9D2",
"6. c #00A8D3",
"7. c #00A9D3",
"8. c #00AAD2",
"9. c #00ABD2",
"0. c #00AAD3",
"q. c #00ABD3",
"w. c #00ADD2",
"e. c #00A9D4",
"r. c #00A9D5",
"t. c #00AAD4",
"y. c #00ABD4",
"u. c #00AAD5",
"i. c #00A9D6",
"p. c None",
/* pixels */
"p.p.p.p.p.p.0.0.0.0.0.0.0.p.p.p.p.p.p.p.p.p.p.p.",
"p.p.p.p.p.0.0.0.0.0.0.0.8.7.p.p.p.p.p.p.p.p.p.p.",
"p.p.p.p.7.0.0.t.7.0.8.t.t.t.8.p.p.p.p.p.p.p.p.p.",
"p.p.p.q.0.0.7.5.u.0.0.y.5.7.t.7.p.p.p.p.p.p.p.p.",
"p.p.8.7.9.t.p.p.p.p.p.5.p.0.i.0.0.p.p.p.p.p.p.p.",
"p.p.0.p.p.3.e.t.0.9.q.u.q.y.p.p.7.p.p.p.p.p.p.p.",
"p.q.e.8.t.p.p.p.p.p.p.p.p.p.6.r.q.9.p.p.p.p.p.p.",
"p.p.q.p.y.0.w.p.p.p.p.p.t.8.0.p.p.t.p.p.p.p.p.p.",
"0.7.8.5.p.p.9.0.p.8.0.p.p.p.p.p.u.y.p.p.p.p.p.p.",
"0.q.p.0.9.p.p.p.p.p.p.p.i $ 3 : d 2.p.p.p.p.p.p.",
"0.0.p.p.t.0.t.8.p.q.p.r 6 w e f , u p.p.p.p.p.p.",
"0.t.4.p.p.p.p.p.p.r.w y n 8 G s K J V p.p.p.p.p.",
"0.p.e.8.p.p.p.p.p.p.@ k q t  .g ( Q H p.p.3 p.p.",
"0.8.p.p.p.p.p.8.p.} p ] b R E 5 z | m > - p.p.p.",
"0.p.e.7.p.p.p.p.p.p & h p.;.X.X :.M x + p.p.p.p.",
"p.y.p.0.p.0.p.p.p.m $ -.o / L Y 9 U & < p.p.p.p.",
"p.p.e.p.p.7.p.9.p.c _ ' S @.v =.&.*.* # p.p.p.p.",
"p.7.0.t.p.p.p.p.p.j = O.p.) I ^ >.  * ! p.p.p.p.",
"p.p.0.3.p.7.p.8.p.#.N %.Z ..l C +.7 ; # p.p.p.p.",
"p.p.0.0.t.8.p.p.p.<.< A $ $.,.. W = O p.p.p.p.p.",
"p.p.p.0.t.t.7.8.p.8.F B ` { [ ~ 2 - & p.p.p.p.p.",
"p.p.p.p.0.t.p.p.p.p.p.a D T o.0 1 ; p.p.p.p.p.p.",
"p.p.p.p.p.7.t.8.p.8.7.1.P 4 # 3 % p.p.p.p.p.p.p.",
"p.p.p.p.p.p.p.p.p.p.p.p.p.p.p.p.p.p.p.p.p.p.p.p."
};
