/* XPM */
static const char * mitkSubtractContourTool_xpm[] = {
/* columns rows colors chars-per-pixel */
"24 24 80 1",
"  c #97A9AC",
". c #9DB1B1",
"X c #9DB3B5",
"o c #9FB2B6",
"O c #9EB2B7",
"+ c #A1B7BA",
"@ c #A2B7BB",
"# c #A2B8BA",
"$ c #A2B8BC",
"% c #A5BDBF",
"& c #A5BEBF",
"* c #A4BAC0",
"= c #A7BBC1",
"- c #A5BDC0",
"; c #A6BDC0",
": c #A5BFC1",
"> c #A6BEC0",
", c #A6BDC3",
"< c #A8C1C4",
"1 c #A8C0C5",
"2 c #A8C1C7",
"3 c #AAC4C7",
"4 c #ABC4C7",
"5 c #ABC5C7",
"6 c #ABC3C9",
"7 c #AAC4C8",
"8 c #ABC4C8",
"9 c #ABC5C8",
"0 c #AAC4C9",
"q c #ABC5C9",
"w c #ABC6CA",
"e c #ACC5C9",
"r c #ADC6CA",
"t c #ACC7CA",
"y c #ADC7CA",
"u c #ADC7CC",
"i c #ADC8CB",
"p c #ADC8CC",
"a c #ADC9CD",
"s c #AEC8CD",
"d c #AEC9CD",
"f c #AECACE",
"g c #AFCBCF",
"h c #AECCCF",
"j c #B1CDD2",
"k c #B1CED2",
"l c #B2CED3",
"z c #B2CFD3",
"x c #B3D0D4",
"c c #B2D0D5",
"v c #B3D0D5",
"b c #B3D1D5",
"n c #B4D1D6",
"m c #B4D2D6",
"M c #B4D2D7",
"N c #B6D4D7",
"B c #B5D3D8",
"V c #B5D4D8",
"C c #B7D5DB",
"Z c #B6D6DA",
"A c #B7D6DB",
"S c #B7D7DB",
"D c #B8D7DC",
"F c #B8D8DC",
"G c #B8D8DD",
"H c #B9DADF",
"J c #BADAE0",
"K c #BBDBE1",
"L c #BBDCE0",
"P c #BBDDE0",
"I c #BBDCE1",
"U c #BBDDE1",
"Y c #BCDDE2",
"T c #BDDFE4",
"R c #BDE0E4",
"E c #BEE0E5",
"W c #BEE1E6",
"Q c #BFE1E6",
"! c #BFE2E7",
"~ c None",
/* pixels */
"~~~~~~~~~~~~~~~~~~~~~~~~",
"~~~~~~~~~~~~~*0sw6#~~~~~",
"~~~~~~~~~~~lW!SkbI!ZX~~~",
"~~~~~~~~~9QM;~~~~~>FT~~~",
"~~~~~~~~BY@~~~~~~~~~UN~~",
"~~~~~~~xI~~~~~~~~~~~q!~~",
"~~~~~~1!2~~~~~~~~~~~4!~~",
"~~~~~~AK~~~~~~~~~~~~fJ~~",
"~~~~~~!8~~~~~~~~~~~~Q5~~",
"~~~~~~!+,:~~~~~~~~~VP~~~",
"~~~~~~!!ipH~~~~~~~cT.~~~",
"~~~~~~vLGoy<~~~~&IKO~~~~",
"~~~~~~~m R!t%8hY!u~~~~~~",
"~~~~~~~-v!!!!!Da~~~~~~~~",
"~~~~~~~~~dC~~~~~~~~~~~~~",
"~~~~~~~~~E7~~~~~~~~~~~~~",
"~~~~~~~~$!$~~~~~~~~~~~~~",
"~~~~~~~~zE~~~~~~~~~~~~~~",
"~~~~~~~~!g~~~~~~~~~~~~~~",
"~~~~~~~j!=~~~~~~~~~~~~~~",
"~~~~DQ!!n~~~~~~~~~~~~~~~",
"~~~~3rfe~~~~~~~~~~~~~~~~",
"~~~~~~~~~~~~~~~~~~~~~~~~",
"~~~~~~~~~~~~~~~~~~~~~~~~"
};
