/* XPM */
static const char * mitkDrawPaintbrushTool_xpm[] = {
/* columns rows colors chars-per-pixel */
"40 24 51 1",
"  c #2E3436",
". c #2F3537",
"X c #2F3638",
"o c #31383A",
"O c #32393B",
"+ c #33393B",
"@ c #394244",
"# c #3A4345",
"$ c #3B4346",
"% c #3C4447",
"& c #3C4548",
"* c #3C4648",
"= c #3F494B",
"- c #434D50",
"; c #475255",
": c #485456",
"> c #4C575A",
", c #4D5A5C",
"< c #58676A",
"1 c #59686B",
"2 c #5C6B6D",
"3 c #627275",
"4 c #637477",
"5 c #657579",
"6 c #6C7E81",
"7 c #6F8184",
"8 c #708386",
"9 c #73868A",
"0 c #758A8D",
"q c #7A8F92",
"w c #7B9093",
"e c #82999D",
"r c #8CA5A9",
"t c #92ACB0",
"y c #93ADB1",
"u c #93AEB1",
"i c #95B0B4",
"p c #9AB5B9",
"a c #9BB6BB",
"s c #9DB9BE",
"d c #A2BFC4",
"f c #A6C4C8",
"g c #ADCDD1",
"h c #B5D6DB",
"j c #B6D7DC",
"k c #B8D9DD",
"l c #BADCE1",
"z c #BCDEE3",
"x c #BEE0E5",
"c c #BFE2E7",
"v c None",
/* pixels */
"vvvvvvvvvvvvvvvvvvvvvvvvvvvvvvvvvvvvvvvv",
"vvvvvvv                     vvvvvvvvvvvv",
"vvvvvvv                     vvvvvvvvvvvv",
"vvvvvvv         O>-.        vvvvvvvvvvvv",
"vvvvvvv       4dzccji:      vvvvvvvvvvvv",
"vvvvvvv     #tcccccccz9X    vvvvvvvvvvvv",
"vvvvvvv    Xscccccccccc8    vvvvvvvvvvvv",
"vvvvvvv    7cccccccccccl-   vvvvvvvvvvvv",
"vvvvvvv   +lccccccccccccr   vvvvvvvvvvvv",
"vvvvvvv   ,cccccccccccccg   vvvvvvvvvvvv",
"vvvvvvv   6cccccccccccccc@  vvvvvvvvvvvv",
"vvvvvvv   0cccccccccccccc-  vvvvvvvvvvvv",
"vvvvvvv   <ccccccccccccck.  vvvvvvvvvvvv",
"vvvvvvv   $ccccccccccccca   vvvvvvvvvvvv",
"vvvvvvv    ycccccccccccc3   vvvvvvvvvvvv",
"vvvvvvv    %hccccccccccu    vvvvvvvvvvvv",
"vvvvvvv     1kccccccccf*    vvvvvvvvvvvv",
"vvvvvvv      =pcccccxwo     vvvvvvvvvvvv",
"vvvvvvv       .;5eq2&       vvvvvvvvvvvv",
"vvvvvvv                     vvvvvvvvvvvv",
"vvvvvvv                     vvvvvvvvvvvv",
"vvvvvvvvvvvvvvvvvvvvvvvvvvvvvvvvvvvvvvvv",
"vvvvvvvvvvvvvvvvvvvvvvvvvvvvvvvvvvvvvvvv",
"vvvvvvvvvvvvvvvvvvvvvvvvvvvvvvvvvvvvvvvv"
};
