/* XPM */
static const char * mitkEraseRegionTool_xpm[] = {
"15 11 3 1",
" 	c None",
".	c #2E3436",
"+	c #EEEEEC",
"       ........",
"      .++++++..",
"     .++++++.+.",
"    .++++++.++.",
"   .++++++.++. ",
"  .++++++.++.  ",
" .++++++.++.   ",
"........++.    ",
".++++++.+.     ",
".++++++..      ",
"........       "};
