/* XPM */
static const char * mitkCalculateVolumetryTool_xpm[] = {
"19 16 18 1",
" 	c None",
".	c #2E3436",
"+	c #EEEEEC",
"@	c #555753",
"#	c #595B57",
"$	c #70726E",
"%	c #656763",
"&	c #565854",
"*	c #646662",
"=	c #BEBEBC",
"-	c #ADAEAB",
";	c #CDCECB",
">	c #ACADAA",
",	c #CECFCC",
"'	c #666864",
")	c #E5E5E3",
"!	c #EBEBE9",
"~	c #EDEDEB",
"...................",
".+++++++++++++++++.",
".+++++++++++++++++.",
".++++++++++++++@@+.",
".++++++++++++++@@+.",
".++++++++++++++@@+.",
".+@@@@#$%&*=+++@@+.",
".+@@-;@@>,@'+++@@+.",
".+@@)!@@)~@@+++@@+.",
".+@@++@@++@@+++@@+.",
".+@@++@@++@@+++@@+.",
".+@@++@@++@@+++@@+.",
".+@@++@@++@@+++@@+.",
".+++++++++++++++++.",
".+++++++++++++++++.",
"..................."};
