/* XPM */
static const char * mitkEraseRegionTool_xpm[] = {
/* columns rows colors chars-per-pixel */
"24 24 81 1",
"  c #575558",
". c #757576",
"X c #BF264B",
"o c #BB2C4E",
"O c #AF3E57",
"+ c #AF3C58",
"@ c #AF3D59",
"# c #AD3E59",
"$ c #AE3E59",
"% c #B73152",
"& c #B73252",
"* c #B33755",
"= c #B23957",
"- c #B23A56",
"; c #B03C56",
": c #B03D58",
"> c #AB425C",
", c #A9455D",
"< c #AB445C",
"1 c #A8465E",
"2 c #A8475E",
"3 c #A8465F",
"4 c #A9475F",
"5 c #A5495F",
"6 c #A7485F",
"7 c #A6495F",
"8 c #9F5366",
"9 c #9C5566",
"0 c #9F5567",
"q c #9D5667",
"w c #9C5768",
"e c #A64960",
"r c #A34F62",
"t c #A44D60",
"y c #A54C61",
"u c #A44E63",
"i c #A84A62",
"p c #A05165",
"a c #A25064",
"s c #A35364",
"d c #A05266",
"f c #A05366",
"g c #A05367",
"h c #A05466",
"j c #807E80",
"k c #878788",
"l c #898889",
"z c #8A898A",
"x c #8B8A8B",
"c c #8B8A8C",
"v c #8F8D8F",
"b c #918F91",
"n c #919091",
"m c #939293",
"M c #949394",
"N c #959495",
"B c #969596",
"V c #979697",
"C c #989798",
"Z c #999899",
"A c #9A9A9B",
"S c #9F9E9F",
"D c #A09FA0",
"F c #A3A2A4",
"G c #A5A4A5",
"H c #AAAAAB",
"J c #AFAFAF",
"K c gray69",
"L c #B3B2B3",
"P c #B5B4B5",
"I c gray72",
"U c #BCBCBC",
"Y c #C1C0C1",
"T c #C1C1C1",
"R c gray76",
"E c #C5C5C5",
"W c #C6C6C6",
"Q c gray78",
"! c #C8C8C8",
"~ c gray80",
"^ c None",
/* pixels */
"^^^^^^^^^^^^^^^^^^^^^^^^",
"^^^^^^^^^^^^^^CM^^^^^^^^",
"^^^^^^^^^^^^^BTjHS^^^^^^",
"^^^^^^^^^^^^^Ez~IvJN^^^^",
"^^^^^^^^^^^^DKL~~~FmKl^^",
"^^^^^^^^^^^^!n~~~~~~bDA^",
"^^^^^^^^^^^^.Y~~~~~~~Rk ",
"^^^^^^^^^^^^^VW~~~~~~~Q^",
"^^^^^^^^^^^^^^^G~~~~~~Z^",
"^^^^^^^^^^^^^^^^^P~~~U^^",
"^^^^^^^^^^^^^^^^^^mT~x^^",
"^^^^^^^^^^^^^^^^^^^^c^^^",
"^1$g##s##g#4^^^^^^##8$$^",
"^&X7XX3XX5X%^^^^^^XX6XX^",
"^+&a%%t%%a%:^^^^^^%%u&&^",
"^<-h==p==^^^^^^^^^==d--^",
"^&X7XX3XX^^^^^^^^^XX6XX^",
"^1@0OOd;;^^^^^^^^^;;f@@^",
"^*oyooi^^^^^^^^^^^^^,oo^",
"^&X7XX3^^^^^^^^^^^^^>XX^",
"^r6w669^^^^^^^^^^^^^q66^",
"^&XeXX2^^^^^^^^^^^XX6XX^",
"^&XeXX2^^^^^^^^^^^XX6XX^",
"^^^^^^^^^^^^^^^^^^^^^^^^"
};
