/* XPM */
static const char * mitkEraseRegionTool_xpm[] = {
/* columns rows colors chars-per-pixel */
"24 24 58 1",
"  c #676667",
". c #7C7A7C",
"X c #7D7B7D",
"o c #BF264B",
"O c #B92E50",
"+ c #AD3F5A",
"@ c #B23855",
"# c #B13856",
"$ c #B23956",
"% c #B13A57",
"& c #B03B57",
"* c #B13B58",
"= c #AE405A",
"- c #AE405B",
"; c #AB425C",
": c #A8475E",
"> c #A7485F",
", c #9F5365",
"< c #9E5366",
"1 c #9F5366",
"2 c #9F5467",
"3 c #9C5767",
"4 c #9D5768",
"5 c #9F5668",
"6 c #A64960",
"7 c #A74960",
"8 c #A64A60",
"9 c #A54B62",
"0 c #A44D62",
"q c #A74D63",
"w c #A44E63",
"e c #A05263",
"r c #A15366",
"t c #A25366",
"y c #838183",
"u c #888888",
"i c #8B8B8B",
"p c #8E8C8E",
"a c #8E8D8E",
"s c #8F8C8F",
"d c #8E8E8E",
"f c #8F8E90",
"g c #918F91",
"h c #929092",
"j c #939293",
"k c #949294",
"l c #989798",
"z c #9E9D9E",
"x c #A7A6A7",
"c c #A9A9A9",
"v c #B2B2B2",
"b c #B4B4B4",
"n c #B8B6B8",
"m c gray73",
"M c #C1C0C1",
"N c #C9C8C9",
"B c gray80",
"V c None",
/* pixels */
"VVVVVVVVVVVVVVVVVVVVVVVV",
"VVVVVVVVVVVVVVVVVVVVVVVV",
"VVVVVVVVVVVVVVVgXhVVVVVV",
"VVVVVVVVVVVVVVVnzsjuVVVV",
"VVVVVVVVVVVVVVliBBmdkVVV",
"VVVVVVVVVVVVVVavBBBBxfVV",
"VVVVVVVVVVVVVVVxBBBBBB V",
"VVVVVVVVVVVVVVVVybBBBcVV",
"VVVVVVVVVVVVVVVVVVpMNVVV",
"VVVVVVVVVVVVVVVVVVVV.VVV",
"VVVVVVVVVVVVVVVVVVVVVVVV",
"VVVVVVVVVVVVVVVVVVVVVVVV",
"V++,--1--5-9VVVVVV--,++V",
"Voo7oo>oo8o@VVVVVVoo7ooV",
"VOO0OOqOOwO=VVVVVVOO0OOV",
"V$$r##e##VVVVVVVVV##r$$V",
"Voo7oo>ooVVVVVVVVVoo7ooV",
"V&&2**t%%VVVVVVVVV%%<&&V",
"VOO0OOVVVVVVVVVVVVVV:OOV",
"Voo7ooVVVVVVVVVVVVVV;ooV",
"V>>3>>VVVVVVVVVVVVVV4>>V",
"Voo6ooVVVVVVVVVVVVoo6ooV",
"Voo6ooVVVVVVVVVVVVoo6ooV",
"V::V::VVVVVVVVVVVV::V::V"
};
