/* XPM */
static const char * mitkCorrectorTool2D_xpm[] = {
/* columns rows colors chars-per-pixel */
"24 24 14 1",
"  c #BEE1E7",
". c #BFE1E7",
"X c #BEE2E6",
"o c #BFE2E6",
"O c #BEE2E7",
"+ c #BFE2E7",
"@ c #BFE3E7",
"# c #C0E1E7",
"$ c #C0E2E7",
"% c #C0E3E7",
"& c #C0E4E7",
"* c #C0E2E8",
"= c #C0E3E8",
"- c None",
/* pixels */
"------------------------",
"------------------------",
"------------------------",
"--------------------+---",
"---= @@@@@$---------+---",
"-------------------+----",
"------------------++----",
"-----------------.------",
"---------------+$-------",
"-------------o+O--------",
"-----------++O----------",
"--------.++-------------",
"------@$----------------",
"-----.------------*-----",
"----+------------&%-----",
"---+-------------&%-----",
"---------------++++@+@--",
"--+-----------X+@oX#@+--",
"--+--------------&%-----",
"--+--------------&%-----",
"--+--------------o#-----",
"------------------------",
"------------------------",
"------------------------"
};
