/* XPM */
static const char * mitkRegionGrowingTool_xpm[] = {
/* columns rows colors chars-per-pixel */
"24 24 9 1",
"  c #76C0DE",
". c #8CCAE1",
"X c #BEE1E7",
"o c #BFE1E7",
"O c #BEE2E7",
"+ c #BFE2E7",
"@ c #BFE3E7",
"# c #C0E3E6",
"$ c None",
/* pixels */
"$$$$$$$$$$$$$$$$$$$$$$$$",
"$$$$$$$$$$$$$$$$$$$$$$$$",
"$$$$$$$$$$$$$$$$$$$$$$$$",
"$$$$$$$$$$$$$$$$$$$$$$$$",
"$$$$$$$$oo$$$$$O$$$$$$$$",
"$$$$$$$$$$$$$$$$$$$$$$$$",
"$$$$$$$$$X$$$$$$$$$$$$$$",
"$$$$$$$$@$$o$$#$$$$$$$$$",
"$$$$$$$$$$$$$$$+$$$$$$$$",
"$$$$$$$$$$$$$$$$$$$$$$$$",
"$$$$$$$$$$$$ $$$$$$$$$$$",
"$$$$$$$$$$$$ $$$$$$$$$$$",
"$$$$$$$$$$$$ $$$$$$$$$$$",
"$$$$$$$$$$$$ $$$$$$$$$$$",
"$$$$$$$$$$$$ $$$$$$$$$$$",
"$$$$$$$$$$$$ $$$$$$$$$$$",
"$$$$$$$$$$$$ $$$$$$$$$$$",
"$$$$$$$$$$$$ $$$$$$$$$$$",
"$$$$$$$$$$$$ $$$$$$$$$$$",
"$$$$$$$$$$$$ $$$$$$$$$$$",
"$$$$$$$$$$$$ $$$$$$$$$$$",
"$$$$$$$$$$$$ $$$$$$$$$$$",
"$$$$$$$$$$$$ $$$$$$$$$$$",
"$$$$$$$$$$$$.$$$$$$$$$$$"
};
