/* XPM */
static const char * mitkFillRegionTool_xpm[] = {
"22 22 3 1",
" 	c None",
".	c #2E3436",
"+	c #EEEEEC",
"               ...    ",
"              .+++.   ",
"             ...+.    ",
"            .+.+..    ",
"           .++.++.    ",
"          .+++..++.   ",
"       ...+++.+.+++.  ",
"       ...++++..++++. ",
"       ...+++++++++++.",
"       ....++++++++++.",
"       ... .++++++++. ",
"       ...  .++++++.  ",
"       ...   .++++.   ",
"       ...    .++.    ",
"   ... ...  .....     ",
" ................     ",
"..................    ",
"......+++++.......    ",
".....+++++++.......   ",
"......++++++.......   ",
".........++........   ",
" .................    "};
