/* XPM */
static char *mapiconmap[] = {
/* columns rows colors chars-per-pixel */
"32 32 213 2",
"   c #163C01",
".  c #173E01",
"X  c #163E04",
"o  c #173D07",
"O  c #183E03",
"+  c #253001",
"@  c #1E3831",
"#  c #333D37",
"$  c #5E0101",
"%  c #580601",
"&  c #510B01",
"*  c #560D08",
"=  c #560B0F",
"-  c #471401",
";  c #561201",
":  c #550D11",
">  c #4C191F",
",  c #511312",
"<  c #610101",
"1  c #650101",
"2  c #660101",
"3  c #680101",
"4  c #6F0101",
"5  c #710101",
"6  c #740101",
"7  c #770101",
"8  c #7A0101",
"9  c #7C0101",
"0  c #452601",
"q  c #402F01",
"w  c #5F2401",
"e  c #542801",
"r  c #472316",
"t  c #632303",
"y  c #612401",
"u  c #652603",
"i  c #662703",
"p  c #6D2001",
"a  c #4A153D",
"s  c #194001",
"d  c #1A4201",
"f  c #1C4301",
"g  c #1D4209",
"h  c #174011",
"j  c #174216",
"k  c #1C411D",
"l  c #204902",
"z  c #244E02",
"x  c #275202",
"c  c #254910",
"v  c #2C4E1E",
"b  c #326103",
"n  c #386804",
"m  c #3C6E04",
"M  c #3F7104",
"N  c #184426",
"B  c #154D27",
"V  c #18472C",
"C  c #135226",
"Z  c #125524",
"A  c #314F3D",
"S  c #487E05",
"D  c #7A7F07",
"F  c #425F39",
"G  c #4A683A",
"H  c #2A4557",
"J  c #116B5D",
"K  c #0B7B57",
"L  c #0A7D55",
"P  c #097F54",
"I  c #0A7E55",
"U  c #0A7C57",
"Y  c #0B7C57",
"T  c #0C7759",
"R  c #0D775A",
"E  c #0F735E",
"W  c #0B7B58",
"Q  c #0C7959",
"!  c #195E6E",
"~  c #1E5377",
"^  c #1C5774",
"/  c #1D5476",
"(  c #1D5576",
")  c #1B5972",
"_  c #1A5C70",
"`  c #225069",
"'  c #204E7B",
"]  c #146767",
"[  c #126C63",
"{  c #116E62",
"}  c #136A65",
"|  c #146966",
" . c #17636B",
".. c #17626C",
"X. c #18606D",
"o. c #850101",
"O. c #860101",
"+. c #8B0101",
"@. c #8D0101",
"#. c #8E0101",
"$. c #920101",
"%. c #940101",
"&. c #9B0000",
"*. c #9F0000",
"=. c #8E1600",
"-. c #A10000",
";. c #A30000",
":. c #A80000",
">. c #AE0000",
",. c #B50000",
"<. c #BA0000",
"1. c #BC0000",
"2. c #BE0000",
"3. c #BF0600",
"4. c #C20000",
"5. c #C40000",
"6. c #C30500",
"7. c #C80000",
"8. c #CB0000",
"9. c #CF0000",
"0. c #D00000",
"q. c #D30000",
"w. c #4F8706",
"e. c #518906",
"r. c #558F06",
"t. c #569006",
"y. c #5B9607",
"u. c #5D9A07",
"i. c #66A508",
"p. c #67A608",
"a. c #6AAA08",
"s. c #72B509",
"d. c #75B909",
"f. c #77BB09",
"g. c #7CC20A",
"h. c #7EC40A",
"j. c #7FC60A",
"k. c #018F47",
"l. c #05874D",
"z. c #06854F",
"x. c #05874E",
"c. c #06864F",
"v. c #038B4B",
"b. c #048A4B",
"n. c #038C49",
"m. c #028D49",
"M. c #038D49",
"N. c #028E48",
"B. c #028F48",
"V. c #038C4A",
"C. c #04894C",
"Z. c #05884D",
"A. c #009145",
"S. c #009245",
"D. c #019046",
"F. c #009146",
"G. c #019146",
"H. c #019047",
"J. c #078351",
"K. c #078450",
"L. c #068550",
"P. c #088152",
"I. c #098053",
"U. c #088252",
"Y. c #718865",
"T. c #85CD0A",
"R. c #86CF0A",
"E. c #89D20B",
"W. c #8AD40B",
"Q. c #8CD60B",
"!. c #8DD80B",
"~. c #2C3288",
"^. c #2E3192",
"/. c #0027B5",
"(. c #032AB6",
"). c #062CB7",
"_. c #0F34B9",
"`. c #1E40BE",
"'. c #2143BF",
"]. c #2D4DC2",
"[. c #3655C5",
"{. c #3957C6",
"}. c #425FC8",
"|. c #4561C9",
" X c #546ECD",
".X c #637BD2",
"XX c #6C82D4",
"oX c #82958F",
"OX c #909B9E",
"+X c #90A286",
"@X c #8F91C5",
"#X c #8799DC",
"$X c #8D9EDE",
"%X c #90A1DF",
"&X c #A6AFC7",
"*X c #A6A7D1",
"=X c #99A9E1",
"-X c #ABB8E7",
";X c #B7C2EA",
":X c #C6CFEE",
">X c #CCD4F0",
",X c #D2D9F2",
"<X c #D5DBF3",
"1X c #DBE1F5",
"2X c #DEE3F5",
"3X c #E7EBEA",
"4X c #E1E6F6",
"5X c #F0F2FB",
"6X c #F6F7FC",
"7X c #F9FAFD",
"8X c #FCFCFE",
"9X c gray100",
"0X c None",
/* pixels */
"0X0X0X0X0X0X0X0X0X0X0X0X0X0X0X0X0X0X0X0X0X0X0X0X0X0X0X0X0X0X0X0X",
"0X0X0X0X0X0X0X0X0X0X0X0X0X0X0X0X0X0X0X0X0X0X0X0X0X0X0XS.S.0X0X0X",
"0X0X0X0X0X0X0X0X0X0X0X0X0X0X0X0X0X0X0Xc.0X0X0X0X0X0X0XF.0X0X0X0X",
"0X0X0X0X0X0X0X0X0X0X0X0X0X0X0X0X0X0XJ.z.0X0X0X0X0X0XG.F.0X0X0X0X",
"0X0X0X0X0X0X0X0X0X0X0X0X0X0X0X0X0X0XP.K.0X0X0XM.N.k.D.F.A.S.S.0X",
"0X0X0X0X0X0X0X0X0X0X0XX.0X0X0X0X0XY I.J.c.Z.b.V.N.k.H.G.F.0X0X0X",
"0X5 @.@.@.@.@.@.@.o.> !  .| { E R K P U.0X0X0X0X0X0XH.0X0X0X0X0X",
"0X#.q.q.q.q.q.q.q.2.: _ ..] [ 0X0X0XL I.0X0X0X0X0XN.k.0X0X0X0X0X",
"0X#.q.q.q.q.q.q.q.2.= ) ! 0X0X0X0X0XU P 0X0X0X0X0XN.B.0X0X0X0X0X",
"0X#.q.q.q.q.q.q.q.2.$ ^ _ 0X0X0X0X0XW 0X0X0X0X0X0Xm.N.0X0X0X0X0X",
"0X#.q.q.q.q.q.q.q.2.% N V 0X0X0X0X0XQ 0X0X0X0X0X0Xn.0X0X0X0X0X0X",
"a #.q.q.q.q.q.q.q.2.&       0X0X0X0XT 0X0XU.z.x.b.V.m.B.H.0X0X0X",
"0X#.q.q.q.q.q.q.q.2.; p.z     B J C   Z I P.K.x.C.v.m.N.0X0X0X0X",
"0X#.q.q.q.q.q.q.q.2.t !.E.w.s   X   .     0X0X0XZ.0X0X0X0X0X0X0X",
"0X#.q.q.q.q.q.q.q.2.i !.!.!.g.n     y.z   0X0X0Xl.0X0X0X0X0X0X0X",
"0X$ $ $ $ $ $ $ $ u D !.!.!.!.!.i.m Q.t.    0XL.x.0X0X0X$ $ 0X0X",
"0X0X0X0X0X^.~.  d e.E.!.!.!.!.!.!.!.!.R.f   - r * 1 9 $.:.2.6 0X",
"0X0X0X^.^.^.^.@     x a.!.!.!.!.!.!.!.!.S   0 >.5.q.q.q.q.q.4 0X",
"0X0X0X0X0X*X@X0XOXF g   m j.!.!.!.!.!.!.h..   3.q.q.q.q.q.q.3 0X",
"0X0X0X9X9X9X9X9X9X9X+Xv O d r.W.!.!.!.!.!.M   p q.q.q.q.q.q.< 0X",
"0X0X9X7X$X{.(.`. X,X9X&XA   b !.!.!.!.!.!.s.  q q.q.q.q.q.9.$ 0X",
"0X9X4X]./././././.).#X9XY.c f.T.d.d.d.u.u.u.l   6.q.q.q.q.7.$ 0X",
"9X8X[././././././././.;X3XG                   e q.q.q.q.q.4.$ 0X",
"9X=X/././././././././.'.9XoXk o h j + w y y =.q.q.q.q.q.q.1.$ 0X",
"9X X/./././././././././.1X9X0X' / H 8 q.q.q.q.q.q.q.q.q.q.,.$ 0X",
"9X|././././././././././.>X9X0X0X0X` 2 ;.0.q.q.q.q.q.q.q.q.>.$ 0X",
"9XXX/././././././././.(.5X9X0X0X0X( 0X$ 4 >.q.q.q.q.q.q.q.:.$ 0X",
"9X<X)././././././././..X9X0X0X0X0X~ 0X0X0X, 7 <.q.q.q.q.q.-.$ 0X",
"0X9X$X/././././././.'.5X9X0X0X0X0X0X0X0X0X} # $ O.4.q.q.q.&.$ 0X",
"0X0X9X%X_././././.}.4X9X0X0X0X0X0X0X0X0X0X0X0X0X0X< $.8.q.%.0X0X",
"0X0X0X9X6X:X=X-X2X9X9X0X0X0X0X0X0X0X0X0X0X0X0X0X0X0X$ 1 *.+.0X0X",
"0X0X0X0X9X9X9X9X9X0X0X0X0X0X0X0X0X0X0X0X0X0X0X0X0X0X0X0X$ 0X0X0X"
};
