/* XPM */
static char * Icon_xpm[] = {
"32 24 456 2",
"  	c #000000",
". 	c #161209",
"+ 	c #120E06",
"@ 	c #282217",
"# 	c #3B3225",
"$ 	c #2B2418",
"% 	c #261E0D",
"& 	c #151007",
"* 	c #151208",
"= 	c #2D2512",
"- 	c #090805",
"; 	c #2A200D",
"> 	c #2B2210",
", 	c #322B1C",
"' 	c #4C3F2B",
") 	c #100D09",
"! 	c #100C04",
"~ 	c #251E0F",
"{ 	c #090806",
"] 	c #141006",
"^ 	c #856E38",
"/ 	c #7A6234",
"( 	c #191305",
"_ 	c #73603C",
": 	c #C3A473",
"< 	c #756448",
"[ 	c #3F3626",
"} 	c #3C3017",
"| 	c #7B622A",
"1 	c #967836",
"2 	c #937A4B",
"3 	c #997C43",
"4 	c #88692A",
"5 	c #1A1308",
"6 	c #1A1610",
"7 	c #73603E",
"8 	c #967C4F",
"9 	c #1A1409",
"0 	c #4D3F1B",
"a 	c #967D42",
"b 	c #584A25",
"c 	c #1B160B",
"d 	c #100D06",
"e 	c #967D3C",
"f 	c #9B8043",
"g 	c #090701",
"h 	c #725E33",
"i 	c #AF9153",
"j 	c #201A0F",
"k 	c #171306",
"l 	c #130F04",
"m 	c #483C1E",
"n 	c #BF9545",
"o 	c #9E7E3A",
"p 	c #B88F45",
"q 	c #84642C",
"r 	c #5C491F",
"s 	c #473A19",
"t 	c #715E33",
"u 	c #9B8150",
"v 	c #121009",
"w 	c #352A11",
"x 	c #B2924C",
"y 	c #6F5D32",
"z 	c #352C18",
"A 	c #16120A",
"B 	c #0A0804",
"C 	c #7B6531",
"D 	c #655329",
"E 	c #B1924E",
"F 	c #090803",
"G 	c #67572F",
"H 	c #A48648",
"I 	c #1E1708",
"J 	c #0D0B06",
"K 	c #8B7542",
"L 	c #C5A65B",
"M 	c #9F813E",
"N 	c #90702E",
"O 	c #BD9544",
"P 	c #CFA956",
"Q 	c #C69840",
"R 	c #BA8F38",
"S 	c #81692F",
"T 	c #937A47",
"U 	c #816A3C",
"V 	c #130E03",
"W 	c #866D38",
"X 	c #B5975E",
"Y 	c #17130C",
"Z 	c #20190B",
"` 	c #B79754",
" .	c #534624",
"..	c #251E11",
"+.	c #92773B",
"@.	c #0C0A03",
"#.	c #201A0C",
"$.	c #866D33",
"%.	c #A5894A",
"&.	c #3C321D",
"*.	c #473C1D",
"=.	c #B99956",
"-.	c #312610",
";.	c #251F11",
">.	c #B39659",
",.	c #7C6843",
"'.	c #1E1912",
").	c #0B0A06",
"!.	c #655126",
"~.	c #B18C3B",
"{.	c #A1843E",
"].	c #B58F40",
"^.	c #775B24",
"/.	c #63522F",
"(.	c #846D3B",
"_.	c #0E0A01",
":.	c #7C6738",
"<.	c #B69A61",
"[.	c #141109",
"}.	c #272012",
"|.	c #AD9051",
"1.	c #181409",
"2.	c #6C582C",
"3.	c #594821",
"4.	c #241D0E",
"5.	c #B19046",
"6.	c #957B46",
"7.	c #231D0D",
"8.	c #B99A58",
"9.	c #3F331A",
"0.	c #171307",
"a.	c #A88C48",
"b.	c #3D331E",
"c.	c #010000",
"d.	c #503F1B",
"e.	c #BD983E",
"f.	c #A88437",
"g.	c #B88C3C",
"h.	c #AF8737",
"i.	c #634E20",
"j.	c #221C0C",
"k.	c #8A7239",
"l.	c #605027",
"m.	c #867141",
"n.	c #AA8F55",
"o.	c #010100",
"p.	c #554627",
"q.	c #7E6936",
"r.	c #151108",
"s.	c #7D642F",
"t.	c #604C1E",
"u.	c #171207",
"v.	c #2F2612",
"w.	c #D1AA4F",
"x.	c #554525",
"y.	c #89733E",
"z.	c #7A653A",
"A.	c #877034",
"B.	c #4F411E",
"C.	c #17130A",
"D.	c #846E38",
"E.	c #987B38",
"F.	c #AB8538",
"G.	c #B78F39",
"H.	c #B68F44",
"I.	c #BA9241",
"J.	c #B28A39",
"K.	c #866C2E",
"L.	c #927844",
"M.	c #19150C",
"N.	c #1D1708",
"O.	c #AA8D49",
"P.	c #43381F",
"Q.	c #927B4C",
"R.	c #77643B",
"S.	c #876F3A",
"T.	c #231D0E",
"U.	c #5A4821",
"V.	c #896D2B",
"W.	c #342910",
"X.	c #2B2312",
"Y.	c #BF9A47",
"Z.	c #705C29",
"`.	c #A88C52",
" +	c #0B0904",
".+	c #544526",
"++	c #8C7136",
"@+	c #261F11",
"#+	c #AC8F5A",
"$+	c #7D6840",
"%+	c #3C3117",
"&+	c #866A2C",
"*+	c #B68C3D",
"=+	c #A07D3B",
"-+	c #BD9545",
";+	c #7F6027",
">+	c #433722",
",+	c #8F7644",
"'+	c #070502",
")+	c #2F2712",
"!+	c #A98D50",
"~+	c #0D0A06",
"{+	c #A38853",
"]+	c #262010",
"^+	c #362B15",
"/+	c #645227",
"(+	c #2A220E",
"_+	c #A28134",
":+	c #433514",
"<+	c #231C0E",
"[+	c #B19041",
"}+	c #CDA953",
"|+	c #58492E",
"1+	c #0C0903",
"2+	c #AB894C",
"3+	c #29200E",
"4+	c #110F06",
"5+	c #B09456",
"6+	c #473B27",
"7+	c #050301",
"8+	c #937431",
"9+	c #C59A3E",
"0+	c #B88F3A",
"a+	c #B98D39",
"b+	c #A37D30",
"c+	c #090702",
"d+	c #816C3C",
"e+	c #7D6932",
"f+	c #5F4F28",
"g+	c #967E42",
"h+	c #4C3E25",
"i+	c #7E693A",
"j+	c #705B2B",
"k+	c #201A0B",
"l+	c #A98636",
"m+	c #4D3D18",
"n+	c #AF8E41",
"o+	c #C19E4B",
"p+	c #110D06",
"q+	c #6A5831",
"r+	c #866C3A",
"s+	c #080300",
"t+	c #87703A",
"u+	c #584A2E",
"v+	c #040402",
"w+	c #715923",
"x+	c #AC8837",
"y+	c #AF8B41",
"z+	c #B58D3E",
"A+	c #896A2B",
"B+	c #1D180D",
"C+	c #BD9E54",
"D+	c #362D17",
"E+	c #9C8240",
"F+	c #534521",
"G+	c #887040",
"H+	c #574620",
"I+	c #50401B",
"J+	c #8C6D2C",
"K+	c #30260F",
"L+	c #050402",
"M+	c #C9A54D",
"N+	c #58471E",
"O+	c #9F8349",
"P+	c #1C170D",
"Q+	c #3E3013",
"R+	c #A78742",
"S+	c #060504",
"T+	c #AE8838",
"U+	c #A4813D",
"V+	c #BF9142",
"W+	c #936F2A",
"X+	c #060502",
"Y+	c #5B4B27",
"Z+	c #A4894D",
"`+	c #2F2614",
" @	c #A88C49",
".@	c #4E3F23",
"+@	c #695529",
"@@	c #59481E",
"#@	c #7D5F26",
"$@	c #0F0C05",
"%@	c #846C31",
"&@	c #A78945",
"*@	c #7F6839",
"=@	c #8D7436",
"-@	c #6A5628",
";@	c #110E07",
">@	c #544521",
",@	c #CAA44E",
"'@	c #C1993B",
")@	c #B88D37",
"!@	c #BC8F36",
"~@	c #BA9135",
"{@	c #5D4B1F",
"]@	c #9E844A",
"^@	c #4D4126",
"/@	c #816B37",
"(@	c #45391C",
"_@	c #110D08",
":@	c #897038",
"<@	c #2F2610",
"[@	c #765D27",
"}@	c #6D5221",
"|@	c #020201",
"1@	c #725E2D",
"2@	c #6C5828",
"3@	c #806A31",
"4@	c #7F672D",
"5@	c #1C180C",
"6@	c #AC8F45",
"7@	c #0E0B06",
"8@	c #211B0D",
"9@	c #554621",
"0@	c #77612C",
"a@	c #AA8837",
"b@	c #B48D46",
"c@	c #BB9144",
"d@	c #926F2E",
"e@	c #050401",
"f@	c #352D17",
"g@	c #997F4A",
"h@	c #211B0E",
"i@	c #715E2F",
"j@	c #786433",
"k@	c #2F2710",
"l@	c #745C26",
"m@	c #57421A",
"n@	c #44381B",
"o@	c #967C38",
"p@	c #7E6830",
"q@	c #A08238",
"r@	c #967938",
"s@	c #665526",
"t@	c #816B2C",
"u@	c #B8913C",
"v@	c #AE863C",
"w@	c #BD8F3F",
"x@	c #B08834",
"y@	c #332910",
"z@	c #030301",
"A@	c #826D37",
"B@	c #2F2813",
"C@	c #6D5A2A",
"D@	c #0F0C06",
"E@	c #64532A",
"F@	c #453919",
"G@	c #6D5823",
"H@	c #443615",
"I@	c #241E0E",
"J@	c #C4A24A",
"K@	c #907737",
"L@	c #2B200E",
"M@	c #B28E3E",
"N@	c #655324",
"O@	c #080603",
"P@	c #392D14",
"Q@	c #C29E46",
"R@	c #C69C3D",
"S@	c #BC903C",
"T@	c #BA8F39",
"U@	c #BF9538",
"V@	c #6A5322",
"W@	c #372D14",
"X@	c #635024",
"Y@	c #51411E",
"Z@	c #231C0D",
"`@	c #46391A",
" #	c #5F4E21",
".#	c #6B5422",
"+#	c #281D0C",
"@#	c #080703",
"##	c #AD8E40",
"$#	c #937731",
"%#	c #0A0703",
"&#	c #6A5323",
"*#	c #181308",
"=#	c #040301",
"-#	c #4F3E1A",
";#	c #987837",
">#	c #AB883A",
",#	c #AE873E",
"'#	c #B58D42",
")#	c #95712E",
"!#	c #070501",
"~#	c #50421F",
"{#	c #090704",
"]#	c #271E0D",
"^#	c #27200E",
"/#	c #251C0B",
"(#	c #4D3B17",
"_#	c #5A441B",
":#	c #0F0A04",
"<#	c #79642B",
"[#	c #B6903D",
"}#	c #4D3A18",
"|#	c #463918",
"1#	c #241A0A",
"2#	c #AD8338",
"3#	c #B0893B",
"4#	c #B68E3B",
"5#	c #BC9039",
"6#	c #B68B35",
"7#	c #30240E",
"8#	c #000101",
"9#	c #0E0A04",
"0#	c #130F07",
"a#	c #23190A",
"b#	c #2D210D",
"c#	c #2F240E",
"d#	c #342A12",
"e#	c #8D6E2D",
"f#	c #503B19",
"g#	c #1E160A",
"h#	c #5E4D24",
"i#	c #BE984C",
"j#	c #BC933B",
"k#	c #C59C40",
"l#	c #C4993E",
"m#	c #C3983A",
"n#	c #5C481D",
"o#	c #060402",
"p#	c #59431B",
"q#	c #30230E",
"r#	c #261E0C",
"s#	c #8F7740",
"t#	c #AB8A3E",
"u#	c #A37E36",
"v#	c #BC9241",
"w#	c #91702C",
"x#	c #4E3E1B",
"y#	c #1F190B",
"z#	c #B1934C",
"A#	c #C8A047",
"B#	c #C2993E",
"C#	c #CEA140",
"D#	c #A27C2F",
"E#	c #0D0904",
"F#	c #030201",
"G#	c #433519",
"H#	c #CBA64E",
"I#	c #C19A41",
"J#	c #9E7D35",
"K#	c #C09842",
"L#	c #B79139",
"M#	c #0B0903",
"N#	c #645124",
"O#	c #B89544",
"P#	c #91773B",
"Q#	c #B39046",
"R#	c #765F2D",
"S#	c #161106",
"T#	c #2C210E",
"U#	c #2B2010",
"V#	c #332711",
"W#	c #0D0A03",
"          . +   @ # $ % & * = - ; > , ' ) ! ~ {                 ",
"      ] ^ / ( _ : < [ } | 1 2 3 4 5 6 7 8 9 0 a b               ",
"  c d e f g h i j   k l m n o p q r s   t u v w x y   z A       ",
"B C D E F G H I J K L M N O P Q R S T U V W X Y Z `  ...+.@.    ",
"#.$.%.&.*.=.-.;.>.,.'.).!.~.{.].^.    /.(._.:.<.[.}.|.1.2.3.!   ",
"4.5.6.7.8.9.0.a.b.    c.d.e.f.g.h.i.j.  k.l.  m.n.o.p.q.r.s.t.u.",
"v.w.x.y.z.  A.B.  C.D.E.F.G.H.I.J.K.L.M.N.O.P.  Q.R.  S.T.U.V.W.",
"X.Y.Z.`. +.+++  @+#+$+%+&+*+=+-+;+  >+,+'+)+!+c ~+{+]+^+/+(+_+:+",
"<+[+}+|+1+2+3+4+5+6+  7+8+9+0+a+b+c+  d+e+  f+g+  h+i+  j+k+l+m+",
"1.n+o+p+q+r+s+t+u+    v+w+x+y+z+A+    B+C+D+  E+F+  G+. H+I+J+K+",
"L+E.M+N+O+P+Q+R+S+      w+T+U+V+W+X+    Y+Z+  `+ @  .@+@@@r #@$@",
"  %@&@o+*@  =@-@    ;@>@,@'@)@!@~@{@      ]@^@  /@(@_@:@<@[@}@|@",
"  1@2@3@4@5@6@7@    8@9@0@a@b@c@d@e@      f@g@  h@i@  j@k@l@m@  ",
"  n@o@p@q@r@s@          t@u@v@w@x@y@z@      A@B@  C@D@E@F@G@H@  ",
"  I@J@K@L@M@N@c.    O@P@Q@R@S@T@U@V@B       W@X@  Y@Z@`@ #.#+#  ",
"  @###$#%#&#*#=#o.  $@-#;#>#,#'#)#!#  o.  c.  ~#{#]#^#/#(#_#:#  ",
"    <#[#}#|#    c.    1#2#3#4#5#6#7#c.        L+8#9#0#a#b#c#O@  ",
"    d#e#f#g#        o.h#i#j#k#l#m#n#d                 '+o#=#    ",
"    =#p#q#          L+r#s#t#u#v#w#e@                            ",
"      x#y#            L+z#A#B#C#D#E#                            ",
"      F#z@            G#H#I#J#K#L#M#                            ",
"                    c.  N#O#P#Q#R#                              ",
"                  c.    S#T#U#V#W#                              ",
"                                                                "};
