/* XPM */
static char * Icon_VV_xpm[] = {
"32 24 526 2",
"  	c None",
". 	c #FDFCFC",
"+ 	c #E8E6E2",
"@ 	c #EBEAE7",
"# 	c #F4F3EE",
"$ 	c #FCFBFA",
"% 	c #F6F5F2",
"& 	c #C7BEAE",
"* 	c #B2A58A",
"= 	c #C5BEAF",
"- 	c #A59478",
"; 	c #BEAB86",
"> 	c #F7F7F5",
", 	c #B7AF9D",
"' 	c #9E8C63",
") 	c #B6A88D",
"! 	c #DFD9C9",
"~ 	c #DDDAD4",
"{ 	c #E9E4D9",
"] 	c #D9D0BD",
"^ 	c #CCB58E",
"/ 	c #BEA987",
"( 	c #BEB093",
"_ 	c #A4916C",
": 	c #89713F",
"< 	c #9C8346",
"[ 	c #A48D59",
"} 	c #A69068",
"| 	c #A78641",
"1 	c #9B7D47",
"2 	c #EEEDEA",
"3 	c #E2DED6",
"4 	c #90794D",
"5 	c #BAA57F",
"6 	c #FCFCFB",
"7 	c #CCC5B5",
"8 	c #947C46",
"9 	c #C0A159",
"0 	c #C9BB98",
"a 	c #FEFEFD",
"b 	c #D4CFC3",
"c 	c #9E8241",
"d 	c #CEC8BB",
"e 	c #D7C9AA",
"f 	c #D5B579",
"g 	c #B9A88B",
"h 	c #DEDAD1",
"i 	c #FBFBFA",
"j 	c #D5CEC0",
"k 	c #B9984B",
"l 	c #B68E3E",
"m 	c #96753C",
"n 	c #B8924A",
"o 	c #8D7143",
"p 	c #A99876",
"q 	c #F5F4F0",
"r 	c #CCC8BE",
"s 	c #9F854D",
"t 	c #C9B388",
"u 	c #FAFAF9",
"v 	c #EEECE9",
"w 	c #988866",
"x 	c #C6A764",
"y 	c #D2BE8E",
"z 	c #C2A965",
"A 	c #AA9D84",
"B 	c #CDC6B5",
"C 	c #C8A75F",
"D 	c #B0A58D",
"E 	c #DCD4C0",
"F 	c #C1B597",
"G 	c #C9C1B1",
"H 	c #A88F55",
"I 	c #C99F4F",
"J 	c #C29640",
"K 	c #D1AE55",
"L 	c #B38C40",
"M 	c #A98234",
"N 	c #AA9159",
"O 	c #E2DFD9",
"P 	c #9E937B",
"Q 	c #AF9251",
"R 	c #CBB181",
"S 	c #F1EFEA",
"T 	c #B8AF9C",
"U 	c #C5A565",
"V 	c #C8B68D",
"W 	c #BFB59F",
"X 	c #AD914E",
"Y 	c #DAD6CE",
"Z 	c #BA9B54",
"` 	c #968767",
" .	c #E6E2D9",
"..	c #D6BB7B",
"+.	c #E3C06D",
"@.	c #C1A056",
"#.	c #A7833B",
"$.	c #A98538",
"%.	c #C59D42",
"&.	c #D3AD57",
"*.	c #D5AE61",
"=.	c #C1953E",
"-.	c #B9A67C",
";.	c #BAB2A1",
">.	c #A38850",
",.	c #EDECE8",
"'.	c #BDB6A2",
").	c #A18751",
"!.	c #D5B883",
"~.	c #E0DDD6",
"{.	c #C6A766",
"].	c #C8BC9F",
"^.	c #BBAA83",
"/.	c #AA986E",
"(.	c #BFAD7F",
"_.	c #987E4B",
":.	c #F2F1F0",
"<.	c #D7CFBF",
"[.	c #E4C076",
"}.	c #C4AE83",
"|.	c #D3CCBF",
"1.	c #E8E5E0",
"2.	c #BCB198",
"3.	c #B08E45",
"4.	c #B28A3C",
"5.	c #9F8139",
"6.	c #A2863E",
"7.	c #9D7C35",
"8.	c #C5BAA4",
"9.	c #95835C",
"0.	c #AA9564",
"a.	c #D2CDC2",
"b.	c #B49A63",
"c.	c #D2B57D",
"d.	c #E7E4DD",
"e.	c #BDB7AA",
"f.	c #C7A65E",
"g.	c #D8D4CA",
"h.	c #BDAE8C",
"i.	c #BCA262",
"j.	c #B59754",
"k.	c #DDDAD5",
"l.	c #D5CEC1",
"m.	c #C9A961",
"n.	c #C3B8A3",
"o.	c #EAE8E2",
"p.	c #B89A59",
"q.	c #CAA349",
"r.	c #C39C41",
"s.	c #C09842",
"t.	c #AF8334",
"u.	c #B49351",
"v.	c #E7E5E0",
"w.	c #D3CFC7",
"x.	c #AB8F48",
"y.	c #BCB092",
"z.	c #DEDBD3",
"A.	c #B29A6B",
"B.	c #D8BC81",
"C.	c #F0EFEC",
"D.	c #AFA288",
"E.	c #B79E62",
"F.	c #F9F9F8",
"G.	c #CAB689",
"H.	c #CCA853",
"I.	c #9D834D",
"J.	c #C0B295",
"K.	c #B79A52",
"L.	c #B8AF9B",
"M.	c #ECE9E3",
"N.	c #BCB09C",
"O.	c #A4874C",
"P.	c #AD873B",
"Q.	c #C69F42",
"R.	c #C19845",
"S.	c #BC923C",
"T.	c #BE923B",
"U.	c #AB873A",
"V.	c #9E8D68",
"W.	c #B0A48B",
"X.	c #C1A25D",
"Y.	c #CAC1B1",
"Z.	c #E7E4DF",
"`.	c #AF976A",
" +	c #C2AE84",
".+	c #FCFBFB",
"++	c #A28D5E",
"@+	c #C1B496",
"#+	c #D1BA88",
"$+	c #B79851",
"%+	c #C1BAAE",
"&+	c #CFAC58",
"*+	c #B29D72",
"=+	c #D6CDBB",
"-+	c #CEAF64",
";+	c #B39447",
">+	c #AA873D",
",+	c #A98335",
"'+	c #B79043",
")+	c #A58246",
"!+	c #A7823C",
"~+	c #B38F3B",
"{+	c #B3A691",
"]+	c #8D784B",
"^+	c #C0B7A5",
"/+	c #B3A98E",
"(+	c #CDAC66",
"_+	c #DBD7CE",
":+	c #D6D3CD",
"<+	c #BFA16A",
"[+	c #C5BCA8",
"}+	c #D8D6D0",
"|+	c #AC9156",
"1+	c #EDEBE6",
"2+	c #C7B486",
"3+	c #BA9955",
"4+	c #D5D0C6",
"5+	c #BA994B",
"6+	c #D2B167",
"7+	c #F3F1F0",
"8+	c #CAC1AD",
"9+	c #D5B172",
"0+	c #B6A37F",
"a+	c #D5D0C2",
"b+	c #C6B386",
"c+	c #C09D4C",
"d+	c #B08439",
"e+	c #BA9145",
"f+	c #BE9141",
"g+	c #B28534",
"h+	c #C4B8A4",
"i+	c #B7AF9F",
"j+	c #AC904A",
"k+	c #EBE9E5",
"l+	c #AB9A72",
"m+	c #CFB26B",
"n+	c #EEEDEB",
"o+	c #B9B2A5",
"p+	c #C3A467",
"q+	c #ECEBE7",
"r+	c #B3A78D",
"s+	c #B9AA8B",
"t+	c #BEAD86",
"u+	c #BB9A4D",
"v+	c #BDA061",
"w+	c #947E51",
"x+	c #CDAA5A",
"y+	c #CCB16D",
"z+	c #C0A268",
"A+	c #C9C0B0",
"B+	c #B09661",
"C+	c #D4AF57",
"D+	c #BC9437",
"E+	c #C1953A",
"F+	c #C0943E",
"G+	c #B38735",
"H+	c #B39D6C",
"I+	c #F6F5F4",
"J+	c #B19658",
"K+	c #BCA97A",
"L+	c #F0EFED",
"M+	c #BBA260",
"N+	c #C3AF7C",
"O+	c #BCA67C",
"P+	c #BCA986",
"Q+	c #EBEAE6",
"R+	c #A79161",
"S+	c #BCA670",
"T+	c #B39C64",
"U+	c #B69554",
"V+	c #E3E1DE",
"W+	c #B2A383",
"X+	c #F8D16B",
"Y+	c #B7AB91",
"Z+	c #E1DDD4",
"`+	c #A28139",
" @	c #B8903C",
".@	c #BD9542",
"+@	c #A7843C",
"@@	c #A48036",
"#@	c #A78035",
"$@	c #B5A381",
"%@	c #C2BBAD",
"&@	c #D0AF60",
"*@	c #D5D0C4",
"=@	c #D9D6CF",
"-@	c #CFAC62",
";@	c #E7D9B3",
">@	c #F2F0E9",
",@	c #BB9C5C",
"'@	c #DBD7CF",
")@	c #B5A57E",
"!@	c #D3CCBE",
"~@	c #C6AB69",
"{@	c #B59B5A",
"]@	c #BB9D5C",
"^@	c #FEFEFE",
"/@	c #BDAF8E",
"(@	c #DBB763",
"_@	c #CAAE69",
":@	c #F2F1EF",
"<@	c #E5DFD3",
"[@	c #C5AD71",
"}@	c #B19F74",
"|@	c #AF914B",
"1@	c #B99044",
"2@	c #AD8742",
"3@	c #AC8339",
"4@	c #B38636",
"5@	c #C1B196",
"6@	c #B6A57B",
"7@	c #CFB273",
"8@	c #F8F7F6",
"9@	c #B5AC99",
"0@	c #CEAB61",
"a@	c #F7F6F5",
"b@	c #C8BCA3",
"c@	c #C4B185",
"d@	c #C9C1B0",
"e@	c #BDAE8B",
"f@	c #C3A663",
"g@	c #BC994B",
"h@	c #BA9951",
"i@	c #C7BAA0",
"j@	c #B79F64",
"k@	c #AD9D7D",
"l@	c #DDBA62",
"m@	c #D1B46D",
"n@	c #C3B087",
"o@	c #CBC3B3",
"p@	c #BE9E50",
"q@	c #CAA44E",
"r@	c #B68D38",
"s@	c #C09840",
"t@	c #C4953D",
"u@	c #BE9034",
"v@	c #B19B6C",
"w@	c #F3F2F1",
"x@	c #C7AA6C",
"y@	c #CCBEA2",
"z@	c #B09E74",
"A@	c #CABC9C",
"B@	c #FAF9F8",
"C@	c #D0B677",
"D@	c #EFEDE9",
"E@	c #EAE8E3",
"F@	c #BFAE82",
"G@	c #BCA36B",
"H@	c #B49859",
"I@	c #B1A488",
"J@	c #CBA754",
"K@	c #AE975A",
"L@	c #AB9872",
"M@	c #E8C267",
"N@	c #B2A17C",
"O@	c #D9D1C1",
"P@	c #E0BA62",
"Q@	c #D2AD5A",
"R@	c #C19C39",
"S@	c #C29B41",
"T@	c #BB913E",
"U@	c #BA9037",
"V@	c #B09868",
"W@	c #CFCABF",
"X@	c #D2B46F",
"Y@	c #EFEDEB",
"Z@	c #F4F1EB",
"`@	c #C0A666",
" #	c #F0EEEA",
".#	c #C0B192",
"+#	c #CFC3A7",
"@#	c #BBAB82",
"##	c #BBA56F",
"$#	c #C1A157",
"%#	c #C9C0AE",
"&#	c #B09964",
"*#	c #B4A583",
"=#	c #D5CEC3",
"-#	c #AD996F",
";#	c #DDBB5F",
">#	c #C09E4B",
",#	c #B89E63",
"'#	c #A88C42",
")#	c #A9893B",
"!#	c #B08E4B",
"~#	c #A5844A",
"{#	c #B58B3D",
"]#	c #B09D7C",
"^#	c #BCAC82",
"/#	c #BFB28E",
"(#	c #B9AC8D",
"_#	c #D4BF8C",
":#	c #DAD5CB",
"<#	c #C0AB78",
"[#	c #BCAC81",
"}#	c #BBA571",
"|#	c #C5A252",
"1#	c #B9A26B",
"2#	c #B19A63",
"3#	c #C0A35E",
"4#	c #AE9861",
"5#	c #C6A54E",
"6#	c #B39C69",
"7#	c #C1A057",
"8#	c #AE8B3B",
"9#	c #C69E45",
"0#	c #C39440",
"a#	c #B18432",
"b#	c #A98946",
"c#	c #F2F0ED",
"d#	c #AE9555",
"e#	c #E0DDDA",
"f#	c #EDEAE2",
"g#	c #D8C598",
"h#	c #FEFDFD",
"i#	c #FBFAF9",
"j#	c #B5A47A",
"k#	c #F5F4F1",
"l#	c #DDD6C7",
"m#	c #C0AF85",
"n#	c #B0985E",
"o#	c #BBA36F",
"p#	c #B29755",
"q#	c #AA9971",
"r#	c #B9AA85",
"s#	c #DCD9D4",
"t#	c #988248",
"u#	c #D1AA4E",
"v#	c #DDB554",
"w#	c #BC9641",
"x#	c #C5973E",
"y#	c #C2923D",
"z#	c #BA8F37",
"A#	c #AD8B43",
"B#	c #F4F3F0",
"C#	c #C6BEAD",
"D#	c #B9A984",
"E#	c #FDFDFC",
"F#	c #F9F8F6",
"G#	c #C5BDA9",
"H#	c #BEA96F",
"I#	c #D4CEC1",
"J#	c #BA9F60",
"K#	c #B39A59",
"L#	c #D0CABC",
"M#	c #C1BBB3",
"N#	c #B48E41",
"O#	c #CCA64E",
"P#	c #C09D41",
"Q#	c #C19844",
"R#	c #B0873F",
"S#	c #BF923D",
"T#	c #A48548",
"U#	c #F5F4F2",
"V#	c #DFDBD1",
"W#	c #EAE9E6",
"X#	c #C1AA6E",
"Y#	c #DBD4C3",
"Z#	c #C7A54D",
"`#	c #C3B9A4",
" $	c #C8C3B9",
".$	c #B39850",
"+$	c #ECEAE6",
"@$	c #D0CABD",
"#$	c #AD986D",
"$$	c #9F8244",
"%$	c #9D813D",
"&$	c #B08B3D",
"*$	c #A07937",
"=$	c #A27934",
"-$	c #9F8556",
";$	c #BBA56E",
">$	c #BAA470",
",$	c #AD9E7D",
"'$	c #B29B62",
")$	c #DEDAD2",
"!$	c #AB9C75",
"~$	c #937D4D",
"{$	c #F5F5F4",
"]$	c #F7F6F4",
"^$	c #CCB36C",
"/$	c #C6A351",
"($	c #B18F44",
"_$	c #C69C42",
":$	c #AE8336",
"<$	c #B18532",
"[$	c #B38935",
"}$	c #DFD9CD",
"|$	c #C0B8A6",
"1$	c #C5A14A",
"2$	c #D1CEC4",
"3$	c #A99057",
"4$	c #E6E3DD",
"5$	c #ABA292",
"6$	c #D2B15B",
"7$	c #F2CC6B",
"8$	c #C99E42",
"9$	c #C79C40",
"0$	c #B18938",
"a$	c #BB8F3B",
"b$	c #B8933E",
"c$	c #E4E0D8",
"d$	c #F6F6F5",
"e$	c #A98E4B",
"f$	c #B29E6C",
"g$	c #DAD5CA",
"h$	c #FAF9F7",
"i$	c #C2B6A1",
"j$	c #D0AA50",
"k$	c #D7B46C",
"l$	c #B89648",
"m$	c #B38F3C",
"n$	c #AE8137",
"o$	c #BA8C39",
"p$	c #AE8F4A",
"q$	c #F5F3EF",
"r$	c #C0B9AA",
"s$	c #B39C6B",
"t$	c #B09F7D",
"u$	c #C8A95F",
"v$	c #B49C6C",
"w$	c #B09B6E",
"x$	c #B38F4B",
"y$	c #BA8D48",
"z$	c #B88A45",
"A$	c #BBA989",
"              . . + @ # $ % & * = - ; > , ' ) !                 ",
"    ~ {   ] ^ / ( _ : < [ } | 1 2 3 4 5 6 7 8 9 0 a             ",
"  b c d e f g h i   j k l m n o p q r s t u v w x y 6           ",
"  z A B C D     E F G H I J K L M N O P Q R S   T U V           ",
"W X Y Z `    ...+.@.#.$.%.&.*.=.-.;.>.,.'.).!.~.  d {.].        ",
"^./.(._.:.<.[.}.|.1.2.3.4.5.6.7.8.  9.0.  a.b.c.d.  e.f.g.      ",
"h.i.j.k.l.m.n.      o.p.q.r.s.t.u.v.w.x.y.  z.A.B.C.  D.E.F.    ",
"G.H.I.J.K.L.    M.N.O.P.Q.R.S.T.U.V.  W.X.Y.  Z.`. +  .+++@+    ",
"#+$+%+&+*+    =+-+;+>+,+'+)+!+~+{+]+^+  /+(+_+  :+<+[+  }+|+1+  ",
"2+3+4+5+6+7+8+9+0+a+b+c+d+e+f+g+h+i+j+k+  l+m+n+  o+p+q+  r+s+  ",
"t+u+v+w+x+y+z+A+    B+C+D+E+F+G+H+I+J+K+  L+M+N+    O+P+  Q+R+I+",
"S+T+U+V+W+X+Y+    Z+`+ @.@+@@@#@$@  %@&@*@  =@-@;@  >@,@'@  )@!@",
"~@{@]@^@/@(@_@:@<@[@}@|@1@2@3@4@5@    6@7@8@  9@0@a@  b@c@  d@e@",
"f@g@h@i@j@k@l@m@n@o@p@q@r@s@t@u@v@    w@x@y@  ^@z@A@  B@C@D@E@F@",
"G@H@I@J@K@. L@M@N@O@P@Q@R@S@T@U@V@^@    W@X@Y@  Z@`@ #  .#+#  @#",
"##$#%#&#*#  =#-#;#>#,#'#)#!#~#{#]#        ^#/#    (#_#  :#<#  [#",
"}#|#1#2#3#:.  :@4#5#6#7#8#9#0#a#b#c#      v d#e#  f#g#h#i#j#k#l#",
"m#n#o#p#q#r#    s#t#u#v#w#x#y#z#A#B#        C#D#E#        F#E#  ",
"G#H#I#J#@ K#L#    M#N#O#P#Q#R#S#T#U#          V#B@              ",
"W#X#Y#Z#`# $.$+$  @$#$$$%$&$*$=$-$                              ",
"  ;$>$,$'$)$!$~${$]$^$/$($_$:$<$[$}$                            ",
"  |$1$o@2$3$4$5${$]$6$7$8$9$0$a$b$c$                            ",
"  d$e$f$  g$h$    i$j$k$l$m$n$o$p$q$                            ",
"    r$s$ #        t$u$v$w$x$y$z$A$                              "};
