/* XPM */
static char *Visualization___[] = {
/* columns rows colors chars-per-pixel */
"48 48 122 2",
"   c gray20",
".  c #343233",
"X  c #343333",
"o  c #363333",
"O  c #363334",
"+  c #373334",
"@  c #383234",
"#  c #383334",
"$  c #3A3234",
"%  c #3B3234",
"&  c #3F3135",
"*  c #3C3234",
"=  c #3E3235",
"-  c #3F3235",
";  c #5B2F39",
":  c #5D2F3A",
">  c #403235",
",  c #413235",
"<  c #443136",
"1  c #453136",
"2  c #473136",
"3  c #453236",
"4  c #4A3137",
"5  c #4C3137",
"6  c #4F3037",
"7  c #4B3138",
"8  c #503038",
"9  c #523038",
"0  c #533038",
"q  c #523039",
"w  c #543039",
"e  c #553039",
"r  c #58303A",
"t  c #5B303A",
"y  c #612E3B",
"u  c #602F3B",
"i  c #632E3B",
"p  c #622F3B",
"a  c #642E3B",
"s  c #652F3C",
"d  c #6B2D3C",
"f  c #682E3C",
"g  c #6E2E3D",
"h  c #702D3D",
"j  c #712D3E",
"k  c #722D3E",
"l  c #732D3E",
"z  c #762D3F",
"x  c #782D3F",
"c  c #792D3F",
"v  c #7A2D3F",
"b  c #7F2C40",
"n  c #842B41",
"m  c #852B41",
"M  c #832C41",
"N  c #892B42",
"B  c #8A2B42",
"V  c #8C2A42",
"C  c #8D2A42",
"Z  c #8F2A42",
"A  c #8E2B43",
"S  c #8F2B43",
"D  c #912A42",
"F  c #902A43",
"G  c #922A43",
"H  c #942A43",
"J  c #942A44",
"K  c #972A44",
"L  c #992944",
"P  c #9A2944",
"I  c #982A44",
"U  c #992A44",
"Y  c #982A45",
"T  c #9C2945",
"R  c #9D2945",
"E  c #9F2945",
"W  c #9D2A46",
"Q  c #A02946",
"!  c #A12946",
"~  c #A22846",
"^  c #A32846",
"/  c #A52846",
"(  c #A42946",
")  c #A62846",
"_  c #A72847",
"`  c #A62947",
"'  c #A82847",
"]  c #AF2749",
"[  c #AA2948",
"{  c #AD2848",
"}  c #AC2948",
"|  c #AF2848",
" . c #B02748",
".. c #B12749",
"X. c #B22749",
"o. c #B32749",
"O. c #B42749",
"+. c #B5264A",
"@. c #B7274A",
"#. c #B8264A",
"$. c #B9264A",
"%. c #B8274A",
"&. c #BB264A",
"*. c #BB274A",
"=. c #BA274B",
"-. c #BB274B",
";. c #BC264A",
":. c #BD264B",
">. c #BE264A",
",. c #BF264A",
"<. c #BF274A",
"1. c #BE264B",
"2. c #BF264B",
"3. c #BE274B",
"4. c #BF264C",
"5. c #BE274C",
"6. c #BF274C",
"7. c #B22849",
"8. c #C0264A",
"9. c #C0264B",
"0. c #C0274C",
"q. c None",
/* pixels */
"q.q.q.q.q.q.q.q.q.q.q.q.q.q.q.q.q.q.q.q.q.q.q.q.q.q.q.q.q.q.q.q.q.q.q.q.q.q.q.q.q.q.q.q.q.q.q.q.",
"q.q.q.q.q.q.q.q.q.q.q.q.q.q.q.q.q.q.q.q.q.q.q.q.q.q.q.q.q.q.q.q.q.q.q.q.q.q.q.q.q.q.q.q.q.q.q.q.",
"q.q.q.q.q.q.q.q.q.q.q.q.q.q.q.q.q.q.q.q.q.q.q.q.q.q.q.q.q.q.q.q.q.q.q.q.q.q.q.q.q.q.q.q.q.q.q.q.",
"q.q.q.q.q.q.q.q.q.q.q.q.q.q.q.q.q.q.q.q.q.q.q.q.q.q.q.q.q.q.q.q.q.q.q.q.q.q.q.q.q.q.q.q.q.q.q.q.",
"q.q.q.q.q.q.q.q.q.q.q.q.q.q.q.q.q.q.q.q.q.q.q.q.q.q.q.q.q.q.q.q.q.q.q.q.q.q.q.q.q.q.q.q.q.q.q.q.",
"q.q.q.q.q.q.q.q.q.q.q.q.q.q.q.q.q.q.q.q.q.q.q.q.q.q.q.q.q.q.q.q.q.q.q.q.q.q.q.q.q.q.q.q.q.q.q.q.",
"q.q.q.q.q.q.q.q.q.q.q.q.q.q.q.q.q.q.q.q.q.q.q.q.q.q.q.q.q.q.q.q.q.q.q.q.q.q.q.q.q.q.q.q.q.q.q.q.",
"q.q.q.q.q.q.q.q.q.q.q.q.q.q.q.q.q.q.q.q.q.q.q.q.q.q.q.q.q.q.q.q.q.q.q.q.q.q.q.q.q.q.q.q.q.q.q.q.",
"q.q.q.q.q.q.q.q.q.q.q.q.q.q.q.q.q.q.q.q.q.q.q.q.q.q.q.q.q.q.q.q.q.q.q.q.q.q.q.q.q.q.q.q.q.q.q.q.",
"q.q.q.q.q.q.q.q.q.q.q.q.q.q.q.q.q.q.q.q.q.q.q.q.q.q.q.q.q.q.q.q.q.q.q.q.q.q.q.q.q.q.q.q.q.q.q.q.",
"q.q.q.q.q.q.q.q.q.q.q.q.q.q.q.q.q.q.q.q.q.q.q.q.q.q.q.q.q.q.q.q.q.q.q.q.q.q.q.q.q.q.q.q.q.q.q.q.",
"q.q.q.q.q.q.q.q.q.q.q.q.q.q.q.q.q.q.q.q.q.q.q.q.q.q.q.q.q.q.q.q.q.q.q.q.q.q.q.q.q.q.q.q.q.q.q.q.",
"q.q.q.q.q.q.q.q.q.q.q.q.q.q.q.q.q.q.q.q.q.q.q.q.q.q.q.q.q.2.q.q.q.q.q.q.q.q.q.q.q.q.q.q.q.q.q.q.",
"q.q.q.q.q.q.q.q.q.q.q.q.q.q.q.q.q.q.q.q.q.q.q.q.q.q.q.q.q.q.q.q.q.q.q.q.q.q.q.q.q.q.q.q.q.q.q.q.",
"q.q.q.q.q.q.q.q.q.q.q.q.q.q.q.q.q.q.q.q.q.q.q.q.q.q.q.q.q.q.q.q.q.q.q.q.q.q.q.q.q.q.q.q.q.q.q.q.",
"q.q.q.q.q.q.q.q.q.q.q.q.q.q.q.q.q.q.q.q.q.q.q.q.q.q.q.q.q.q.q.q.q.q.q.q.q.q.q.q.q.q.q.q.q.q.q.q.",
"q.q.q.q.q.q.q.q.q.q.q.q.q.q.q.q.q.q...W / J A Y } *.2.2.2.2.2.2.2.2.2.2.2.2.2.2.2.2.2.2.2.2.2.2.",
"q.q.q.q.q.q.q.2.2.2.2.2.2.2.2.-. .^ 9           X 7 x _ 2.2.2.2.2.2.2.2.2.2.2.2.2.2.2.2.2.2.2.2.",
"q.q.q.q.q.q.q.q.q.q.q.q.q.&.;.2.Q ,                     0 o.2.2.2.2.2.2.2.2.2.2.2.2.2.2.2.2.2.2.",
"q.q.q.q.q.q.q.q.q.q.q.q.*.2.2.B O                         8 2.2.2.2.2.2.2.2.2.2.2.2.2.2.2.2.2.2.",
"q.q.q.q.q.q.q.q.q.q.q.q.q.q.m X                             ( 2.2.2.2.2.2.2.2.2.2.2.2.2.2.2.2.2.",
"q.q.q.q.q.q.q.q.q.q.1.2.2.F X         4 z o i *             d 2.2.2.2.2.2.2.2.2.2.2.2.2.2.2.2.2.",
"q.q.q.q.q.q.q.q.2.2.7.2.{ @         = o.2.r n @             $ $.2.1.2.2.2.2.2.2.2.2.2.2.2.2.2.2.",
"q.q.q.q.q.q.q.q.2.2.T 2.!           1 :.%.*                   S 2.] 2.2.2.2.2.2.2.2.2.2.2.2.2.2.",
"q.q.q.q.q.q.q.q.q.&.b 2.)             8 3                     p 2.Z 2.2.2.2.2.2.2.2.2.2.2.2.2.2.",
"q.q.q.q.q.q.q.q.q.R d 2.@.$                                   9 2.y 2.2.q.q.q.q.q.q.q.q.q.q.q.q.",
"q.q.q.q.q.q.q.q.q.P ; 2.2.j                                   5 | w 2.2.q.q.q.q.q.q.q.q.q.q.q.q.",
"q.q.q.q.q.q.q.q.q.%.< 2.>.g                                   u A x 2.2.q.q.q.q.q.q.q.q.q.q.q.q.",
"q.q.q.q.q.q.q.q.q.q.6 Q 2.t                                   H e T q.q.q.q.q.q.q.q.q.q.q.q.q.q.",
"q.q.q.q.q.q.q.q.q.q.k f 2.H >                               & E # &.q.q.q.q.q.q.q.q.q.q.q.q.q.q.",
"q.q.q.q.q.q.q.q.q.q.q.5 G 2.U .                             j a A 2.q.q.q.q.q.q.q.q.q.q.q.q.q.q.",
"q.q.q.q.q.q.q.q.q.q.q.` 2 { 2.{ -                       + p K v 2.2.q.q.q.q.q.q.q.q.q.q.q.q.q.q.",
"q.q.q.q.q.q.q.q.q.q.q.q.L q &.2.| V : %               @ N X.h 2.2.q.q.q.q.q.q.q.q.q.q.q.q.q.q.q.",
"q.q.q.q.q.q.q.q.q.q.q.q.q.[ M X.2.2.2.>.~ c : s l C ' 3.#.I 1.q.q.q.q.q.q.q.q.q.q.q.q.q.q.q.q.q.",
"q.q.q.q.q.q.q.q.q.q.q.q.q.q.q._ D ;.2.2.2.2.2.2.2.2.2.X.;.q.q.q.q.q.q.q.q.q.q.q.q.q.q.q.q.q.q.q.",
"q.q.q.q.q.q.q.q.q.q.q.q.q.q.q.q.q.+.O.*.2.2.2.2.3.=.:.,.q.q.q.q.q.q.q.q.2.9.q.q.q.q.q.q.q.q.q.q.",
"q.q.q.q.q.q.q.q.q.q.q.q.q.q.q.q.q.q.q.q.,.1.1.2.q.q.q.q.q.q.q.q.<.2.6.q.q.q.q.q.q.q.q.q.q.q.q.q.",
"q.q.q.q.q.q.q.q.q.q.q.q.q.q.q.q.q.q.q.q.q.q.q.q.q.q.q.q.q.q.2.0.q.q.q.q.q.q.q.q.q.q.q.q.q.q.q.q.",
"q.q.q.q.q.q.q.q.q.q.q.q.8.8.q.q.q.q.q.q.q.q.q.q.q.q.5.9.q.9.q.q.q.q.q.q.q.q.q.q.q.q.q.q.q.q.q.q.",
"q.q.q.q.q.q.q.q.q.q.q.q.q.q.q.q.2.q.4.q.q.q.q.2.q.q.q.q.q.q.q.q.q.q.q.q.q.q.q.q.q.q.q.q.q.q.q.q.",
"q.q.q.q.q.q.q.q.q.q.q.q.q.q.q.q.q.q.q.q.q.q.q.q.q.q.q.q.q.q.q.q.q.q.q.q.q.q.q.q.q.q.q.q.q.q.q.q.",
"q.q.q.q.q.q.q.q.q.q.q.q.q.q.q.q.q.q.q.q.q.q.q.q.q.q.q.q.q.q.q.q.q.q.q.q.q.q.q.q.q.q.q.q.q.q.q.q.",
"q.q.q.q.q.q.q.q.q.q.q.q.q.q.q.q.q.q.q.q.q.q.q.q.q.q.q.q.q.q.q.q.q.q.q.q.q.q.q.q.q.q.q.q.q.q.q.q.",
"q.q.q.q.q.q.q.q.q.q.q.q.q.q.q.q.q.q.q.q.q.q.q.q.q.q.q.q.q.q.q.q.q.q.q.q.q.q.q.q.q.q.q.q.q.q.q.q.",
"q.q.q.q.q.q.q.q.q.q.q.q.q.q.q.q.q.q.q.q.q.q.q.q.q.q.q.q.q.q.q.q.q.q.q.q.q.q.q.q.q.q.q.q.q.q.q.q.",
"q.q.q.q.q.q.q.q.q.q.q.q.q.q.q.q.q.q.q.q.q.q.q.q.q.q.q.q.q.q.q.q.q.q.q.q.q.q.q.q.q.q.q.q.q.q.q.q.",
"q.q.q.q.q.q.q.q.q.q.q.q.q.q.q.q.q.q.q.q.q.q.q.q.q.q.q.q.q.q.q.q.q.q.q.q.q.q.q.q.q.q.q.q.q.q.q.q.",
"q.q.q.q.q.q.q.q.q.q.q.q.q.q.q.q.q.q.q.q.q.q.q.q.q.q.q.q.q.q.q.q.q.q.q.q.q.q.q.q.q.q.q.q.q.q.q.q."
};
