/* XPM */
static const char * icon_xpm[] = {
"28 28 226 2",
"  	c None",
". 	c #335F09",
"+ 	c #680101",
"@ 	c #346009",
"# 	c #4A880E",
"$ 	c #60B012",
"% 	c #49870D",
"& 	c #335E09",
"* 	c #750404",
"= 	c #A81010",
"- 	c #B81111",
"; 	c #7E0505",
"> 	c #45800D",
", 	c #63B512",
"' 	c #69C013",
") 	c #65B913",
"! 	c #61B212",
"~ 	c #53990F",
"{ 	c #3A6B0B",
"] 	c #6E0303",
"^ 	c #A31212",
"/ 	c #D61E1E",
"( 	c #D21A1A",
"_ 	c #C61414",
": 	c #BA0E0E",
"< 	c #940707",
"[ 	c #6C0101",
"} 	c #3F740C",
"| 	c #5FAF12",
"1 	c #6FCB15",
"2 	c #6BC414",
"3 	c #67BD13",
"4 	c #63B612",
"5 	c #5FAF11",
"6 	c #5CA811",
"7 	c #59A411",
"8 	c #457F0D",
"9 	c #950E0E",
"0 	c #DB2323",
"a 	c #E82525",
"b 	c #DC1F1F",
"c 	c #D01919",
"d 	c #C41313",
"e 	c #B80D0D",
"f 	c #AC0B0B",
"g 	c #7C0404",
"h 	c #4C8713",
"i 	c #72CF17",
"j 	c #71CF15",
"k 	c #6DC814",
"l 	c #69C114",
"m 	c #65BA13",
"n 	c #61B312",
"o 	c #5DAC11",
"p 	c #5BA711",
"q 	c #5AA611",
"r 	c #4A8B0B",
"s 	c #B81212",
"t 	c #EE2929",
"u 	c #EF2929",
"v 	c #E62424",
"w 	c #DA1E1E",
"x 	c #CE1818",
"y 	c #C31212",
"z 	c #B90D0D",
"A 	c #B40C0C",
"B 	c #7E0202",
"C 	c #5FA11F",
"D 	c #83DB2E",
"E 	c #73CC1B",
"F 	c #6CC514",
"G 	c #68BE13",
"H 	c #64B712",
"I 	c #5CA911",
"J 	c #57A10E",
"K 	c #509A08",
"L 	c #4A9107",
"M 	c #315B09",
"N 	c #BD0000",
"O 	c #D40E0E",
"P 	c #E92525",
"Q 	c #E52323",
"R 	c #D91D1D",
"S 	c #CD1717",
"T 	c #C11111",
"U 	c #B70D0D",
"V 	c #AC0707",
"W 	c #A40101",
"X 	c #850000",
"Y 	c #8AE234",
"Z 	c #89E033",
"` 	c #77CD23",
" .	c #66BB14",
"..	c #62B412",
"+.	c #5EAD11",
"@.	c #58A40F",
"#.	c #519C0A",
"$.	c #4E9A06",
"%.	c #CC0000",
"&.	c #CD0404",
"*.	c #D71717",
"=.	c #D71D1D",
"-.	c #CB1717",
";.	c #BF1010",
">.	c #B00909",
",.	c #A50202",
"'.	c #A40000",
").	c #81D72D",
"!.	c #65B517",
"~.	c #549F0B",
"{.	c #4C8E06",
"].	c #564704",
"^.	c #6B2100",
"/.	c #BD0100",
"(.	c #CB0909",
"_.	c #C01111",
":.	c #A90505",
"<.	c #76C926",
"[.	c #4E9906",
"}.	c #597704",
"|.	c #855001",
"1.	c #C15F00",
"2.	c #B15700",
"3.	c #902D00",
"4.	c #BF0800",
"5.	c #B00000",
"6.	c #558405",
"7.	c #785601",
"8.	c #BF5E00",
"9.	c #E06E00",
"0.	c #D76A00",
"a.	c #CE6500",
"b.	c #C05E00",
"c.	c #934300",
"d.	c #A51700",
"e.	c #CA0100",
"f.	c #538F1A",
"g.	c #89E134",
"h.	c #518F05",
"i.	c #695E02",
"j.	c #B35A00",
"k.	c #EC7400",
"l.	c #E97300",
"m.	c #DF6E00",
"n.	c #D66900",
"o.	c #CD6400",
"p.	c #C66100",
"q.	c #AB5400",
"r.	c #902C00",
"s.	c #BF0700",
"t.	c #A30000",
"u.	c #7C0000",
"v.	c #4B8215",
"w.	c #7DCE2E",
"x.	c #735A06",
"y.	c #E47708",
"z.	c #F57900",
"A.	c #F17700",
"B.	c #E77200",
"C.	c #DE6D00",
"D.	c #D56800",
"E.	c #CB6300",
"F.	c #BA5A00",
"G.	c #8C2E00",
"H.	c #920000",
"I.	c #710000",
"J.	c #3A680D",
"K.	c #65A922",
"L.	c #7E610B",
"M.	c #FAAB3A",
"N.	c #F28C19",
"O.	c #EF7601",
"P.	c #E67100",
"Q.	c #DD6C00",
"R.	c #D36800",
"S.	c #CA6300",
"T.	c #C35F00",
"U.	c #B95600",
"V.	c #B65100",
"W.	c #903100",
"X.	c #9A0000",
"Y.	c #790000",
"Z.	c #4C8316",
"`.	c #69B520",
" +	c #7D5F0C",
".+	c #FCAF3E",
"++	c #F39D2D",
"@+	c #DB6C00",
"#+	c #D26700",
"$+	c #C76100",
"%+	c #BB5800",
"&+	c #B55100",
"*+	c #8A3100",
"=+	c #A60000",
"-+	c #800000",
";+	c #670000",
">+	c #335E0A",
",+	c #80510D",
"'+	c #F9AA3A",
")+	c #E38419",
"!+	c #C55F00",
"~+	c #B65200",
"{+	c #7D3700",
"]+	c #8C4F0D",
"^+	c #F9AC3C",
"/+	c #BB5905",
"(+	c #7F3D00",
"_+	c #BB5805",
":+	c #834709",
"<+	c #F0A539",
"[+	c #AF4F00",
"}+	c #7A3B00",
"|+	c #804608",
"1+	c #CD872A",
"2+	c #FBAE3E",
"3+	c #B35000",
"4+	c #954500",
"5+	c #743800",
"6+	c #A46417",
"7+	c #9F4900",
"8+	c #7B3B00",
"9+	c #814608",
"0+	c #CA8428",
"a+	c #AC5305",
"b+	c #833E00",
"c+	c #713800",
"                                                        ",
"                                                        ",
"                                                        ",
"              .                           +             ",
"          @ # $ % &                   * = - ;           ",
"        > , ' ) ! ~ {             ] ^ / ( _ : < [       ",
"    } | 1 2 3 4 5 6 7 8         9 0 a b c d : e f g     ",
"  h i j k l m n o p p q r     s t u v w x y z e e A B   ",
"  C D E F G H $ I p J K L M   N O P Q R S T e U V W X   ",
"  C Y Z `  ...+.@.#.$.$.L M   N %.&.*.=.-.;.>.,.'.'.X   ",
"  C Y Y Y ).!.~.$.$.$.$.{.].^./.%.%.%.(._.:.'.'.'.'.X   ",
"  C Y Y Y Y <.$.$.$.[.}.|.1.2.3.4.%.%.%.5.'.'.'.'.'.X   ",
"  C Y Y Y Y <.$.$.6.7.8.9.0.a.b.c.d.e.%.5.'.'.'.'.'.X   ",
"  f.g.Y Y Y <.h.i.j.k.l.m.n.o.p.p.q.r.s.5.'.'.'.'.t.u.  ",
"    v.w.Y Y <.x.y.z.A.B.C.D.E.p.p.p.F.G.5.'.'.'.H.I.    ",
"      J.K.Z <.L.M.N.O.P.Q.R.S.p.T.U.V.W.5.'.X.Y.        ",
"          Z.`. +.+.+++y.@+#+$+%+&+V.V.*+=+-+;+          ",
"            >+,+.+.+.+'+)+!+~+V.V.V.V.{+;+              ",
"              ]+.+.+.+.+^+/+V.V.V.V.V.(+                ",
"              ]+.+.+.+.+^+_+V.V.V.V.V.(+                ",
"              :+<+.+.+.+^+_+V.V.V.V.[+}+                ",
"                |+1+2+.+^+_+V.V.3+4+5+                  ",
"                    6+<+^+/+&+7+8+                      ",
"                      9+0+a+b+                          ",
"                          c+                            ",
"                                                        ",
"                                                        ",
"                                                        "};
