<?xml version="1.0" encoding="UTF-8" standalone="no"?>
<svg
   sodipodi:docname="Selection_Cursor.svg"
   inkscape:version="1.4.2 (f4327f4, 2025-05-13)"
   id="svg1138"
   version="1.1"
   viewBox="0 0 8.4666667 8.4666669"
   height="32"
   width="32"
   xml:space="preserve"
   xmlns:inkscape="http://www.inkscape.org/namespaces/inkscape"
   xmlns:sodipodi="http://sodipodi.sourceforge.net/DTD/sodipodi-0.dtd"
   xmlns="http://www.w3.org/2000/svg"
   xmlns:svg="http://www.w3.org/2000/svg"
   xmlns:rdf="http://www.w3.org/1999/02/22-rdf-syntax-ns#"
   xmlns:cc="http://creativecommons.org/ns#"
   xmlns:dc="http://purl.org/dc/elements/1.1/"><defs
     id="defs1132"><linearGradient
       id="linearGradient5112"><stop
         id="stop5114"
         offset="0"
         style="stop-color:#00adff;stop-opacity:1;" /><stop
         id="stop5116"
         offset="1"
         style="stop-color:#bfebff;stop-opacity:1;" /></linearGradient><linearGradient
       id="linearGradient5120"><stop
         id="stop5122"
         offset="0"
         style="stop-color:#00a6f4;stop-opacity:1;" /><stop
         id="stop5124"
         offset="1"
         style="stop-color:#00618e;stop-opacity:1;" /></linearGradient><linearGradient
       id="linearGradient4826"><stop
         id="stop4828"
         offset="0"
         style="stop-color:#f0a0a0;stop-opacity:1;" /><stop
         id="stop4830"
         offset="1"
         style="stop-color:#c86464;stop-opacity:0;" /></linearGradient></defs><sodipodi:namedview
     inkscape:snap-grids="false"
     inkscape:window-maximized="0"
     inkscape:window-y="0"
     inkscape:window-x="1273"
     inkscape:window-height="1368"
     inkscape:window-width="1278"
     inkscape:showpageshadow="false"
     units="px"
     showgrid="true"
     inkscape:document-rotation="0"
     inkscape:current-layer="layer1"
     inkscape:document-units="px"
     inkscape:cy="6.4337173"
     inkscape:cx="17.878962"
     inkscape:zoom="14.765958"
     inkscape:pageshadow="2"
     inkscape:pageopacity="1"
     borderopacity="1.0"
     bordercolor="#666666"
     pagecolor="#2d2d30"
     id="base"
     inkscape:pagecheckerboard="1"
     inkscape:deskcolor="#d1d1d1"><inkscape:grid
       empopacity="0.25098039"
       empcolor="#9f9f9f"
       opacity="0.1254902"
       color="#9f9f9f"
       empspacing="4"
       snapvisiblegridlinesonly="true"
       dotted="false"
       id="grid1701"
       type="xygrid"
       originx="0"
       originy="0"
       spacingy="1"
       spacingx="1"
       units="px"
       visible="true" /></sodipodi:namedview><metadata
     id="metadata1135"><rdf:RDF><cc:Work
         rdf:about=""><dc:format>image/svg+xml</dc:format><dc:type
           rdf:resource="http://purl.org/dc/dcmitype/StillImage" /></cc:Work></rdf:RDF></metadata><g
     id="layer1"
     inkscape:groupmode="layer"
     inkscape:label="Cursor"><path
       d="m 3.5014977,1.4423004 0.3124481,0.893787 c 0.010037,0.028711 0.017183,0.058336 0.021257,0.088292 l 0.1847511,1.356349 C 4.0445019,3.9609215 3.9561259,4.1252373 3.8065397,4.1775293 L 2.1303297,4.763495 A 0.39455004,0.34151098 70.73151 0 1 1.8160168,4.7012632 L 0.21170551,3.4232396 C 0.04885089,3.293506 -7.3918839e-4,3.0494629 0.10094186,2.8781664 0.20263558,2.7068545 0.4171001,2.6731656 0.57995409,2.8028984 L 0.97663285,3.1189062 0.07837056,0.54934255 C 0.00647185,0.34366952 0.09249896,0.12648191 0.2705319,0.06424556 0.44856513,0.0020091 0.65116851,0.11829792 0.72306722,0.32397095 L 1.3740003,2.1860261 1.4384658,2.1634904 1.3082794,1.79108 C 1.2363806,1.5854067 1.322408,1.3682193 1.500441,1.3059829 1.6784734,1.2437468 1.8810766,1.3600354 1.9529754,1.5657087 L 2.0831617,1.9381191 2.1476348,1.9155807 2.069523,1.6921345 C 1.9976242,1.4864612 2.0836509,1.2692741 2.261684,1.2070377 2.4397171,1.1448013 2.6423203,1.2610898 2.7142191,1.4667631 l 0.078112,0.2234462 0.064466,-0.022536 C 2.7848979,1.4620011 2.870925,1.244814 3.0489584,1.1825774 3.2269912,1.1203411 3.4295931,1.2366301 3.5014926,1.4423022 Z m -1.8026543,1.4660117 -0.064465,0.022536 0.312448,0.8937871 0.064466,-0.022536 z m 0.7091661,-0.2479087 -0.064466,0.022536 0.3124481,0.8937871 0.064465,-0.022536 z m 0.7091662,-0.2479087 -0.064473,0.022538 0.3124481,0.8937872 0.064473,-0.022538 z"
       id="path1-6"
       style="display:inline;fill:#ffffff;stroke:#000000;stroke-width:0.0947848;stroke-dasharray:none;stroke-opacity:1" /></g></svg>
