<?xml version="1.0" encoding="UTF-8" standalone="no"?>
<svg
   xmlns:dc="http://purl.org/dc/elements/1.1/"
   xmlns:cc="http://creativecommons.org/ns#"
   xmlns:rdf="http://www.w3.org/1999/02/22-rdf-syntax-ns#"
   xmlns:svg="http://www.w3.org/2000/svg"
   xmlns="http://www.w3.org/2000/svg"
   xmlns:sodipodi="http://sodipodi.sourceforge.net/DTD/sodipodi-0.dtd"
   xmlns:inkscape="http://www.inkscape.org/namespaces/inkscape"
   width="2304"
   height="1792"
   viewBox="0 0 2304 1792"
   id="svg2"
   version="1.1"
   inkscape:version="0.91 r13725"
   sodipodi:docname="view-manager.svg">
  <metadata
     id="metadata10">
    <rdf:RDF>
      <cc:Work
         rdf:about="">
        <dc:format>image/svg+xml</dc:format>
        <dc:type
           rdf:resource="http://purl.org/dc/dcmitype/StillImage" />
      </cc:Work>
    </rdf:RDF>
  </metadata>
  <defs
     id="defs8" />
  <sodipodi:namedview
     pagecolor="#ffffff"
     bordercolor="#666666"
     borderopacity="1"
     objecttolerance="10"
     gridtolerance="10"
     guidetolerance="10"
     inkscape:pageopacity="0"
     inkscape:pageshadow="2"
     inkscape:window-width="690"
     inkscape:window-height="480"
     id="namedview6"
     showgrid="false"
     inkscape:zoom="0.125"
     inkscape:cx="1152"
     inkscape:cy="896"
     inkscape:window-x="0"
     inkscape:window-y="0"
     inkscape:window-maximized="0"
     inkscape:current-layer="svg2" />
  <path
     d="M640 1632l384-192v-314l-384 164v342zm-64-454l404-173-404-173-404 173zm1088 454l384-192v-314l-384 164v342zm-64-454l404-173-404-173-404 173zm-448-293l384-165v-266l-384 164v267zm-64-379l441-189-441-189-441 189zm1088 518v416q0 36-19 67t-52 47l-448 224q-25 14-57 14t-57-14l-448-224q-4-2-7-4-2 2-7 4l-448 224q-25 14-57 14t-57-14l-448-224q-33-16-52-47t-19-67v-416q0-38 21.5-70t56.5-48l434-186v-400q0-38 21.5-70t56.5-48l448-192q23-10 50-10t50 10l448 192q35 16 56.5 48t21.5 70v400l434 186q36 16 57 48t21 70z"
     id="path4"
     style="fill:#00ff00;fill-opacity:1" />
</svg>
