/* XPM */
static const char * btnCube_xpm[] = {
"48 48 157 2",
"  	c None",
". 	c #2E3436",
"+ 	c #2E3335",
"@ 	c #2D3435",
"# 	c #2D3333",
"$ 	c #2F3233",
"% 	c #2F3334",
"& 	c #2F3234",
"* 	c #2E3234",
"= 	c #2E3334",
"- 	c #2C444C",
"; 	c #197288",
"> 	c #177086",
", 	c #177085",
"' 	c #17738A",
") 	c #186F84",
"! 	c #284249",
"~ 	c #302E2F",
"{ 	c #2E3435",
"] 	c #2E3132",
"^ 	c #3B5A66",
"/ 	c #26BDE9",
"( 	c #00B6E2",
"_ 	c #00B5E1",
": 	c #00B6E3",
"< 	c #00BDEC",
"[ 	c #137A93",
"} 	c #303032",
"| 	c #2F3031",
"1 	c #2C3132",
"2 	c #425864",
"3 	c #5BB9DF",
"4 	c #0AABD3",
"5 	c #00A9D2",
"6 	c #00A8D1",
"7 	c #00AEDA",
"8 	c #01ADD6",
"9 	c #205765",
"0 	c #302C2B",
"a 	c #2C3131",
"b 	c #3F5863",
"c 	c #6DBDE3",
"d 	c #40B1D8",
"e 	c #01A8D1",
"f 	c #00AAD3",
"g 	c #00A9D1",
"h 	c #0A92B3",
"i 	c #2B3C41",
"j 	c #302E2E",
"k 	c #3E5863",
"l 	c #6CBDE3",
"m 	c #65B8DD",
"n 	c #1FABD2",
"o 	c #00AAD4",
"p 	c #00AAD5",
"q 	c #00B7E5",
"r 	c #176D83",
"s 	c #2F2E2F",
"t 	c #2E3233",
"u 	c #69BDE3",
"v 	c #6EBBDF",
"w 	c #53B4D8",
"x 	c #06A7D1",
"y 	c #00A4D0",
"z 	c #00A5D0",
"A 	c #00A4CF",
"B 	c #00ACD9",
"C 	c #009EC9",
"D 	c #1C4B57",
"E 	c #2F3032",
"F 	c #68BDE2",
"G 	c #69BBDF",
"H 	c #66B6DA",
"I 	c #55B4D1",
"J 	c #56BDD2",
"K 	c #58BED5",
"L 	c #58BDD5",
"M 	c #58BCD3",
"N 	c #5CCEE8",
"O 	c #427C89",
"P 	c #2E3235",
"Q 	c #66BADF",
"R 	c #61B3D8",
"S 	c #8FC2D5",
"T 	c #CCE3E3",
"U 	c #C9E4E7",
"V 	c #C7E2E6",
"W 	c #C6E1E4",
"X 	c #D5F4F8",
"Y 	c #7A8E91",
"Z 	c #2D3336",
"` 	c #2C3234",
" .	c #60B3D8",
"..	c #8BC3D7",
"+.	c #C9E5E7",
"@.	c #C6E5EA",
"#.	c #C3E4E9",
"$.	c #C2E3E8",
"%.	c #D2F5FB",
"&.	c #798C8F",
"*.	c #2D3335",
"=.	c #89C2D6",
"-.	c #C5E3E5",
";.	c #C1E3E8",
">.	c #BFE2E7",
",.	c #BEE1E6",
"'.	c #CDF3F9",
").	c #778B8F",
"!.	c #3F5965",
"~.	c #69BEE4",
"{.	c #2C3032",
"].	c #3D5762",
"^.	c #6AC0E7",
"/.	c #67BBE0",
"(.	c #2C3133",
"_.	c #323F43",
":.	c #5B9DBA",
"<.	c #6BC5ED",
"[.	c #60B2D7",
"}.	c #2B2D2D",
"|.	c #3C5662",
"1.	c #66BCE2",
"2.	c #62B9DF",
"3.	c #89C1D5",
"4.	c #2C3031",
"5.	c #4B7C92",
"6.	c #66C2EB",
"7.	c #8AC3D7",
"8.	c #C4E3E5",
"9.	c #2B2E2D",
"0.	c #323F44",
"a.	c #569BBB",
"b.	c #8FCFE7",
"c.	c #C3E1E3",
"d.	c #C0E2E7",
"e.	c #BDE0E5",
"f.	c #CCF2F8",
"g.	c #292B2C",
"h.	c #385562",
"i.	c #8FCADE",
"j.	c #D6FBFF",
"k.	c #D0F4FA",
"l.	c #CEF3F9",
"m.	c #CCF2F7",
"n.	c #DCFFFF",
"o.	c #7E9397",
"p.	c #2C3235",
"q.	c #51656D",
"r.	c #778C8F",
"s.	c #738689",
"t.	c #718588",
"u.	c #788D90",
"v.	c #505C5F",
"w.	c #2C3033",
"x.	c #2C3233",
"y.	c #2C3134",
"z.	c #2C3335",
". . . + + + + + + + + + + + + + + + + + + + + + + + + + + + + + + + + + + + + + + . . . . . . . ",
". . @ # $ $ $ $ $ $ $ $ $ $ $ $ $ $ $ $ $ $ $ $ $ $ $ $ $ $ $ $ $ $ $ $ $ $ $ % & * . . . . . . ",
". = - ; > , , , , , , , , , , , , , , , , , , , , , , , , , , , , , , , , , , ' ) ! ~ . . . . . ",
"{ ] ^ / ( _ _ _ _ _ _ _ _ _ _ _ _ _ _ _ _ _ _ _ _ _ _ _ _ _ _ _ _ _ _ _ _ _ _ : < [ } | . . . . ",
"{ 1 2 3 4 5 5 5 5 5 5 5 5 5 5 5 5 5 5 5 5 5 5 5 5 5 5 5 5 5 5 5 5 5 5 5 5 5 5 6 7 8 9 0 + . . . ",
"{ a b c d e f f f f f f f f f f f f f f f f f f f f f f f f f f f f f f f f f f g : h i j . . . ",
"{ a k l m n 5 o f f f f f f f f f f f f f f f f f f f f f f f f f f f f f f f f f p q r s t . . ",
"{ a k u v w x y z z z z z z z z z z z z z z z z z z z z z z z z z z z z z z z z z A B C D E . . ",
"{ a k F G H I J K L L L L L L L L L L L L L L L L L L L L L L L L L L L L L L L L K M N O P * . ",
"{ a k F Q R S T U V V V V V V V V V V V V V V V V V V V V V V V V V V V V V V V V V W X Y Z ` . ",
"{ a k F Q  ...+.@.#.#.#.#.#.#.#.#.#.#.#.#.#.#.#.#.#.#.#.#.#.#.#.#.#.#.#.#.#.#.#.#.#.$.%.&.*.` . ",
"{ a k F Q  .=.-.;.>.>.>.>.>.>.>.>.>.>.>.>.>.>.>.>.>.>.>.>.>.>.>.>.>.>.>.>.>.>.>.>.>.,.'.).*.` . ",
"{ a k F Q  .=.-.;.>.>.>.>.>.>.>.>.>.>.>.>.>.>.>.>.>.>.>.>.>.>.>.>.>.>.>.>.>.>.>.>.>.,.'.).*.` . ",
"{ a k F Q  .=.-.;.>.>.>.>.>.>.>.>.>.>.>.>.>.>.>.>.>.>.>.>.>.>.>.>.>.>.>.>.>.>.>.>.>.,.'.).*.` . ",
"{ a k F Q  .=.-.;.>.>.>.>.>.>.>.>.>.>.>.>.>.>.>.>.>.>.>.>.>.>.>.>.>.>.>.>.>.>.>.>.>.,.'.).*.` . ",
"{ a k F Q  .=.-.;.>.>.>.>.>.>.>.>.>.>.>.>.>.>.>.>.>.>.>.>.>.>.>.>.>.>.>.>.>.>.>.>.>.,.'.).*.` . ",
"{ a k F Q  .=.-.;.>.>.>.>.>.>.>.>.>.>.>.>.>.>.>.>.>.>.>.>.>.>.>.>.>.>.>.>.>.>.>.>.>.,.'.).*.` . ",
"{ a k F Q  .=.-.;.>.>.>.>.>.>.>.>.>.>.>.>.>.>.>.>.>.>.>.>.>.>.>.>.>.>.>.>.>.>.>.>.>.,.'.).*.` . ",
"{ a k F Q  .=.-.;.>.>.>.>.>.>.>.>.>.>.>.>.>.>.>.>.>.>.>.>.>.>.>.>.>.>.>.>.>.>.>.>.>.,.'.).*.` . ",
"{ a k F Q  .=.-.;.>.>.>.>.>.>.>.>.>.>.>.>.>.>.>.>.>.>.>.>.>.>.>.>.>.>.>.>.>.>.>.>.>.,.'.).*.` . ",
"{ a k F Q  .=.-.;.>.>.>.>.>.>.>.>.>.>.>.>.>.>.>.>.>.>.>.>.>.>.>.>.>.>.>.>.>.>.>.>.>.,.'.).*.` . ",
"{ a k F Q  .=.-.;.>.>.>.>.>.>.>.>.>.>.>.>.>.>.>.>.>.>.>.>.>.>.>.>.>.>.>.>.>.>.>.>.>.,.'.).*.` . ",
"{ a k F Q  .=.-.;.>.>.>.>.>.>.>.>.>.>.>.>.>.>.>.>.>.>.>.>.>.>.>.>.>.>.>.>.>.>.>.>.>.,.'.).*.` . ",
"{ a k F Q  .=.-.;.>.>.>.>.>.>.>.>.>.>.>.>.>.>.>.>.>.>.>.>.>.>.>.>.>.>.>.>.>.>.>.>.>.,.'.).*.` . ",
"{ a k F Q  .=.-.;.>.>.>.>.>.>.>.>.>.>.>.>.>.>.>.>.>.>.>.>.>.>.>.>.>.>.>.>.>.>.>.>.>.,.'.).*.` . ",
"{ a k F Q  .=.-.;.>.>.>.>.>.>.>.>.>.>.>.>.>.>.>.>.>.>.>.>.>.>.>.>.>.>.>.>.>.>.>.>.>.,.'.).*.` . ",
"{ a k F Q  .=.-.;.>.>.>.>.>.>.>.>.>.>.>.>.>.>.>.>.>.>.>.>.>.>.>.>.>.>.>.>.>.>.>.>.>.,.'.).*.` . ",
"{ a k F Q  .=.-.;.>.>.>.>.>.>.>.>.>.>.>.>.>.>.>.>.>.>.>.>.>.>.>.>.>.>.>.>.>.>.>.>.>.,.'.).*.` . ",
"{ a k F Q  .=.-.;.>.>.>.>.>.>.>.>.>.>.>.>.>.>.>.>.>.>.>.>.>.>.>.>.>.>.>.>.>.>.>.>.>.,.'.).*.` . ",
"{ a k F Q  .=.-.;.>.>.>.>.>.>.>.>.>.>.>.>.>.>.>.>.>.>.>.>.>.>.>.>.>.>.>.>.>.>.>.>.>.,.'.).*.` . ",
"{ a k F Q  .=.-.;.>.>.>.>.>.>.>.>.>.>.>.>.>.>.>.>.>.>.>.>.>.>.>.>.>.>.>.>.>.>.>.>.>.,.'.).*.` . ",
"{ a k F Q  .=.-.;.>.>.>.>.>.>.>.>.>.>.>.>.>.>.>.>.>.>.>.>.>.>.>.>.>.>.>.>.>.>.>.>.>.,.'.).*.` . ",
"{ a k F Q  .=.-.;.>.>.>.>.>.>.>.>.>.>.>.>.>.>.>.>.>.>.>.>.>.>.>.>.>.>.>.>.>.>.>.>.>.,.'.).*.` . ",
"{ a k F Q  .=.-.;.>.>.>.>.>.>.>.>.>.>.>.>.>.>.>.>.>.>.>.>.>.>.>.>.>.>.>.>.>.>.>.>.>.,.'.).*.` . ",
"{ a k F Q  .=.-.;.>.>.>.>.>.>.>.>.>.>.>.>.>.>.>.>.>.>.>.>.>.>.>.>.>.>.>.>.>.>.>.>.>.,.'.).*.` . ",
"{ a k F Q  .=.-.;.>.>.>.>.>.>.>.>.>.>.>.>.>.>.>.>.>.>.>.>.>.>.>.>.>.>.>.>.>.>.>.>.>.,.'.).*.` . ",
"{ a k F Q  .=.-.;.>.>.>.>.>.>.>.>.>.>.>.>.>.>.>.>.>.>.>.>.>.>.>.>.>.>.>.>.>.>.>.>.>.,.'.).*.` . ",
"{ a !.~.Q  .=.-.;.>.>.>.>.>.>.>.>.>.>.>.>.>.>.>.>.>.>.>.>.>.>.>.>.>.>.>.>.>.>.>.>.>.,.'.).*.` . ",
"{ {.].^./. .=.-.;.>.>.>.>.>.>.>.>.>.>.>.>.>.>.>.>.>.>.>.>.>.>.>.>.>.>.>.>.>.>.>.>.>.,.'.).*.` . ",
". (._.:.<.[.=.-.;.>.>.>.>.>.>.>.>.>.>.>.>.>.>.>.>.>.>.>.>.>.>.>.>.>.>.>.>.>.>.>.>.>.,.'.).*.` . ",
". + }.|.1.2.3.-.;.>.>.>.>.>.>.>.>.>.>.>.>.>.>.>.>.>.>.>.>.>.>.>.>.>.>.>.>.>.>.>.>.>.,.'.).*.` . ",
". . 1 4.5.6.7.8.;.>.>.>.>.>.>.>.>.>.>.>.>.>.>.>.>.>.>.>.>.>.>.>.>.>.>.>.>.>.>.>.>.>.,.'.).*.` . ",
". . . 9.0.a.b.c.d.,.,.,.,.,.,.,.,.,.,.,.,.,.,.,.,.,.,.,.,.,.,.,.,.,.,.,.,.,.,.,.,.,.e.f.).*.` . ",
". . . = g.h.i.j.k.l.l.l.l.l.l.l.l.l.l.l.l.l.l.l.l.l.l.l.l.l.l.l.l.l.l.l.l.l.l.l.l.l.m.n.o.*.` . ",
". . . . {.p.q.r.s.t.t.t.t.t.t.t.t.t.t.t.t.t.t.t.t.t.t.t.t.t.t.t.t.t.t.t.t.t.t.t.t.t.t.u.v.*.*.. ",
". . . . . *.w.` x.(.(.(.(.(.(.(.(.(.(.(.(.(.(.(.(.(.(.(.(.(.(.(.(.(.(.(.(.(.(.(.(.(.y.` z.. . . ",
". . . . . . *.` ` ` ` ` ` ` ` ` ` ` ` ` ` ` ` ` ` ` ` ` ` ` ` ` ` ` ` ` ` ` ` ` ` ` ` ` *.. . . ",
". . . . . . . . . . . . . . . . . . . . . . . . . . . . . . . . . . . . . . . . . . . . . . . . "};
