/* XPM */
static const char * btnCylinder_xpm[] = {
"48 48 412 2",
"  	c None",
". 	c #2E3436",
"+ 	c #2E3435",
"@ 	c #2E3335",
"# 	c #2E3437",
"$ 	c #2E3537",
"% 	c #2F3334",
"& 	c #2E3234",
"* 	c #2F3233",
"= 	c #2F3234",
"- 	c #2D3539",
"; 	c #2D383B",
"> 	c #2B3C40",
", 	c #293F46",
"' 	c #27444C",
") 	c #254951",
"! 	c #244C57",
"~ 	c #234F5B",
"{ 	c #22525F",
"] 	c #215460",
"^ 	c #215562",
"/ 	c #205663",
"( 	c #22535F",
"_ 	c #22505C",
": 	c #244D58",
"< 	c #254A53",
"[ 	c #27454D",
"} 	c #294148",
"| 	c #2B3C41",
"1 	c #2D3538",
"2 	c #2E3334",
"3 	c #2E3233",
"4 	c #2F3032",
"5 	c #2A3F44",
"6 	c #244E59",
"7 	c #1F5C6B",
"8 	c #19697D",
"9 	c #15768D",
"0 	c #11819C",
"a 	c #0C8AA8",
"b 	c #0993B4",
"c 	c #069BBF",
"d 	c #03A2C9",
"e 	c #01A8CF",
"f 	c #00A9D2",
"g 	c #00AAD4",
"h 	c #00ADD6",
"i 	c #00AED8",
"j 	c #00AED9",
"k 	c #00AFDA",
"l 	c #00AFD9",
"m 	c #00ADD7",
"n 	c #00ACD5",
"o 	c #00A9D3",
"p 	c #00A8D0",
"q 	c #03A4CB",
"r 	c #069CC1",
"s 	c #0994B6",
"t 	c #0C8CAA",
"u 	c #10839E",
"v 	c #147891",
"w 	c #186C80",
"x 	c #1E5E6E",
"y 	c #23505C",
"z 	c #2E3638",
"A 	c #2F3031",
"B 	c #2D3437",
"C 	c #186E84",
"D 	c #0D89A8",
"E 	c #059FC5",
"F 	c #00ADD8",
"G 	c #00B2DF",
"H 	c #00B4E0",
"I 	c #00B4E1",
"J 	c #00B3E0",
"K 	c #00B3DD",
"L 	c #00B0DD",
"M 	c #00ACD6",
"N 	c #00ABD5",
"O 	c #00ABD4",
"P 	c #00ACD8",
"Q 	c #00B1DC",
"R 	c #00B2DE",
"S 	c #00B3DF",
"T 	c #03A3CA",
"U 	c #0C8EAD",
"V 	c #16758B",
"W 	c #2E3739",
"X 	c #1F5D6D",
"Y 	c #00B7E3",
"Z 	c #00AAD3",
"` 	c #00AAD2",
" .	c #00B6E2",
"..	c #196C81",
"+.	c #177289",
"@.	c #01B9E6",
"#.	c #08ABD3",
"$.	c #06ABD3",
"%.	c #04ABD3",
"&.	c #02A9D3",
"*.	c #03AAD3",
"=.	c #08ABD2",
"-.	c #03B8E4",
";.	c #1087A4",
">.	c #2D3536",
",.	c #196D82",
"'.	c #04B6E1",
").	c #13AFD5",
"!.	c #1BB1D6",
"~.	c #1CB3D6",
"{.	c #19B1D6",
"].	c #14B0D5",
"^.	c #10AED4",
"/.	c #0DADD5",
"(.	c #0CADD4",
"_.	c #0AABD3",
":.	c #07AAD3",
"<.	c #01A9D3",
"[.	c #00A8D3",
"}.	c #00A8D2",
"|.	c #00A7D2",
"1.	c #02AAD2",
"2.	c #06AAD3",
"3.	c #09ABD3",
"4.	c #0CACD3",
"5.	c #0DADD4",
"6.	c #0FADD5",
"7.	c #16B1D5",
"8.	c #1CB2D6",
"9.	c #1EB3D6",
"0.	c #09B7E0",
"a.	c #12829D",
"b.	c #12AFD5",
"c.	c #27B6D7",
"d.	c #31B9D8",
"e.	c #39BBD8",
"f.	c #3FBDD9",
"g.	c #43BEDA",
"h.	c #43BDDA",
"i.	c #42BEDA",
"j.	c #3FBCDB",
"k.	c #39BBD9",
"l.	c #35BAD8",
"m.	c #33B9D9",
"n.	c #32B8D8",
"o.	c #30B8D8",
"p.	c #2EB7D8",
"q.	c #2FB8D8",
"r.	c #30B9D8",
"s.	c #32B9D8",
"t.	c #33B9D8",
"u.	c #35B9D8",
"v.	c #38BBD9",
"w.	c #3ABCD9",
"x.	c #40BDDA",
"y.	c #46BEDB",
"z.	c #47BEDA",
"A.	c #48BFDA",
"B.	c #45BEDA",
"C.	c #42BDDA",
"D.	c #3BBBDA",
"E.	c #29B6D7",
"F.	c #08B7E0",
"G.	c #12819C",
"H.	c #1BB2D6",
"I.	c #23B5D7",
"J.	c #2CB7D8",
"K.	c #40BDD9",
"L.	c #4BC0DA",
"M.	c #56C3DC",
"N.	c #61C7DE",
"O.	c #6DCADF",
"P.	c #76CCDF",
"Q.	c #7ECFE0",
"R.	c #86D1E1",
"S.	c #8ED4E2",
"T.	c #96D6E3",
"U.	c #9CD8E3",
"V.	c #A3DAE4",
"W.	c #ABDCE5",
"X.	c #B2DEE6",
"Y.	c #BDE1E7",
"Z.	c #BBE1E7",
"`.	c #B3DFE6",
" +	c #ABDDE6",
".+	c #A4DAE4",
"++	c #9ED8E4",
"@+	c #8FD4E2",
"#+	c #87D1E1",
"$+	c #80CFE0",
"%+	c #76CDDF",
"&+	c #62C6DE",
"*+	c #57C4DB",
"=+	c #41BDD9",
"-+	c #37BAD9",
";+	c #2EB8D8",
">+	c #26B5D7",
",+	c #07B7E0",
"'+	c #137F9A",
")+	c #2D3436",
"!+	c #3EBCD9",
"~+	c #47BFDA",
"{+	c #50C1DB",
"]+	c #58C4DD",
"^+	c #6BC9DE",
"/+	c #74CCDF",
"(+	c #7ECEE0",
"_+	c #87D2E1",
":+	c #92D5E2",
"<+	c #9BD7E3",
"[+	c #A5DAE4",
"}+	c #AFDDE6",
"|+	c #B7E0E7",
"1+	c #C3E3E8",
"2+	c #C2E3E8",
"3+	c #AEDDE6",
"4+	c #9AD7E3",
"5+	c #90D5E2",
"6+	c #7DCEE0",
"7+	c #6ACADE",
"8+	c #59C4DD",
"9+	c #51C2DB",
"0+	c #36BAD9",
"a+	c #62C7DE",
"b+	c #7CCEE0",
"c+	c #85D1E1",
"d+	c #8FD3E2",
"e+	c #97D6E3",
"f+	c #A0D9E4",
"g+	c #A8DCE5",
"h+	c #B0DEE6",
"i+	c #BAE1E7",
"j+	c #A7DCE5",
"k+	c #8ED3E2",
"l+	c #6BCADE",
"m+	c #5AC4DD",
"n+	c #A9DCE5",
"o+	c #B1DEE6",
"p+	c #BCE1E7",
"q+	c #14B0D4",
"r+	c #07B7E1",
"s+	c #137E98",
"t+	c #1A6D81",
"u+	c #07B7E2",
"v+	c #137D97",
"w+	c #2E3333",
"x+	c #1A6B7F",
"y+	c #147C95",
"z+	c #147B94",
"A+	c #157992",
"B+	c #1B697D",
"C+	c #05B6E0",
"D+	c #1B687C",
"E+	c #05B6E1",
"F+	c #07B8E2",
"G+	c #16778E",
"H+	c #16768D",
"I+	c #07B8E1",
"J+	c #17758B",
"K+	c #1B677B",
"L+	c #1C6679",
"M+	c #187389",
"N+	c #187288",
"O+	c #04B7E2",
"P+	c #12AED4",
"Q+	c #07B6E1",
"R+	c #197086",
"S+	c #1C6577",
"T+	c #02BEEB",
"U+	c #0FBAE4",
"V+	c #1AB7DC",
"W+	c #23B5D8",
"X+	c #2CB6D7",
"Y+	c #35B9D7",
"Z+	c #3EBBD8",
"`+	c #36B9D8",
" @	c #2EB7D7",
".@	c #26B4D6",
"+@	c #1CB4D7",
"@@	c #13B5DC",
"#@	c #04C3F2",
"$@	c #18768C",
"%@	c #2A3C41",
"&@	c #1F6272",
"*@	c #1A8CA7",
"=@	c #1AAFD2",
"-@	c #22BEE2",
";@	c #2CC4E7",
">@	c #35C5E6",
",@	c #3FC4E2",
"'@	c #48C2DF",
")@	c #50C3DD",
"!@	c #62C6DD",
"~@	c #6BC8DD",
"{@	c #74CBDE",
"]@	c #7CCDDF",
"^@	c #85D0E0",
"/@	c #8FD2E1",
"(@	c #97D5E3",
"_@	c #8ED2E2",
":@	c #6BC9DD",
"<@	c #5AC3DB",
"[@	c #51C2DC",
"}@	c #48C1DC",
"|@	c #3FC2DF",
"1@	c #36C3E3",
"2@	c #2EC4E6",
"3@	c #25C1E6",
"4@	c #1CB9DF",
"5@	c #16A8CC",
"6@	c #1586A1",
"7@	c #264D57",
"8@	c #2E3539",
"9@	c #2B464D",
"0@	c #2B5E6A",
"a@	c #2D788A",
"b@	c #3391A7",
"c@	c #3CA8C1",
"d@	c #47BDD8",
"e@	c #52C8E4",
"f@	c #5CCFEA",
"g@	c #67D4EB",
"h@	c #70D6EC",
"i@	c #79D8ED",
"j@	c #81DAEC",
"k@	c #8ADBEB",
"l@	c #94DDEB",
"m@	c #9CDEEA",
"n@	c #A5DFEA",
"o@	c #ADE1EA",
"p@	c #B4E3EB",
"q@	c #BFE5EB",
"r@	c #BEE4EA",
"s@	c #B4E2EA",
"t@	c #ABE1EA",
"u@	c #A4DEE9",
"v@	c #9BDDE9",
"w@	c #93DBEA",
"x@	c #8ADAEB",
"y@	c #81D8EB",
"z@	c #79D8EC",
"A@	c #67D3EC",
"B@	c #5ED0EB",
"C@	c #53CCE7",
"D@	c #48C4E1",
"E@	c #3FB7D3",
"F@	c #35A2BB",
"G@	c #2D8AA0",
"H@	c #2A7282",
"I@	c #295864",
"J@	c #2A4249",
"K@	c #2E3536",
"L@	c #2E3032",
"M@	c #2E3031",
"N@	c #2E3B3E",
"O@	c #324A50",
"P@	c #375A62",
"Q@	c #3D6973",
"R@	c #467884",
"S@	c #4F8793",
"T@	c #5A94A2",
"U@	c #65A1AE",
"V@	c #71ACB8",
"W@	c #7DB5C2",
"X@	c #89C0CB",
"Y@	c #96C9D3",
"Z@	c #A1D0D8",
"`@	c #ABD5DE",
" #	c #B8DBE1",
".#	c #B7DCE2",
"+#	c #ADD8DF",
"@#	c #A1D2DC",
"##	c #96CDD7",
"$#	c #8BC5D0",
"%#	c #7FBBC8",
"&#	c #74B1BE",
"*#	c #69A7B5",
"=#	c #5E9DAB",
"-#	c #548F9D",
";#	c #498290",
">#	c #417380",
",#	c #3A646F",
"'#	c #33565E",
")#	c #30464B",
"!#	c #2F393C",
"~#	c #2F3131",
"{#	c #2E3133",
"]#	c #2D3133",
"^#	c #2D3233",
"/#	c #2D3234",
"(#	c #2F3537",
"_#	c #2F3738",
":#	c #2F383A",
"<#	c #31393C",
"[#	c #353D40",
"}#	c #384143",
"|#	c #3A4547",
"1#	c #3D474A",
"2#	c #404A4C",
"3#	c #404A4D",
"4#	c #3E494C",
"5#	c #3B474A",
"6#	c #394346",
"7#	c #363F42",
"8#	c #323C3E",
"9#	c #31383C",
"0#	c #30373A",
"a#	c #2F3638",
"b#	c #2D3335",
"c#	c #2D3333",
"d#	c #2D3134",
"e#	c #2D3232",
". . . . . . . . . + @ @ @ @ @ @ . . . . . # # $ $ # # . . . . . + @ @ @ @ @ @ . . . . . . . . . ",
". . . . @ % & * = & % . - ; > , ' ) ! ~ { ] ^ / / ^ ] ( _ : < [ } | ; 1 . 2 2 & * 3 % 2 @ . . . ",
". . @ 4 4 . 5 6 7 8 9 0 a b c d e f g h i j j k k l j i m n o p q r s t u v w x y } z 4 A % . . ",
". + B ! C D E F G H I J K L k i M n N N O O O O O O O O O N n M P l Q R J I H S l T U V ( W + . ",
". * X k Y J k N Z ` ` ` ` ` Z Z Z Z Z Z Z Z Z Z Z Z Z Z Z Z Z Z Z Z Z ` ` ` ` Z O j G  .I ..@ + ",
"@ 2 +.@.#.$.%.&.o o o o o o o o Z Z Z Z Z Z Z Z Z Z Z Z Z Z Z o o o o o o o Z o *.%.$.=.-.;.>.@ ",
"@ 2 ,.'.).!.~.{.].^./.(._.:.*.<.o [.[.[.}.|.|.|.|.|.|.|.}.[.o o 1.2.3.4.5.6.).7.8.9.8.7.0.a.>.@ ",
"@ 2 ,.'.b.8.c.d.e.f.g.h.i.j.k.l.m.n.o.p.q.q.o.n.n.d.r.o.s.t.u.v.w.x.y.z.A.B.C.D.s.E.9.].F.G.>.@ ",
"@ 2 ,.'.b.H.I.J.l.K.L.M.N.O.P.Q.R.S.T.U.V.W.X.Y.Z.`. +.+++T.@+#+$+%+O.&+*+L.=+-+;+>+8.].,+'+)+@ ",
"@ 2 ,.'.b.H.I.J.l.!+~+{+]+N.^+/+(+_+:+<+[+}+|+1+2+|+3+.+4+5+_+6+/+7+N.8+9+A.f.0+;+>+8.].,+'+)+@ ",
"@ 2 ,.'.b.H.I.J.l.!+~+{+8+a+^+/+b+c+d+e+f+g+h+Z.i+h+j+f+e+k+c+b+/+l+a+m+9+A.f.0+;+>+8.].,+'+)+@ ",
"@ 2 ,.'.b.H.I.J.l.!+~+{+8+a+^+/+b+c+d+e+f+n+o+p+Z.o+g+f+e+k+c+b+/+l+a+m+9+A.f.0+;+>+8.].,+'+)+@ ",
"@ 2 ,.'.b.H.I.J.l.!+~+{+8+a+^+/+b+c+d+e+f+n+o+p+Z.o+g+f+e+k+c+b+/+l+a+m+9+A.f.0+;+>+8.q+r+s+)+@ ",
"@ 2 t+'.b.H.I.J.l.!+~+{+8+a+^+/+b+c+d+e+f+n+o+p+Z.o+g+f+e+k+c+b+/+l+a+m+9+A.f.0+;+>+8.q+u+v+)+@ ",
"@ w+x+'.b.H.I.J.l.!+~+{+8+a+^+/+b+c+d+e+f+n+o+p+Z.o+g+f+e+k+c+b+/+l+a+m+9+A.f.0+;+>+8.q+u+v+)+@ ",
"@ w+x+'.b.H.I.J.l.!+~+{+8+a+^+/+b+c+d+e+f+n+o+p+Z.o+g+f+e+k+c+b+/+l+a+m+9+A.f.0+;+>+8.q+u+v+)+@ ",
"@ w+x+'.b.H.I.J.l.!+~+{+8+a+^+/+b+c+d+e+f+n+o+p+Z.o+g+f+e+k+c+b+/+l+a+m+9+A.f.0+;+>+8.q+u+v+)+@ ",
"@ w+x+'.b.H.I.J.l.!+~+{+8+a+^+/+b+c+d+e+f+n+o+p+Z.o+g+f+e+k+c+b+/+l+a+m+9+A.f.0+;+>+8.q+u+y+@ @ ",
"@ w+x+'.b.H.I.J.l.!+~+{+8+a+^+/+b+c+d+e+f+n+o+p+Z.o+g+f+e+k+c+b+/+l+a+m+9+A.f.0+;+>+8.q+u+z+2 @ ",
"@ w+x+'.b.H.I.J.l.!+~+{+8+a+^+/+b+c+d+e+f+n+o+p+Z.o+g+f+e+k+c+b+/+l+a+m+9+A.f.0+;+>+8.q+u+z+2 @ ",
"@ w+x+'.b.H.I.J.l.!+~+{+8+a+^+/+b+c+d+e+f+n+o+p+Z.o+g+f+e+k+c+b+/+l+a+m+9+A.f.0+;+>+8.q+u+z+2 @ ",
"@ w+x+'.b.H.I.J.l.!+~+{+8+a+^+/+b+c+d+e+f+n+o+p+Z.o+g+f+e+k+c+b+/+l+a+m+9+A.f.0+;+>+8.q+u+z+2 @ ",
"@ w+x+'.b.H.I.J.l.!+~+{+8+a+^+/+b+c+d+e+f+n+o+p+Z.o+g+f+e+k+c+b+/+l+a+m+9+A.f.0+;+>+8.q+u+A+2 @ ",
"@ w+x+'.b.H.I.J.l.!+~+{+8+a+^+/+b+c+d+e+f+n+o+p+Z.o+g+f+e+k+c+b+/+l+a+m+9+A.f.0+;+>+8.q+u+A+2 @ ",
"+ & B+C+b.H.I.J.l.!+~+{+8+a+^+/+b+c+d+e+f+n+o+p+Z.o+g+f+e+k+c+b+/+l+a+m+9+A.f.0+;+>+8.q+u+A+2 @ ",
"+ & D+E+b.H.I.J.l.!+~+{+8+a+^+/+b+c+d+e+f+n+o+p+Z.o+g+f+e+k+c+b+/+l+a+m+9+A.f.0+;+>+8.q+u+A+2 @ ",
"+ & D+E+b.H.I.J.l.!+~+{+8+a+^+/+b+c+d+e+f+n+o+p+Z.o+g+f+e+k+c+b+/+l+a+m+9+A.f.0+;+>+8.q+u+A+2 @ ",
"+ & D+E+b.H.I.J.l.!+~+{+8+a+^+/+b+c+d+e+f+n+o+p+Z.o+g+f+e+k+c+b+/+l+a+m+9+A.f.0+;+>+8.q+F+G+% @ ",
"+ & D+E+b.H.I.J.l.!+~+{+8+a+^+/+b+c+d+e+f+n+o+p+Z.o+g+f+e+k+c+b+/+l+a+m+9+A.f.0+;+>+8.q+F+G+% @ ",
"+ & D+E+b.H.I.J.l.!+~+{+8+a+^+/+b+c+d+e+f+n+o+p+Z.o+g+f+e+k+c+b+/+l+a+m+9+A.f.0+;+>+8.q+F+G+% @ ",
"+ & D+E+b.H.I.J.l.!+~+{+8+a+^+/+b+c+d+e+f+n+o+p+Z.o+g+f+e+k+c+b+/+l+a+m+9+A.f.0+;+>+8.q+F+G+% @ ",
"+ & D+E+b.H.I.J.l.!+~+{+8+a+^+/+b+c+d+e+f+n+o+p+Z.o+g+f+e+k+c+b+/+l+a+m+9+A.f.0+;+>+8.q+F+H+% @ ",
"+ & D+E+b.H.I.J.l.!+~+{+8+a+^+/+b+c+d+e+f+n+o+p+Z.o+g+f+e+k+c+b+/+l+a+m+9+A.f.0+;+>+8.].I+J+* @ ",
"+ & D+E+b.H.I.J.l.!+~+{+8+a+^+/+b+c+d+e+f+n+o+p+Z.o+g+f+e+k+c+b+/+l+a+m+9+A.f.0+;+>+8.].I+J+* @ ",
"+ & K+E+b.H.I.J.l.!+~+{+8+a+^+/+b+c+d+e+f+n+o+p+Z.o+g+f+e+k+c+b+/+l+a+m+9+A.f.0+;+>+8.].I+J+* @ ",
"+ & L+E+b.H.I.J.l.!+~+{+8+a+^+/+b+c+d+e+f+n+o+p+Z.o+g+f+e+k+c+b+/+l+a+m+9+A.f.0+;+>+8.].I+J+* @ ",
"+ & L+E+b.H.I.J.l.!+~+{+8+a+^+/+b+c+d+e+f+n+o+p+Z.o+g+f+e+k+c+b+/+l+a+m+9+A.f.0+;+>+8.].u+M+2 @ ",
"+ & L+E+b.H.I.J.l.!+~+{+8+a+^+/+b+c+d+e+f+n+o+p+Z.o+g+f+e+k+c+b+/+l+a+m+9+A.f.0+;+>+8.].u+N+2 @ ",
"+ & L+E+b.H.I.J.l.!+~+{+8+a+^+/+b+c+d+e+f+n+o+p+Z.o+g+f+e+k+c+b+/+l+a+m+9+A.f.0+;+>+8.].u+N+2 @ ",
"+ & L+E+b.H.I.J.l.!+~+{+8+a+^+/+b+c+d+e+f+n+o+p+Z.o+g+f+e+k+c+b+/+l+a+m+9+A.f.0+;+>+8.].u+N+2 @ ",
"+ & L+E+b.H.I.J.l.!+~+{+8+a+^+/+b+c+d+e+f+n+o+p+Z.o+g+f+e+k+c+b+/+l+a+m+9+A.f.0+;+>+8.].u+N+2 @ ",
"+ & D+O+P+H.I.J.l.!+~+{+8+a+^+/+b+c+d+e+f+n+o+p+Z.o+g+f+e+k+c+b+/+l+a+m+9+A.f.0+;+>+8.q+Q+R+2 @ ",
". & S+T+U+V+W+X+Y+Z+~+{+8+a+^+/+b+c+d+e+f+n+o+p+Z.o+g+f+e+k+c+b+/+l+a+m+9+A.f.`+ @.@+@@@#@$@2 @ ",
". + %@&@*@=@-@;@>@,@'@)@8+!@~@{@]@^@/@(@f+n+o+p+Z.o+g+f+e+_@^@]@{@:@!@<@[@}@|@1@2@3@4@5@6@7@% . ",
". . 2 A 8@9@0@a@b@c@d@e@f@g@h@i@j@k@l@m@n@o@p@q@r@s@t@u@v@w@x@y@z@h@A@B@C@D@E@F@G@H@I@J@K@= . . ",
". . . @ * L@M@M@@ N@O@P@Q@R@S@T@U@V@W@X@Y@Z@`@ #.#+#@###$#%#&#*#=#-#;#>#,#'#)#!#2 ~#A {#* @ . . ",
". . . . . . @ 2 & 2 {#]#^#/#@ (#_#:#<#[#}#|#1#2#3#4#5#6#7#8#9#0#a## b#c#d#e#3 & & @ @ . . . . . ",
". . . . . . . . . . . . + @ @ @ @ b#b#b#b#@ @ @ @ @ @ @ @ b#b#@ @ @ @ @ . . . . . . . . . . . . "};
