/* XPM */
static const char * btnEllipsoid_xpm[] = {
"48 48 650 2",
"  	c None",
". 	c #2E3436",
"+ 	c #2E3334",
"@ 	c #2D3133",
"# 	c #2D3032",
"$ 	c #2D3031",
"% 	c #2D3132",
"& 	c #2D3233",
"* 	c #2E3335",
"= 	c #2D2F30",
"- 	c #2C2C2C",
"; 	c #2C2D2E",
"> 	c #2E3538",
", 	c #303D41",
"' 	c #334549",
") 	c #34494E",
"! 	c #34484E",
"~ 	c #334347",
"{ 	c #303B3F",
"] 	c #2D3335",
"^ 	c #2B2C2D",
"/ 	c #2E3435",
"( 	c #2E3133",
"_ 	c #334C52",
": 	c #3B6C78",
"< 	c #4691A3",
"[ 	c #4EABC0",
"} 	c #54B7CE",
"| 	c #58BED5",
"1 	c #5BC1D8",
"2 	c #5DC1D8",
"3 	c #5DBFD5",
"4 	c #5CB7CC",
"5 	c #58A9BC",
"6 	c #4D8B99",
"7 	c #40656E",
"8 	c #34454A",
"9 	c #2C2F30",
"0 	c #2D3234",
"a 	c #2E3233",
"b 	c #2D2C2C",
"c 	c #2F3D40",
"d 	c #386B77",
"e 	c #45A3B9",
"f 	c #4EC1DB",
"g 	c #55CAE5",
"h 	c #59CBE5",
"i 	c #5BC9E2",
"j 	c #5EC8E0",
"k 	c #61C8DF",
"l 	c #63C9DF",
"m 	c #65CAE0",
"n 	c #67CAE0",
"o 	c #69CCE2",
"p 	c #6ACEE4",
"q 	c #6BD1E8",
"r 	c #6AD0E6",
"s 	c #65C3D8",
"t 	c #559CAC",
"u 	c #3E5F67",
"v 	c #2E3537",
"w 	c #2D2D2E",
"x 	c #2E3639",
"y 	c #377584",
"z 	c #44B3CD",
"A 	c #4CC8E4",
"B 	c #50C7E2",
"C 	c #54C4DD",
"D 	c #58C4DC",
"E 	c #5CC5DD",
"F 	c #60C6DD",
"G 	c #63C7DE",
"H 	c #66C8DE",
"I 	c #69C9DE",
"J 	c #6BC9DE",
"K 	c #6DCADF",
"L 	c #6ECADF",
"M 	c #6FCADE",
"N 	c #6FCADF",
"O 	c #6ECCE1",
"P 	c #6ED1E7",
"Q 	c #6CCFE5",
"R 	c #5EAFC1",
"S 	c #40646D",
"T 	c #2E3234",
"U 	c #2D2B2C",
"V 	c #31555E",
"W 	c #3DA8C1",
"X 	c #46C7E4",
"Y 	c #4AC3DF",
"Z 	c #4FC1DB",
"` 	c #54C2DC",
" .	c #59C4DC",
"..	c #5DC5DD",
"+.	c #61C6DD",
"@.	c #65C8DE",
"#.	c #6CCADE",
"$.	c #71CBDF",
"%.	c #73CCDF",
"&.	c #75CCDF",
"*.	c #74CCDF",
"=.	c #72CBDF",
"-.	c #70CBDF",
";.	c #70D0E5",
">.	c #579EAE",
",.	c #344448",
"'.	c #2A2B2C",
").	c #2E3132",
"!.	c #2E3031",
"~.	c #337888",
"{.	c #3DBEDB",
"].	c #44C4E1",
"^.	c #49BFDB",
"/.	c #53C2DC",
"(.	c #62C7DD",
"_.	c #78CDDF",
":.	c #7ACEE0",
"<.	c #7BCEE0",
"[.	c #7CCEE0",
"}.	c #78CEE0",
"|.	c #76CDDF",
"1.	c #70CCDF",
"2.	c #70D2E8",
"3.	c #64BED2",
"4.	c #40626B",
"5.	c #2B2B2B",
"6.	c #33899E",
"7.	c #3BC4E4",
"8.	c #41BFDC",
"9.	c #47BFDA",
"0.	c #4CC0DB",
"a.	c #52C2DC",
"b.	c #57C4DC",
"c.	c #67C8DE",
"d.	c #6BCADE",
"e.	c #7ECFE0",
"f.	c #80D0E1",
"g.	c #81D0E0",
"h.	c #83D0E1",
"i.	c #82D0E1",
"j.	c #81D0E1",
"k.	c #7FCFE0",
"l.	c #7CCFE0",
"m.	c #79CEE0",
"n.	c #76CCDF",
"o.	c #6FCFE4",
"p.	c #6ACDE3",
"q.	c #46747F",
"r.	c #318EA4",
"s.	c #38C3E4",
"t.	c #3EBDDA",
"u.	c #44BEDA",
"v.	c #4AC0DB",
"w.	c #50C1DB",
"x.	c #56C3DC",
"y.	c #5BC5DD",
"z.	c #7DCFE0",
"A.	c #84D1E1",
"B.	c #86D1E1",
"C.	c #88D2E1",
"D.	c #89D2E1",
"E.	c #87D2E1",
"F.	c #85D1E1",
"G.	c #77CDDF",
"H.	c #6ECDE2",
"I.	c #6BCFE5",
"J.	c #477883",
"K.	c #2E2E2E",
"L.	c #2E869B",
"M.	c #34C3E4",
"N.	c #3ABBD9",
"O.	c #41BDDA",
"P.	c #4DC1DB",
"Q.	c #5FC5DD",
"R.	c #64C7DE",
"S.	c #6AC9DE",
"T.	c #8AD2E2",
"U.	c #8DD3E2",
"V.	c #8FD4E2",
"W.	c #90D4E2",
"X.	c #8ED4E2",
"Y.	c #8BD3E1",
"Z.	c #6DCCE1",
"`.	c #69CFE5",
" +	c #426D77",
".+	c #2B2A2B",
"++	c #2E2C2C",
"@+	c #2C6D7D",
"#+	c #30BFE1",
"$+	c #36BBDA",
"%+	c #3DBCD9",
"&+	c #43BEDA",
"*+	c #49C0DB",
"=+	c #6DCADE",
"-+	c #8CD3E2",
";+	c #92D5E2",
">+	c #95D5E2",
",+	c #96D6E3",
"'+	c #95D6E3",
")+	c #94D5E3",
"!+	c #91D4E2",
"~+	c #8ED3E2",
"{+	c #89D2E2",
"]+	c #80CFE1",
"^+	c #6BCCE2",
"/+	c #63C6DB",
"(+	c #385258",
"_+	c #2B2D2E",
":+	c #2E2E2F",
"<+	c #2C4D56",
"[+	c #2BB6D7",
"}+	c #31BBDB",
"|+	c #38BAD9",
"1+	c #3EBCDA",
"2+	c #45BEDA",
"3+	c #4BC0DB",
"4+	c #5EC5DD",
"5+	c #98D7E3",
"6+	c #9BD8E3",
"7+	c #9DD8E3",
"8+	c #9CD8E3",
"9+	c #9AD7E3",
"0+	c #93D5E2",
"a+	c #8AD2E1",
"b+	c #5AB1C4",
"c+	c #2F383A",
"d+	c #2899B4",
"e+	c #2CBDE0",
"f+	c #33B9D8",
"g+	c #40BDDA",
"h+	c #5AC4DC",
"i+	c #8BD3E2",
"j+	c #9ED8E4",
"k+	c #A1D9E4",
"l+	c #A3DAE4",
"m+	c #A2DAE4",
"n+	c #A0D9E4",
"o+	c #97D7E3",
"p+	c #66D0E8",
"q+	c #488390",
"r+	c #2B2B2C",
"s+	c #2F2C2D",
"t+	c #2A606D",
"u+	c #26BCDF",
"v+	c #2EB8D8",
"w+	c #34B9D9",
"x+	c #3BBBD9",
"y+	c #48BFDB",
"z+	c #55C3DC",
"A+	c #68C8DE",
"B+	c #88D1E1",
"C+	c #94D6E2",
"D+	c #99D7E3",
"E+	c #9FD9E4",
"F+	c #A8DBE5",
"G+	c #AADCE5",
"H+	c #A9DBE5",
"I+	c #A6DAE4",
"J+	c #9CD7E3",
"K+	c #90D5E2",
"L+	c #72CCDF",
"M+	c #5DC2D9",
"N+	c #34474C",
"O+	c #239EBB",
"P+	c #27BADD",
"Q+	c #2FB7D8",
"R+	c #35BAD8",
"S+	c #3CBCD9",
"T+	c #42BEDA",
"U+	c #49C0DA",
"V+	c #63C7DD",
"W+	c #ADDDE5",
"X+	c #B0DEE6",
"Y+	c #B1DEE6",
"Z+	c #AFDDE5",
"`+	c #A5DBE4",
" @	c #8DD4E2",
".@	c #62CFE7",
"+@	c #478796",
"@@	c #2F2D2E",
"#@	c #295762",
"$@	c #21B9DD",
"%@	c #29B6D7",
"&@	c #2FB8D8",
"*@	c #36BAD9",
"=@	c #50C2DB",
"-@	c #5DC6DD",
";@	c #78CDE0",
">@	c #9FD8E4",
",@	c #A5DAE4",
"'@	c #ABDCE5",
")@	c #B6DFE6",
"!@	c #B8E0E6",
"~@	c #B4DFE6",
"{@	c #AEDDE5",
"]@	c #A8DCE5",
"^@	c #61C9E0",
"/@	c #57BCD3",
"(@	c #314145",
"_@	c #2F2E2F",
":@	c #2288A0",
"<@	c #21BBDF",
"[@	c #5EC6DD",
"}@	c #64C8DE",
"|@	c #A6DBE4",
"1@	c #ADDCE5",
"2@	c #B3DEE6",
"3@	c #BAE1E7",
"4@	c #BCE1E7",
"5@	c #B7DFE6",
"6@	c #A9DCE5",
"7@	c #82D0E0",
"8@	c #61C7DD",
"9@	c #5CCCE5",
"0@	c #3D6A75",
"a@	c #2C2B2C",
"b@	c #2C3D42",
"c@	c #1DA9CB",
"d@	c #21B6DA",
"e@	c #3CBBD9",
"f@	c #43BDDA",
"g@	c #B2DEE6",
"h@	c #B7E0E6",
"i@	c #B5DFE6",
"j@	c #5BCBE4",
"k@	c #499BAE",
"l@	c #2D2F31",
"m@	c #2F2E2E",
"n@	c #27545F",
"o@	c #1AB6DB",
"p@	c #21B4D7",
"q@	c #28B5D7",
"r@	c #84D0E1",
"s@	c #97D6E3",
"t@	c #AFDEE5",
"u@	c #93D5E3",
"v@	c #87D1E1",
"w@	c #5AC7DF",
"x@	c #50B8D0",
"y@	c #303F43",
"z@	c #2F2C2C",
"A@	c #236C7D",
"B@	c #18B9DF",
"C@	c #21B4D6",
"D@	c #27B5D7",
"E@	c #2EB7D8",
"F@	c #34BAD9",
"G@	c #42BDDA",
"H@	c #48BFDA",
"I@	c #A4DAE4",
"J@	c #A8DCE4",
"K@	c #A1DAE4",
"L@	c #91D5E2",
"M@	c #5FC6DD",
"N@	c #58C5DD",
"O@	c #52C4DF",
"P@	c #35535B",
"Q@	c #2D2E2F",
"R@	c #2F2D2D",
"S@	c #1E7E95",
"T@	c #20B3D6",
"U@	c #26B5D7",
"V@	c #2DB7D8",
"W@	c #4DC0DB",
"X@	c #5AC4DD",
"Y@	c #80CFE0",
"Z@	c #9BD7E3",
"`@	c #9CD8E4",
" #	c #57C3DC",
".#	c #52C9E4",
"+#	c #396772",
"@#	c #2C2C2D",
"##	c #2F2F30",
"$#	c #1A8BA7",
"%#	c #17B7DD",
"&#	c #1FB3D6",
"*#	c #25B5D7",
"=#	c #2BB7D8",
"-#	c #32B9D8",
";#	c #38BBD9",
">#	c #3FBCDA",
",#	c #45BFDA",
"'#	c #9DD8E4",
")#	c #54C3DC",
"!#	c #50CAE5",
"~#	c #3B7684",
"{#	c #2C2B2B",
"]#	c #1794B2",
"^#	c #15B6DC",
"/#	c #1DB3D6",
"(#	c #23B4D7",
"_#	c #2AB7D8",
":#	c #30B8D8",
"<#	c #62C6DD",
"[#	c #68C9DE",
"}#	c #79CDE0",
"|#	c #95D5E3",
"1#	c #4EC9E5",
"2#	c #3C7F8F",
"3#	c #2E3437",
"4#	c #1598B7",
"5#	c #14B4DB",
"6#	c #1BB2D6",
"7#	c #22B4D7",
"8#	c #8AD3E2",
"9#	c #4BC8E5",
"0#	c #3B8293",
"a#	c #2D2C2D",
"b#	c #1495B4",
"c#	c #12B4DB",
"d#	c #19B1D6",
"e#	c #2CB7D8",
"f#	c #3EBCD9",
"g#	c #75CDDF",
"h#	c #80D0E0",
"i#	c #48C7E4",
"j#	c #397F90",
"k#	c #2F3030",
"l#	c #148CAA",
"m#	c #0FB5DC",
"n#	c #17B0D5",
"o#	c #1DB2D6",
"p#	c #24B4D7",
"q#	c #2AB6D7",
"r#	c #35BAD9",
"s#	c #3BBCD9",
"t#	c #6CC9DE",
"u#	c #83D1E1",
"v#	c #73CBDF",
"w#	c #5AC5DC",
"x#	c #45C7E4",
"y#	c #377787",
"z#	c #302E2E",
"A#	c #16819A",
"B#	c #0CB5DD",
"C#	c #15B0D5",
"D#	c #6FCBDF",
"E#	c #7DCEE0",
"F#	c #77CDE0",
"G#	c #65C8DD",
"H#	c #51C2DC",
"I#	c #46BFDA",
"J#	c #41C4E3",
"K#	c #346A77",
"L#	c #302C2C",
"M#	c #1A7084",
"N#	c #09B4DE",
"O#	c #12AFD5",
"P#	c #18B1D6",
"Q#	c #1EB3D6",
"R#	c #24B5D7",
"S#	c #6ECADE",
"T#	c #3DC0DE",
"U#	c #315761",
"V#	c #2D2E2E",
"W#	c #215967",
"X#	c #07B2DB",
"Y#	c #0FAFD5",
"Z#	c #31B8D8",
"`#	c #37BAD9",
" $	c #50C2DC",
".$	c #49BFDA",
"+$	c #3FBEDC",
"@$	c #39B5D2",
"#$	c #2F4448",
"$$	c #2E3032",
"%$	c #2F3132",
"&$	c #284249",
"*$	c #07A8CE",
"=$	c #0BAFD6",
"-$	c #11AFD5",
";$	c #17B1D5",
">$	c #28B6D7",
",$	c #58C3DC",
"'$	c #5BC4DD",
")$	c #3FBDDA",
"!$	c #3AC0DF",
"~$	c #349FB8",
"{$	c #0E8EAC",
"]$	c #06B2DB",
"^$	c #0EAED5",
"/$	c #14B0D5",
"($	c #3DBCDA",
"_$	c #50C1DC",
":$	c #36C2E3",
"<$	c #307382",
"[$	c #312D2D",
"}$	c #1D6171",
"|$	c #02B2DC",
"1$	c #0BADD4",
"2$	c #10AFD5",
"3$	c #16B0D5",
"4$	c #20B4D7",
"5$	c #5AC5DD",
"6$	c #51C1DC",
"7$	c #47BFDB",
"8$	c #31B8D7",
"9$	c #2E4950",
"0$	c #2E2F30",
"a$	c #2F3133",
"b$	c #2B3C40",
"c$	c #05A1C6",
"d$	c #06AFD7",
"e$	c #0CADD4",
"f$	c #1CB2D6",
"g$	c #47BEDB",
"h$	c #4ABFDB",
"i$	c #55C2DC",
"j$	c #53C3DC",
"k$	c #31BFE0",
"l$	c #2D91A9",
"m$	c #302D2C",
"n$	c #186C81",
"o$	c #00B2DD",
"p$	c #08ACD4",
"q$	c #0EAED4",
"r$	c #13B0D5",
"s$	c #1CB3D6",
"t$	c #30B9D9",
"u$	c #2CBADC",
"v$	c #2D525B",
"w$	c #2B3A3E",
"x$	c #059EC3",
"y$	c #03AFD8",
"z$	c #09ADD4",
"A$	c #18B1D5",
"B$	c #39BBD9",
"C$	c #2BBEE1",
"D$	c #2A8FA7",
"E$	c #302D2D",
"F$	c #1E5D6D",
"G$	c #00B0DA",
"H$	c #04ACD5",
"I$	c #13AFD5",
"J$	c #2BB7D7",
"K$	c #40BCDA",
"L$	c #29B9DB",
"M$	c #26AFD0",
"N$	c #2C444B",
"O$	c #302E2F",
"P$	c #117F9A",
"Q$	c #00B2DE",
"R$	c #05ABD4",
"S$	c #0AADD4",
"T$	c #35B9D8",
"U$	c #2DB8D8",
"V$	c #27B7D8",
"W$	c #23BBDF",
"X$	c #296574",
"Y$	c #2D373A",
"Z$	c #0993B4",
"`$	c #00B1DC",
" %	c #04ABD3",
".%	c #0DAED4",
"+%	c #20B4D6",
"@%	c #34B9D8",
"#%	c #31B9D8",
"$%	c #20BCE1",
"%%	c #257F95",
"&%	c #302F30",
"*%	c #294147",
"=%	c #079BBF",
"-%	c #0CAED4",
";%	c #1AB2D6",
">%	c #2AB6D8",
",%	c #1DBCE1",
"'%	c #228AA3",
")%	c #28434A",
"!%	c #0898BB",
"~%	c #00B1DD",
"{%	c #02ABD3",
"]%	c #06ACD4",
"^%	c #1DB4D8",
"/%	c #19BAE0",
"(%	c #2088A1",
"_%	c #2D3436",
":%	c #2B3C41",
"<%	c #0D8BAA",
"[%	c #01ACD5",
"}%	c #16B1D5",
"|%	c #1AB1D6",
"1%	c #20B3D7",
"2%	c #21B3D7",
"3%	c #18B5DB",
"4%	c #16B6DC",
"5%	c #21798E",
"6%	c #2F3031",
"7%	c #177086",
"8%	c #01AAD3",
"9%	c #00B0DB",
"0%	c #02ABD4",
"a%	c #05ACD4",
"b%	c #10AED5",
"c%	c #19B1D5",
"d%	c #16B2D7",
"e%	c #13B8DF",
"f%	c #15A6C9",
"g%	c #255D6B",
"h%	c #2F3234",
"i%	c #264952",
"j%	c #0E89A7",
"k%	c #00AED8",
"l%	c #02ACD5",
"m%	c #07ACD4",
"n%	c #0FAED5",
"o%	c #11B2D8",
"p%	c #0EB6DF",
"q%	c #10AED3",
"r%	c #1C7A91",
"s%	c #2B3D42",
"t%	c #302F2F",
"u%	c #23525E",
"v%	c #0F86A4",
"w%	c #02A7CF",
"x%	c #02AED8",
"y%	c #05ADD5",
"z%	c #08ADD4",
"A%	c #0CAED5",
"B%	c #0CAFD6",
"C%	c #0BB2DA",
"D%	c #0AB5DE",
"E%	c #0AB3DC",
"F%	c #0DA5C9",
"G%	c #1A7A92",
"H%	c #28474F",
"I%	c #28444B",
"J%	c #1C6475",
"K%	c #10819D",
"L%	c #069BBF",
"M%	c #02A9D1",
"N%	c #01B1DB",
"O%	c #02B1DB",
"P%	c #03B1DA",
"Q%	c #04AED7",
"R%	c #06A8CF",
"S%	c #0D97B8",
"T%	c #177B94",
"U%	c #215C6A",
"V%	c #2F3131",
"W%	c #2C393C",
"X%	c #27474F",
"Y%	c #22525E",
"Z%	c #1F5B6A",
"`%	c #1D5E6F",
" &	c #1E5E6E",
".&	c #205967",
"+&	c #23505A",
"@&	c #2D3537",
"#&	c #2F3233",
"$&	c #302E2D",
". . . . . . . . . . . . . . . . . . . . . . . . . . . . . . . . . . . . . . . . . . . . . . . . ",
". . . . . . . . . . . . . . . . . . . . + @ # $ $ % & * . . . . . . . . . . . . . . . . . . . . ",
". . . . . . . . . . . . . . . . * = - ; > , ' ) ! ~ { ] ^ ^ # / . . . . . . . . . . . . . . . . ",
". . . . . . . . . . . . . . ( - ] _ : < [ } | 1 2 3 4 5 6 7 8 9 ^ 0 . . . . . . . . . . . . . . ",
". . . . . . . . . . . . a b c d e f g h i j k l m n o p q r s t u v ^ * . . . . . . . . . . . . ",
". . . . . . . . . . . w x y z A B C D E F G H I J K L M M N O P Q R S 9 9 . . . . . . . . . . . ",
". . . . . . . . . T U V W X Y Z `  ...+.@.I #.N $.%.&.&.&.&.*.=.-.;.Q >.,.'.. . . . . . . . . . ",
". . . . . . . . ).!.~.{.].^.f /.D ..(.H J M =.&._.:.<.[.[.[.:.}.|.%.1.2.3.4.5.* . . . . . . . . ",
". . . . . . . ).+ 6.7.8.9.0.a.b...(.c.d.-.*._.<.e.f.g.h.h.i.j.k.l.m.n.=.o.p.q.'.* . . . . . . . ",
". . . . . . ( . r.s.t.u.v.w.x.y.F H J -.&.m.z.g.A.B.C.D.D.D.E.F.i.k.<.G.=.H.I.J.^ * . . . . . . ",
". . . . . * K.L.M.N.O.9.P./. .Q.R.S.N *.m.e.h.B.T.U.V.W.W.V.X.Y.C.A.f.[.G.=.Z.`. +.+. . . . . . ",
". . . . . ++@+#+$+%+&+*+Z x.E (.c.=+%._.e.h.E.-+V.;+>+,+,+'+)+!+~+{+F.]+<.|.-.^+/+(+_+. . . . . ",
". . . . :+<+[+}+|+1+2+3+a.D 4+R.S.-.|.[.i.E.-+!+'+5+6+7+7+8+9+,+0+X.a+A.k.m.%.=+`.b+c+@ . . . . ",
". . . + T d+e+f+N.g+9.P./.h+F H #.%.m.k.F.i+W.'+9+j+k+l+l+m+n+8+o+0+U.C.i.[.n.-.I p+q+r+. . . . ",
". . . s+t+u+v+w+x+O.y+f z+y.(.A+L &.<.i.B+~+C+D+E+l+F+G+G+H+I+k+J+,+K+i+F.e._.L+J m M+N+9 . . . ",
". . T v O+P+Q+R+S+T+U+Z x...V+S.-.|.z.h.T.W.,+8+l+F+W+X+Y+Z+G+`+E+D+0+ @B.f.:.%.=+H .@+@^ . . . ",
". . @@#@$@%@&@*@S+&+*+=@b.-@R.S.$.;@e.F.Y.;+5+>@,@'@Y+)@!@~@{@]@m+J+'+X.C.j.<.*.L c.^@/@(@# . . ",
". . _@:@<@%@&@*@S+&+v.=@b.[@}@S.$._.k.F.-+;+D+E+|@1@2@3@4@5@X+6@m+J+'+V.C.7@<.*.L c.8@9@0@a@. . ",
". ( b@c@d@%@&@*@e@f@*+=@b.-@R.S.$._.e.F.i+;+5+>@,@'@g@h@!@i@Z+]@m+J+'+V.C.j.<.*.L c.+.j@k@l@. . ",
". m@n@o@p@q@&@R+S+T+U+Z x...V+S.-.G.z.r@T.W.s@7+l+H+{@Y+g@t@'@I+n+D+u@ @v@f.:.%.=+H F w@x@y@@ . ",
". z@A@B@C@D@E@F@x+G@H@Z z+E (.A+N &.<.i.C.X.C+9+E+I@J@G+'@6@|@K@7+s@L@i+F.k.;@L+J @.M@N@O@P@Q@. ",
". R@S@B@T@U@V@f+N.g+9.W@` X@F H =+%.m.Y@F.i+!+,+Z@E+m+I@,@l+k+`@5+u@X.C.i.[.n.-.I V+.. #.#+#@#. ",
". ##$#%#&#*#=#-#;#>#,#3+a.D [@}@S.-.|.l.i.C.U.!+,+D+8+j+j+'#Z@s@u@V.T.F.k.m.%.=+c.8@y.)#!#~#{#. ",
"* T ]#^#/#(#_#:#*@%+&+v.=@x.E <#[#=+%.}#e.h.C.-+W.u@,+s@s@s@|#;+X.T.B.j.[.|.-.S.@.Q. .a.1#2#- . ",
"* 3#4#5#6#7#q@v+w+x+O.9.P./. .M@R.S.-.&.:.e.h.E.8#U.V.W.!+W.X.-+D.F.j.[.G.=.=+c.8@E x.w.9#0#a#. ",
"* * b#c#d#T@U@e#-#;#f#u.v.=@x.E +.H #.-.g#:.e.j.F.E.D.a+a+a+C.B.h.h#[.;@%.L I G 4+ ./.P.i#j#b . ",
". k#l#m#n#o#p#q#:#r#s#O.9.P.a.D ..(.c.t#$.&._.[.e.j.i.u#u#h.i.Y@z.:.|.v#L I @.F w#z+w.v.x#y#U . ",
". z#A#B#C#6#p@D@V@f+;#f#u.^.Z )# .4+V+c.J D#%.n._.:.l.z.E#z.<.m.F#*.$.=+I G#F E x.H#0.I#J#K#b . ",
". L#M#N#O#P#Q#R#q#&@r#x+g+2+3+w.)# .[@(.H S.=+-.L+*.&.n.|.|.&.%.$.S#d.[#R.F y.b.a.P.y+&+T#U#V#. ",
". z#W#X#Y#C#6#p@D@e#Z#`#e@O.I#3+ $z+ ...+.R.c.S.#.L M D#-.D#L =+J [#@.(.M@y. #a.f .$u.+$@$#$$$. ",
". %$&$*$=$-$;$/#(#>$E@f+|+%+G@I#3+Z )#,$'$4+8@V+@.c.[#I I I A+H }@(.F E  .x.H#P.^.u.)$!$~$+ * . ",
". * %${$]$^$/$d#&#R#q#&@w+;#($O.I#v.f a.z+D '$..M@8@(.(.(.<#8@F 4+E X@ #` _$0.H@u.)$x+:$<$++. . ",
". . [$}$|$1$2$3$6#4$U@q#&@w+;#($O.2+^.0.w./.z+b. .5$E E E E y.X@D x.)#6$f 3+7$f@>#N.$+8$9$0$. . ",
". . a$b$c$d$e$O#;$f$p@U@=#&@w+|+S+g+&+g$h$0.Z 6$/.` i$z+x.z+` j$a._$P.3+y+2+G@1+N.r#k$l$0$* . . ",
". . . m$n$o$p$q$r$;$s$p@U@q#&@-#*@N.%+O.&+I#y+v.0.P.f f f f f 0.3+^.9.2+G@>#x+;#w+t$u$v$K.. . . ",
". . . %$w$x$y$z$^$r$A$f$p@*#%@V@Z#w+|+x+f#g+G@u.I#9.H@y+y+y+9.I#2+&+O.>#S+B$*@-#&@C$D$0$* . . . ",
". . . . E$F$G$H$z$^$I$P#f$T@R#>$J$Q+-#R+`#B$S+%+)$K$O.O.O.O.g+)$1+%+x+;#*@f+:#V@L$M$N$0$. . . . ",
". . . . * O$P$Q$R$S$^$I$;$6#&#7#U@%@e#Q+Z#f+T$`#|+N.N.x+x+N.N.B$;#*@F@-#:#U$[+V$W$X$z@. . . . . ",
". . . . . %$Y$Z$`$ %z$.%O#C#d#s$+%(#U@%@J$V@&@:#-#f+@%w+w+@%f+f+#%:#v+e#q#D@*#$%%%@@* . . . . . ",
". . . . . . &%*%=%`$ %p$-%2$r$;$;%/#+%(#*#D@%@>%e#V@E@V@V@E@V@e#=#q#q@U@p#p@,%'%T a . . . . . . ",
". . . . . . . z#)%!%~%{%]%S$^$-$/$;$;%f$&#p@7#R#*#U@D@D@D@D@U@U@*#(#p@&#^%/%(%_%).. . . . . . . ",
". . . . . . . . z#:%<%o$[% %p$1$^$-$/$}%A$|%f$/#&#T@1%1%2%1%T@&#Q#o#6#3%4%5%( ).. . . . . . . . ",
". . . . . . . . . 6%a 7%8%9%0%a%p$1$^$b%O#/$3$n#P#c%;%;%;%;%c%A$;$d%e%f%g%R@T . . . . . . . . . ",
". . . . . . . . . . h%E$i%j%k%9%l%a%m%z$1$.%n%2$-$O#r$r$r$I$O#o%p%q%r%s%R@/ . . . . . . . . . . ",
". . . . . . . . . . . . t%%$u%v%w%`$`$x%y%m%z%S$1$1$A%B%C%D%E%F%G%H%R@%$. . . . . . . . . . . . ",
". . . . . . . . . . . . . * z#&%I%J%K%L%M%k%G$N%O%P%Q%R%S%T%U%s%E$k#. . . . . . . . . . . . . . ",
". . . . . . . . . . . . . . . / V%[$z#W%X%Y%Z%`% &.&+&I%@&E$z##&. . . . . . . . . . . . . . . . ",
". . . . . . . . . . . . . . . . . . . h%6%t%z#$&z#z#t%%$* . . . . . . . . . . . . . . . . . . . "};
