/* XPM */
static const char * btnPyramid_xpm[] = {
"48 48 469 2",
"  	c None",
". 	c #2E3436",
"+ 	c #2F3537",
"@ 	c #292E2F",
"# 	c #252828",
"$ 	c #303638",
"% 	c #2F3435",
"& 	c #212C30",
"* 	c #1A2930",
"= 	c #2B2F30",
"- 	c #2E3537",
"; 	c #242424",
"> 	c #365F71",
", 	c #4A89A4",
"' 	c #18191A",
") 	c #2F3335",
"! 	c #1A2225",
"~ 	c #5AA5C6",
"{ 	c #69BFE4",
"] 	c #182931",
"^ 	c #242626",
"/ 	c #2F3538",
"( 	c #212120",
"_ 	c #2E5464",
": 	c #6BC2E8",
"< 	c #437990",
"[ 	c #171716",
"} 	c #2E3334",
"| 	c #171F22",
"1 	c #69BCE2",
"2 	c #67B9DE",
"3 	c #63B4D8",
"4 	c #33474E",
"5 	c #262929",
"6 	c #303739",
"7 	c #1D1B1B",
"8 	c #2C5060",
"9 	c #6CC3E9",
"0 	c #66B8DC",
"a 	c #69C0E6",
"b 	c #4E8095",
"c 	c #343939",
"d 	c #272C2D",
"e 	c #2D3132",
"f 	c #12191C",
"g 	c #59A2C2",
"h 	c #69BDE2",
"i 	c #68BBE0",
"j 	c #5BA8CA",
"k 	c #577075",
"l 	c #313738",
"m 	c #2C3234",
"n 	c #313739",
"o 	c #181615",
"p 	c #2C5161",
"q 	c #6DC4EA",
"r 	c #67BEE4",
"s 	c #548497",
"t 	c #5A6667",
"u 	c #212426",
"v 	c #2E3437",
"w 	c #2C2F30",
"x 	c #0F1A1D",
"y 	c #5AA3C4",
"z 	c #68BDE2",
"A 	c #68BCE1",
"B 	c #549EBE",
"C 	c #708A90",
"D 	c #3F494A",
"E 	c #282D2F",
"F 	c #313638",
"G 	c #13191A",
"H 	c #2C5B6D",
"I 	c #6DC3E9",
"J 	c #65BBE1",
"K 	c #5A8798",
"L 	c #849899",
"M 	c #1F2324",
"N 	c #292D2E",
"O 	c #092229",
"P 	c #58A1C1",
"Q 	c #69BDE3",
"R 	c #4D91B0",
"S 	c #849DA2",
"T 	c #5A696B",
"U 	c #232628",
"V 	c #313435",
"W 	c #0F1F22",
"X 	c #2C6479",
"Y 	c #6DC1E7",
"Z 	c #63B8DE",
"` 	c #588190",
" .	c #A4BEC0",
"..	c #242A2B",
"+.	c #2D3334",
"@.	c #072F3A",
"#.	c #69BEE4",
"$.	c #4A8BA8",
"%.	c #8FAAAD",
"&.	c #768B8E",
"*.	c #1E2223",
"=.	c #303233",
"-.	c #0B262B",
";.	c #2D6D84",
">.	c #6DC0E5",
",.	c #61B5DA",
"'.	c #587D8B",
").	c #BDDCDF",
"!.	c #353E40",
"~.	c #303537",
"{.	c #232A2C",
"].	c #033E4D",
"^.	c #59A2C1",
"/.	c #4B89A4",
"(.	c #9EB9BC",
"_.	c #96B1B5",
":.	c #1D2123",
"<.	c #302F30",
"[.	c #06303A",
"}.	c #2B6E85",
"|.	c #6CBDE2",
"1.	c #5DAED3",
"2.	c #587680",
"3.	c #CBEDF1",
"4.	c #505E61",
"5.	c #232728",
"6.	c #303536",
"7.	c #1E2A2D",
"8.	c #034D5F",
"9.	c #5AA2C2",
"0.	c #69BFE5",
"a.	c #4A849E",
"b.	c #A3BDC0",
"c.	c #B0D0D5",
"d.	c #252B2C",
"e.	c #2C3134",
"f.	c #2E2C2C",
"g.	c #033F4D",
"h.	c #2C748D",
"i.	c #67BADE",
"j.	c #5AAACE",
"k.	c #5C7981",
"l.	c #D1F4F8",
"m.	c #6B7F82",
"n.	c #1F2224",
"o.	c #313335",
"p.	c #1B2E32",
"q.	c #02596E",
"r.	c #5BA1C0",
"s.	c #4A8098",
"t.	c #A7C2C5",
"u.	c #C2E6EB",
"v.	c #363E41",
"w.	c #272C2E",
"x.	c #2C2A2A",
"y.	c #014859",
"z.	c #2D758E",
"A.	c #6CBDE1",
"B.	c #68BBDF",
"C.	c #57A5C8",
"D.	c #637D85",
"E.	c #D0F4F9",
"F.	c #8EA9AC",
"G.	c #202425",
"H.	c #163239",
"I.	c #036780",
"J.	c #5B9FBE",
"K.	c #68BEE4",
"L.	c #4A7D92",
"M.	c #ACC7CA",
"N.	c #CBF1F6",
"O.	c #4E5C5E",
"P.	c #222627",
"Q.	c #292828",
"R.	c #00576C",
"S.	c #2A7189",
"T.	c #6CBCE1",
"U.	c #55A1C2",
"V.	c #728D93",
"W.	c #CEF2F6",
"X.	c #A7C6CB",
"Y.	c #272D2E",
"Z.	c #313030",
"`.	c #123B44",
" +	c #03708B",
".+	c #5B9DBB",
"++	c #67BDE2",
"@+	c #467284",
"#+	c #B1CDCF",
"$+	c #CEF4F9",
"%+	c #6C8083",
"&+	c #1D2022",
"*+	c #252526",
"=+	c #00627A",
"-+	c #2C7189",
";+	c #539BBC",
">+	c #7A959A",
",+	c #CBEEF3",
"'+	c #BDE0E5",
")+	c #3A4445",
"!+	c #282D2E",
"~+	c #302D2D",
"{+	c #0D4451",
"]+	c #047894",
"^+	c #5C9DBB",
"/+	c #66BBE0",
"(+	c #487180",
"_+	c #B5D3D5",
":+	c #CBF0F6",
"<+	c #8BA5A9",
"[+	c #1C2021",
"}+	c #212728",
"|+	c #00738F",
"1+	c #2B748C",
"2+	c #4F95B4",
"3+	c #849EA3",
"4+	c #C9EDF2",
"5+	c #C6EBF0",
"6+	c #526163",
"7+	c #222527",
"8+	c #2F2A2A",
"9+	c #095162",
"0+	c #057B98",
"a+	c #5A98B5",
"b+	c #63B7DD",
"c+	c #527785",
"d+	c #BCDBDE",
"e+	c #A8C7CB",
"f+	c #262B2D",
"g+	c #2C3233",
"h+	c #313436",
"i+	c #1E272A",
"j+	c #007C9B",
"k+	c #2B7189",
"l+	c #4988A4",
"m+	c #8AA3A7",
"n+	c #C7ECF0",
"o+	c #CAEFF4",
"p+	c #728689",
"q+	c #1E2123",
"r+	c #2D2727",
"s+	c #065D72",
"t+	c #057B99",
"u+	c #5A97B5",
"v+	c #66B8DD",
"w+	c #577A87",
"x+	c #C1E0E3",
"y+	c #C3E6EB",
"z+	c #BBDDE2",
"A+	c #353E3F",
"B+	c #313334",
"C+	c #182C31",
"D+	c #008BAE",
"E+	c #2C748C",
"F+	c #47829C",
"G+	c #91AAAD",
"H+	c #C6EAEF",
"I+	c #8FA9AD",
"J+	c #1D2122",
"K+	c #2B2625",
"L+	c #036C86",
"M+	c #047995",
"N+	c #5895B2",
"O+	c #69BEE3",
"P+	c #67B9DD",
"Q+	c #5EB0D6",
"R+	c #5F808B",
"S+	c #C5E6EA",
"T+	c #BFE3E8",
"U+	c #C6EBF1",
"V+	c #526062",
"W+	c #222628",
"X+	c #313132",
"Y+	c #143037",
"Z+	c #0094B9",
"`+	c #498098",
" @	c #9DB6B8",
".@	c #C5E9EE",
"+@	c #C5E8EE",
"@@	c #ABCACE",
"#@	c #282423",
"$@	c #017794",
"%@	c #67BADF",
"&@	c #58A7CA",
"*@	c #628088",
"=@	c #C7EAEE",
"-@	c #BEE1E6",
";@	c #C9EFF4",
">@	c #6C7F82",
",@	c #1E2224",
"'@	c #302E2E",
")@	c #0F3943",
"!@	c #009EC5",
"~@	c #2D728A",
"{@	c #497E94",
"]@	c #C4E8ED",
"^@	c #C1E5EA",
"/@	c #363F41",
"(@	c #242425",
"_@	c #0086A7",
":@	c #037A98",
"<@	c #5897B5",
"[@	c #55A1C4",
"}@	c #68838A",
"|@	c #C8EBEF",
"1@	c #BFE1E6",
"2@	c #C8EDF2",
"3@	c #1F2425",
"4@	c #2F2B2B",
"5@	c #0C424F",
"6@	c #00A3CB",
"7@	c #2A6B81",
"8@	c #6BBBDF",
"9@	c #4C7E93",
"0@	c #AFCCCE",
"a@	c #BFE2E7",
"b@	c #C7ECF1",
"c@	c #4F5D60",
"d@	c #202527",
"e@	c #0091B5",
"f@	c #037793",
"g@	c #5898B5",
"h@	c #529CBD",
"i@	c #728A90",
"j@	c #C8ECF0",
"k@	c #C4E9EE",
"l@	c #2D2828",
"m@	c #075061",
"n@	c #00A6CE",
"o@	c #2B6B81",
"p@	c #6BBCE0",
"q@	c #4A7788",
"r@	c #B5D2D5",
"s@	c #CAF0F5",
"t@	c #6F8385",
"u@	c #1C2A2E",
"v@	c #009FC6",
"w@	c #047A97",
"x@	c #5999B7",
"y@	c #5097B7",
"z@	c #7A9397",
"A@	c #C8ECF1",
"B@	c #C1E4E9",
"C@	c #3D484A",
"D@	c #2B2727",
"E@	c #065A6F",
"F@	c #00A7D0",
"G@	c #28667C",
"H@	c #64B9DE",
"I@	c #4C7484",
"J@	c #B9D7DA",
"K@	c #505E60",
"L@	c #232323",
"M@	c #0087A8",
"N@	c #047C9A",
"O@	c #5A98B6",
"P@	c #4F93B1",
"Q@	c #89A3A7",
"R@	c #B8DADF",
"S@	c #343C3D",
"T@	c #303435",
"U@	c #1E2E33",
"V@	c #008BAD",
"W@	c #296A81",
"X@	c #6BBCE1",
"Y@	c #61B6DB",
"Z@	c #4F727E",
"`@	c #BEDDE0",
" #	c #98B4B8",
".#	c #212527",
"+#	c #313131",
"@#	c #153F48",
"##	c #03738F",
"$#	c #5A9BB9",
"%#	c #4A8AA6",
"&#	c #91AAAE",
"*#	c #D2F8FD",
"=#	c #718588",
"-#	c #303030",
";#	c #093943",
">#	c #256E86",
",#	c #66B9DD",
"'#	c #5FB2D7",
")#	c #557580",
"!#	c #C9EBEE",
"~#	c #536264",
"{#	c #24282A",
"]#	c #0E242A",
"^#	c #6CC3EA",
"/#	c #68BCE0",
"(#	c #67BBDF",
"_#	c #4A86A1",
":#	c #94AEB0",
"<#	c #3F494B",
"[#	c #2A2F31",
"}#	c #242526",
"|#	c #213A45",
"1#	c #5AA4C5",
"2#	c #569CBB",
"3#	c #589FBF",
"4#	c #58A0C0",
"5#	c #5CA8C9",
"6#	c #5DA9CA",
"7#	c #5DA9CB",
"8#	c #5DAACC",
"9#	c #5EABCD",
"0#	c #5FACCE",
"a#	c #5FADCF",
"b#	c #60AED1",
"c#	c #60AFD2",
"d#	c #60B0D3",
"e#	c #61B0D3",
"f#	c #61B1D5",
"g#	c #62B3D6",
"h#	c #62B3D7",
"i#	c #63B5D9",
"j#	c #64B6DA",
"k#	c #64B6DB",
"l#	c #64B7DB",
"m#	c #65B8DD",
"n#	c #66BADE",
"o#	c #66BADF",
"p#	c #66BBDF",
"q#	c #67BCE1",
"r#	c #68BEE3",
"s#	c #64BAE0",
"t#	c #44626C",
"u#	c #292C2D",
"v#	c #2B3032",
"w#	c #242B2D",
"x#	c #242B2E",
"y#	c #232A2D",
"z#	c #242C2E",
"A#	c #242C2F",
"B#	c #242D31",
"C#	c #242D30",
"D#	c #252E32",
"E#	c #252F33",
"F#	c #253035",
"G#	c #253034",
"H#	c #263236",
"I#	c #263237",
"J#	c #263338",
"K#	c #273439",
"L#	c #27353B",
"M#	c #27363B",
"N#	c #28373D",
"O#	c #28373E",
"P#	c #28383E",
"Q#	c #283940",
"R#	c #293A42",
"S#	c #293B43",
"T#	c #293C43",
"U#	c #2A3D45",
"V#	c #2A3E47",
"W#	c #2B3F47",
"X#	c #2B3F48",
"Y#	c #2B414A",
"Z#	c #2B4149",
"`#	c #2C424B",
" $	c #2C424C",
".$	c #2C434D",
"+$	c #2C444E",
"@$	c #2D4651",
"#$	c #2E4751",
"$$	c #2E4853",
"%$	c #314E5B",
"&$	c #18252B",
"*$	c #242728",
". . . . . . . . . . . . . . . . . . . . . . + @ # $ . . . . . . . . . . . . . . . . . . . . . . ",
". . . . . . . . . . . . . . . . . . . . . . % & * = - . . . . . . . . . . . . . . . . . . . . . ",
". . . . . . . . . . . . . . . . . . . . . + ; > , ' $ . . . . . . . . . . . . . . . . . . . . . ",
". . . . . . . . . . . . . . . . . . . . . ) ! ~ { ] ^ / . . . . . . . . . . . . . . . . . . . . ",
". . . . . . . . . . . . . . . . . . . . $ ( _ : : < [ . . . . . . . . . . . . . . . . . . . . . ",
". . . . . . . . . . . . . . . . . . . . } | ~ 1 2 3 4 5 + . . . . . . . . . . . . . . . . . . . ",
". . . . . . . . . . . . . . . . . . . 6 7 8 9 0 0 a b c d + . . . . . . . . . . . . . . . . . . ",
". . . . . . . . . . . . . . . . . . . e f g h 0 0 i j k l m . . . . . . . . . . . . . . . . . . ",
". . . . . . . . . . . . . . . . . . n o p q 0 0 0 0 r s t u / . . . . . . . . . . . . . . . . . ",
". . . . . . . . . . . . . . . . . v w x y z 0 0 0 0 A B C D E . . . . . . . . . . . . . . . . . ",
". . . . . . . . . . . . . . . . . F G H I 0 0 0 0 0 0 J K L M + . . . . . . . . . . . . . . . . ",
". . . . . . . . . . . . . . . . + N O P h 0 0 0 0 0 0 Q R S T U + . . . . . . . . . . . . . . . ",
". . . . . . . . . . . . . . . . V W X Y 0 0 0 0 0 0 0 0 Z `  ...+.. . . . . . . . . . . . . . . ",
". . . . . . . . . . . . . . . + d @.g h 0 0 0 0 0 0 0 0 #.$.%.&.*.+ . . . . . . . . . . . . . . ",
". . . . . . . . . . . . . . . =.-.;.>.0 0 0 0 0 0 0 0 0 0 ,.'.).!.E . . . . . . . . . . . . . . ",
". . . . . . . . . . . . . . ~.{.].^.h 0 0 0 0 0 0 0 0 0 0 { /.(._.:.+ . . . . . . . . . . . . . ",
". . . . . . . . . . . . . . <.[.}.|.0 0 0 0 0 0 0 0 0 0 0 2 1.2.3.4.5.+ . . . . . . . . . . . . ",
". . . . . . . . . . . . . 6.7.8.9.h 0 0 0 0 0 0 0 0 0 0 0 0 0.a.b.c.d.e.. . . . . . . . . . . . ",
". . . . . . . . . . . . - f.g.h.|.0 0 0 0 0 0 0 0 0 0 0 0 0 i.j.k.l.m.n.+ . . . . . . . . . . . ",
". . . . . . . . . . . . o.p.q.r.h 0 0 0 0 0 0 0 0 0 0 0 0 0 0 0.s.t.u.v.w.. . . . . . . . . . . ",
". . . . . . . . . . . + x.y.z.A.0 0 0 0 0 0 0 0 0 0 0 0 0 0 0 B.C.D.E.F.G.. . . . . . . . . . . ",
". . . . . . . . . . . =.H.I.J.h 0 0 0 0 0 0 0 0 0 0 0 0 0 0 0 0 K.L.M.N.O.P.+ . . . . . . . . . ",
". . . . . . . . . . + Q.R.S.T.0 0 0 0 0 0 0 0 0 0 0 0 0 0 0 0 0 i U.V.W.X.Y.m . . . . . . . . . ",
". . . . . . . . . . Z.`. +.+h 0 0 0 0 0 0 0 0 0 0 0 0 0 0 0 0 0 0 ++@+#+$+%+&++ . . . . . . . . ",
". . . . . . . . . ~.*+=+-+|.0 0 0 0 0 0 0 0 0 0 0 0 0 0 0 0 0 0 0 A ;+>+,+'+)+!+. . . . . . . . ",
". . . . . . . . . ~+{+]+^+z 0 0 0 0 0 0 0 0 0 0 0 0 0 0 0 0 0 0 0 0 /+(+_+:+<+[++ . . . . . . . ",
". . . . . . . . ~.}+|+1+A.0 0 0 0 0 0 0 0 0 0 0 0 0 0 0 0 0 0 0 0 0 h 2+3+4+5+6+7++ . . . . . . ",
". . . . . . . - 8+9+0+a+h 0 0 0 0 0 0 0 0 0 0 0 0 0 0 0 0 0 0 0 0 0 0 b+c+d+5+e+f+g+. . . . . . ",
". . . . . . . h+i+j+k+|.0 0 0 0 0 0 0 0 0 0 0 0 0 0 0 0 0 0 0 0 0 0 0 { l+m+n+o+p+q++ . . . . . ",
". . . . . . + r+s+t+u+h 0 0 0 0 0 0 0 0 0 0 0 0 0 0 0 0 0 0 0 0 0 0 0 v+,.w+x+y+z+A+E . . . . . ",
". . . . . . B+C+D+E+|.0 0 0 0 0 0 0 0 0 0 0 0 0 0 0 0 0 0 0 0 0 0 0 0 0 0.F+G+H+4+I+J+. . . . . ",
". . . . . + K+L+M+N+O+0 0 0 0 0 0 0 0 0 0 0 0 0 0 0 0 0 0 0 0 0 0 0 0 0 P+Q+R+S+T+U+V+W++ . . . ",
". . . . . X+Y+Z+-+A.0 0 0 0 0 0 0 0 0 0 0 0 0 0 0 0 0 0 0 0 0 0 0 0 0 0 0 0.`+ @.@+@@@f+m . . . ",
". . . . + #@$@]+N+O+0 0 0 0 0 0 0 0 0 0 0 0 0 0 0 0 0 0 0 0 0 0 0 0 0 0 0 %@&@*@=@-@;@>@,@+ . . ",
". . . . '@)@!@~@|.0 0 0 0 0 0 0 0 0 0 0 0 0 0 0 0 0 0 0 0 0 0 0 0 0 0 0 0 0 0.{@ .]@^@'+/@w.. . ",
". . . ~.(@_@:@<@Q 0 0 0 0 0 0 0 0 0 0 0 0 0 0 0 0 0 0 0 0 0 0 0 0 0 0 0 0 0 i [@}@|@1@2@I+3@+ . ",
". . v 4@5@6@7@8@0 0 0 0 0 0 0 0 0 0 0 0 0 0 0 0 0 0 0 0 0 0 0 0 0 0 0 0 0 0 0 r 9@0@u.a@b@c@7++ ",
". . 6.d@e@f@g@O+0 0 0 0 0 0 0 0 0 0 0 0 0 0 0 0 0 0 0 0 0 0 0 0 0 0 0 0 0 0 0 A h@i@j@a@k@e+Y.e.",
". + l@m@n@o@p@0 0 0 0 0 0 0 0 0 0 0 0 0 0 0 0 0 0 0 0 0 0 0 0 0 0 0 0 0 0 0 0 0 J q@r@^@a@s@t@q+",
". o.u@v@w@x@h 0 0 0 0 0 0 0 0 0 0 0 0 0 0 0 0 0 0 0 0 0 0 0 0 0 0 0 0 0 0 0 0 0 h y@z@A@a@B@-@C@",
"+ D@E@F@G@p@0 0 0 0 0 0 0 0 0 0 0 0 0 0 0 0 0 0 0 0 0 0 0 0 0 0 0 0 0 0 0 0 0 0 0 H@I@J@B@a@b@K@",
"~.L@M@N@O@h 0 0 0 0 0 0 0 0 0 0 0 0 0 0 0 0 0 0 0 0 0 0 0 0 0 0 0 0 0 0 0 0 0 0 0 O+P@Q@A@B@R@S@",
"T@U@V@W@X@0 0 0 0 0 0 0 0 0 0 0 0 0 0 0 0 0 0 0 0 0 0 0 0 0 0 0 0 0 0 0 0 0 0 0 0 v+Y@Z@`@b@ #.#",
"+#@###$#h 0 0 0 0 0 0 0 0 0 0 0 0 0 0 0 0 0 0 0 0 0 0 0 0 0 0 0 0 0 0 0 0 0 0 0 0 0 #.%#&#*#=#q+",
"-#;#>#T.0 0 0 0 0 0 0 0 0 0 0 0 0 0 0 0 0 0 0 0 0 0 0 0 0 0 0 0 0 0 0 0 0 0 0 0 0 0 ,#'#)#!#~#{#",
"w ]#P ^#h h A A A /#i i i i i i B.(#(#%@%@%@%@%@i.i.i.i.i.2 2 2 P+P+P+P+,#,#,#v+v+v+0 0._#:#<#[#",
"}#|#1#2#3#4#g 1#1#5#6#7#8#8#9#9#0#a#a#b#b#c#d#e#f#f#g#h#h#i#i#j#k#l#m#m#n#o#p#q#q#q#q#r#s#t#u#. ",
"v#w#x#y#x#z#A#B#C#D#D#E#F#G#H#I#J#K#K#L#M#N#O#P#Q#Q#R#S#T#U#U#V#W#X#Y#Z#`# $.$+$+$@$#$$$%$&$*$+ "};
