/* XPM */
static const char * btnSetPoints_xpm[] = {
"9 9 2 1",
" 	c None",
".	c #000000",
"    .    ",
"    .    ",
"    .    ",
"    .    ",
".........",
"    .    ",
"    .    ",
"    .    ",
"    .    "};
