/* XPM */
static const char * btnSetSeedPoint_xpm[] = {
"48 48 203 2",
"  	c None",
". 	c #346B78",
"+ 	c #2F7181",
"@ 	c #2D7485",
"# 	c #316F7E",
"$ 	c #366874",
"% 	c #307180",
"& 	c #1D87A1",
"* 	c #05A4CA",
"= 	c #00AAD3",
"- 	c #0D9ABC",
"; 	c #238097",
"> 	c #277A8E",
", 	c #01A9D2",
"' 	c #08A1C6",
") 	c #336C7A",
"! 	c #39656F",
"~ 	c #02A7CF",
"{ 	c #1E859E",
"] 	c #5B6C6F",
"^ 	c #1399B9",
"/ 	c #397E8F",
"( 	c #6B7D81",
"_ 	c #7DA6AF",
": 	c #2895AF",
"< 	c #00AAD2",
"[ 	c #04A5CC",
"} 	c #4891A2",
"| 	c #8CAAAF",
"1 	c #4F8B98",
"2 	c #BFE2E7",
"3 	c #AECFD4",
"4 	c #72A1AB",
"5 	c #4C96A7",
"6 	c #3892A7",
"7 	c #2B92AA",
"8 	c #2194B0",
"9 	c #3191A8",
"0 	c #3D93A7",
"a 	c #5A99A7",
"b 	c #86AEB5",
"c 	c #BCDEE3",
"d 	c #A2C0C5",
"e 	c #1D869F",
"f 	c #2C7484",
"g 	c #3D90A3",
"h 	c #BEE1E6",
"i 	c #BDDFE4",
"j 	c #B7D8DD",
"k 	c #BFE1E6",
"l 	c #91B4B9",
"m 	c #07A1C6",
"n 	c #2D7183",
"o 	c #3F7480",
"p 	c #0BA0C4",
"q 	c #83A8AF",
"r 	c #54909F",
"s 	c #3F727E",
"t 	c #72888C",
"u 	c #2797B2",
"v 	c #149CBC",
"w 	c #6197A3",
"x 	c #A2C4C9",
"y 	c #BBDDE2",
"z 	c #8AB0B8",
"A 	c #4590A2",
"B 	c #03A6CE",
"C 	c #2994AE",
"D 	c #74898B",
"E 	c #899B9D",
"F 	c #A0C4CB",
"G 	c #4290A3",
"H 	c #06A3C9",
"I 	c #139ABA",
"J 	c #4091A6",
"K 	c #5296A5",
"L 	c #5E9AA8",
"M 	c #649CA8",
"N 	c #5999A8",
"O 	c #4E96A6",
"P 	c #3192A9",
"Q 	c #06A2C8",
"R 	c #4691A3",
"S 	c #A3C6CC",
"T 	c #879A9B",
"U 	c #8AAFB6",
"V 	c #5B98A4",
"W 	c #3A8FA2",
"X 	c #2A91AA",
"Y 	c #1697B5",
"Z 	c #0B9CBF",
"` 	c #1697B6",
" .	c #2A90A9",
"..	c #3B8FA2",
"+.	c #5D98A5",
"@.	c #8EB2B9",
"#.	c #B9DADE",
"$.	c #AECBD0",
"%.	c #A0BFC4",
"&.	c #B9DADF",
"*.	c #7C8B8E",
"=.	c #7A888B",
"-.	c #A6C0C5",
";.	c #A1BCBF",
">.	c #90A5A8",
",.	c #8DA2A5",
"'.	c #6D7779",
").	c #829293",
"!.	c #95AAAE",
"~.	c #A5BFC3",
"{.	c #B3D2D7",
"].	c #B2D1D6",
"^.	c #A6C1C4",
"/.	c #94A9AD",
"(.	c #819394",
"_.	c #5F6767",
":.	c #A1BBC0",
"<.	c #9BB3B6",
"[.	c #676F72",
"}.	c #BDE0E4",
"|.	c #A9C5C9",
"1.	c #B5D5DA",
"2.	c #9CB4B8",
"3.	c #8FA3A7",
"4.	c #A6C0C4",
"5.	c #BD294D",
"6.	c #BF264B",
"7.	c #94636F",
"8.	c #8C9EA0",
"9.	c #9DB4B8",
"0.	c #AD415B",
"a.	c #9E5567",
"b.	c #87999A",
"c.	c #93A9AC",
"d.	c #829294",
"e.	c #8FA3A6",
"f.	c #7C8C8D",
"g.	c #8CA0A2",
"h.	c #768485",
"i.	c #899C9E",
"j.	c #936671",
"k.	c #936571",
"l.	c #787579",
"m.	c #889094",
"n.	c #946370",
"o.	c #985D6A",
"p.	c #8E6A74",
"q.	c #A15165",
"r.	c #97485C",
"s.	c #926F7B",
"t.	c #A44D62",
"u.	c #A15164",
"v.	c #B73152",
"w.	c #995C6B",
"x.	c #A03B54",
"y.	c #87626F",
"z.	c #AC2D4C",
"A.	c #825966",
"B.	c #B6294B",
"C.	c #884B5B",
"D.	c #BE264B",
"E.	c #9C364F",
"F.	c #9B5969",
"G.	c #936C76",
"H.	c #996270",
"I.	c #956874",
"J.	c #946470",
"K.	c #9B5869",
"L.	c #975E6C",
"M.	c #995D6B",
"N.	c #906872",
"O.	c #94636E",
"P.	c #BC2C4F",
"Q.	c #A88C92",
"R.	c #CD97A2",
"S.	c #B59098",
"T.	c #A05366",
"U.	c #A24E63",
"V.	c #AB435C",
"W.	c #B53453",
"X.	c #AA8C92",
"Y.	c #CF98A3",
"Z.	c #B79198",
"`.	c #A05265",
" +	c #9C5869",
".+	c #9A5B6A",
"++	c #9A5A69",
"@+	c #96858A",
"#+	c #A18A8F",
"$+	c #99878C",
"%+	c #8F6B73",
"&+	c #94646F",
"*+	c #8F6B74",
"=+	c #95626F",
"-+	c #916A73",
";+	c #9B5A6A",
">+	c #B92E50",
",+	c #BB2C4E",
"'+	c #B23956",
")+	c #9F5466",
"!+	c #A15064",
"~+	c #985E6C",
"{+	c #926671",
"                                      . + @ # $                                                 ",
"                                % & * = = = = = - ;                                             ",
"                              > , = = = = = = = = = ' )                                         ",
"                            ! ~ = = = = = = = = = = = {                                         ",
"                            ] ^ = = = = = = = = = = = /                                         ",
"                            ( _ : < = = = = = = = [ } |                                         ",
"                            1 2 3 4 5 6 7 8 9 0 a b c d e                                       ",
"                          f g h 2 2 2 2 i j k 2 2 2 2 l m n                                     ",
"                          o p q 2 2 2 2 2 2 2 2 2 2 c r = s                                     ",
"                          t u v w x 2 2 2 2 2 2 y z A B C D                                     ",
"                          E F G H I J K L M N O P H Q R S T                                     ",
"                          E 2 c U V W X Y Z `  ...+.@.i 2 T                                     ",
"                          E 2 2 2 2 2 #.$.%.$.&.2 2 2 2 2 T                                     ",
"                          E 2 2 2 2 2 2 2 2 2 2 2 2 2 2 2 T                                     ",
"                          E 2 2 2 2 2 2 2 2 2 2 2 2 2 2 2 T                                     ",
"                          *.2 2 2 2 2 2 2 2 2 2 2 2 2 2 2 =.                                    ",
"                            -.2 2 2 2 2 2 2 2 2 2 2 2 2 ;.                                      ",
"                              >.i 2 2 2 2 2 2 2 2 2 y ,.                                        ",
"                                '.).!.~.{.i ].^./.(.                                            ",
"                                      _.:.<.[.                                                  ",
"                                        {.}.                                                    ",
"                                        |.1.                                                    ",
"                                        2.$.                                                    ",
"                                        3.4.                                                    ",
"  5.6.6.6.6.7.                          8.9.                            0.6.6.6.6.a.            ",
"  5.6.6.6.6.7.                          b.c.                            0.6.6.6.6.a.            ",
"  5.6.6.6.6.7.                          d.e.                            0.6.6.6.6.a.            ",
"  5.6.6.6.6.7.                          f.g.                            0.6.6.6.6.a.            ",
"  5.6.6.6.6.7.                          h.i.                            0.6.6.6.6.a.            ",
"  j.k.k.k.k.                            l.m.                            n.o.o.o.o.p.            ",
"  5.6.6.6.6.7.                      q.6.r.s.6.0.            t.6.6.6.6.u.            v.6.6.6.6.w.",
"  5.6.6.6.6.7.                      q.6.x.y.6.0.            t.6.6.6.6.u.            v.6.6.6.6.w.",
"  5.6.6.6.6.7.                      q.6.z.A.6.0.            t.6.6.6.6.u.            v.6.6.6.6.w.",
"  5.6.6.6.6.7.                      q.6.B.C.6.0.            t.6.6.6.6.u.            v.6.6.6.6.w.",
"  5.6.6.6.6.7.                      q.6.D.E.6.0.            t.6.6.6.6.u.            v.6.6.6.6.w.",
"  F.F.F.F.F.                        G.H.H.H.H.I.            J.K.K.K.K.k.            L.M.M.M.M.N.",
"            O.5.5.5.5.P.            Q.R.R.R.R.S.T.5.5.5.5.U.            V.5.5.5.5.K.W.5.5.5.5.w.",
"            O.6.6.6.6.5.            X.Y.Y.Y.Y.Z.`.6.6.6.6.t.            0.6.6.6.6. +v.6.6.6.6.w.",
"            O.6.6.6.6.5.            X.Y.Y.Y.Y.Z.`.6.6.6.6.t.            0.6.6.6.6. +v.6.6.6.6.w.",
"            O.6.6.6.6.5.            X.Y.Y.Y.Y.Z.`.6.6.6.6.t.            0.6.6.6.6. +v.6.6.6.6.w.",
"            O.6.6.6.6.5.            X.Y.Y.Y.Y.Z.`.6.6.6.6.t.            0.6.6.6.6. +v.6.6.6.6.w.",
"              .+.+.+.+++            @+#+#+#+#+$+%+&+&+&+&+*+            =+.+.+.+.+-+M.;+;+;+;+  ",
"  >+,+,+,+,+&+          M.,+,+,+,+'+            )+,+,+,+,+!+!+,+,+,+,+)+                        ",
"  5.6.6.6.6.7.          w.6.6.6.6.W.            u.6.6.6.6.t.t.6.6.6.6.u.                        ",
"  5.6.6.6.6.7.          w.6.6.6.6.W.            u.6.6.6.6.t.t.6.6.6.6.u.                        ",
"  5.6.6.6.6.7.          w.6.6.6.6.W.            u.6.6.6.6.t.t.6.6.6.6.u.                        ",
"  5.6.6.6.6.7.          w.6.6.6.6.W.            u.6.6.6.6.t.t.6.6.6.6.u.                        ",
"  .+;+;+;+;+              ;+;+;+;+~+            {+;+;+;+;+{+{+;+;+;+;+{+                        "};