/* XPM */
static const char * QmitkStandardViewsDialogBar_xpm[] = {
"22 22 5 1",
" 	c None",
".	c #02C01D",
"+	c #4B4BD0",
"@	c #0000CC",
"#	c #00006A",
"          .           ",
"          .           ",
"          .           ",
"        +@@@#         ",
"       +@@@@@#        ",
"       +@@@@@#    .   ",
"       +@@@@@#   .    ",
"        +@@@#   .     ",
"         +@#   .      ",
"    +@@@@@@@@@@@#     ",
"   +@@@@@@@@@@@@@#    ",
"   +@@@@@@@@@@@@@#    ",
"  +@@+@@@@@@@@@#@@#   ",
".....+@@@@@@@@@#......",
"  +@#+@@@.@@@@@#@@#   ",
"  +@#+@@.@@@@@@#@@#   ",
"  +@#+@.@@@@@@@#@@#   ",
"     +.@@@@@@@@#      ",
"     .@@@@@@@@@#      ",
"    .+@@@@@@@@@#      ",
"   .      .           ",
"  .       .           "};
