<?xml version="1.0" encoding="UTF-8" standalone="no"?>
<svg
   height="128"
   width="128"
   version="1.1"
   id="svg6"
   sodipodi:docname="icon_find.svg"
   inkscape:version="1.2.2 (732a01da63, 2022-12-09)"
   xmlns:inkscape="http://www.inkscape.org/namespaces/inkscape"
   xmlns:sodipodi="http://sodipodi.sourceforge.net/DTD/sodipodi-0.dtd"
   xmlns="http://www.w3.org/2000/svg"
   xmlns:svg="http://www.w3.org/2000/svg">
  <defs
     id="defs10" />
  <sodipodi:namedview
     id="namedview8"
     pagecolor="#505050"
     bordercolor="#eeeeee"
     borderopacity="1"
     inkscape:showpageshadow="0"
     inkscape:pageopacity="0"
     inkscape:pagecheckerboard="0"
     inkscape:deskcolor="#505050"
     showgrid="false"
     inkscape:zoom="8.0234375"
     inkscape:cx="63.937683"
     inkscape:cy="63.937683"
     inkscape:window-width="5120"
     inkscape:window-height="1377"
     inkscape:window-x="-8"
     inkscape:window-y="-8"
     inkscape:window-maximized="1"
     inkscape:current-layer="svg6" />
  <path
     d="M50.2 0C22.551 0 0 22.468 0 50.016s22.551 50.018 50.2 50.018a49.93 49.93 0 0 0 25.665-7.071 12.048 12.004 0 0 0 1.808 2.27l29.818 29.308a12.048 12.004 0 0 0 17.039-.115 12.048 12.004 0 0 0-.116-16.974l-29.818-29.31a12.048 12.004 0 0 0-1.935-1.543c4.774-7.545 7.589-16.435 7.708-25.955a6.406 6.383 0 0 0 .031-.627 6.406 6.383 0 0 0-.033-.645C100.014 22.123 77.63 0 50.2 0zm0 12.768c20.724 0 37.387 16.6 37.387 37.248S70.924 87.266 50.2 87.266s-37.387-16.602-37.387-37.25S29.476 12.768 50.2 12.768z"
     fill="#00ff00"
     id="path4" />
</svg>
