<?xml version="1.0" encoding="UTF-8" standalone="no"?>
<svg
   xmlns:dc="http://purl.org/dc/elements/1.1/"
   xmlns:cc="http://creativecommons.org/ns#"
   xmlns:rdf="http://www.w3.org/1999/02/22-rdf-syntax-ns#"
   xmlns:svg="http://www.w3.org/2000/svg"
   xmlns="http://www.w3.org/2000/svg"
   xmlns:sodipodi="http://sodipodi.sourceforge.net/DTD/sodipodi-0.dtd"
   xmlns:inkscape="http://www.inkscape.org/namespaces/inkscape"
   version="1.1"
   id="svg6029"
   viewBox="0 0 100 100"
   height="100"
   width="100"
   sodipodi:docname="visible.svg"
   inkscape:version="0.92.2 (5c3e80d, 2017-08-06)">
  <sodipodi:namedview
     pagecolor="#ffffff"
     bordercolor="#666666"
     borderopacity="1"
     objecttolerance="10"
     gridtolerance="10"
     guidetolerance="10"
     inkscape:pageopacity="0"
     inkscape:pageshadow="2"
     inkscape:window-width="1775"
     inkscape:window-height="1076"
     id="namedview7"
     showgrid="false"
     inkscape:zoom="2.36"
     inkscape:cx="50"
     inkscape:cy="50"
     inkscape:window-x="0"
     inkscape:window-y="0"
     inkscape:window-maximized="0"
     inkscape:current-layer="svg6029" />
  <defs
     id="defs6031" />
  <metadata
     id="metadata6034">
    <rdf:RDF>
      <cc:Work
         rdf:about="">
        <dc:format>image/svg+xml</dc:format>
        <dc:type
           rdf:resource="http://purl.org/dc/dcmitype/StillImage" />
        <dc:title></dc:title>
      </cc:Work>
    </rdf:RDF>
  </metadata>
  <g
     transform="matrix(0.9319712,0,0,0.9319712,3.3182284,-884.17265)"
     id="layer1"
     style="stroke-width:1.07299459">
    <path
       style="color:#000000;clip-rule:nonzero;display:inline;overflow:visible;visibility:visible;opacity:1;isolation:auto;mix-blend-mode:normal;color-interpolation:sRGB;color-interpolation-filters:linearRGB;solid-color:#000000;solid-opacity:1;fill:#00ff00;fill-opacity:1;fill-rule:nonzero;stroke:none;stroke-width:1.07299459;stroke-linecap:butt;stroke-linejoin:miter;stroke-miterlimit:4;stroke-dasharray:none;stroke-dashoffset:0;stroke-opacity:1;color-rendering:auto;image-rendering:auto;shape-rendering:auto;text-rendering:auto;enable-background:accumulate"
       d="m 92.800149,1002.362 q -8.453187,-14.09918 -21.188593,-21.08913 3.392401,6.21324 3.392401,13.44227 0,11.05236 -7.31312,18.90856 -7.313126,7.8561 -17.601549,7.8561 -10.288428,0 -17.601547,-7.8561 -7.313127,-7.8562 -7.313127,-18.90856 0,-7.22903 3.392401,-13.44227 -12.735401,6.98995 -21.1885963,21.08913 7.3965423,12.2475 18.5469703,19.5063 11.150427,7.2587 24.163899,7.2587 13.013467,0 24.163892,-7.2587 11.150427,-7.2588 18.546969,-19.5063 z M 52.758714,979.42083 q 0,-1.19493 -0.778582,-2.0313 -0.778584,-0.8364 -1.890844,-0.8364 -6.95164,0 -11.929013,5.34708 -4.977374,5.34695 -4.977374,12.81493 0,1.19479 0.778581,2.03116 0.778587,0.8364 1.890846,0.8364 1.112263,0 1.890845,-0.8364 0.778587,-0.83637 0.778587,-2.03116 0,-5.13793 3.392398,-8.78233 3.3924,-3.64431 8.17513,-3.64431 1.11226,0 1.890844,-0.83639 0.778582,-0.83638 0.778582,-2.03128 z M 99.91863,1002.362 q 0,2.0314 -1.112262,4.1223 -7.785837,13.741 -20.938332,22.0154 -13.152503,8.2744 -27.778748,8.2744 -14.626251,0 -27.778753,-8.3044 -13.1524952,-8.3041 -20.9383297,-21.9854 -1.11226422,-2.0909 -1.11226422,-4.1223 0,-2.0311 1.11226422,-4.12207 7.7858345,-13.68117 20.9383297,-21.98551 13.152502,-8.30424 27.778753,-8.30424 14.626245,0 27.778748,8.30424 13.152495,8.30434 20.938332,21.98551 1.112262,2.09097 1.112262,4.12207 z"
       id="path6594"
       inkscape:connector-curvature="0" />
  </g>
</svg>
