/* XPM */
static char * btnSetPoints_xpm[] = {
"30 30 65 1",
" 	c None",
".	c #FFFFFF",
"+	c #444444",
"@	c #CFCFCF",
"#	c #9D9D9D",
"$	c #9F9F9F",
"%	c #D2D2D2",
"&	c #F3F3F3",
"*	c #797979",
"=	c #717171",
"-	c #A4A4A4",
";	c #A1A1A1",
">	c #818181",
",	c #F5F5F5",
"'	c #9A9A9A",
")	c #F7FAF7",
"!	c #979997",
"~	c #858685",
"{	c #F2F6F2",
"]	c #7D7E7D",
"^	c #C2C2C2",
"/	c #6E6E6E",
"(	c #C5CAC5",
"_	c #ECF2EC",
":	c #BDC4BE",
"<	c #767676",
"[	c #606060",
"}	c #C6CFC7",
"|	c #DFEAE0",
"1	c #030303",
"2	c #6B6B6B",
"3	c #939393",
"4	c #8B918B",
"5	c #D9E6DA",
"6	c #2D2D2D",
"7	c #3B3D3B",
"8	c #454545",
"9	c #C7D5C8",
"0	c #D4E2D5",
"a	c #050505",
"b	c #040404",
"c	c #323232",
"d	c #DADADA",
"e	c #EEEEEE",
"f	c #464646",
"g	c #858D86",
"h	c #000000",
"i	c #060606",
"j	c #DFDFDF",
"k	c #8A8A8B",
"l	c #4D4E4D",
"m	c #020202",
"n	c #353535",
"o	c #E7E7E7",
"p	c #010101",
"q	c #1E1E1E",
"r	c #070707",
"s	c #A6A6A7",
"t	c #E8E8E8",
"u	c #131313",
"v	c #0A0A0A",
"w	c #646466",
"x	c #AAAAAB",
"y	c #F8F8F8",
"z	c #F1F1F1",
"..............................",
"..............................",
"..............................",
"..............................",
"..............................",
"..............................",
"..............................",
"...............+..............",
"...............+..............",
".............@#+$%............",
"...........&*=-+;=>,..........",
"...........='))+))!*..........",
"..........$~{{{+{{{]^.........",
"........../(___+___:<.........",
"........+++++++++++++++.......",
"..........[}|||+|1|:2.........",
"..........34555+567.'.........",
"..........&8900+0abcd.........",
"...........efg9+91hi+j........",
"............,kl+l1hmbno.......",
"...............+.ih1bh6e......",
"...............+.ihhphhq......",
"...............+.arihset......",
".................u>kvnj.......",
".................;..whxy......",
".....................u<z......",
"..............................",
"..............................",
"..............................",
".............................."};
