<?xml version="1.0" encoding="UTF-8" standalone="no"?>
<svg
   xmlns:dc="http://purl.org/dc/elements/1.1/"
   xmlns:cc="http://creativecommons.org/ns#"
   xmlns:rdf="http://www.w3.org/1999/02/22-rdf-syntax-ns#"
   xmlns:svg="http://www.w3.org/2000/svg"
   xmlns="http://www.w3.org/2000/svg"
   xmlns:sodipodi="http://sodipodi.sourceforge.net/DTD/sodipodi-0.dtd"
   xmlns:inkscape="http://www.inkscape.org/namespaces/inkscape"
   width="113.89831"
   height="81.355904"
   viewBox="0 0 113.89831 81.355904"
   id="svg2"
   version="1.1"
   inkscape:version="0.92.3 (2405546, 2018-03-11)"
   sodipodi:docname="video-camera.svg">
  <metadata
     id="metadata10">
    <rdf:RDF>
      <cc:Work
         rdf:about="">
        <dc:format>image/svg+xml</dc:format>
        <dc:type
           rdf:resource="http://purl.org/dc/dcmitype/StillImage" />
        <dc:title></dc:title>
      </cc:Work>
    </rdf:RDF>
  </metadata>
  <defs
     id="defs8" />
  <sodipodi:namedview
     pagecolor="#ffffff"
     bordercolor="#666666"
     borderopacity="1"
     objecttolerance="10"
     gridtolerance="10"
     guidetolerance="10"
     inkscape:pageopacity="0"
     inkscape:pageshadow="2"
     inkscape:window-width="1680"
     inkscape:window-height="988"
     id="namedview6"
     showgrid="false"
     inkscape:zoom="0.13169643"
     inkscape:cx="896.00001"
     inkscape:cy="640.00001"
     inkscape:window-x="-8"
     inkscape:window-y="-8"
     inkscape:window-maximized="1"
     inkscape:current-layer="svg2"
     fit-margin-top="0"
     fit-margin-left="0"
     fit-margin-right="0"
     fit-margin-bottom="0" />
  <path
     d="m 113.89831,6.1017 v 69.1525 q 0,2.6695 -2.47882,3.75 -0.82627,0.3178 -1.58898,0.3178 -1.7161,0 -2.86017,-1.2076 L 81.355932,52.5 v 10.5508 q 0,7.5636 -5.370763,12.9343 -5.370762,5.3708 -12.934322,5.3708 H 18.305085 q -7.56356,0 -12.9343223,-5.3708 Q 0,70.6144 0,63.0508 V 18.3051 Q 0,10.7415 5.3707627,5.3707 10.741525,0 18.305085,0 h 44.745762 q 7.56356,0 12.934322,5.3707 5.370763,5.3708 5.370763,12.9344 V 28.7923 L 106.97034,3.2415 q 1.14407,-1.2076 2.86017,-1.2076 0.76271,0 1.58898,0.3178 2.47882,1.0805 2.47882,3.75 z"
     id="path4"
     style="fill:#000000;fill-opacity:1;stroke:none;stroke-width:0.06355932"
     inkscape:connector-curvature="0" />
</svg>
