/* XPM */
static const char * icon_xpm[] = {
"32 30 19 1",
" 	c None",
".	c #000000",
"+	c #D6DFD6",
"@	c #DEDBDE",
"#	c #DEDFDE",
"$	c #A5AAA5",
"%	c #ADAAAD",
"&	c #FFCB00",
"*	c #FFFF63",
"=	c #FFFB6B",
"-	c #737973",
";	c #7B757B",
">	c #CE6500",
",	c #FFFFFF",
"'	c #8C868C",
")	c #848A84",
"!	c #C66500",
"~	c #F7CB00",
"{	c #4A414A",
"      ..                        ",
"      .+.                       ",
"      .@#.                      ",
"       .$@.                     ",
"       .$%+.                    ",
"        .%$.                    ",
"        .$%+.                   ",
"         .$%%.                  ",
"         .%%$%.          ....   ",
"          .$%$.         .&***.. ",
"          .%%$%.        .&...=*.",
"           .-;;.     ...&.   .*.",
".....................>&=*&....*.",
" .,,,,,,,,#@@#-')''#.>!>&&&~&~&.",
"  ..)')'@#@#@-',''#. .......... ",
"    ....')')''){)+.             ",
"        ..........              ",
"              .-;.              ",
"              .$.               ",
"               ...              ",
"               .~*.             ",
"               .&*.             ",
"               .!&=.            ",
"                .&*.            ",
"                 .&*.           ",
"                .~.*.           ",
"               .!. .*.          ",
"               .>. .*.          ",
"               .>...&=.         ",
"                .>>>~.          "};
