<?xml version="1.0" encoding="UTF-8"?>
<svg version="1.0" viewBox="0 0 150 150" xml:space="preserve" xmlns="http://www.w3.org/2000/svg" xmlns:cc="http://creativecommons.org/ns#" xmlns:dc="http://purl.org/dc/elements/1.1/" xmlns:rdf="http://www.w3.org/1999/02/22-rdf-syntax-ns#" xmlns:xlink="http://www.w3.org/1999/xlink"><metadata><rdf:RDF><cc:Work rdf:about=""><dc:format>image/svg+xml</dc:format><dc:type rdf:resource="http://purl.org/dc/dcmitype/StillImage"/></cc:Work></rdf:RDF></metadata><defs><linearGradient id="c" x1="150.96" x2="112.03" y1="192.35" y2="137.27" gradientTransform="matrix(.56254 0 0 .56797 -14.991 -11.702)" gradientUnits="userSpaceOnUse"><stop stop-color="#ffd43b" offset="0"/><stop stop-color="#ffe873" offset="1"/></linearGradient><linearGradient id="b" x1="26.649" x2="135.67" y1="20.604" y2="114.4" gradientTransform="matrix(.56254 0 0 .56797 -14.991 -11.702)" gradientUnits="userSpaceOnUse"><stop stop-color="#5a9fd4" offset="0"/><stop stop-color="#306998" offset="1"/></linearGradient><radialGradient id="a" cx="61.519" cy="132.29" r="29.037" gradientTransform="matrix(1.7491e-8 -.23995 1.0547 3.7915e-7 -83.701 142.46)" gradientUnits="userSpaceOnUse"><stop stop-color="#b8b8b8" stop-opacity=".49804" offset="0"/><stop stop-color="#7f7f7f" stop-opacity="0" offset="1"/></radialGradient></defs><g transform="matrix(1 0 0 1 4 4)"><path d="m54.919 9.1927e-4c-4.5837 0.021298-8.9609 0.41222-12.812 1.0938-11.346 2.0045-13.406 6.2001-13.406 13.937v10.219h26.812v3.4062h-36.875c-7.7925 0-14.616 4.6837-16.75 13.594-2.4618 10.213-2.571 16.586 0 27.25 1.9059 7.9379 6.4575 13.594 14.25 13.594h9.2188v-12.25c0-8.8499 7.6571-16.656 16.75-16.656h26.781c7.455 0 13.406-6.1382 13.406-13.625v-25.531c0-7.2663-6.13-12.725-13.406-13.937-4.606-0.76673-9.3851-1.115-13.969-1.0938zm-14.5 8.2188c2.7695 0 5.0312 2.2986 5.0312 5.125-2e-6 2.8163-2.2617 5.0938-5.0312 5.0938-2.7795-1e-6 -5.0312-2.2774-5.0312-5.0938-1e-6 -2.8264 2.2518-5.125 5.0312-5.125z" fill="url(#b)"/><path d="m85.638 28.657v11.906c0 9.2308-7.8259 17-16.75 17h-26.781c-7.3358 0-13.406 6.2785-13.406 13.625v25.531c0 7.2663 6.3186 11.54 13.406 13.625 8.4873 2.4956 16.626 2.9466 26.781 0 6.7502-1.9544 13.406-5.8876 13.406-13.625v-10.219h-26.781v-3.4062h40.188c7.7925 0 10.696-5.4354 13.406-13.594 2.7993-8.3989 2.6802-16.476 0-27.25-1.9258-7.7574-5.6039-13.594-13.406-13.594zm-15.062 64.656c2.7795 3e-6 5.0312 2.2774 5.0312 5.0937-2e-6 2.8264-2.2518 5.125-5.0312 5.125-2.7696 0-5.0312-2.2986-5.0312-5.125 2e-6 -2.8163 2.2617-5.0937 5.0312-5.0937z" fill="url(#c)"/><ellipse cx="55.817" cy="127.7" rx="35.931" ry="6.9673" fill="url(#a)" opacity=".44382"/></g><path d="m110.35 88.813c0.33088-1.6323 1.7757-2.8125 3.4522-2.8125h6.5956c1.6765 0 3.1213 1.1802 3.4522 2.8125l1.5993 7.7206c1.5551 0.66177 3.011 1.511 4.3346 2.5147l7.478-2.4816c1.5882-0.52941 3.3309 0.13235 4.1691 1.5882l3.2978 5.7132c0.83824 1.4559 0.54044 3.2868-0.71692 4.4007l-5.8787 5.2279c0.0992 0.81618 0.14338 1.6544 0.14338 2.5037 0 0.84927-0.0552 1.6875-0.14338 2.5037l5.8897 5.239c1.2574 1.114 1.5441 2.9559 0.71691 4.4007l-3.2978 5.7132c-0.83824 1.4448-2.5809 2.1176-4.1691 1.5882l-7.478-2.4816c-1.3345 1.0037-2.7904 1.8419-4.3346 2.5147l-1.5882 7.7096c-0.34191 1.6434-1.7868 2.8125-3.4522 2.8125h-6.5956c-1.6765 0-3.1213-1.1801-3.4522-2.8125l-1.5882-7.7096c-1.5551-0.66176-3-1.511-4.3346-2.5147l-7.511 2.4816c-1.5882 0.52941-3.3309-0.13235-4.1691-1.5882l-3.2978-5.7132c-0.83824-1.4559-0.54043-3.2868 0.71691-4.4007l5.8897-5.239c-0.09922-0.81616-0.14338-1.6544-0.14338-2.5037 0-0.84926 0.0552-1.6875 0.14338-2.5037l-5.8897-5.239c-1.2573-1.114-1.5441-2.9559-0.71691-4.4007l3.2978-5.7132c0.83824-1.4559 2.5809-2.1176 4.1691-1.5882l7.478 2.4816c1.3346-1.0037 2.7904-1.8419 4.3346-2.5147zm6.75 36.011c4.875-0.022 8.8125-3.9816 8.7905-8.8566-0.022-4.875-3.9816-8.8125-8.8566-8.7904-4.875 0.022-8.8125 3.9816-8.7905 8.8566 0.022 4.875 3.9816 8.8125 8.8566 8.7904z"/></svg>
