<?xml version="1.0" encoding="UTF-8" standalone="no"?>
<svg
   xmlns:dc="http://purl.org/dc/elements/1.1/"
   xmlns:cc="http://creativecommons.org/ns#"
   xmlns:rdf="http://www.w3.org/1999/02/22-rdf-syntax-ns#"
   xmlns:svg="http://www.w3.org/2000/svg"
   xmlns="http://www.w3.org/2000/svg"
   xmlns:sodipodi="http://sodipodi.sourceforge.net/DTD/sodipodi-0.dtd"
   xmlns:inkscape="http://www.inkscape.org/namespaces/inkscape"
   version="1.1"
   id="svg2"
   viewBox="0 0 63.520873 79.318396"
   height="22.385414mm"
   width="17.927002mm"
   sodipodi:docname="image_navigator.svg"
   inkscape:version="0.92.3 (2405546, 2018-03-11)">
  <sodipodi:namedview
     pagecolor="#ffffff"
     bordercolor="#666666"
     borderopacity="1"
     objecttolerance="10"
     gridtolerance="10"
     guidetolerance="10"
     inkscape:pageopacity="0"
     inkscape:pageshadow="2"
     inkscape:window-width="1680"
     inkscape:window-height="988"
     id="namedview11"
     showgrid="false"
     fit-margin-top="0"
     fit-margin-left="0"
     fit-margin-right="0"
     fit-margin-bottom="0"
     inkscape:zoom="0.41627778"
     inkscape:cx="226.05716"
     inkscape:cy="282.27716"
     inkscape:window-x="-8"
     inkscape:window-y="-8"
     inkscape:window-maximized="1"
     inkscape:current-layer="svg2" />
  <defs
     id="defs4">
    <clipPath
       id="clipPath4168"
       clipPathUnits="userSpaceOnUse">
      <rect
         ry="0"
         y="833.07642"
         x="57.857143"
         height="147.14285"
         width="439.28571"
         id="rect4170"
         style="color:#000000;clip-rule:nonzero;display:inline;overflow:visible;visibility:visible;opacity:1;isolation:auto;mix-blend-mode:normal;color-interpolation:sRGB;color-interpolation-filters:linearRGB;solid-color:#000000;solid-opacity:1;fill:#000000;fill-opacity:1;fill-rule:nonzero;stroke:none;stroke-width:1;stroke-linecap:butt;stroke-linejoin:miter;stroke-miterlimit:4;stroke-dasharray:none;stroke-dashoffset:0;stroke-opacity:1;color-rendering:auto;image-rendering:optimizeSpeed;shape-rendering:auto;text-rendering:auto;enable-background:accumulate" />
    </clipPath>
  </defs>
  <metadata
     id="metadata7">
    <rdf:RDF>
      <cc:Work
         rdf:about="">
        <dc:format>image/svg+xml</dc:format>
        <dc:type
           rdf:resource="http://purl.org/dc/dcmitype/StillImage" />
        <dc:title></dc:title>
      </cc:Work>
    </rdf:RDF>
  </metadata>
  <g
     transform="matrix(0.14986386,0,0,0.14986386,-8.065589,-78.225838)"
     id="layer1"
     style="fill:#000000;fill-opacity:1">
    <g
       transform="matrix(0.96582032,0,0,0.96582032,-1.5772305,13.056197)"
       id="g4172"
       style="fill:#000000;fill-opacity:1">
      <path
         id="path4138"
         d="m 158.28572,906.07644 v 36.5715 H 57.714289 v -36.5715 z m 100.57144,-36.5714 q 7.42857,0 12.85714,5.4286 5.42857,5.4285 5.42857,12.8571 v 73.1428 q 0,7.4286 -5.42857,12.8572 -5.42857,5.4286 -12.85714,5.4286 H 185.7143 q -7.42858,0 -12.85715,-5.4286 -5.42857,-5.4286 -5.42857,-12.8572 v -73.1428 q 0,-7.4286 5.42857,-12.8571 5.42857,-5.4286 12.85715,-5.4286 z m 45.71429,-109.7143 v 36.5714 H 57.714289 v -36.5714 z M 121.71429,613.50501 v 36.57143 H 57.714289 v -36.57143 z m 374.85718,292.57143 v 36.5715 H 286.28573 v -36.5715 z M 222.28573,576.93358 q 7.42857,0 12.85714,5.42857 5.42857,5.42857 5.42857,12.85715 v 73.14286 q 0,7.42856 -5.42857,12.85714 -5.42857,5.42857 -12.85714,5.42857 h -73.14286 q -7.42858,0 -12.85715,-5.42857 -5.42857,-5.42858 -5.42857,-12.85714 V 595.2193 q 0,-7.42858 5.42857,-12.85715 5.42857,-5.42857 12.85715,-5.42857 z M 405.1429,723.21934 q 7.42856,0 12.85714,5.4285 5.42857,5.4286 5.42857,12.8571 v 73.1429 q 0,7.4287 -5.42857,12.8572 -5.42858,5.4286 -12.85714,5.4286 h -73.14288 q -7.42857,0 -12.85714,-5.4286 -5.42858,-5.4285 -5.42858,-12.8572 v -73.1429 q 0,-7.4285 5.42858,-12.8571 5.42857,-5.4285 12.85714,-5.4285 z m 91.42857,36.5714 v 36.5714 h -64 v -36.5714 z m 0,-146.28573 v 36.57143 H 249.7143 v -36.57143 z"
         style="color:#000000;clip-rule:nonzero;display:inline;overflow:visible;visibility:visible;opacity:1;isolation:auto;mix-blend-mode:normal;color-interpolation:sRGB;color-interpolation-filters:linearRGB;solid-color:#000000;solid-opacity:1;fill:#000000;fill-opacity:1;fill-rule:nonzero;stroke:none;stroke-width:1;stroke-linecap:butt;stroke-linejoin:miter;stroke-miterlimit:4;stroke-dasharray:none;stroke-dashoffset:0;stroke-opacity:1;color-rendering:auto;image-rendering:auto;shape-rendering:auto;text-rendering:auto;enable-background:accumulate"
         clip-path="url(#clipPath4168)"
         transform="rotate(180,277.00001,753.07645)"
         inkscape:connector-curvature="0" />
      <path
         id="path4138-5"
         d="m 157.92855,1001.7908 v 36.5715 H 57.357118 v -36.5715 z m 100.57144,-36.57144 q 7.42857,0 12.85714,5.4286 5.42857,5.4285 5.42857,12.8571 v 73.14284 q 0,7.4286 -5.42857,12.8572 -5.42857,5.4286 -12.85714,5.4286 h -73.14286 q -7.42858,0 -12.85715,-5.4286 -5.42857,-5.4286 -5.42857,-12.8572 v -73.14284 q 0,-7.4286 5.42857,-12.8571 5.42857,-5.4286 12.85715,-5.4286 z m 45.71429,-109.7143 v 36.5714 H 57.357118 v -36.5714 z M 121.35712,709.21933 v 36.57143 H 57.357118 V 709.21933 Z M 496.2143,1001.7908 v 36.5715 H 285.92856 v -36.5715 z M 221.92856,672.6479 q 7.42857,0 12.85714,5.42857 5.42857,5.42857 5.42857,12.85715 v 73.14286 q 0,7.42856 -5.42857,12.85714 -5.42857,5.42857 -12.85714,5.42857 H 148.7857 q -7.42858,0 -12.85715,-5.42857 -5.42857,-5.42858 -5.42857,-12.85714 v -73.14286 q 0,-7.42858 5.42857,-12.85715 5.42857,-5.42857 12.85715,-5.42857 z m 182.85717,146.28576 q 7.42856,0 12.85714,5.4285 5.42857,5.4286 5.42857,12.8571 v 73.1429 q 0,7.4287 -5.42857,12.8572 -5.42858,5.4286 -12.85714,5.4286 h -73.14288 q -7.42857,0 -12.85714,-5.4286 -5.42858,-5.4285 -5.42858,-12.8572 v -73.1429 q 0,-7.4285 5.42858,-12.8571 5.42857,-5.4285 12.85714,-5.4285 z m 91.42857,36.5714 v 36.5714 h -64 v -36.5714 z m 0,-146.28573 v 36.57143 H 249.35713 v -36.57143 z"
         style="color:#000000;clip-rule:nonzero;display:inline;overflow:visible;visibility:visible;opacity:1;isolation:auto;mix-blend-mode:normal;color-interpolation:sRGB;color-interpolation-filters:linearRGB;solid-color:#000000;solid-opacity:1;fill:#000000;fill-opacity:1;fill-rule:nonzero;stroke:none;stroke-width:1;stroke-linecap:butt;stroke-linejoin:miter;stroke-miterlimit:4;stroke-dasharray:none;stroke-dashoffset:0;stroke-opacity:1;color-rendering:auto;image-rendering:auto;shape-rendering:auto;text-rendering:auto;enable-background:accumulate"
         inkscape:connector-curvature="0" />
    </g>
  </g>
</svg>
