/* XPM */
static const char * iconSettings_xpm[] = {
"32 32 257 2",
"  	c None",
". 	c #355C94",
"+ 	c #A4BAD7",
"@ 	c #CDD1D5",
"# 	c #FCFCFC",
"$ 	c #466DA3",
"% 	c #6F97C9",
"& 	c #3B5A81",
"* 	c #BEC0C2",
"= 	c #ADBFD3",
"- 	c #5B82B5",
"; 	c #A1A29E",
"> 	c #9B9D98",
", 	c #CDD6E1",
"' 	c #54739B",
") 	c #D6DCE1",
"! 	c #5A7CAA",
"~ 	c #DEDEDE",
"{ 	c #A8A9A5",
"] 	c #D9D9D9",
"^ 	c #4C6E9C",
"/ 	c #4C71A2",
"( 	c #F2F2F2",
"_ 	c #C1C2C0",
": 	c #8D96A1",
"< 	c #507AB1",
"[ 	c #DCDCDC",
"} 	c #E8E8E8",
"| 	c #B6C3D3",
"1 	c #C6C9CD",
"2 	c #A6A8A3",
"3 	c #BEBEBF",
"4 	c #F8F8F9",
"5 	c #6E89B2",
"6 	c #FEFEFE",
"7 	c #CACAC8",
"8 	c #9A9B97",
"9 	c #759AC9",
"0 	c #CCCCCC",
"a 	c #BABBB9",
"b 	c #7893B9",
"c 	c #B7B8B6",
"d 	c #E0E1E0",
"e 	c #ACB2BA",
"f 	c #868883",
"g 	c #BFC1C9",
"h 	c #B3BFD1",
"i 	c #B8B9B6",
"j 	c #C7D5E2",
"k 	c #F0F0F0",
"l 	c #A3AEBD",
"m 	c #C6CBD3",
"n 	c #A4A5A1",
"o 	c #BDC9D5",
"p 	c #5B7BA6",
"q 	c #9FA09C",
"r 	c #A0A0A0",
"s 	c #728DB3",
"t 	c #DCE3EC",
"u 	c #3C649B",
"v 	c #EEF0F3",
"w 	c #A6ADB6",
"x 	c #EBEDF0",
"y 	c #C8C8C7",
"z 	c #BDC9DB",
"A 	c #4A72A7",
"B 	c #86A9D4",
"C 	c #B5B6B3",
"D 	c #EEEEEE",
"E 	c #A1A6B1",
"F 	c #37557E",
"G 	c #ADC3DE",
"H 	c #B1B1AE",
"I 	c #D5DADD",
"J 	c #E2E3E2",
"K 	c #EAEAEA",
"L 	c #C1C3CB",
"M 	c #94A6C6",
"N 	c #CBCED4",
"O 	c #5375A3",
"P 	c #C0C1BF",
"Q 	c #6686B4",
"R 	c #9DAFCB",
"S 	c #F3F5F9",
"T 	c #F4F4F4",
"U 	c #F2F3F4",
"V 	c #4F6D94",
"W 	c #9DA3AE",
"X 	c #5C80AC",
"Y 	c #7DA0CC",
"Z 	c #D7D7D6",
"` 	c #A2A4A0",
" .	c #ADACAC",
"..	c #DADBDB",
"+.	c #BBBDC6",
"@.	c #A9AEB9",
"#.	c #D1D4DA",
"$.	c #C9D3DD",
"%.	c #DFE1E5",
"&.	c #9EA6B2",
"*.	c #DADEE2",
"=.	c #C6C6C5",
"-.	c #CED1CE",
";.	c #B6BEC7",
">.	c #BDBEBB",
",.	c #9AA3B0",
"'.	c #AAB1BA",
").	c #F7F7F7",
"!.	c #B1BCC8",
"~.	c #CECFCE",
"{.	c #42638F",
"].	c #C6C8C6",
"^.	c #E4E6E9",
"/.	c #AEB0AD",
"(.	c #BFC0BD",
"_.	c #F7F8FA",
":.	c #ECECEC",
"<.	c #A6A6A3",
"[.	c #6B82A5",
"}.	c #C3D1DF",
"|.	c #D0D1D0",
"1.	c #C3C4C1",
"2.	c #B2B6C0",
"3.	c #B0B6BF",
"4.	c #FDFDFD",
"5.	c #FBFBFD",
"6.	c #F3F3F4",
"7.	c #ABADA9",
"8.	c #AAABA8",
"9.	c #EBECEB",
"0.	c #D4D4D3",
"a.	c #CCCDCA",
"b.	c #C0CCD9",
"c.	c #648CBF",
"d.	c #BBBCB9",
"e.	c #B5BAC1",
"f.	c #B3B4B1",
"g.	c #ACADA9",
"h.	c #919BA9",
"i.	c #4F76AA",
"j.	c #E4E4E4",
"k.	c #E5E5E4",
"l.	c #E5E5E5",
"m.	c #E5E6E5",
"n.	c #C2CFDD",
"o.	c #FBFBFB",
"p.	c #E7E7E7",
"q.	c #9FBBDC",
"r.	c #979995",
"s.	c #E3E3E4",
"t.	c #E8E8E7",
"u.	c #EBECEE",
"v.	c #EDEEED",
"w.	c #EEEEED",
"x.	c #D2D3D2",
"y.	c #F0F3F7",
"z.	c #BEC5CC",
"A.	c #90ADD3",
"B.	c #EFF0EF",
"C.	c #9EB6D3",
"D.	c #DCDEDF",
"E.	c #E1E2E2",
"F.	c #EAEAE9",
"G.	c #ECEBEC",
"H.	c #D5D5D4",
"I.	c #D5D6D6",
"J.	c #959FAD",
"K.	c #A2ABB7",
"L.	c #8B9FC0",
"M.	c #9EA9B6",
"N.	c #42679E",
"O.	c #496990",
"P.	c #EFEFF0",
"Q.	c #456B9F",
"R.	c #CDCDCD",
"S.	c #C9CACD",
"T.	c #DFDFDF",
"U.	c #AEBCCF",
"V.	c #8AA7CB",
"W.	c #B6C5DA",
"X.	c #BCC6D3",
"Y.	c #6286B9",
"Z.	c #6A87B0",
"`.	c #90949E",
" +	c #94B0D3",
".+	c #92948F",
"++	c #91B1D8",
"@+	c #F8F7F8",
"#+	c #C3C3C5",
"$+	c #8DADD4",
"%+	c #C4C5C3",
"&+	c #E6E6E5",
"*+	c #E3E4E2",
"=+	c #E4E4E3",
"-+	c #DDDDDD",
";+	c #FEFEFD",
">+	c #F9FAFB",
",+	c #DBDCDB",
"'+	c #5F7DA9",
")+	c #FBFCFD",
"!+	c #93A8C5",
"~+	c #CFD8E5",
"{+	c #F8F8F7",
"]+	c #A7B1BF",
"^+	c #ECECEB",
"/+	c #A0A5AE",
"(+	c #F1F1F1",
"_+	c #6E92C0",
":+	c #E1E2E0",
"<+	c #E2E1E2",
"[+	c #E2E2E1",
"}+	c #F9F9F9",
"|+	c #D8D8D7",
"1+	c #EAEBEE",
"2+	c #E9E9E9",
"3+	c #D3DCE8",
"4+	c #B8CEE7",
"5+	c #DADBD9",
"6+	c #F5F5F6",
"7+	c #F6F5F6",
"8+	c #DCDCDB",
"9+	c #AAB2BC",
"0+	c #AEB3BB",
"a+	c #B6B7B5",
"b+	c #B0B9C5",
"c+	c #B7BCC6",
"d+	c #80A2CF",
"e+	c #90A4C4",
"f+	c #8492A1",
"g+	c #AEB5BE",
"h+	c #8E98A6",
"i+	c #D2D3D5",
"j+	c #B2B3B0",
"k+	c #D3D4D2",
"l+	c #305589",
"m+	c #83A6D1",
"n+	c #2F5686",
"o+	c #9299A2",
"p+	c #E4E9F0",
"q+	c #5879A8",
"r+	c #6C819A",
"s+	c #A1A8B3",
"t+	c #A8AFB7",
"u+	c #BBC1C7",
"v+	c #7399C8",
"w+	c #7899C5",
"x+	c #789CCA",
"y+	c #AFC6E2",
"z+	c #5179AB",
"A+	c #99A5B2",
"B+	c #5877A4",
"C+	c #D5D6D4",
"D+	c #D2D3D1",
"E+	c #E4E5E4",
"F+	c #2B5590",
"G+	c #C9D0D9",
"H+	c #FFFFFF",
"                                                                ",
"            o.|+> r.` >.2+                        4.%.6.6       ",
"            F.{ ; C j+8.c j.                      ^.0+g T       ",
"            m.> <.d m.R.7./.K                 6 *.@.,.J.c+P.    ",
"              t.; c l.7+d /.c 4.            }+D.,.M.n.| ,.g+D   ",
"                v.f Z K k R.{ F.          4 N h.]+}.}.j b+h+1 4.",
"    T }+        4..+] G.p.Z f.a.          m h.!., n.n.}.A+c+T   ",
"  P.8 i ).      9.f 8+D } [ i _           L K.$.b.o b.l &.%.6   ",
"  H { > P 4.  2+8 y } 6+k ~ c 7           +.&.$.o X.!.h+#.5.    ",
"  { 1.k+{ 8 ; q 1.=+T ( @+x.` -.        I E ;.m b+9+h.g 4       ",
"  (.>.k.] >._ %+:+(+p.d G.d H g.).    I w u+z.s+,.@.2.U         ",
"  } 2 0.o.6+( 6.P.p.s.[ 0 R.R.7.d.4 *.w g 1 K.e #.^.U           ",
"    >.f.T.k ( (+6.D w.[+a  .R.Z <.* E L N t+2.u.                ",
"    ( C 8.] } t.E+] 7 C+0 3 =.|.@ o+u+@ e 3.1+                  ",
"      ).(.r.n /.2 8 f i H.|.~.* W +.@ t+'.u.                    ",
"          }+k.T.&+o.).{ i -+* /+e.@ '.`.-.                      ",
"            ;+4.6   _.U.r+: 0+e.@ e w #+2 ~.                    ",
"                  3+p 5 Z.. [.i+3.E 1 j.y ` |.                  ",
"                t O i.G G - . [.e S...~ l.%+n D+                ",
"              p+'+A x+++B v+A l+: [+[ ] d j.P ; Z               ",
"            t 5 Q.Y % < u X - {.f+i ,+~ |+j.E.a ` d             ",
"          ~+5 $ x+% - {.F ^ A p ) ` a ] T.] l.J j+2 K           ",
"      y.z B+$ d+9 - O.& V / N.R   v.q d.5+~ ..j.s.8.n }+6       ",
"  5.S e+. i.B v+_+V & V / u L.      ^+q i -+~ [ s.k.` g.9.6     ",
"  z Q.F+Y.B d+V.' & V ^ . e+4.        } ; a+<+T.-+~ T.q a B.    ",
"3+O u c.m+q.C.' & O.O . M S           6 *+n C J ] R.3 |.; x.    ",
"!+u _+q.4++ p & & q+Q = y.              4.m.]._ ..a r y 8.(.{+  ",
"W.$  +y+A.X F & ! s | )+                    ( a.P ~._ I.C H.#   ",
"v b w+$+- n+F ^ i.R y.                      6 w.7 ].a ].7 (     ",
"  , b c.X {.^ - q+G+4.                          v.R.<.y :.4.    ",
"  >+, b ! ' z+Q h #                                             ",
"    _.$.s Q.'+| x                                               "};
