/* XPM */
static char *Visualization___[] = {
/* columns rows colors chars-per-pixel */
"48 48 59 1",
"  c #2E3436",
". c #333333",
"X c #383637",
"o c #323639",
"O c #3B3539",
"+ c #36393B",
"@ c #3A3B3D",
"# c #47343C",
"$ c #413C3D",
"% c #3D3D40",
"& c #403F42",
"* c #4B3F45",
"= c #444144",
"- c #4C4446",
"; c #4A4549",
": c #4F484C",
"> c #504648",
", c #534A4D",
"< c #594B4E",
"1 c #564C51",
"2 c #594F53",
"3 c #5D5155",
"4 c #625256",
"5 c #64555A",
"6 c #69565B",
"7 c #67585D",
"8 c #6A595E",
"9 c #6E5C61",
"0 c #735E63",
"q c #766066",
"w c #796065",
"e c #776168",
"r c #7C646B",
"t c #81666D",
"y c #83696F",
"u c #856A71",
"i c #8B6E75",
"p c #8F7077",
"a c #8F7078",
"s c #94737A",
"d c #99757C",
"f c #9D787F",
"g c #9E7981",
"h c #A37D85",
"j c #A87F87",
"k c #A77F88",
"l c #AA7F89",
"z c #AC828B",
"x c #B1858E",
"c c #B48791",
"v c #B68892",
"b c #BB8B95",
"n c #BF8E98",
"m c #C18F99",
"M c #C4919C",
"N c #C9949F",
"B c #CC96A1",
"V c #CF98A3",
"C c None",
/* pixels */
"C                                              C",
"                                                ",
"                                                ",
"                                                ",
"                                                ",
"                                                ",
"                                                ",
"               ;3531%                           ",
"          %3uzBBVVBBBbngar93;+                  ",
"      ;9sczu3+  %15g::iivVVVVnu2                ",
"   &ynM3;+        :%% % o11nxBVVzzzz%           ",
" @pzr,            %   & + && 9aqBBBVnxr         ",
"9z3              %  =&2 3o;  u or93BVVVzr3+     ",
"2+           %   3 7;51%r3= %u%rr:9ngqbbVVnqo   ",
"           ++3= %3:n3b9qMxqr9a7cx1zz:9qpMnVVz&  ",
"          @137a2gBVBVVBVVVBBBkvin:Vn97qgszivVVxr",
"       & 469jNVVMVnzxfdhmNVVVVVmVzdszqrbzv7MgvVz",
"       u=fxVVVVNbz: .....-txVVVVVVzbN@MVmgNzpsrx",
"      &ghNVVVNNVz%o.........<MVVVVVVVnNVczN7zrvx",
"    +1nMVVVVVVVsX............>VVVVVVVVVVNzn3nzzy",
"   0Ns3xVVVVVVp...............xVVVVVVVVVVVzbVVM3",
" oiz:  obVVVVd.....-r.4$......0VVVVVVVVVVVVVVVVp",
"5g3     gVbVbX....@MV<iX......#mVNVVVVVVVVVVVVVz",
":       uVhVz.....*NN$.........dVvVVvVVVVVVVVVVx",
"o       8byVx.....X>$..........4VdVN;7xNVVVnzVVz",
"        ,j0VNX......X..........>N6Vz   %;27% :bx",
"        @h4VVw.................>n,V4          19",
"        .j$VNw.................6drno           o",
"         7>zV4.................f1zr            u",
"          08Vf#...............#l+M+          3xz",
"          <>fVf...............w6dr         2zVVz",
"         ..y$mNm$...........X6ftv+       ozVVVVz",
"           ou,BVbs4@.......Xpm0M;      o7zVVVVVz",
"            opinVVVVxr46wdvNMzz&      1zbBVVVBxu",
"              9zfVVVVVVVVNVmn7     &9:3zp7Bnr9o ",
"               &rvnBVVVVVNMp+    @-rxz= 3xnd    ",
"                  :9pgzsr,     ;pMf, @ 9zp9     ",
"     o9                   ++oqvpr1o   +zr       ",
"      @   2qsw-X5@;@o+o7qryn7d9&       o        ",
"          %479X#u:r,3; p;;:o+ o                 ",
"             @   +@                             ",
"                                                ",
"                                                ",
"                                                ",
"                                                ",
"                                                ",
"                                                ",
"C                                              C"
};
