<?xml version="1.0" encoding="UTF-8" standalone="no"?>
<!-- Created with Inkscape (http://www.inkscape.org/) -->

<svg
   xmlns:dc="http://purl.org/dc/elements/1.1/"
   xmlns:cc="http://creativecommons.org/ns#"
   xmlns:rdf="http://www.w3.org/1999/02/22-rdf-syntax-ns#"
   xmlns:svg="http://www.w3.org/2000/svg"
   xmlns="http://www.w3.org/2000/svg"
   xmlns:sodipodi="http://sodipodi.sourceforge.net/DTD/sodipodi-0.dtd"
   xmlns:inkscape="http://www.inkscape.org/namespaces/inkscape"
   width="64px"
   height="64px"
   id="svg2985"
   version="1.1"
   inkscape:version="0.91 r13725"
   sodipodi:docname="dialog-information.svg">
  <defs
     id="defs2987" />
  <sodipodi:namedview
     id="base"
     pagecolor="#ffffff"
     bordercolor="#666666"
     borderopacity="1.0"
     inkscape:pageopacity="0.0"
     inkscape:pageshadow="2"
     inkscape:zoom="2.75"
     inkscape:cx="-16.181818"
     inkscape:cy="79.050308"
     inkscape:current-layer="layer1"
     showgrid="true"
     inkscape:document-units="px"
     inkscape:grid-bbox="true"
     inkscape:window-width="757"
     inkscape:window-height="701"
     inkscape:window-x="588"
     inkscape:window-y="152"
     inkscape:window-maximized="0" />
  <metadata
     id="metadata2990">
    <rdf:RDF>
      <cc:Work
         rdf:about="">
        <dc:format>image/svg+xml</dc:format>
        <dc:type
           rdf:resource="http://purl.org/dc/dcmitype/StillImage" />
        <dc:title />
      </cc:Work>
    </rdf:RDF>
  </metadata>
  <g
     id="layer1"
     inkscape:label="Layer 1"
     inkscape:groupmode="layer">
    <g
       style="font-style:normal;font-variant:normal;font-weight:normal;font-stretch:normal;font-size:75.09406281px;line-height:125%;font-family:FontAwesome;-inkscape-font-specification:FontAwesome;letter-spacing:0px;word-spacing:0px;fill:#00ff00;fill-opacity:1;stroke:none"
       id="text2993">
      <path
         d="m 46.296212,53.27431 c 0,-1.466681 -1.21525,-2.681931 -2.681931,-2.681931 l -2.681931,0 0,-24.137377 c 0,-1.466681 -1.215249,-2.681931 -2.68193,-2.681931 l -16.091585,0 c -1.466681,0 -2.681931,1.21525 -2.681931,2.681931 l 0,5.363862 c 0,1.466681 1.21525,2.681931 2.681931,2.681931 l 2.681931,0 0,16.091584 -2.681931,0 c -1.466681,0 -2.681931,1.21525 -2.681931,2.681931 l 0,5.363862 c 0,1.466681 1.21525,2.681931 2.681931,2.681931 l 21.455446,0 c 1.466681,0 2.681931,-1.21525 2.681931,-2.681931 l 0,-5.363862 z M 40.93235,4.9995556 c 0,-1.4666809 -1.215249,-2.6819308 -2.68193,-2.6819308 l -10.727724,0 c -1.466681,0 -2.68193,1.2152499 -2.68193,2.6819308 l 0,8.0457924 c 0,1.466681 1.215249,2.681931 2.68193,2.681931 l 10.727724,0 c 1.466681,0 2.68193,-1.21525 2.68193,-2.681931 l 0,-8.0457924 z"
         style="fill:#00ff00;fill-opacity:1"
         id="path14127" />
    </g>
  </g>
</svg>
