<?xml version="1.0" encoding="UTF-8" standalone="no"?>
<!-- Created with Inkscape (http://www.inkscape.org/) -->

<svg
   xmlns:dc="http://purl.org/dc/elements/1.1/"
   xmlns:cc="http://creativecommons.org/ns#"
   xmlns:rdf="http://www.w3.org/1999/02/22-rdf-syntax-ns#"
   xmlns:svg="http://www.w3.org/2000/svg"
   xmlns="http://www.w3.org/2000/svg"
   xmlns:sodipodi="http://sodipodi.sourceforge.net/DTD/sodipodi-0.dtd"
   xmlns:inkscape="http://www.inkscape.org/namespaces/inkscape"
   width="64px"
   height="64px"
   id="svg3008"
   version="1.1"
   inkscape:version="0.91 r13725"
   sodipodi:docname="folder.svg">
  <defs
     id="defs3010" />
  <sodipodi:namedview
     id="base"
     pagecolor="#ffffff"
     bordercolor="#666666"
     borderopacity="1.0"
     inkscape:pageopacity="0.0"
     inkscape:pageshadow="2"
     inkscape:zoom="1.9445436"
     inkscape:cx="73.231366"
     inkscape:cy="3.7301064"
     inkscape:current-layer="layer1"
     showgrid="true"
     inkscape:document-units="px"
     inkscape:grid-bbox="true"
     inkscape:window-width="690"
     inkscape:window-height="405"
     inkscape:window-x="544"
     inkscape:window-y="303"
     inkscape:window-maximized="0" />
  <metadata
     id="metadata3013">
    <rdf:RDF>
      <cc:Work
         rdf:about="">
        <dc:format>image/svg+xml</dc:format>
        <dc:type
           rdf:resource="http://purl.org/dc/dcmitype/StillImage" />
        <dc:title />
      </cc:Work>
    </rdf:RDF>
  </metadata>
  <g
     id="layer1"
     inkscape:label="Layer 1"
     inkscape:groupmode="layer">
    <g
       style="font-style:normal;font-weight:normal;font-size:66.02944183px;line-height:125%;font-family:Sans;letter-spacing:0px;word-spacing:0px;fill:#00ff00;fill-opacity:1;stroke:none"
       id="text2985">
      <path
         d="m 57.745399,49.476495 c 0,1.952879 -1.584412,3.537291 -3.537292,3.537291 l -44.8056924,0 c -1.9528797,0 -3.5372916,-1.584412 -3.5372916,-3.537291 l 0,-35.372915 c 0,-1.95288 1.5844119,-3.537292 3.5372916,-3.537292 l 11.7909714,0 c 1.95288,0 3.537292,1.584412 3.537292,3.537292 l 0,2.358194 c 0,1.95288 1.584412,3.537291 3.537291,3.537291 l 25.940138,0 c 1.95288,0 3.537292,1.584412 3.537292,3.537292 l 0,25.940138 z m 4.716388,-25.940138 c 0,-4.532155 -3.721525,-8.25368 -8.25368,-8.25368 l -24.76104,0 0,-1.179097 c 0,-4.5321552 -3.721526,-8.2536807 -8.253681,-8.2536807 l -11.7909714,0 c -4.5321548,0 -8.2536803,3.7215255 -8.2536803,8.2536807 l 0,35.372915 c 0,4.532155 3.7215255,8.25368 8.2536803,8.25368 l 44.8056924,0 c 4.532155,0 8.25368,-3.721525 8.25368,-8.25368 l 0,-25.940138 z"
         style="font-style:normal;font-variant:normal;font-weight:normal;font-stretch:normal;font-family:FontAwesome;-inkscape-font-specification:FontAwesome;fill:#00ff00;fill-opacity:1"
         id="path13027" />
    </g>
  </g>
</svg>
