<?xml version="1.0" encoding="UTF-8" standalone="no"?>
<!-- Created with Inkscape (http://www.inkscape.org/) -->

<svg
   width="48"
   height="48"
   viewBox="0 0 48 48"
   version="1.1"
   id="svg5"
   xml:space="preserve"
   inkscape:version="1.2.2 (732a01da63, 2022-12-09)"
   sodipodi:docname="FormsExampleIcon.svg"
   xmlns:inkscape="http://www.inkscape.org/namespaces/inkscape"
   xmlns:sodipodi="http://sodipodi.sourceforge.net/DTD/sodipodi-0.dtd"
   xmlns="http://www.w3.org/2000/svg"
   xmlns:svg="http://www.w3.org/2000/svg"><sodipodi:namedview
     id="namedview7"
     pagecolor="#505050"
     bordercolor="#eeeeee"
     borderopacity="1"
     inkscape:showpageshadow="0"
     inkscape:pageopacity="0"
     inkscape:pagecheckerboard="0"
     inkscape:deskcolor="#505050"
     inkscape:document-units="px"
     showgrid="false"
     inkscape:zoom="10.697917"
     inkscape:cx="20.003895"
     inkscape:cy="24.630964"
     inkscape:window-width="2089"
     inkscape:window-height="1252"
     inkscape:window-x="1582"
     inkscape:window-y="39"
     inkscape:window-maximized="0"
     inkscape:current-layer="layer1-2" /><defs
     id="defs2" /><g
     inkscape:label="Layer 1"
     inkscape:groupmode="layer"
     id="layer1"><g
       id="layer1-2"
       inkscape:label="Layer 1"
       transform="matrix(3.7795276,0,0,3.7795276,-45.211294,7.2750112)"><g
         transform="translate(-6.6666669e-8,-0.26458327)"
         id="g1080"><g
           id="g409"><path
             id="rect1060-5"
             style="color:#000000;fill:#00ff00;stroke-linecap:round;stroke-linejoin:round;-inkscape-stroke:none"
             d="M 16.624919 -0.60141334 C 16.389516 -0.60141334 16.195488 -0.40738465 16.195488 -0.17198219 L 16.195488 3.2009385 C 16.195488 3.436341 16.389516 3.6308864 16.624919 3.6308864 L 19.99784 3.6308864 C 20.233243 3.6308864 20.429855 3.436341 20.429855 3.2009385 L 20.429855 1.3364529 L 20.097575 1.7100735 L 20.097575 3.2009385 C 20.097575 3.2586935 20.0556 3.300674 19.99784 3.300674 L 16.624919 3.300674 C 16.567159 3.300674 16.527251 3.2586935 16.527251 3.2009385 L 16.527251 -0.17198219 C 16.527251 -0.22973743 16.567159 -0.27171772 16.624919 -0.2717177 L 19.99784 -0.2717177 C 20.0556 -0.2717177 20.097575 -0.22973743 20.097575 -0.17198219 L 20.097575 0.12050641 L 20.423137 -0.24536272 C 20.387461 -0.44640894 20.208238 -0.60141334 19.99784 -0.60141334 L 16.624919 -0.60141334 z " /><rect
             style="fill:none;fill-opacity:1;stroke:#00ff00;stroke-width:0.330998;stroke-linecap:round;stroke-linejoin:round;stroke-miterlimit:4;stroke-dasharray:none;stroke-opacity:1"
             id="rect1060-5-4"
             width="3.9023352"
             height="1.7856686"
             x="16.360987"
             y="4.8552356"
             rx="0.26458332"
             ry="0.26458332" /><rect
             style="fill:none;fill-opacity:1;stroke:#00ff00;stroke-width:0.330998;stroke-linecap:round;stroke-linejoin:round;stroke-miterlimit:4;stroke-dasharray:none;stroke-opacity:1"
             id="rect1060-5-4-4"
             width="3.9023352"
             height="1.7856686"
             x="16.360987"
             y="8.0302353"
             rx="0.26458332"
             ry="0.26458332" /></g></g><path
         style="fill:none;stroke:#ff00ff;stroke-width:0.529167;stroke-linecap:round;stroke-linejoin:round;stroke-miterlimit:4;stroke-dasharray:none;stroke-opacity:1"
         d="m 17.088614,1.2073637 1.300356,1.3003571 2.97692,-3.25089263"
         id="path859-8"
         sodipodi:nodetypes="ccc" /></g></g></svg>
