/* XPM */
static const char * volumetryIcon_xpm[] = {
"48 48 12 1",
" 	c None",
".	c #E7E7E7",
"+	c #E3E3E3",
"@	c #EBFBE9",
"#	c #4C574B",
"$	c #707070",
"%	c #E2E4E2",
"&	c #FAFAFA",
"*	c #020202",
"=	c #000000",
"-	c #45DD39",
";	c #FFFFFF",
"                                                ",
"                                                ",
"                          ===============       ",
"                  ===========================   ",
"                  ===========---------=======   ",
"                =============---------=======   ",
"                =====---------------------===   ",
"        =============---------------------====  ",
"        ===========-----------------------====  ",
"     =============------------------------====  ",
"     =====----------------------------------==  ",
"     =====----------------------------------==  ",
"     =====----------------------------------==  ",
"     ===------------------------------------==  ",
"     ===------------------------------------==  ",
"     ===------------------------------------==  ",
"     ===---**-------**----------**----------==  ",
"     ===----**-----**-----------**----------==  ",
"     ===----**-----**-----------**----------==  ",
"     ===----**-----**---****----**----------==  ",
"     ===-----**---**---******---**----------==  ",
"     ===-----**---**--***--***--**----------==  ",
"     ===-----***-***--**----**--**----------==  ",
"     ===------**-**---**----**--**--------====  ",
"   =====------**-**---**----**--**--------====  ",
"   =====-------***----***--***--**--------====  ",
"  ======-------***-----******---**--**----===   ",
"  ====---------***------****----**--**----===   ",
"  ====------------------------------------===   ",
"  ==--------------------------------------===   ",
"  ==--------------------------------------===   ",
"  ==--------------------------------------===   ",
"  ==--------------------------------------===   ",
"  ==--------------------------------------===   ",
"  ==--------------------------------------===   ",
"  ==---------------==========-------------===   ",
"  ==---------------==========-------------===   ",
"  ==---------------==========-------------===   ",
"  ====-----------==============-----------===   ",
"  ====-----------=====    =====-----------===   ",
"  ========---=========    =========-------===   ",
"   =======---====#$+        @======-------===   ",
"   ==============%.&        =========-----===   ",
"        =======                  ====-----===   ",
"        =======                  ============   ",
"                                  ===========   ",
"                                                ",
"                                                "};
