/* XPM */
static const char * iconCrosshairMode_xpm[] = {
"15 15 4 1",
" 	c None",
".	c #6999D1",
"+	c #0062D1",
"@	c #FFFFFF",
"               ",
"       .       ",
"       .       ",
"       .       ",
"       .       ",
"       .       ",
"       .       ",
" ++++++ ++++++ ",
"       .       ",
"       .       ",
"       .       ",
"       .       ",
"       .       ",
"       .       ",
"               "};
