/* XPM */
static const char * iconLeaveFullScreen_xpm[] = {
"32 32 2 1",
" 	c None",
".	c #6999D1",
"...............  ...............",
"...............  ...............",
"...............  ...............",
"...............  ...............",
"...............  ...............",
"...............  ...............",
"...............  ...............",
"...............  ...............",
"...............  ...............",
"...............  ...............",
"...............  ...............",
"...............  ...............",
"...............  ...............",
"...............  ...............",
"...............  ...............",
"                                ",
"                                ",
"...............  ...............",
"...............  ...............",
"...............  ...............",
"...............  ...............",
"...............  ...............",
"...............  ...............",
"...............  ...............",
"...............  ...............",
"...............  ...............",
"...............  ...............",
"...............  ...............",
"...............  ...............",
"...............  ...............",
"...............  ...............",
"...............  ..............."};
