/* XPM */
static const char * rotate_cursor_xpm[] = {
"32 32 6 1",
" 	c None",
".	c #000400",
"+	c #000000",
"@	c #FFFFF7",
"#	c #F7FFF7",
"$	c #FFFFFF",
".+                              ",
".@+                             ",
"+#$.                            ",
".$$$+                           ",
".$#$#+                          ",
"+@$@$@+                         ",
"+$$@$#$.                        ",
".$#$#$#$.                       ",
"+@$$$@$$#+                      ",
"+#$@$$.++.                      ",
".$$.$@.                         ",
"+$. .$$.      ++++              ",
"+.  +$#+     ++$$+ +++++        ",
"     +$$+   ++$+++ +$$$+        ",
"     .@$.  ++$++   +$$++        ",
"      +.   +$++    +$+$++       ",
"           +$+     ++++$+       ",
"           +$+        +$+       ",
"           +$+        +$+       ",
"           +$++++     +$+       ",
"           ++$+$+    ++$+       ",
"            ++$$+   ++$++       ",
"            +$$$+ +++$++        ",
"            +++++ +$$++         ",
"                  ++++          ",
"                                ",
"                                ",
"                                ",
"                                ",
"                                ",
"                                ",
"                                "};
