<?xml version="1.0" encoding="UTF-8" standalone="no"?>
<!-- Generator: Adobe Illustrator 19.1.0, SVG Export Plug-In . SVG Version: 6.00 Build 0)  -->

<svg
   xmlns:dc="http://purl.org/dc/elements/1.1/"
   xmlns:cc="http://creativecommons.org/ns#"
   xmlns:rdf="http://www.w3.org/1999/02/22-rdf-syntax-ns#"
   xmlns:svg="http://www.w3.org/2000/svg"
   xmlns="http://www.w3.org/2000/svg"
   xmlns:sodipodi="http://sodipodi.sourceforge.net/DTD/sodipodi-0.dtd"
   xmlns:inkscape="http://www.inkscape.org/namespaces/inkscape"
   version="1.0"
   id="Ebene_1"
   x="0px"
   y="0px"
   viewBox="0 0 129 129"
   xml:space="preserve"
   sodipodi:docname="map_framereg_icon_doc.svg"
   inkscape:version="0.92.3 (2405546, 2018-03-11)"
   width="129"
   height="129"><metadata
   id="metadata47"><rdf:RDF><cc:Work
       rdf:about=""><dc:format>image/svg+xml</dc:format><dc:type
         rdf:resource="http://purl.org/dc/dcmitype/StillImage" /><dc:title></dc:title></cc:Work></rdf:RDF></metadata><defs
   id="defs45" /><sodipodi:namedview
   pagecolor="#ffffff"
   bordercolor="#666666"
   borderopacity="1"
   objecttolerance="10"
   gridtolerance="10"
   guidetolerance="10"
   inkscape:pageopacity="0"
   inkscape:pageshadow="2"
   inkscape:window-width="1406"
   inkscape:window-height="854"
   id="namedview43"
   showgrid="false"
   inkscape:zoom="3.9373992"
   inkscape:cx="20.824292"
   inkscape:cy="64"
   inkscape:window-x="0"
   inkscape:window-y="125"
   inkscape:window-maximized="0"
   inkscape:current-layer="g40" />
<style
   type="text/css"
   id="style2">
	.st0{fill:#F39200;}
	.st1{fill:#1D1D1B;}
	.st2{fill:#FFFFFF;}
	.st3{fill:none;stroke:#F39200;stroke-linecap:round;stroke-miterlimit:10;}
	.st4{fill:#F39200;stroke:#F39200;stroke-width:0.25;stroke-miterlimit:10;}
	.st5{fill:none;stroke:#1D1D1B;stroke-linecap:round;stroke-miterlimit:10;}
	.st6{fill:#FFFFFF;stroke:#FFFFFF;stroke-width:4;stroke-linecap:round;stroke-linejoin:round;stroke-miterlimit:10;}
	.st7{fill:none;stroke:#E6007E;stroke-linecap:round;stroke-miterlimit:10;}
	.st8{fill:#009FE3;}
	.st9{fill:#1C2E52;}
	.st10{fill:#C0C5CD;}
	.st11{fill:none;stroke:#1D1D1B;stroke-width:2;stroke-miterlimit:10;}
	.st12{fill:none;stroke:#C0C5CD;stroke-width:2;stroke-miterlimit:10;}
	.st13{fill:#0096AE;}
	.st14{fill:none;stroke:#1D1D1B;stroke-width:7;stroke-miterlimit:10;}
	.st15{fill:#1D1D1B;stroke:#1D1D1B;stroke-width:0.1;stroke-linecap:round;stroke-linejoin:round;stroke-miterlimit:10;}
	.st16{fill:none;}
	.st17{fill:none;stroke:#1D1C1B;stroke-width:2;stroke-linecap:round;stroke-linejoin:round;stroke-miterlimit:10;}
	.st18{fill:#1D1D1B;stroke:#FFFFFF;stroke-width:2;stroke-linecap:round;stroke-linejoin:round;stroke-miterlimit:10;}
	.st19{fill:none;stroke:#1D1D1B;stroke-width:2;stroke-linecap:round;stroke-linejoin:round;stroke-miterlimit:10;}
	.st20{fill:#E71D73;}
	.st21{fill:#F0F0F0;}
	.st22{fill:#E6007E;}
	.st23{fill:none;stroke:#1D1D1B;stroke-width:3;stroke-miterlimit:10;}
	.st24{fill:none;stroke:#1D1D1B;stroke-width:5;stroke-miterlimit:10;}
	.st25{fill:none;stroke:#1D1D1B;stroke-width:10;stroke-miterlimit:10;}
	.st26{fill:none;stroke:#1D1D1B;stroke-width:6;stroke-miterlimit:10;}
	.st27{fill:#009640;}
	.st28{fill:none;stroke:#009FE3;stroke-width:5;stroke-linejoin:round;}
	.st29{fill:none;stroke:#009FE3;stroke-width:3;stroke-linejoin:round;}
	.st30{fill:none;stroke:#1D1D1B;stroke-width:5;stroke-linejoin:round;}
	.st31{fill:#51509C;}
	.st32{fill:none;stroke:#1D1D1B;stroke-miterlimit:10;}
	.st33{fill:none;stroke:#FFFFFF;stroke-miterlimit:10;}
	.st34{fill:none;stroke:#FFFFFF;stroke-width:2;stroke-miterlimit:10;}
	.st35{fill:#1D1D1B;stroke:#FFFFFF;stroke-miterlimit:10;}
	.st36{fill:#FFFFFF;stroke:#1D1D1B;stroke-miterlimit:10;}
	.st37{fill:none;stroke:#1D1D1B;stroke-width:2;stroke-linecap:round;stroke-miterlimit:10;}
	.st38{fill:#009C3E;}
	.st39{fill:#E61883;}
	.st40{fill:#1D1D1B;stroke:#FFFFFF;stroke-linecap:round;stroke-linejoin:round;stroke-miterlimit:10;}
	.st41{fill:#1D1D1B;stroke:#1D1D1B;stroke-width:2;stroke-linecap:round;stroke-linejoin:round;stroke-miterlimit:10;}
	.st42{fill:#FFFFFF;stroke:#FFFFFF;stroke-width:6;stroke-linecap:round;stroke-linejoin:round;stroke-miterlimit:10;}
	.st43{fill:none;stroke:#1D1D1B;stroke-linecap:round;stroke-linejoin:round;stroke-miterlimit:10;}
	.st44{fill:#1D1D1B;stroke:#1D1D1B;stroke-linecap:round;stroke-linejoin:round;stroke-miterlimit:10;}
	.st45{fill:none;stroke:#1D1D1B;stroke-width:2;stroke-linecap:round;stroke-linejoin:round;}
	.st46{fill:none;stroke:#FFFFFF;stroke-width:3;stroke-linecap:round;stroke-miterlimit:10;}
	.st47{fill:none;stroke:#FFFFFF;stroke-width:2;stroke-linecap:round;stroke-miterlimit:10;}
	.st48{fill:#FFFFFF;stroke:#FFFFFF;stroke-width:4;stroke-miterlimit:10;}
	.st49{fill:none;stroke:#F39200;stroke-width:1.5;stroke-linecap:round;stroke-miterlimit:10;}
	.st50{fill:#00FF00;}
	.st51{fill:none;stroke:#1D1D1B;stroke-width:1.5;stroke-linecap:round;stroke-linejoin:round;}
	.st52{fill:#FF00FF;}
</style>
<g
   id="g40"
   style="display:inline"
   transform="translate(0,1)">
	<path
   class="st52"
   d="M 70.7,48.4 69.8,59 c 0.9,-0.1 1.7,-0.1 2.6,-0.2 L 73.3,48 c -0.8,0.1 -1.7,0.2 -2.6,0.4 z"
   id="path4"
   inkscape:connector-curvature="0"
   style="fill:#0084c8" />
	<path
   class="st52"
   d="m 34.7,56.6 c 0.2,0.6 1,1 1.6,0.8 1.7,-0.6 3.4,-1.2 5.1,-1.8 l 0.1,-1.5 c -2.2,0.5 -4.5,1 -6.8,1.6 -0.1,0.3 -0.2,0.6 0,0.9 z"
   id="path6"
   inkscape:connector-curvature="0"
   style="fill:#0084c8" />
	<path
   class="st52"
   d="m 55.4,51.2 c -0.9,0.2 -1.8,0.4 -2.6,0.5 -0.2,3 -0.4,5.9 -0.6,8.9 0.9,-0.1 1.7,-0.2 2.6,-0.3 0.1,-3 0.4,-6 0.6,-9.1 z"
   id="path8"
   inkscape:connector-curvature="0"
   style="fill:#0084c8" />
	<path
   class="st52"
   d="M 90.6,25.1 89.4,37.3 C 90.3,37.2 91.2,37.1 92,37 l 1.3,-12.5 c -0.9,0.2 -1.8,0.4 -2.7,0.6 z"
   id="path10"
   inkscape:connector-curvature="0"
   style="fill:#0084c8" />
	<path
   class="st52"
   d="m 49.9,52.7 c 0.9,-0.3 1.8,-0.6 2.7,-0.9 -0.9,0.2 -1.8,0.4 -2.7,0.5 z"
   id="path12"
   inkscape:connector-curvature="0"
   style="fill:#0084c8" />
	<path
   class="st52"
   d="m 71.5,39.9 c 0.9,-0.1 1.7,-0.3 2.6,-0.4 L 75,28.8 c -0.9,0.2 -1.8,0.5 -2.6,0.7 -0.3,3.2 -0.6,6.4 -0.8,9.6 z"
   id="path14"
   inkscape:connector-curvature="0"
   style="fill:#0084c8" />
	<path
   class="st52"
   d="m 70.9,76.1 0.8,-9 c -0.9,0.1 -1.7,0.1 -2.6,0.2 -0.3,3 -0.5,6.1 -0.8,9.1 -1.1,0.1 -2.3,0.3 -3.5,0.5 L 64.7,78 c 2.9,0 5.8,0.1 8.7,0.1 l 0.3,-2.3 c -0.9,0.1 -1.9,0.2 -2.8,0.3 z"
   id="path16"
   inkscape:connector-curvature="0"
   style="fill:#0084c8" />
	<path
   class="st52"
   d="m 75.2,58.6 c 0.1,0 0.3,0 0.4,0 0,0 0,0 0,-0.1 -0.1,0 -0.2,0.1 -0.4,0.1 z"
   id="path18"
   inkscape:connector-curvature="0"
   style="fill:#ff00ff" />
	<path
   class="st52"
   d="m 127.4,29.3 c -0.3,-0.2 -0.6,-0.3 -1,-0.2 -4.9,1 -10.3,2.1 -16.4,3.5 0.7,-6.2 1.4,-12.4 2.1,-18.6 0.1,-0.7 -0.4,-1.3 -1.1,-1.4 -0.4,0 -0.7,0.1 -1,0.3 -0.3,0.2 -0.4,0.5 -0.5,0.9 -0.7,6.5 -1.4,13 -2.2,19.5 -4.5,1.1 -9.1,2.2 -13.7,3.4 1.7,-0.2 3.4,-0.4 5.1,-0.6 0.1,0 0.3,0 0.4,0 1.1,0 2.1,0.4 2.8,1.1 1.7,-0.4 3.4,-0.9 5.1,-1.3 -0.6,5.8 -1.3,11.5 -1.9,17.3 -4.9,0.7 -10,1.5 -15.1,2.4 l 1,-10.4 c -0.9,0.1 -1.7,0.2 -2.6,0.3 L 87.3,56 c -1.2,0.2 -2.3,0.4 -3.4,0.6 l -0.1,1.3 c 3.6,-0.2 6.8,-0.3 9.8,-0.4 3.8,-0.7 7.5,-1.3 11.1,-1.8 -0.7,5.8 -1.3,11.5 -2,17.2 -4.8,0.3 -9.8,0.6 -14.7,1.1 0.3,-2.7 0.5,-5.4 0.8,-8.1 -0.9,0 -1.7,0.1 -2.6,0.1 l -0.8,8.3 c -1.2,0.1 -2.4,0.2 -3.6,0.4 l -0.3,2.6 c 1.2,-0.1 2.4,-0.2 3.6,-0.4 0,0.5 -0.1,0.9 -0.1,1.4 0.9,0 1.7,0.1 2.6,0.1 l 0.2,-1.8 c 5,-0.5 9.9,-0.8 14.7,-1.1 l -0.3,2.4 c -0.6,4.9 -1.1,9.9 -1.7,14.8 -4.5,-0.1 -9.1,-0.2 -13.7,-0.2 -0.2,0 -0.4,0 -0.6,0 l 0.6,-5.9 c -0.8,0 -1.7,-0.1 -2.6,-0.1 -0.2,2 -0.4,4 -0.6,6 -1.3,0 -2.5,0 -3.8,0 -0.1,0.9 -0.2,1.7 -0.3,2.6 1.2,0 2.5,0 3.8,0 l -1.7,16.8 c 0,0.3 0.1,0.7 0.3,0.9 0.2,0.3 0.5,0.4 0.9,0.5 0.7,0.1 1.3,-0.4 1.4,-1.2 L 85.9,95 c 4.9,0 9.7,0.1 14.3,0.2 -0.7,6.1 -1.4,12.2 -2.1,18.2 -0.1,0.7 0.4,1.3 1.1,1.4 0.1,0 0.1,0 0.2,0 0.7,0 1.2,-0.5 1.3,-1.1 0.7,-6.1 1.4,-12.3 2.1,-18.4 5.8,0.2 10.9,0.5 15.6,0.8 0.3,0 0.7,-0.1 0.9,-0.3 0.3,-0.2 0.4,-0.5 0.5,-0.9 0,-0.3 -0.1,-0.7 -0.3,-0.9 -0.2,-0.3 -0.5,-0.4 -0.9,-0.4 -4.7,-0.3 -9.7,-0.6 -15.5,-0.8 0.7,-5.8 1.3,-11.6 2,-17.4 6,-0.3 11.3,-0.5 16.2,-0.6 0.3,0 0.7,-0.1 0.9,-0.4 0.2,-0.2 0.4,-0.6 0.4,-0.9 0,-0.7 -0.6,-1.3 -1.3,-1.3 v 0 c -4.8,0.1 -10,0.3 -15.8,0.6 0.7,-5.8 1.3,-11.6 2,-17.5 6.2,-0.9 11.6,-1.6 16.7,-2.1 0.3,0 0.6,-0.2 0.9,-0.5 0.2,-0.3 0.3,-0.6 0.3,-0.9 0,-0.3 -0.2,-0.6 -0.5,-0.9 -0.3,-0.2 -0.6,-0.3 -0.9,-0.3 -4.8,0.5 -10.1,1.2 -16.1,2 l 0.1,-1.2 c 0.6,-5.4 1.2,-10.9 1.8,-16.3 6.3,-1.5 11.9,-2.7 17.2,-3.7 0.3,-0.1 0.6,-0.3 0.8,-0.5 0.2,-0.3 0.3,-0.6 0.2,-1 -0.1,-0.1 -0.3,-0.4 -0.6,-0.6 z"
   id="path20"
   style="fill:#0084c8"
   inkscape:connector-curvature="0" />
	<path
   class="st52"
   d="m 53.3,43.3 c 0.9,-0.2 1.7,-0.3 2.6,-0.5 0.2,-2.5 0.4,-5 0.5,-7.5 0,-0.5 -0.2,-1 -0.6,-1.2 -0.6,0.2 -1.2,0.3 -1.8,0.5 -0.1,0.2 -0.1,0.3 -0.1,0.5 -0.2,2.7 -0.4,5.4 -0.6,8.2 z"
   id="path22"
   inkscape:connector-curvature="0"
   style="fill:#0084c8" />
	<g
   id="g26"
   style="fill:#000000">
		<path
   class="st50"
   d="m 101.5,16.5 c -5,1 -10.1,2.1 -15.3,3.3 C 86.8,14 87.5,8.1 88.1,2.3 88.2,1.2 87.4,0.2 86.3,0 85.2,-0.1 84.2,0.7 84,1.8 83.3,8.1 82.6,14.4 81.9,20.7 77.3,21.8 72.7,22.9 68.1,24.2 68.6,19 69.1,13.8 69.7,8.6 69.8,7.5 69,6.5 67.9,6.3 66.8,6.2 65.8,7 65.6,8.1 65,14 64.4,19.7 63.8,25.4 c -4.6,1.3 -9.2,2.6 -13.9,4 0.4,-4.5 0.8,-9.1 1.2,-13.6 0.1,-1.1 -0.7,-2.1 -1.9,-2.2 -1.1,-0.1 -2.1,0.7 -2.2,1.9 -0.4,5.1 -0.9,10.1 -1.3,15.2 -4.6,1.4 -9.3,2.9 -14,4.4 0.3,-3.9 0.6,-7.8 0.8,-11.7 0.1,-1.1 -0.8,-2.1 -1.9,-2.2 -1.1,-0.1 -2.1,0.8 -2.2,1.9 -0.3,4.4 -0.6,8.9 -1,13.4 -5.6,1.9 -11.2,3.8 -17,5.8 -1.1,0.4 -1.6,1.6 -1.2,2.6 0.3,0.8 1.1,1.4 1.9,1.4 0.2,0 0.5,0 0.7,-0.1 5.2,-1.9 10.3,-3.6 15.3,-5.3 -0.2,3.5 -0.5,6.9 -0.7,10.4 C 21,52.7 15.5,54 9.9,55.5 8.8,55.8 8.2,56.9 8.4,58 c 0.2,0.9 1.1,1.5 2,1.5 0.2,0 0.4,0 0.5,-0.1 C 16,58 21,56.8 26,55.5 c -0.1,1.3 -0.2,2.5 -0.3,3.8 1.4,0 2.8,0.1 4.1,0.3 0.1,-1.7 0.2,-3.4 0.4,-5.1 4.6,-1.1 9.1,-2.1 13.6,-3.1 -0.4,4.1 -0.7,8.1 -1.1,12.2 2,1 3.9,2.2 5.6,3.6 3.8,-0.4 7.6,-0.9 11.3,-1.2 -0.4,4.2 -0.9,8.4 -1.3,12.6 1.4,2.4 2.5,4.9 3.4,7.6 0.1,-0.7 0.1,-1.4 0.2,-2.1 4.3,0 8.5,0 12.7,0.1 -0.7,5.8 -1.3,11.6 -2,17.4 -0.1,1.1 0.7,2.2 1.8,2.3 0.1,0 0.2,0 0.2,0 1,0 1.9,-0.8 2,-1.8 0.7,-5.9 1.3,-11.8 2,-17.7 5,0.2 10,0.4 14.9,0.7 1.2,0.1 2.1,-0.8 2.2,-1.9 C 95.8,82.1 94.9,81.1 93.8,81 88.9,80.7 84,80.4 79.1,80.3 79.7,75 80.3,69.7 80.9,64.4 c 5.2,-0.3 10.4,-0.5 15.5,-0.6 1.1,0 2,-1 2,-2.1 0,-1.1 -0.9,-2 -2.1,-2 v 0 c -4.9,0.1 -9.9,0.3 -15,0.6 0.6,-5.3 1.2,-10.6 1.8,-16 5.4,-0.8 10.8,-1.5 16,-2 1.1,-0.1 1.9,-1.1 1.8,-2.3 -0.1,-1.1 -1.2,-1.9 -2.3,-1.8 -5,0.5 -10,1.2 -15.1,1.9 0.6,-5.3 1.2,-10.7 1.8,-16 5.6,-1.3 11.1,-2.5 16.6,-3.6 1.1,-0.2 1.8,-1.3 1.6,-2.4 -0.2,-1.1 -0.9,-1.9 -2,-1.6 z M 44.2,47.2 c -4.5,1 -9,2 -13.6,3.1 0.3,-3.6 0.5,-7.2 0.8,-10.8 4.7,-1.6 9.4,-3 13.9,-4.4 -0.4,4 -0.7,8.1 -1.1,12.1 z m 15.9,14.7 c -4.3,0.4 -8.7,0.9 -13.2,1.4 0.4,-4.2 0.7,-8.5 1.1,-12.7 4.6,-1 9.1,-1.8 13.5,-2.7 -0.4,4.7 -0.9,9.3 -1.4,14 z M 62,43.7 c -4.5,0.8 -9,1.7 -13.6,2.7 0.4,-4.2 0.7,-8.4 1.1,-12.6 4.7,-1.4 9.3,-2.7 13.8,-4 -0.4,4.6 -0.9,9.3 -1.3,13.9 z M 75.2,80.2 C 71,80.1 66.8,80 62.4,80 c 0.5,-4.8 1,-9.6 1.5,-14.4 4.4,-0.4 8.8,-0.7 13.1,-1 -0.6,5.2 -1.2,10.4 -1.8,15.6 z m 2.3,-19.7 c -4.3,0.3 -8.7,0.6 -13.1,1 0.5,-4.8 1,-9.5 1.4,-14.3 4.5,-0.8 9,-1.6 13.5,-2.2 -0.7,5.1 -1.2,10.3 -1.8,15.5 z m 2.2,-19.8 c -4.4,0.7 -8.9,1.4 -13.5,2.2 0.5,-4.8 1,-9.5 1.4,-14.3 4.7,-1.3 9.3,-2.4 13.8,-3.5 -0.5,5.2 -1.1,10.4 -1.7,15.6 z"
   id="path24"
   inkscape:connector-curvature="0"
   style="fill:#000000" />
	</g>
	<polygon
   class="st50"
   points="2.6,81.2 2.2,78.6 4.8,78.2 18.2,76.2 18.2,75.9 19,76 35,73.7 35,69.8 0,69.8 0,104.8 6.1,104.8 "
   id="polygon28"
   style="fill:#000000" />
	<polygon
   class="st50"
   points="28.8,78.4 41.4,80.4 40.8,76.6 "
   id="polygon30"
   style="fill:#000000" />
	<polygon
   class="st50"
   points="18.7,79.9 6.2,81.8 11.4,116.4 13,116.2 13.4,114.1 "
   id="polygon32"
   style="fill:#000000" />
	
		<rect
   x="19.5"
   y="83.5"
   transform="matrix(-0.1556,0.9878,-0.9878,-0.1556,142.4787,80.1403)"
   class="st50"
   width="35"
   height="35"
   id="rect34"
   style="fill:#000000" />
	<path
   class="st52"
   d="m 53.9,72.4 c 0.1,-1.2 0.2,-2.5 0.3,-3.7 -0.9,0.1 -1.7,0.2 -2.6,0.3 0,0.3 0,0.6 -0.1,0.9 0.8,0.8 1.6,1.6 2.4,2.5 z"
   id="path36"
   inkscape:connector-curvature="0"
   style="fill:#0084c8" />
	<path
   class="st52"
   d="M 69.4,93 70,86.3 c -0.9,0 -1.7,0 -2.6,0 -0.2,1.9 -0.3,3.9 -0.5,5.8 l -0.1,1 c -1.2,0 -2.3,0.1 -3.6,0.2 0.1,0.8 0.2,1.7 0.2,2.6 1.1,-0.1 2.1,-0.1 3.1,-0.1 l -0.5,5.4 c -0.3,3.3 -0.6,6.7 -0.9,10.1 0,0.3 0.1,0.7 0.3,0.9 0.2,0.3 0.5,0.4 0.9,0.5 0.7,0.1 1.3,-0.5 1.4,-1.2 l 1.4,-15.7 c 0.7,0 1.5,0 2.2,-0.1 l 0.3,-2.6 C 71,93 70.2,93 69.4,93 Z"
   id="path38"
   inkscape:connector-curvature="0"
   style="fill:#0084c8" />
</g>
</svg>