<svg xmlns="http://www.w3.org/2000/svg" height="128" width="128" xmlns:v="https://vecta.io/nano"><path d="M27.279 27.205h45.468v45.468H27.279z" fill="#ff00ff"/><path d="M50.2 0C22.551 0 0 22.468 0 50.016s22.551 50.018 50.2 50.018a49.93 49.93 0 0 0 25.665-7.071 12.048 12.004 0 0 0 1.808 2.27l29.818 29.308a12.048 12.004 0 0 0 17.039-.115 12.048 12.004 0 0 0-.116-16.974l-29.818-29.31a12.048 12.004 0 0 0-1.935-1.543c4.774-7.545 7.589-16.435 7.708-25.955a6.406 6.383 0 0 0 .031-.627 6.406 6.383 0 0 0-.033-.645C100.014 22.123 77.63 0 50.2 0zm0 12.768c20.724 0 37.387 16.6 37.387 37.248S70.924 87.266 50.2 87.266s-37.387-16.602-37.387-37.25S29.476 12.768 50.2 12.768z" fill="#00ff00"/></svg>
