/* XPM */
static char * pixmap[] = {
/* width height num_colors chars_per_pixel */
"48 48 336 4",
/* colors */
"     c #FDFDFD",
"!    c #FCFCFC",
"#    c #FBFBFB",
"$    c #F5F5F5",
"%    c #F3F3F3",
"&    c #EFEFEF",
"'    c #EEEEEE",
"(    c #EBEBEB",
")    c #EAEAEA",
"*    c #E9E9E9",
"+    c #E6E6E6",
",    c #E5E5E5",
"-    c #E1E1E1",
".    c #DDDDDD",
"/    c #D9D9D9",
"0    c #D1D1D1",
"1    c #D0D0D0",
"2    c #CCCCCC",
"3    c #C7C7C7",
"4    c #C0C0C0",
"5    c #BFBFBF",
"6    c #BBBBBB",
"7    c #BABABA",
"8    c #B8B9B6",
"9    c #B6B6B6",
":    c #B5B5B5",
";    c #B4B4B4",
"<    c #B2B2B2",
"=    c #B1B1B1",
">    c #ABABAB",
"?    c #AAAAAA",
"@    c #A9A9A9",
"A    c #A8A8A8",
"B    c #A7A7A7",
"C    c #A6A6A5",
"D    c #A5A5A5",
"E    c #A5A5A4",
"F    c #A3A3A3",
"G    c #A0A0A0",
"H    c #9FA09F",
"I    c #9E9F99",
"J    c #9D9D9A",
"K    c #9C9C9B",
"L    c #9B9B9B",
"M    c #999999",
"N    c #989898",
"O    c #989895",
"P    c #979797",
"Q    c #979796",
"R    c #949494",
"S    c #939393",
"T    c #929292",
"U    c #919191",
"V    c #909090",
"W    c #8F8F8F",
"X    c #8E8E8E",
"Y    c #8D8D8D",
"Z    c #8C8C8C",
"[    c #8B8B8B",
"]    c #8A8A8A",
"^    c #888888",
"_    c #878787",
"`    c #868686",
"a    c #858585",
"b    c #848484",
"c    c #838383",
"d    c #828282",
"e    c #818181",
"f    c #7F7F7F",
"g    c #7E7F7E",
"h    c #7E7E7E",
"i    c #7E7E7D",
"j    c #7C7D7A",
"k    c #7C7C7C",
"l    c #7B7B7B",
"m    c #7B7B7A",
"n    c #7A7C73",
"o    c #7A7A7A",
"p    c #797A7A",
"q    c #797979",
"r    c #787979",
"s    c #787878",
"t    c #777875",
"u    c #777777",
"v    c #767777",
"w    c #767770",
"x    c #76776F",
"y    c #767676",
"z    c #767675",
"{    c #747474",
"|    c #747473",
"}    c #737373",
"~    c #737370",
" !   c #727371",
"!!   c #727272",
"#!   c #71736A",
"$!   c #71726A",
"%!   c #717171",
"&!   c #707170",
"'!   c #707070",
"(!   c #70706E",
")!   c #6F6F6F",
"*!   c #6F6F6E",
"+!   c #6E6F6E",
",!   c #6E6E6E",
"-!   c #6E6E6C",
".!   c #6D6D6D",
"/!   c #6C6E64",
"0!   c #6C6C6C",
"1!   c #6B6B6B",
"2!   c #6A6A6A",
"3!   c #696A6A",
"4!   c #696969",
"5!   c #696867",
"6!   c #686968",
"7!   c #686868",
"8!   c #676767",
"9!   c #676766",
":!   c #666764",
";!   c #666666",
"<!   c #666665",
"=!   c #656565",
">!   c #646464",
"?!   c #646463",
"@!   c #63655C",
"A!   c #636462",
"B!   c #636363",
"C!   c #636362",
"D!   c #626262",
"E!   c #626261",
"F!   c #616161",
"G!   c #616160",
"H!   c #606160",
"I!   c #606060",
"J!   c #60605F",
"K!   c #5F605F",
"L!   c #5F5F5F",
"M!   c #5E5F5E",
"N!   c #5E5E5E",
"O!   c #5D5D5E",
"P!   c #5D5D5D",
"Q!   c #5C5C5C",
"R!   c #5B5B5B",
"S!   c #5A5A5A",
"T!   c #5A5A59",
"U!   c #595959",
"V!   c #595958",
"W!   c #59585C",
"X!   c #585858",
"Y!   c #575758",
"Z!   c #575757",
"[!   c #565753",
"]!   c #565656",
"^!   c #565655",
"_!   c #555556",
"`!   c #555555",
"a!   c #545454",
"b!   c #545453",
"c!   c #535353",
"d!   c #535352",
"e!   c #525252",
"f!   c #515152",
"g!   c #515151",
"h!   c #505050",
"i!   c #4F4F4F",
"j!   c #4E4E4E",
"k!   c #4D4D4D",
"l!   c #4D4D4C",
"m!   c #4C4C4C",
"n!   c #4B4B4B",
"o!   c #4A4B43",
"p!   c #4A4A4A",
"q!   c #4A4A49",
"r!   c #494B42",
"s!   c #494949",
"t!   c #484A41",
"u!   c #484848",
"v!   c #474748",
"w!   c #474747",
"x!   c #46473F",
"y!   c #464646",
"z!   c #45473F",
"{!   c #454545",
"|!   c #444444",
"}!   c #444443",
"~!   c #43443C",
" #   c #434343",
"!#   c #42443B",
"##   c #42443A",
"$#   c #424242",
"%#   c #424241",
"&#   c #414242",
"'#   c #414141",
"(#   c #414140",
")#   c #404040",
"*#   c #3F3F3F",
"+#   c #3F3F3E",
",#   c #3E3E3E",
"-#   c #3E3E3D",
".#   c #3D3F37",
"/#   c #3D3E37",
"0#   c #3D3D3D",
"1#   c #3D3D3A",
"2#   c #3C3C3C",
"3#   c #3B3C3B",
"4#   c #3B3B3B",
"5#   c #393939",
"6#   c #393938",
"7#   c #35372F",
"8#   c #353535",
"9#   c #34352D",
":#   c #343434",
";#   c #33352C",
"<#   c #333433",
"=#   c #333331",
">#   c #32332A",
"?#   c #323232",
"@#   c #313131",
"A#   c #303228",
"B#   c #303129",
"C#   c #303030",
"D#   c #2F3030",
"E#   c #2F302E",
"F#   c #2F3028",
"G#   c #2F3027",
"H#   c #2F3021",
"I#   c #2F2F2F",
"J#   c #2F2F2E",
"K#   c #2F2E2D",
"L#   c #2E3027",
"M#   c #2E2F27",
"N#   c #2E2E2E",
"O#   c #2D2E2D",
"P#   c #2D2E26",
"Q#   c #2D2D2D",
"R#   c #2C2E25",
"S#   c #2C2D29",
"T#   c #2C2C2C",
"U#   c #2C2C2B",
"V#   c #2B2C24",
"W#   c #2B2B2C",
"X#   c #2A2A2B",
"Y#   c #292B22",
"Z#   c #292A29",
"[#   c #292A21",
"]#   c #282827",
"^#   c #272920",
"_#   c #272726",
"`#   c #262820",
"a#   c #262627",
"b#   c #262626",
"c#   c #262625",
"d#   c #25271F",
"e#   c #252525",
"f#   c #242524",
"g#   c #24251E",
"h#   c #242424",
"i#   c #242423",
"j#   c #23251D",
"k#   c #23241C",
"l#   c #23241B",
"m#   c #232323",
"n#   c #232322",
"o#   c #222222",
"p#   c #21231A",
"q#   c #21221A",
"r#   c #212219",
"s#   c #202219",
"t#   c #20211A",
"u#   c #202119",
"v#   c #202118",
"w#   c #202020",
"x#   c #202018",
"y#   c #201F18",
"z#   c #1F2119",
"{#   c #1F2118",
"|#   c #1F2020",
"}#   c #1F201E",
"~#   c #1F2018",
" $   c #1F2017",
"!$   c #1F1F1F",
"#$   c #1F1F1E",
"$$   c #1F1F18",
"%$   c #1E2017",
"&$   c #1E1E1E",
"'$   c #1E1E1D",
"($   c #1D1E16",
")$   c #1D1D1C",
"*$   c #1C1E16",
"+$   c #1C1C1D",
",$   c #1C1C1C",
"-$   c #1C1B1A",
".$   c #1B1B1B",
"/$   c #1B1B1A",
"0$   c #1A1A1A",
"1$   c #191919",
"2$   c #191819",
"3$   c #181918",
"4$   c #181818",
"5$   c #171717",
"6$   c #171714",
"7$   c #161616",
"8$   c #161615",
"9$   c #161514",
":$   c #151515",
";$   c #141514",
"<$   c #141415",
"=$   c #141413",
">$   c #141313",
"?$   c #131313",
"@$   c #131312",
"A$   c #121213",
"B$   c #121212",
"C$   c #121211",
"D$   c #111111",
"E$   c #111110",
"F$   c #101110",
"G$   c #101010",
"H$   c #0F0F0F",
"I$   c #0E0F0E",
"J$   c #0E0E0F",
"K$   c #0E0E0E",
"L$   c #0E0E0D",
"M$   c #0E0D0E",
"N$   c #0E0D0D",
"O$   c #0E0D0C",
"P$   c #0D0D0E",
"Q$   c #0D0D0D",
"R$   c #0D0D0C",
"S$   c #0D0C0C",
"T$   c #0D0C0B",
"U$   c #0C0C0D",
"V$   c #0C0C0C",
"W$   c #0C0C0B",
"X$   c #0B0B0B",
"Y$   c #0B0B0A",
/* pixels */
"g#  g#  g#  g#  g#  g#  S#  S#  S#  S#  S#  S#  [!  [!  [!  [!  [!  [!  j   j   j   j   j   j   t   t   O   8   J   I   w   x!  /#  o!  .#  P#  j#  z#  k#  `#  P#  t#  ($  *$  ($  $$  y#  H#  ",
"g#  g#  g#  g#  g#  g#  S#  S#  S#  S#  S#  S#  [!  [!  [!  [!  [!  [!  j   j   j   j   j   j   t   t   A!  K   P!  V!  2!  v   N   3!  h   v   :#  .$  4$  ?$  2$  .$  K$  Q$  N$  M$  O$  $$  ",
"g#  g#  g#  g#  g#  g#  S#  S#  S#  S#  S#  S#  [!  [!  [!  [!  [!  [!  j   j   j   j   j   j   t   t   q!  =!  W!  f!  _!  X!  p   S!  ;!  h   :   I!  5$  |#  h#  0$  ;$  K$  R$  S$  Y$  z#  ",
"g#  g#  g#  g#  g#  g#  S#  S#  S#  S#  S#  S#  [!  [!  [!  [!  [!  [!  j   j   j   j   j   j   t   t   m!  |!  y!  a!  e!  `!  %!  B!  c!  F!  D!  %!  e   T#  0$  .$  w#  D$  I$  P$  L$  r#  ",
"g#  g#  g#  g#  g#  g#  S#  S#  S#  S#  S#  S#  [!  [!  [!  [!  [!  [!  j   j   j   j   j   j   t   t   g!  )#  w!  P!  =!  c!  2!  8!  k!  Q!  `!  1!  0!  4!  w#  &$  ,$  e#  L$  K$  S$  v#  ",
"g#  g#  g#  g#  g#  g#  S#  S#  S#  S#  S#  S#  [!  [!  [!  [!  [!  [!  j   j   j   j   j   j   t   t   s!  $#  '#  p!  n!  s!  L!  B!  k!  Z!  k!  Z!  D!  [   b   b#  0$  5$  3$  Q$  N$  ~#  ",
"1#  1#  1#  1#  1#  1#  =!  =!  =!  =!  =!  =!  h!  h!  h!  h!  h!  h!  I!  I!  I!  I!  I!  I!  S!  S!  D!  w!  )#   #  {!  ]!  =!  e!  p!  Z!  m!  ]!  ;!  P!  %!  y!  h#  .$  )$  D$  T$  v#  ",
"1#  1#  1#  1#  1#  1#  =!  =!  =!  =!  =!  =!  h!  h!  h!  h!  h!  h!  I!  I!  I!  I!  I!  I!  S!  S!  .!  n!  ,#  ,#  w!  F!  g!  p!  y!   #  w!   #  y!  e!  S!  U!  m#  .$  /$  +$  N$   $  ",
"1#  1#  1#  1#  1#  1#  =!  =!  =!  =!  =!  =!  h!  h!  h!  h!  h!  h!  I!  I!  I!  I!  I!  I!  S!  S!  N!  u!  )#  '#  y!  N!  ]!  n!  n!  w!  |!  n!  R!  4!  0!  `   ,#  b#  ]#  .$  >$  q#  ",
"1#  1#  1#  1#  1#  1#  =!  =!  =!  =!  =!  =!  h!  h!  h!  h!  h!  h!  I!  I!  I!  I!  I!  I!  S!  S!  S!  u!  $#  $#  |!  n!  u!  '#   #  y!  u!  X!  .!  =!  F!  e   w#  o#  i#  a#  9$  {#  ",
"1#  1#  1#  1#  1#  1#  =!  =!  =!  =!  =!  =!  h!  h!  h!  h!  h!  h!  I!  I!  I!  I!  I!  I!  S!  S!  k!  *#   #  $#   #  |!  y!  p!  2!  !!  N!  i!  2!  7!  )!  R!  0$  1$  O#  8#  #$  l#  ",
"1#  1#  1#  1#  1#  1#  =!  =!  =!  =!  =!  =!  h!  h!  h!  h!  h!  h!  I!  I!  I!  I!  I!  I!  S!  S!  y!  {!  g!  m!  *#  )#  {!  U!  =!  ,!  u   l   }   u   !!  $#  4$  &$  U#  4#  _#  V#  ",
":!  :!  :!  :!  :!  :!  L   L   L   L   L   L   l   l   l   l   l   l   h   h   h   h   h   h   L!  L!  {!  a!  l   j!  ,#  y!  n!  R!  D!  N!  F!  .!  '   L   U!  j!  u!  4$  E#  *#  f#  F#  ",
":!  :!  :!  :!  :!  :!  L   L   L   L   L   L   l   l   l   l   l   l   h   h   h   h   h   h   L!  L!  X!  4!  2!  Q!  n!  p!  p!  n!  U!  S!  L!  F   ,   #   (   >   X!  I#  Z#  C#  +#  >#  ",
":!  :!  :!  :!  :!  :!  L   L   L   L   L   L   l   l   l   l   l   l   h   h   h   h   h   h   L!  L!  d   =!  I!  S!  ]!  R!  i!  m!  e!  =!  _   1   Z   *   /   +   %   C#  '$  D#  c#  ;#  ",
":!  :!  :!  :!  :!  :!  L   L   L   L   L   L   l   l   l   l   l   l   h   h   h   h   h   h   L!  L!  ,!  I!  a!  i!  N!  P!  R!  j!  S!  2!  %!  ,!  %!  W   ?   4   -   ;   7$  0$  J#  z!  ",
":!  :!  :!  :!  :!  :!  L   L   L   L   L   L   l   l   l   l   l   l   h   h   h   h   h   h   L!  L!  e   h!  ,#  i!  N!  N!  Q!  R!  a!  P!  0!  l   ,!  s   y   {   T   5   -#  A$  #$  ~!  ",
":!  :!  :!  :!  :!  :!  L   L   L   L   L   L   l   l   l   l   l   l   h   h   h   h   h   h   L!  L!  >   {!  )#  $#  c!  D!  X!  g!  g!  X!  1!  %!  )!  U   U   )!  7!  D   H   <$  -$  F#  ",
"(!  (!  (!  (!  (!  (!  5   5   5   5   5   5   l   l   l   l   l   l   ,!  ,!  ,!  ,!  ,!  ,!  R!  R!  P   i!   #  2#  {!  k!  g!  j!  e!  a!  I!  1!  a   7   Z   y   o   A   C   F!  C$  B#  ",
"(!  (!  (!  (!  (!  (!  5   5   5   5   5   5   l   l   l   l   l   l   ,!  ,!  ,!  ,!  ,!  ,!  R!  R!  >!  w!   #  {!  ,#  w!  g!  Q!  n!  Z!  I!  ,!  B   0   B   V   k   Y   E   ^   }#  G#  ",
"(!  (!  (!  (!  (!  (!  5   5   5   5   5   5   l   l   l   l   l   l   ,!  ,!  ,!  ,!  ,!  ,!  R!  R!  j!  p!  w!  s!  $#  0#  m!  {!  s!  Z!  D!  }   P   +   U   2!  )!  S!  <!  {   %#  ^#  ",
"(!  (!  (!  (!  (!  (!  5   5   5   5   5   5   l   l   l   l   l   l   ,!  ,!  ,!  ,!  ,!  ,!  R!  R!  e!  g!  a!  p!  y!  '#  {!  s!  p!  c!  I!  .!  G   9   8!  `!  ]!  U!  K!  ;!  *!  L#  ",
"(!  (!  (!  (!  (!  (!  5   5   5   5   5   5   l   l   l   l   l   l   ,!  ,!  ,!  ,!  ,!  ,!  R!  R!  `!  e!  m!  i!  p!  n!  n!  w!  y!  g!  B!  %!  c   0!  Z!  e!  U!  I!  z   r   |   9#  ",
"(!  (!  (!  (!  (!  (!  5   5   5   5   5   5   l   l   l   l   l   l   ,!  ,!  ,!  ,!  ,!  ,!  R!  R!  ]!  `!  e!  i!  j!  Z!  `!  i!  p!  g!  8!  _   ;   N!  i!  )!  l   7!  ;!  f!  T!  t!  ",
"-!  -!  -!  -!  -!  -!  9   9   9   9   9   9   d   d   d   d   d   d   F!  F!  F!  F!  F!  F!  I!  I!  R!  `!  g!  `!  ]!  U!  P!  g!  `!  S!  !!  1!  j!  m!  2!  .!  ]!  i!  k!  e!  i   #!  ",
"-!  -!  -!  -!  -!  -!  9   9   9   9   9   9   d   d   d   d   d   d   F!  F!  F!  F!  F!  F!  I!  I!  F!  X!  h!  e!  g!  c!  e!  j!  g!  L!  S   L!  a!  ]!  >!  e!  h!  k!  l!  h!  ^!  x   ",
"-!  -!  -!  -!  -!  -!  9   9   9   9   9   9   d   d   d   d   d   d   F!  F!  F!  F!  F!  F!  I!  I!  }   D!  P!  Q!  c!  g!  m!  k!  k!  X!  L!  a!  c!  F!  c!  s!  j!  c!  M!  !!  5!  /!  ",
"-!  -!  -!  -!  -!  -!  9   9   9   9   9   9   d   d   d   d   d   d   F!  F!  F!  F!  F!  F!  I!  I!  D   0!  Z!  Q!  ]!  e!  i!  n!  n!  h!  h!  g!  ]!  e!  c!  c!  e!  R!  +!  a   Q   @!  ",
"-!  -!  -!  -!  -!  -!  9   9   9   9   9   9   d   d   d   d   d   d   F!  F!  F!  F!  F!  F!  I!  I!  h   f   u   L!  Q!  c!  c!  m!  |!  s!  m!  ]!  c!  i!  c!  `!  Q!  L!  E!  B!  G!  n   ",
"-!  -!  -!  -!  -!  -!  9   9   9   9   9   9   d   d   d   d   d   d   F!  F!  F!  F!  F!  F!  I!  I!  X!  a!  k!  '!  b   ]   P   .!  j!  s!  h!  `!  n!  h!  c!  Z!  =!  4!  H!  N!  <!  $!  ",
"~   ~   ~   ~   ~   ~   @   @   @   @   @   @   X   X   X   X   X   X   u   u   u   u   u   u   =!  =!  e!  e!  a!  >!  =   &   )   $   F   p!  m!  m!  m!  S!  7!  1!  `   c   &!  >!  9!  r!  ",
"~   ~   ~   ~   ~   ~   @   @   @   @   @   @   X   X   X   X   X   X   u   u   u   u   u   u   =!  =!  h!  c!  U!  S!  ]   (       #   3   h!  a!  e!  e!  2!  %!  .!  7!  4!  C!  >!  *!  A#  ",
"~   ~   ~   ~   ~   ~   @   @   @   @   @   @   X   X   X   X   X   X   u   u   u   u   u   u   =!  =!  ;!  S!  h!  Z!  R!  R   .   !   2   c!  g!  n!  `!  P!  >!  4!  )!  {   m   e   b!  L#  ",
"~   ~   ~   ~   ~   ~   @   @   @   @   @   @   X   X   X   X   X   X   u   u   u   u   u   u   =!  =!  '!  c!  i!  ]!  a!  N!  y   6   <   c!  g!  i!  g!  c!  `!  ]!  ]!  2!  g   T   }!  [#  ",
"~   ~   ~   ~   ~   ~   @   @   @   @   @   @   X   X   X   X   X   X   u   u   u   u   u   u   =!  =!  8!  P!  h!  `!  a!  a!  ]!  N!  o   a!  e!  e!  F!  B!  Q!  `!  j!  F!  6!  =!  K#  M#  ",
"~   ~   ~   ~   ~   ~   @   @   @   @   @   @   X   X   X   X   X   X   u   u   u   u   u   u   =!  =!  S!  R!  S!  ,!  y   U!  U!  c!  S!  g!  g!  c!  R!  {   }   2!  P!  P!  C!  k!  /$  R#  ",
"=#  =#  =#  =#  =#  =#  [   [   [   [   [   [   !!  !!  !!  !!  !!  !!  X!  X!  X!  X!  X!  X!  o   o   }   M   a   =   '!  c!  `!  Q!  P!  `!  g!  n!  u!  Z!  >!  1!  Z   e    !   #  E$  d#  ",
"=#  =#  =#  =#  =#  =#  [   [   [   [   [   [   !!  !!  !!  !!  !!  !!  X!  X!  X!  X!  X!  X!  o   o   ^   '!  U!  V   >!  a!  U!  S!  Z!  c!  e!  h!  j!  k!  j!  `!  L!  8!  ?!  !$  =$  7#  ",
"=#  =#  =#  =#  =#  =#  [   [   [   [   [   [   !!  !!  !!  !!  !!  !!  X!  X!  X!  X!  X!  X!  o   o   .!  1!  j!  g!  ]!  `!  X!  Z!  g!  c!  c!  R!  D!  I!  X!  P!  =!  7!  d!  B$  ;$  ##  ",
"=#  =#  =#  =#  =#  =#  [   [   [   [   [   [   !!  !!  !!  !!  !!  !!  X!  X!  X!  X!  X!  X!  o   o   S!  g!  i!  g!  `!  U!  Q!  k!  S!  Q!  S!  S!  B!  4!  `!  I!  7!  s   @$  G$  (#  !#  ",
"=#  =#  =#  =#  =#  =#  [   [   [   [   [   [   !!  !!  !!  !!  !!  !!  X!  X!  X!  X!  X!  X!  o   o   N!  ]!  a!  `!  `!  Z!  R!  g!  ]!  !!  q   2!  P!  {   S!  8!  M   Q#  F$  &$  <#  Y#  ",
"=#  =#  =#  =#  =#  =#  [   [   [   [   [   [   !!  !!  !!  !!  !!  !!  X!  X!  X!  X!  X!  X!  o   o   1!  >!  g!  >!  S!  X!  `!  a!  R!  2!  q   )!  7!  y   R!  P!  {!  1$  n#  5#  i#  x#  ",
"6$  6$  6$  6$  6$  6$  X#  X#  X#  X#  X#  X#  p!  p!  p!  p!  p!  p!  J!  J!  J!  J!  J!  J!  }   }   D!  >!  D!  )!  2!  L!  N!  g!  Z!  4!  B!  q   d   e   %!  ]!  ?$  4$  3#  &#  8$  u#  ",
"6$  6$  6$  6$  6$  6$  X#  X#  X#  X#  X#  X#  p!  p!  p!  p!  p!  p!  J!  J!  J!  J!  J!  J!  }   }   P!  !!  }   X!  U!  R!  a!  e!  ]!  1!  u   %!  B   7   m!  4$  7$  N#  6#  0$  L$  v#  ",
"6$  6$  6$  6$  6$  6$  X#  X#  X#  X#  X#  X#  p!  p!  p!  p!  p!  p!  J!  J!  J!  J!  J!  J!  }   }   F!  c!  u   ]!  Z!  c!  `!  k!  c!  >!  '!  4!  0!  w!  :$  :$  h#  $#  '$  H$  N$  %$  ",
"6$  6$  6$  6$  6$  6$  X#  X#  X#  X#  X#  X#  p!  p!  p!  p!  p!  p!  J!  J!  J!  J!  J!  J!  }   }   Z!  `!  g!  Z!  S!  h!  u   L!  e!  c!  Z!  R!  C#  D$  7$  @#  ?#  :$  X$  Q$  W$  s#  ",
"6$  6$  6$  6$  6$  6$  X#  X#  X#  X#  X#  X#  p!  p!  p!  p!  p!  p!  J!  J!  J!  J!  J!  J!  }   }   N!  ]!  w!  I!  P!  i!  4!  a   S!  D!  w!  4$  :$  ?$  T#  I#  G$  V$  W$  V$  W$  p#  ",
"6$  6$  6$  6$  6$  6$  X#  X#  X#  X#  X#  X#  p!  p!  p!  p!  p!  p!  J!  J!  J!  J!  J!  J!  }   }   v!  Y!  Z!  G   Z!  f!  c!  >!  O!  W#  J$  .$  e#  a#  &$  D$  K$  H$  Q$  U$  R$  u#  "
};
