<?xml version="1.0" encoding="UTF-8" standalone="no"?>
<svg
   xmlns:dc="http://purl.org/dc/elements/1.1/"
   xmlns:cc="http://creativecommons.org/ns#"
   xmlns:rdf="http://www.w3.org/1999/02/22-rdf-syntax-ns#"
   xmlns:svg="http://www.w3.org/2000/svg"
   xmlns="http://www.w3.org/2000/svg"
   xmlns:sodipodi="http://sodipodi.sourceforge.net/DTD/sodipodi-0.dtd"
   xmlns:inkscape="http://www.inkscape.org/namespaces/inkscape"
   version="1.1"
   id="svg2"
   viewBox="0 0 99.999997 99.999997"
   height="100"
   width="100"
   sodipodi:docname="measurement.svg"
   inkscape:version="0.92.3 (2405546, 2018-03-11)">
  <sodipodi:namedview
     pagecolor="#ffffff"
     bordercolor="#666666"
     borderopacity="1"
     objecttolerance="10"
     gridtolerance="10"
     guidetolerance="10"
     inkscape:pageopacity="0"
     inkscape:pageshadow="2"
     inkscape:window-width="1680"
     inkscape:window-height="1028"
     id="namedview48"
     showgrid="false"
     inkscape:zoom="3.337544"
     inkscape:cx="-42.372541"
     inkscape:cy="59.430615"
     inkscape:window-x="1672"
     inkscape:window-y="-8"
     inkscape:window-maximized="1"
     inkscape:current-layer="g5054" />
  <defs
     id="defs4" />
  <metadata
     id="metadata7">
    <rdf:RDF>
      <cc:Work
         rdf:about="">
        <dc:format>image/svg+xml</dc:format>
        <dc:type
           rdf:resource="http://purl.org/dc/dcmitype/StillImage" />
        <dc:title />
      </cc:Work>
    </rdf:RDF>
  </metadata>
  <g
     transform="translate(0,-952.36223)"
     id="layer1">
    <g
       style="stroke:none;fill:#000000;fill-opacity:1"
       transform="matrix(-2.7712625,-0.04440587,-0.04440587,2.7712625,95.961492,958.55189)"
       id="g4247">
      <g
         style="stroke:none;fill:#000000;fill-opacity:1"
         id="g4203">
        <g
           style="stroke:none;fill:#000000;fill-opacity:1"
           id="g4205">
          <path
             style="color:#000000;clip-rule:nonzero;display:inline;overflow:visible;visibility:visible;opacity:1;isolation:auto;mix-blend-mode:normal;color-interpolation:sRGB;color-interpolation-filters:linearRGB;solid-color:#000000;solid-opacity:1;fill:#000000;fill-opacity:1;fill-rule:nonzero;stroke:none;stroke-width:0.2407787;stroke-linecap:butt;stroke-linejoin:miter;stroke-miterlimit:4;stroke-dasharray:none;stroke-dashoffset:0;stroke-opacity:1;color-rendering:auto;image-rendering:auto;shape-rendering:auto;text-rendering:auto;enable-background:accumulate"
             d="m 6.7785799,16.446142 -3.2916502,3.174902 -2.80887485,2.70925 c -0.387,0.375 -0.387,1.004 -0.014,1.393 l 7.45099995,7.723 c 0.374,0.392 1.002,0.413 1.39,0.037 l 1.4044372,-1.35475 1.404438,-1.35475 3.335539,-3.217531 -1.38339,-1.391454 -3.336644,3.21805 -1.2073752,1.164438 c -0.23,0.223 -0.539,0.345 -0.859,0.339 -0.32,-0.007 -0.624,-0.14 -0.846,-0.369 l -4.432,-4.595 c -0.462,-0.479 -0.449,-1.243 0.03,-1.705 l 2.039,2.113 c 0.28,0.291 0.741,0.299 1.032,0.021 0.291,-0.281 0.297,-0.741 0.016,-1.034 l -2.037,-2.11 0.543,-0.523 2.037,2.111 c 0.28,0.291 0.742,0.302 1.033,0.021 0.291,-0.278 0.296,-0.737 0.016,-1.03 l -2.037,-2.111 0.542,-0.523 2.038,2.112 c 0.28,0.29 0.742,0.3 1.032,0.021 0.2909992,-0.281 0.2969992,-0.74 0.016,-1.033 l -2.037,-2.11 0.3068122,-0.296052 m 9.511174,-9.1776229 0.276008,-0.2663281 3.391,3.518 c 0.281,0.291 0.761,0.284 1.053,0.004 0.291,-0.282 0.314,-0.76 0.035,-1.05 l -3.395,-3.519 3.906,-3.769 c 0.229,-0.222 0.539,-0.344 0.858,-0.338 0.32,0.006 0.625,0.138 0.847,0.369 l 4.434,4.594 c 0.221,0.229 0.344,0.539 0.338,0.858 -0.006,0.32 -0.14,0.624 -0.369,0.847 l -5.282266,5.094414 1.371632,1.400988 6.846633,-6.604406 c 0.388,-0.375 0.389,-1.003 0.013,-1.391 l -7.449,-7.72500005 c -0.375,-0.388 -1.002,-0.409 -1.391,-0.035 L 16.302422,7.2600909 Z"
             id="path4207" />
          <path
             style="color:#000000;clip-rule:nonzero;display:inline;overflow:visible;visibility:visible;opacity:1;isolation:auto;mix-blend-mode:normal;color-interpolation:sRGB;color-interpolation-filters:linearRGB;solid-color:#000000;solid-opacity:1;fill:#000000;fill-opacity:1;fill-rule:nonzero;stroke:none;stroke-width:1;stroke-linecap:butt;stroke-linejoin:miter;stroke-miterlimit:4;stroke-dasharray:none;stroke-dashoffset:0;stroke-opacity:1;color-rendering:auto;image-rendering:auto;shape-rendering:auto;text-rendering:auto;enable-background:accumulate"
             d="m 22.351,9.433 c 0.938,0.973 2.49,1 3.463,0.062 0.975,-0.938 1,-2.492 0.062,-3.464 -0.938,-0.973 -2.491,-1 -3.463,-0.062 -0.974,0.939 -1.001,2.493 -0.062,3.464 z m 1.078,-2.41 C 23.82,6.646 24.447,6.659 24.825,7.048 25.201,7.44 25.189,8.065 24.799,8.443 24.405,8.821 23.78,8.809 23.403,8.419 23.025,8.026 23.037,7.4 23.429,7.023 Z"
             id="path4209" />
        </g>
      </g>
      <g
         style="stroke:none;fill:#000000;fill-opacity:1"
         id="g4211" />
      <g
         style="stroke:none;fill:#000000;fill-opacity:1"
         id="g4213" />
      <g
         style="stroke:none;fill:#000000;fill-opacity:1"
         id="g4215" />
      <g
         style="stroke:none;fill:#000000;fill-opacity:1"
         id="g4217" />
      <g
         style="stroke:none;fill:#000000;fill-opacity:1"
         id="g4219" />
      <g
         style="stroke:none;fill:#000000;fill-opacity:1"
         id="g4221" />
      <g
         style="stroke:none;fill:#000000;fill-opacity:1"
         id="g4223" />
      <g
         style="stroke:none;fill:#000000;fill-opacity:1"
         id="g4225" />
      <g
         style="stroke:none;fill:#000000;fill-opacity:1"
         id="g4227" />
      <g
         style="stroke:none;fill:#000000;fill-opacity:1"
         id="g4229" />
      <g
         style="stroke:none;fill:#000000;fill-opacity:1"
         id="g4231" />
      <g
         style="stroke:none;fill:#000000;fill-opacity:1"
         id="g4233" />
      <g
         style="stroke:none;fill:#000000;fill-opacity:1"
         id="g4235" />
      <g
         style="stroke:none;fill:#000000;fill-opacity:1"
         id="g4237" />
      <g
         style="stroke:none;fill:#000000;fill-opacity:1"
         id="g4239" />
    </g>
  </g>
  <g
     id="g5054"
     transform="translate(0,-952.36223)">
    <g
       style="fill:#000000;fill-opacity:1;stroke:none;stroke-width:0.69999999;stroke-miterlimit:4;stroke-dasharray:none;stroke-opacity:1"
       id="g5056"
       transform="translate(-0.84065185,4.3675028)">
      <g
         id="g5058"
         transform="matrix(0.2176511,0,0,0.2176511,2.9281613,955.29021)"
         style="fill:#000000;fill-opacity:1;stroke:none;stroke-width:4.59450912;stroke-miterlimit:4;stroke-dasharray:none;stroke-opacity:1">
        <g
           id="g5060"
           style="fill:#000000;fill-opacity:1;stroke:none;stroke-width:4.59450912;stroke-miterlimit:4;stroke-dasharray:none;stroke-opacity:1">
          <g
             id="g5062"
             style="fill:#000000;fill-opacity:1;stroke:none;stroke-width:4.59450912;stroke-miterlimit:4;stroke-dasharray:none;stroke-opacity:1">
            <path
               id="path5064"
               d="m 35.484375,277.96094 c 0,37.51237 0,75.02474 0,112.53711 37.51237,0 75.024735,0 112.537105,0 C 227.92122,310.59831 307.82096,230.69857 387.7207,150.79883 350.20703,113.28581 312.69336,75.772786 275.17969,38.259766 195.28125,118.16016 115.38281,198.06055 35.484375,277.96094 Z M 286.11133,69.505859 c 12.61559,-0.114791 18.04506,18.990411 7.80078,25.957032 -53.86615,54.133839 -107.60062,108.452349 -162.17969,161.845699 -8.16687,7.85961 -23.2383,1.37885 -23.65625,-9.79297 -0.44224,-12.11468 12.16843,-18.39703 18.97266,-26.27929 50.01587,-50.15568 99.5627,-100.85705 150.62305,-149.984377 2.57796,-1.379401 5.54894,-1.788405 8.43945,-1.746094 z M 94.097656,253.43359 c 26.620404,26.61984 53.240924,53.23955 79.861324,79.85938 -11.69744,11.69839 -23.39443,23.39723 -35.09179,35.0957 -14.38998,0.001 -28.77995,0.003 -43.169924,0.004 0,-12.70313 0,-25.40625 0,-38.10938 -12.773438,0 -25.546875,0 -38.320313,0 0.96317,-14.66556 -0.913251,-29.4358 1.087891,-44.04492 11.40625,-11.40625 22.8125,-22.8125 34.21875,-34.21875 l 0.707107,0.70711 0.706955,0.70695 z"
               style="color:#000000;clip-rule:nonzero;display:inline;overflow:visible;visibility:visible;opacity:1;isolation:auto;mix-blend-mode:normal;color-interpolation:sRGB;color-interpolation-filters:linearRGB;solid-color:#000000;solid-opacity:1;fill:#000000;fill-opacity:1;fill-rule:nonzero;stroke:none;stroke-width:4.59450912;stroke-linecap:butt;stroke-linejoin:miter;stroke-miterlimit:4;stroke-dasharray:none;stroke-dashoffset:0;stroke-opacity:1;color-rendering:auto;image-rendering:auto;shape-rendering:auto;text-rendering:auto;enable-background:accumulate" />
            <path
               id="path5066"
               d="M 322.27539,1.0390625 C 306.3921,2.2575091 297.53997,17.44795 286.70898,27.007812 c -8.81705,8.763672 -17.63411,17.527344 -26.45117,26.291016 37.37759,37.144283 74.76573,75.226962 112.13672,111.785152 16.42269,-17.30818 35.341,-32.52124 49.51758,-51.79687 6.7363,-14.529494 -0.41483,-32.136231 -13.13008,-40.868002 C 385.45479,49.961704 363.8054,25.649742 339.16211,4.6289062 334.05412,1.7551979 328.06721,0.86076722 322.27539,1.0390625 Z"
               style="color:#000000;clip-rule:nonzero;display:inline;overflow:visible;visibility:visible;opacity:1;isolation:auto;mix-blend-mode:normal;color-interpolation:sRGB;color-interpolation-filters:linearRGB;solid-color:#000000;solid-opacity:1;fill:#000000;fill-opacity:1;fill-rule:nonzero;stroke:none;stroke-width:4.59450912;stroke-linecap:butt;stroke-linejoin:miter;stroke-miterlimit:4;stroke-dasharray:none;stroke-dashoffset:0;stroke-opacity:1;color-rendering:auto;image-rendering:auto;shape-rendering:auto;text-rendering:auto;enable-background:accumulate" />
          </g>
        </g>
        <g
           id="g5068"
           style="fill:#000000;fill-opacity:1;stroke:none;stroke-width:4.59450912;stroke-miterlimit:4;stroke-dasharray:none;stroke-opacity:1" />
        <g
           id="g5070"
           style="fill:#000000;fill-opacity:1;stroke:none;stroke-width:4.59450912;stroke-miterlimit:4;stroke-dasharray:none;stroke-opacity:1" />
        <g
           id="g5072"
           style="fill:#000000;fill-opacity:1;stroke:none;stroke-width:4.59450912;stroke-miterlimit:4;stroke-dasharray:none;stroke-opacity:1" />
        <g
           id="g5074"
           style="fill:#000000;fill-opacity:1;stroke:none;stroke-width:4.59450912;stroke-miterlimit:4;stroke-dasharray:none;stroke-opacity:1" />
        <g
           id="g5076"
           style="fill:#000000;fill-opacity:1;stroke:none;stroke-width:4.59450912;stroke-miterlimit:4;stroke-dasharray:none;stroke-opacity:1" />
        <g
           id="g5078"
           style="fill:#000000;fill-opacity:1;stroke:none;stroke-width:4.59450912;stroke-miterlimit:4;stroke-dasharray:none;stroke-opacity:1" />
        <g
           id="g5080"
           style="fill:#000000;fill-opacity:1;stroke:none;stroke-width:4.59450912;stroke-miterlimit:4;stroke-dasharray:none;stroke-opacity:1" />
        <g
           id="g5082"
           style="fill:#000000;fill-opacity:1;stroke:none;stroke-width:4.59450912;stroke-miterlimit:4;stroke-dasharray:none;stroke-opacity:1" />
        <g
           id="g5084"
           style="fill:#000000;fill-opacity:1;stroke:none;stroke-width:4.59450912;stroke-miterlimit:4;stroke-dasharray:none;stroke-opacity:1" />
        <g
           id="g5086"
           style="fill:#000000;fill-opacity:1;stroke:none;stroke-width:4.59450912;stroke-miterlimit:4;stroke-dasharray:none;stroke-opacity:1" />
        <g
           id="g5088"
           style="fill:#000000;fill-opacity:1;stroke:none;stroke-width:4.59450912;stroke-miterlimit:4;stroke-dasharray:none;stroke-opacity:1" />
        <g
           id="g5090"
           style="fill:#000000;fill-opacity:1;stroke:none;stroke-width:4.59450912;stroke-miterlimit:4;stroke-dasharray:none;stroke-opacity:1" />
        <g
           id="g5092"
           style="fill:#000000;fill-opacity:1;stroke:none;stroke-width:4.59450912;stroke-miterlimit:4;stroke-dasharray:none;stroke-opacity:1" />
        <g
           id="g5094"
           style="fill:#000000;fill-opacity:1;stroke:none;stroke-width:4.59450912;stroke-miterlimit:4;stroke-dasharray:none;stroke-opacity:1" />
        <g
           id="g5096"
           style="fill:#000000;fill-opacity:1;stroke:none;stroke-width:4.59450912;stroke-miterlimit:4;stroke-dasharray:none;stroke-opacity:1" />
      </g>
    </g>
  </g>
</svg>
