<?xml version="1.0" encoding="UTF-8" standalone="no"?>
<!-- Generator: Adobe Illustrator 19.1.0, SVG Export Plug-In . SVG Version: 6.00 Build 0)  -->

<svg
   xmlns:dc="http://purl.org/dc/elements/1.1/"
   xmlns:cc="http://creativecommons.org/ns#"
   xmlns:rdf="http://www.w3.org/1999/02/22-rdf-syntax-ns#"
   xmlns:svg="http://www.w3.org/2000/svg"
   xmlns="http://www.w3.org/2000/svg"
   xmlns:sodipodi="http://sodipodi.sourceforge.net/DTD/sodipodi-0.dtd"
   xmlns:inkscape="http://www.inkscape.org/namespaces/inkscape"
   version="1.1"
   x="0px"
   y="0px"
   viewBox="0 0 40 34.7"
   style="enable-background:new 0 0 40 34.7;"
   xml:space="preserve"
   id="svg2"
   inkscape:version="0.91 r13725"
   sodipodi:docname="iconTrackingDataPlayer.svg"><metadata
     id="metadata82"><rdf:RDF><cc:Work
         rdf:about=""><dc:format>image/svg+xml</dc:format><dc:type
           rdf:resource="http://purl.org/dc/dcmitype/StillImage" /></cc:Work></rdf:RDF></metadata><defs
     id="defs80" /><sodipodi:namedview
     pagecolor="#ffffff"
     bordercolor="#666666"
     borderopacity="1"
     objecttolerance="10"
     gridtolerance="10"
     guidetolerance="10"
     inkscape:pageopacity="0"
     inkscape:pageshadow="2"
     inkscape:window-width="686"
     inkscape:window-height="480"
     id="namedview78"
     showgrid="false"
     inkscape:zoom="6.8011526"
     inkscape:cx="20"
     inkscape:cy="23.231356"
     inkscape:window-x="0"
     inkscape:window-y="0"
     inkscape:window-maximized="0"
     inkscape:current-layer="svg2" /><style
     type="text/css"
     id="style4">
	.st0{display:none;}
	.st1{display:inline;fill:#9D9D9C;}
	.st2{fill:#FFFFFF;}
	.st3{fill:none;stroke:#000000;stroke-width:7;stroke-miterlimit:10;}
	.st4{fill:#C0C5CD;}
	.st5{fill:none;stroke:#000000;stroke-width:2;stroke-miterlimit:10;}
	.st6{fill:none;stroke:#C0C5CD;stroke-width:2;stroke-miterlimit:10;}
	.st7{fill:#0096AE;}
	.st8{fill:#244F9E;}
	.st9{fill:none;stroke:#000000;stroke-width:5;stroke-miterlimit:10;}
	.st10{fill:none;stroke:#000000;stroke-width:5;stroke-linecap:round;stroke-miterlimit:10;}
	.st11{fill:none;stroke:#000000;stroke-width:5;stroke-linecap:square;stroke-miterlimit:10;}
	.st12{fill:none;stroke:#000000;stroke-miterlimit:10;}
	.st13{fill:#CEC917;}
	.st14{fill:none;stroke:#FFFFFF;stroke-width:6;stroke-linecap:round;stroke-miterlimit:10;}
	.st15{fill:none;stroke:#1D71B8;stroke-width:4;stroke-miterlimit:10;}
	.st16{fill:none;stroke:#FFFFFF;stroke-width:5;stroke-linecap:round;stroke-miterlimit:10;}
	.st17{fill:none;stroke:#E6007E;stroke-width:4;stroke-miterlimit:10;}
	.st18{fill:#1C1C1B;}
	.st19{fill:#010202;stroke:#FFFFFF;stroke-miterlimit:10;}
	.st20{fill:none;stroke:#FFFFFF;stroke-miterlimit:10;}
	.st21{fill:#010202;}
	.st22{stroke:#000000;stroke-linejoin:round;stroke-miterlimit:10;}
	.st23{fill:none;stroke:#000000;stroke-linejoin:round;stroke-miterlimit:10;}
	.st24{fill:none;stroke:#1C1C1B;stroke-miterlimit:10;}
	.st25{fill:none;stroke:#1C1C1B;stroke-linecap:round;stroke-linejoin:round;stroke-miterlimit:10;}
	.st26{fill:none;stroke:#009640;stroke-width:2;stroke-linecap:round;stroke-miterlimit:10;}
	.st27{fill:none;}
	.st28{clip-path:url(#SVGID_2_);}
	.st29{clip-path:url(#SVGID_2_);fill:none;}
	.st30{clip-path:url(#SVGID_4_);fill:none;}
	.st31{clip-path:url(#SVGID_4_);}
	.st32{clip-path:url(#SVGID_6_);fill:none;}
	.st33{clip-path:url(#SVGID_6_);}
	.st34{clip-path:url(#SVGID_8_);}
	.st35{clip-path:url(#SVGID_8_);fill:none;}
	.st36{clip-path:url(#SVGID_10_);fill:#FFFFFF;}
	.st37{clip-path:url(#SVGID_10_);}
	.st38{fill:none;stroke:#009640;stroke-width:6;stroke-linecap:round;stroke-miterlimit:10;}
	.st39{fill:none;stroke:#010202;stroke-width:2;stroke-linecap:round;stroke-miterlimit:10;}
	.st40{fill:none;stroke:#010202;stroke-width:6;stroke-linecap:round;stroke-miterlimit:10;}
	.st41{fill:none;stroke:#010202;stroke-width:9;stroke-linecap:round;stroke-miterlimit:10;}
	.st42{fill:none;stroke:#010202;stroke-width:3;stroke-linecap:round;stroke-miterlimit:10;}
	.st43{fill:none;stroke:#000000;stroke-width:0.5;stroke-miterlimit:10;}
	.st44{fill:#E6007E;}
	.st45{fill:none;stroke:#E6007E;stroke-width:7;stroke-miterlimit:10;}
	.st46{fill:none;stroke:#1C1C1B;stroke-width:5;stroke-miterlimit:10;}
	.st47{fill:none;stroke:#1C1C1B;stroke-width:5;stroke-miterlimit:10;stroke-dasharray:9.8182,4.0909;}
	.st48{fill:none;stroke:#1C1C1B;stroke-width:5;stroke-miterlimit:10;stroke-dasharray:12,5;}
	.st49{fill:none;stroke:#1C1C1B;stroke-width:4;stroke-miterlimit:10;}
	.st50{fill:none;stroke:#1C1C1B;stroke-width:4;stroke-miterlimit:10;stroke-dasharray:9.8182,4.0909;}
	.st51{fill:none;stroke:#1C1C1B;stroke-width:4;stroke-miterlimit:10;stroke-dasharray:12,5;}
	.st52{fill:none;stroke:#000000;stroke-width:8;stroke-miterlimit:10;}
	.st53{clip-path:url(#SVGID_12_);}
	.st54{clip-path:url(#SVGID_12_);fill:none;}
	.st55{clip-path:url(#SVGID_14_);}
	.st56{fill:none;stroke:#81181A;stroke-miterlimit:10;}
	.st57{fill:none;stroke:#037C90;stroke-miterlimit:10;}
	.st58{fill:none;stroke:#35393B;stroke-miterlimit:10;}
	.st59{fill:none;stroke:#A0151A;stroke-miterlimit:10;}
	.st60{fill:none;stroke:#1C1C1B;stroke-linecap:square;stroke-miterlimit:10;}
	.st61{fill:none;stroke:#1C1C1B;stroke-width:2;stroke-linecap:round;stroke-linejoin:round;stroke-miterlimit:10;}
	.st62{clip-path:url(#SVGID_16_);}
	.st63{fill:none;stroke:#FFFFFF;stroke-width:4;stroke-miterlimit:10;}
	.st64{clip-path:url(#SVGID_18_);}
	.st65{clip-path:url(#SVGID_18_);fill:#FFFFFF;}
	.st66{clip-path:url(#SVGID_20_);}
	.st67{clip-path:url(#SVGID_22_);}
</style><g
     id="Ebene_4"
     class="st0"><rect
       x="-138.2"
       y="-1458.6"
       class="st1"
       width="1421.9"
       height="1801.4"
       id="rect7" /></g><g
     id="Ebene_2"
     style="stroke:none;stroke-opacity:1;fill:#00ff00;fill-opacity:1" /><g
     id="Ebene_1"
     style="stroke:none;stroke-opacity:1;fill:#00ff00;fill-opacity:1" /><g
     id="Ebene_3"
     style="stroke:none;stroke-opacity:1;fill:#00ff00;fill-opacity:1"><g
       id="g12"
       style="stroke:none;stroke-opacity:1;fill:#00ff00;fill-opacity:1"><g
         id="g14"
         style="stroke:none;stroke-opacity:1;fill:#00ff00;fill-opacity:1"><g
           id="g16"
           style="stroke:none;stroke-opacity:1;fill:#00ff00;fill-opacity:1"><g
             id="g18"
             style="stroke:none;stroke-opacity:1;fill:#00ff00;fill-opacity:1"><path
               class="st21"
               d="M22.2,15.1c0.2-0.3,0.4-0.6,0.7-0.8l-3-1.7c-0.1,0.3-0.2,0.7-0.4,1c-0.2,0.3-0.4,0.6-0.7,0.8l3,1.7       C21.9,15.8,22,15.5,22.2,15.1z"
               id="path20"
               style="stroke:none;stroke-opacity:1;fill:#00ff00;fill-opacity:1" /><path
               class="st21"
               d="M22.2,15.1c0.2-0.3,0.4-0.6,0.7-0.8l-3-1.7c-0.1,0.3-0.2,0.7-0.4,1c-0.2,0.3-0.4,0.6-0.7,0.8l3,1.7       C21.9,15.8,22,15.5,22.2,15.1z"
               id="path22"
               style="stroke:none;stroke-opacity:1;fill:#00ff00;fill-opacity:1" /><path
               class="st21"
               d="M22.2,15.1c0.2-0.3,0.4-0.6,0.7-0.8l-3-1.7c-0.1,0.3-0.2,0.7-0.4,1c-0.2,0.3-0.4,0.6-0.7,0.8l3,1.7       C21.9,15.8,22,15.5,22.2,15.1z"
               id="path24"
               style="stroke:none;stroke-opacity:1;fill:#00ff00;fill-opacity:1" /><path
               class="st21"
               d="M22.2,15.1c0.2-0.3,0.4-0.6,0.7-0.8l-3-1.7c-0.1,0.3-0.2,0.7-0.4,1c-0.2,0.3-0.4,0.6-0.7,0.8l3,1.7       C21.9,15.8,22,15.5,22.2,15.1z"
               id="path26"
               style="stroke:none;stroke-opacity:1;fill:#00ff00;fill-opacity:1" /></g><g
             id="g28"
             style="stroke:none;stroke-opacity:1;fill:#00ff00;fill-opacity:1"><path
               class="st21"
               d="M13.4,10.1c0.2-0.3,0.4-0.6,0.7-0.8l-1.8-1l-0.1-2.4c-0.7,0.2-1.4,0.3-2,0.1l0.1,1.7L6,7.2       c0.1,0.7,0.1,1.4-0.2,2l5.2,0.6l2.1,1.2C13.1,10.7,13.2,10.4,13.4,10.1z"
               id="path30"
               style="stroke:none;stroke-opacity:1;fill:#00ff00;fill-opacity:1" /><path
               class="st21"
               d="M13.4,10.1c0.2-0.3,0.4-0.6,0.7-0.8l-1.8-1l-0.1-2.4c-0.7,0.2-1.4,0.3-2,0.1l0.1,1.7L6,7.2       c0.1,0.7,0.1,1.4-0.2,2l5.2,0.6l2.1,1.2C13.1,10.7,13.2,10.4,13.4,10.1z"
               id="path32"
               style="stroke:none;stroke-opacity:1;fill:#00ff00;fill-opacity:1" /><path
               class="st21"
               d="M13.4,10.1c0.2-0.3,0.4-0.6,0.7-0.8l-1.8-1l-0.1-2.4c-0.7,0.2-1.4,0.3-2,0.1l0.1,1.7L6,7.2       c0.1,0.7,0.1,1.4-0.2,2l5.2,0.6l2.1,1.2C13.1,10.7,13.2,10.4,13.4,10.1z"
               id="path34"
               style="stroke:none;stroke-opacity:1;fill:#00ff00;fill-opacity:1" /><path
               class="st21"
               d="M13.4,10.1c0.2-0.3,0.4-0.6,0.7-0.8l-1.8-1l-0.1-2.4c-0.7,0.2-1.4,0.3-2,0.1l0.1,1.7L6,7.2       c0.1,0.7,0.1,1.4-0.2,2l5.2,0.6l2.1,1.2C13.1,10.7,13.2,10.4,13.4,10.1z"
               id="path36"
               style="stroke:none;stroke-opacity:1;fill:#00ff00;fill-opacity:1" /></g><g
             id="g38"
             style="stroke:none;stroke-opacity:1;fill:#00ff00;fill-opacity:1"><path
               class="st21"
               d="M39.8,24.9l-11.4-6.6c0,0.1-0.1,0.2-0.1,0.3c-0.1,0.1-0.1,0.2-0.2,0.3l11.4,6.6c0.2,0.1,0.4,0,0.5-0.1       C40,25.2,40,25,39.8,24.9z"
               id="path40"
               style="stroke:none;stroke-opacity:1;fill:#00ff00;fill-opacity:1" /><path
               class="st21"
               d="M39.8,24.9l-11.4-6.6c0,0.1-0.1,0.2-0.1,0.3c-0.1,0.1-0.1,0.2-0.2,0.3l11.4,6.6c0.2,0.1,0.4,0,0.5-0.1       C40,25.2,40,25,39.8,24.9z"
               id="path42"
               style="stroke:none;stroke-opacity:1;fill:#00ff00;fill-opacity:1" /><path
               class="st21"
               d="M39.8,24.9l-11.4-6.6c0,0.1-0.1,0.2-0.1,0.3c-0.1,0.1-0.1,0.2-0.2,0.3l11.4,6.6c0.2,0.1,0.4,0,0.5-0.1       C40,25.2,40,25,39.8,24.9z"
               id="path44"
               style="stroke:none;stroke-opacity:1;fill:#00ff00;fill-opacity:1" /><path
               class="st21"
               d="M39.8,24.9l-11.4-6.6c0,0.1-0.1,0.2-0.1,0.3c-0.1,0.1-0.1,0.2-0.2,0.3l11.4,6.6c0.2,0.1,0.4,0,0.5-0.1       C40,25.2,40,25,39.8,24.9z"
               id="path46"
               style="stroke:none;stroke-opacity:1;fill:#00ff00;fill-opacity:1" /></g></g><g
           id="g48"
           style="stroke:none;stroke-opacity:1;fill:#00ff00;fill-opacity:1"><g
             id="g50"
             style="stroke:none;stroke-opacity:1;fill:#00ff00;fill-opacity:1"><path
               class="st21"
               d="M0.3,6.6C1,5.3,2.6,4.9,3.8,5.6c1.2,0.7,1.6,2.3,0.9,3.5c-0.7,1.2-2.3,1.6-3.5,0.9       C0.1,9.4-0.4,7.8,0.3,6.6"
               id="path52"
               style="stroke:none;stroke-opacity:1;fill:#00ff00;fill-opacity:1" /></g></g><g
           id="g54"
           style="stroke:none;stroke-opacity:1;fill:#00ff00;fill-opacity:1"><g
             id="g56"
             style="stroke:none;stroke-opacity:1;fill:#00ff00;fill-opacity:1"><path
               class="st21"
               d="M8.8,1.3c0.7-1.2,2.3-1.6,3.5-0.9c1.2,0.7,1.6,2.3,0.9,3.5c-0.7,1.2-2.3,1.6-3.5,0.9       C8.5,4.1,8.1,2.5,8.8,1.3"
               id="path58"
               style="stroke:none;stroke-opacity:1;fill:#00ff00;fill-opacity:1" /></g></g><g
           id="g60"
           style="stroke:none;stroke-opacity:1;fill:#00ff00;fill-opacity:1"><g
             id="g62"
             style="stroke:none;stroke-opacity:1;fill:#00ff00;fill-opacity:1"><path
               class="st21"
               d="M14.3,10.6c0.7-1.2,2.3-1.6,3.5-0.9c1.2,0.7,1.6,2.3,0.9,3.5c-0.7,1.2-2.3,1.6-3.5,0.9       C14,13.4,13.6,11.8,14.3,10.6"
               id="path64"
               style="stroke:none;stroke-opacity:1;fill:#00ff00;fill-opacity:1" /></g></g><g
           id="g66"
           style="stroke:none;stroke-opacity:1;fill:#00ff00;fill-opacity:1"><g
             id="g68"
             style="stroke:none;stroke-opacity:1;fill:#00ff00;fill-opacity:1"><path
               class="st21"
               d="M23,15.6c0.7-1.2,2.3-1.6,3.5-0.9c1.2,0.7,1.6,2.3,0.9,3.5c-0.7,1.2-2.3,1.6-3.5,0.9       C22.8,18.4,22.3,16.9,23,15.6"
               id="path70"
               style="stroke:none;stroke-opacity:1;fill:#00ff00;fill-opacity:1" /></g></g></g><g
         id="g72"
         style="stroke:none;stroke-opacity:1;fill:#00ff00;fill-opacity:1"><path
           d="M6.1,26.1c0-0.8,0-2,0-2.8v-3.9c0-0.8,0.6-1.1,1.2-0.7l3.4,2c0.7,0.4,1.8,1,2.4,1.4l3.4,2c0.7,0.4,0.7,1,0,1.4l-3.4,2     c-0.7,0.4-1.8,1-2.4,1.4l-3.4,2c-0.7,0.4-1.2,0.1-1.2-0.7V26.1z"
           id="path74"
           style="stroke:none;stroke-opacity:1;fill:#00ff00;fill-opacity:1" /><path
           d="M10,16.2c4.7,0,8.5,3.8,8.5,8.5c0,4.7-3.8,8.5-8.5,8.5c-4.7,0-8.5-3.8-8.5-8.5C1.5,20,5.3,16.2,10,16.2 M10,14.7     c-5.5,0-10,4.5-10,10c0,5.5,4.5,10,10,10c5.5,0,10-4.5,10-10C20,19.2,15.5,14.7,10,14.7L10,14.7z"
           id="path76"
           style="stroke:none;stroke-opacity:1;fill:#00ff00;fill-opacity:1" /></g></g></g></svg>