<?xml version="1.0" encoding="UTF-8" standalone="no"?>
<svg
   xmlns:dc="http://purl.org/dc/elements/1.1/"
   xmlns:cc="http://creativecommons.org/ns#"
   xmlns:rdf="http://www.w3.org/1999/02/22-rdf-syntax-ns#"
   xmlns:svg="http://www.w3.org/2000/svg"
   xmlns="http://www.w3.org/2000/svg"
   xmlns:xlink="http://www.w3.org/1999/xlink"
   xmlns:sodipodi="http://sodipodi.sourceforge.net/DTD/sodipodi-0.dtd"
   xmlns:inkscape="http://www.inkscape.org/namespaces/inkscape"
   id="svg2"
   xml:space="preserve"
   style="enable-background:new 0 0 40 32.9;"
   viewBox="0 0 40 32.9"
   y="0px"
   x="0px"
   version="1.1"
   inkscape:version="0.91 r13725"
   sodipodi:docname="iconTrackingToolCalibration.svg"><sodipodi:namedview
     pagecolor="#ffffff"
     bordercolor="#666666"
     borderopacity="1"
     objecttolerance="10"
     gridtolerance="10"
     guidetolerance="10"
     inkscape:pageopacity="0"
     inkscape:pageshadow="2"
     inkscape:window-width="1133"
     inkscape:window-height="480"
     id="namedview24"
     showgrid="false"
     inkscape:zoom="7.1732519"
     inkscape:cx="-0.56250108"
     inkscape:cy="15.173791"
     inkscape:window-x="768"
     inkscape:window-y="283"
     inkscape:window-maximized="0"
     inkscape:current-layer="svg2" /><metadata
     id="metadata50"><rdf:RDF><cc:Work
         rdf:about=""><dc:format>image/svg+xml</dc:format><dc:type
           rdf:resource="http://purl.org/dc/dcmitype/StillImage" /><dc:title /></cc:Work></rdf:RDF></metadata><defs
     id="defs48"><defs
       id="defs18"><circle
         r="9.8999996"
         cy="23"
         cx="30.1"
         id="SVGID_21_" /></defs><clipPath
       id="SVGID_2_"><use
         height="100%"
         width="100%"
         y="0"
         x="0"
         id="use22"
         style="overflow:visible"
         xlink:href="#SVGID_21_" /></clipPath></defs><style
     id="style4"
     type="text/css">
	.st0{display:none;}
	.st1{display:inline;fill:#9D9D9C;}
	.st2{fill:#FFFFFF;}
	.st3{fill:none;stroke:#000000;stroke-width:7;stroke-miterlimit:10;}
	.st4{fill:#C0C5CD;}
	.st5{fill:none;stroke:#000000;stroke-width:2;stroke-miterlimit:10;}
	.st6{fill:none;stroke:#C0C5CD;stroke-width:2;stroke-miterlimit:10;}
	.st7{fill:#0096AE;}
	.st8{fill:#244F9E;}
	.st9{fill:none;stroke:#000000;stroke-width:5;stroke-miterlimit:10;}
	.st10{fill:none;stroke:#000000;stroke-width:5;stroke-linecap:round;stroke-miterlimit:10;}
	.st11{fill:none;stroke:#000000;stroke-width:5;stroke-linecap:square;stroke-miterlimit:10;}
	.st12{fill:none;stroke:#000000;stroke-miterlimit:10;}
	.st13{fill:#CEC917;}
	.st14{fill:none;stroke:#FFFFFF;stroke-width:6;stroke-linecap:round;stroke-miterlimit:10;}
	.st15{fill:none;stroke:#1D71B8;stroke-width:4;stroke-miterlimit:10;}
	.st16{fill:none;stroke:#FFFFFF;stroke-width:5;stroke-linecap:round;stroke-miterlimit:10;}
	.st17{fill:none;stroke:#E6007E;stroke-width:4;stroke-miterlimit:10;}
	.st18{fill:#1C1C1B;}
	.st19{fill:#010202;stroke:#FFFFFF;stroke-miterlimit:10;}
	.st20{fill:none;stroke:#FFFFFF;stroke-miterlimit:10;}
	.st21{fill:#010202;}
	.st22{stroke:#000000;stroke-linejoin:round;stroke-miterlimit:10;}
	.st23{fill:none;stroke:#000000;stroke-linejoin:round;stroke-miterlimit:10;}
	.st24{fill:none;stroke:#1C1C1B;stroke-miterlimit:10;}
	.st25{fill:none;stroke:#1C1C1B;stroke-linecap:round;stroke-linejoin:round;stroke-miterlimit:10;}
	.st26{fill:none;stroke:#009640;stroke-width:2;stroke-linecap:round;stroke-miterlimit:10;}
	.st27{fill:none;}
	.st28{clip-path:url(#SVGID_2_);}
	.st29{clip-path:url(#SVGID_2_);fill:none;}
	.st30{clip-path:url(#SVGID_4_);fill:none;}
	.st31{clip-path:url(#SVGID_4_);}
	.st32{clip-path:url(#SVGID_6_);fill:none;}
	.st33{clip-path:url(#SVGID_6_);}
	.st34{clip-path:url(#SVGID_8_);}
	.st35{clip-path:url(#SVGID_8_);fill:none;}
	.st36{clip-path:url(#SVGID_10_);fill:#FFFFFF;}
	.st37{clip-path:url(#SVGID_10_);}
	.st38{fill:none;stroke:#009640;stroke-width:6;stroke-linecap:round;stroke-miterlimit:10;}
	.st39{fill:none;stroke:#010202;stroke-width:2;stroke-linecap:round;stroke-miterlimit:10;}
	.st40{fill:none;stroke:#010202;stroke-width:6;stroke-linecap:round;stroke-miterlimit:10;}
	.st41{fill:none;stroke:#010202;stroke-width:9;stroke-linecap:round;stroke-miterlimit:10;}
	.st42{fill:none;stroke:#010202;stroke-width:3;stroke-linecap:round;stroke-miterlimit:10;}
	.st43{fill:none;stroke:#000000;stroke-width:0.5;stroke-miterlimit:10;}
	.st44{fill:#E6007E;}
	.st45{fill:none;stroke:#E6007E;stroke-width:7;stroke-miterlimit:10;}
	.st46{fill:none;stroke:#1C1C1B;stroke-width:5;stroke-miterlimit:10;}
	.st47{fill:none;stroke:#1C1C1B;stroke-width:5;stroke-miterlimit:10;stroke-dasharray:9.8182,4.0909;}
	.st48{fill:none;stroke:#1C1C1B;stroke-width:5;stroke-miterlimit:10;stroke-dasharray:12,5;}
	.st49{fill:none;stroke:#1C1C1B;stroke-width:4;stroke-miterlimit:10;}
	.st50{fill:none;stroke:#1C1C1B;stroke-width:4;stroke-miterlimit:10;stroke-dasharray:9.8182,4.0909;}
	.st51{fill:none;stroke:#1C1C1B;stroke-width:4;stroke-miterlimit:10;stroke-dasharray:12,5;}
	.st52{fill:none;stroke:#000000;stroke-width:8;stroke-miterlimit:10;}
	.st53{clip-path:url(#SVGID_12_);}
	.st54{clip-path:url(#SVGID_12_);fill:none;}
	.st55{clip-path:url(#SVGID_14_);}
	.st56{fill:none;stroke:#81181A;stroke-miterlimit:10;}
	.st57{fill:none;stroke:#037C90;stroke-miterlimit:10;}
	.st58{fill:none;stroke:#35393B;stroke-miterlimit:10;}
	.st59{fill:none;stroke:#A0151A;stroke-miterlimit:10;}
	.st60{fill:none;stroke:#1C1C1B;stroke-linecap:square;stroke-miterlimit:10;}
	.st61{fill:none;stroke:#1C1C1B;stroke-width:2;stroke-linecap:round;stroke-linejoin:round;stroke-miterlimit:10;}
	.st62{clip-path:url(#SVGID_16_);}
	.st63{fill:none;stroke:#FFFFFF;stroke-width:4;stroke-miterlimit:10;}
	.st64{clip-path:url(#SVGID_18_);}
	.st65{clip-path:url(#SVGID_18_);fill:#FFFFFF;}
	.st66{clip-path:url(#SVGID_20_);}
	.st67{clip-path:url(#SVGID_22_);}
</style><g
     class="st0"
     id="Ebene_4"><rect
       id="rect7"
       height="1801.4"
       width="1421.9"
       class="st1"
       y="-179.7"
       x="-131.1" /></g><g
     id="Ebene_2"
     style="fill:#00ff00;fill-opacity:1;stroke:none" /><g
     id="Ebene_1"
     style="fill:#00ff00;fill-opacity:1;stroke:none" /><rect
     clip-path="url(#SVGID_2_)"
     id="rect24"
     height="6.5999999"
     width="6.5999999"
     class="st28"
     y="13.1"
     x="20.1"
     transform="translate(-20,0)"
     style="fill:#00ff00;fill-opacity:1;stroke:none" /><rect
     clip-path="url(#SVGID_2_)"
     id="rect26"
     height="6.5999999"
     width="6.5999999"
     class="st28"
     y="13.1"
     x="33.400002"
     transform="translate(-20,0)"
     style="fill:#00ff00;fill-opacity:1;stroke:none" /><rect
     clip-path="url(#SVGID_2_)"
     id="rect28"
     height="6.5999999"
     width="6.5999999"
     class="st28"
     y="19.700001"
     x="26.799999"
     transform="translate(-20,0)"
     style="fill:#00ff00;fill-opacity:1;stroke:none" /><rect
     clip-path="url(#SVGID_2_)"
     id="rect30"
     height="6.5999999"
     width="6.5999999"
     class="st28"
     y="26.299999"
     x="20.1"
     transform="translate(-20,0)"
     style="fill:#00ff00;fill-opacity:1;stroke:none" /><rect
     clip-path="url(#SVGID_2_)"
     id="rect32"
     height="6.5999999"
     width="6.5999999"
     class="st28"
     y="26.299999"
     x="33.400002"
     transform="translate(-20,0)"
     style="fill:#00ff00;fill-opacity:1;stroke:none" /><path
     d="m 10.1,13.1 c -5.5,0 -9.9,4.4 -9.9,9.9 0,5.5 4.4,9.9 9.9,9.9 5.5,0 9.9,-4.4 9.9,-9.9 0,-5.5 -4.5,-9.9 -9.9,-9.9 z m 0,18.6 c -4.8,0 -8.7,-3.9 -8.7,-8.7 0,-4.8 3.9,-8.7 8.7,-8.7 4.8,0 8.7,3.9 8.7,8.7 0,4.8 -3.9,8.7 -8.7,8.7 z"
     id="path34"
     inkscape:connector-curvature="0"
     style="fill:#00ff00;fill-opacity:1;stroke:none" /><g
     transform="translate(0.08610375,2.3968512)"
     id="Ebene_1-4"
     style="fill:#00ff00;fill-opacity:1;stroke:none"><g
       id="g11"
       style="fill:#00ff00;fill-opacity:1;stroke:none"><g
         id="g13"
         style="fill:#00ff00;fill-opacity:1;stroke:none"><g
           id="g15"
           style="fill:#00ff00;fill-opacity:1;stroke:none"><path
             inkscape:connector-curvature="0"
             class="st21"
             d="m 22.2,15.1 c 0.2,-0.3 0.4,-0.6 0.7,-0.8 l -3,-1.7 c -0.1,0.3 -0.2,0.7 -0.4,1 -0.2,0.3 -0.4,0.6 -0.7,0.8 l 3,1.7 c 0.1,-0.3 0.2,-0.6 0.4,-1 z"
             id="path17"
             style="fill:#00ff00;fill-opacity:1;stroke:none" /><path
             inkscape:connector-curvature="0"
             class="st21"
             d="m 22.2,15.1 c 0.2,-0.3 0.4,-0.6 0.7,-0.8 l -3,-1.7 c -0.1,0.3 -0.2,0.7 -0.4,1 -0.2,0.3 -0.4,0.6 -0.7,0.8 l 3,1.7 c 0.1,-0.3 0.2,-0.6 0.4,-1 z"
             id="path19"
             style="fill:#00ff00;fill-opacity:1;stroke:none" /><path
             inkscape:connector-curvature="0"
             class="st21"
             d="m 22.2,15.1 c 0.2,-0.3 0.4,-0.6 0.7,-0.8 l -3,-1.7 c -0.1,0.3 -0.2,0.7 -0.4,1 -0.2,0.3 -0.4,0.6 -0.7,0.8 l 3,1.7 c 0.1,-0.3 0.2,-0.6 0.4,-1 z"
             id="path21"
             style="fill:#00ff00;fill-opacity:1;stroke:none" /><path
             inkscape:connector-curvature="0"
             class="st21"
             d="m 22.2,15.1 c 0.2,-0.3 0.4,-0.6 0.7,-0.8 l -3,-1.7 c -0.1,0.3 -0.2,0.7 -0.4,1 -0.2,0.3 -0.4,0.6 -0.7,0.8 l 3,1.7 c 0.1,-0.3 0.2,-0.6 0.4,-1 z"
             id="path23"
             style="fill:#00ff00;fill-opacity:1;stroke:none" /></g><g
           id="g25"
           style="fill:#00ff00;fill-opacity:1;stroke:none"><path
             inkscape:connector-curvature="0"
             class="st21"
             d="M 13.4,10.1 C 13.6,9.8 13.8,9.5 14.1,9.3 L 12.3,8.3 12.2,5.9 C 11.5,6.1 10.8,6.2 10.2,6 L 10.3,7.7 6,7.2 c 0.1,0.7 0.1,1.4 -0.2,2 L 11,9.8 13.1,11 c 0,-0.3 0.1,-0.6 0.3,-0.9 z"
             id="path27"
             style="fill:#00ff00;fill-opacity:1;stroke:none" /><path
             inkscape:connector-curvature="0"
             class="st21"
             d="M 13.4,10.1 C 13.6,9.8 13.8,9.5 14.1,9.3 L 12.3,8.3 12.2,5.9 C 11.5,6.1 10.8,6.2 10.2,6 L 10.3,7.7 6,7.2 c 0.1,0.7 0.1,1.4 -0.2,2 L 11,9.8 13.1,11 c 0,-0.3 0.1,-0.6 0.3,-0.9 z"
             id="path29"
             style="fill:#00ff00;fill-opacity:1;stroke:none" /><path
             inkscape:connector-curvature="0"
             class="st21"
             d="M 13.4,10.1 C 13.6,9.8 13.8,9.5 14.1,9.3 L 12.3,8.3 12.2,5.9 C 11.5,6.1 10.8,6.2 10.2,6 L 10.3,7.7 6,7.2 c 0.1,0.7 0.1,1.4 -0.2,2 L 11,9.8 13.1,11 c 0,-0.3 0.1,-0.6 0.3,-0.9 z"
             id="path31"
             style="fill:#00ff00;fill-opacity:1;stroke:none" /><path
             inkscape:connector-curvature="0"
             class="st21"
             d="M 13.4,10.1 C 13.6,9.8 13.8,9.5 14.1,9.3 L 12.3,8.3 12.2,5.9 C 11.5,6.1 10.8,6.2 10.2,6 L 10.3,7.7 6,7.2 c 0.1,0.7 0.1,1.4 -0.2,2 L 11,9.8 13.1,11 c 0,-0.3 0.1,-0.6 0.3,-0.9 z"
             id="path33"
             style="fill:#00ff00;fill-opacity:1;stroke:none" /></g><g
           id="g35"
           style="fill:#00ff00;fill-opacity:1;stroke:none"><path
             inkscape:connector-curvature="0"
             class="st21"
             d="M 39.8,24.9 28.4,18.3 c 0,0.1 -0.1,0.2 -0.1,0.3 -0.1,0.1 -0.1,0.2 -0.2,0.3 l 11.4,6.6 c 0.2,0.1 0.4,0 0.5,-0.1 0,-0.2 0,-0.4 -0.2,-0.5 z"
             id="path37"
             style="fill:#00ff00;fill-opacity:1;stroke:none" /><path
             inkscape:connector-curvature="0"
             class="st21"
             d="M 39.8,24.9 28.4,18.3 c 0,0.1 -0.1,0.2 -0.1,0.3 -0.1,0.1 -0.1,0.2 -0.2,0.3 l 11.4,6.6 c 0.2,0.1 0.4,0 0.5,-0.1 0,-0.2 0,-0.4 -0.2,-0.5 z"
             id="path39"
             style="fill:#00ff00;fill-opacity:1;stroke:none" /><path
             inkscape:connector-curvature="0"
             class="st21"
             d="M 39.8,24.9 28.4,18.3 c 0,0.1 -0.1,0.2 -0.1,0.3 -0.1,0.1 -0.1,0.2 -0.2,0.3 l 11.4,6.6 c 0.2,0.1 0.4,0 0.5,-0.1 0,-0.2 0,-0.4 -0.2,-0.5 z"
             id="path41"
             style="fill:#00ff00;fill-opacity:1;stroke:none" /><path
             inkscape:connector-curvature="0"
             class="st21"
             d="M 39.8,24.9 28.4,18.3 c 0,0.1 -0.1,0.2 -0.1,0.3 -0.1,0.1 -0.1,0.2 -0.2,0.3 l 11.4,6.6 c 0.2,0.1 0.4,0 0.5,-0.1 0,-0.2 0,-0.4 -0.2,-0.5 z"
             id="path43"
             style="fill:#00ff00;fill-opacity:1;stroke:none" /></g></g><g
         id="g45"
         style="fill:#00ff00;fill-opacity:1;stroke:none"><g
           id="g47"
           style="fill:#00ff00;fill-opacity:1;stroke:none"><path
             inkscape:connector-curvature="0"
             class="st21"
             d="M 0.3,6.6 C 1,5.3 2.6,4.9 3.8,5.6 5,6.3 5.4,7.9 4.7,9.1 4,10.3 2.4,10.7 1.2,10 0.1,9.4 -0.4,7.8 0.3,6.6"
             id="path49"
             style="fill:#00ff00;fill-opacity:1;stroke:none" /></g></g><g
         id="g51"
         style="fill:#00ff00;fill-opacity:1;stroke:none"><g
           id="g53"
           style="fill:#00ff00;fill-opacity:1;stroke:none"><path
             inkscape:connector-curvature="0"
             class="st21"
             d="m 8.8,1.3 c 0.7,-1.2 2.3,-1.6 3.5,-0.9 1.2,0.7 1.6,2.3 0.9,3.5 C 12.5,5.1 10.9,5.5 9.7,4.8 8.5,4.1 8.1,2.5 8.8,1.3"
             id="path55"
             style="fill:#00ff00;fill-opacity:1;stroke:none" /></g></g><g
         id="g57"
         style="fill:#00ff00;fill-opacity:1;stroke:none"><g
           id="g59"
           style="fill:#00ff00;fill-opacity:1;stroke:none"><path
             inkscape:connector-curvature="0"
             class="st21"
             d="M 14.3,10.6 C 15,9.4 16.6,9 17.8,9.7 19,10.4 19.4,12 18.7,13.2 18,14.4 16.4,14.8 15.2,14.1 14,13.4 13.6,11.8 14.3,10.6"
             id="path61"
             style="fill:#00ff00;fill-opacity:1;stroke:none" /></g></g><g
         id="g63"
         style="fill:#00ff00;fill-opacity:1;stroke:none"><g
           id="g65"
           style="fill:#00ff00;fill-opacity:1;stroke:none"><path
             inkscape:connector-curvature="0"
             class="st21"
             d="m 23,15.6 c 0.7,-1.2 2.3,-1.6 3.5,-0.9 1.2,0.7 1.6,2.3 0.9,3.5 -0.7,1.2 -2.3,1.6 -3.5,0.9 -1.1,-0.7 -1.6,-2.2 -0.9,-3.5"
             id="path67"
             style="fill:#00ff00;fill-opacity:1;stroke:none" /></g></g></g></g></svg>