<?xml version="1.0" encoding="UTF-8" standalone="no"?>
<!-- Generator: Adobe Illustrator 19.1.0, SVG Export Plug-In . SVG Version: 6.00 Build 0)  -->

<svg
   xmlns:dc="http://purl.org/dc/elements/1.1/"
   xmlns:cc="http://creativecommons.org/ns#"
   xmlns:rdf="http://www.w3.org/1999/02/22-rdf-syntax-ns#"
   xmlns:svg="http://www.w3.org/2000/svg"
   xmlns="http://www.w3.org/2000/svg"
   xmlns:sodipodi="http://sodipodi.sourceforge.net/DTD/sodipodi-0.dtd"
   xmlns:inkscape="http://www.inkscape.org/namespaces/inkscape"
   version="1.1"
   x="0px"
   y="0px"
   viewBox="0 0 40 34.9"
   style="enable-background:new 0 0 40 34.9;"
   xml:space="preserve"
   id="svg2"
   inkscape:version="0.91 r13725"
   sodipodi:docname="iconTrackingRegistration.svg"><metadata
     id="metadata110"><rdf:RDF><cc:Work
         rdf:about=""><dc:format>image/svg+xml</dc:format><dc:type
           rdf:resource="http://purl.org/dc/dcmitype/StillImage" /></cc:Work></rdf:RDF></metadata><defs
     id="defs108" /><sodipodi:namedview
     pagecolor="#ffffff"
     bordercolor="#666666"
     borderopacity="1"
     objecttolerance="10"
     gridtolerance="10"
     guidetolerance="10"
     inkscape:pageopacity="0"
     inkscape:pageshadow="2"
     inkscape:window-width="686"
     inkscape:window-height="480"
     id="namedview106"
     showgrid="false"
     inkscape:zoom="6.7621774"
     inkscape:cx="20"
     inkscape:cy="17.450001"
     inkscape:window-x="0"
     inkscape:window-y="0"
     inkscape:window-maximized="0"
     inkscape:current-layer="svg2" /><style
     type="text/css"
     id="style4">
	.st0{display:none;}
	.st1{display:inline;fill:#9D9D9C;}
	.st2{fill:#FFFFFF;}
	.st3{fill:none;stroke:#000000;stroke-width:7;stroke-miterlimit:10;}
	.st4{fill:#C0C5CD;}
	.st5{fill:none;stroke:#000000;stroke-width:2;stroke-miterlimit:10;}
	.st6{fill:none;stroke:#C0C5CD;stroke-width:2;stroke-miterlimit:10;}
	.st7{fill:#0096AE;}
	.st8{fill:#244F9E;}
	.st9{fill:none;stroke:#000000;stroke-width:5;stroke-miterlimit:10;}
	.st10{fill:none;stroke:#000000;stroke-width:5;stroke-linecap:round;stroke-miterlimit:10;}
	.st11{fill:none;stroke:#000000;stroke-width:5;stroke-linecap:square;stroke-miterlimit:10;}
	.st12{fill:none;stroke:#000000;stroke-miterlimit:10;}
	.st13{fill:#CEC917;}
	.st14{fill:none;stroke:#FFFFFF;stroke-width:6;stroke-linecap:round;stroke-miterlimit:10;}
	.st15{fill:none;stroke:#1D71B8;stroke-width:4;stroke-miterlimit:10;}
	.st16{fill:none;stroke:#FFFFFF;stroke-width:5;stroke-linecap:round;stroke-miterlimit:10;}
	.st17{fill:none;stroke:#E6007E;stroke-width:4;stroke-miterlimit:10;}
	.st18{fill:#1C1C1B;}
	.st19{fill:#010202;stroke:#FFFFFF;stroke-miterlimit:10;}
	.st20{fill:none;stroke:#FFFFFF;stroke-miterlimit:10;}
	.st21{fill:#010202;}
	.st22{stroke:#000000;stroke-linejoin:round;stroke-miterlimit:10;}
	.st23{fill:none;stroke:#000000;stroke-linejoin:round;stroke-miterlimit:10;}
	.st24{fill:none;stroke:#1C1C1B;stroke-miterlimit:10;}
	.st25{fill:none;stroke:#1C1C1B;stroke-linecap:round;stroke-linejoin:round;stroke-miterlimit:10;}
	.st26{fill:none;stroke:#009640;stroke-width:2;stroke-linecap:round;stroke-miterlimit:10;}
	.st27{fill:none;}
	.st28{clip-path:url(#SVGID_2_);}
	.st29{clip-path:url(#SVGID_2_);fill:none;}
	.st30{clip-path:url(#SVGID_4_);fill:none;}
	.st31{clip-path:url(#SVGID_4_);}
	.st32{clip-path:url(#SVGID_6_);fill:none;}
	.st33{clip-path:url(#SVGID_6_);}
	.st34{clip-path:url(#SVGID_8_);}
	.st35{clip-path:url(#SVGID_8_);fill:none;}
	.st36{clip-path:url(#SVGID_10_);fill:#FFFFFF;}
	.st37{clip-path:url(#SVGID_10_);}
	.st38{fill:none;stroke:#009640;stroke-width:6;stroke-linecap:round;stroke-miterlimit:10;}
	.st39{fill:none;stroke:#010202;stroke-width:2;stroke-linecap:round;stroke-miterlimit:10;}
	.st40{fill:none;stroke:#010202;stroke-width:6;stroke-linecap:round;stroke-miterlimit:10;}
	.st41{fill:none;stroke:#010202;stroke-width:9;stroke-linecap:round;stroke-miterlimit:10;}
	.st42{fill:none;stroke:#010202;stroke-width:3;stroke-linecap:round;stroke-miterlimit:10;}
	.st43{fill:none;stroke:#000000;stroke-width:0.5;stroke-miterlimit:10;}
	.st44{fill:#E6007E;}
	.st45{fill:none;stroke:#E6007E;stroke-width:7;stroke-miterlimit:10;}
	.st46{fill:none;stroke:#1C1C1B;stroke-width:5;stroke-miterlimit:10;}
	.st47{fill:none;stroke:#1C1C1B;stroke-width:5;stroke-miterlimit:10;stroke-dasharray:9.8182,4.0909;}
	.st48{fill:none;stroke:#1C1C1B;stroke-width:5;stroke-miterlimit:10;stroke-dasharray:12,5;}
	.st49{fill:none;stroke:#1C1C1B;stroke-width:4;stroke-miterlimit:10;}
	.st50{fill:none;stroke:#1C1C1B;stroke-width:4;stroke-miterlimit:10;stroke-dasharray:9.8182,4.0909;}
	.st51{fill:none;stroke:#1C1C1B;stroke-width:4;stroke-miterlimit:10;stroke-dasharray:12,5;}
	.st52{fill:none;stroke:#000000;stroke-width:8;stroke-miterlimit:10;}
	.st53{clip-path:url(#SVGID_12_);}
	.st54{clip-path:url(#SVGID_12_);fill:none;}
	.st55{clip-path:url(#SVGID_14_);}
	.st56{fill:none;stroke:#81181A;stroke-miterlimit:10;}
	.st57{fill:none;stroke:#037C90;stroke-miterlimit:10;}
	.st58{fill:none;stroke:#35393B;stroke-miterlimit:10;}
	.st59{fill:none;stroke:#A0151A;stroke-miterlimit:10;}
	.st60{fill:none;stroke:#1C1C1B;stroke-linecap:square;stroke-miterlimit:10;}
	.st61{fill:none;stroke:#1C1C1B;stroke-width:2;stroke-linecap:round;stroke-linejoin:round;stroke-miterlimit:10;}
	.st62{clip-path:url(#SVGID_16_);}
	.st63{fill:none;stroke:#FFFFFF;stroke-width:4;stroke-miterlimit:10;}
	.st64{clip-path:url(#SVGID_18_);}
	.st65{clip-path:url(#SVGID_18_);fill:#FFFFFF;}
	.st66{clip-path:url(#SVGID_20_);}
	.st67{clip-path:url(#SVGID_22_);}
</style><g
     id="Ebene_4"
     class="st0"><rect
       x="-139.9"
       y="-1699.6"
       class="st1"
       width="1421.9"
       height="1801.4"
       id="rect7" /></g><g
     id="Ebene_2"
     style="fill:#00ff00;fill-opacity:1;stroke:none" /><g
     id="Ebene_1"
     style="fill:#00ff00;fill-opacity:1;stroke:none" /><g
     id="Ebene_3"
     style="fill:#00ff00;fill-opacity:1;stroke:none"><g
       id="g12"
       style="fill:#00ff00;fill-opacity:1;stroke:none"><g
         id="g14"
         style="fill:#00ff00;fill-opacity:1;stroke:none"><g
           id="g16"
           style="fill:#00ff00;fill-opacity:1;stroke:none"><g
             id="g18"
             style="fill:#00ff00;fill-opacity:1;stroke:none"><path
               d="M7.5,20.8c3.6,0,6.5,2.9,6.5,6.5c0,3.6-2.9,6.5-6.5,6.5S1,30.9,1,27.3C1,23.7,3.9,20.8,7.5,20.8 M7.5,19.8       c-4.2,0-7.5,3.4-7.5,7.5c0,4.2,3.4,7.5,7.5,7.5s7.5-3.4,7.5-7.5C15.1,23.2,11.7,19.8,7.5,19.8L7.5,19.8z"
               id="path20"
               style="fill:#00ff00;fill-opacity:1;stroke:none" /></g></g><g
           id="g22"
           style="fill:#00ff00;fill-opacity:1;stroke:none"><g
             id="g24"
             style="fill:#00ff00;fill-opacity:1;stroke:none"><circle
               cx="7.5"
               cy="27.3"
               r="0.4"
               id="circle26"
               style="fill:#00ff00;fill-opacity:1;stroke:none" /></g><g
             id="g28"
             style="fill:#00ff00;fill-opacity:1;stroke:none"><path
               d="M7.5,25.3c-0.2,0-0.4-0.2-0.4-0.4v-2.3c0-0.2,0.2-0.4,0.4-0.4S8,22.3,8,22.6v2.3C8,25.1,7.8,25.3,7.5,25.3z"
               id="path30"
               style="fill:#00ff00;fill-opacity:1;stroke:none" /></g><g
             id="g32"
             style="fill:#00ff00;fill-opacity:1;stroke:none"><path
               d="M7.5,32.6c-0.2,0-0.4-0.2-0.4-0.4v-2.3c0-0.2,0.2-0.4,0.4-0.4S8,29.5,8,29.8v2.3C8,32.4,7.8,32.6,7.5,32.6z"
               id="path34"
               style="fill:#00ff00;fill-opacity:1;stroke:none" /></g><g
             id="g36"
             style="fill:#00ff00;fill-opacity:1;stroke:none"><path
               d="M5.1,27.8H2.8c-0.2,0-0.4-0.2-0.4-0.4c0-0.2,0.2-0.4,0.4-0.4h2.3c0.2,0,0.4,0.2,0.4,0.4C5.5,27.6,5.4,27.8,5.1,27.8z"
               id="path38"
               style="fill:#00ff00;fill-opacity:1;stroke:none" /></g><g
             id="g40"
             style="fill:#00ff00;fill-opacity:1;stroke:none"><path
               d="M12.3,27.8H10c-0.2,0-0.4-0.2-0.4-0.4c0-0.2,0.2-0.4,0.4-0.4h2.3c0.2,0,0.4,0.2,0.4,0.4C12.8,27.6,12.6,27.8,12.3,27.8       z"
               id="path42"
               style="fill:#00ff00;fill-opacity:1;stroke:none" /></g></g><path
           d="M12.4,15.7c-3,0-5.6,1.8-6.8,4.4c0.6-0.2,1.2-0.3,1.9-0.3c4.2,0,7.5,3.4,7.5,7.5c0,1.1-0.3,2.2-0.7,3.2     c3.2-0.8,5.6-3.8,5.6-7.3C20,19.1,16.6,15.7,12.4,15.7z M12.9,20.8c0,0.2-0.2,0.4-0.4,0.4c-0.2,0-0.4-0.2-0.4-0.4v-2.3     c0-0.2,0.2-0.4,0.4-0.4c0.2,0,0.4,0.2,0.4,0.4V20.8z M17.2,23.7h-2.3c-0.2,0-0.4-0.2-0.4-0.4c0-0.2,0.2-0.4,0.4-0.4h2.3     c0.2,0,0.4,0.2,0.4,0.4C17.7,23.5,17.5,23.7,17.2,23.7z"
           id="path44"
           style="fill:#00ff00;fill-opacity:1;stroke:none" /></g><g
         id="g46"
         style="fill:#00ff00;fill-opacity:1;stroke:none"><g
           id="g48"
           style="fill:#00ff00;fill-opacity:1;stroke:none"><g
             id="g50"
             style="fill:#00ff00;fill-opacity:1;stroke:none"><g
               id="g52"
               style="fill:#00ff00;fill-opacity:1;stroke:none"><path
                 class="st21"
                 d="M22.2,15.1c0.2-0.3,0.4-0.6,0.7-0.8l-3-1.7c-0.1,0.3-0.2,0.7-0.4,1c-0.2,0.3-0.4,0.6-0.7,0.8l3,1.7        C21.9,15.8,22,15.5,22.2,15.1z"
                 id="path54"
                 style="fill:#00ff00;fill-opacity:1;stroke:none" /><path
                 class="st21"
                 d="M22.2,15.1c0.2-0.3,0.4-0.6,0.7-0.8l-3-1.7c-0.1,0.3-0.2,0.7-0.4,1c-0.2,0.3-0.4,0.6-0.7,0.8l3,1.7        C21.9,15.8,22,15.5,22.2,15.1z"
                 id="path56"
                 style="fill:#00ff00;fill-opacity:1;stroke:none" /><path
                 class="st21"
                 d="M22.2,15.1c0.2-0.3,0.4-0.6,0.7-0.8l-3-1.7c-0.1,0.3-0.2,0.7-0.4,1c-0.2,0.3-0.4,0.6-0.7,0.8l3,1.7        C21.9,15.8,22,15.5,22.2,15.1z"
                 id="path58"
                 style="fill:#00ff00;fill-opacity:1;stroke:none" /><path
                 class="st21"
                 d="M22.2,15.1c0.2-0.3,0.4-0.6,0.7-0.8l-3-1.7c-0.1,0.3-0.2,0.7-0.4,1c-0.2,0.3-0.4,0.6-0.7,0.8l3,1.7        C21.9,15.8,22,15.5,22.2,15.1z"
                 id="path60"
                 style="fill:#00ff00;fill-opacity:1;stroke:none" /></g><g
               id="g62"
               style="fill:#00ff00;fill-opacity:1;stroke:none"><path
                 class="st21"
                 d="M13.4,10.1c0.2-0.3,0.4-0.6,0.7-0.8l-1.8-1l-0.1-2.4c-0.7,0.2-1.4,0.3-2,0.1l0.1,1.7L6,7.2        c0.1,0.7,0.1,1.4-0.2,2l5.2,0.6l2.1,1.2C13.1,10.7,13.2,10.4,13.4,10.1z"
                 id="path64"
                 style="fill:#00ff00;fill-opacity:1;stroke:none" /><path
                 class="st21"
                 d="M13.4,10.1c0.2-0.3,0.4-0.6,0.7-0.8l-1.8-1l-0.1-2.4c-0.7,0.2-1.4,0.3-2,0.1l0.1,1.7L6,7.2        c0.1,0.7,0.1,1.4-0.2,2l5.2,0.6l2.1,1.2C13.1,10.7,13.2,10.4,13.4,10.1z"
                 id="path66"
                 style="fill:#00ff00;fill-opacity:1;stroke:none" /><path
                 class="st21"
                 d="M13.4,10.1c0.2-0.3,0.4-0.6,0.7-0.8l-1.8-1l-0.1-2.4c-0.7,0.2-1.4,0.3-2,0.1l0.1,1.7L6,7.2        c0.1,0.7,0.1,1.4-0.2,2l5.2,0.6l2.1,1.2C13.1,10.7,13.2,10.4,13.4,10.1z"
                 id="path68"
                 style="fill:#00ff00;fill-opacity:1;stroke:none" /><path
                 class="st21"
                 d="M13.4,10.1c0.2-0.3,0.4-0.6,0.7-0.8l-1.8-1l-0.1-2.4c-0.7,0.2-1.4,0.3-2,0.1l0.1,1.7L6,7.2        c0.1,0.7,0.1,1.4-0.2,2l5.2,0.6l2.1,1.2C13.1,10.7,13.2,10.4,13.4,10.1z"
                 id="path70"
                 style="fill:#00ff00;fill-opacity:1;stroke:none" /></g><g
               id="g72"
               style="fill:#00ff00;fill-opacity:1;stroke:none"><path
                 class="st21"
                 d="M39.8,24.9l-11.4-6.6c0,0.1-0.1,0.2-0.1,0.3c-0.1,0.1-0.1,0.2-0.2,0.3l11.4,6.6c0.2,0.1,0.4,0,0.5-0.1        C40.1,25.2,40,25,39.8,24.9z"
                 id="path74"
                 style="fill:#00ff00;fill-opacity:1;stroke:none" /><path
                 class="st21"
                 d="M39.8,24.9l-11.4-6.6c0,0.1-0.1,0.2-0.1,0.3c-0.1,0.1-0.1,0.2-0.2,0.3l11.4,6.6c0.2,0.1,0.4,0,0.5-0.1        C40.1,25.2,40,25,39.8,24.9z"
                 id="path76"
                 style="fill:#00ff00;fill-opacity:1;stroke:none" /><path
                 class="st21"
                 d="M39.8,24.9l-11.4-6.6c0,0.1-0.1,0.2-0.1,0.3c-0.1,0.1-0.1,0.2-0.2,0.3l11.4,6.6c0.2,0.1,0.4,0,0.5-0.1        C40.1,25.2,40,25,39.8,24.9z"
                 id="path78"
                 style="fill:#00ff00;fill-opacity:1;stroke:none" /><path
                 class="st21"
                 d="M39.8,24.9l-11.4-6.6c0,0.1-0.1,0.2-0.1,0.3c-0.1,0.1-0.1,0.2-0.2,0.3l11.4,6.6c0.2,0.1,0.4,0,0.5-0.1        C40.1,25.2,40,25,39.8,24.9z"
                 id="path80"
                 style="fill:#00ff00;fill-opacity:1;stroke:none" /></g></g><g
             id="g82"
             style="fill:#00ff00;fill-opacity:1;stroke:none"><g
               id="g84"
               style="fill:#00ff00;fill-opacity:1;stroke:none"><path
                 class="st21"
                 d="M0.3,6.6c0.7-1.2,2.3-1.6,3.5-0.9c1.2,0.7,1.6,2.3,0.9,3.5c-0.7,1.2-2.3,1.6-3.5,0.9        C0.1,9.4-0.4,7.8,0.3,6.6"
                 id="path86"
                 style="fill:#00ff00;fill-opacity:1;stroke:none" /></g></g><g
             id="g88"
             style="fill:#00ff00;fill-opacity:1;stroke:none"><g
               id="g90"
               style="fill:#00ff00;fill-opacity:1;stroke:none"><path
                 class="st21"
                 d="M8.8,1.3c0.7-1.2,2.3-1.6,3.5-0.9c1.2,0.7,1.6,2.3,0.9,3.5c-0.7,1.2-2.3,1.6-3.5,0.9        C8.5,4.1,8.1,2.5,8.8,1.3"
                 id="path92"
                 style="fill:#00ff00;fill-opacity:1;stroke:none" /></g></g><g
             id="g94"
             style="fill:#00ff00;fill-opacity:1;stroke:none"><g
               id="g96"
               style="fill:#00ff00;fill-opacity:1;stroke:none"><path
                 class="st21"
                 d="M14.3,10.6c0.7-1.2,2.3-1.6,3.5-0.9c1.2,0.7,1.6,2.3,0.9,3.5c-0.7,1.2-2.3,1.6-3.5,0.9        C14,13.4,13.6,11.8,14.3,10.6"
                 id="path98"
                 style="fill:#00ff00;fill-opacity:1;stroke:none" /></g></g><g
             id="g100"
             style="fill:#00ff00;fill-opacity:1;stroke:none"><g
               id="g102"
               style="fill:#00ff00;fill-opacity:1;stroke:none"><path
                 class="st21"
                 d="M23,15.6c0.7-1.2,2.3-1.6,3.5-0.9c1.2,0.7,1.6,2.3,0.9,3.5c-0.7,1.2-2.3,1.6-3.5,0.9        C22.8,18.4,22.3,16.9,23,15.6"
                 id="path104"
                 style="fill:#00ff00;fill-opacity:1;stroke:none" /></g></g></g></g></g></g></svg>