/* XPM */
static char *ImageProcessing___[] = {
/* columns rows colors chars-per-pixel */
"64 64 248 2",
"   c #3F3235",
".  c #572F3A",
"X  c #592F3A",
"o  c #463337",
"O  c #483137",
"+  c #513037",
"@  c #503138",
"#  c #503039",
"$  c #533038",
"%  c #533138",
"&  c #533139",
"*  c #553039",
"=  c #5B313C",
"-  c #612F3B",
";  c #622E3B",
":  c #632F3B",
">  c #652F3C",
",  c #682E3C",
"<  c #6F2D3E",
"1  c #712E3E",
"2  c #752D3E",
"3  c #742C3F",
"4  c #752C3F",
"5  c #7A2D40",
"6  c #6E3F4A",
"7  c #743F4D",
"8  c #773F4C",
"9  c #7B3D4C",
"0  c #783E4C",
"q  c #7B3E4D",
"w  c #7D3D4C",
"e  c gray30",
"r  c #5B444B",
"t  c #67434C",
"y  c #67434D",
"u  c #62454C",
"i  c #62464D",
"p  c #62474D",
"a  c #62464E",
"s  c #65444C",
"d  c #65454C",
"f  c #66444C",
"g  c #67444C",
"h  c #66444D",
"j  c #67444D",
"k  c #66454D",
"l  c #67454D",
"z  c #64464D",
"x  c #66464D",
"c  c #67454E",
"v  c #66464F",
"b  c #68434C",
"n  c #6E404C",
"m  c #6F414D",
"M  c #6D424C",
"N  c #6E424C",
"B  c #68444C",
"V  c #69444C",
"C  c #68454D",
"Z  c #70414C",
"A  c #71414C",
"S  c #71404D",
"D  c #70414D",
"F  c #72404C",
"G  c #73404D",
"H  c #744651",
"J  c #7D4351",
"K  c #7D4F59",
"L  c #665659",
"P  c #615B5C",
"I  c gray40",
"U  c #676767",
"Y  c #686868",
"T  c DimGray",
"R  c #6A6A6A",
"E  c gray42",
"W  c #6C6B6C",
"Q  c #6C6C6C",
"!  c #6D6D6D",
"~  c #717171",
"^  c #727272",
"/  c gray45",
"(  c #747474",
")  c gray46",
"_  c #767676",
"`  c #777777",
"'  c gray47",
"]  c gray48",
"[  c #7B7B7B",
"{  c #7C7C7C",
"}  c #852B41",
"|  c #822D40",
" . c #8A2B42",
".. c #8C2B42",
"X. c #8E2A42",
"o. c #892C42",
"O. c #962B45",
"+. c #9E2A46",
"@. c #8D364C",
"#. c #833A4B",
"$. c #803B4C",
"%. c #823A4C",
"&. c #853A4C",
"*. c #863A4C",
"=. c #863A4D",
"-. c #813C4C",
";. c #833C4D",
":. c #88394C",
">. c #8B384C",
",. c #97344B",
"<. c #90364C",
"1. c #92374D",
"2. c #94344C",
"3. c #98334B",
"4. c #9F324B",
"5. c #9F304C",
"6. c #9D324C",
"7. c #AD2748",
"8. c #A22F4B",
"9. c #A42F4B",
"0. c #A72E4B",
"q. c #AF2848",
"w. c #AB2D4B",
"e. c #AC2D4B",
"r. c #AA2D4C",
"t. c #AD2C4C",
"y. c #B6274A",
"u. c #B7274A",
"i. c #B8274A",
"p. c #BB274B",
"a. c #BD264B",
"s. c #BD274B",
"d. c #BE264B",
"f. c #BF264B",
"g. c #BE274B",
"h. c #BF274B",
"j. c #B32A4B",
"k. c #B22B4B",
"l. c #B7284B",
"z. c #B6294B",
"x. c #B42A4B",
"c. c #B52A4B",
"v. c #B42A4C",
"b. c #B62A4C",
"n. c #B9284B",
"m. c #BA284B",
"M. c #BB284B",
"N. c #B9294C",
"B. c #A1304C",
"V. c #A2304C",
"C. c #B73152",
"Z. c #AB445D",
"A. c #825962",
"S. c #9D5667",
"D. c #95606E",
"F. c #95616E",
"G. c #93646F",
"H. c #8F6A72",
"J. c #8B7077",
"K. c #8C7077",
"L. c #8D777D",
"P. c #88797D",
"I. c #937077",
"U. c #907A7F",
"Y. c #897D81",
"T. c #8A7D80",
"R. c #8A7D81",
"E. c #8B7E81",
"W. c #8C7D82",
"Q. c #A87C85",
"!. c #808080",
"~. c #818181",
"^. c gray51",
"/. c #838383",
"(. c #848081",
"). c #868084",
"_. c #848484",
"`. c gray52",
"'. c gray53",
"]. c #8C8485",
"[. c #8D8485",
"{. c #8E8486",
"}. c #8F8487",
"|. c #8A8588",
" X c #8E8789",
".X c #888888",
"XX c #898989",
"oX c gray54",
"OX c #8F8889",
"+X c gray55",
"@X c #8D8C8D",
"#X c #8D8D8D",
"$X c #918586",
"%X c #908587",
"&X c #918587",
"*X c #928588",
"=X c #938588",
"-X c #96878A",
";X c #97878B",
":X c #918E8F",
">X c #99888B",
",X c #9A888B",
"<X c #9E898D",
"1X c #909090",
"2X c gray57",
"3X c #929292",
"4X c #939393",
"5X c #959193",
"6X c gray58",
"7X c #959595",
"8X c gray59",
"9X c #979797",
"0X c #9D979B",
"qX c #989898",
"wX c gray61",
"eX c #9F9F9F",
"rX c #AF818B",
"tX c #AB848B",
"yX c #A28A8E",
"uX c #A58B90",
"iX c #A68C90",
"pX c #AB8D93",
"aX c #A19A9E",
"sX c #B89199",
"dX c #A39DA1",
"fX c gray63",
"gX c gray64",
"hX c gray66",
"jX c #A9A9A9",
"kX c gray67",
"lX c #ADACAC",
"zX c gray68",
"xX c #AEAEAE",
"cX c #B5ABB1",
"vX c #B5ABB2",
"bX c gray69",
"nX c #B1B1B1",
"mX c gray70",
"MX c #C0939C",
"NX c #C5959F",
"BX c #C896A0",
"VX c #CF98A3",
"CX c #C1B6BC",
"ZX c #CFC1C9",
"AX c #CACACA",
"SX c gray80",
"DX c #E1D0DA",
"FX c None",
/* pixels */
"FXFXFXFXFXFXFXFXFXFXFXFXFXFXFXFXFXFXFXFXFXFXFXFXFXFXFXFXFXFXFXFXFXFXFXFXFXFXFXFXFXFXFXFXFXFXFXFXFXFXFXFXFXFXFXFXFXFXFXFXFXFXFXFX",
"FXFXFXFXFXFXFXFXFXFXFXFXFXFXFXFXFXFXFXFXFXFXFXFXFXFXFXFXFXFXFXFXFXFXFXFXFXFXFXFXFXFXFXFXFXFXFXFXFXFXFXFXFXFXFXFXFXFXFXFXFXFXFXFX",
"FXFXFXFXFXFXFXFXFXFXFXFXFXFXFXFXFXFXFXFXFXFXFXFXFXFXFXFXFXFXFXFXFXFXFXFXFXFXFXFXFXFXFXFXFXFXFXFXFXFXFXFXFXFXFXFXFXFXf FXFXFXFXFX",
"FXFXFXFXFXFXFXFXFXFXFXFXFXFXFXFXFXFXFXFXFXFXFXFXFXFXFXFXFXFXFXFXFXFXFXFXFXFXFXFXFXFXFXFXFXFXFXFXFXFXFXFXFXFXFXFXFXm x.w FXFXFXFX",
"FXFXFXFXFXFXFXFXFXFXFXFXFXFXFXFXFXFXFXFXFXFXFXFXFXFXFXFXFXFXFXFXFXFXFXFXFXFXFXFXFXFXFXFXFXFXFXFXFXFXFXFXFXFXFXFX#.g.f.b.x FXFXFX",
"FXFXFXFXFXFXFXFXFXFXFXFXFXFXFXFXFXFXFXFXFXFXFXFXFXFXFXFXFXFXFXFXFXFXFXFXFXFXFXFXFXFXFXFXFXFXFXFXFXFXFXFXFXFXl 5.f.f.d.*.FXFXFXFX",
"FXFXFXFXFXFXFXFXFXFXFXFXFXFXFXFXFXFXFXFXFXFXFXFXFXFXFXFXFXFXFXFXFXFXFXFXFXFXFXFXFXFXFXFXFXFXFXFXFXFXFXFXFXZ c.f.f.N.G FXFXFXFXFX",
"FXFXFXFXFXFXFXFXFXFXFXFXFXFXFXFXFXFXFXFXFXFXFXFXFXFXFXFXFXFXFXFXFXFXFXFXFXFXFXFXFXFXFXFXFXFXFXFXFXFXFXFX*.h.f.f.e.V FXFXFXFXFXFX",
"FXFXFXFXFXFXFXFXFXFXFXFXFXFXFXFXFXFXFXFXFXFXFXFXFXFXFXFXFXFXFXFXFXFXFXFXFXFXFXFXFXFXFXFXFXFXFXFXFXFXh 8.f.f.f.,.k FXFXFXFXFXFXFX",
"FXFXFXFXFXFXFXFXFXFXFXFXFXFXFXFXFXFXFXFXFXFXFXFXFXFXFXFXFXFXFXFXFXFXFXFXFXFXFXFXFXFXFXFXFXFXFXFXFXA z.f.f.g.-.FXFXFXFXFXFXFXFXFX",
"FXFXFXFXFXFXFXFXFXFXFXFXFXFXFXFXFXFXFXFXFXFXFXFXFXFXFXFXFXFXFXFXFXFXFXFXFXFXFXFXFXFXFXFXFXFXFXFX:.d.f.f.z.n FXFXFXFXFXFXFXFXFXFX",
"FXFXFXFXFXFXFXFXFXFXFXFXFXFXFXFXFXFXFXFXFXFXFXFXFXFXFXFXFXFXFXFXFXFXFXFXFXFXFXFXFXFXFXFXFXFXs 9.f.f.f.0.t FXFXFXFXFXFXFXFXFXFXFX",
"FXFXFXFXFXFXFXFXFXFXFXFXFXFXFXFXFXFXFXFXFXFXFXFXFXFXFXFXFXFXFXFXFXFXFXFXFXFXFXFXFXFXFXFXFXF l.f.f.f.<.z FXFXFXFXFXFXFXFXFXFXFXFX",
"FXFXFXFXFXFXFXFXFXFXFXFXFXFXFXFXFXFXFXFXFXFXFXFXFXFXFXFXFXFXFXFXFXFXFXFXFXFXFXFXFXFXFXp >.f.f.f.s.9 FXFXFXFXFXFXFXFXFXFXFXFXFXFX",
"FXFXFXFXFXFXFXFXFXFXFXFXFXFXFXFXFXFXFXFXFXFXFXFXFXFXFXFXFXFXFXFXFXFXFXFXFXFXFXFXFXFXg 0.f.f.f.j.M FXFXFXFXFXFXFXFXFXFXFXFXFXFXFX",
"FXFXFXFXFXFXFXFXFXFXFXFXFXFXFXFXFXFXFXFXFXFXFXFXFXFXFXFXFXFXFXFXFXFXFXFXFXFXFXFXFX7 n.f.f.f.V.j FXFXFXFXFXFXFXFXFXFXFXFXFXFXFXFX",
"FXFXFXFXFXFXFXFXFXFXFXFXFXFXFXFXFXFXFXFXFXFXFXFXFXFXFXFXFXFXFXFXFXFXFXFXFXFXFXa @.f.f.f.h.=.FXFXFXFXFXFXFXFXFXFXFXFXFXFXFXFXFXFX",
"FXFXFXFXFXFXFXFXFXFXFXFXFXFXFXFXFXFXFXFXFXFXFXFXFXFXFXFXFXFXFXFXFXFXFXFXFXFXy r.f.f.f.b.S FXFXFXFXFXFXFXFXFXFXFXFXFXFXFXFXFXFXFX",
"FXFXFXFXFXFXFXFXFXFXFXFXFXFXFXFXFXFXFXFXFXFXFXFXFXFXFXFXFXFXFXFXFXFXFXFXFX8 m.f.f.f.B.c FXFXFXFXFXFXFXFXFXFXFXFXFXFXFXFXFXFXFXFX",
"FXFXFXFXFXFXFXFXFXFXFXFXFXFXFXFXFXFXFXFXFXFXFXFXFXFXFXFXFXFXFXFXFXFXFXi 1.f.f.f.h.&.FXFXFXFXFXFXFXFXFXFXFXFXFXFXFXFXFXFXFXFXFXFX",
"FXFXFXFXFXFXFXFXFXFXFXFXFXFXFXFXFXFXFXFXFXFXFXFXFXFXFXFXFXFXFXFXFXFXB w.f.f.f.v.D FXFXFXFXFXFXFXFXFXFXFXFXFXFXFXFXFXFXFXFXFXFXFX",
"FXFXFXFXFXFXFXFXFXFXFXFXFXFXFXFXFXFXFXFXFXFXFXFXFXFXFXFXFXFXFXFXFX0 M.f.f.f.4.h FXFXFXFXFXFXFXFXFXFXFXFXFXFXFXFXFXFXFXFXFXFXFXFX",
"FXFXFXFXFXFXFXFXFXFXFXFXFXFXFXFXFXFXFXFXFXFXFXFXFXFXFXFXFXFXFXu 2.f.f.f.g.;.FXFXFXFXFXFXFXFXFXFXFXFXFXFXFXFXFXFXFXFXFXFXFXFXFXFX",
"FXFXFXFXFXFXFXFXFXFXFXFXFXFXFXFXFXFXFXFXFXFXFXFXFXFXFXFXFXFXb t.f.f.f.j.N FXFXFXFXFXFXFXFXFXFXFXFXFXFXFXFXFXFXFXFXFXFXFXFXFXFXFX",
"FXFXFXFXFXFXFXFXFXFXFXFXFXFXFXFXFXFXFXFXFXFXFXFXFXFXFXFXFXq p.f.f.f.6.C FXFXFXFXFXFXFXFXFXFXFXFXFXFXFXFXFXFXFXFXFXFXFXFXFXFXFXFX",
"FXFXFXFXFXFXFXFXFXFXFXFXFXFXFXFXFXFXFXFXFXFXFXFXFXFXFXh 3.f.f.f.a.$.FXFXFXFXFXFXFXFXFXFXFXFXFXFXFXFXFXFXFXFXFXFXFXFXFXFXFXFXFXFX",
"FXFXFXFXFXFXFXFXFXFXFXFXFXFXFXFXFXFXFXFXFXFXFXFXFXFXr 9.f.f.f.k.M FXFXFXFXFXFXFXFXFXFXFXFXFXFXFXFXFXFXFXFXFXFXFXFXFXFXFXFXFXFXFX",
"FXFXFXFXFXFXFXFXFXFXFXFXFXFXFXFXFXFXFXFXFXFXFXFXFXT L d.f.n.%.d FXFXFXFXFXFXFXFXFXFXFXFXFXFXFXFXFXFXFXFXFXFXFXFXFXFXFXFXFXFXFXFX",
"FXFXFXFXFXFXFXFXFXFXFXFXFXFXFXFXFXFXFXFX& > , = W AXlXv 9 B FXFXFXFXFXFXFXFXFXFXFXFXFXFXFXFXFXFXFXFXFXFXFXFXFXFXFXFXFXFXFXFXFXFX",
"FXFXFXFXFXFXFXFXFXFXFXFXFXFXFXFXFXFXFX4 u.f.f.7.(.SXhXe FXFXFXFXFXFXFXFXFXFXFXFXFXFXFXFXFXFXFXFXFXFXFXFXFXFXFXFXFXFXFXFXFXFXFXFX",
"FXFXFXFXFXFXFXFXFXFXFXFXFXFXFXFXFX@ X.f.f.f.f.f.J P FXFXFXFXFXFXFXFXFXFXFXFXFXFXFXFXFXFXFXFXFXFXFXFXFXFXFXFXFXFXFXFXFXFXFXFXFXFX",
"FXFXFXFXFXFXFXFXFXFXFXFXFXFXFXFX+ +.f.f.f.f.f.f.f.5 FXFXFXFXFXFXFXFXFXFXFXFXFXFXFXFXFXFXFXFXFXFXFXFXFXFXFXFXFXFXFXFXFXFXFXFXFXFX",
"FXFXFXFXFXFXFXFXFXFXFXFXFXFXFXo . f.f.f.f.f.f.f.d.X FXFXFXFXFXFXFXFXFXFXFXFXFXFXFXFXFXFXFXFXFXFXFXFXFXFXFXFXFXFXFXFXFXFXFXFXFXFX",
"FXFXFXFXFXFXFXFXFXFXFXFXFXFXFX2 $ q.f.f.f.f.f.f.o.FXFXFXFXFXFXFXFXFXFXFXFXFXFXFXFXFXFXFXFXFXFXFXFXFXFXFXFXFXFXFXFXFXFXFXFXFXFXFX",
"FXFXFXFXFXFXFXFXFXFXFXFXFXFX* p.; | y.f.f.f.i.< FXFXFXFXFXFXFXFXFXFXFXFXFXFXFXFXFXFXFXFXFXFXFXFXFXFXFXFXFXFXFXFXFXFXFXFXFXFXFXFX",
"FXFXFXFXFXFXFXFXFXFXFXFXFXFX3 f...  O } 1 : # FXFXFXFXFXFXFXFXFXFXFXFXFXFXFXFXFXFXFXFXFXFXFXFXFXFXFXFXFXFXFXFXFXFXFXFXFXFXFXFXFX",
"FXFXFXFXFXFXFXFXFXFXFXFXFXFXO. .% FXFXFXFXFXFXFXFXFXFXFXFXFXFXFXFXFXFXFXFXFXFXFXFXFXFXFXFXFXFXFXFXFXFXFXFXFXFXFXFXFXFXFXFXFXFXFX",
"FXFXFXFXFXFXFXFXFXFXFXFXFXFX- FXFXFXFXFXFXFXFXFXFXFXFXFXFXFXFXFXFXFXFXFXFXFXFXFXFXFXFXFXFXFXFXFXFXFXFXFXFXFXFXFXFXFXFXFXFXFXFXFX",
"FXFXFXFXFXFXFXFXFXFXFXFXFXFXFXFXFXFXFXFXFXFXFXFXFXFXFXFXFXFXFXFXFXFXFXFXFXFXFXFXFXFXFXFXFXFXFXFXFXFXFXFXFXFXFXFXFXFXFXFXFXFXFXFX",
"FXFXFXFXFXFXFXFXFXFXFXFXFXFXFXFXFXFXFXFXFXFXFXFXFXFXFXFXFXFXFXFXFXFXFXFXFXFXFXFXFXFXFXFXFXFXFXFXFXFXFXFXFXFXFXFXFXFXFXFXFXFXFXFX",
"FXFX[ ! E E E E E ` <XMXtXI.MXMXsX$XMXMXMXMXMXMX-XcXZXZXZXZXZXcX0XZXZXZXZXZXZX:XgXjXjXjXjXjX4X' E E E E E E ~.jXjXjXjXjXjX2XFXFX",
"FXFX[ Y I I I I I ) uXVXA.H VXVXNX*XVXVXVXVXVXVX>XCXDXDXDXDXDXCXaXDXDXDXDXDXDX:XkXmXmXmXmXmX9X_ I I I I I U !.mXmXmXmXmXmX6XFXFX",
"FXFX[ Y I I I I I ) uXVXK 6 VXVXNX*XVXVXVXVXVXVX>XCXDXDXDXDXDXCXaXDXDXDXDXDXDX:XkXmXmXmXmXmX9X_ I I I I I U !.mXmXmXmXmXmX6XFXFX",
"FXFX[ Y I I I I I ) uXVXQ.rXVXVXNX*XVXVXVXVXVXVX>XCXDXDXDXDXDXCXaXDXDXDXDXDXDX:XkXmXmXmXmXmX9X_ I I I I I U !.mXmXmXmXmXmX6XFXFX",
"FXFX[ Y I I I I I ) uXVXVXVXVXVXNX*XVXVXVXVXVXVX>XCXDXDXDXDXDXCXaXDXDXDXDXDXDX:XkXmXmXmXmXmX9X_ I I I I I U !.mXmXmXmXmXmX6XFXFX",
"FXFX[ Y I I I I I ) uXVXVXVXVXVXNX*XVXVXVXVXVXVX>XCXDXDXDXDXDXCXaXDXDXDXDXDXDX:XkXmXmXmXmXmX9X_ I I I I I U !.mXmXmXmXmXmX6XFXFX",
"FXFX{ / ~ ~ ~ ~ ~ ] =XpXpXpXpXpXiX%XpXpXpXpXpXpX&XdXvXvXvXvXvXdX5XvXvXvXvXvXvX@XqXwXwXwXwXwX+X[ ~ ~ ~ ~ ~ ^ ~.wXwXwXwXwXwX#XFXFX",
"FXFXFX2X2X2X2X2X2XoXK.D.D.D.D.D.G.W.,X,X,X,X,X,X[.H.D.D.D.D.D.H.J.D.D.D.D.D.D.P.1X2X2X2X2X2XXXXX2X2X2X2X2X2X/._ _ _ _ _ _ { FXFX",
"FXFXoXbXmXmXmXmXmX8XS.f.f.f.f.f.C.U.VXVXVXVXVXVX>XZ.f.f.f.f.f.Z.F.f.f.f.f.f.f.L.kXmXmXmXmXmX9X6XmXmXmXmXmXnX/.I I I I I I ) FXFX",
"FXFXoXbXmXmXmXmXmX8XS.f.f.f.f.f.C.U.VXVXVXVXVXVX>XZ.f.f.f.f.f.Z.F.f.f.f.f.f.f.L.kXmXmXmXmXmX9X6XmXmXmXmXmXnX/.I I I I I I ) FXFX",
"FXFXoXbXmXmXmXmXmX8XS.f.f.f.f.f.C.U.VXVXVXVXVXVX>XZ.f.f.f.f.f.Z.F.f.f.f.f.f.f.L.kXmXmXmXmXmX9X6XmXmXmXmXmXnX/.I I I I I I ) FXFX",
"FXFXoXbXmXmXmXmXmX8XS.f.f.f.f.f.C.U.VXVXVXVXVXVX>XZ.f.f.f.f.f.Z.F.f.f.f.f.f.f.L.kXmXmXmXmXmX9X6XmXmXmXmXmXnX/.I I I I I I ) FXFX",
"FXFXoXbXmXmXmXmXmX8XS.f.f.f.f.f.C.U.VXVXVXVXVXVX>XZ.f.f.f.f.f.Z.F.f.f.f.f.f.f.L.kXmXmXmXmXmX9X6XmXmXmXmXmXnX/.I I I I I I ) FXFX",
"FXFXoXbXmXmXmXmXmX8XS.f.f.f.f.f.C.U.VXVXVXVXVXVX>XZ.f.f.f.f.f.Z.F.f.f.f.f.f.f.L.kXmXmXmXmXmX9X6XmXmXmXmXmXnX/.I I I I I I ) FXFX",
"FXFXFX^.^.^.^.^.^._.Y.T.T.T.T.T.R.].}.}.}.}.}.}.{.E.T.T.T.T.T.E.T.T.T.T.T.T.T.).^.^.^.^.^.^.~.XXoXoXoXoXoXoX'.^.^.^.^.^.^._.FXFX",
"FXFX[ R Y Y Y Y Y _ 8XxXxXxXxXxXjX XBXBXBXBXBXBX;XeXxXxXxXxXxXeX1XxXxXxXxXxXxX`.Q Y Y Y Y Y ) 3XxXxXxXxXxXzXXXxXxXxXxXxXxX4XFXFX",
"FXFX[ Y I I I I I ) 9XmXmXmXmXmXzXOXVXVXVXVXVXVX>XfXmXmXmXmXmXfX2XmXmXmXmXmXmX_.R I I I I I / 6XmXmXmXmXmXnXXXmXmXmXmXmXmX6XFXFX",
"FXFX[ Y I I I I I ) 9XmXmXmXmXmXzXOXVXVXVXVXVXVX>XfXmXmXmXmXmXfX2XmXmXmXmXmXmX_.R I I I I I / 6XmXmXmXmXmXnXXXmXmXmXmXmXmX6XFXFX",
"FXFX[ Y I I I I I ) 9XmXmXmXmXmXzXOXVXVXVXVXVXVX>XfXmXmXmXmXmXfX2XmXmXmXmXmXmX_.R I I I I I / 6XmXmXmXmXmXnXXXmXmXmXmXmXmX6XFXFX",
"FXFX[ Y I I I I I ) 9XmXmXmXmXmXzXOXVXVXVXVXVXVX>XfXmXmXmXmXmXfX2XmXmXmXmXmXmX_.R I I I I I / 6XmXmXmXmXmXnXXXmXmXmXmXmXmX6XFXFX",
"FXFX[ Y I I I I I ) 9XmXmXmXmXmXzXOXVXVXVXVXVXVX>XfXmXmXmXmXmXfX2XmXmXmXmXmXmX_.R I I I I I / 6XmXmXmXmXmXnXXXmXmXmXmXmXmX6XFXFX",
"FXFX{ ) ( ( ( ( ( { XX7X7X7X7X7X4X|.yXyXyXyXyXyX[.#X7X7X7X7X7X#XXX7X7X7X7X7X7X/._ ( ( ( ( ( { .X7X7X7X7X7X6X'.7X7X7X7X7X7XoXFXFX",
"FXFXFXFXFXFXFXFXFXFXFXFXFXFXFXFXFXFXFXFXFXFXFXFXFXFXFXFXFXFXFXFXFXFXFXFXFXFXFXFXFXFXFXFXFXFXFXFXFXFXFXFXFXFXFXFXFXFXFXFXFXFXFXFX",
"FXFXFXFXFXFXFXFXFXFXFXFXFXFXFXFXFXFXFXFXFXFXFXFXFXFXFXFXFXFXFXFXFXFXFXFXFXFXFXFXFXFXFXFXFXFXFXFXFXFXFXFXFXFXFXFXFXFXFXFXFXFXFXFX"
};
