/* XPM */
static char *ImageProcessing___[] = {
/* columns rows colors chars-per-pixel */
"48 48 201 2",
"   c #542E38",
".  c #5D2F3A",
"X  c #4A3137",
"o  c #4F3037",
"O  c #612E3A",
"+  c #632E3D",
"@  c #662E3C",
"#  c #6B2D3B",
"$  c #6F2D3D",
"%  c #712D3D",
"&  c #732E3D",
"*  c #722D3E",
"=  c #73303F",
"-  c #7F2C41",
";  c #733F4B",
":  c #753F4D",
">  c #773F4D",
",  c #793D4B",
"<  c #7E3C4B",
"1  c #793E4D",
"2  c #783F4D",
"3  c #7A3E4D",
"4  c #7C3D4C",
"5  c #7E3D4C",
"6  c #7E3D4D",
"7  c #6F414B",
"8  c #6E424B",
"9  c #70404B",
"0  c #71414B",
"q  c #70414E",
"w  c #73414E",
"e  c #74404E",
"r  c #74414E",
"t  c #635E5F",
"y  c #6F5D61",
"u  c gray40",
"i  c #686868",
"p  c DimGray",
"a  c gray42",
"s  c #6F6F6F",
"d  c #796B6E",
"f  c gray44",
"g  c #717171",
"h  c #727272",
"j  c gray45",
"k  c gray46",
"l  c #767676",
"z  c #777777",
"x  c #797979",
"c  c #7C7C7C",
"v  c #7E7E7E",
"b  c #7F7F7F",
"n  c #862B41",
"m  c #802D41",
"M  c #882B41",
"N  c #8B2B42",
"B  c #8C374D",
"V  c #8F364C",
"C  c #8F374C",
"Z  c #8F374D",
"A  c #823B4B",
"S  c #833B4C",
"D  c #843A4C",
"F  c #873A4C",
"G  c #803D4D",
"H  c #89384B",
"J  c #94354B",
"K  c #95354B",
"L  c #93354C",
"P  c #92364D",
"I  c #9B324C",
"U  c #9E324C",
"Y  c #A02A46",
"T  c #A42946",
"R  c #AA2748",
"E  c #A52E4B",
"W  c #A72E4A",
"Q  c #A72F4C",
"!  c #AD2848",
"~  c #A82D4B",
"^  c #AB2D4C",
"/  c #A82E4C",
"(  c #B62749",
")  c #BA274B",
"_  c #BC264A",
"`  c #BD264B",
"'  c #BC274B",
"]  c #BE264B",
"[  c #BF264B",
"{  c #BE274B",
"}  c #BF274B",
"|  c #BD274C",
" . c #B02A4B",
".. c #B12A4B",
"X. c #B02B4B",
"o. c #B32B4B",
"O. c #B5294B",
"+. c #B7294B",
"@. c #B52A4B",
"#. c #B9284B",
"$. c #B8294B",
"%. c #B9294C",
"&. c #A1304B",
"*. c #A4304B",
"=. c #A2304C",
"-. c #B03A57",
";. c #8D4D5C",
":. c #995E6C",
">. c #A74860",
",. c #A05265",
"<. c #A05466",
"1. c #91646F",
"2. c #94656F",
"3. c #956772",
"4. c #906971",
"5. c #926973",
"6. c #966C76",
"7. c #9A6A74",
"8. c #8E727A",
"9. c #8C7D7E",
"0. c #907379",
"q. c #967179",
"w. c #91747A",
"e. c #97777F",
"r. c #8F7D82",
"t. c #927980",
"y. c #967880",
"u. c #808080",
"i. c #868686",
"p. c gray53",
"a. c #888787",
"s. c #888888",
"d. c #898989",
"f. c #8B8B8B",
"g. c gray55",
"h. c #8D8D8D",
"j. c #8E8E8E",
"k. c gray56",
"l. c #938185",
"z. c #938387",
"x. c #938486",
"c. c #948587",
"v. c #9C8186",
"b. c #938488",
"n. c #928789",
"m. c #938789",
"M. c #94888B",
"N. c #97888A",
"B. c #96898B",
"V. c #9A888A",
"C. c #9B888C",
"Z. c #9B8A8E",
"A. c #9D8C90",
"S. c #9F8C90",
"D. c #9E8D91",
"F. c #909090",
"G. c gray57",
"H. c #929292",
"J. c #939393",
"K. c gray59",
"L. c #979797",
"P. c gray60",
"I. c #9D989B",
"U. c #9D999B",
"Y. c #9E9B9C",
"T. c #B5838D",
"R. c #A58B90",
"E. c #A78D91",
"W. c #A78C92",
"Q. c #AA8C93",
"!. c #AA8D93",
"~. c #AD8D94",
"^. c #B18F95",
"/. c #B78C96",
"(. c #B49096",
"). c #A0A0A0",
"_. c gray63",
"`. c gray64",
"'. c #A5A5A5",
"]. c #A7A7A7",
"[. c #AAA3A7",
"{. c #ADA6AA",
"}. c #A9A9A9",
"|. c #AAAAAA",
" X c gray67",
".X c gray68",
"XX c #AEAEAE",
"oX c #B0A7AC",
"OX c gray69",
"+X c gray70",
"@X c #C5959F",
"#X c #CA96A1",
"$X c #CF98A3",
"%X c #C2B7BE",
"&X c #C7BAC1",
"*X c #CBBEC5",
"=X c #CACACA",
"-X c #D5C6CF",
";X c #DBCBD4",
":X c #E1D0DA",
">X c None",
/* pixels */
">X>X>X>X>X>X>X>X>X>X>X>X>X>X>X>X>X>X>X>X>X>X>X>X>X>X>X>X>X>X>X>X>X>X>X>X>X>X>X>X>X>X>X>X>X>X>X>X",
">X>X>X>X>X>X>X>X>X>X>X>X>X>X>X>X>X>X>X>X>X>X>X>X>X>X>X>X>X>X>X>X>X>X>X>X>X>X>X>X>X>X>X>X>X>X>X>X",
">X>X>X>X>X>X>X>X>X>X>X>X>X>X>X>X>X>X>X>X>X>X>X>X>X>X>X>X>X>X>X>X>X>X>X>X>X>X>X>X>X>X>XS D >X>X>X",
">X>X>X>X>X>X>X>X>X>X>X>X>X>X>X>X>X>X>X>X>X>X>X>X>X>X>X>X>X>X>X>X>X>X>X>X>X>X>X>X>X>XI [ $.>X>X>X",
">X>X>X>X>X>X>X>X>X>X>X>X>X>X>X>X>X>X>X>X>X>X>X>X>X>X>X>X>X>X>X>X>X>X>X>X>X>X>X>X: X.[ O.2 >X>X>X",
">X>X>X>X>X>X>X>X>X>X>X>X>X>X>X>X>X>X>X>X>X>X>X>X>X>X>X>X>X>X>X>X>X>X>X>X>X>X>XF | [ W w >X>X>X>X",
">X>X>X>X>X>X>X>X>X>X>X>X>X>X>X>X>X>X>X>X>X>X>X>X>X>X>X>X>X>X>X>X>X>X>X>X>X8 U [ [ K >X>X>X>X>X>X",
">X>X>X>X>X>X>X>X>X>X>X>X>X>X>X>X>X>X>X>X>X>X>X>X>X>X>X>X>X>X>X>X>X>X>X>X2 o.[ ' A >X>X>X>X>X>X>X",
">X>X>X>X>X>X>X>X>X>X>X>X>X>X>X>X>X>X>X>X>X>X>X>X>X>X>X>X>X>X>X>X>X>X>XH { [ ..: >X>X>X>X>X>X>X>X",
">X>X>X>X>X>X>X>X>X>X>X>X>X>X>X>X>X>X>X>X>X>X>X>X>X>X>X>X>X>X>X>X>Xq &.[ [ =.>X>X>X>X>X>X>X>X>X>X",
">X>X>X>X>X>X>X>X>X>X>X>X>X>X>X>X>X>X>X>X>X>X>X>X>X>X>X>X>X>X>X>X1 @.[ [ V >X>X>X>X>X>X>X>X>X>X>X",
">X>X>X>X>X>X>X>X>X>X>X>X>X>X>X>X>X>X>X>X>X>X>X>X>X>X>X>X>X>X>XB } [ ) 6 >X>X>X>X>X>X>X>X>X>X>X>X",
">X>X>X>X>X>X>X>X>X>X>X>X>X>X>X>X>X>X>X>X>X>X>X>X>X>X>X>X>X0 *.[ [ ^ r >X>X>X>X>X>X>X>X>X>X>X>X>X",
">X>X>X>X>X>X>X>X>X>X>X>X>X>X>X>X>X>X>X>X>X>X>X>X>X>X>X>X3 +.[ [ J >X>X>X>X>X>X>X>X>X>X>X>X>X>X>X",
">X>X>X>X>X>X>X>X>X>X>X>X>X>X>X>X>X>X>X>X>X>X>X>X>X>X>XZ ] [ #.< >X>X>X>X>X>X>X>X>X>X>X>X>X>X>X>X",
">X>X>X>X>X>X>X>X>X>X>X>X>X>X>X>X>X>X>X>X>X>X>X>X>Xe E [ [ ~ 9 >X>X>X>X>X>X>X>X>X>X>X>X>X>X>X>X>X",
">X>X>X>X>X>X>X>X>X>X>X>X>X>X>X>X>X>X>X>X>X>X>X>X5 $.[ [ P >X>X>X>X>X>X>X>X>X>X>X>X>X>X>X>X>X>X>X",
">X>X>X>X>X>X>X>X>X>X>X>X>X>X>X>X>X>X>X>X>X>X>XL [ [ %.4 >X>X>X>X>X>X>X>X>X>X>X>X>X>X>X>X>X>X>X>X",
">X>X>X>X>X>X>X>X>X>X>X>X>X>X>X>X>X>X>X>X>X; ~ [ [ Q 7 >X>X>X>X>X>X>X>X>X>X>X>X>X>X>X>X>X>X>X>X>X",
">X>X>X>X>X>X>X>X>X>X>X>X>X>X>X>X>X>X>X>X> #.[ [ C >X>X>X>X>X>X>X>X>X>X>X>X>X>X>X>X>X>X>X>X>X>X>X",
">X>X>X>X>X>X>X>X>X>X>X>X>X>X>X>X>X>X>Xt  .[ / , >X>X>X>X>X>X>X>X>X>X>X>X>X>X>X>X>X>X>X>X>X>X>X>X",
">X>X>X>X>X>X>X>X>X>X>X>X>X>X>X$ m = a.=Xy G >X>X>X>X>X>X>X>X>X>X>X>X>X>X>X>X>X>X>X>X>X>X>X>X>X>X",
">X>X>X>X>X>X>X>X>X>X>X>X>X>XY [ [ _ d d.>X>X>X>X>X>X>X>X>X>X>X>X>X>X>X>X>X>X>X>X>X>X>X>X>X>X>X>X",
">X>X>X>X>X>X>X>X>X>X>X>X. R [ [ [ [ ( . >X>X>X>X>X>X>X>X>X>X>X>X>X>X>X>X>X>X>X>X>X>X>X>X>X>X>X>X",
">X>X>X>X>X>X>X>X>X>X>X  # [ [ [ [ [ T >X>X>X>X>X>X>X>X>X>X>X>X>X>X>X>X>X>X>X>X>X>X>X>X>X>X>X>X>X",
">X>X>X>X>X>X>X>X>X>X>XM @ [ [ [ [ ! + >X>X>X>X>X>X>X>X>X>X>X>X>X>X>X>X>X>X>X>X>X>X>X>X>X>X>X>X>X",
">X>X>X>X>X>X>X>X>X>XO ` * o N - & >X>X>X>X>X>X>X>X>X>X>X>X>X>X>X>X>X>X>X>X>X>X>X>X>X>X>X>X>X>X>X",
">X>X>X>X>X>X>X>X>X>X% n >X>X>X>X>X>X>X>X>X>X>X>X>X>X>X>X>X>X>X>X>X>X>X>X>X>X>X>X>X>X>X>X>X>X>X>X",
">X>X>X>X>X>X>X>X>X>XX >X>X>X>X>X>X>X>X>X>X>X>X>X>X>X>X>X>X>X>X>X>X>X>X>X>X>X>X>X>X>X>X>X>X>X>X>X",
">X>X>X>X>X>X>X>X>X>X>X>X>X>X>X>X>X>X>X>X>X>X>X>X>X>X>X>X>X>X>X>X>X>X>X>X>X>X>X>X>X>X>X>X>X>X>X>X",
">X>Xf p p p p c.@X4./.@X!.R.@X@X@X@XA.-X-X-X-X%X[.-X-X-X-XI.]..X.X.X}.v p p p p k `..X.X.X.Xh.>X",
">X>Xs u u u u z.$X;.2.$X^.Q.$X$X$X$XS.:X:X:X:X*XoX:X:X:X:XY..X+X+X+XXXc u u u u h ].+X+X+X+Xg.>X",
">X>Xs u u u u z.$X7.T.$X^.Q.$X$X$X$XS.:X:X:X:X*XoX:X:X:X:XY..X+X+X+XXXc u u u u h ].+X+X+X+Xg.>X",
">X>Xs u u u u z.$X$X$X$X^.Q.$X$X$X$XS.:X:X:X:X*XoX:X:X:X:XY..X+X+X+XXXc u u u u h ].+X+X+X+Xg.>X",
">X>Xf i i i i b.#X#X#X#X~.W.#X#X#X#XD.;X;X;X;X&X{.;X;X;X;XU.|.OXOXOX Xv i i i i j '.OXOXOXOXg.>X",
">X>Xi.s.s.s.s.9.q.q.q.q.w.n.V.V.V.V.x.e.e.e.e.y.t.e.e.e.e.r.F.k.k.k.k.s.s.s.s.s.i.u.b b b b >X>X",
">X>X`.+X+X+X+X6.[ [ [ [ >.Q.$X$X$X$Xv.[ [ [ [ -.<.[ [ [ [ 3..X+X+X+XXXH.+X+X+X+XP.a u u u u x >X",
">X>X`.+X+X+X+X6.[ [ [ [ >.Q.$X$X$X$Xv.[ [ [ [ -.<.[ [ [ [ 3..X+X+X+XXXH.+X+X+X+XP.a u u u u x >X",
">X>X`.+X+X+X+X6.[ [ [ [ >.Q.$X$X$X$Xv.[ [ [ [ -.<.[ [ [ [ 3..X+X+X+XXXH.+X+X+X+XP.a u u u u x >X",
">X>X`.+X+X+X+X6.[ [ [ [ >.Q.$X$X$X$Xv.[ [ [ [ -.<.[ [ [ [ 3..X+X+X+XXXH.+X+X+X+XP.a u u u u x >X",
">X>XG.P.P.P.P.0.,.,.,.,.1.N.E.E.E.E.l.,.,.,.,.:.5.,.,.,.,.8.L.P.P.P.K.f.P.P.P.P.j.l h h h h >X>X",
">X>Xk s s s s d._._._._.J.C.(.(.(.(.B._._._._.P.G._._._._.d.g s s s f s._._._._.H.P._._._._.f.>X",
">X>Xs u u u u g.+X+X+X+X).Q.$X$X$X$XZ.+X+X+X+X].P.+X+X+X+Xf.p u u u i g.+X+X+X+XP.].+X+X+X+Xg.>X",
">X>Xs u u u u g.+X+X+X+X).Q.$X$X$X$XZ.+X+X+X+X].P.+X+X+X+Xf.p u u u i g.+X+X+X+XP.].+X+X+X+Xg.>X",
">X>Xs u u u u g.+X+X+X+X).Q.$X$X$X$XZ.+X+X+X+X].P.+X+X+X+Xf.p u u u i g.+X+X+X+XP.].+X+X+X+Xg.>X",
">X>Xs u u u u g.+X+X+X+X).Q.$X$X$X$XZ.+X+X+X+X].P.+X+X+X+Xf.p u u u i g.+X+X+X+XP.].+X+X+X+Xg.>X",
">X>Xx z z z z p.G.G.G.G.h.M.C.C.C.C.m.G.G.G.G.F.g.G.G.G.G.s.l z z z x d.G.G.G.G.h.F.G.G.G.G.>X>X",
">X>X>X>X>X>X>X>X>X>X>X>X>X>X>X>X>X>X>X>X>X>X>X>X>X>X>X>X>X>X>X>X>X>X>X>X>X>X>X>X>X>X>X>X>X>X>X>X"
};
