/* XPM */
static const char * mitkRegionGrowingTool_xpm[] = {
"19 21 3 1",
" 	c None",
".	c #2E3436",
"+	c #EEEEEC",
"    .              ",
".   .    ..        ",
"       ..          ",
" . ..              ",
"  .++.  .          ",
"  .+++.  .         ",
"   .++..           ",
" .  .....          ",
".    .....         ",
"      .....        ",
"  .    .....       ",
"  .     .....      ",
"         .....     ",
"          .....    ",
"           .....   ",
"            .....  ",
"             ..... ",
"              .....",
"               ....",
"                .. ",
"                   "};
