/* XPM */
static const char * mitkAddContourTool_xpm[] = {
"22 16 3 1",
" 	c None",
".	c #000000",
"+	c #FFFFFF",
"       .............  ",
"      .++++++++++++.  ",
"     .+++++++++++++.  ",
"    .++++++..+++++++. ",
"   .+++++++..+++++++. ",
"  .++++++++..+++++++. ",
" .+++++++++..+++++++. ",
".++++++..........+++. ",
".++++++..........+++. ",
" .+++++++++..++++++++.",
" .+++++++++..++++++++.",
" .+++++++++..++++++++.",
" .+++++++++..++++++++.",
"  .+++++++++++++++++. ",
"  .+++++++++++++++++. ",
"   .................  "};
