/* XPM */
static const char * mitkCalculateVolumetryTool_xpm[] = {
"20 20 31 1",
" 	c None",
".	c #000000",
"+	c #F3F3F3",
"@	c #A2A2A2",
"#	c #797979",
"$	c #323232",
"%	c #060606",
"&	c #3D3D3D",
"*	c #D3D3D3",
"=	c #606060",
"-	c #0C0C0C",
";	c #121212",
">	c #808080",
",	c #080808",
"'	c #5C5C5C",
")	c #181818",
"!	c #0A0A0A",
"~	c #4A4A4A",
"{	c #C4C4C4",
"]	c #747474",
"^	c #818181",
"/	c #E5E5E5",
"(	c #F1F1F1",
"_	c #0B0B0B",
":	c #929292",
"<	c #9F9F9F",
"[	c #8F8F8F",
"}	c #252525",
"|	c #151515",
"1	c #8C8C8C",
"2	c #282828",
"                    ",
"                    ",
"....................",
".++++++++++++++++++.",
".++++++++++++++++++.",
".++++++++++++++..@+.",
".++++++++++++++..@+.",
".++++++++++++++..@+.",
".+..#$%&*=-;>++..@+.",
".+..,').!$~..{+..@+.",
".+..]+^.,/(_.:+..@+.",
".+..<+[.}++|.1+..@+.",
".+..@+[.2++|.1+..@+.",
".+..@+[.2++|.1+..@+.",
".+..@+[.2++|.1+..@+.",
".++++++++++++++++++.",
".++++++++++++++++++.",
"....................",
"                    ",
"                    "};
