/* XPM */
static const char * mitkCorrectorTool2D_xpm[] = {
"18 16 3 1",
" 	c None",
".	c #2E3436",
"+	c #EEEEEC",
"      .........   ",
"    ..+++++++++.  ",
"   .+++.......++. ",
"  .++..       ..+.",
" .+..          .+.",
".+..         ..++.",
".+.       ...++.. ",
".+...  ...+++...  ",
" .+++..++++...    ",
"  ..++.+...       ",
"   ..+..          ",
"   .+.            ",
"   .+.            ",
"   .+.            ",
"  .+..            ",
"   .              "};
