/* XPM */
static const char * mitkCalculateGrayValueStatisticsTool_xpm[] = {
"18 12 5 1",
" 	c None",
".	c #2E3436",
"+	c #EEEEEC",
"@	c #D3D7CF",
"#	c #555753",
"..................",
".++++++++++++++++.",
".+@@@@@@@@@@@@@@+.",
".+@@#@@@@@@@@@@@+.",
".+@@##@#@@@@@@@@+.",
".+@###@#@@@@@@@@+.",
".+@#####@#@@@@@@+.",
".+######@#@@@#@@+.",
".+##########@#@@+.",
".+##############+.",
".++++++++++++++++.",
".................."};
