/* XPM */
static char * icon_xpm[] = {
"128 128 72 1",
" 	c None",
".	c #484848",
"+	c #2E2E2E",
"@	c #272727",
"#	c #242424",
"$	c #202020",
"%	c #171717",
"&	c #1C1C1C",
"*	c #1A1A1A",
"=	c #191919",
"-	c #222222",
";	c #292929",
">	c #404040",
",	c #313131",
"'	c #1B1B1B",
")	c #0E0E0E",
"!	c #070707",
"~	c #000000",
"{	c #0A0A0A",
"]	c #111111",
"^	c #282828",
"/	c #2D2D2D",
"(	c #050505",
"_	c #010101",
":	c #0D0D0D",
"<	c #151515",
"[	c #1E1E1E",
"}	c #080808",
"|	c #030303",
"1	c #020202",
"2	c #1D1D1D",
"3	c #0C0C0C",
"4	c #2F2F2F",
"5	c #181818",
"6	c #161616",
"7	c #232323",
"8	c #262626",
"9	c #212121",
"0	c #121212",
"a	c #040404",
"b	c #323232",
"c	c #252525",
"d	c #0B0B0B",
"e	c #3C3C3C",
"f	c #131313",
"g	c #090909",
"h	c #1F1F1F",
"i	c #060606",
"j	c #2C2C2C",
"k	c #141414",
"l	c #3A3A3A",
"m	c #2A2A2A",
"n	c #333333",
"o	c #3B3B3B",
"p	c #3D3D3D",
"q	c #101010",
"r	c #373737",
"s	c #0F0F0F",
"t	c #3E3E3E",
"u	c #343434",
"v	c #353535",
"w	c #414141",
"x	c #383838",
"y	c #303030",
"z	c #393939",
"A	c #424242",
"B	c #2B2B2B",
"C	c #454545",
"D	c #3F3F3F",
"E	c #4D4D4D",
"F	c #4B4B4B",
"G	c #363636",
"                                                                                                                                ",
"                                                        .+@#$%&*=-;>                                                            ",
"                                                    ,')!~~~~~~~~~~~~~{]^                                                        ",
"                                                /*](~~~~~~~~~__~~~~_~~~~_:<[                                                    ",
"                                              ^}|~_~~~~___~~~__~~~_~~_~~~~~11*                                                  ",
"                                            ^!~~~~~~~~~~~~~~~~~~~~~~~~~~~~~~~~~2                                                ",
"                                          '3~~~~~~~~~~~~~~~~~~~~~~~~~~~~~~~~~~~~(%                                              ",
"                                        4!_~~~_~~~~~~~~~~~~~~~~~~~~~~~~~~~~~~~_~~~15                                            ",
"                                       -~~~~_~~~~~~~~_(!}65&[7892&0}}a_~~~~~~~~~~~~~{b                                          ",
"                                     +)~~~~~~_~~~~~3'$                c$d~~~~~~~~~~~~~6                                         ",
"                                    c~~~~~~~~~~~1[e                      ef_~~~~~~~~~~~g                                        ",
"                                   h~~_~~~~~~~}2                            f!_~~~~~~~~~1                                       ",
"                                  %_~~~~~~~~38                                -i~~_~~~~~~(j                                     ",
"                                 k~~~~~~~~~7                                    [~~_~~~~~~_b                                    ",
"                                =~~~~~~~_3l                                      @g~~~~~~~~~m                                   ",
"                               ;1~_~~~~~9                                          &_~~~~~~~(                                   ",
"                              e_~~~~~~1n                                            b1~~~~~~~a                                  ",
"                              i~~~~~~{o                                              p{~_~~~~~}                                 ",
"                             f~~~~~~:                                                  q~~~~~_~k                                ",
"                            ,~~~~~~:                                                    q~~~~~_~/                               ",
"                            !~~~~~g                                                      0~~~~~~i                               ",
"                           <~~~~~|o                                                       :~~~~~~6                              ",
"                           |~~~~~r                                                         (~~~~~1                              ",
"                          6~~~~~&                                                           g~~~~~]                             ",
"                          (~~~~!                                                            4a_~~_1r                            ",
"                         2~~~~~j                                                             h~~~~~s                            ",
"                         ~~~~~2                                                               k~~~~~t                           ",
"                        *~~~~{                                                                 g~~~~s                           ",
"                        a~~~~7                                                                 8_~_~|                           ",
"                        a~~~!                                                                   3~~__2                          ",
"                       *~~~~2                                                                   u~~~~!q@                        ",
"                     q~~~~~1                                                                     _~_~~_(                        ",
"                     i~_~~~~,                                                                   [~~~~~_|                        ",
"                     a~~~~~~&                                                                   &~~~~_~18                       ",
"                    c_~~~~~~v                                                                   >~~~~~_~5                       ",
"                    h_~~~~~~                                                                     |_~~_~~f                       ",
"                    k_~__~~)                                                                     5~~_~~_(                       ",
"                    d~~_~~~h                                                                     ^~_~~~~1                       ",
"                    51_~~~~,                                                                     w~~~~~|7                       ",
"                     %~~{q)                                                                       ^9/{~!                        ",
"                     d~|                                                                             =~(                        ",
"                     i~}                                   _11_1_                                    '~a                        ",
"                     !~d                              ~~~~~~~~~~~~~~~~~                              ;_|                        ",
"                     !~]                            ~~~~~~~~~~~~~~~~~~~~~                            /11                        ",
"                     i~<                          i~~~~~~~         ~~~~~~~~                          x11#                       ",
"                     i~5                        ~~~~~~                 ~~~~~~                        w11                        ",
"                     |_*                      ~~~~~~~                   ~~~~~~                       t11                        ",
"                     a~'                     ~~~~~~                        ~~~~                      y11+                       ",
"                  9-y1~*        z@          ~~~~~                           ~~~a          8:<-u      j1~3}i7                    ",
"                 $~~~~~5      61~~_#       ~~~~~                             ~~~~        6~~~~~%     h_~~_~d                    ",
"                 6~_~_~5     f~~~_~~w     ~~~~                                ~~~~       ~~~~~~_n    '~~~~~}                    ",
"                 =~~_~_5     i~~~~~~4     ~~~~                                 ~~~~     A~~~~~~~[    %~___~)                    ",
"                 *~~~~~5  b@'~__~~~~7    ~~~~                                   ~~~~    ;~~~~~~~~~i9A<~~_~~s                    ",
"                 =~~~~~{'}~~~~~~~~~~[   ~~~~                                     ~~~    8~~~~~~~~~~~~~_~_~~f                    ",
"                 &~~~~~~~_~~~~~~~~~~k   ~~~                                       ~~~   [~~~~_~~~~~_~~~~~~~&                    ",
"                 c~~~~~~~~~~~~~~~~~~|  ~~~~                                       ~~~   k~~~~~~~~~~~~~~~~~~2                    ",
"                 B_~~~~~~~~~~~~~~~~~~  ~~~                                         ~~~  3~~~~~~~~~~~~~~~~~~*                    ",
"                 B|~~~~~~~~~~~~~~~~~~ ~~~                                           ~~~ |~~~~~~~~~~~~~~~~~~[                    ",
"                  a~~~~~~~~~~~~~~~~~~e~~~                                           ~~~ ~~~~~~~~~~~~~~~~~~~[                    ",
"                 [_~~~~~~~~~~~~~~~~~~$|~~                                            ~~m~~~~~~~~~~~~~~~~~~~}                    ",
"                 |~~~~~~~~~~~~~~~~~~~ka~                                             ~~-~~~~~~~~~~~~~~~~_~_~*                   ",
"                h~_~~~~~~~~~~~~~~~~~~f}~                                             ~|9~~~~~~~~~~~~~~~~~~~~~                   ",
"                |~~~~~~~~~~~~~~~~~~~~0)~                                             ~(*~~~~~~~~~~~~~~~~~~~~~=                  ",
"               ^~~~~~~~~~~~~~~~~~~~~~qs_                                             ~if~~~~~~~~~~~~~~~~~~~~~}                  ",
"               <~~~~~~~~~~~~~~~~~~~~_d3_                                             ~!q~~~~~~~~~~~~~~~~~~~~~!                  ",
"               ]~~~~~~~~~~~~~~~~~~~~~{{_                 ~~   ~~_~~~_~~~             ~{]~~~~~~~~~~~~~~~~~~~~~(                  ",
"               h~~~~~~~~~~~~~~~~~~~__{s1           ~~~~~~~~~~~~~~~~~~~~~~~           ~:]~~~~~~~~~~~~~~~~~~~~~i                  ",
"               &~~~~~~~~~~~~~~~~~~~~_i=~           ~~~~~~~~~~~1  _~~ _~~~~           _)0~~~~~~~~~~~~~~~~~~~~~i                  ",
"               2~~~~~~~~~~~~~~~~~~~~_|*~           ~~~   ~~      ~~    ~~~           _d:_~~~~~~~~~~~~~~~~~~~~}                  ",
"               9~~~~~~~~~~~~~~~~~~~~~~%_            ~~   ~~      ~~    ~~            _{d_~~~~~~~~~~~~~~~~~~~~{                  ",
"               n~~~~~~~~~~~~~~~~~~~~~~'~            ~~~   ~~    ~~~   ~~~            _fg~~~~~~~~~~~~~~~~~~~~~s                  ",
"               C~~~~~~~~~~~~~~~~~~~~~~#~             ~~   ~~    ~~    ~~             ~[i_~~~~~~~~~~~~~~~~~~~~k                  ",
"               D~~~~~~~~~~~~~~~~~~~~~~'(_            ~~   ~~    ~~    ~~             ~2~~~~~~~~~~~~~~~~~~~~~~k                  ",
"                ~~~~~~~~~~~~~~~~~~~~~~fg~            ~~~  ~~~   ~~   ~~~            ~~*~~~~~~~~~~~~~~~~~~~~~~5                  ",
"                ~~~~~~~~~~~~~~~~~~~~_~)q~             ~~   ~~  ~~_   ~~             _~9~~~~~~~~~~~~~~~~~~~~~~B                  ",
"                _~~~~~~~~~~~~~~~~~~~~_g&~~            ~~~ ~~~~~~~~  ~~~             _~7~__~~~~~~~~~~~~~~~~~~~l                  ",
"                g~~~~~~~~~~~~~~~~~~~~_~8~~            ~~~ ~~~~~~~~  ~~             ~~i7~~~~~~~~~~~~~~~~~~~~~~>                  ",
"                %~~~~~~~~~~~~~~~~~~~__~9~~~            ~~  ~~~~~~~ ~~~            ~~~ ]~~~~~~~~~~~~~~~~~~~~~~                   ",
"                '~~~~~~~~~~~~~~~~~~~~~~#~~~            ~~~  ~~ ~1  ~~~            ~~~ g~~~~~~~~~~~~~~~~~~~~~1                   ",
"                #~~~~~~~~~~~~~~~~~~~__~B|~~~           ~~~  ~~~~1 ~~~            ~~~  i~~~~~~~~~~~~~~~~~~~~~{                   ",
"                v~~~~~~~~~~~~~~~~~~~__~9 ~~~            ~~  ~~~~1 ~~~            ~~~  _~~~~~~~~~~~~~~~~~~~~~0                   ",
"                E~~~~~~~~~~~~~~~~~~~~~~{ ~~~            ~~~ ~~~~  ~~            ~~~~ F~~~~~~~~~~~~~~~~~~~~~~$                   ",
"                 i_~~~~~~~~~~~~~~~~~~~~(  ~~~            ~~ ~~~~ ~~~            ~~~  v~~~~~~~~~~~~~~~~~~~~~~G                   ",
"                 %~~~~~~~~~~~~~~~~~~~~~|  ~~~~           ~~_~~~~1~~            ~~~   8~_~~~~~~~~~~~~~~~~~~~{                    ",
"                 7~~~~~~~~~~~~~~~~~~~~~~   ~~~           _~~~~~~_~~            ~~~   7~~~~~~~~~~~~~~~~~~_~_h                    ",
"                  g~~~~~~~~~~~~~~~~~~~~~4  ~~~~          ~~~~~~~~~~           ~~~    2~_~~~~~~~~~~~~~~~~~~i                     ",
"                  y~_~~~~~~~~~~~~~~~~~~~9   ~~~          ~~~~~~~~~~_          ~~~    0~~~~~~~~~~~~~~~~~~_~@                     ",
"                   c~~~~~~~~~~~~~~~~~~~~9   ~~~~         ~~~     ~~_         ~~~     }~~~~~~~~~~~~~~~~~~~2                      ",
"                    :~~~~~~~~~~~~~~~~~~~[    ~~~         ~~  __~ ~~_         ~~~     _~~~~~~~~~~~~~~~~~~~9                      ",
"                    <~~_~~~~~~~~~~~~~~~~f    ~~~~        ~~ ~i ~ ~~_        ~~~      _~~~~~~~~~_~~~~_~_~~~                      ",
"                    6~~__~__~~~~~~~~~~~~s     ~~~        ~~~~~|~~~~         ~~~      1~~~~~~~~~~_~~~1ki_3                       ",
"                     0sh2:~~~~~~~~~~~~~~:     ~~~        ~~~~~~~~~~        ~~~      b_~~~~~~~~~~~~{5   7                        ",
"                          v2!~~~~~~~~~~~3      ~~~       ~~__~~~~~~        ~~~       ~~~~~~~dsds#u                              ",
"                             >y+l'~~~~~_$      ~~~       ~~1 ~~~_~~        ~~        #___~~s                                    ",
"                                  6diq09       ~~~       ~~1 ~ ~ ~~       ~~~          #$=[                                     ",
"                                               _~~       ~~1 ~ ~ ~~       _~~                                                   ",
"                                                ~~       ~~_ ~ ~1~~       ~~_                                                   ",
"                                                ~~       ~~~ ~ ~ ~~       ~~_                                                   ",
"                                                ~~       ~~~ ~ ~ ~~       ~~_                                                   ",
"                                                ~~_      ~~~ ~ ~ ~~      ~~~                                                    ",
"                                                ~~~     _~~~ ~ ~ ~~      ~~~                                                    ",
"                                                ~~~~    1~~  ~ ~ ~~     ~~~~                                                    ",
"                                                 ~~~~~~~~~~_~~~~~~~_~~~~~~~                                                     ",
"                                                 ~~~~~~~~~~~~~~~~~~~~~~~~~~                                                     ",
"                                                  ~~~~~~~~~~~~~~~~~~~~~~_1                                                      ",
"                                                   6~~~~~~~~~~~~~~~~~~~~q                                                       ",
"                                                   ]~~~~~~~~~~~~~~~~~~~~q                                                       ",
"                                                   ~~~~~~~~~~~~~~~~~~~~~d                                                       ",
"                                                   B~~~~~~~~~~~~~~~~~~~~d                                                       ",
"                                                   #~~~~~~~~~~~~~~~~~~~_6                                                       ",
"                                                   _~~~~~~~~~~~~~~~~~~~|                                                        ",
"                                                    _~~~~~~~~~~~~~~~~~~_6                                                       ",
"                                                   ^_~~~~~~~~~~~~~~~~~~_%                                                       ",
"                                                   |~~~~~~~~~~~~_1~1~~~1                                                        ",
"                                                    1~~~~~~~~~~~~~~~~~~_&                                                       ",
"                                                   @_~~~~~~~~~~~~~~~~~~_%                                                       ",
"                                                   |~~~~~~~~~~~~~~~~~~~_                                                        ",
"                                                    dggggggggggggggggggg%                                                       ",
"                                                   #_~~~~~~~~~~~~~~~~~~~'                                                       ",
"                                                   =~~~~~~~~~~~~~~__~~~1                                                        ",
"                                                    f~~~~~~~~~~~~:a(1~~{                                                        ",
"                                                     *~~~~~~~~~~~~~~~~]                                                         ",
"                                                      71~~~~~~~~~~~~~q                                                          ",
"                                                       [_~~~~~~~~~~_9                                                           ",
"                                                        7~~~~~~~~~1h                                                            ",
"                                                         @~~~~~~~~0                                                             ",
"                                                          j##h1]7B                                                              ",
"                                                                                                                                "};
