<?xml version="1.0" encoding="UTF-8"?>
<svg viewBox="0 0 640 640" xmlns="http://www.w3.org/2000/svg">
<path d="m500.7 138.7 11.3 10.7v-53.4c0-17.7 14.3-32 32-32s32 14.3 32 32v128c0 17.7-14.3 32-32 32h-128c-17.7 0-32-14.3-32-32s14.3-32 32-32h47.9l-7.6-7.2-0.6-0.6c-75-75-196.5-75-271.5 0s-75 196.5 0 271.5 196.5 75 271.5 0c8.2-8.2 15.5-16.9 21.9-26.1 10.1-14.5 30.1-18 44.6-7.9s18 30.1 7.9 44.6c-8.5 12.2-18.2 23.8-29.1 34.7-100 100-262.1 100-362 0s-100-262 0-362c99.9-99.9 261.7-100 361.7-0.3z" fill="#00ff00"/>
</svg>
