/* XPM */
static const char *icon_xpm[] = {
/* width height num_colors chars_per_pixel */
"    64    64      256            2",
/* colors */
"`` c #040204",
"`. c #9c8284",
"`# c #843a44",
"`a c #dcc2c4",
"`b c #c45a68",
"`c c #d4828c",
"`d c #443334",
"`e c #846064",
"`f c #d4a3ac",
"`g c #a45e68",
"`h c #d4b2b7",
"`i c #ece2e4",
"`j c #c46f7c",
"`k c #644e54",
"`l c #3c1a1d",
"`m c #a44a5a",
"`n c #c49ea4",
"`o c #643237",
"`p c #e4d2d4",
"`q c #d4949c",
"`r c #bc848c",
"`s c #e46e7c",
"`t c #844e54",
"`u c #a4737c",
"`v c #ecb4bc",
"`w c #241a1c",
"`x c #eca2ac",
"`y c #54262c",
"`z c #643e44",
"`A c #bc9299",
"`B c #8c6e74",
"`C c #f4c4cc",
"`D c #ec8694",
"`E c #dc6674",
"`F c #c47a84",
"`G c #241114",
"`H c #a46a72",
"`I c #3c282c",
"`J c #ec929c",
"`K c #944e54",
"`L c #946067",
"`M c #fcf4f5",
"`N c #f4d6db",
"`O c #e47b89",
"`P c #844953",
"`Q c #c46874",
"`R c #d4bcbc",
"`S c #a45964",
"`T c #b4757c",
"`U c #ecacb6",
"`V c #5c3e44",
"`W c #ecbdc2",
"`X c #744149",
"`Y c #74565c",
"`Z c #bc8d93",
"`0 c #dccacc",
"`1 c #543436",
"`2 c #c4aaac",
"`3 c #743840",
"`4 c #140e0c",
"`5 c #d48c94",
"`6 c #d4abaf",
"`7 c #f4ebec",
"`8 c #cc949c",
".` c #ac858c",
".. c #744b52",
".# c #944953",
".a c #d46274",
".b c #d4707c",
".c c #4c222a",
".d c #f47486",
".e c #84585e",
".f c #a47b7f",
".g c #f4cdd2",
".h c #d47c87",
".i c #b46c75",
".j c #ec9aa4",
".k c #94686e",
".l c #f4dce1",
".m c #c46270",
".n c #b4646f",
".o c #d49da4",
".p c #34272c",
".q c #642d34",
".r c #bc9a9c",
".s c #ec8b99",
".t c #4c282c",
".u c #94585d",
".v c #b45864",
".w c #fcadb7",
".x c #ac8a90",
".y c #140a0c",
".z c #ecc4ca",
".A c #e4b4b8",
".B c #3c2224",
".C c #c4a6ac",
".D c #643a3f",
".E c #64464c",
".F c #e4bdc2",
".G c #fcbcc4",
".H c #cc8d95",
".I c #543a3c",
".J c #745254",
".K c #84666c",
".L c #fce4e7",
".M c #b45264",
".N c #ecdddf",
".O c #e47684",
".P c #fcb4bd",
".Q c #341b1d",
".R c #fca5b2",
".S c #542e34",
".T c #9c7a7c",
".U c #34161c",
".V c #f47b8c",
".W c #74464c",
".X c #e48490",
".Y c #e4a5ac",
".Z c #dcb4b9",
".0 c #c47684",
".1 c #a4525c",
".2 c #cca0a6",
".3 c #cc858c",
".4 c #6c4145",
".5 c #c4949c",
".6 c #9c6f75",
".7 c #241617",
".8 c #442e34",
"#` c #8c4952",
"#. c #94424c",
"## c #b47c84",
"#a c #fcfefc",
"#b c #d46878",
"#c c #eccdd2",
"#d c #e48b97",
"#e c #e49aa4",
"#f c #0c0a0c",
"#g c #84424c",
"#h c #4c3a3c",
"#i c #ac666c",
"#j c #ccb2b4",
"#k c #dc7684",
"#l c #cc9aa4",
"#m c #4c2e34",
"#n c #342224",
"#o c #5c4644",
"#p c #0c0507",
"#q c #e4c4c8",
"#r c #cc5d6c",
"#s c #dc838f",
"#t c #4c3337",
"#u c #8c6065",
"#v c #ac616c",
"#w c #f4e4e7",
"#x c #cc707d",
"#y c #441e24",
"#z c #ac4e5c",
"#A c #6c343c",
"#B c #ecd4d8",
"#C c #dc959f",
"#D c #ec7081",
"#E c #8c5058",
"#F c #f4b3bf",
"#G c #2c1e20",
"#H c #f4a4b0",
"#I c #5c2a2e",
"#J c #fcc4cc",
"#K c #e46a7c",
"#L c #cc7c88",
"#M c #ac6d74",
"#N c #44282d",
"#O c #f494a2",
"#P c #9c515a",
"#Q c #9c6169",
"#R c #fcd4d9",
"#S c #ec7d8c",
"#T c #dcbcc0",
"#U c #f4abb6",
"#V c #f4bdc4",
"#W c #7c4047",
"#X c #c48b94",
"#Y c #e4ccd1",
"#Z c #5c353a",
"#0 c #ccacb1",
"#1 c #7c3943",
"#2 c #1c0f10",
"#3 c #dcacb3",
"#4 c #fcecef",
"#5 c #7c4b54",
"#6 c #9c4854",
"#7 c #8c575d",
"#8 c #ac7d83",
"a` c #fccbd2",
"a. c #dc7b89",
"a# c #bc6c77",
"aa c #f49da9",
"ab c #9c6870",
"ac c #fcdce0",
"ad c #bc626c",
"ae c #f48c9b",
"af c #9c5860",
"ag c #bc5967",
"ah c #b48b90",
"ai c #dca5ac",
"aj c #c4838c",
"ak c #ac737c",
"al c #947074",
"am c #f48494",
"an c #2c1214",
"ao c #cc6974",
"ap c #ac5864",
"aq c #bc727c",
"ar c #7c585c",
"as c #dc8b94",
"at c #b4858c",
"au c #dc6e7c",
"av c #dc9aa4",
"aw c #1c0a0c",
"ax c #bc7a84",
"ay c #6c4e50",
"az c #cc6271",
"aA c #c49aa1",
"aB c #442227",
"aC c #6c3a3c",
"aD c #5c3a40",
"aE c #7c5255",
"aF c #2c161c",
"aG c #a48284",
"aH c #cca6ac",
"aI c #6c464c",
"aJ c #8c666c",
"aK c #ec7684",
"aL c #5c2e34",
"aM c #7c464c",
"aN c #ac525c",
"aO c #8c424c",
"aP c #843e4c",
"aQ c #dcc6cc",
"aR c #c45e6c",
"aS c #d48694",
"aT c #d4b6bc",
"aU c #3c1e23",
"aV c #a44e5c",
"aW c #c4a2a6",
"aX c #64363c",
"aY c #e47284",
"aZ c #84525b",
"a0 c #eca6b0",
"a1 c #542a2d",
"a2 c #644247",
"a3 c #bc969c",
"a4 c #dc6a7a",
"a5 c #c47e86",
"a6 c #a46e74",
"a7 c #ec96a4",
"a8 c #94525c",
/* pixels */
"#a#a#a#a#a#a#a#a#a#a#a#a#a#a`M`M`M`M#4#4.Lacac#R#R#Ra`a`a`a`a`a`a`a`a`a`a`a`#R#Rac.L.L#4`M`M`M#a`M#a#a#a#a#a#a#a#a#a#a#a#a#a#a#a",
"#a#a#a#a#a#a#a#a#a#a#a#a`M`M#4#4.Lacac#R#Ra`a`a``C#J`C#J#V#J`C#J`C.G#V.G#V#J`Ca`a`#R#Rac.L.L.L#4`M#a#a#a#a#a#a#a#a#a#a#a#a#a#a#a",
"#a#a#a#a#a#a#a#a#a#a#a`M#4#4.Lac#R#Ra`#Ja`#J.g#J#J.G.G#V.P#V#X.5.5.o#V.P#F.w#F.G#V.Ga`a`#R#Rac.L#4#4`M#a#a#a#a#a#a#a#a#a#a#a#a#a",
"#a#a#a#a#a#a#a#a#a#a`M`M.Lacaca`a`#J#V.G#V#J.f.K`d`Y#X````#U``````````````.7#M#Uakat.Y#V#J#Ja`#Rac#4`M#a#a#a#a#a#a#a#a#a#a#a#a#a",
"#a#a#a#a#a#a#a#a#a#a`M.Lac#R#Ra``v.f.P#F.G#V.y````.8ax````ae````````````````#Eaa#m``#u#F.P#V.Ga`#R.L#4`M`M#a#a#a#a#a#a#a#a#a#a#a",
"#a#a#a#a#a#a#a#a#a#a#4ac#Ra``n.p````.H.w.P`8``````#N`Q````#D#gaO#g````aw.Qaw#Wae#N``.e#U.w`x.p`4ar`N.l#4`M#a#a#a#a#a#a#a#a#a#a#a",
"#a#a#a#a#a#a#a#a#a`M#4#Ra`#J.K``````..aa.w`L``````aBag````aRa4#b`s`````y.1.v.bam#N``.e#H.j#n``.yal#3#q#w`M#a#a#a#a#a#a#a#a#a#a#a",
"#a#a#a#a#a#a#a#a#a`M.L#R#J.P`e``````.Q#O#H`1``#2``#y`m````aVaR#rao````#y.#ap#bam#N``.e`J#n``#p#i`r#l#T.N`M#a#a#a#a#a#a#a#a#a#a#a",
"#a#a#a#a#a#a#a#a#a`Maca`#V.P.e``#2````#k#O`````X``.Q#.````#6aRaza4````aB#P.v#bam#N```X.Q``#p#P#iak.5#T.l`M#a#a#a#a#a#a#a#a#a#a#a",
"#a#a#a#a#a#a#a#a#a`Maca`.P#H#E``#N.Q``.#a#``.UaP``.UaO````#z#baY.V````#I.vao#Sam#N````````#p`Kafak.5#T#w`M#a#a#a#a#a#a#a#a#a#a#a",
"#a#a#a#a#a#a#a#a#a#4.La`#F#H#E``aB`3```y#1``#A`#``.U#.````.MaY.Vam`````oao`O.VaeaB````#p.y``aLafaq#l.Fac`M#a#a#a#a#a#a#a#a#a#a#a",
"#a#a#a#a#a#a#a#a#a#4aca`.P#H#E``#y#r````aF``#.#A``.UaO````aN#kamae````aX#x`Oaeae.c````#A#I``#2.najai.z.L`M#a#a#a#a#a#a#a#a#a#a#a",
"#a#a#a#a#a#a#a#a#a`M.La`.G#H#E``#y.a#p```````m.q```G#1````#P.b`O.s````#Zaq#s`DamaB``.t.##g#p``#Q`5ai#c#w`M#a#a#a#a#a#a#a#a#a#a#a",
"#a#a#a#a#a#a#a#a#a`M.L#R#V.w#E``.Q.v`l````aw`#.c```G.q````#``j.has`````1aq.has.s.B``.t#`#`.B``.S.Hai#q.l`M`M#a#a#a#a#a#a#a#a#a#a",
"#a#a#a#a#a#a#a#a#a`M.L#R#J#U#E``.U.#aL````.Q#A#y``aw.S`````t.ia5.3`````1ak.3`5#s.B``.t`Pa8#E``#p`raH#q.l#4#a#a#a#a#a#a#a#a#a#a#a",
"#a#a#a#a#a#a#a#a#a`M#4.L#R#F.e``.7#WaX````aBaL.Q``aF.t#2.yaZak`r`r`V#Ga2#8#X.H.H#n``#m.u#Q`H.7```Y.2#T.N#4#a#a#a#a#a#a#a#a#a#a#a",
"#a#a#a#a#a#a#a#a#a#a`M.Lac`W..``.Q.W`zaU#NaX.4.W`X.4aI..aE.6`r.5aA`Aat.`a3.2`f.o#X.6#u`uakak.J``#2.C`R.N#4#a#a#a#a#a#a#a#a#a#a#a",
"#a#a#a#a#a#a#a#a#a#a`M`M.l#q.5.f.k#u.e.e.e#u.kababal`u.T#8`A`6`h.ZaT#0#0aT#T.F#T`f`n.5.5a3`A`Zah`.`2`0#w`M#a#a#a#a#a#a#a#a#a#a#a",
"#a#a#a#a#a#a#a#a#a#a`M`M.L#B#T.2`A.`atatat`Z.5.5.5a3.5aA.2.Z#q#c#Y#c#q#Y#c#B#B#c.F.Z`6.Z#3`6`6#0#0aQ#B`7`M#a#a#a#a#a#a#a#a#a#a#a",
"#a#a#a#a#a#a#a#a#a#a#a`M#4.l#c`aaT`haT.Z.Z.F.F.F.F`W.z.z.g.g`N`N.l.l`N.l#w.L.l.l`N.g.g.z.z`W.F#T.F#Y.N`7`M#a#a#a#a#a#a#a#a#a#a#a",
"#a#a#a#a#a#a#a#a#a#a`M`M`M#4#w.l`N#B`N`N`N`Nac#Ra`a`a`#J.g#J#R#Rac.L.L.L.L.Lac#R#Ra`a`a`#Ja`#Ja`#Rac.L#4`M`M#a#a#a#a#a#a#a#a#a#a",
"#a#a#a#a#a#a#a#a#a`M#a#4#4#4.L.L.L#4.L.Lacaca`a`.g#J`C#J#J`C#Ja`a`#Racacac#R#R#Ra`.g#J#V.G`C#J`C#J.g#Rac#4`M`M#a#a#a#a#a#a#a#a#a",
"#a#a#a#a#a#a#a#a#a`M`M#4.L.Lacac.Lac.Lac#R#R.ga`a`#J#J#J.G.G#V.G`C#J`Ca`a`#Ra`.ga`#J#J#V.G#V.G.G#J#Ja`#R.L#4`M#a#a#a#a#a#a#a#a#a",
"#a#a#a#a#a#a#a#a`M#4#4acac#R#R#R#R#R#Ra`a`.ga`a`.g#J`C.G#V.G#F.P#F.P.G`Ca`.ga`a`#J`C.G.G#V.P#V.P#V#V#J#J#R.L`M`M#a#a#a#a#a#a#a#a",
"#a#a#a#a#a#a#a#a`M#4acac#R#Ra``W#J#J`C#J`C#Ja`a`ah`k`d`d`d.8.Ea6.R#H.P#F.G.GaG`d`d`k.K`e`e###X`Z.w#U.w#Va`.L#4`M#a#a#a#a#a#a#a#a",
"#a#a#a#a#a#a#a`M#4.L#R#R.x`4``#t#F.P#F.P#J#JaH.p````````````````.7.haa.w#U.P#u``````````````````````#n#m`v.z.l#4`M#a#a#a#a#a#a#a",
"#a#a#a#a#a#a#a`M#4aca`a``B````#maaaa.w#F#J.2#f```````````````````````jaa#H.R.e``````````````````````````#X.Z#c`7#a#a#a#a#a#a#a#a",
"#a#a#a#a#a#a#a`M.L#R#J#J.K````.t.s#O.R#Fai.y````````````````````````#2#kas`J`P``````````````````````````.6`naQ#w`M#a#a#a#a#a#a#a",
"#a#a#a#a#a#a#a`Maca`#J#F#u````aB`O#O#H.w`d````````aw.Q.Q`laU.y````````.4.i.0#v`P#g#g#.`3```````law.y#p#2#ua3aQ#w`M#a#a#a#a#a#a#a",
"#a#a#a#a#a#a#a`Maca`.G#U#u````aU.Oamaaaj``````.yaU.c.c.ca1`o.q.y````#2.D#Q`T#i#v`gapag#6``````aB.c.t.t`VaJ.C`p`7#a#a#a#a#a#a#a#a",
"#a#a#a#a#a#a#a#4ac#J#F.w#7````aUaYamaa`z``````#y.c.c.t#1`Kap.1.#.t`3`P.u#M`Taxaq`j#x#baN``````.c.t.t#t.e.x`R.N`M#a#a#a#a#a#a#a#a",
"#a#a#a#a#a#a#a#4ac#J.P#U#E````aU#Dam#O`G````aF.t.t`o`K#x#Samam`Dau`j`jaqaj`5`5as#d`D`DaR``````#Ia1#Z#5#8`6#B#4#a#a#a#a#a#a#a#a#a",
"#a#a#a#a#a#a#a#4#R#J#F#U#7````aU#Damae```````yaL#A`S.X#O.R#H.R#H#Oae.s#d#C.Y.Y#H#Haa#O`j```````3`X`tak`f#B`7#a`M#a#a#a#a#a#a#a#a",
"#a#a#a#a#a#a#a#4#R#J.P#U#E````aU#D.V.m``````#A#Wafa.aa.w.G#V.G.P#H#O#O#O`x`U#F#F.w.Raa.0``````#`#E#M`8.z.L`M#a#a#a#a#a#a#a#a#a#a",
"#a#a#a#a#a#a#a#4ac#J#F.R.e`````l#K.dad``````#``K`Qae.R#U``````````````#E#e.Y#U#F#F.w#Ha5``````a8#Q##ai`N`M#a#a#a#a#a#a#a#a#a#a#a",
"#a#a#a#a#a#a#a#4#R#J.P#U#E`````l`E.daR``````#Pap.b#Oaa.R```````````````X.h`q.Y.G#F.P#U`F``````.u#Q###3.l`M#a#a#a#a#a#a#a#a#a#a#a",
"#a#a#a#a#a#a#a#4ac#J#F#U#E`````l.a#Ka4``````.#`Q#kae#O#O```````````````o.iajav.P#F.P#Ha5``````.u`gat#3.l#a#a#a#a#a#a#a#a#a#a#a#a",
"#a#a#a#a#a#a#a#4#R#J.P#U#7````.U#ra4#D``````aP.b.Vae#O#O``````````````.t`g`T`q#U.P#F.w`F``````.uabax.Z.l`M#a#a#a#a#a#a#a#a#a#a#a",
"#a#a#a#a#a#a#a#4ac#J#F.waZ````.Qagaz`s#y`````GaKamae#O#Oae.V.VaK#y````#y#E`H.H#U#F.P#Ha5``````.uab`r#3.l#a#a#a#a#a#a#a#a#a#a#a#a",
"#a#a#a#a#a#a#a#4ac#J.G#U#7````.UapaRauaO``````.#amae.R.R#H#Oaeam#y````.QaM#Q#X#U.P#F.waj``````.u`Hat.Zac`M#a#a#a#a#a#a#a#a#a#a#a",
"#a#a#a#a#a#a#a`Maca`#V.w#7````an#Pap`Qao`````````P#Oaa.w#U.wasaX``````.Q`X#Q#X#F.G#F.wa5``````.u#Qat.Z#w`M#a#a#a#a#a#a#a#a#a#a#a",
"#a#a#a#a#a#a#a#4.La`.G#U.u`````G#`#Padao`3`````````G.W.e..#N```````````G.4ab`8#V.G.G#Faj``````aZ.kat#T.L#a#a#a#a#a#a#a#a#a#a#a#a",
"#a#a#a#a#a#a#a#4ac#R`C.P.e````#2#5af.nad`QaF``````````````````````````.BaI`u`f`Ca`#V.P.3``````#5.k`A.F#w#a#a#a#a#a#a#a#a#a#a#a#a",
"#a#a#a#a#a#a`M#4ac#R#J`U#5````#2#5.u`T.0a##v`G``````````````````````.B`1arah.A`Na`a`#V`r``````.J.6.r#q#4#a#a#a#a#a#a#a#a#a#a#a#a",
"#a#a#a#a`M`M#4.Laca`a``v`uaD#G#n.ea6ax.3a5#MafaB`````````````````G.t`1a2`u#0#cacac#R`W#8``````.J.TaW#c#4#a#a#a#a#a#a#a#a#a#a#a#a",
"#a#a#a`M`M#4.Lac#R#Ra`#V`fat.6.k.T`A`fai.oax`H`taCaB`G`G`G`GaU.t#t`1`Val.C#Y.l#4.L.l.zaA`uaJ`eal`A#T#B`M`M#a#a#a#a#a#a#a#a#a#a#a",
"#a#a`M#4.L.Lac#Ra`a``C#J.A.2`Za3aW.Z.F.z.A`f`rabaZ`z`1.t#m#m#m`1`1.J.faW#Y#w#4`M#4.L#c#T.2`A`A.2#T.g.L#4#4`M`M#a#a#a#a#a#a#a#a#a",
"#a`M`M.Lacaca`a`#J#J`C.G`v.Z`6.Z.F#c`N`N.g.z`6.5ak`L.e..aIaI...e.6ah`h#Y#w#4`M`M#4.L`N#c.F.F`W`C#R#Racac.L#4#4#4`M#a#a#a#a#a#a#a",
"#a`M.L.L#R.Z#h.T`f.P#F.G#V`C`C`Nacac.Lac.l#R.z.A`f.5`r#8ak#8ata3`6.F#c.l#4#4`M#4#4#4ac`Na`a`a`#J`Ca`.ga`#Racac.L#4#4`M#a#a#a#a#a",
"#a#4.L#Ra``n``````#f`1###F#J#J#R#R`Nacacacac#R#Ra``C`W`v.A`v`W`Ca`acac.L.L.L.L.Lacaca`a`a``C#J`C.G.G#J#Ja`a`a`#Rac#4#4`M#a#a#a#a",
"`M#4aca`#J.5````aS#Q`1#Z#U.G`C#Ja`a`a`.g#Ra`#Ra`a`a`#J#J#J`Ca`a`a`#R#R#R#R#R#R#R#Ra`a``C#J#J#J#o.p.5#V.G#V.G#J#J#Rac#4`M`M#a#a#a",
"#a.Laca`.G.5````.s#s`c#d#U.P.G`C#J.g#J#J`C#J`C#J`C#J`C#J`C#J#J`Ca``C#Ja`#Ja`#J#J`C#J#V#J#J#V.G````aj#F.P`U`kar#8#Va`ac.L`M#a#a#a",
"`M.L#R#J#Vaj````a..h#k.Xaaabayat.G.G#F.P.P#V.G.G.G`C.G.G#J#V.G#J#V.G#V.G#V#V#J#J.G#V.P.G#V.P#F````a5#U`q.7`w````ak`v.z.l#4#a#a#a",
"`M#4#R#J.Paj``````aB`P.0#O#C``#f`U`U#n`d`u.w#Faiai.G#F.G#V.P#V.P.G.P#V.G.G#F.G.2at`u#X`Ya0.w#U````aq.R.7``as`1```1`q.Z#c`7`M#a#a",
"`M#4#Ra`#F.3````aM.B``aB#O.R.E```e.e````as##``````.7`u#U`````u.E`w.J.H.8``.E#F.8``#f````#pasaa````a#.3````a8`G``#n##.2#q#w#a#a#a",
"#a#4aca`#F.3````.n.n.nad#Oaa#C``#f````#g`D#2a2ax.I````#H``````.7``````#G`````L.8````#i.7```Pae````aR.m````#p.caXaDaba3`a#w`M#a#a",
"`M#4.L#R#Jaj````.i.i#x.X#O#Oaa#Z`````GaYam.0`J`Ta2````#L````aBam````#2#O.Q```t#N``.QamaB``#y.V````aVap````#`.t``#m.k.r#q`7#a#a#a",
"#a`M#4#R.z`8`I```G.4aq#d#O#O.X#p````.c#K.V`g#f````````ad````#1.d#p``aPamaB```P#N``#y#D.q``.Q.a````#1.#````aF```4a2alaW#Y#4`M#a#a",
"#a`M`M.L.z#3#X.k#N#f``.4ae#OaL``aw````aN`s`````yau````#z````aO#r#y``#A#D.c```#aB``.U`b`y```laV````#I#Waw`````G`1`Y.``h.l`M#a#a#a",
"#a#a`M#4`N#qaH`Z.`ak.e..as.i````#A.Q``#y#z````#zaR`````#````.q#zan``#I#r`l``#1#y```G`maw``aU#1````#N#A#Z.B#ma2ar.TaH#Y`7#a#a#a#a",
"#a#a`M`M#w#B#q`6.2aA.o`q`q#Q`I#2`PaX````.1aw``#A.q````.q````#I#.an```y.M`l``.q`l````aw````.taL``#p.S.WaI...eal.`.C#Y#w`M#a#a#a#a",
"#a#a#a`M`M#w.N#Y`a#T`h`6.o.5`T#Q`t`P.Q``a1.t``````````#y````.c#g`G``.c#zaF``#Ian``#p#p#paB.t#Z.DaIaEaJ.6.T.x`naT#Y`i`M#a#a#a#a#a",
"#a#a#a#a#a`M#4`7.N#B#Y#q.Z`f.5#8ab`L#7`t#5aMa1aFaB.y``.Q````.B`3`G``aU#`an`G#I`G``.yaB.t.t.DaZ.k.6.``A`n`6#T#Y.N`7`M#a#a#a#a#a#a",
"#a#a#a#a#a#a#a`M`M#4#w.l#B#qaTaH.5`Z#8abab`LaZ.W`X.D.t.S`1#Z.D#5#5#5`P.ua8`P#``G``.y.t`1.4#u#8`A.2#T#q#B.N`7`M`M#a#a#a#a#a#a#a#a"
};
