/* XPM */
static const char *icon_xpm[] = {
/* width height num_colors chars_per_pixel */
"    64    64      256            2",
/* colors */
"`` c #040204",
"`. c #5c823c",
"`# c #8cc35c",
"`a c #ccc370",
"`b c #942814",
"`c c #a48a54",
"`d c #9cde64",
"`e c #74a24c",
"`f c #2c421c",
"`g c #cce4b3",
"`h c #b4ca64",
"`i c #44622c",
"`j c #845624",
"`k c #ecf2e3",
"`l c #7cb254",
"`m c #94823c",
"`n c #b4df88",
"`o c #ccf6a3",
"`p c #acc497",
"`q c #6c9448",
"`r c #6c4824",
"`s c #b4f17a",
"`t c #6c6e3c",
"`u c #cc4e2c",
"`v c #3c5329",
"`w c #8ca472",
"`x c #9cd56a",
"`y c #d7110c",
"`z c #64371c",
"`A c #b4d297",
"`B c #a4a654",
"`C c #94b472",
"`D c #547434",
"`E c #14220c",
"`F c #9cc372",
"`G c #dcf3c6",
"`H c #74895b",
"`I c #d4e3c7",
"`J c #d22718",
"`K c #74955c",
"`L c #444d3a",
"`M c #bcdf97",
"`N c #bc6931",
"`O c #7eab52",
"`P c #ecfcdc",
"`Q c #bcef8c",
"`R c #946634",
"`S c #c4a24c",
"`T c #aceb70",
"`U c #354b22",
"`V c #acd26c",
"`W c #9cc47c",
"`X c #546540",
"`Y c #dcfabc",
"`Z c #4c573d",
"`0 c #8eac71",
"`1 c #bcd4ac",
"`2 c #668b41",
"`3 c #accb94",
"`4 c #94b47c",
"`5 c #28341b",
"`6 c #ccdabc",
"`7 c #d4eac4",
"`8 c #ace171",
".` c #d4f4b8",
".. c #dc3624",
".# c #84ba54",
".a c #84956f",
".b c #bcb65c",
".c c #e26a3e",
".d c #f4fdef",
".e c #6c9a44",
".f c #445b30",
".g c #bfe997",
".h c #2c0204",
".i c #943e24",
".j c #d8894b",
".k c #84a458",
".l c #cceeaa",
".m c #64784e",
".n c #547a34",
".o c #b47a3c",
".p c #546c38",
".q c #3c421c",
".r c #bcf682",
".s c #232c15",
".t c #dcfac4",
".u c #748e5b",
".v c #7c9c60",
".w c #8c7640",
".x c #9cae84",
".y c #0d130b",
".z c #6c8554",
".A c #94cb62",
".B c #d4de94",
".C c #ec0e0c",
".D c #c57336",
".E c #bcf68c",
".F c #c4da74",
".G c #a4ce7e",
".H c #94ac7e",
".I c #bcccaa",
".J c #e4eed9",
".K c #849e5f",
".L c #a4b890",
".M c #cccc84",
".N c #c4c361",
".O c #8cb465",
".P c #b6e87a",
".Q c #d2faaa",
".R c #c4daa4",
".S c #9ccd6c",
".T c #ef2717",
".U c #84ad5f",
".V c #aed487",
".W c #c4dab2",
".X c #9cbc7d",
".Y c #ace677",
".Z c #7c7e44",
".0 c #bcba84",
".1 c #a44624",
".2 c #bcf280",
".3 c #eb4a2e",
".4 c #425435",
".5 c #a4da6c",
".6 c #bcdaa0",
".7 c #94bc6e",
".8 c #3c4c2e",
"#` c #a4c484",
"#. c #c4170c",
"## c #c43214",
"#a c #a49a44",
"#b c #c4ba7c",
"#c c #cc1a0c",
"#d c #ec391f",
"#e c #a4b28c",
"#f c #846139",
"#g c #785430",
"#h c #bc6234",
"#i c #7c6644",
"#j c #ec7a5c",
"#k c #783418",
"#l c #c42a14",
"#m c #ac1e14",
"#n c #f4150c",
"#o c #b4562c",
"#p c #dc5a2c",
"#q c #b4421c",
"#r c #acc48c",
"#s c #bc8244",
"#t c #d4965c",
"#u c #d7b271",
"#v c #8a703a",
"#w c #cc422c",
"#x c #cc6644",
"#y c #944e34",
"#z c #947747",
"#A c #ac9a64",
"#B c #4c6e34",
"#C c #9c8b44",
"#D c #e44228",
"#E c #dcc284",
"#F c #544e24",
"#G c #b4a65c",
"#H c #fc0604",
"#I c #d43119",
"#J c #2c3b1c",
"#K c #141d0c",
"#L c #090c04",
"#M c #c4ce6c",
"#N c #64725c",
"#O c #242614",
"#P c #d4a65c",
"#Q c #7c9e54",
"#R c #869c70",
"#S c #4c5e3c",
"#T c #accb8c",
"#U c #e4120c",
"#V c #a44024",
"#W c #a4e66c",
"#X c #ecf6e6",
"#Y c #ccdebd",
"#Z c #647e4d",
"#0 c #a4be90",
"#1 c #ac9e54",
"#2 c #3c0204",
"#3 c #8fa57d",
"#4 c #a4d478",
"#5 c #5c7449",
"#6 c #e4f2d8",
"#7 c #768865",
"#8 c #c3e0a6",
"a` c #6c8b50",
"a. c #c4e8a8",
"a# c #d3edba",
"aa c #586c45",
"ab c #b7e987",
"ac c #683e24",
"ad c #be6e34",
"ae c #847e44",
"af c #adda85",
"ag c #ac4e2c",
"ah c #e4522c",
"ai c #bc3a1c",
"aj c #7c5a30",
"ak c #acda79",
"al c #947e3f",
"am c #ace07e",
"an c #84a368",
"ao c #3c4633",
"ap c #648546",
"aq c #94c367",
"ar c #d4c57c",
"as c #a4e06b",
"at c #7ca455",
"au c #344525",
"av c #d4e3bc",
"aw c #4c6534",
"ax c #d4f6ac",
"ay c #b4c4a1",
"az c #749551",
"aA c #bcd4a2",
"aB c #1c2413",
"aC c #dce6cf",
"aD c #7c9462",
"aE c #f4fee4",
"aF c #c4f098",
"aG c #5c664c",
"aH c #c4d4b2",
"aI c #b4cba0",
"aJ c #9cb387",
"aK c #dceccf",
"aL c #8cbc5d",
"aM c #fcfefb",
"aN c #749c4f",
"aO c #6c7a54",
"aP c #5c7c3c",
"aQ c #d4ca84",
"aR c #a4ce6c",
"aS c #ac9850",
"aT c #d4fab4",
"aU c #cc2210",
"aV c #b4ae54",
"aW c #e4facd",
"aX c #7c8e64",
"aY c #c4f692",
"aZ c #545e2c",
"a0 c #f4f6ec",
"a1 c #d4dec4",
"a2 c #acbe95",
"a3 c #84b459",
"a4 c #44562c",
"a5 c #a4d56c",
"a6 c #5c763c",
"a7 c #a4c674",
"a8 c #e4f6cc",
/* pixels */
"aMaMaMaMaMaMaMaMaMaMaMaMaMaMaMaMaMaMaMaMaMaMaMaMaMaMaMaMaMaMaMaMaMaMaMaMaMaMaMaMaMaMaMaMaMaMaMaMaMaMaMaMaMaMaMaMaMaMaMaMaMaMaMaM",
"aMaMaMaMaMaMaMaMaMaMaMaMaMaMaMaMaMaMaMaMaMaMaMaMaMaMaMaMaM.daM.daM.d.daMaMaMaMaMaMaMaMaMaMaMaMaMaMaMaMaMaMaMaMaMaMaMaMaMaMaMaMaM",
"aMaMaMaMaMaMaMaMaMaMaMaMaMaMaMaMaMaMaMaM.d.daE.daEaE`P`P`P`P`P`P`P`P`P`P`PaE`P.d.d.daMaMaMaMaMaMaMaMaMaMaMaMaMaMaMaMaMaMaMaMaMaM",
"aMaMaMaMaMaMaMaMaMaMaMaMaMaMaMaMaEaE`P`P`P`P`PaWaW`P`PaW`PaW`PaW`PaWaW`PaW`P`P`P`P`P`PaEaE.daMaMaMaMaMaMaMaMaMaMaMaMaMaMaMaMaMaM",
"aMaMaMaMaMaMaMaMaMaMaMaMaMaMaE`P`P`PaWaWaWaW.taWaW.taW.t.taWaW.taW.taW.taW.taW.taWaW`PaW`P`PaE.daMaMaMaMaMaMaMaMaMaMaMaMaMaMaMaM",
"aMaMaMaMaMaMaMaMaMaMaMaMaMaE`P`PaWaW.t.t.t`Y`Y`Y`Y`Y.t`Y`Y`Y`Y`Y.t`Y`Y`YaT`Y.``Y`Y`YaWaWaWaW`PaE.daMaMaMaMaMaMaMaMaMaMaMaMaMaMaM",
"aMaMaMaMaMaMaMaMaMaMaMaMaE`P`PaWaW.t`Y`Y`Y#8#7`Xao.`.QaB``#`````````````ao.8`AaJ#7.H.``Y`Y.taW`P.d.daMaMaMaMaMaMaMaMaMaMaMaMaMaM",
"aMaMaMaMaMaMaMaMaMaMaMaM`P`PaW`1ao#L``.l`Y#R```````o`o`````F.za`a`````.p.p.8.V.z``ao.Q.`.u``.4`g#6#XaMaMaMaMaMaMaMaMaMaMaMaMaMaM",
"aMaMaMaMaMaMaMaMaMaMaM.d`PaW.t`p``````#0ax#5``````.raY````aq.EaY`Q````a3ab.raFa```auax`W````.u#8a1.Ja0aMaMaMaMaMaMaMaMaMaMaMaMaM",
"aMaMaMaMaMaMaMaMaMaMaMaEaWaW`Y#```````.z`oau```````s`s````aL.2`s.r````atam`saY.z``au.g.y``au#``paHaK.daMaMaMaMaMaMaMaMaMaMaMaMaM",
"aMaMaMaMaMaMaMaMaMaMaMaEaW.t.`#```````.4aY#L```````d`T`````e`8.5am`````q`x.Y.2.z``auao``.s#Q.U.XaAaKa0aMaMaMaMaMaMaMaMaMaMaMaMaM",
"aMaMaMaMaMaMaMaMaMaMaM`PaWaTax`W````#LaBak```E`````#`x````aNas`8`T`````qa5.P`s.z`````````U`q.vaJ.IaK.daMaMaMaMaMaMaMaMaMaMaMaMaM",
"aMaMaMaMaMaMaMaMaMaMaM`PaW.``o`F````au```e``#J````.#`d`````O.P`s`Q````at.Y`s.rap````````.ya`at.X.6aKaEaMaMaMaMaMaMaMaMaMaMaMaMaM",
"aMaMaMaMaMaMaMaMaMaMaM`P.taT`o`F`````D```f``#B````aL`d`````O`s`s.r`````O`s.2.rap`````f`````D.U`F`MaK`PaMaMaMaMaMaMaMaMaMaMaMaMaM",
"aMaMaMaMaMaMaMaMaMaM.d`PaWax`o`F`````e``````.n````.A`T````.#`s.r.r`````O`s.r`Qap```E.A`f``auaqaf.g`G`PaEaMaMaMaMaMaMaMaMaMaMaMaM",
"aMaMaMaMaMaMaMaMaMaMaE`P`YaT`o`F`````O````#L`.````as`s`````#.r.r.r````.U.2.E.Eap``au`TaN``#LasabaY.`aW`P.daMaMaMaMaMaMaMaMaMaMaM",
"aMaMaMaMaMaMaMaMaMaMaEaW.taT`o`F`````l````aB`q`````s.r````.7.r`Q.r````a3.raYaY.z``au`s`T.y``a3.r`o`o`YaWaEaMaMaMaMaMaMaMaMaMaMaM",
"aMaMaMaMaMaMaMaMaM.d`PaWaW`Y`o`W````.e#K```U`e````.2aY````.7.E.r.r````aL.raYaY.z``auaY.raw```v.raY`o.Q.t`P.daMaMaMaMaMaMaMaMaMaM",
"aMaMaMaMaMaMaMaMaM.d`PaW.t`Yax`F`````2#J.s.n.Aauap#P.caU`J#D.j#M.2`2aP`d`Q.M.3#w`b#V.j#t`c#2.h.P.EaY`o`YaWaE.daMaMaMaMaMaMaMaMaM",
"aMaMaMaMaMaMaMaMaMaEaWaW`Y#j#H#H`N`e`q`O`#`T`s`a.T#H#H#H#H#H#H#H#d`has.P.r.N#H#H#H#H#H#H#H#H#H#H#H...3.Ma##6a0aMaMaMaMaMaMaMaMaM",
"aMaMaMaMaMaMaMaMaM`PaW.t`Y.3#H#Had`Oa3`d`s.r#P#H#H#H#H#H#H#H#H#H#H.C`B`x.Y.N#H#H#H#H#H#H#H#H#H#H#H#H#H#AaA`I#6.daMaMaMaMaMaMaMaM",
"aMaMaMaMaMaMaMaMaM`PaW.t.`.3#H#Had.#`x.r.rar#H#H#H#H#H#H#H#H#H#H#H#H#I`Oaq#a#H#H#H#H#H#H#H#H#H#H#H#H#H#z.L`6.J.daMaMaMaMaMaMaMaM",
"aMaMaMaMaMaMaMaM.d`P.t`Y.Q.3#H#H`N.A`s`Q`o#d#H#H#H`y#k`z.8#g###H#H#H#H.Zat.Kae.wal`m`N#H#H#H#.#.#.`y#H#f.HaH.JaMaMaMaMaMaMaMaMaM",
"aMaMaMaMaMaMaMaM.d`P`Y.`.Q.3#H#Had`x`saY#u#H#H#H#m.q`f`v`D`q`e#I#H#Hai.Zaz#Qatat`O.##a#H#H#H`z`f`U`U.8aO.x`6`ka0aMaMaMaMaMaMaMaM",
"aMaMaMaMaMaMaMaMaEaW.taT`o.3#H#Hadam.raY.c#H#H.CaZ.8`i`q`#.5as.A.o#Q.eaNan.UaLaq.S`xaV#H#H.C`z`U`U.8aa#R.IaC#XaMaMaMaMaMaMaMaMaM",
"aMaMaMaMaMaMaMaM.daW.t`Y`o.3#H#H.oas.raY.T#H#H#Vaw#B`e`8.raYaY.2.2`8`F.7.7`F.G`n`s`s.N#H#H#H`r`U`vaa.vay`I`k.daMaMaMaMaMaMaMaMaM",
"aMaMaMaMaMaMaMaM.d`P`Yax`oah#H#Had`8.r`Q#H#H#H#faP#Q.5.rar#Ear#E`a.N.ba7#4.VabaYaFaY`a#H#H#H#g#B#5.v`3`I`k.daMaMaMaMaMaMaMaMaMaM",
"aMaMaMaMaMaMaMaMaEaW`YaT`o.3#H#Hadas.r.r#H#H#HalaNaq.raY#H#H#H#H#H#H#H#1#4`n`o`o`oaY`a#H#H#H#iap.v#``g#X.daMaMaMaMaMaMaMaMaMaMaM",
"aMaMaMaMaMaMaMaM.daW.t.``o.3#H#Had.5`s.r#H#H#H#CaL.5.raF#H#H#H#H#H#H#H#A`F.VaF`oax`o.M#H#H#H#vaz`0aIaK.d.daMaMaMaMaMaMaMaMaMaMaM",
"aMaMaMaMaMaMaMaMaEaW.t.Q`o.3#H#Had`x`T.r#H#H#HaS.A`T.2.E#H#H#H#H#H#H#H`m.O`W.g`o.Q`oar#H#H#H#v`K`0`A`G.daMaMaMaMaMaMaMaMaMaMaMaM",
"aMaMaMaMaMaMaMaM.daW.taT`o.3#H#H`N.Aas`s#n#H#Had.Y.2.raY.j.j#s.j#H#H#H#v.v.7.gax`o`o`a#H#H#H#v`K`0aA#6.daMaMaMaMaMaMaMaMaMaMaMaM",
"aMaMaMaMaMaMaMaM.d`P`YaT`o.3#H#H`NaL.5`T#p#H#H.T.P.r.EaYaFaY.2`s#H#H#H#ia``0`n`oaT`oar#H#H.C.w`K.HaA`GaMaMaMaMaMaMaMaMaMaMaMaMaM",
"aMaMaMaMaMaMaMaMaEaW.taTaxah#H#H#o`l.Aam`S#H#H#H#x.raF`o`o`oaY.F#H#H#H`r#Zan`M.Q`o`oaQ#H#H#H#v`K.HaA#6.daMaMaMaMaMaMaMaMaMaMaMaM",
"aMaMaMaMaMaMaMaM.d`PaWaTax.3#H.C#oata3.SaR.C.C#H#H.3#u`o.B#u.c#H#H#H#H`raPan`MaTaT`o.M#H#H.C`R.u.H`1#6aMaMaMaMaMaMaMaMaMaMaMaMaM",
"aMaMaMaMaMaMaMaM.d`PaW`Y`oah#H#Haga`ataL.S#s#H#H#H#H#H#H#H#H#H#H#H#H#H`z#5`0#8aT.`.Qar#H#H#H#f`H`0`1#6aMaMaMaMaMaMaMaMaMaMaMaMaM",
"aMaMaMaMaMaMaMaMaE`P.t`Yax.3#H#H#V#Z.v.7aq.7`u#H#H#H#H#H.C#H#H#H#H#H`b.8.z.X`g`YaTaT.M#H#H#H#g#7.HaH#XaMaMaMaMaMaMaMaMaMaMaMaMaM",
"aMaMaMaMaM.daMaE`PaWaW`Y.l#D#H#H.i.z.v`4#`.7.Uag#H#H#H#H#H#H#H#H`y`z.8#S#RaIa#aW.t.`#b#H#H.C#g.zaJ#Y#XaMaMaMaMaMaMaMaMaMaMaMaMaM",
"aM.daE`P`P`P`P`PaWaW.t.ta.#x`J`J#y.z.H#`.V#`.O`K`t.i#.#.`y#.#m`zau.8.4#7.L#Y#6aWaWa#.0#I`J#c#i.aay`I#XaMaMaMaMaMaMaMaMaMaMaMaMaM",
".daE`P`P`PaWaWaWaWaW.ta8.l`p`waXaX#3`p.Wa.#8#T`0a`aa`v`U.8`U.8.8.4#SaX.L`6#6`P#X`Pa#.W#0#3#R#3#eaH.Ja0aMaMaMaMaMaMaM.daMaMaMaMaM",
"`P`PaWaWaWaWaW.t.t.t`Y`Ya#aA#0aJaJ.I`gaK.t.t.``n.X.v#Z`X.f.4#SaG.z#3ay`6.J#X.d.d`P#6`G`g.6aIaI`6`7#6.daMaMaMaM.daEaE`PaEaE.daMaM",
"`P`PaWaW.t.t`Y`Y`Y.``Y`Y.`#8`1`1aH`7`GaWaW.t`Y`G#8#T.HanaD#R`waJ`paH`I#X#X.d.d`P`P`PaWaW`Ga#`7`7#6`P.d.daEaE`PaE`P`P`P`P`PaE.daM",
"aW`L`Lao`Z#7#7aD#`#T.G.l.`a#aKa#a8aWaWaWaWaW`YaT.`.l#8.6aA.6.W`gaK#6`P.d.d.d#X`P`PaWaW.t.t.t.taWaWaW`P`PaW`PaWaWaWaW#N`L`g`P`Pa0",
"aW`L``````````````````a7.``Y.taWaW.taWaW.taW`p`3`YaT`YaT.taWaW`PaW`P`P`P`P`P`PaWaWaWaW.t`L`L.6.taWaWaWaWaWaW.taW.taW`````Aa8aK#6",
"aW#0`Kaa`U`````````````CaFaT.t.t.taW.taWaW#7``.u.Q.`aT`Y.t.taWaWaWaWaW`PaW`PaWaWaW.taW.t````#T`YaT`Y.t.t.t.t.t`Y`Y.`````#``g`IaK",
"aW.``oaFaF````aN`OaN.kam`oaT`Y`Y`Y.t.t.t.tao```H`o`o.Q.``YaW.taW.t.t.t.taW.t.t.t.t.t`YaT.8.8`A.Q.`aT.t`G`Y`Y.`aT.`.Q`````4.6`1`I",
"a8.`.l.g`s`````2.Oaqam.8.8`M.Q.`aT`p`pa##8ao``a`aYaY`oaT`Y.taW`Y`YaT`Y`Y.t.t.t`Y`Y`Y.`ax#``WaF`o`o`Y#r`Zaoao.4aF`o`o````an#TaI`6",
"#6.`.laFab````apaLaqam`````W`o`oaT````#0ao````````a`aY.Q.l#3`Zaoaa`M`oaT`Yao``.mao.y`waY`````FaY`o`4```````````5aYaY````az#0#r.W",
"`PaWaTaxaY`````q.S#4.2`````F`oaY`o`````Fau````````apaY`o`X````````#L`n`oaTao````````aNaY````aqaY`oaB````auaB`````s`Q````a`.X`p.W",
"`PaW`YaT`o`````O.P`s.E````aqaYaY`o````.7at`E``.y`5`q.r.O````````````.4aY`oau`````EaBaL`s````aq.Eab````anak#5`````s`s````a`.X#raH",
"aEaWaW`Y`o````.O`s`QaY````aqaYaYaY````aq`s#J``.f`#`d.2.4```Eaq`x`f````abaYau````aLaL.Aam````aq.rabafafaw`````````d`T````ap.X#0.W",
".d`PaW.t.`````.Uab`Q.E````aqaYaYaY`````#`T#J```i.A`8`saB``aw`s#W`O`````#.2au``.s`Oa3aq.Y`````#.r.E.7````````````.#.A````aP.H`paH",
".d`P`PaWaT````atafab`Q`````FaYaYaY````.##W#J``#Bas`T.r````a3`s`Tas````.#.P`f```f`O.O`F.P````aL.2.raB```E`2`2`````q`O````#5.Ha2`6",
"aMaE`PaW`G`````K.Gak`Q.y``azaYaYa3````a3.5#J```D.Y`s`s````ap`s`s`T`````O`x#J``.8a3aq#4`s````.U.Yas`````e`O#K`````ia`````.p#3`pa1",
".d.d`PaW`7````.z.X.G`nau````#Bap.y````.e.A#J```Das.Y`s`E``au`s`s`e````aNaL`5```vaL.Gakab````aN.Sa5#L`````````````5.p````aa.x.IaC",
"aMaM.d#6`IaO.8aD.X#`.V#Q``````````````aPa3`5``#K#J.Sa5`i````au`i````.yaNat.s```v.7.G.V`n````a`.O.Uau``````#L`5``#K.f.4#5.aa2`6.J",
"aMaM.d#XaC`1a2.L`p`3#T`Wap.y````#J````.fa``f``````ap.O.O#K``````````.fap`q.s``.8`C#`#T.V````.m.vaDapaw`5`5`U.8`v.4#5`H#R.LaHaCa0",
"aMaMaMa0.J`IaHaH.W.WaA#r`CaD#Zaw.f.s.sa4#ZaPaB````.faz#Qap#K```````5aw#5.zaB```v.H#0#r`3.4`Z`Han#R.v`H#Zaa`Xaa.m#7#R#eay`6.J`kaM",
"aMaMaM.da0.J.JaKaKaC`g`1#0.HaX.m#5aa#5#Z`H.u.z.z.z`HaDan.va``Xau.8.faa.zaD.z#7`w.L`paIaAay.LaJaJ.LaJ.H#3#R.a#R.H.L.IaH`I.Ja0a0aM",
"aMaMaMaMaM.da0a0a0#X.J`I.W`paJ#3.a#R#R.H.H.H#3#3`w.HaJaJ.H#R`H.m.maOaD.H.L#0a2`paH`6#Y`I.WaHaHaHaHaH`1.IaI.IaH`6`I.J`ka0.daMaMaM",
"aMaMaMaMaMaMaMaMaM.d.d#X.JaC`6aH.I.I.I`1aH.IaIayay.I.IaAaI#0aJ#3#3aJ`p.IaH`6`6a1`I.J.J.J.JaCaK.J.J#6#6`k.J`k`k#Xa0aM.daMaMaMaMaM",
"aMaMaMaMaMaMaMaMaMaMaMaM.da0#X`k#6#6.J.J.J.JaKaCaKaKaKaKaC`I`6`6`6a1`I.J.J.J.J`k`ka0a0.da0a0a0.daMaMaM.daMaMaMaMaMaMaMaMaMaMaMaM",
"aMaMaMaMaMaMaMaMaMaMaMaMaMaMaMaMaMaM.daM.d.da0.da0.d.da0.da0#Xa0#Xa0.d.daM.daMaMaMaMaMaMaMaMaMaMaMaMaMaMaMaMaMaMaMaMaMaMaMaMaMaM",
"aMaMaMaMaMaMaMaMaMaMaMaMaMaMaMaMaMaMaMaMaMaMaMaMaMaMaMaMaMaMaMaMaMaMaMaMaMaMaMaMaMaMaMaMaMaMaMaMaMaMaMaMaMaMaMaMaMaMaMaMaMaMaMaM",
"aMaMaMaMaMaMaMaMaMaMaMaMaMaMaMaMaMaMaMaMaMaMaMaMaMaMaMaMaMaMaMaMaMaMaMaMaMaMaMaMaMaMaMaMaMaMaMaMaMaMaMaMaMaMaMaMaMaMaMaMaMaMaMaM"
};
