/* XPM */
static const char *datamanager_xpm[]={
"22 22 178 2",
"Qt c None",
".t c #0032ab",
".5 c #0132b1",
".s c #0238b2",
".M c #0340f1",
".4 c #0343f6",
".L c #0349ff",
".K c #044aff",
".r c #053fbf",
".q c #0742c2",
".p c #0a47c4",
".3 c #0a4fff",
"aV c #0c3ba7",
".J c #0c52ff",
".o c #0e4dc7",
".n c #1253c9",
".2 c #1358ff",
".I c #155bff",
".m c #1759cc",
".l c #1b5fce",
".1 c #1c61ff",
"#p c #1d48b3",
".H c #1e64ff",
".k c #2065d1",
".0 c #246aff",
".j c #246bd3",
".G c #276dff",
".i c #2971d6",
".Z c #2d73ff",
".h c #2d77d8",
".F c #3076ff",
"aa c #3257b0",
".g c #327ddb",
"#8 c #3358b0",
"#3 c #3358b1",
"#Y c #3459b2",
"aU c #345ab2",
"#U c #355ab2",
"aH c #357fd4",
"#O c #365bb3",
".Y c #367bff",
".f c #3683dd",
"#K c #375cb4",
"aT c #375fb5",
"#E c #385db4",
"#A c #385eb5",
".E c #397fff",
"aS c #3a63b8",
".e c #3a89e0",
"aR c #3d68bb",
".X c #3f84ff",
".d c #3f8fe2",
"aQ c #406cbe",
"aP c #4271c1",
".D c #4287ff",
".c c #4395e5",
".# c #449de8",
"aO c #4575c4",
".b c #479be7",
"aN c #487ac7",
".W c #488dff",
"aM c #4b7eca",
".C c #4b90ff",
".a c #4ba0ea",
".N c #4da3ec",
"aL c #4e83ce",
".V c #5095ff",
"aK c #5188d1",
"aJ c #548cd4",
".B c #5499ff",
"aI c #5791d7",
".U c #589dff",
".6 c #5ba8eb",
".A c #5da1ff",
"ar c #5e9ade",
"an c #609ddf",
".T c #60a5ff",
"aj c #619fe1",
"ag c #62a0e1",
"ab c #62a2e2",
"#9 c #63a3e3",
"#4 c #64a5e4",
"#Z c #65a6e5",
".z c #65aaff",
"#V c #66a7e6",
"#P c #67a9e7",
"#L c #68aae8",
".S c #68adff",
"#F c #69ace9",
"#B c #69aeea",
"#q c #6aafeb",
".y c #6db2ff",
".R c #70b4ff",
".x c #75baff",
".Q c #77bbff",
"#o c #7a9af5",
"#n c #7da0fd",
".w c #7dc1ff",
"#m c #7ea1fd",
".P c #7ec2ff",
"#l c #7fa2fe",
"#k c #82a5fe",
".O c #84c8ff",
".v c #84c9ff",
"#j c #87aaff",
".u c #8bcfff",
"#i c #8cafff",
"#h c #90b3ff",
"#g c #95b8ff",
"#f c #99bcff",
"#s c #9a9a9a",
"#e c #9dc0ff",
"#d c #a2c4ff",
"#c c #a6c8ff",
"#b c #aaccff",
"#a c #aed0ff",
"## c #b1d4ff",
"#. c #b5d7ff",
".9 c #b9dbff",
".8 c #bcdeff",
".7 c #bfe1ff",
"aG c #d4d3e0",
"aq c #dad9e6",
"am c #dbdbe6",
"ai c #dcdce7",
"af c #dedde8",
"a# c #dfdfe9",
"aF c #e1e0ea",
"#7 c #e1e1ea",
"ap c #e2e2ed",
"aE c #e3e2eb",
"#2 c #e3e3ec",
"al c #e3e3ee",
"aD c #e4e4ed",
"#X c #e5e5ed",
"ah c #e5e5ef",
"aC c #e7e6ee",
"#T c #e7e7ee",
"ae c #e7e7f0",
"a. c #e8e8f1",
"aB c #e9e8ef",
"#N c #e9e9f0",
"#6 c #eaeaf2",
"aA c #ebeaf1",
"#J c #ecebf2",
"#1 c #ececf3",
"az c #edecf2",
"#W c #ededf4",
"#D c #eeedf3",
"ad c #eeeef4",
"ay c #efeef3",
"#S c #efeff5",
"#z c #f0eff4",
"ax c #f1f0f5",
"#M c #f1f1f6",
"aw c #f2f2f6",
"#I c #f2f2f7",
"#R c #f3f3f7",
"ao c #f3f3f8",
"#C c #f4f4f8",
"ak c #f4f4f9",
"av c #f5f4f7",
"#y c #f6f6f9",
"#5 c #f6f6fa",
"#G c #f7941d",
"au c #f7f6f9",
"#x c #f7f7fa",
"#Q c #f8f8fb",
"at c #f9f9fa",
"#w c #f9f9fb",
"#0 c #f9f9fc",
"as c #fafafb",
"ac c #fafafc",
"#v c #fbfbfc",
"#H c #fbfbfd",
"#u c #fdfdfe",
"#t c #fefeff",
"#r c #ffffff",
"QtQtQtQtQtQtQtQtQtQtQtQtQtQtQtQtQtQtQtQtQtQt",
".#.#.a.b.c.d.e.f.g.h.i.j.k.l.m.n.o.p.q.r.s.t",
".#.u.v.w.x.y.z.A.B.C.D.E.F.G.H.I.J.K.L.L.M.t",
".N.O.P.Q.R.S.T.U.V.W.X.Y.Z.0.1.2.3.L.L.L.4.5",
".6.7.8.9#.###a#b#c#d#e#f#g#h#i#j#k#l#m#n#o#p",
"#q#r#r#r#s#r#r#r#r#r#r#r#r#r#t#u#v#w#x#y#z#A",
"#B#r#r#r#s#r#r#r#r#r#r#r#r#t#u#v#w#x#y#C#D#E",
"#F#r#r#r#s#r#r#r#r#r#G#G#G#G#H#w#x#y#C#I#J#K",
"#L#r#r#r#s#r#r#r#r#r#G#G#G#G#w#x#y#C#I#M#N#O",
"#P#r#r#r#s#s#s#s#s#r#G#G#G#G#Q#y#C#R#M#S#T#U",
"#V#r#r#r#s#r#r#r#r#r#G#G#G#G#y#C#R#M#S#W#X#Y",
"#Z#r#r#r#s#r#r#r#r#u#H#0#Q#y#C#R#M#S#W#1#2#3",
"#4#r#r#r#s#r#r#r#u#H#0#Q#5#C#R#M#S#W#1#6#7#8",
"#9#r#r#r#s#r#r#u#H#0#Q#5#C#R#M#S#W#1#6a.a#aa",
"ab#r#r#r#s#r#u#Hac#Q#G#G#G#G#Sad#1#6a.aeafaa",
"ag#r#r#r#s#u#Hac#Q#5#G#G#G#Gad#1#6a.aeahaiaa",
"aj#r#r#r#s#s#s#s#sak#G#G#G#G#1#6a.aeahalamaa",
"an#r#r#u#Hac#Q#5akao#G#G#G#G#6a.aeahalapaqaa",
"arasatauavawaxayazaAaBaCaDaEaFa#afaiamaqaGaa",
"aHaIaJaKaLaMaNaOaPaQaRaSaTaUaaaaaaaaaaaaaaaV",
"QtQtQtQtQtQtQtQtQtQtQtQtQtQtQtQtQtQtQtQtQtQt",
"QtQtQtQtQtQtQtQtQtQtQtQtQtQtQtQtQtQtQtQtQtQt"};
