/* XPM */
static char * document_open_xpm[] = {
"32 32 305 2",
"  	c None",
". 	c #555753",
"+ 	c #575955",
"@ 	c #5D5E5A",
"# 	c #F2F2F2",
"$ 	c #FEFEFE",
"% 	c #FDFDFD",
"& 	c #EAEAEA",
"* 	c #8A8B89",
"= 	c #5A5D59",
"- 	c #D7D7D7",
"; 	c #D6D6D6",
"> 	c #D5D5D5",
", 	c #D3D3D3",
"' 	c #D1D1D1",
") 	c #CDCDCD",
"! 	c #C8C8C8",
"~ 	c #BFBFBF",
"{ 	c #BCBCBC",
"] 	c #A4A4A3",
"^ 	c #5B5D59",
"/ 	c #D9D9D9",
"( 	c #D8D8D8",
"_ 	c #D4D4D4",
": 	c #D2D2D2",
"< 	c #CECECE",
"[ 	c #C7C7C7",
"} 	c #BEBEBE",
"| 	c #A1A2A0",
"1 	c #5B5D5A",
"2 	c #7A7A7A",
"3 	c #777777",
"4 	c #767676",
"5 	c #DCDCDC",
"6 	c #DBDBDB",
"7 	c #9B9C9B",
"8 	c #999A98",
"9 	c #989997",
"0 	c #9C9D9B",
"a 	c #C1C1C1",
"b 	c #F9F9F9",
"c 	c #F3F3F3",
"d 	c #A0A19F",
"e 	c #5B5E5A",
"f 	c #808080",
"g 	c #C4C4C4",
"h 	c #C3C3C3",
"i 	c #DEDEDE",
"j 	c #DDDDDD",
"k 	c #DADADA",
"l 	c #CFCFCF",
"m 	c #A7A7A7",
"n 	c #8C8D8B",
"o 	c #818181",
"p 	c #B3B3B3",
"q 	c #9F9F9F",
"r 	c #9E9E9E",
"s 	c #9D9D9D",
"t 	c #9C9C9C",
"u 	c #999999",
"v 	c #585A56",
"w 	c #E1E1E1",
"x 	c #E0E0E0",
"y 	c #9D9E9D",
"z 	c #A3A3A2",
"A 	c #CCCCCC",
"B 	c #B5B5B4",
"C 	c #696B66",
"D 	c #C5C5C4",
"E 	c #B0B0B0",
"F 	c #AEAEAE",
"G 	c #ADADAD",
"H 	c #ACACAC",
"I 	c #A9A9A9",
"J 	c #595B57",
"K 	c #E3E3E3",
"L 	c #8F918E",
"M 	c #D0D0CF",
"N 	c #E2E2E2",
"O 	c #DEDEDD",
"P 	c #737373",
"Q 	c #B1B1B1",
"R 	c #9A9A9A",
"S 	c #979797",
"T 	c #949494",
"U 	c #E6E6E6",
"V 	c #E5E5E5",
"W 	c #E8E8E8",
"X 	c #A0A1A0",
"Y 	c #9E9F9D",
"Z 	c #9D9E9C",
"` 	c #A3A4A2",
" .	c #6F6F6F",
"..	c #C2C2C1",
"+.	c #AAAAAA",
"@.	c #A2A2A2",
"#.	c #5A5C58",
"$.	c #E7E7E7",
"%.	c #E4E4E4",
"&.	c #696969",
"*.	c #B0B0AF",
"=.	c #989898",
"-.	c #969696",
";.	c #909090",
">.	c #EBEBEB",
",.	c #A6A7A5",
"'.	c #A3A4A3",
").	c #A2A3A2",
"!.	c #A8A8A7",
"~.	c #666666",
"{.	c #BDBDBD",
"].	c #A8A8A8",
"^.	c #738AA6",
"/.	c #3767A5",
"(.	c #3666A4",
"_.	c #3565A3",
":.	c #3868A6",
"<.	c #3566A5",
"[.	c #3869A6",
"}.	c #656565",
"|.	c #959595",
"1.	c #5476A1",
"2.	c #9AB8D8",
"3.	c #BED3E9",
"4.	c #BDD2E9",
"5.	c #BCD2E9",
"6.	c #BCD1E8",
"7.	c #BBD1E8",
"8.	c #A0BDDC",
"9.	c #3869A7",
"0.	c #626262",
"a.	c #B6B6B5",
"b.	c #A5A5A5",
"c.	c #4F75A7",
"d.	c #A7C1DE",
"e.	c #9DBDDE",
"f.	c #8EB3DA",
"g.	c #8EB3D9",
"h.	c #8FB3D9",
"i.	c #8FB4D9",
"j.	c #8FB4DA",
"k.	c #8FB5DA",
"l.	c #90B5DA",
"m.	c #9CBCDE",
"n.	c #96B6D7",
"o.	c #396AA7",
"p.	c #5F5F5F",
"q.	c #929292",
"r.	c #446FA5",
"s.	c #B3CAE4",
"t.	c #99BBDD",
"u.	c #8FB3DA",
"v.	c #93B6DB",
"w.	c #8EAFD3",
"x.	c #3969A8",
"y.	c #5E5E5E",
"z.	c #ADADAC",
"A.	c #3D6BA6",
"B.	c #BDD1E8",
"C.	c #98B9DD",
"D.	c #92B6DB",
"E.	c #92B5DB",
"F.	c #86ADD7",
"G.	c #98BADD",
"H.	c #85A7CF",
"I.	c #3767A7",
"J.	c #5A5A5A",
"K.	c #8E8E8F",
"L.	c #3868A5",
"M.	c #C6D8EC",
"N.	c #97B9DC",
"O.	c #96B8DC",
"P.	c #95B8DC",
"Q.	c #95B7DC",
"R.	c #94B6DC",
"S.	c #87AED7",
"T.	c #80A9D5",
"U.	c #9FBEDF",
"V.	c #7C9FCA",
"W.	c #575757",
"X.	c #A5A5A4",
"Y.	c #979BA0",
"Z.	c #4672AB",
"`.	c #C5D8EC",
" +	c #99B9DD",
".+	c #88AFD7",
"++	c #84ACD6",
"@+	c #A7C4E2",
"#+	c #7196C3",
"$+	c #555555",
"%+	c #808892",
"&+	c #557DB2",
"*+	c #C0D4EA",
"=+	c #9CBBDE",
"-+	c #9BBBDE",
";+	c #8AAFD9",
">+	c #88AED8",
",+	c #ADC7E4",
"'+	c #648BBC",
")+	c #525252",
"!+	c #838F9F",
"~+	c #6188B7",
"{+	c #B5CDE7",
"]+	c #99BADD",
"^+	c #9ABADD",
"/+	c #97B8DC",
"(+	c #96B7DC",
"_+	c #94B6DB",
":+	c #91B4DA",
"<+	c #89AFD8",
"[+	c #89AED8",
"}+	c #ADC6E4",
"|+	c #547EB5",
"1+	c #505050",
"2+	c #6F7F94",
"3+	c #6A8FBD",
"4+	c #A9C4E2",
"5+	c #93B5DB",
"6+	c #8EB2D9",
"7+	c #84ABD6",
"8+	c #80A8D5",
"9+	c #80A7D4",
"0+	c #7FA8D4",
"a+	c #7FA8D5",
"b+	c #A4C1E1",
"c+	c #4572AC",
"d+	c #4E4E4E",
"e+	c #919191",
"f+	c #7186A0",
"g+	c #6E93C2",
"h+	c #9BBBDD",
"i+	c #85ACD6",
"j+	c #7CA6D3",
"k+	c #77A1D1",
"l+	c #76A1D1",
"m+	c #76A2D1",
"n+	c #77A2D2",
"o+	c #77A3D2",
"p+	c #78A3D2",
"q+	c #3A6AA7",
"r+	c #4B4B4B",
"s+	c #878786",
"t+	c #5F7899",
"u+	c #668FC2",
"v+	c #6D9CCE",
"w+	c #6E9CCE",
"x+	c #6E9CCF",
"y+	c #6F9DCF",
"z+	c #709DCF",
"A+	c #709ECF",
"B+	c #719ECF",
"C+	c #8BB0D7",
"D+	c #3466A4",
"E+	c #494949",
"F+	c #878787",
"G+	c #5D7CA3",
"H+	c #5F8CC0",
"I+	c #6797CC",
"J+	c #6797CD",
"K+	c #6798CD",
"L+	c #6898CD",
"M+	c #6998CD",
"N+	c #6999CD",
"O+	c #6A99CD",
"P+	c #6C9BCE",
"Q+	c #76A1CF",
"R+	c #3667A6",
"S+	c #474747",
"T+	c #7E7E7E",
"U+	c #4F73A0",
"V+	c #6995C7",
"W+	c #78A4D2",
"X+	c #77A2D1",
"Y+	c #77A3D1",
"Z+	c #78A3D1",
"`+	c #79A4D2",
" @	c #7BA5D3",
".@	c #729DCC",
"+@	c #454545",
"@@	c #4A72A5",
"#@	c #759DC8",
"$@	c #83A8D0",
"%@	c #84A9D1",
"&@	c #85AAD2",
"*@	c #86ABD3",
"=@	c #84AAD2",
"-@	c #6A94C5",
";@	c #3968A8",
">@	c #3F3F3F",
",@	c #707478",
"'@	c #3A68A4",
")@	c #5986B8",
"!@	c #5B88BA",
"~@	c #5C89BA",
"{@	c #5C8ABB",
"]@	c #5D8BBC",
"^@	c #5E8CBD",
"/@	c #5F8DBE",
"(@	c #5E8CBE",
"_@	c #4775AF",
":@	c #33639E",
"<@	c #3C5678",
"[@	c #3465A4",
"}@	c #3566A4",
"|@	c #325F99",
"                                                                ",
"                  . . . . . . . . . . . + @                     ",
"                  . # $ $ $ $ $ $ $ % % & * =                   ",
"                  . - - - - ; > , ' ) ! ~ { ] ^                 ",
"                  . / / / ( ( ( - _ : < [ } # | 1               ",
"    2 3 3 3 3 3 4 + 5 6 6 6 7 8 8 8 9 0 ' a b c d e             ",
"    f ) g h h a } + i i i j 6 6 k k k / - l m m { n             ",
"    o p q r s t u v w / x x d y y y y z i k ' A ! B C           ",
"    2 D E F G H I J K L M N O i i j j j x x j k > < v           ",
"    P Q t R u S T v U V W V X Y Y Y Y Y Y Y Z ` j / +           ",
"     ...H +.I m @.#.W W W W $.$.$.U U U U V V V %.w +           ",
"    &.*.=.-.-.T ;.#.>.>.& & ,.'.).).).).).).).!.$.$.+           ",
"    ~.{.].^././.(._.:.:.:.:.:.:.:.:.:.:.:.:.:.:.:.:._.<.<.[.    ",
"    }.+.|.1.2.3.3.3.4.4.5.5.5.5.5.5.5.6.6.6.6.6.7.7.7.7.8.9.    ",
"    0.a.b.c.d.e.f.g.h.h.h.h.h.i.i.i.i.i.i.j.j.j.k.k.l.m.n.o.    ",
"    p.b.q.r.s.t.j.u.u.u.u.u.u.u.u.u.u.u.u.h.h.h.h.h.g.v.w.x.    ",
"    y.z.@.A.B.C.v.v.v.v.v.D.D.D.E.E.E.E.E.E.E.E.E.E.F.G.H.I.    ",
"    J.q K.L.M.N.O.O.P.P.P.P.P.P.P.P.P.P.P.Q.Q.Q.R.S.T.U.V.      ",
"    W.X.Y.Z.`. + + + + + + + + + + + +C.C.C.C.P..+++++@+#+      ",
"    $+=.%+&+*+m.m.m.=+=+=+=+=+=+-+-+-+-+-+-+R.;+>+>+>+,+'+      ",
"    )+t !+~+{+ + + + +]+]+^+^+ +/+(+_+:+u.<+>+>+>+>+[+}+|+      ",
"    1+;.2+3+4+E.5+E.6+<+7+8+9+0+0+0+a+a+a+8+8+8+8+T.T.b+c+      ",
"    d+e+f+g+h+i+j+k+l+m+m+m+m+n+n+n+n+n+o+o+p+p+p+p+p+]+q+      ",
"    r+s+t+u+j+v+v+v+w+w+x+x+x+x+y+y+y+y+y+y+z+z+z+A+B+C+D+      ",
"    E+F+G+H+w+I+I+J+K+L+L+L+L+L+L+M+M+M+N+N+N+O+O+O+P+Q+R+      ",
"    S+T+U+V+W+m+m+m+m+m+X+X+X+Y+Y+Y+Z+Z+Z+Z+Z+Z+`+`+ @.@9.      ",
"    +@T+@@#@$@$@$@$@$@%@%@%@%@%@%@%@%@&@&@&@&@*@*@*@=@-@;@      ",
"    >@,@'@)@!@~@~@~@~@~@{@{@{@{@]@]@]@]@^@^@^@^@/@/@(@_@:@      ",
"      <@[@(.(.(.(.(.(.(.(.(.(.(.(.(.(.(.(.(.(.(.(.}@(.|@        ",
"                                                                ",
"                                                                ",
"                                                                "};
