<?xml version="1.0" encoding="UTF-8" standalone="no"?>
<!-- Generator: Adobe Illustrator 16.0.4, SVG Export Plug-In . SVG Version: 6.00 Build 0)  -->

<svg
   xmlns:dc="http://purl.org/dc/elements/1.1/"
   xmlns:cc="http://creativecommons.org/ns#"
   xmlns:rdf="http://www.w3.org/1999/02/22-rdf-syntax-ns#"
   xmlns:svg="http://www.w3.org/2000/svg"
   xmlns="http://www.w3.org/2000/svg"
   xmlns:sodipodi="http://sodipodi.sourceforge.net/DTD/sodipodi-0.dtd"
   xmlns:inkscape="http://www.inkscape.org/namespaces/inkscape"
   version="1.1"
   id="Capa_1"
   x="0px"
   y="0px"
   width="216px"
   height="146px"
   viewBox="0 0 216 146"
   enable-background="new 0 0 216 146"
   xml:space="preserve"
   inkscape:version="0.91 r13725"
   sodipodi:docname="tag.svg"><metadata
     id="metadata9"><rdf:RDF><cc:Work
         rdf:about=""><dc:format>image/svg+xml</dc:format><dc:type
           rdf:resource="http://purl.org/dc/dcmitype/StillImage" /></cc:Work></rdf:RDF></metadata><defs
     id="defs7" /><sodipodi:namedview
     pagecolor="#ffffff"
     bordercolor="#666666"
     borderopacity="1"
     objecttolerance="10"
     gridtolerance="10"
     guidetolerance="10"
     inkscape:pageopacity="0"
     inkscape:pageshadow="2"
     inkscape:window-width="690"
     inkscape:window-height="480"
     id="namedview5"
     showgrid="false"
     inkscape:zoom="1.3333333"
     inkscape:cx="108"
     inkscape:cy="73"
     inkscape:window-x="1187"
     inkscape:window-y="455"
     inkscape:window-maximized="0"
     inkscape:current-layer="Capa_1" /><path
     d="M166.703,76.869l-58.254-58.172c-2.064-2.065-4.834-3.816-8.31-5.255c-3.477-1.439-6.654-2.159-9.533-2.159H56.713  c-2.825,0-5.269,1.033-7.333,3.096c-2.064,2.064-3.096,4.508-3.096,7.333v33.893c0,2.879,0.719,6.055,2.159,9.532  s3.191,6.219,5.255,8.229l58.253,58.335c2.01,2.01,4.453,3.015,7.333,3.015c2.823,0,5.296-1.005,7.414-3.015l40.004-40.085  c2.01-2.011,3.014-4.453,3.014-7.332C169.716,81.46,168.712,78.988,166.703,76.869z M79.729,44.728  c-2.038,2.037-4.495,3.056-7.374,3.056c-2.878,0-5.336-1.019-7.373-3.056s-3.055-4.494-3.055-7.373s1.018-5.337,3.055-7.373  c2.037-2.037,4.495-3.056,7.373-3.056c2.879,0,5.337,1.019,7.374,3.056c2.036,2.036,3.055,4.494,3.055,7.373  S81.766,42.691,79.729,44.728z"
     id="path3"
     style="fill:#00ff00;fill-opacity:1;stroke:none;stroke-opacity:1" /></svg>