<?xml version="1.0" encoding="utf-8"?>
<!-- Generator: Adobe Illustrator 16.0.4, SVG Export Plug-In . SVG Version: 6.00 Build 0)  -->
<!DOCTYPE svg PUBLIC "-//W3C//DTD SVG 1.1//EN" "http://www.w3.org/Graphics/SVG/1.1/DTD/svg11.dtd">
<svg version="1.1" id="Capa_1" xmlns="http://www.w3.org/2000/svg" xmlns:xlink="http://www.w3.org/1999/xlink" x="0px" y="0px"
	 width="216px" height="146px" viewBox="0 0 216 146" enable-background="new 0 0 216 146" xml:space="preserve">
<path d="M166.703,76.869l-58.254-58.172c-2.064-2.065-4.834-3.816-8.31-5.255c-3.477-1.439-6.654-2.159-9.533-2.159H56.713
	c-2.825,0-5.269,1.033-7.333,3.096c-2.064,2.064-3.096,4.508-3.096,7.333v33.893c0,2.879,0.719,6.055,2.159,9.532
	s3.191,6.219,5.255,8.229l58.253,58.335c2.01,2.01,4.453,3.015,7.333,3.015c2.823,0,5.296-1.005,7.414-3.015l40.004-40.085
	c2.01-2.011,3.014-4.453,3.014-7.332C169.716,81.46,168.712,78.988,166.703,76.869z M79.729,44.728
	c-2.038,2.037-4.495,3.056-7.374,3.056c-2.878,0-5.336-1.019-7.373-3.056s-3.055-4.494-3.055-7.373s1.018-5.337,3.055-7.373
	c2.037-2.037,4.495-3.056,7.373-3.056c2.879,0,5.337,1.019,7.374,3.056c2.036,2.036,3.055,4.494,3.055,7.373
	S81.766,42.691,79.729,44.728z"/>
</svg>
