<?xml version="1.0" encoding="UTF-8" standalone="no"?>
<!-- Generator: Adobe Illustrator 16.0.4, SVG Export Plug-In . SVG Version: 6.00 Build 0)  -->

<svg
   xmlns:dc="http://purl.org/dc/elements/1.1/"
   xmlns:cc="http://creativecommons.org/ns#"
   xmlns:rdf="http://www.w3.org/1999/02/22-rdf-syntax-ns#"
   xmlns:svg="http://www.w3.org/2000/svg"
   xmlns="http://www.w3.org/2000/svg"
   xmlns:sodipodi="http://sodipodi.sourceforge.net/DTD/sodipodi-0.dtd"
   xmlns:inkscape="http://www.inkscape.org/namespaces/inkscape"
   version="1.1"
   id="Capa_1"
   x="0px"
   y="0px"
   width="216px"
   height="146px"
   viewBox="0 0 216 146"
   enable-background="new 0 0 216 146"
   xml:space="preserve"
   inkscape:version="0.91 r13725"
   sodipodi:docname="tags.svg"><metadata
     id="metadata13"><rdf:RDF><cc:Work
         rdf:about=""><dc:format>image/svg+xml</dc:format><dc:type
           rdf:resource="http://purl.org/dc/dcmitype/StillImage" /></cc:Work></rdf:RDF></metadata><defs
     id="defs11" /><sodipodi:namedview
     pagecolor="#ffffff"
     bordercolor="#666666"
     borderopacity="1"
     objecttolerance="10"
     gridtolerance="10"
     guidetolerance="10"
     inkscape:pageopacity="0"
     inkscape:pageshadow="2"
     inkscape:window-width="690"
     inkscape:window-height="480"
     id="namedview9"
     showgrid="false"
     inkscape:zoom="1.3333333"
     inkscape:cx="108"
     inkscape:cy="73"
     inkscape:window-x="0"
     inkscape:window-y="0"
     inkscape:window-maximized="0"
     inkscape:current-layer="g3" /><g
     id="g3"><path
       d="M154.073,84.284c0-2.824-1.005-5.296-3.015-7.415L92.805,18.697c-2.064-2.065-4.834-3.816-8.31-5.255   c-3.476-1.439-6.654-2.159-9.533-2.159H41.069c-2.824,0-5.269,1.033-7.332,3.096c-2.065,2.064-3.097,4.508-3.097,7.333v33.893   c0,2.879,0.719,6.055,2.159,9.532s3.192,6.219,5.255,8.229l58.254,58.335c2.01,2.01,4.454,3.015,7.332,3.015   c2.825,0,5.297-1.005,7.415-3.015l40.004-40.085C153.068,89.605,154.073,87.163,154.073,84.284z M64.086,44.728   c-2.037,2.037-4.495,3.056-7.374,3.056c-2.878,0-5.336-1.019-7.373-3.056s-3.055-4.494-3.055-7.373s1.018-5.337,3.055-7.373   c2.037-2.037,4.495-3.056,7.373-3.056c2.879,0,5.337,1.019,7.374,3.056c2.036,2.036,3.055,4.494,3.055,7.373   S66.122,42.691,64.086,44.728z"
       id="path5"
       style="fill:#00ff00;fill-opacity:1" /><path
       d="M182.343,76.87L124.09,18.698c-2.064-2.065-4.834-3.816-8.311-5.255c-3.475-1.439-6.653-2.159-9.532-2.159h-18.25   c2.879,0,6.056,0.72,9.532,2.159c3.477,1.44,6.247,3.191,8.311,5.255l58.253,58.172c2.011,2.118,3.017,4.59,3.017,7.414   c0,2.879-1.006,5.321-3.017,7.332l-38.292,38.293c1.631,1.684,3.069,2.905,4.318,3.666s2.852,1.141,4.807,1.141   c2.825,0,5.297-1.005,7.414-3.015l40.003-40.085c2.011-2.011,3.017-4.453,3.017-7.332C185.359,81.46,184.354,78.988,182.343,76.87z   "
       id="path7"
       style="fill:#00ff00;fill-opacity:1" /></g></svg>