/* XPM */
static const char * icon_xpm[] = {
"22 22 192 2",
"  	c None",
". 	c #404040",
"+ 	c #404042",
"@ 	c #414041",
"# 	c #414141",
"$ 	c #414140",
"% 	c #41413F",
"& 	c #414043",
"* 	c #414040",
"= 	c #404041",
"- 	c #404141",
"; 	c #404140",
"> 	c #414042",
", 	c #424042",
"' 	c #404142",
") 	c #414142",
"! 	c #40403E",
"~ 	c #42403F",
"{ 	c #433F3E",
"] 	c #443F3E",
"^ 	c #414143",
"/ 	c #3F4140",
"( 	c #40423F",
"_ 	c #433F40",
": 	c #4E3A3C",
"< 	c #5B3535",
"[ 	c #593634",
"} 	c #503A39",
"| 	c #473E3E",
"1 	c #41403F",
"2 	c #404143",
"3 	c #40413E",
"4 	c #453E3E",
"5 	c #5E3A3A",
"6 	c #853633",
"7 	c #91312E",
"8 	c #803733",
"9 	c #5E3533",
"0 	c #4C3C3C",
"a 	c #453F3F",
"b 	c #424040",
"c 	c #404241",
"d 	c #3F423E",
"e 	c #3E433C",
"f 	c #424740",
"g 	c #40413F",
"h 	c #434040",
"i 	c #4E3B39",
"j 	c #6D312F",
"k 	c #952A26",
"l 	c #A42823",
"m 	c #AB4844",
"n 	c #703333",
"o 	c #553739",
"p 	c #483D3C",
"q 	c #42413F",
"r 	c #424041",
"s 	c #43403E",
"t 	c #443F3A",
"u 	c #414339",
"v 	c #3B4535",
"w 	c #414C3D",
"x 	c #3D433C",
"y 	c #443F3F",
"z 	c #523939",
"A 	c #75302E",
"B 	c #9B221E",
"C 	c #A91D19",
"D 	c #B63B38",
"E 	c #9F4A46",
"F 	c #65322F",
"G 	c #543836",
"H 	c #483D3E",
"I 	c #443E3F",
"J 	c #443E3E",
"K 	c #4B3C3B",
"L 	c #533A36",
"M 	c #5C3D31",
"N 	c #978D73",
"O 	c #586243",
"P 	c #485440",
"Q 	c #3E423D",
"R 	c #403F40",
"S 	c #453E3F",
"T 	c #823634",
"U 	c #A2221F",
"V 	c #AE1A14",
"W 	c #B1231D",
"X 	c #B23B36",
"Y 	c #B65C57",
"Z 	c #83403C",
"` 	c #673634",
" .	c #5C3534",
"..	c #7A3938",
"+.	c #CC7571",
"@.	c #A54438",
"#.	c #8E4A34",
"$.	c #3E260D",
"%.	c #434336",
"&.	c #41413D",
"*.	c #41403E",
"=.	c #453F3E",
"-.	c #563738",
";.	c #833837",
">.	c #9C2220",
",.	c #AD1A15",
"'.	c #B01914",
").	c #B01F1A",
"!.	c #AF2B27",
"~.	c #BB4340",
"{.	c #D0625F",
"].	c #D86764",
"^.	c #B1302C",
"/.	c #B0201D",
"(.	c #A81714",
"_.	c #941A15",
":.	c #722A22",
"<.	c #513A36",
"[.	c #43403D",
"}.	c #413F40",
"|.	c #523938",
"1.	c #6E3230",
"2.	c #92302C",
"3.	c #991918",
"4.	c #A51513",
"5.	c #A51212",
"6.	c #A81414",
"7.	c #AE191A",
"8.	c #B11D19",
"9.	c #B11916",
"0.	c #A71212",
"a.	c #A01515",
"b.	c #921B1A",
"c.	c #7E3434",
"d.	c #513A39",
"e.	c #44403E",
"f.	c #4C3C3A",
"g.	c #593732",
"h.	c #723530",
"i.	c #822823",
"j.	c #831615",
"k.	c #881413",
"l.	c #901816",
"m.	c #921817",
"n.	c #8C1614",
"o.	c #821614",
"p.	c #731B19",
"q.	c #783636",
"r.	c #583737",
"s.	c #473D3F",
"t.	c #393734",
"u.	c #3C3530",
"v.	c #41332D",
"w.	c #462A25",
"x.	c #4C211E",
"y.	c #4B1715",
"z.	c #4D1513",
"A.	c #4E1514",
"B.	c #531E1B",
"C.	c #552925",
"D.	c #4D2D29",
"E.	c #4D3B39",
"F.	c #453F3D",
"G.	c #41403C",
"H.	c #44403C",
"I.	c #473E3C",
"J.	c #473D3B",
"K.	c #483E3C",
"L.	c #46403D",
"M.	c #453F3C",
"N.	c #403E40",
"O.	c #423F40",
"P.	c #44403F",
"Q.	c #463E3D",
"R.	c #483D3B",
"S.	c #493D3B",
"T.	c #4A3D3C",
"U.	c #493D3C",
"V.	c #473D3C",
"W.	c #463D3C",
"X.	c #433E3E",
"Y.	c #404044",
"Z.	c #3F3E40",
"`.	c #403F41",
" +	c #42403E",
".+	c #41413E",
"++	c #413F3F",
"@+	c #3F4041",
"#+	c #404043",
"$+	c #414045",
"%+	c #424140",
"&+	c #414044",
". . . . . . . . . . . . . . . . . . . . . . ",
". . . . . . . . . . . . . . . . . . . . . . ",
". . . . . . . . . . . . . . . . . . . . . + ",
". . . @ @ # # # # # # # # # # # # # $ % @ & ",
". . . * . . = + - ; - + > , > ' ) > * ! . + ",
"@ ~ { ] ~ @ @ # # # % # # # ^ ^ > @ # / ( # ",
"_ : < [ } | 1 # # # @ @ ) # 2 # # @ # 3 ! * ",
"4 5 6 7 8 9 0 a * b $ $ $ # # . . c d e f g ",
"h i j k l m n o p ] q * @ > r s t u v w x g ",
"@ y z A B C D E F G 0 H I J K L M N O P Q # ",
"# R S G T U V W X Y Z `  .9 ..+.@.#.$.%.&.*.",
"# # @ =.-.;.>.,.'.).!.~.{.].^./.(._.:.<.[.}.",
"# # # % =.|.1.2.3.4.5.6.7.8.9.0.a.b.c.d.s }.",
"# - # # $ e.f.g.h.i.j.k.l.m.n.o.p.q.r.s.@ # ",
"# - ) - % 1 t.u.v.w.x.y.z.A.B.C.D.E.F.@ # # ",
"# # # - * $ * *.G.H.I.p J.p K.L.M.s $ # # # ",
"# # # % # # # # ( # @ @ }.* @ # . # / c # ^ ",
"# r # $ - $ @ # # # # - ' # - c $ % # # # ^ ",
". . . . ; - . N.O.P.Q.R.S.T.U.K.V.W.X.. + Y.",
". . . % $ # . Z.`., b *. +q .+3 ! ++. @+#+$+",
". . . $ $ # = . @ , * * $ %+$ ; * * . . + &+",
". . . # # # # # # # # # # # # # # # * * > & "};
