/* XPM */
static const char * series_doc_import_xpm[] = {
"12 30 16 1",
" 	c None",
".	c #313431",
"+	c #100C00",
"@	c #FFC700",
"#	c #524500",
"$	c #BD9A00",
"%	c #8C6D00",
"&	c #FFCB00",
"*	c #8C6100",
"=	c #845D00",
"-	c #BD9200",
";	c #000000",
">	c #FFFFFF",
",	c #0024FF",
"'	c #5A3C00",
")	c #535353",
"            ",
"            ",
"            ",
"            ",
"            ",
"     .++    ",
"    .+@#+   ",
"   .+$@%+   ",
"   .+$@#+   ",
"  .+$@@%+   ",
"  .+$@@#+   ",
" .+$@@@%+   ",
" .+$@@@#+   ",
".+$&@@@*+   ",
".+$&@@@=+   ",
" .+-@@@*+   ",
" .+-@@@=+   ",
"  .+-@@*+   ",
"  .+-@@=+;;;",
"   .+-@*+>>;",
"   .+-@=+,>;",
"    .+@'+>>;",
"    ;.++,,>;",
"    ;>>>>>>;",
"    ;>,,,,>;",
"    ;>>>)));",
"    ;>,,)); ",
"    ;>>>);  ",
"    ;;;;;   ",
"            "};
