/* XPM */
static const char * icon_xpm[] = {
"11 11 3 1",
" 	c None",
".	c #CBCBCB",
"+	c #404040",
"+++++++++++",
"+..+...+..+",
"+++++++++++",
"+..+...+..+",
"+..+...+..+",
"+++++++++++",
"+..+...+..+",
"+..+...+..+",
"+++++++++++",
"+..+...+..+",
"+++++++++++"};
