/* XPM */
static char * iconLaser_xpm[] = {
"128 128 2 1",
" 	c None",
".	c #000000",
"                                                           ..........                                                           ",
"                                                           ..........                                                           ",
"                                                           ..........                                                           ",
"                                                           ..........                                                           ",
"                                                           ..........                                                           ",
"                                                           ..........                                                           ",
"                                                           ..........                                                           ",
"                                                           ..........                                                           ",
"                                                           ..........                                                           ",
"                                                           ..........                                                           ",
"                                                           ..........                                                           ",
"                                                           ..........                                                           ",
"                                                           ..........                                                           ",
"                                                           ..........                                                           ",
"                                                           ..........                                                           ",
"                                                           ..........                                                           ",
"                                                           ..........                                                           ",
"                                                           ..........                                                           ",
"                                                           ..........                                                           ",
"                                                           ..........                                                           ",
"                                                           ..........                                                           ",
"                                                           ..........                                                           ",
"                                                           ..........                                                           ",
"                                                           ..........                                                           ",
"                                                           ..........                                                           ",
"                                                           ..........                                                           ",
"                                                           ..........                                                           ",
"                                                           ..........                                                           ",
"                                                           ..........                                                           ",
"                                                           ..........                                                           ",
"                                                           ..........                                                           ",
"       ..                                                  ..........                                                           ",
"      ....                                                 ..........                                                           ",
"     .......                                               ..........                                                           ",
"     ........                                              ..........                                                           ",
"      .........                                            ..........                                                           ",
"       .........                                           ..........                                                           ",
"         .........                                         ..........                                                           ",
"          .........                                        ..........                                                           ",
"            .........                                      ..........                                                           ",
"             ..........                                    ..........                                                           ",
"               .........                                   ..........                                                           ",
"                ..........                                 ..........                                                           ",
"                  .........                                ..........                                                           ",
"                   ..........                              ..........                                                           ",
"                     .........                             ..........                                                           ",
"                       .........                           ..........                                                           ",
"                        .........                          ..........                                                           ",
"                          .........                        ..........                                                           ",
"                           .........                       ..........                                                           ",
"                             .........                     ..........                                                           ",
"                              .........                    ..........                                                           ",
"                                .........                  ..........                                                           ",
"                                 .........                 ..........                                                           ",
"                                   .........               ..........                                                           ",
"                                    .........              ..........                                                           ",
"                                      .........          ..............                                                         ",
"                                       .........       ..................                                                       ",
"                                         ......       ....................                                                      ",
"                                          ....       ......................                                                     ",
"                                            ..      ........................                                                    ",
"                                                    ........................                                                    ",
"                                                   ..........................                                                   ",
"                                                  ............................                                                  ",
"                                                  ............................                                                  ",
"                                                  ............................                                                  ",
"                                                 ..............................                          ..................     ",
"                                                 ..............................    ........................................     ",
"                                                 ..............................    ........................................     ",
"                                                 ..............................    ........................................     ",
"                                                 ..............................    .........................................    ",
"                                                 ..............................    .................................            ",
"                                                 ..............................     .....                                       ",
"                                                  ............................                                                  ",
"                                                  ............................                                                  ",
"                                                  ............................                                                  ",
"                                                   ..........................                                                   ",
"                                             .      ........................                                                    ",
"                                           ...      ........................                                                    ",
"                                         ......      ......................                                                     ",
"                                       ........       ....................                                                      ",
"                                     ...........       ..................     ..                                                ",
"                                   ...........           ..............      ....                                               ",
"                                  ..........               ..........       .......                                             ",
"                                 .........                                  ........                                            ",
"                                 ........                                 .  ........                                           ",
"                                  .....                                 ...   ........                                          ",
"                                  ...                                 ......   ........                                         ",
"                                                        ...            .....     .......                                        ",
"                                                        .....          ......     .......                                       ",
"                                                        .....           .....      .......                                      ",
"                                                        .....           ......      .......                                     ",
"                                                       ......            .....       .......                                    ",
"                                                       .....             ......       .......                                   ",
"                                                       .....              .....        .......                                  ",
"                                                       .....              ......        .......                                 ",
"                                                      ......               .....         .......                                ",
"                                                      .....                ......         ........                              ",
"                                                      .....                 .....          ........                             ",
"                                                      .....                 ......          ........                            ",
"                                                     ......                  .....           ........                           ",
"                                                     .....                   ......            .......                          ",
"                                                     .....                    .....             .......                         ",
"                                                     .....                    ......             .......                        ",
"                                                    ......                     .....              .......                       ",
"                                                    .....                      ......              .......                      ",
"                                                    .....                       .....               .......                     ",
"                                                    .....                       ......               .......                    ",
"                                                   ......                        .....                .......                   ",
"                                                   .....                         ......                .......                  ",
"                                                   .....                          .....                 .......                 ",
"                                                   .....                          ......                 ........               ",
"                                                  ......                           .....                  ........              ",
"                                                  .....                            ......                  ........             ",
"                                                  .....                             ......                  ........            ",
"                                                  .....                             ......                   ........           ",
"                                                 ......                              ......                    .....            ",
"                                                 .....                               ......                     ...             ",
"                                                 .....                                ......                     .              ",
"                                                 .....                                ......                                    ",
"                                                ......                                 .....                                    ",
"                                                .....                                  ...                                      ",
"                                                    .                                                                           ",
"                                                                                                                                ",
"                                                                                                                                ",
"                                                                                                                                ",
"                                                                                                                                ",
"                                                                                                                                "};
