<?xml version="1.0" encoding="UTF-8" standalone="no"?>
<svg
   xmlns:dc="http://purl.org/dc/elements/1.1/"
   xmlns:cc="http://creativecommons.org/ns#"
   xmlns:rdf="http://www.w3.org/1999/02/22-rdf-syntax-ns#"
   xmlns:svg="http://www.w3.org/2000/svg"
   xmlns="http://www.w3.org/2000/svg"
   xmlns:sodipodi="http://sodipodi.sourceforge.net/DTD/sodipodi-0.dtd"
   xmlns:inkscape="http://www.inkscape.org/namespaces/inkscape"
   xml:space="preserve"
   enable-background="new 0 0 1792 1792"
   viewBox="0 0 1792 1792"
   height="128"
   width="128"
   y="0px"
   x="0px"
   id="Layer_1"
   version="1.1"
   inkscape:version="0.91 r13725"
   sodipodi:docname="lasercontrol.svg"><sodipodi:namedview
     pagecolor="#ffffff"
     bordercolor="#666666"
     borderopacity="1"
     objecttolerance="10"
     gridtolerance="10"
     guidetolerance="10"
     inkscape:pageopacity="0"
     inkscape:pageshadow="2"
     inkscape:window-width="1549"
     inkscape:window-height="1176"
     id="namedview7"
     showgrid="false"
     inkscape:zoom="0.13169643"
     inkscape:cx="-261.4391"
     inkscape:cy="1848.2955"
     inkscape:window-x="51"
     inkscape:window-y="24"
     inkscape:window-maximized="1"
     inkscape:current-layer="Layer_1"
     showguides="false" /><metadata
     id="metadata11"><rdf:RDF><cc:Work
         rdf:about=""><dc:format>image/svg+xml</dc:format><dc:type
           rdf:resource="http://purl.org/dc/dcmitype/StillImage" /><dc:title></dc:title></cc:Work></rdf:RDF></metadata><defs
     id="defs9" /><path
     style="fill:#00ff00;fill-opacity:1"
     d="m 1546.475,971.52948 c -2.5396,17.0678 -11.6742,28.4607 -20.2992,25.3173 -8.625,-3.1434 -110.6423,-28.9171 -226.7051,-57.2748 -75.7963,-20.9626 -216.6504,-49.80976 -206.3877,-82.50378 11.7207,-32.52789 54.1509,-25.24622 225.1105,16.68961 113.1343,27.75147 211.8189,54.12067 219.2989,58.59817 7.48,4.4775 11.5223,22.1055 8.9826,39.1735 z M 1311.2534,589.61494 c -228.186,113.36811 -232.9991,115.05479 -246.1737,86.26771 -12.7024,-27.75541 -0.6477,-35.86131 220.4119,-148.21061 189.7548,-96.4393 236.1344,-115.2543 245.9685,-99.7835 6.6656,10.4863 12.2117,25.1481 12.3245,32.5818 0.1072,7.4337 -104.5262,65.5488 -232.5312,129.1446 z m -29.8664,-221.2506 c -122.7177,131.2618 -228.1348,244.1059 -234.2601,250.7646 -11.6961,12.7145 -52.46764,-13.1762 -52.46764,-33.3179 0,-9.1074 137.50324,-159.4617 441.53964,-482.8061 21.4778,-22.841802 23.3294,-22.782902 45.3515,1.4437 22.0667,24.2753 14.2816,34.5401 -200.1634,263.9157 z m -214.2461,824.18936 c -31.1499,11.9004 -42.0531,1.1165 -85.49364,-84.5576 -18.058,-45.0662 -41.3136,-71.738 -9.7489,-90.443 26.5485,-11.8182 33.72344,-5.7277 72.59894,61.6266 49.1763,85.2012 52.5232,101.9589 22.6436,113.374 z M 1004.708,893.81718 c -43.10534,62.8701 -110.93438,96.319 -180.79161,89.1546 -62.4626,-6.4061 -133.55682,-63.996 -157.5127,-102.49139 -19.63107,-31.54571 -20.2332,-26.6869 -382.75741,-26.6869 l -290.249663,0 0,-66.69492 0,-66.69491 290.249663,0 c 372.01574,0 372.6179,1.06221 382.75741,-26.68691 15.56116,-42.58671 95.0501,-96.08531 157.5127,-102.49141 112.85747,-11.5744 210.93781,79.50131 210.93781,195.87323 0,43.15328 -9.4145,76.48097 -30.1462,106.71861 z M 838.34579,533.65784 c -56.04137,-3.7966 -50.24585,-188.9999 -50.24585,-268.7299 -1.13119,-101.1803 -15.5521,-256.072992 36.06495,-267.520292 53.23243,-2.721504 42.08403,128.847192 43.71773,259.003892 0.2628,228.0256 20.6447,253.6837 -29.53683,277.2463 z M 552.4167,1310.6537 c -95.54787,144.8947 -179.09448,263.4449 -185.65914,263.4449 -6.56468,0 -26.64121,-19.9216 -35.33391,-30.3493 -12.7512,-15.2962 25.79193,-59.2139 167.7782,-274.8611 161.38614,-245.1114 178.12674,-265.9629 201.74064,-251.281 14.1629,8.8057 25.6263,19.0684 25.4742,22.806 -0.1522,3.7376 -78.4521,125.3458 -173.99999,270.2405 z"
     id="path4225"
     inkscape:connector-curvature="0"
     sodipodi:nodetypes="ssccssssssscssssssssccsssssscccssssscccccsssssss" /><circle
     style="opacity:1;fill:none;fill-opacity:1;stroke:#00ff00;stroke-width:40;stroke-miterlimit:4;stroke-dasharray:none;stroke-opacity:1"
     id="path4231"
     cx="1680"
     cy="1581.1672"
     r="80" /><path
     style="fill:none;fill-rule:evenodd;stroke:#00ff00;stroke-width:50;stroke-linecap:round;stroke-linejoin:miter;stroke-miterlimit:4;stroke-dasharray:none;stroke-opacity:1"
     d="m 1680,1665.7843 0,101.0786"
     id="path4233"
     inkscape:connector-curvature="0" /><path
     style="fill:none;fill-rule:evenodd;stroke:#00ff00;stroke-width:50;stroke-linecap:round;stroke-linejoin:miter;stroke-miterlimit:4;stroke-dasharray:none;stroke-opacity:1"
     d="m 1680,1145.696 0,342.684"
     id="path4233-5"
     inkscape:connector-curvature="0" /><circle
     style="opacity:1;fill:none;fill-opacity:1;stroke:#00ff00;stroke-width:40;stroke-miterlimit:4;stroke-dasharray:none;stroke-opacity:1"
     id="path4231-3"
     cx="1460"
     cy="1311.1672"
     r="80" /><path
     style="fill:none;fill-rule:evenodd;stroke:#00ff00;stroke-width:50;stroke-linecap:round;stroke-linejoin:miter;stroke-miterlimit:4;stroke-dasharray:none;stroke-opacity:1"
     d="m 1460,1404.0504 0,362.8125"
     id="path4233-56"
     inkscape:connector-curvature="0" /><path
     style="fill:none;fill-rule:evenodd;stroke:#00ff00;stroke-width:50;stroke-linecap:round;stroke-linejoin:miter;stroke-miterlimit:4;stroke-dasharray:none;stroke-opacity:1"
     d="m 1460,1145.696 0,78.0454"
     id="path4233-5-2"
     inkscape:connector-curvature="0" /><circle
     style="opacity:1;fill:none;fill-opacity:1;stroke:#00ff00;stroke-width:40;stroke-miterlimit:4;stroke-dasharray:none;stroke-opacity:1"
     id="path4231-9"
     cx="1240"
     cy="1457.1647"
     r="80" /><path
     style="fill:none;fill-rule:evenodd;stroke:#00ff00;stroke-width:50;stroke-linecap:round;stroke-linejoin:miter;stroke-miterlimit:4;stroke-dasharray:none;stroke-opacity:1"
     d="m 1239.9993,1550.4277 0,216.4352"
     id="path4233-1"
     inkscape:connector-curvature="0" /><path
     style="fill:none;fill-rule:evenodd;stroke:#00ff00;stroke-width:50;stroke-linecap:round;stroke-linejoin:miter;stroke-miterlimit:4;stroke-dasharray:none;stroke-opacity:1"
     d="m 1239.9993,1145.696 0,211.0523"
     id="path4233-5-27"
     inkscape:connector-curvature="0" /></svg>
