/* XPM */
static const char * btnNew_xpm[] = {
"13 16 3 1",
" 	c None",
".	c #000000",
"+	c #FFFFFF",
" .........   ",
".++++++++... ",
".++++++++.+..",
".++++++++.++.",
".++++++++....",
".+++++++++++.",
".+++++++++++.",
".+++++++++++.",
".+++++++++++.",
".+++++++++++.",
".+++++++++++.",
".+++++++++++.",
".+++++++++++.",
".+++++++++++.",
".+++++++++++.",
" ........... "};
