/* XPM */
static const char * mitkLiveWireTool2D_xpm[] = {
"24 24 72 1",
" 	c None",
".	c #179FBF",
"+	c #01AAD2",
"@	c #00AAD3",
"#	c #0BA4CA",
"$	c #14A0C1",
"%	c #11A2C4",
"&	c #06A7CE",
"*	c #0AA5CB",
"=	c #2895B1",
"-	c #229AB5",
";	c #02A9D1",
">	c #0DA3C8",
",	c #1F99B7",
"'	c #2598B5",
")	c #0CA4C9",
"!	c #13A1C2",
"~	c #03A8D0",
"{	c #2795B1",
"]	c #179EBF",
"^	c #04A9D0",
"/	c #1C9BBA",
"(	c #2497B3",
"_	c #1E9AB9",
":	c #209AB9",
"<	c #13A0C3",
"[	c #03A9D1",
"}	c #189DBE",
"|	c #07A7CD",
"1	c #1A9CBC",
"2	c #1E9BBA",
"3	c #2699B4",
"4	c #2498B4",
"5	c #229AB6",
"6	c #0EA3C8",
"7	c #07A7CE",
"8	c #189EBE",
"9	c #1C9CBA",
"0	c #04A7CF",
"a	c #11A1C5",
"b	c #07A6CD",
"c	c #09A6CC",
"d	c #2A94AD",
"e	c #1C9CBB",
"f	c #1E9BB8",
"g	c #259AB4",
"h	c #05A7CE",
"i	c #2E92A9",
"j	c #0EA2C6",
"k	c #3A8FA2",
"l	c #1B9CBC",
"m	c #1D9BB9",
"n	c #169FC1",
"o	c #00A9D2",
"p	c #1D9BBA",
"q	c #2B94AC",
"r	c #16A0C1",
"s	c #10A2C6",
"t	c #209BB9",
"u	c #1D9CBB",
"v	c #179FC0",
"w	c #000000",
"x	c #219AB4",
"y	c #FFFFFF",
"z	c #F3F6F1",
"A	c #189EC0",
"B	c #00AAD2",
"C	c #16A7BC",
"D	c #17A0BF",
"E	c #2299B7",
"F	c #1D9BB8",
"G	c #1A9CBD",
"           .+@#$%&@*=   ",
"         -;>,     ');   ",
"        !~{         &)  ",
"       ]^           /@  ",
"      (@_           :@  ",
"      <[            }|  ",
"      @1            +2  ",
"      @345         67   ",
"      +@890       a^    ",
"      }bcdef    gh|i    ",
"       jk&@l(mn^op      ",
"       qr+@@@@st        ",
"         u&             ",
"         0vwwwwwwwww    ",
"         @xwwwyyzyzww   ",
"        ABwwwwzzzzzzww  ",
"        oCwwwwwwwwzzzw  ",
"       D@        wwzzw  ",
"    c@@@          wzzw  ",
"    EFG          wwzzw  ",
"          wwwwwwwwzzzw  ",
"          wwwwzzzzzyww  ",
"          wwwwyyyyyww   ",
"          wwwwwwwwww    "};
