/* XPM */
static const char * mitkFastMarchingTool_xpm[] = {
"48 48 2 1",
" 	c None",
".	c #000000",
"                                                ",
"                                                ",
"                                                ",
"                                                ",
"                                                ",
"                                                ",
"                                                ",
"                                                ",
"                                                ",
"                                                ",
"                                                ",
"                                                ",
"                                                ",
"                    ......                      ",
"                  ..........                    ",
"                  ...........                   ",
"                  ...    .....                  ",
"                  .        ...                  ",
"                           ...                  ",
"                           ...                  ",
"                           ...                  ",
"                          ...                   ",
"                         ....                   ",
"                        ....                    ",
"                      .....                     ",
"                      ....                      ",
"                      ...                       ",
"                      ...                       ",
"                      ...                       ",
"                                                ",
"                                                ",
"                                                ",
"                      ...                       ",
"                      ...                       ",
"                      ...                       ",
"                                                ",
"                                                ",
"                                                ",
"                                                ",
"                                                ",
"                                                ",
"                                                ",
"                                                ",
"                                                ",
"                                                ",
"                                                ",
"                                                ",
"                                                "};
