/* XPM */
static const char * mitkLiveWireTool2D_xpm[] = {
"24 24 9 1",
" 	c None",
".	c #000000",
"+	c #079E18",
"@	c #0BE022",
"#	c #079F18",
"$	c #F9F9F9",
"%	c #E00F0B",
"&	c #E0D80B",
"*	c #484B3F",
"                        ",
"                        ",
"                        ",
"                        ",
"                        ",
"                        ",
"                        ",
"                        ",
"                        ",
"                  ..    ",
"                 +...   ",
"                @#.$..  ",
"       %%%   @@@  .$$.. ",
"       %&%@@@     .$..  ",
"      &%%%        ....  ",
"     &            .  .. ",
"    &                *..",
"    &                 *.",
"   %%%                 *",
"   %&%                  ",
"   %%%                  ",
"                        ",
"                        ",
"                        "};
