/* XPM */
static const char * mitkFillRegionTool_xpm[] = {
/* columns rows colors chars-per-pixel */
"24 24 113 2",
"   c #623F49",
".  c #71424F",
"X  c #7E4957",
"o  c #87213B",
"O  c #8A213B",
"+  c #8A223B",
"@  c #8E223D",
"#  c #91213F",
"$  c #91223E",
"%  c #94223E",
"&  c #982240",
"*  c #9B2341",
"=  c #A32343",
"-  c #A72444",
";  c #A92445",
":  c #AE2446",
">  c #B7274B",
",  c #BE264B",
"<  c #BF264B",
"1  c #B32849",
"2  c #BD294D",
"3  c #B13956",
"4  c #B23956",
"5  c #B03B57",
"6  c #814252",
"7  c #974055",
"8  c #95495D",
"9  c #A7475F",
"0  c #AC425C",
"q  c #AA445D",
"w  c #A9465D",
"e  c #A8465E",
"r  c #A9465E",
"t  c #A8475E",
"y  c #A8475F",
"u  c #AA475E",
"i  c #A8485F",
"p  c #A8495F",
"a  c #9B4C60",
"s  c #9E5668",
"d  c #9E5768",
"f  c #9E5769",
"g  c #975F6D",
"h  c #9A5968",
"j  c #9C5D6A",
"k  c #9F5D6D",
"l  c #9D5E6D",
"z  c #A74860",
"x  c #A74960",
"c  c #A64B62",
"v  c #A54E63",
"b  c #A64F64",
"n  c #A25063",
"m  c #A25064",
"M  c #A05264",
"N  c #A05265",
"B  c #A25265",
"V  c #A25266",
"C  c #A45065",
"Z  c #A05769",
"A  c #AA5469",
"S  c #A8566B",
"D  c #A8576B",
"F  c #A65A6C",
"G  c #9D606D",
"H  c #956772",
"J  c #976B76",
"K  c #9D6975",
"L  c #9C6F79",
"P  c #837A7C",
"I  c #837B7D",
"U  c #867C7F",
"Y  c #9C707A",
"T  c #967C83",
"R  c #808080",
"E  c gray51",
"W  c #838383",
"Q  c #858485",
"!  c #8C8A8B",
"~  c #988F91",
"^  c #939393",
"/  c #969294",
"(  c gray58",
")  c #959595",
"_  c gray59",
"`  c #979797",
"'  c #999797",
"]  c #989898",
"[  c gray60",
"{  c #9A9A9A",
"}  c #9B9B9B",
"|  c #9D9B9C",
" . c gray61",
".. c #9D9D9D",
"X. c #9F9F9F",
"o. c #A3838B",
"O. c #A08E93",
"+. c #A19497",
"@. c #A39A9C",
"#. c #A39B9D",
"$. c #A49C9D",
"%. c #A0A0A0",
"&. c gray64",
"*. c #A4A4A4",
"=. c #A5A5A5",
"-. c #A6A4A5",
";. c gray65",
":. c gray67",
">. c #ACACAC",
",. c #B1B1B1",
"<. c #B2B2B2",
"1. c gray70",
"2. c None",
/* pixels */
"2.2.2.2.2.2.2.2.2.2.2.2.2.2.2.2.2.  2.2.2.2.2.2.",
"2.2.2.2.2.2.2.2.2.2.2.2.2.2.2.2./ J = 2.2.2.2.2.",
"2.2.2.2.2.2.2.2.2.2.2.2.2.2.2.Q 1.a < , % 2.2.2.",
"2.2.2.2.2.2.2.2.2.2.2.2.2.2.2.<.+.1 < < < * 2.2.",
"2.2.2.2.2.2.2.2.2.2.2.2.2.2.! <.8 < < < < < 2.2.",
"2.2.2.2.2.2.2.2.2.2.2.2.2.2.| H , < < < < : 2.2.",
"2.2.2.2.2.2.2.2.2.2.2.2.2.2.. > < < < < < o 2.2.",
"2.2.2.2.2.2.2.2.2.2.2.2.2.2.2.2.; < < < - 2.2.2.",
"2.2.2.2.2.2.2.2.2.2.2.2.2.# @ 2.2.O & $ 2.2.2.2.",
"2.2.2.2.2.2.2.2.2.2.2.2.2.2.2.2.2.2.2.2.2.2.2.2.",
"2.2.2.2.2.2.2.2.2.2.2.2.2.2.2.2.2.2.2.2.2.2.2.2.",
"2.2.2.2.2.2.2.2.2.2.2.2.2.2.+ 2.2.2.2.2.2.2.2.2.",
"2.z 3 N 3 3 n 3 3 V 3 5 | g < 6 R I 3 3 B 4 4 2.",
"2.3 < x < < q < < p < 2 -.O.7 X R P < < e < < 2.",
"2.M i j i i d i i G b C ' %.{ E W U i i h y y 2.",
"2.5 2 c 2 2 u 2 2 Y ] ] =.,.*.:.,.@.2 2 9 2 2 2.",
"2.3 < x < < q < < L [ ] ;.1.=.>.1.#.< < e < < 2.",
"2.v 0 s 0 0 Z A A T ) ) } &. . .%.~ A A k 0 0 2.",
"2.3 < x < < S 1.1.X.1.,.;.1.=._ [ ^ 1.1.o.< < 2.",
"2.3 < x < < S 1.1.X.1.,.;.1.=._ [ ^ 1.1.o.< < 2.",
"2.m w f w w K %.%.^ ( ^ { %.{ { ..~ F F l r r 2.",
"2.4 < x < < D 1.1.` [ ] =.1.=.>.1.$.< < t < < 2.",
"2.4 < x < < D 1.1.` [ ] =.1.=.>.1.$.< < t < < 2.",
"2.2.2.2.2.2.2.2.2.2.2.2.2.2.2.2.2.2.2.2.2.2.2.2."
};
