/* XPM */
static const char * mitkKeepNConnectedRegionsTool3D_xpm[] = {
"21 21 7 1",
" 	c None",
".	c #000000",
"+	c #237B23",
"@	c #8ACA7D",
"#	c #3D993A",
"$	c #E8F150",
"%	c #919829",
".....................",
".+++++++++ +++++++++.",
".+@@@#@@@+ +@@@#@@@+.",
".+@@@#@@@+ +@@@#@@@+.",
".+@@@#@@@+ +@@@#@@@+.",
".+#######+ +#######+.",
".+@@@#@@@+ +@@@#@@@+.",
".+@@@#@@@+ +@@@#@@@+.",
".+@@@#@@@+ +@@@#@@@+.",
".+++++++++ +++++++++.",
".                   .",
".$$$$$$$$$ +++++++++.",
".$%%%$%%%$ +@@@#@@@+.",
".$%%%$%%%$ +@@@#@@@+.",
".$%%%$%%%$ +@@@#@@@+.",
".$$$$$$$$$ +#######+.",
".$%%%$%%%$ +@@@#@@@+.",
".$%%%$%%%$ +@@@#@@@+.",
".$%%%$%%%$ +@@@#@@@+.",
".$$$$$$$$$ +++++++++.",
"....................."};
