/* XPM */
static const char * mitkBinaryThresholdTool_xpm[] = {
"20 20 5 1",
" 	c None",
".	c #2E3436",
"+	c #EEEEEC",
"@	c #D3D7CF",
"#	c #555753",
"                    ",
"                    ",
" .................. ",
" .++++++++++++++++. ",
" .+@@@@@.@@@@@@@@+. ",
" .+@@#@@@@@@@@@@@+. ",
" .+@@##@.@@@@@@@@+. ",
" .+@###@#@@@@@@@@+. ",
" .+@####.@#@@@@@@+. ",
" .+######@#@@@#@@+. ",
" .+#####.####@#@@+. ",
" .+##############+. ",
" .++++++.+++++++++. ",
" .................. ",
"                    ",
"        .           ",
"        .           ",
"       ...          ",
"      .....         ",
"      .   .         "};
