/* XPM */
static const char * mitkCreateSurfaceTool_xpm[] = {
"18 18 88 1",
" 	c None",
".	c #202020",
"+	c #232323",
"@	c #393939",
"#	c #454545",
"$	c #E2E2E2",
"%	c #F2F2F2",
"&	c #F1F1F1",
"*	c #A5A5A5",
"=	c #515151",
"-	c #4E4E4E",
";	c #C6C6C6",
">	c #FDFDFD",
",	c #FCFCFC",
"'	c #FBFBFB",
")	c #F9F9F9",
"!	c #F0F0F0",
"~	c #868686",
"{	c #4B4B4B",
"]	c #FAFAFA",
"^	c #F6F6F6",
"/	c #E8E8E8",
"(	c #E1E1E1",
"_	c #DEDEDE",
":	c #C9C9C9",
"<	c #6F6F6F",
"[	c #000000",
"}	c #353535",
"|	c #BFBFBF",
"1	c #EFEFEF",
"2	c #E5E5E5",
"3	c #D6D6D6",
"4	c #D8D8D8",
"5	c #DBDBDB",
"6	c #B4B4B4",
"7	c #7C7C7C",
"8	c #474747",
"9	c #EAEAEA",
"0	c #E7E7E7",
"a	c #E4E4E4",
"b	c #CECECE",
"c	c #B6B6B6",
"d	c #C5C5C5",
"e	c #B3B3B3",
"f	c #A3A3A3",
"g	c #1C1C1C",
"h	c #D3D3D3",
"i	c #F3F3F3",
"j	c #DFDFDF",
"k	c #B1B1B1",
"l	c #C2C2C2",
"m	c #898989",
"n	c #212121",
"o	c #E9E9E9",
"p	c #F7F7F7",
"q	c #D1D1D1",
"r	c #BABABA",
"s	c #E0E0E0",
"t	c #8F8F8F",
"u	c #E6E6E6",
"v	c #EBEBEB",
"w	c #BCBCBC",
"x	c #979797",
"y	c #F8F8F8",
"z	c #5E5E5E",
"A	c #464646",
"B	c #D7D7D7",
"C	c #BBBBBB",
"D	c #D2D2D2",
"E	c #CACACA",
"F	c #040404",
"G	c #7E7E7E",
"H	c #DDDDDD",
"I	c #B8B8B8",
"J	c #2C2C2C",
"K	c #8C8C8C",
"L	c #CDCDCD",
"M	c #C3C3C3",
"N	c #F4F4F4",
"O	c #D9D9D9",
"P	c #878787",
"Q	c #ECECEC",
"R	c #C4C4C4",
"S	c #8E8E8E",
"T	c #686868",
"U	c #070707",
"V	c #030303",
"W	c #0D0D0D",
"                  ",
"       .++.       ",
"     @#$%&*=      ",
"    -;%>,')!~     ",
"   {;]'%^/(_:<[   ",
"  }|]^&12(34567[  ",
"  8^,9&0abc|def[  ",
" gh>%ij/;kkkklbm[ ",
" no'p1jqkkkkkrst[ ",
" .u)]v5wkkkkklux[ ",
" gx^^ybkkkkkk2az  ",
"  A19vBCkkkkD9EF  ",
"   GsEHbkkIBv5J   ",
"    KLw6eMaNOg    ",
"    [P*EBQjRJ     ",
"     [[mS*TU      ",
"       [VW        ",
"                  "};
