/* XPM */
static const char * mitkRegionGrowingTool_xpm[] = {
"48 48 31 1",
" 	c None",
".	c #4D4D4D",
"+	c #2E7282",
"@	c #23839A",
"#	c #3E5E66",
"$	c #3F5E65",
"%	c #00B2DE",
"&	c #00BAEA",
"*	c #1195B5",
"=	c #1E869F",
"-	c #1298BA",
";	c #326D7B",
">	c #0F99BA",
",	c #02AAD3",
"'	c #02ABD4",
")	c #1294B4",
"!	c #0C9CBE",
"~	c #00AED9",
"{	c #00AFDA",
"]	c #0F97B8",
"^	c #0D9BBD",
"/	c #00ADD7",
"(	c #00AED8",
"_	c #1096B7",
":	c #0A9FC3",
"<	c #00B3DF",
"[	c #0D9ABD",
"}	c #238197",
"|	c #1A8CA8",
"1	c #1A8DA9",
"2	c #257D93",
"              .                                 ",
"             ...                                ",
"               ..     ..       ...              ",
"                ..    ..     ...                ",
"                 ..   ..    ...                 ",
"                  ..  .    ..                   ",
"                                                ",
"                                                ",
"                      +@#                       ",
"              ...... $%&*  .....                ",
"                      =-;                       ",
"                                                ",
"                  ..       .                    ",
"                 ..   ..   ..                   ",
"                ..    ..    ..                  ",
"               ..     ..     ..                 ",
"              ..              ..                ",
"              .                .                ",
"                                                ",
"                                                ",
"                     >,')                       ",
"                     !~{]                       ",
"                     ^/(_                       ",
"                     ^/(_                       ",
"                     ^/(_                       ",
"                     ^/(_                       ",
"                     ^/(_                       ",
"                     ^/(_                       ",
"                     ^/(_                       ",
"                     ^/(_                       ",
"                     ^/(_                       ",
"                     ^/(_                       ",
"                     ^/(_                       ",
"                     ^/(_                       ",
"                     ^/(_                       ",
"                     ^/(_                       ",
"                     ^/(_                       ",
"                     ^/(_                       ",
"                     ^/(_                       ",
"                     ^/(_                       ",
"                     ^/(_                       ",
"                     ^/(_                       ",
"                     ^/(_                       ",
"                     ^/(_                       ",
"                     ^/(_                       ",
"                     ^/(_                       ",
"                     :%<[                       ",
"                     }|12                       "};
