/* XPM */
static const char * mitkAddContourTool_xpm[] = {
/* columns rows colors chars-per-pixel */
"24 24 74 1",
"  c #1F99B7",
". c #179EBF",
"X c #179FBF",
"o c #1D9BB8",
"O c #1D9BB9",
"+ c #1E9BB8",
"@ c #1E9AB9",
"# c #1C9BBA",
"$ c #1D9BBA",
"% c #1E9BBA",
"& c #1F9BBA",
"* c #1A9DBB",
"= c #1C9CBA",
"- c #1C9CBB",
"; c #1D9CBB",
": c #1A9CBC",
"> c #1B9CBC",
", c #1A9CBD",
"< c #189DBE",
"1 c #189EBE",
"2 c #1A9EBE",
"3 c #3A8FA2",
"4 c #2E92A9",
"5 c #2B94AC",
"6 c #2A94AD",
"7 c #2795B1",
"8 c #2497B3",
"9 c #2895B1",
"0 c #2896B0",
"q c #2897B2",
"w c #219AB5",
"e c #229AB5",
"r c #2299B7",
"t c #229AB6",
"y c #2498B4",
"u c #2598B5",
"i c #2699B4",
"p c #259AB4",
"a c #209AB9",
"s c #209BB9",
"d c #17A0BF",
"f c #179FC0",
"g c #169FC1",
"h c #189EC0",
"j c #0EA2C6",
"k c #0EA3C6",
"l c #0FA4C6",
"z c #07A6CD",
"x c #07A7CD",
"c c #05A7CE",
"v c #04A7CF",
"b c #06A7CE",
"n c #07A7CE",
"m c #0DA3C8",
"M c #0EA3C8",
"N c #0BA4CA",
"B c #0AA5CB",
"V c #0CA4C9",
"C c #09A6CC",
"Z c #13A1C2",
"A c #13A0C3",
"S c #14A0C1",
"D c #16A0C1",
"F c #11A1C5",
"G c #11A2C4",
"H c #10A2C6",
"J c #03A8D0",
"K c #02A9D1",
"L c #03A9D1",
"P c #00A9D2",
"I c #01AAD2",
"U c #00AAD3",
"Y c #04A9D0",
"T c None",
/* pixels */
"TTTTTTTTTTTTTTTTTTTTTTTT",
"TTTTTTTTTTTTTq*.2-0TTTTT",
"TTTTTTTTTTTXIUNSGbUB9TTT",
"TTTTTTTTTeKm TTTTTuVKTTT",
"TTTTTTTTZJ7TTTTTTTTTbVTT",
"TTTTTTT.YTTTTTTTTTTT#UTT",
"TTTTTT8U@TTTTTTTTTTTaUTT",
"TTTTTTALTTTTTTTTTTTT<xTT",
"TTTTTTU:TTTTTTTTTTTTI%TT",
"TTTTTTUiytTTTTTTTTTMnTTT",
"TTTTTTIU1=vTTTTTTTFYTTTT",
"TTTTTT<zC6-+TTTTpcx4TTTT",
"TTTTTTTj3bU>8OgYP$TTTTTT",
"TTTTTTT5DIUUUUHsTTTTTTTT",
"TTTTTTTTT;bTTTTTTTTTTTTT",
"TTTTTTTTTvfTTTTTTTTTTTTT",
"TTTTTTTTTUwTTTTTTTTTTTTT",
"TTTTTTTThUTTTTTTTTTTTTTT",
"TTTTTTTTPlTTTTTTTTTTTTTT",
"TTTTTTTdUyTTTTTTTTTTTTTT",
"TTTTCUUUkTTTTTTTTTTTTTTT",
"TTTTro,&TTTTTTTTTTTTTTTT",
"TTTTTTTTTTTTTTTTTTTTTTTT",
"TTTTTTTTTTTTTTTTTTTTTTTT"
};
