<?xml version="1.0" encoding="UTF-8" standalone="no"?>
<svg
   xmlns:dc="http://purl.org/dc/elements/1.1/"
   xmlns:cc="http://creativecommons.org/ns#"
   xmlns:rdf="http://www.w3.org/1999/02/22-rdf-syntax-ns#"
   xmlns:svg="http://www.w3.org/2000/svg"
   xmlns="http://www.w3.org/2000/svg"
   xmlns:sodipodi="http://sodipodi.sourceforge.net/DTD/sodipodi-0.dtd"
   xmlns:inkscape="http://www.inkscape.org/namespaces/inkscape"
   version="1.1"
   id="svg2"
   viewBox="0 0 1792 1792"
   height="128"
   width="128"
   inkscape:version="0.91 r13725"
   sodipodi:docname="logging.svg">
  <sodipodi:namedview
     pagecolor="#ffffff"
     bordercolor="#666666"
     borderopacity="1"
     objecttolerance="10"
     gridtolerance="10"
     guidetolerance="10"
     inkscape:pageopacity="0"
     inkscape:pageshadow="2"
     inkscape:window-width="2560"
     inkscape:window-height="1377"
     id="namedview10"
     showgrid="false"
     inkscape:zoom="0.37249375"
     inkscape:cx="-481.81716"
     inkscape:cy="791.67157"
     inkscape:window-x="-8"
     inkscape:window-y="-8"
     inkscape:window-maximized="1"
     inkscape:current-layer="svg2" />
  <metadata
     id="metadata10">
    <rdf:RDF>
      <cc:Work
         rdf:about="">
        <dc:format>image/svg+xml</dc:format>
        <dc:type
           rdf:resource="http://purl.org/dc/dcmitype/StillImage" />
        <dc:title />
      </cc:Work>
    </rdf:RDF>
  </metadata>
  <defs
     id="defs8" />
  <path
     id="path4"
     d="m 1792,1312 0,192 c 0,8.6667 -3.1667,16.1667 -9.5,22.5 -6.3333,6.3333 -13.8333,9.5 -22.5,9.5 l -1216,0 c -8.66667,0 -16.16667,-3.1667 -22.5,-9.5 -6.33333,-6.3333 -9.5,-13.8333 -9.5,-22.5 l 0,-192 c 0,-9.3333 3,-17 9,-23 6,-6 13.66667,-9 23,-9 l 1216,0 c 8.6667,0 16.1667,3.1667 22.5,9.5 6.3333,6.3333 9.5,13.8333 9.5,22.5 z m 0,-512 0,192 c 0,8.6667 -3.1667,16.1667 -9.5,22.5 -6.3333,6.3333 -13.8333,9.5 -22.5,9.5 l -1216,0 c -8.66667,0 -16.16667,-3.1667 -22.5,-9.5 -6.33333,-6.3333 -9.5,-13.8333 -9.5,-22.5 l 0,-192 c 0,-9.33333 3,-17 9,-23 6,-6 13.66667,-9 23,-9 l 1216,0 c 8.6667,0 16.1667,3.16667 22.5,9.5 6.3333,6.33333 9.5,13.83333 9.5,22.5 z m 0,-512 0,192 c 0,8.66667 -3.1667,16.16667 -9.5,22.5 -6.3333,6.33333 -13.8333,9.5 -22.5,9.5 l -1216,0 c -8.66667,0 -16.16667,-3.16667 -22.5,-9.5 -6.33333,-6.33333 -9.5,-13.83333 -9.5,-22.5 l 0,-192 c 0,-8.66667 3.16667,-16.16667 9.5,-22.5 6.33333,-6.33333 13.83333,-9.5 22.5,-9.5 l 1216,0 c 8.6667,0 16.1667,3.16667 22.5,9.5 6.3333,6.33333 9.5,13.83333 9.5,22.5 z"
     style="fill:#00ff00;fill-opacity:1;stroke:none" />
  <g
     transform="scale(0.9978249,1.0021798)"
     style="font-style:normal;font-weight:normal;font-size:38.58873749px;line-height:92.00000167%;font-family:sans-serif;letter-spacing:0px;word-spacing:0px;fill:#00ff00;fill-opacity:1;stroke:none;stroke-width:1px;stroke-linecap:butt;stroke-linejoin:miter;stroke-opacity:1"
     id="text3338">
    <path
       d="m 72.11096,499.13057 0,-483.507396 95.53562,0 0,399.306506 204.34907,0 0,84.20089 -299.88469,0 z"
       style="font-style:normal;font-variant:normal;font-weight:bold;font-stretch:normal;font-size:663.24389648px;line-height:92.00000167%;font-family:monospace;-inkscape-font-specification:'monospace Bold';stroke:none;stroke-width:30;stroke-miterlimit:4;stroke-dasharray:none;stroke-opacity:1;fill:#00ff00;fill-opacity:1"
       id="path4139"
       inkscape:connector-curvature="0" />
    <path
       d="m 198.74579,723.40035 q -36.59501,0 -53.43518,39.18579 -16.84018,38.86195 -16.84018,125.97748 0,86.79168 16.84018,125.97748 16.84017,38.8619 53.43518,38.8619 36.91884,0 53.75902,-38.8619 16.84018,-39.1858 16.84018,-125.97748 0,-87.11553 -16.84018,-125.97748 -16.84018,-39.18579 -53.75902,-39.18579 z M 29.048616,888.56362 q 0,-124.03438 42.748142,-187.50889 43.071992,-63.47452 126.949032,-63.47452 84.20088,0 126.94902,63.47452 43.07199,63.47451 43.07199,187.50889 0,123.71058 -43.07199,187.18508 -42.74814,63.4745 -126.94902,63.4745 -83.87704,0 -126.949032,-63.4745 -42.748142,-63.4745 -42.748142,-187.18508 z"
       style="font-style:normal;font-variant:normal;font-weight:bold;font-stretch:normal;font-size:663.24389648px;line-height:92.00000167%;font-family:monospace;-inkscape-font-specification:'monospace Bold';stroke:none;stroke-opacity:1;stroke-width:30.00000062;stroke-miterlimit:4;stroke-dasharray:none;fill:#00ff00;fill-opacity:1"
       id="path4141" />
    <path
       d="m 281.65127,1673.0934 0,-92.2971 -65.41761,0 0,-80.3147 148.9708,0 0,221.5131 q -27.52721,23.641 -60.88372,35.9473 -33.03265,11.9824 -70.92305,11.9824 -93.91637,0 -145.084604,-65.0937 -51.168231,-65.4176 -51.168231,-185.5658 0,-122.0913 51.49208,-186.5374 51.815925,-64.446 149.294645,-64.446 29.14646,0 57.32137,8.4201 28.17492,8.0962 52.78748,23.641 l 0,105.8988 q -20.07867,-25.908 -46.31049,-38.862 -25.90796,-13.2778 -56.99752,-13.2778 -54.40672,0 -81.28624,41.1289 -26.87951,40.805 -26.87951,124.0344 0,80.6385 25.90796,122.739 25.90797,42.1004 75.45695,42.1004 14.89708,0 25.90797,-2.5908 11.01088,-2.9146 17.81172,-8.4201 z"
       style="font-style:normal;font-variant:normal;font-weight:bold;font-stretch:normal;font-size:663.24389648px;line-height:92.00000167%;font-family:monospace;-inkscape-font-specification:'monospace Bold';stroke:none;stroke-width:30;stroke-miterlimit:4;stroke-dasharray:none;stroke-opacity:1;fill:#00ff00;fill-opacity:1"
       id="path4143"
       inkscape:connector-curvature="0" />
  </g>
</svg>
