/* XPM */
static const char * icon_xpm[] = {
"32 31 6 1",
" 	c None",
".	c #00FFF0",
"+	c #000000",
"@	c #FF00FC",
"#	c #FFF600",
"$	c #FFD9A7",
".......................+        ",
"......................++        ",
"......................+         ",
".....................+          ",
"...................++           ",
".............++++++             ",
"............++                  ",
"...........+                    ",
".........++                     ",
".........+                      ",
"........+   +++++++++++++++++++ ",
".......++   +@@@@@+.....+#####+ ",
".......+    +@@@@@+.....+#####+ ",
"......++    +@@@@@+.....+#####+ ",
"......+     +@@@@@+..+..+#####+ ",
"......+     +@@@@@+.+$+.+#####+ ",
".....++     +++++++++$+++++++++ ",
".....+              +$+         ",
".....+              +$++ +      ",
"....+              +$$+$+$++    ",
"...++             +$$$+$+$$$+   ",
"..++              +$$$+$+$$$+   ",
".++               +$$$$$$$$$+   ",
"+                 +$$$$$$$$$+   ",
"                  +$$$$$$$$$+   ",
"                   +$$$$$$$+    ",
"                    +$$$$$++    ",
"                    +$$$$$+     ",
"                    +$$$$$$+    ",
"                    ++++++++    ",
"                                "};
