<?xml version="1.0" encoding="UTF-8" standalone="no"?>
<svg
   xmlns:dc="http://purl.org/dc/elements/1.1/"
   xmlns:cc="http://creativecommons.org/ns#"
   xmlns:rdf="http://www.w3.org/1999/02/22-rdf-syntax-ns#"
   xmlns:svg="http://www.w3.org/2000/svg"
   xmlns="http://www.w3.org/2000/svg"
   xmlns:sodipodi="http://sodipodi.sourceforge.net/DTD/sodipodi-0.dtd"
   xmlns:inkscape="http://www.inkscape.org/namespaces/inkscape"
   id="svg2"
   xml:space="preserve"
   style="enable-background:new 0 0 39.5 41.4;"
   viewBox="0 0 39.5 41.4"
   y="0px"
   x="0px"
   version="1.1"
   inkscape:version="0.91 r13725"
   sodipodi:docname="icon_openigtlink_provider_example.svg"><sodipodi:namedview
     pagecolor="#ffffff"
     bordercolor="#666666"
     borderopacity="1"
     objecttolerance="10"
     gridtolerance="10"
     guidetolerance="10"
     inkscape:pageopacity="0"
     inkscape:pageshadow="2"
     inkscape:window-width="686"
     inkscape:window-height="480"
     id="namedview27"
     showgrid="false"
     inkscape:zoom="5.7004829"
     inkscape:cx="19.75"
     inkscape:cy="20.700001"
     inkscape:window-x="0"
     inkscape:window-y="0"
     inkscape:window-maximized="0"
     inkscape:current-layer="svg2" /><metadata
     id="metadata48"><rdf:RDF><cc:Work
         rdf:about=""><dc:format>image/svg+xml</dc:format><dc:type
           rdf:resource="http://purl.org/dc/dcmitype/StillImage" /><dc:title /></cc:Work></rdf:RDF></metadata><defs
     id="defs46" /><style
     id="style4"
     type="text/css">
	.st0{display:none;}
	.st1{display:inline;fill:#9D9D9C;}
	.st2{fill:#FFFFFF;}
	.st3{fill:none;stroke:#000000;stroke-width:7;stroke-miterlimit:10;}
	.st4{fill:#C0C5CD;}
	.st5{fill:none;stroke:#000000;stroke-width:2;stroke-miterlimit:10;}
	.st6{fill:none;stroke:#C0C5CD;stroke-width:2;stroke-miterlimit:10;}
	.st7{fill:#0096AE;}
	.st8{fill:#244F9E;}
	.st9{fill:none;stroke:#000000;stroke-width:5;stroke-miterlimit:10;}
	.st10{fill:none;stroke:#000000;stroke-width:5;stroke-linecap:round;stroke-miterlimit:10;}
	.st11{fill:none;stroke:#000000;stroke-width:5;stroke-linecap:square;stroke-miterlimit:10;}
	.st12{fill:none;stroke:#000000;stroke-miterlimit:10;}
	.st13{fill:#CEC917;}
	.st14{fill:none;stroke:#FFFFFF;stroke-width:6;stroke-linecap:round;stroke-miterlimit:10;}
	.st15{fill:none;stroke:#1D71B8;stroke-width:4;stroke-miterlimit:10;}
	.st16{fill:none;stroke:#FFFFFF;stroke-width:5;stroke-linecap:round;stroke-miterlimit:10;}
	.st17{fill:none;stroke:#E6007E;stroke-width:4;stroke-miterlimit:10;}
	.st18{fill:#1C1C1B;}
	.st19{fill:#010202;stroke:#FFFFFF;stroke-miterlimit:10;}
	.st20{fill:none;stroke:#FFFFFF;stroke-miterlimit:10;}
	.st21{fill:#010202;}
	.st22{stroke:#000000;stroke-linejoin:round;stroke-miterlimit:10;}
	.st23{fill:none;stroke:#000000;stroke-linejoin:round;stroke-miterlimit:10;}
	.st24{fill:none;stroke:#1C1C1B;stroke-miterlimit:10;}
	.st25{fill:none;stroke:#1C1C1B;stroke-linecap:round;stroke-linejoin:round;stroke-miterlimit:10;}
	.st26{fill:none;stroke:#009640;stroke-width:2;stroke-linecap:round;stroke-miterlimit:10;}
	.st27{fill:none;}
	.st28{clip-path:url(#SVGID_2_);}
	.st29{clip-path:url(#SVGID_2_);fill:none;}
	.st30{clip-path:url(#SVGID_4_);fill:none;}
	.st31{clip-path:url(#SVGID_4_);}
	.st32{clip-path:url(#SVGID_6_);fill:none;}
	.st33{clip-path:url(#SVGID_6_);}
	.st34{clip-path:url(#SVGID_8_);}
	.st35{clip-path:url(#SVGID_8_);fill:none;}
	.st36{clip-path:url(#SVGID_10_);fill:#FFFFFF;}
	.st37{clip-path:url(#SVGID_10_);}
	.st38{fill:none;stroke:#009640;stroke-width:6;stroke-linecap:round;stroke-miterlimit:10;}
	.st39{fill:none;stroke:#010202;stroke-width:2;stroke-linecap:round;stroke-miterlimit:10;}
	.st40{fill:none;stroke:#010202;stroke-width:6;stroke-linecap:round;stroke-miterlimit:10;}
	.st41{fill:none;stroke:#010202;stroke-width:9;stroke-linecap:round;stroke-miterlimit:10;}
	.st42{fill:none;stroke:#010202;stroke-width:3;stroke-linecap:round;stroke-miterlimit:10;}
	.st43{fill:none;stroke:#000000;stroke-width:0.5;stroke-miterlimit:10;}
	.st44{fill:#E6007E;}
	.st45{fill:none;stroke:#E6007E;stroke-width:7;stroke-miterlimit:10;}
	.st46{fill:none;stroke:#1C1C1B;stroke-width:5;stroke-miterlimit:10;}
	.st47{fill:none;stroke:#1C1C1B;stroke-width:5;stroke-miterlimit:10;stroke-dasharray:9.8182,4.0909;}
	.st48{fill:none;stroke:#1C1C1B;stroke-width:5;stroke-miterlimit:10;stroke-dasharray:12,5;}
	.st49{fill:none;stroke:#1C1C1B;stroke-width:4;stroke-miterlimit:10;}
	.st50{fill:none;stroke:#1C1C1B;stroke-width:4;stroke-miterlimit:10;stroke-dasharray:9.8182,4.0909;}
	.st51{fill:none;stroke:#1C1C1B;stroke-width:4;stroke-miterlimit:10;stroke-dasharray:12,5;}
	.st52{fill:none;stroke:#000000;stroke-width:8;stroke-miterlimit:10;}
	.st53{clip-path:url(#SVGID_12_);}
	.st54{clip-path:url(#SVGID_12_);fill:none;}
	.st55{clip-path:url(#SVGID_14_);}
	.st56{fill:none;stroke:#81181A;stroke-miterlimit:10;}
	.st57{fill:none;stroke:#037C90;stroke-miterlimit:10;}
	.st58{fill:none;stroke:#35393B;stroke-miterlimit:10;}
	.st59{fill:none;stroke:#A0151A;stroke-miterlimit:10;}
	.st60{fill:none;stroke:#1C1C1B;stroke-linecap:square;stroke-miterlimit:10;}
	.st61{fill:none;stroke:#1C1C1B;stroke-width:2;stroke-linecap:round;stroke-linejoin:round;stroke-miterlimit:10;}
	.st62{clip-path:url(#SVGID_16_);}
	.st63{fill:none;stroke:#FFFFFF;stroke-width:4;stroke-miterlimit:10;}
	.st64{clip-path:url(#SVGID_18_);}
	.st65{clip-path:url(#SVGID_18_);fill:#FFFFFF;}
	.st66{clip-path:url(#SVGID_20_);}
	.st67{clip-path:url(#SVGID_22_);}
</style><g
     class="st0"
     id="Ebene_4"><rect
       id="rect7"
       height="1801.4"
       width="1421.9"
       class="st1"
       y="-585"
       x="-129.8" /></g><g
     id="Ebene_2"
     style="fill:#00ff00;fill-opacity:1;stroke:none" /><g
     id="Ebene_1"
     style="fill:#00ff00;fill-opacity:1;stroke:none" /><g
     id="Ebene_3"
     style="fill:#00ff00;fill-opacity:1;stroke:none"><g
       id="g12"
       style="fill:#00ff00;fill-opacity:1;stroke:none"><g
         id="g14"
         style="fill:#00ff00;fill-opacity:1;stroke:none"><g
           id="g16"
           style="fill:#00ff00;fill-opacity:1;stroke:none"><path
             id="path18"
             d="M15.5,15.8c0.2,0.7,0.5,1.3,0.8,1.9l0,0c0.5-0.4,1-0.9,1.4-1.5"
             style="fill:#00ff00;fill-opacity:1;stroke:none" /><path
             id="path20"
             d="M17.8,16.2c0.2-0.3,0.4-0.5,0.5-0.8c-0.2-0.6-0.4-1.3-0.5-1.9c-0.1-0.4-0.1-0.8-0.1-1.3c0-5.3,4.3-9.5,9.5-9.5      c5.3,0,9.5,4.3,9.5,9.5c0,5.3-4.3,9.5-9.5,9.5c-1.1,0-2.1-0.2-3.1-0.5c-0.6,0.8-1.2,1.5-2,2.1c1.5,0.7,3.3,1.1,5.1,1.1      c6.7,0,12.2-5.5,12.2-12.2C39.5,5.5,34,0,27.2,0C20.5,0,15,5.5,15,12.2c0,1.2,0.2,2.4,0.5,3.5"
             style="fill:#00ff00;fill-opacity:1;stroke:none" /></g><g
           id="g22"
           style="fill:#00ff00;fill-opacity:1;stroke:none"><path
             id="path24"
             d="M23.9,8.7c-0.2-0.7-0.5-1.3-0.8-1.9l0,0c-0.5,0.4-1,0.9-1.4,1.5"
             style="fill:#00ff00;fill-opacity:1;stroke:none" /><path
             id="path26"
             d="M21.7,8.2c-0.2,0.3-0.4,0.5-0.5,0.8c0.2,0.6,0.4,1.3,0.5,1.9c0.1,0.4,0.1,0.8,0.1,1.3c0,5.3-4.3,9.5-9.5,9.5      c-5.3,0-9.5-4.3-9.5-9.5C2.7,7,7,2.7,12.2,2.7c1.1,0,2.1,0.2,3.1,0.5c0.6-0.8,1.2-1.5,2-2.1C15.8,0.4,14,0,12.2,0      C5.5,0,0,5.5,0,12.2C0,19,5.5,24.5,12.2,24.5S24.5,19,24.5,12.2c0-1.2-0.2-2.4-0.5-3.5"
             style="fill:#00ff00;fill-opacity:1;stroke:none" /></g></g><g
         id="g28"
         style="fill:#00ff00;fill-opacity:1;stroke:none"><path
           id="path30"
           d="M19.5,38.5h-1l2.1-7.7h1L19.5,38.5z"
           style="fill:#00ff00;fill-opacity:1;stroke:none" /><path
           id="path32"
           d="M21.6,38.5h-1l2.1-7.7h1L21.6,38.5z"
           style="fill:#00ff00;fill-opacity:1;stroke:none" /><path
           id="path34"
           d="M26.7,38c-0.7,0-1.2-0.2-1.6-0.7c-0.4-0.4-0.6-1-0.6-1.6v-0.7c0-0.7,0.2-1.3,0.5-1.7c0.4-0.5,0.9-0.7,1.5-0.7     c0.6,0,1.1,0.2,1.4,0.6c0.3,0.4,0.5,1,0.5,1.7v0.8H26v0c0,0.3,0.1,0.6,0.2,0.9c0.2,0.2,0.4,0.3,0.7,0.3c0.3,0,0.5,0,0.6-0.1     c0.2-0.1,0.4-0.2,0.6-0.3l0.4,0.9c-0.2,0.2-0.4,0.3-0.7,0.4C27.4,37.9,27.1,38,26.7,38z M26.6,33.6c-0.2,0-0.4,0.1-0.5,0.3     C26,34.1,26,34.4,26,34.7h1.2v-0.2c0-0.3,0-0.5-0.1-0.7C27,33.7,26.8,33.6,26.6,33.6z"
           style="fill:#00ff00;fill-opacity:1;stroke:none" /><path
           id="path36"
           d="M30.8,37.9h-1.4v-1.3h1.4V37.9z"
           style="fill:#00ff00;fill-opacity:1;stroke:none" /><path
           id="path38"
           d="M31.7,35c0-0.7,0.2-1.3,0.5-1.8c0.3-0.5,0.7-0.7,1.3-0.7c0.2,0,0.4,0.1,0.6,0.2c0.2,0.1,0.3,0.3,0.5,0.5l0.1-0.6h1.2v5.2     c0,0.7-0.2,1.2-0.6,1.6c-0.4,0.4-1,0.6-1.6,0.6c-0.2,0-0.5,0-0.7-0.1c-0.3-0.1-0.5-0.2-0.7-0.3l0.2-1.1c0.2,0.1,0.4,0.2,0.6,0.2     c0.2,0.1,0.4,0.1,0.6,0.1c0.3,0,0.5-0.1,0.7-0.3c0.1-0.2,0.2-0.4,0.2-0.8v-0.3c-0.1,0.2-0.3,0.3-0.4,0.4     c-0.2,0.1-0.4,0.1-0.6,0.1c-0.6,0-1-0.2-1.3-0.6c-0.3-0.4-0.5-1-0.5-1.7V35z M33.1,35.6c0,0.4,0.1,0.7,0.2,0.9     c0.1,0.2,0.3,0.3,0.6,0.3c0.1,0,0.3,0,0.4-0.1c0.1-0.1,0.2-0.1,0.3-0.3V34c-0.1-0.1-0.2-0.2-0.3-0.3c-0.1-0.1-0.2-0.1-0.4-0.1     c-0.3,0-0.4,0.1-0.6,0.4c-0.1,0.3-0.2,0.6-0.2,1V35.6z"
           style="fill:#00ff00;fill-opacity:1;stroke:none" /><path
           id="path40"
           d="M38.3,37.9h-1.4v-1.3h1.4V37.9z"
           style="fill:#00ff00;fill-opacity:1;stroke:none" /></g><path
         id="path42"
         d="M1.3,34.5c0,0.1,0.1,0.2,0.2,0.2h3.1v6.5c0,0.1,0.1,0.2,0.2,0.2H13c0.1,0,0.2-0.1,0.2-0.2v-6.5h3.1c0.1,0,0.2-0.1,0.2-0.2    c0-0.1,0-0.2-0.1-0.3l-7.4-7.4c0,0-0.1-0.1-0.2-0.1c-0.1,0-0.1,0-0.2,0.1l-7.4,7.4C1.3,34.3,1.3,34.4,1.3,34.5z"
         style="fill:#00ff00;fill-opacity:1;stroke:none" /></g></g></svg>