<?xml version="1.0" encoding="UTF-8" standalone="no"?>
<svg
   xmlns:dc="http://purl.org/dc/elements/1.1/"
   xmlns:cc="http://creativecommons.org/ns#"
   xmlns:rdf="http://www.w3.org/1999/02/22-rdf-syntax-ns#"
   xmlns:svg="http://www.w3.org/2000/svg"
   xmlns="http://www.w3.org/2000/svg"
   xmlns:sodipodi="http://sodipodi.sourceforge.net/DTD/sodipodi-0.dtd"
   xmlns:inkscape="http://www.inkscape.org/namespaces/inkscape"
   id="svg2"
   xml:space="preserve"
   style="enable-background:new 0 0 40.5 41;"
   viewBox="0 0 40.5 41"
   y="0px"
   x="0px"
   version="1.1"
   inkscape:version="0.91 r13725"
   sodipodi:docname="icon_openigtlink_extended_example.svg"><sodipodi:namedview
     pagecolor="#ffffff"
     bordercolor="#666666"
     borderopacity="1"
     objecttolerance="10"
     gridtolerance="10"
     guidetolerance="10"
     inkscape:pageopacity="0"
     inkscape:pageshadow="2"
     inkscape:window-width="686"
     inkscape:window-height="480"
     id="namedview29"
     showgrid="false"
     inkscape:zoom="5.7560976"
     inkscape:cx="20.25"
     inkscape:cy="20.5"
     inkscape:window-x="0"
     inkscape:window-y="0"
     inkscape:window-maximized="0"
     inkscape:current-layer="svg2" /><metadata
     id="metadata52"><rdf:RDF><cc:Work
         rdf:about=""><dc:format>image/svg+xml</dc:format><dc:type
           rdf:resource="http://purl.org/dc/dcmitype/StillImage" /><dc:title /></cc:Work></rdf:RDF></metadata><defs
     id="defs50" /><style
     id="style4"
     type="text/css">
	.st0{display:none;}
	.st1{display:inline;fill:#9D9D9C;}
	.st2{fill:#FFFFFF;}
	.st3{fill:none;stroke:#000000;stroke-width:7;stroke-miterlimit:10;}
	.st4{fill:#C0C5CD;}
	.st5{fill:none;stroke:#000000;stroke-width:2;stroke-miterlimit:10;}
	.st6{fill:none;stroke:#C0C5CD;stroke-width:2;stroke-miterlimit:10;}
	.st7{fill:#0096AE;}
	.st8{fill:#244F9E;}
	.st9{fill:none;stroke:#000000;stroke-width:5;stroke-miterlimit:10;}
	.st10{fill:none;stroke:#000000;stroke-width:5;stroke-linecap:round;stroke-miterlimit:10;}
	.st11{fill:none;stroke:#000000;stroke-width:5;stroke-linecap:square;stroke-miterlimit:10;}
	.st12{fill:none;stroke:#000000;stroke-miterlimit:10;}
	.st13{fill:#CEC917;}
	.st14{fill:none;stroke:#FFFFFF;stroke-width:6;stroke-linecap:round;stroke-miterlimit:10;}
	.st15{fill:none;stroke:#1D71B8;stroke-width:4;stroke-miterlimit:10;}
	.st16{fill:none;stroke:#FFFFFF;stroke-width:5;stroke-linecap:round;stroke-miterlimit:10;}
	.st17{fill:none;stroke:#E6007E;stroke-width:4;stroke-miterlimit:10;}
	.st18{fill:#1C1C1B;}
	.st19{fill:#010202;stroke:#FFFFFF;stroke-miterlimit:10;}
	.st20{fill:none;stroke:#FFFFFF;stroke-miterlimit:10;}
	.st21{fill:#010202;}
	.st22{stroke:#000000;stroke-linejoin:round;stroke-miterlimit:10;}
	.st23{fill:none;stroke:#000000;stroke-linejoin:round;stroke-miterlimit:10;}
	.st24{fill:none;stroke:#1C1C1B;stroke-miterlimit:10;}
	.st25{fill:none;stroke:#1C1C1B;stroke-linecap:round;stroke-linejoin:round;stroke-miterlimit:10;}
	.st26{fill:none;stroke:#009640;stroke-width:2;stroke-linecap:round;stroke-miterlimit:10;}
	.st27{fill:none;}
	.st28{clip-path:url(#SVGID_2_);}
	.st29{clip-path:url(#SVGID_2_);fill:none;}
	.st30{clip-path:url(#SVGID_4_);fill:none;}
	.st31{clip-path:url(#SVGID_4_);}
	.st32{clip-path:url(#SVGID_6_);fill:none;}
	.st33{clip-path:url(#SVGID_6_);}
	.st34{clip-path:url(#SVGID_8_);}
	.st35{clip-path:url(#SVGID_8_);fill:none;}
	.st36{clip-path:url(#SVGID_10_);fill:#FFFFFF;}
	.st37{clip-path:url(#SVGID_10_);}
	.st38{fill:none;stroke:#009640;stroke-width:6;stroke-linecap:round;stroke-miterlimit:10;}
	.st39{fill:none;stroke:#010202;stroke-width:2;stroke-linecap:round;stroke-miterlimit:10;}
	.st40{fill:none;stroke:#010202;stroke-width:6;stroke-linecap:round;stroke-miterlimit:10;}
	.st41{fill:none;stroke:#010202;stroke-width:9;stroke-linecap:round;stroke-miterlimit:10;}
	.st42{fill:none;stroke:#010202;stroke-width:3;stroke-linecap:round;stroke-miterlimit:10;}
	.st43{fill:none;stroke:#000000;stroke-width:0.5;stroke-miterlimit:10;}
	.st44{fill:#E6007E;}
	.st45{fill:none;stroke:#E6007E;stroke-width:7;stroke-miterlimit:10;}
	.st46{fill:none;stroke:#1C1C1B;stroke-width:5;stroke-miterlimit:10;}
	.st47{fill:none;stroke:#1C1C1B;stroke-width:5;stroke-miterlimit:10;stroke-dasharray:9.8182,4.0909;}
	.st48{fill:none;stroke:#1C1C1B;stroke-width:5;stroke-miterlimit:10;stroke-dasharray:12,5;}
	.st49{fill:none;stroke:#1C1C1B;stroke-width:4;stroke-miterlimit:10;}
	.st50{fill:none;stroke:#1C1C1B;stroke-width:4;stroke-miterlimit:10;stroke-dasharray:9.8182,4.0909;}
	.st51{fill:none;stroke:#1C1C1B;stroke-width:4;stroke-miterlimit:10;stroke-dasharray:12,5;}
	.st52{fill:none;stroke:#000000;stroke-width:8;stroke-miterlimit:10;}
	.st53{clip-path:url(#SVGID_12_);}
	.st54{clip-path:url(#SVGID_12_);fill:none;}
	.st55{clip-path:url(#SVGID_14_);}
	.st56{fill:none;stroke:#81181A;stroke-miterlimit:10;}
	.st57{fill:none;stroke:#037C90;stroke-miterlimit:10;}
	.st58{fill:none;stroke:#35393B;stroke-miterlimit:10;}
	.st59{fill:none;stroke:#A0151A;stroke-miterlimit:10;}
	.st60{fill:none;stroke:#1C1C1B;stroke-linecap:square;stroke-miterlimit:10;}
	.st61{fill:none;stroke:#1C1C1B;stroke-width:2;stroke-linecap:round;stroke-linejoin:round;stroke-miterlimit:10;}
	.st62{clip-path:url(#SVGID_16_);}
	.st63{fill:none;stroke:#FFFFFF;stroke-width:4;stroke-miterlimit:10;}
	.st64{clip-path:url(#SVGID_18_);}
	.st65{clip-path:url(#SVGID_18_);fill:#FFFFFF;}
	.st66{clip-path:url(#SVGID_20_);}
	.st67{clip-path:url(#SVGID_22_);}
</style><g
     class="st0"
     id="Ebene_4"><rect
       id="rect7"
       height="1801.4"
       width="1421.9"
       class="st1"
       y="-678.7"
       x="-131.9" /></g><g
     id="Ebene_2"
     style="fill:#00ff00;fill-opacity:1;stroke:none" /><g
     id="Ebene_1"
     style="fill:#00ff00;fill-opacity:1;stroke:none" /><g
     id="Ebene_3"
     style="fill:#00ff00;fill-opacity:1;stroke:none"><g
       id="g12"
       style="fill:#00ff00;fill-opacity:1;stroke:none"><g
         id="g14"
         style="fill:#00ff00;fill-opacity:1;stroke:none"><path
           id="path16"
           d="M5.1,35c-0.3-0.3-0.4-0.7-0.2-1.1c0.2-0.4,0.5-0.6,0.9-0.6h1.9v-4.8c0-0.1,0-0.2,0.1-0.2H3.5c-0.1,0-0.2,0.1-0.2,0.2v5.5     H0.7c-0.1,0-0.2,0.1-0.2,0.2c0,0.1,0,0.2,0.1,0.3l6.4,6.4C6.9,40.9,7,41,7,41c0.1,0,0.1,0,0.2-0.1L9.1,39L5.1,35z"
           style="fill:#00ff00;fill-opacity:1;stroke:none" /><path
           id="path18"
           d="M18.8,34.2c0-0.1-0.1-0.2-0.2-0.2H16v-5.5c0-0.1-0.1-0.2-0.2-0.2h-7c-0.1,0-0.2,0.1-0.2,0.2v5.5H5.9     c-0.1,0-0.2,0.1-0.2,0.2c0,0.1,0,0.2,0.1,0.3l6.4,6.4c0,0,0.1,0.1,0.2,0.1c0.1,0,0.1,0,0.2-0.1l6.4-6.4     C18.9,34.4,18.9,34.3,18.8,34.2z"
           style="fill:#00ff00;fill-opacity:1;stroke:none" /></g><g
         id="g20"
         style="fill:#00ff00;fill-opacity:1;stroke:none"><g
           id="g22"
           style="fill:#00ff00;fill-opacity:1;stroke:none"><path
             id="path24"
             d="M15.7,16c0.2,0.7,0.5,1.3,0.8,2l0,0c0.6-0.4,1-0.9,1.5-1.5"
             style="fill:#00ff00;fill-opacity:1;stroke:none" /><path
             id="path26"
             d="M18,16.5c0.2-0.3,0.4-0.5,0.5-0.8c-0.2-0.6-0.4-1.3-0.5-2C18,13.2,18,12.8,18,12.4c0-5.3,4.3-9.7,9.7-9.7      c5.3,0,9.7,4.3,9.7,9.7S32.9,22,27.6,22c-1.1,0-2.2-0.2-3.2-0.5c-0.6,0.8-1.3,1.5-2,2.2c1.6,0.7,3.3,1.1,5.1,1.1      c6.8,0,12.4-5.6,12.4-12.4C40,5.6,34.4,0,27.6,0c-6.8,0-12.4,5.6-12.4,12.4c0,1.2,0.2,2.4,0.5,3.6"
             style="fill:#00ff00;fill-opacity:1;stroke:none" /></g><g
           id="g28"
           style="fill:#00ff00;fill-opacity:1;stroke:none"><path
             id="path30"
             d="M24.3,8.8c-0.2-0.7-0.5-1.3-0.8-2l0,0c-0.6,0.4-1,0.9-1.5,1.5"
             style="fill:#00ff00;fill-opacity:1;stroke:none" /><path
             id="path32"
             d="M22,8.3c-0.2,0.3-0.4,0.5-0.5,0.8c0.2,0.6,0.4,1.3,0.5,2c0.1,0.4,0.1,0.8,0.1,1.3c0,5.3-4.3,9.7-9.7,9.7      c-5.3,0-9.7-4.3-9.7-9.7s4.3-9.7,9.7-9.7c1.1,0,2.2,0.2,3.2,0.5c0.6-0.8,1.3-1.5,2-2.2C16,0.4,14.2,0,12.4,0C5.6,0,0,5.6,0,12.4      c0,6.8,5.6,12.4,12.4,12.4c6.8,0,12.4-5.6,12.4-12.4c0-1.2-0.2-2.4-0.5-3.6"
             style="fill:#00ff00;fill-opacity:1;stroke:none" /></g></g><g
         id="g34"
         style="fill:#00ff00;fill-opacity:1;stroke:none"><path
           id="path36"
           d="M21.5,37.6h-1l2.1-7.8h1L21.5,37.6z"
           style="fill:#00ff00;fill-opacity:1;stroke:none" /><path
           id="path38"
           d="M23.5,37.6h-1l2.1-7.8h1L23.5,37.6z"
           style="fill:#00ff00;fill-opacity:1;stroke:none" /><path
           id="path40"
           d="M28.8,37.1c-0.7,0-1.2-0.2-1.6-0.7c-0.4-0.4-0.6-1-0.6-1.7V34c0-0.7,0.2-1.3,0.6-1.8c0.4-0.5,0.9-0.7,1.5-0.7     c0.6,0,1.1,0.2,1.4,0.6c0.3,0.4,0.5,1,0.5,1.7v0.9H28v0c0,0.4,0.1,0.6,0.2,0.9c0.2,0.2,0.4,0.3,0.7,0.3c0.3,0,0.5,0,0.6-0.1     c0.2-0.1,0.4-0.2,0.6-0.3l0.4,0.9c-0.2,0.2-0.4,0.3-0.7,0.4C29.5,37,29.2,37.1,28.8,37.1z M28.7,32.7c-0.2,0-0.4,0.1-0.5,0.3     c-0.1,0.2-0.2,0.5-0.2,0.8h1.3v-0.2c0-0.3,0-0.5-0.1-0.7C29,32.7,28.9,32.7,28.7,32.7z"
           style="fill:#00ff00;fill-opacity:1;stroke:none" /><path
           id="path42"
           d="M32.9,37h-1.4v-1.3h1.4V37z"
           style="fill:#00ff00;fill-opacity:1;stroke:none" /><path
           id="path44"
           d="M33.8,34.1c0-0.8,0.2-1.4,0.5-1.8c0.3-0.5,0.8-0.7,1.3-0.7c0.2,0,0.4,0.1,0.6,0.2c0.2,0.1,0.3,0.3,0.5,0.5l0.1-0.6H38     v5.2c0,0.7-0.2,1.3-0.6,1.7c-0.4,0.4-1,0.6-1.7,0.6c-0.2,0-0.5,0-0.7-0.1c-0.3-0.1-0.5-0.2-0.7-0.3l0.2-1.1     c0.2,0.1,0.4,0.2,0.6,0.2c0.2,0.1,0.4,0.1,0.6,0.1c0.3,0,0.5-0.1,0.7-0.3c0.1-0.2,0.2-0.5,0.2-0.8v-0.3c-0.1,0.2-0.3,0.3-0.4,0.4     c-0.2,0.1-0.4,0.1-0.6,0.1c-0.6,0-1-0.2-1.3-0.6c-0.3-0.4-0.5-1-0.5-1.7V34.1z M35.2,34.7c0,0.4,0.1,0.7,0.2,0.9     c0.1,0.2,0.3,0.3,0.6,0.3c0.1,0,0.3,0,0.4-0.1c0.1-0.1,0.2-0.1,0.3-0.3v-2.5c-0.1-0.1-0.2-0.2-0.3-0.3c-0.1-0.1-0.2-0.1-0.4-0.1     c-0.3,0-0.5,0.1-0.6,0.4c-0.1,0.3-0.2,0.6-0.2,1V34.7z"
           style="fill:#00ff00;fill-opacity:1;stroke:none" /><path
           id="path46"
           d="M40.5,37h-1.4v-1.3h1.4V37z"
           style="fill:#00ff00;fill-opacity:1;stroke:none" /></g></g></g></svg>