<?xml version="1.0" encoding="UTF-8" standalone="no"?>
<svg
   xmlns:dc="http://purl.org/dc/elements/1.1/"
   xmlns:cc="http://creativecommons.org/ns#"
   xmlns:rdf="http://www.w3.org/1999/02/22-rdf-syntax-ns#"
   xmlns:svg="http://www.w3.org/2000/svg"
   xmlns="http://www.w3.org/2000/svg"
   id="svg2"
   xml:space="preserve"
   style="enable-background:new 0 0 39.9 34.8;"
   viewBox="0 0 39.9 34.8"
   y="0px"
   x="0px"
   version="1.1"><metadata
     id="metadata124"><rdf:RDF><cc:Work
         rdf:about=""><dc:format>image/svg+xml</dc:format><dc:type
           rdf:resource="http://purl.org/dc/dcmitype/StillImage" /><dc:title></dc:title></cc:Work></rdf:RDF></metadata><defs
     id="defs122" /><style
     id="style4"
     type="text/css">
	.st0{display:none;}
	.st1{display:inline;fill:#9D9D9C;}
	.st2{fill:#FFFFFF;}
	.st3{fill:none;stroke:#000000;stroke-width:7;stroke-miterlimit:10;}
	.st4{fill:#C0C5CD;}
	.st5{fill:none;stroke:#000000;stroke-width:2;stroke-miterlimit:10;}
	.st6{fill:none;stroke:#C0C5CD;stroke-width:2;stroke-miterlimit:10;}
	.st7{fill:#0096AE;}
	.st8{fill:#244F9E;}
	.st9{fill:none;stroke:#000000;stroke-width:5;stroke-miterlimit:10;}
	.st10{fill:none;stroke:#000000;stroke-width:5;stroke-linecap:round;stroke-miterlimit:10;}
	.st11{fill:none;stroke:#000000;stroke-width:5;stroke-linecap:square;stroke-miterlimit:10;}
	.st12{fill:none;stroke:#000000;stroke-miterlimit:10;}
	.st13{fill:#CEC917;}
	.st14{fill:none;stroke:#FFFFFF;stroke-width:6;stroke-linecap:round;stroke-miterlimit:10;}
	.st15{fill:none;stroke:#1D71B8;stroke-width:4;stroke-miterlimit:10;}
	.st16{fill:none;stroke:#FFFFFF;stroke-width:5;stroke-linecap:round;stroke-miterlimit:10;}
	.st17{fill:none;stroke:#E6007E;stroke-width:4;stroke-miterlimit:10;}
	.st18{fill:#1C1C1B;}
	.st19{fill:#010202;stroke:#FFFFFF;stroke-miterlimit:10;}
	.st20{fill:none;stroke:#FFFFFF;stroke-miterlimit:10;}
	.st21{fill:#010202;}
	.st22{stroke:#000000;stroke-linejoin:round;stroke-miterlimit:10;}
	.st23{fill:none;stroke:#000000;stroke-linejoin:round;stroke-miterlimit:10;}
	.st24{fill:none;stroke:#1C1C1B;stroke-miterlimit:10;}
	.st25{fill:none;stroke:#1C1C1B;stroke-linecap:round;stroke-linejoin:round;stroke-miterlimit:10;}
	.st26{fill:none;stroke:#009640;stroke-width:2;stroke-linecap:round;stroke-miterlimit:10;}
	.st27{fill:none;}
	.st28{clip-path:url(#SVGID_2_);}
	.st29{clip-path:url(#SVGID_2_);fill:none;}
	.st30{clip-path:url(#SVGID_4_);fill:none;}
	.st31{clip-path:url(#SVGID_4_);}
	.st32{clip-path:url(#SVGID_6_);fill:none;}
	.st33{clip-path:url(#SVGID_6_);}
	.st34{clip-path:url(#SVGID_8_);}
	.st35{clip-path:url(#SVGID_8_);fill:none;}
	.st36{clip-path:url(#SVGID_10_);fill:#FFFFFF;}
	.st37{clip-path:url(#SVGID_10_);}
	.st38{fill:none;stroke:#009640;stroke-width:6;stroke-linecap:round;stroke-miterlimit:10;}
	.st39{fill:none;stroke:#010202;stroke-width:2;stroke-linecap:round;stroke-miterlimit:10;}
	.st40{fill:none;stroke:#010202;stroke-width:6;stroke-linecap:round;stroke-miterlimit:10;}
	.st41{fill:none;stroke:#010202;stroke-width:9;stroke-linecap:round;stroke-miterlimit:10;}
	.st42{fill:none;stroke:#010202;stroke-width:3;stroke-linecap:round;stroke-miterlimit:10;}
	.st43{fill:none;stroke:#000000;stroke-width:0.5;stroke-miterlimit:10;}
	.st44{fill:#E6007E;}
	.st45{fill:none;stroke:#E6007E;stroke-width:7;stroke-miterlimit:10;}
	.st46{fill:none;stroke:#1C1C1B;stroke-width:5;stroke-miterlimit:10;}
	.st47{fill:none;stroke:#1C1C1B;stroke-width:5;stroke-miterlimit:10;stroke-dasharray:9.8182,4.0909;}
	.st48{fill:none;stroke:#1C1C1B;stroke-width:5;stroke-miterlimit:10;stroke-dasharray:12,5;}
	.st49{fill:none;stroke:#1C1C1B;stroke-width:4;stroke-miterlimit:10;}
	.st50{fill:none;stroke:#1C1C1B;stroke-width:4;stroke-miterlimit:10;stroke-dasharray:9.8182,4.0909;}
	.st51{fill:none;stroke:#1C1C1B;stroke-width:4;stroke-miterlimit:10;stroke-dasharray:12,5;}
	.st52{fill:none;stroke:#000000;stroke-width:8;stroke-miterlimit:10;}
	.st53{clip-path:url(#SVGID_12_);}
	.st54{clip-path:url(#SVGID_12_);fill:none;}
	.st55{clip-path:url(#SVGID_14_);}
	.st56{fill:none;stroke:#81181A;stroke-miterlimit:10;}
	.st57{fill:none;stroke:#037C90;stroke-miterlimit:10;}
	.st58{fill:none;stroke:#35393B;stroke-miterlimit:10;}
	.st59{fill:none;stroke:#A0151A;stroke-miterlimit:10;}
	.st60{fill:none;stroke:#1C1C1B;stroke-linecap:square;stroke-miterlimit:10;}
	.st61{fill:none;stroke:#1C1C1B;stroke-width:2;stroke-linecap:round;stroke-linejoin:round;stroke-miterlimit:10;}
	.st62{clip-path:url(#SVGID_16_);}
	.st63{fill:none;stroke:#FFFFFF;stroke-width:4;stroke-miterlimit:10;}
	.st64{clip-path:url(#SVGID_18_);}
	.st65{clip-path:url(#SVGID_18_);fill:#FFFFFF;}
	.st66{clip-path:url(#SVGID_20_);}
	.st67{clip-path:url(#SVGID_22_);}
</style><g
     class="st0"
     id="Ebene_4"><rect
       id="rect7"
       height="1801.4"
       width="1421.9"
       class="st1"
       y="-392.3"
       x="-130.3" /></g><g
     id="Ebene_2" /><g
     id="Ebene_1" /><g
     id="Ebene_3"><g
       id="g12"><g
         id="g14"><g
           id="g16"><g
             id="g18"><path
               id="path20"
               d="M5.7,24.1c2.7,0,4.9,2.2,4.9,4.9c0,2.7-2.2,4.9-4.9,4.9c-2.7,0-4.9-2.2-4.9-4.9C0.8,26.3,3,24.1,5.7,24.1 M5.7,23.4       c-3.1,0-5.7,2.5-5.7,5.7c0,3.1,2.5,5.7,5.7,5.7c3.1,0,5.7-2.5,5.7-5.7C11.3,25.9,8.8,23.4,5.7,23.4L5.7,23.4z" /></g></g><g
           id="g22"><g
             id="g24"><circle
               id="circle26"
               r="0.3"
               cy="29.1"
               cx="5.7" /></g><g
             id="g28"><path
               id="path30"
               d="M5.7,27.6c-0.2,0-0.3-0.1-0.3-0.3v-1.8c0-0.2,0.1-0.3,0.3-0.3c0.2,0,0.3,0.1,0.3,0.3v1.8C6,27.4,5.8,27.6,5.7,27.6z" /></g><g
             id="g32"><path
               id="path34"
               d="M5.7,33c-0.2,0-0.3-0.1-0.3-0.3v-1.8c0-0.2,0.1-0.3,0.3-0.3c0.2,0,0.3,0.1,0.3,0.3v1.8C6,32.8,5.8,33,5.7,33z" /></g><g
             id="g36"><path
               id="path38"
               d="M3.8,29.4H2.1c-0.2,0-0.3-0.1-0.3-0.3c0-0.2,0.1-0.3,0.3-0.3h1.8c0.2,0,0.3,0.1,0.3,0.3C4.2,29.2,4,29.4,3.8,29.4z" /></g><g
             id="g40"><path
               id="path42"
               d="M9.2,29.4H7.5c-0.2,0-0.3-0.1-0.3-0.3c0-0.2,0.1-0.3,0.3-0.3h1.8c0.2,0,0.3,0.1,0.3,0.3C9.6,29.2,9.4,29.4,9.2,29.4z" /></g></g><path
           id="path44"
           d="M9.3,20.3c-2.3,0-4.2,1.3-5.1,3.3c0.5-0.1,0.9-0.2,1.4-0.2c3.1,0,5.7,2.5,5.7,5.7c0,0.9-0.2,1.7-0.5,2.4     c2.4-0.6,4.2-2.8,4.2-5.5C15,22.9,12.5,20.3,9.3,20.3z M9.7,24.2c0,0.2-0.1,0.3-0.3,0.3c-0.2,0-0.3-0.1-0.3-0.3v-1.8     c0-0.2,0.1-0.3,0.3-0.3c0.2,0,0.3,0.1,0.3,0.3V24.2z M12.9,26.3h-1.8c-0.2,0-0.3-0.1-0.3-0.3c0-0.2,0.1-0.3,0.3-0.3h1.8     c0.2,0,0.3,0.1,0.3,0.3C13.3,26.2,13.1,26.3,12.9,26.3z" /></g><g
         id="g46"><path
           id="path48"
           d="M18.4,33.2h-1l2.1-7.8h1L18.4,33.2z" /><path
           id="path50"
           d="M20.5,33.2h-1l2.1-7.8h1L20.5,33.2z" /><path
           id="path52"
           d="M25.8,32.7c-0.7,0-1.2-0.2-1.6-0.7c-0.4-0.4-0.6-1-0.6-1.7v-0.8c0-0.7,0.2-1.3,0.6-1.8c0.4-0.5,0.9-0.7,1.5-0.7     c0.6,0,1.1,0.2,1.5,0.6c0.3,0.4,0.5,1,0.5,1.7v0.9H25v0c0,0.4,0.1,0.6,0.2,0.9c0.2,0.2,0.4,0.3,0.7,0.3c0.3,0,0.5,0,0.6-0.1     c0.2-0.1,0.4-0.2,0.6-0.3l0.4,0.9c-0.2,0.2-0.4,0.3-0.7,0.4C26.5,32.7,26.1,32.7,25.8,32.7z M25.6,28.3c-0.2,0-0.4,0.1-0.5,0.3     C25,28.8,25,29.1,25,29.4h1.3v-0.2c0-0.3,0-0.5-0.1-0.7C26,28.4,25.8,28.3,25.6,28.3z" /><path
           id="path54"
           d="M29.8,32.6h-1.4v-1.3h1.4V32.6z" /><path
           id="path56"
           d="M30.8,29.7c0-0.8,0.2-1.4,0.5-1.8c0.3-0.5,0.8-0.7,1.3-0.7c0.2,0,0.4,0.1,0.6,0.2c0.2,0.1,0.3,0.3,0.5,0.5l0.1-0.6H35     v5.2c0,0.7-0.2,1.3-0.6,1.7c-0.4,0.4-1,0.6-1.7,0.6c-0.2,0-0.5,0-0.7-0.1c-0.3-0.1-0.5-0.2-0.7-0.3l0.2-1.1     c0.2,0.1,0.4,0.2,0.6,0.2c0.2,0.1,0.4,0.1,0.6,0.1c0.3,0,0.5-0.1,0.7-0.3c0.1-0.2,0.2-0.5,0.2-0.8v-0.3c-0.1,0.2-0.3,0.3-0.4,0.4     c-0.2,0.1-0.4,0.1-0.6,0.1c-0.6,0-1-0.2-1.3-0.6c-0.3-0.4-0.5-1-0.5-1.7V29.7z M32.2,30.4c0,0.4,0.1,0.7,0.2,0.9     c0.1,0.2,0.3,0.3,0.6,0.3c0.1,0,0.3,0,0.4-0.1c0.1-0.1,0.2-0.1,0.3-0.3v-2.5c-0.1-0.1-0.2-0.2-0.3-0.3c-0.1-0.1-0.2-0.1-0.4-0.1     c-0.3,0-0.5,0.1-0.6,0.4c-0.1,0.3-0.2,0.6-0.2,1V30.4z" /><path
           id="path58"
           d="M37.4,32.6H36v-1.3h1.4V32.6z" /></g><g
         id="g60"><g
           id="g62"><g
             id="g64"><g
               id="g66"><path
                 id="path68"
                 d="M22.6,14.8c0.2-0.3,0.4-0.6,0.6-0.8l-2.9-1.7c-0.1,0.3-0.2,0.6-0.4,0.9c-0.2,0.3-0.4,0.6-0.7,0.8        l2.9,1.7C22.3,15.4,22.4,15.1,22.6,14.8z"
                 class="st21" /><path
                 id="path70"
                 d="M22.6,14.8c0.2-0.3,0.4-0.6,0.6-0.8l-2.9-1.7c-0.1,0.3-0.2,0.6-0.4,0.9c-0.2,0.3-0.4,0.6-0.7,0.8        l2.9,1.7C22.3,15.4,22.4,15.1,22.6,14.8z"
                 class="st21" /><path
                 id="path72"
                 d="M22.6,14.8c0.2-0.3,0.4-0.6,0.6-0.8l-2.9-1.7c-0.1,0.3-0.2,0.6-0.4,0.9c-0.2,0.3-0.4,0.6-0.7,0.8        l2.9,1.7C22.3,15.4,22.4,15.1,22.6,14.8z"
                 class="st21" /><path
                 id="path74"
                 d="M22.6,14.8c0.2-0.3,0.4-0.6,0.6-0.8l-2.9-1.7c-0.1,0.3-0.2,0.6-0.4,0.9c-0.2,0.3-0.4,0.6-0.7,0.8        l2.9,1.7C22.3,15.4,22.4,15.1,22.6,14.8z"
                 class="st21" /></g><g
               id="g76"><path
                 id="path78"
                 d="M14,9.8c0.2-0.3,0.4-0.6,0.6-0.8l-1.8-1l-0.1-2.3c-0.6,0.2-1.3,0.3-2,0.1l0.1,1.7L6.8,7        c0.1,0.7,0.1,1.3-0.2,2l5,0.6l2.1,1.2C13.7,10.5,13.8,10.1,14,9.8z"
                 class="st21" /><path
                 id="path80"
                 d="M14,9.8c0.2-0.3,0.4-0.6,0.6-0.8l-1.8-1l-0.1-2.3c-0.6,0.2-1.3,0.3-2,0.1l0.1,1.7L6.8,7        c0.1,0.7,0.1,1.3-0.2,2l5,0.6l2.1,1.2C13.7,10.5,13.8,10.1,14,9.8z"
                 class="st21" /><path
                 id="path82"
                 d="M14,9.8c0.2-0.3,0.4-0.6,0.6-0.8l-1.8-1l-0.1-2.3c-0.6,0.2-1.3,0.3-2,0.1l0.1,1.7L6.8,7        c0.1,0.7,0.1,1.3-0.2,2l5,0.6l2.1,1.2C13.7,10.5,13.8,10.1,14,9.8z"
                 class="st21" /><path
                 id="path84"
                 d="M14,9.8c0.2-0.3,0.4-0.6,0.6-0.8l-1.8-1l-0.1-2.3c-0.6,0.2-1.3,0.3-2,0.1l0.1,1.7L6.8,7        c0.1,0.7,0.1,1.3-0.2,2l5,0.6l2.1,1.2C13.7,10.5,13.8,10.1,14,9.8z"
                 class="st21" /></g><g
               id="g86"><path
                 id="path88"
                 d="M39.8,24.3l-11.1-6.4c0,0.1-0.1,0.2-0.1,0.3c-0.1,0.1-0.1,0.2-0.2,0.3l11.1,6.4c0.2,0.1,0.4,0,0.5-0.1        C40,24.6,39.9,24.4,39.8,24.3z"
                 class="st21" /><path
                 id="path90"
                 d="M39.8,24.3l-11.1-6.4c0,0.1-0.1,0.2-0.1,0.3c-0.1,0.1-0.1,0.2-0.2,0.3l11.1,6.4c0.2,0.1,0.4,0,0.5-0.1        C40,24.6,39.9,24.4,39.8,24.3z"
                 class="st21" /><path
                 id="path92"
                 d="M39.8,24.3l-11.1-6.4c0,0.1-0.1,0.2-0.1,0.3c-0.1,0.1-0.1,0.2-0.2,0.3l11.1,6.4c0.2,0.1,0.4,0,0.5-0.1        C40,24.6,39.9,24.4,39.8,24.3z"
                 class="st21" /><path
                 id="path94"
                 d="M39.8,24.3l-11.1-6.4c0,0.1-0.1,0.2-0.1,0.3c-0.1,0.1-0.1,0.2-0.2,0.3l11.1,6.4c0.2,0.1,0.4,0,0.5-0.1        C40,24.6,39.9,24.4,39.8,24.3z"
                 class="st21" /></g></g><g
             id="g96"><g
               id="g98"><path
                 id="path100"
                 d="M1.2,6.4c0.7-1.2,2.2-1.6,3.4-0.9c1.2,0.7,1.6,2.2,0.9,3.4c-0.7,1.2-2.2,1.6-3.4,0.9        C0.9,9.1,0.5,7.6,1.2,6.4"
                 class="st21" /></g></g><g
             id="g102"><g
               id="g104"><path
                 id="path106"
                 d="M9.5,1.3c0.7-1.2,2.2-1.6,3.4-0.9c1.2,0.7,1.6,2.2,0.9,3.4c-0.7,1.2-2.2,1.6-3.4,0.9        C9.2,4,8.8,2.4,9.5,1.3"
                 class="st21" /></g></g><g
             id="g108"><g
               id="g110"><path
                 id="path112"
                 d="M14.8,10.3c0.7-1.2,2.2-1.6,3.4-0.9c1.2,0.7,1.6,2.2,0.9,3.4c-0.7,1.2-2.2,1.6-3.4,0.9        C14.5,13,14.1,11.5,14.8,10.3"
                 class="st21" /></g></g><g
             id="g114"><g
               id="g116"><path
                 id="path118"
                 d="M23.4,15.3c0.7-1.2,2.2-1.6,3.4-0.9c1.2,0.7,1.6,2.2,0.9,3.4c-0.7,1.2-2.2,1.6-3.4,0.9        C23.1,18,22.7,16.5,23.4,15.3"
                 class="st21" /></g></g></g></g></g></g></svg>