/* XPM */
static const char * 2DLeft_xpm[] = {
"16 13 2 1",
" 	c None",
".	c #000000",
"                ",
" .............. ",
" .   .        . ",
" .   .        . ",
" .....        . ",
" .   .        . ",
" .   .        . ",
" .   .        . ",
" .....        . ",
" .   .        . ",
" .   .        . ",
" .............. ",
"                "};
