/* XPM */
static const char * 2DUp_xpm[] = {
"16 13 2 1",
" 	c None",
".	c #000000",
"                ",
" .............. ",
" .   .    .   . ",
" .   .    .   . ",
" .   .    .   . ",
" .............. ",
" .            . ",
" .            . ",
" .            . ",
" .            . ",
" .            . ",
" .............. ",
"                "};
