/* XPM */
static const char * Big3D_xpm[] = {
"16 13 2 1",
" 	c None",
".	c #000000",
"                ",
"                ",
" .....  ..      ",
"      . . ..    ",
"      . .   ..  ",
"      . .    .  ",
"   ...  .    .  ",
"      . .    .  ",
"      . .   ..  ",
"      . . ..    ",
" .....  ..      ",
"                ",
"                "};
