/* XPM */
static const char * Sagittal_xpm[] = {
"16 16 44 1",
" 	c #FFFFFF",
".	c #C2C2C2",
"+	c #494949",
"@	c #383838",
"#	c #373737",
"$	c #6C6C6C",
"%	c #F5F5F5",
"&	c #E8E8E8",
"*	c #252525",
"=	c #DADADA",
"-	c #F1F1F1",
";	c #8F8F8F",
">	c #EAEAEA",
",	c #CFCFCF",
"'	c #2D2D2D",
")	c #FAFAFA",
"!	c #FCFCFC",
"~	c #4D4D4D",
"{	c #2A2A2A",
"]	c #666666",
"^	c #949494",
"/	c #E0E0E0",
"(	c #FEFEFE",
"_	c #D1D1D1",
":	c #9F9F9F",
"<	c #6D6D6D",
"[	c #171717",
"}	c #C9C9C9",
"|	c #FBFBFB",
"1	c #797979",
"2	c #8B8B8B",
"3	c #C6C6C6",
"4	c #4E4E4E",
"5	c #B2B2B2",
"6	c #D4D4D4",
"7	c #B3B3B3",
"8	c #303030",
"9	c #D6D6D6",
"0	c #F7F7F7",
"a	c #ABABAB",
"b	c #737373",
"c	c #636363",
"d	c #7E7E7E",
"e	c #DBDBDB",
"                ",
"                ",
"                ",
"                ",
"                ",
"     .+@#$%     ",
"    &*= -;>     ",
"    ,')         ",
"    !~{]^/      ",
"     (_:<[}     ",
"    |(   12     ",
"    3456789     ",
"    0abcde      ",
"                ",
"                ",
"                "};
