<?xml version="1.0" encoding="UTF-8" standalone="no"?>
<svg
   xmlns:dc="http://purl.org/dc/elements/1.1/"
   xmlns:cc="http://creativecommons.org/ns#"
   xmlns:rdf="http://www.w3.org/1999/02/22-rdf-syntax-ns#"
   xmlns:svg="http://www.w3.org/2000/svg"
   xmlns="http://www.w3.org/2000/svg"
   xmlns:sodipodi="http://sodipodi.sourceforge.net/DTD/sodipodi-0.dtd"
   xmlns:inkscape="http://www.inkscape.org/namespaces/inkscape"
   xml:space="preserve"
   enable-background="new 0 0 1792 1792"
   viewBox="0 0 1792 1792"
   height="128"
   width="128"
   y="0px"
   x="0px"
   id="Layer_1"
   version="1.1"
   sodipodi:docname="pai_simulation.svg"
   inkscape:version="0.92.1 r15371"><sodipodi:namedview
     pagecolor="#ffffff"
     bordercolor="#666666"
     borderopacity="1"
     objecttolerance="10"
     gridtolerance="10"
     guidetolerance="10"
     inkscape:pageopacity="0"
     inkscape:pageshadow="2"
     inkscape:window-width="1600"
     inkscape:window-height="1125"
     id="namedview7"
     showgrid="false"
     inkscape:zoom="0.26505955"
     inkscape:cx="385.48338"
     inkscape:cy="297.3149"
     inkscape:window-x="-9"
     inkscape:window-y="-9"
     inkscape:window-maximized="1"
     inkscape:current-layer="Layer_1" /><metadata
     id="metadata11"><rdf:RDF><cc:Work
         rdf:about=""><dc:format>image/svg+xml</dc:format><dc:type
           rdf:resource="http://purl.org/dc/dcmitype/StillImage" /><dc:title /></cc:Work></rdf:RDF></metadata><defs
     id="defs9" /><path
     id="path3"
     d="m 769.2903,570.77195 c 0,5.38584 -1.96919,10.04612 -5.90398,13.98086 -3.93555,3.93624 -8.59507,5.90397 -13.98159,5.90397 -5.38663,0 -10.04691,-1.96773 -13.98159,-5.90397 -3.93544,-3.93549 -5.90398,-8.59502 -5.90398,-13.98086 0,-19.05596 -11.18507,-33.76237 -33.55423,-44.11923 -22.36923,-10.35686 -44.32514,-15.53453 -65.86699,-15.53453 -5.38583,0 -10.04612,-1.96775 -13.9816,-5.90323 -3.93474,-3.93549 -5.90323,-8.59578 -5.90323,-13.9816 0,-5.38585 1.96775,-10.04613 5.90323,-13.98162 3.93548,-3.93549 8.59577,-5.90322 13.9816,-5.90322 20.71297,0 41.32261,3.31401 61.82817,9.94204 20.50634,6.62877 38.52591,17.81376 54.06129,33.55496 15.53439,15.74269 23.3029,34.38458 23.3029,55.92643 z m 99.42261,0 c 0,-29.82688 -7.14616,-57.58268 -21.43848,-83.26668 -14.29156,-25.68398 -32.93266,-46.70768 -55.92417,-63.07111 -22.9914,-16.36342 -48.46869,-29.20541 -76.43198,-38.52672 -27.96244,-9.32059 -56.23565,-13.98086 -84.81959,-13.98086 -28.58394,0 -56.85788,4.66027 -84.82036,13.98086 -27.96247,9.32131 -53.43979,22.1633 -76.43049,38.52672 -22.99219,16.36343 -41.63333,37.38713 -55.92568,63.07111 -14.2916,25.684 -21.43776,53.4398 -21.43776,83.26668 0,41.84 14.08568,79.12304 42.25481,111.84987 4.14288,4.55696 10.46019,11.39239 18.95262,20.50628 8.49244,9.11467 14.809,15.94941 18.95263,20.50632 53.025,63.38182 82.2304,125.10665 87.61623,185.17525 H 700.9382 c 5.3858,-60.0686 34.5919,-121.79267 87.61772,-185.17525 4.14206,-4.55691 10.45937,-11.39165 18.9526,-20.50632 8.49247,-9.11389 14.80978,-15.94932 18.95184,-20.50628 28.16761,-32.72683 42.25255,-70.00987 42.25255,-111.84987 z m 79.53792,0 c 0,64.20997 -21.33447,119.72159 -64.0033,166.53334 -18.64197,20.29892 -34.07236,38.3193 -46.29365,54.06129 -12.22053,15.74116 -24.54443,35.52265 -36.97299,59.34224 -12.42726,23.81961 -19.47006,46.08696 -21.1271,66.80069 19.46995,11.59907 29.20612,28.58315 29.20612,50.95395 0,15.32856 -5.17915,28.58392 -15.53527,39.76884 10.35612,11.185 15.53527,24.4419 15.53527,39.7697 0,21.5411 -9.32055,38.3186 -27.96317,50.3324 5.3851,9.528 8.0776,19.2634 8.0776,29.2055 0,19.0559 -6.52469,33.7623 -19.57407,44.1192 -13.05014,10.3568 -29.1021,15.5345 -48.15806,15.5345 -8.28424,18.2279 -20.71292,32.7268 -37.283,43.4971 -16.57082,10.7702 -34.59125,16.1559 -54.06127,16.1559 -19.47002,0 -37.49045,-5.3857 -54.06127,-16.1567 -16.57081,-10.7702 -28.99874,-25.2692 -37.28378,-43.497 -19.05671,0 -35.10864,-5.1777 -48.15804,-15.5345 -13.0494,-10.3569 -19.57411,-25.0633 -19.57411,-44.1193 0,-9.942 2.69255,-19.6774 8.07838,-29.2054 -18.64114,-12.0139 -27.96246,-28.7913 -27.96246,-50.3324 0,-15.3287 5.17767,-28.5847 15.53529,-39.7697 -10.35762,-11.18499 -15.53529,-24.44105 -15.53529,-39.76891 0,-22.37072 9.73539,-39.35488 29.20541,-50.95394 -1.65701,-20.71373 -8.6991,-42.98032 -21.12703,-66.80069 -12.42793,-23.81953 -24.75254,-43.60032 -36.97306,-59.34225 -12.22052,-15.74192 -27.65173,-33.76238 -46.29361,-54.06128 -42.66963,-46.81175 -64.00332,-102.32261 -64.00332,-166.53333 0,-41.01187 9.21725,-79.22786 27.65247,-114.64723 18.43524,-35.41938 42.66888,-64.8322 72.70242,-88.23771 30.03429,-23.40551 64.00331,-41.84075 101.90933,-55.30421 37.90376,-13.46272 76.53381,-20.19407 115.88867,-20.19407 39.35486,0 77.98416,6.7321 115.88946,20.19557 37.9052,13.46271 71.8743,31.89871 101.9085,55.3042 30.03279,23.40551 54.26866,52.81833 72.70391,88.23771 18.43449,35.41862 27.65102,73.63462 27.65102,114.64649 z"
     inkscape:connector-curvature="0"
     style="stroke-width:0.74876064;stroke:#00ff00;stroke-opacity:1;fill:#00ff00;fill-opacity:1" /><path
     style="stroke-width:0.66901213;stroke:#00ff00;stroke-opacity:1;fill:#00ff00;fill-opacity:1"
     d="m 630.09784,15.112267 c -0.0515,0.09046 -0.095,0.17484 -0.14613,0.264968 -82.80258,0.01656 -162.61422,12.169473 -239.43485,36.461895 -76.87297,24.308998 -143.26279,56.88733 -199.1705,97.73389 -55.9077,40.84654 -100.58289,89.16521 -134.027774,144.9557 -27.437945,45.7701 -43.610505,93.01712 -48.5384701,141.73783 l -1.628049,167.30322 c 10.9820711,33.0757 33.5686551,60.27379 67.7623581,81.59401 34.193635,21.32019 73.254245,31.97926 117.181775,31.97926 v 19.12828 c 0,5.57894 2.24637,10.16186 6.73894,13.74836 4.49258,3.58656 10.23344,5.37998 17.22161,5.37998 h 47.91975 c 6.98817,0 12.72903,-1.79342 17.22161,-5.37998 4.49257,-3.5865 6.73895,-8.16942 6.73895,-13.74836 V 391.96348 c 0,-5.57886 -2.24638,-10.16178 -6.73895,-13.74833 -4.49258,-3.58654 -10.23344,-5.37996 -17.22161,-5.37996 h -47.91975 c -6.98817,0 -12.72903,1.79342 -17.22161,5.37996 -4.49257,3.58655 -6.34824,8.17819 -6.73894,13.74833 l -1.42182,20.26192 c -25.91679,-0.79778 -52.45284,3.02899 -73.69684,10.28462 -1.39507,-20.28584 1.16865,-45.09559 14.87376,-68.87688 8.60746,-14.93576 27.78007,-50.91471 65.75462,-89.34502 47.95491,-48.53044 114.66569,-91.97141 188.79301,-123.0548 74.12732,-31.08338 160.36029,-46.624946 243.72214,-46.624946 0.008,-0.09215 0.0154,-0.171832 0.0232,-0.263601 83.34739,0.0058 169.56215,15.547327 243.6757,46.624947 74.1273,31.08339 140.83803,74.52299 188.79303,123.05343 37.9745,38.4303 57.1471,74.41064 65.7546,89.34639 13.705,23.78121 16.2674,48.58971 14.8724,68.87551 -21.2438,-7.25531 -47.7793,-11.08102 -73.6955,-10.28325 l -1.4218,-20.26192 c -0.3907,-5.57014 -2.2464,-10.16316 -6.739,-13.74969 -4.4925,-3.58655 -10.2334,-5.3786 -17.2216,-5.3786 h -47.91971 c -6.98818,0 -12.72905,1.79205 -17.22164,5.3786 -4.49259,3.58653 -6.73893,8.17083 -6.73893,13.74969 v 344.30787 c 0,5.57894 2.24634,10.16179 6.73893,13.74829 4.49259,3.58656 10.23346,5.37999 17.22164,5.37999 h 47.91971 c 6.9882,0 12.7291,-1.79343 17.2216,-5.37999 4.4926,-3.5865 6.739,-8.16935 6.739,-13.74829 v -19.12828 c 43.9275,0 82.988,-10.6604 117.1818,-31.98067 34.1937,-21.32022 56.7802,-48.51829 67.7623,-81.594 l -1.6281,-167.30323 C 1246.5107,387.281 1230.3381,340.0351 1202.9003,294.26511 1169.4554,238.47463 1124.7788,190.1546 1068.8712,149.30805 1012.9635,108.46149 946.57362,75.884527 869.70073,51.575528 792.82762,27.266527 712.96098,15.112267 630.09784,15.112267 Z M 1251.4387,436.00157 c 0,0.0201 0,0.04 0.011,0.0601 l -0.011,-0.12839 z m 0.011,0.0601 1.6211,32.15001 c 0,-10.78759 -0.5463,-21.50333 -1.6211,-32.15001 z M 8.7801159,436.26657 v -0.0697 l -0.0065,0.13112 c 0.0022,-0.0205 0.0044,-0.041 0.0065,-0.0615 z m -0.0065,0.0615 c -1.074721,10.64612 -1.621224,21.36164 -1.621224,32.14865 z"
     id="path5"
     inkscape:connector-curvature="0" /><rect
     id="rect8"
     width="873.91266"
     height="894.72021"
     x="867.99237"
     y="848.30566"
     style="fill:none;stroke:#00ff00;stroke-width:56.69291339;stroke-linejoin:miter;stroke-miterlimit:4;stroke-dasharray:none;stroke-opacity:1" /><g
     id="g4542"
     style="stroke:#00ff00;stroke-opacity:1"><path
       sodipodi:nodetypes="ccccccccccccccsccccccc"
       inkscape:connector-curvature="0"
       id="path4492"
       d="m 1538.6162,942.32409 c 4.1397,-1.21487 -77.3909,13.8022 -111.6558,43.85289 -32.6468,29.63952 -106.4081,88.14592 -119.8721,102.32302 -7.7612,6.4774 -51.6721,80.6399 -87.4203,110.5449 -44.3317,42.0408 -59.6404,81.1082 -78.7425,148.0567 -10.3271,78.191 -33.8817,172.6788 -60.7596,201.8611 -72.084,51.5454 -62.6522,51.5454 -103.46082,80.7092 -28.76735,20.054 27.99052,-26.9672 40.80862,-29.1638 49.3179,-32.0725 70.1977,-66.6364 97.0756,-95.8187 14.1227,-94.4878 1.8863,15.091 16.0091,-79.3968 2.8331,-77.4249 37.4329,-163.7534 89.0696,-226.2477 23.9532,-44.0686 80.6073,-38.0116 130.7334,-23.4023 66.3267,1.4954 70.5413,-1.8122 128.347,-4.0878 65.657,-17.7088 115.3273,-25.1787 126.0582,-32.5626 -39.7237,10.43 -56.5981,29.5059 -126.2787,33.5005 -102.8023,5.8934 -128.1265,3.1499 -214.1015,-20.7387 10.242,-41.4113 134.3187,-143.2286 162.534,-165.57702 37.5172,-16.7481 115.7718,-44.65251 111.3326,-43.81565 -0.8693,-0.99476 0.3232,-0.0372 0.3232,-0.0372 z m 66.1904,196.66811 c 0.1047,-0.019 0.2098,-0.04 0.3145,-0.059 2.7494,-2.1852 2.4182,-1.8217 -0.3145,0.059 z"
       style="fill:none;stroke:#00ff00;stroke-width:56.69291306;stroke-linejoin:miter;stroke-miterlimit:4;stroke-dasharray:none;stroke-opacity:1" /><path
       sodipodi:nodetypes="ccccccccccccccsccccccc"
       inkscape:connector-curvature="0"
       id="path4492-1"
       d="m 1671.6058,1480.4796 c 1.8566,-2.1665 -29.409,44.5943 -56.6694,53.3379 -26.5727,7.8674 -81.578,29.5307 -93.6988,31.8778 -5.9787,2.1321 -62.1199,-3.046 -89.7,6.7408 -37.1499,9.8596 -64.581,1.9835 -109.6353,-16.2078 -49.3378,-29.1329 -111.9925,-57.0482 -136.7129,-52.7676 -50.4054,23.758 -47.8218,17.5503 -76.3472,31.0082 -19.8085,9.7189 23.7077,-6.0308 28.5254,-13.4579 32.5864,-17.7221 58.8649,-15.582 83.5855,-19.8627 60.0709,34.1234 -8.4596,-8.176 51.6114,25.9471 46.8292,33.7132 107.6563,50.6097 158.9731,45.3407 32.774,4.4848 44.6901,-35.5867 49.731,-75.2915 17.2789,-44.3417 20.4008,-45.5957 37.5888,-82.5963 28.5185,-35.0763 46.5675,-64.3354 53.899,-68.0053 -17.0852,21.3524 -33.054,23.6931 -54.5173,67.7195 -31.6654,64.9537 -36.9705,82.8821 -46.3119,150.4457 27.4374,12.288 121.9873,-22.5896 143.0092,-30.8907 20.2388,-16.9969 58.2725,-55.6796 56.5587,-53.1425 0.354,1.0292 0.1107,-0.1955 0.1107,-0.1955 z m -98.8494,-133.9366 c 0.04,-0.061 0.081,-0.1199 0.1213,-0.1799 2.0526,-0.8061 1.7461,-0.754 -0.1213,0.1799 z"
       style="fill:none;stroke:#00ff00;stroke-width:56.69291306;stroke-linejoin:miter;stroke-miterlimit:4;stroke-dasharray:none;stroke-opacity:1" /><path
       sodipodi:nodetypes="ccccccccccccccscccccccc"
       inkscape:connector-curvature="0"
       id="path4492-1-5"
       d="m 1040.6752,1019.8629 c 1.4202,-1.4902 -31.4706,25.3966 -32.1837,43.2578 -0.1226,17.2964 -5.0723,54.037 -4.0442,61.7101 -0.3437,3.9547 18.4314,36.6984 16.8886,54.9331 0.8233,23.9825 14.6649,39.0498 41.9876,62.8812 37.9637,24.4917 78.2455,57.1766 80.7843,72.7379 -7.9465,34.3488 -3.1823,31.7186 -7.6905,51.1595 -3.4567,13.5652 -0.7535,-15.2593 4.5082,-19.4409 7.2005,-22.6179 -1.3401,-37.9939 -3.8788,-53.5552 -45.0463,-30.0546 9.2866,3.6451 -35.7595,-26.4096 -41.3261,-22.1901 -71.5228,-55.6999 -79.9513,-87.3729 -12.237,-18.8603 19.7257,-32.9851 53.1139,-42.9254 34.3297,-18.0829 34.6319,-20.1724 62.5748,-36.9214 23.386,-23.2042 63.0249,-61.7959 45.6937,-44.1536 -14.3058,13.9604 -16.2969,17.2693 -46.6211,45.8082 -41.751,39.293 -61.6474,35.2668 -118.2684,52.6394 -17.6954,-14.3021 -11.248,-77.0451 -9.3373,-91.0904 9.7023,-15.0914 33.8213,-44.6266 32.0412,-43.1574 -0.9885,-0.033 0.1426,-0.1004 0.1426,-0.1004 z m 142.0431,35.9006 c 0.043,-0.035 0.1263,-0.104 0.1263,-0.104 0.1826,-1.3706 0.215,-1.1779 -0.1263,0.104 z"
       style="fill:none;stroke:#00ff00;stroke-width:56.69291306;stroke-linejoin:miter;stroke-miterlimit:4;stroke-dasharray:none;stroke-opacity:1" /></g></svg>
