/* XPM */
static const char *xnat-icon[] = {
/* columns rows colors chars-per-pixel */
"48 48 139 2 ",
"   c #006600",
".  c #006D00",
"X  c #007500",
"o  c #007D00",
"O  c #007C0B",
"+  c #01781C",
"@  c #00653D",
"#  c #407700",
"$  c #7F6B00",
"%  c #7E680A",
"&  c #4A5A31",
"*  c #575A34",
"=  c #515C3E",
"-  c #646029",
";  c #01376E",
":  c #013479",
">  c #005B44",
",  c #004F50",
"<  c #00415F",
"1  c #294250",
"2  c #006245",
"3  c #006E41",
"4  c #00614B",
"5  c #0E614D",
"6  c #00615B",
"7  c #00586F",
"8  c #174175",
"9  c #325067",
"0  c #224C7E",
"q  c #006D69",
"w  c #475E4D",
"e  c #425654",
"r  c #8A6D00",
"t  c #8D7604",
"y  c #847209",
"u  c #937A01",
"i  c #9A7E01",
"p  c #008300",
"a  c #008C00",
"s  c #00850F",
"d  c #009200",
"f  c #009C00",
"g  c #1C9700",
"h  c #259B00",
"j  c #289A00",
"k  c #00A500",
"l  c #00AB00",
"z  c #18A600",
"x  c #00B400",
"c  c #00BB00",
"v  c #1CBE00",
"b  c #00AD13",
"n  c #34B601",
"m  c #00852A",
"M  c #008A3B",
"N  c #009436",
"B  c #00A026",
"V  c #429300",
"C  c #6D8700",
"Z  c #738500",
"A  c #758800",
"S  c #6D9100",
"D  c #78B800",
"F  c #00C300",
"G  c #00CB00",
"H  c #09CB00",
"J  c #17CB00",
"K  c #2FC900",
"L  c #35C500",
"P  c #52C500",
"I  c #9D8300",
"U  c #A38500",
"Y  c #A58B00",
"T  c #AC8E00",
"R  c #A69000",
"E  c #AD9200",
"W  c #B29500",
"Q  c #B49A00",
"!  c #BA9C00",
"~  c #82BD00",
"^  c #B7A200",
"/  c #BDA200",
"(  c #ACBF00",
")  c #BAB300",
"_  c #C3A400",
"`  c #C6AA00",
"'  c #CAAD00",
"]  c #CEB100",
"[  c #CCB900",
"{  c #D2B500",
"}  c #D6BA00",
"|  c #DABD00",
" . c #81C800",
".. c #90C500",
"X. c #D7C000",
"o. c #DDC200",
"O. c #E2C500",
"+. c #E5C900",
"@. c #E9CE00",
"#. c #EED200",
"$. c #F1D600",
"%. c #F5DA00",
"&. c #003585",
"*. c #00368B",
"=. c #00398F",
"-. c #013A92",
";. c #003D9A",
":. c #1D4B82",
">. c #0E4693",
",. c #01409F",
"<. c #004D9B",
"1. c #005B94",
"2. c #006788",
"3. c #00669F",
"4. c #007D96",
"5. c #0142A4",
"6. c #0846A3",
"7. c #0145AC",
"8. c #034CAC",
"9. c #0047B3",
"0. c #0049B5",
"q. c #004BBC",
"w. c #0050BA",
"e. c #006AAC",
"r. c #0073A6",
"t. c #006FB0",
"y. c #004EC2",
"u. c #0050C6",
"i. c #0052CB",
"p. c #0055D3",
"a. c #0057D9",
"s. c #0059DD",
"d. c #005CE4",
"f. c #005EEA",
"g. c #0060EE",
"h. c #0062F4",
"j. c #0066FD",
"k. c #0068FF",
"l. c None",
/* pixels */
"l.l.l.l.l.l.l.l.l.l.l.l.l.l.l.l.l.l.l.l.l.l.l.l.l.l.l.l.l.l.l.l.l.l.l.l.l.l.l.l.l.l.l.l.l.l.l.l.",
"l.l.l.l.l.l.l.l.l.l.l.l.l.l.l.l.l.l.l.l.l.l.l.l.$.%.%.%.O.l.l.l.l.l.l.l.l.l.l.l.l.l.l.l.l.l.l.l.",
"l.l.l.l.l.l.l.l.l.l.l.l.l.l.#.#.#.#.$.%.%.%.%.%.%.%.%.o.l.l.l.l.l.l.l.l.l.l.l.l.l.l.l.l.l.l.l.l.",
"l.l.l.l.l.l.l.l.l.l.l.l.l.@.@.@.#.$.$.$.%.%.%.%.%.%.+.l.l.l.l.l.l.l.l.l.l.l.l.G G l.l.l.l.l.l.l.",
"l.l.l.l.l.l.l.l.l.l.l.l.l.+.@.@.@.#.#.$.%.%.%.%.%.@.l.l.l.l.l.l.l.l.l.l.l.G G G F l.l.l.l.l.l.l.",
"l.l.l.l.l.l.l.l.l.l.l.l.l.O.O.+.@.@.#.#.$.$.%.%.%.^ l.l.l.l.l.l.l.l.G G G G G G x l.l.l.l.l.l.l.",
"l.l.l.l.l.l.l.l.l.l.l.l.l.O.O.O.+.@.@.@.#.#.$.%.X.l.l.l.l.l.l.l.l.G G G G G G G k l.l.l.l.l.l.l.",
"l.l.l.l.l.l.l.l.l.l.l.l.l.| O.O.O.+.@.@.#.#.$.$.l.l.l.l.l.l.l.G G G G G G G G G l.l.l.l.l.l.l.l.",
"l.l.l.l.l.l.l.l.l.l.l.l.l.| o.O.O.O.O.@.@.@.#.+.l.l.l.l.l.G G G G G G G G G F F l.l.l.l.l.l.l.l.",
"l.l.l.l.l.l.l.l.l.l.l.l.l.} | | O.O.O.O.@.@.@.X.l.l.l.l.G G G G G G G G G G F c l.l.l.l.l.l.l.l.",
"l.l.l.l.l.l.l.l.l.l.l.l.l.l.} | | O.O.O.O.+.@.| l.l.l.G G G G G G G G G F F c x l.l.l.l.l.l.l.l.",
"l.l.l.l.l.l.l.l.l.l.l.l.l.l.} } } | o.O.O.+.+.X.l.l.G G G G G G G G F F F c c l l.l.l.l.l.l.l.l.",
"l.l.l.l.l.l.l.l.l.l.l.l.l.l.{ } } | | o.O.O.O.o.n G G G G G G G F F F c c c c k l.l.l.l.l.l.l.l.",
"l.l.l.l.l.l.l.l.l.l.l.l.l.l.l.{ } } | | o.o.O. .H G G G G G G G F F F c c x x k l.l.l.l.l.l.l.l.",
"l.l.l.l.l.l.l.l.l.l.l.l.l.l.l.] { } } } X.o...J G G G G G F G F F c c x x x l f l.l.l.l.l.l.l.l.",
"l.l.l.l.l.l.l.l.l.h.l.l.l.l.l.l.] { { } | ( K G G G G G G F F F c c x x x l l f l.l.l.l.l.l.l.l.",
"l.l.l.l.l.l.l.l.l.k.h.s.l.l.l.l.' ] { } [ P G G G G F F F F c c x x x x l l k d l.l.l.l.l.l.l.l.",
"l.l.l.l.l.l.l.l.l.k.k.k.f.l.l.l.l.' ] { ~ H G G G G F F F c c x x x l l l k k d l.l.l.l.l.l.l.l.",
"l.l.l.l.l.l.l.l.l.k.k.k.k.h.s.l.l.l.' ) L G G G F F F c c x x x l x l l k k k d l.l.l.l.l.l.l.l.",
"l.l.l.l.l.l.l.l.j.k.k.k.k.k.j.f.l.l._ D G G F F F F c c c x x x l l k k l f l.l.l.l.l.l.l.l.l.l.",
"l.l.l.l.l.l.l.l.j.j.k.k.k.k.k.k.h.l.l.v H F F F c c c c x x l l l k l f l.l.l.l.l.l.l.l.l.l.l.l.",
"l.l.l.l.l.l.l.l.j.k.k.k.k.k.k.k.j.j.t.b c F c c c x x x l l l l k k a l.l.l.l.l.l.l.l.l.l.l.l.l.",
"l.l.l.l.l.l.l.l.j.k.k.k.k.k.k.k.j.j.h.4.B x c c c x l l l k k l d l.l.l.l.l.l.l.l.l.l.l.l.l.l.l.",
"l.l.l.l.l.l.l.l.j.k.k.k.k.k.k.k.j.h.h.f.r.N l x x l l l l k z V l.l.l.l.l.l.l.l.l.l.l.l.l.l.l.l.",
"l.l.l.l.l.l.l.j.j.k.k.k.j.k.k.h.h.h.g.f.f.e.M k l l l k k h S E l.l.l.l.l.l.l.l.l.l.l.l.l.l.l.l.",
"l.l.l.l.l.l.l.j.k.k.k.k.k.h.h.h.g.g.f.d.d.s.e.M k k k k j A E ] Q l.l.l.l.l.l.l.l.l.l.l.l.l.l.l.",
"l.l.l.l.l.l.l.j.k.k.k.k.j.h.h.h.g.d.d.s.s.a.p.3.m f f j Z E ` { ] l.l.l.l.l.l.l.l.l.l.l.l.l.l.l.",
"l.l.l.l.l.l.l.l.l.l.h.h.h.h.g.f.f.d.d.s.a.p.p.p.2.s g C Y / ] { { l.l.l.l.l.l.l.l.l.l.l.l.l.l.l.",
"l.l.l.l.l.l.l.l.l.l.l.l.f.f.f.d.d.s.s.a.p.p.i.u.i.q # I ^ ` ] ] { l.l.l.l.l.l.l.l.l.l.l.l.l.l.l.",
"l.l.l.l.l.l.l.l.l.l.l.l.l.l.s.s.s.a.a.p.i.i.u.u.y.w.1 U _ ` ` ] { l.l.l.l.l.l.l.l.l.l.l.l.l.l.l.",
"l.l.l.l.l.l.l.l.l.l.l.l.l.l.l.l.p.p.p.i.i.u.y.y.q.q.5.r ! ` ` ' ] l.l.l.l.l.l.l.l.l.l.l.l.l.l.l.",
"l.l.l.l.l.l.l.l.l.l.l.l.l.l.l.l.l.l.1.u.u.y.y.q.0.9.q.= W _ _ ` ' l.l.l.l.l.l.l.l.l.l.l.l.l.l.l.",
"l.l.l.l.l.l.l.l.l.l.l.l.l.l.l.l.l.l.O 6 8.y.q.0.9.7.0.:.U / _ _ ' l.l.l.l.l.l.l.l.l.l.l.l.l.l.l.",
"l.l.l.l.l.l.l.l.l.l.l.l.l.l.l.l.l.l.d p 2 <.0.9.7.7.7.6.i ! _ _ ` l.l.l.l.l.l.l.l.l.l.l.l.l.l.l.",
"l.l.l.l.l.l.l.l.l.l.l.l.l.l.l.l.l.l.l.d p @ <.7.7.5.5.8.u W ! / _ l.l.l.l.l.l.l.l.l.l.l.l.l.l.l.",
"l.l.l.l.l.l.l.l.l.l.l.l.l.l.l.l.l.l.l.d a p 4 5.5.5.;.7.t W ! _ R l.l.l.l.l.l.l.l.l.l.l.l.l.l.l.",
"l.l.l.l.l.l.l.l.l.l.l.l.l.l.l.l.l.l.l.a a p O 7 ,.;.;.6.t T ! _ l.l.l.l.l.l.l.l.l.l.l.l.l.l.l.l.",
"l.l.l.l.l.l.l.l.l.l.l.l.l.l.l.l.l.l.l.a a p p 3 ;.;.;.>.t T Q ! l.l.l.l.l.l.l.l.l.l.l.l.l.l.l.l.",
"l.l.l.l.l.l.l.l.l.l.l.l.l.l.l.l.l.l.l.l.p o p + =.-.;.0 i T / l.l.l.l.l.l.l.l.l.l.l.l.l.l.l.l.l.",
"l.l.l.l.l.l.l.l.l.l.l.l.l.l.l.l.l.l.l.l.o X o O &.=.;.e u T Q l.l.l.l.l.l.l.l.l.l.l.l.l.l.l.l.l.",
"l.l.l.l.l.l.l.l.l.l.l.l.l.l.l.l.l.l.l.l.l.X X p : *.;.- i Q l.l.l.l.l.l.l.l.l.l.l.l.l.l.l.l.l.l.",
"l.l.l.l.l.l.l.l.l.l.l.l.l.l.l.l.l.l.l.l.l.X X p ; &.>.% U E l.l.l.l.l.l.l.l.l.l.l.l.l.l.l.l.l.l.",
"l.l.l.l.l.l.l.l.l.l.l.l.l.l.l.l.l.l.l.l.l.l.. p < *.9 r T l.l.l.l.l.l.l.l.l.l.l.l.l.l.l.l.l.l.l.",
"l.l.l.l.l.l.l.l.l.l.l.l.l.l.l.l.l.l.l.l.l.l.  X , -.* I l.l.l.l.l.l.l.l.l.l.l.l.l.l.l.l.l.l.l.l.",
"l.l.l.l.l.l.l.l.l.l.l.l.l.l.l.l.l.l.l.l.l.l.l.. > 8 y u l.l.l.l.l.l.l.l.l.l.l.l.l.l.l.l.l.l.l.l.",
"l.l.l.l.l.l.l.l.l.l.l.l.l.l.l.l.l.l.l.l.l.l.l.  4 w $ l.l.l.l.l.l.l.l.l.l.l.l.l.l.l.l.l.l.l.l.l.",
"l.l.l.l.l.l.l.l.l.l.l.l.l.l.l.l.l.l.l.l.l.l.l.l.5 & l.l.l.l.l.l.l.l.l.l.l.l.l.l.l.l.l.l.l.l.l.l.",
"l.l.l.l.l.l.l.l.l.l.l.l.l.l.l.l.l.l.l.l.l.l.l.l.l.l.l.l.l.l.l.l.l.l.l.l.l.l.l.l.l.l.l.l.l.l.l.l."
};
