/* XPM */
static const char * chili_lightbox_import_xpm[] = {
"9 18 12 1",
" 	c None",
".	c #100C00",
"+	c #313431",
"@	c #524500",
"#	c #FFC700",
"$	c #8C6D00",
"%	c #BD9A00",
"&	c #8C6100",
"*	c #FFCB00",
"=	c #845D00",
"-	c #BD9200",
";	c #5A3C00",
" ..+     ",
".@#.+    ",
".$#%.+   ",
".@#%.+   ",
".$##%.+  ",
".@##%.+  ",
".$###%.+ ",
".@###%.+ ",
".&###*%.+",
".=###*%.+",
".&###-.+ ",
".=###-.+ ",
".&##-.+  ",
".=##-.+  ",
".&#-.+   ",
".=#-.+   ",
".;#.+    ",
" ..+     "};
