/* XPM */
static const char * mitk_chili_plugin_xpm[] = {
"40 40 344 2",
"  	c None",
". 	c #000000",
"+ 	c #674F00",
"@ 	c #937100",
"# 	c #967500",
"$ 	c #937300",
"% 	c #695300",
"& 	c #695800",
"* 	c #937C00",
"= 	c #968000",
"- 	c #937E00",
"; 	c #695B00",
"> 	c #775B00",
", 	c #D7A400",
"' 	c #F2BA00",
") 	c #F4BD00",
"! 	c #F2BD00",
"~ 	c #DBAD00",
"{ 	c #A88600",
"] 	c #937500",
"^ 	c #594800",
"/ 	c #695700",
"( 	c #A68A00",
"_ 	c #DBB700",
": 	c #F2CC00",
"< 	c #F4CE00",
"[ 	c #F2CE00",
"} 	c #DBBC00",
"| 	c #A89100",
"1 	c #937F00",
"2 	c #675A00",
"3 	c #775A00",
"4 	c #D9A400",
"5 	c #F8BC00",
"6 	c #FABF00",
"7 	c #FCC300",
"8 	c #FAC300",
"9 	c #F4BF00",
"0 	c #ECBC00",
"a 	c #8F7200",
"b 	c #655300",
"c 	c #D6B000",
"d 	c #F4CA00",
"e 	c #FAD000",
"f 	c #FAD100",
"g 	c #FCD400",
"h 	c #FAD400",
"i 	c #FAD500",
"j 	c #F4D200",
"k 	c #F2D100",
"l 	c #D7BB00",
"m 	c #776700",
"n 	c #674D00",
"o 	c #D9A200",
"p 	c #F8BB00",
"q 	c #FABD00",
"r 	c #FCC100",
"s 	c #FCC200",
"t 	c #FCC400",
"u 	c #FAC400",
"v 	c #DDAE00",
"w 	c #665300",
"x 	c #DBB300",
"y 	c #FACE00",
"z 	c #FCD100",
"A 	c #FCD300",
"B 	c #FCD500",
"C 	c #FCD600",
"D 	c #FCD800",
"E 	c #FAD700",
"F 	c #F8D700",
"G 	c #D9BC00",
"H 	c #926B00",
"I 	c #F2B300",
"J 	c #FABA00",
"K 	c #FCBE00",
"L 	c #FCBF00",
"M 	c #F6C000",
"N 	c #A88400",
"O 	c #A68700",
"P 	c #F4C800",
"Q 	c #FCD700",
"R 	c #FAD800",
"S 	c #F2D200",
"T 	c #927F00",
"U 	c #966E00",
"V 	c #F4B400",
"W 	c #FCBC00",
"X 	c #FCBD00",
"Y 	c #FCC000",
"Z 	c #FAC100",
"` 	c #F2BB00",
" .	c #6A5600",
"..	c #DDB400",
"+.	c #FACD00",
"@.	c #FAD600",
"#.	c #966D00",
"$.	c #F4B300",
"%.	c #FCBB00",
"&.	c #FAC000",
"*.	c #DDAA00",
"=.	c #695200",
"-.	c #A88900",
";.	c #F6C900",
">.	c #FCD000",
",.	c #FCD200",
"'.	c #DDBE00",
").	c #F4B200",
"!.	c #FCB900",
"~.	c #F6BB00",
"{.	c #A88200",
"].	c #967900",
"^.	c #F4C600",
"/.	c #FCCE00",
"(.	c #F6D100",
"_.	c #A89000",
":.	c #966C00",
"<.	c #F4B100",
"[.	c #FCB800",
"}.	c #F4B900",
"|.	c #987400",
"1.	c #967800",
"2.	c #F4C500",
"3.	c #FCCD00",
"4.	c #FCCF00",
"5.	c #674700",
"6.	c #906400",
"7.	c #674800",
"8.	c #986D00",
"9.	c #F4B000",
"0.	c #FCB700",
"a.	c #F6B900",
"b.	c #A88000",
"c.	c #A88700",
"d.	c #F6C500",
"e.	c #FCCC00",
"f.	c #F4CD00",
"g.	c #988100",
"h.	c #675900",
"i.	c #594D00",
"j.	c #674600",
"k.	c #D79300",
"l.	c #F0A500",
"m.	c #D79600",
"n.	c #7D5800",
"o.	c #AC7A00",
"p.	c #F6B000",
"q.	c #FCB600",
"r.	c #FCBA00",
"s.	c #FABC00",
"t.	c #DFA900",
"u.	c #7A5D00",
"v.	c #7A6000",
"w.	c #DFB100",
"x.	c #FAC800",
"y.	c #FCCB00",
"z.	c #F6CF00",
"A.	c #AC9200",
"B.	c #7D6B00",
"C.	c #D7B900",
"D.	c #ECCD00",
"E.	c #936300",
"F.	c #F2A400",
"G.	c #FAAB00",
"H.	c #F8AC00",
"I.	c #DF9B00",
"J.	c #BE8500",
"K.	c #E3A100",
"L.	c #FAB200",
"M.	c #FCB500",
"N.	c #DDA700",
"O.	c #A88100",
"P.	c #967300",
"Q.	c #967400",
"R.	c #A88300",
"S.	c #DDAD00",
"T.	c #F8C300",
"U.	c #FAC600",
"V.	c #FCCA00",
"W.	c #E3BF00",
"X.	c #BEA100",
"Y.	c #DFBE00",
"Z.	c #F8D400",
"`.	c #F4D400",
" +	c #968200",
".+	c #A87100",
"++	c #F6A600",
"@+	c #FCAC00",
"#+	c #FAAC00",
"$+	c #FAAD00",
"%+	c #F6AC00",
"&+	c #FAB000",
"*+	c #FAB100",
"=+	c #FCB400",
"-+	c #FABB00",
";+	c #F4BA00",
">+	c #F4BB00",
",+	c #FCC700",
"'+	c #FCC900",
")+	c #FACF00",
"!+	c #FCD900",
"~+	c #F4D300",
"{+	c #694600",
"]+	c #DD9400",
"^+	c #FAA800",
"/+	c #FCAB00",
"(+	c #FCAE00",
"_+	c #FCAF00",
":+	c #FCB100",
"<+	c #FCB200",
"[+	c #FCB300",
"}+	c #FCC500",
"|+	c #F4D100",
"1+	c #968100",
"2+	c #926000",
"3+	c #F2A100",
"4+	c #FAA600",
"5+	c #FCAA00",
"6+	c #FCB000",
"7+	c #FCC600",
"8+	c #FCC800",
"9+	c #F2CF00",
"0+	c #927D00",
"a+	c #925F00",
"b+	c #F29F00",
"c+	c #FCA900",
"d+	c #FAAA00",
"e+	c #F6AA00",
"f+	c #FAAE00",
"g+	c #FAB700",
"h+	c #FAB900",
"i+	c #F4B600",
"j+	c #F4B800",
"k+	c #FACB00",
"l+	c #FACC00",
"m+	c #F6CA00",
"n+	c #FAD300",
"o+	c #DDBB00",
"p+	c #695A00",
"q+	c #674300",
"r+	c #D98E00",
"s+	c #F8A400",
"t+	c #F8A800",
"u+	c #DF9900",
"v+	c #BE8300",
"w+	c #E39D00",
"x+	c #FAB500",
"y+	c #F8B600",
"z+	c #DDA300",
"A+	c #A87D00",
"B+	c #967000",
"C+	c #967100",
"D+	c #DDA900",
"E+	c #F8BF00",
"F+	c #FACA00",
"G+	c #E3B800",
"H+	c #BE9B00",
"I+	c #DDB600",
"J+	c #F2C900",
"K+	c #F4CB00",
"L+	c #EEC800",
"M+	c #A48A00",
"N+	c #774E00",
"O+	c #D78D00",
"P+	c #F2A000",
"Q+	c #D79000",
"R+	c #7D5500",
"S+	c #AC7700",
"T+	c #FAB400",
"U+	c #DFA200",
"V+	c #7A5900",
"W+	c #DFAB00",
"X+	c #F6C600",
"Y+	c #AC8C00",
"Z+	c #6B5800",
"`+	c #937A00",
" @	c #967C00",
".@	c #927A00",
"+@	c #594C00",
"@@	c #936000",
"#@	c #936200",
"$@	c #674500",
"%@	c #996900",
"&@	c #F4A800",
"*@	c #A87A00",
"=@	c #F6BD00",
"-@	c #F4C300",
";@	c #987A00",
">@	c #A87300",
",@	c #F6A900",
"'@	c #F4AE00",
")@	c #F4C200",
"!@	c #6A4800",
"~@	c #DD9600",
"{@	c #FCAD00",
"]@	c #F6AE00",
"^@	c #A87800",
"/@	c #F6C300",
"(@	c #A66E00",
"_@	c #F4A300",
":@	c #FAA900",
"<@	c #DD9D00",
"[@	c #694B00",
"}@	c #A87E00",
"|@	c #FAC500",
"1@	c #DDAF00",
"2@	c #695400",
"3@	c #694500",
"4@	c #DD9200",
"5@	c #FAA700",
"6@	c #FAAF00",
"7@	c #F2AB00",
"8@	c #906700",
"9@	c #694E00",
"0@	c #DDA500",
"a@	c #F2BF00",
"b@	c #927400",
"c@	c #8F5D00",
"d@	c #EC9B00",
"e@	c #F4A200",
"f@	c #F4A900",
"g@	c #F2A900",
"h@	c #D79700",
"i@	c #674900",
"j@	c #906A00",
"k@	c #F2BE00",
"l@	c #927300",
"m@	c #593A00",
"n@	c #A86F00",
"o@	c #DB9200",
"p@	c #F2A200",
"q@	c #DB9500",
"r@	c #A87400",
"s@	c #936600",
"t@	c #674C00",
"u@	c #D79F00",
"v@	c #F4B700",
"w@	c #D7A800",
"x@	c #675100",
"y@	c #694700",
"z@	c #936C00",
"A@	c #966F00",
"B@	c #967200",
"C@	c #675000",
"                                                                                ",
"                                                                                ",
"                                                                                ",
"                                                                                ",
"                                                                                ",
"                                                                                ",
"                                                                                ",
"                    . . . . . . .             . . . . . . .                     ",
"                  . . + @ # $ % . . . .   . . . & * = - ; . . . .               ",
"                . . > , ' ) ! ~ { ] ^ . . . / ( _ : < [ } | 1 2 . .             ",
"              . . 3 4 5 6 7 8 8 9 0 a . . b c d e f g h i j k l m . .           ",
"              . n o p q r s 7 t u v % . . w x y z A A B C D E F G 2 .           ",
"              . H I J K L r s t M N . . . . O P y z A g C Q D R S T .           ",
"              . U V W X K Y r Z ` $ .     .  ...+.z z A B B Q @.k T .           ",
"              . #.$.%.W X K Y &.*.=..     . . -.;.>.>.,.A B C @.'.; .           ",
"              . #.).!.%.X X L ~.{.. .       . ].^./.>.z A g B (._.. .           ",
"    . . . . . . :.<.[.!.%.X K }.|..         . 1.2.3.4.>.,.A g < = . . . . . . . ",
"  . . 5.6.7.. . 8.9.0.!.%.%.X a.b.. .     . . c.d.e.3.4.>.,.A f.g.. . h.1 T i.. ",
"  . j.k.l.m.n.. o.p.q.0.r.r.W s.t.u.. . . . v.w.x.y.e./.4.z ,.z.A.. B.C.S D.T . ",
"  . E.F.G.H.I.J.K.L.M.0.[.!.%.J p N.O.P.Q.R.S.T.U.V.e.3.4.>.z f W.X.Y.Z.E `. +. ",
". . .+++@+#+$+%+&+*+=+q.[.!.r.W -+s.}.;+>+) 8 u ,+'+y.y.3./.>.)+f z.h i !+~+ +. ",
". {+]+^+/+@+(+_+:+<+[+M.q.0.!.r.W X K Y s 7 t }+,+'+'+y.3./.4.z ,.A g C Q |+1+. ",
". 2+3+4+5+@+@+(+6+:+<+=+M.0.[.!.%.X X L Y r 7 t 7+,+8+V.y.e./.4.>.,.g B h 9+0+. ",
". a+b+4+c+/+d+G.e+f+&+<+=+q.0.[.g+h+i+j+}.;+&.Z t 7+,+'+V.y.k+l+m+e f A n+o+p+. ",
". q+r+s+4+^+t+u+v+w+f+:+[+=+q.x+y+z+A+B+C+b.D+E+Z }+,+8+'+y.F+G+H+I+J+K+L+M+. . ",
". . N+O+P+3+Q+R+. S+e+6+[+=+M.T+U+V+. . . . u.W+Z t }+,+8+V.X+Y+. Z+`+ @.@+@.   ",
"  . . q+@@#@$@. . %@&@6+:+<+=+p.*@. .     . . b.=@7 t 7+8+'+-@;@. . . . . . .   ",
"    . . . . . . . >@,@_+6+:+[+'@8..         . C+;+s t }+,+8+)@1..               ",
"              . !@~@d+{@_+6+:+]@^@. .       . C+}.r s t }+7+/@{ . .             ",
"            . . (@_@:@{@(+6+6+&+<@[@.     . . }@a.Y r s t }+|@1@2@.             ",
"            . 3@4@5@5+@+{@(+6+6@7@8@.     . 9@0@s.L Y r 7 t u a@b@.             ",
"            . c@d@e@5@:@d+G.f@g@h@i@.     . j@I -+K L r s t 8 k@l@.             ",
"            . m@@@n@o@p@F.q@r@s@7.. .     . t@u@I v@j+}.;+>+` w@x@.             ",
"            . . . . {+#@#@y@. . . .       . . t@z@A@B+C+B@P.@ C@. .             ",
"                  . . . . . .               . . . . . . . . . . .               ",
"                                                                                ",
"                                                                                ",
"                                                                                ",
"                                                                                ",
"                                                                                "};
