<?xml version="1.0" encoding="UTF-8" standalone="no"?>
<!-- Created with Inkscape (http://www.inkscape.org/) -->

<svg
   xmlns:dc="http://purl.org/dc/elements/1.1/"
   xmlns:cc="http://creativecommons.org/ns#"
   xmlns:rdf="http://www.w3.org/1999/02/22-rdf-syntax-ns#"
   xmlns:svg="http://www.w3.org/2000/svg"
   xmlns="http://www.w3.org/2000/svg"
   xmlns:sodipodi="http://sodipodi.sourceforge.net/DTD/sodipodi-0.dtd"
   xmlns:inkscape="http://www.inkscape.org/namespaces/inkscape"
   version="1.1"
   id="svg2"
   xml:space="preserve"
   width="415.84"
   height="472.48001"
   viewBox="0 0 415.84 472.48001"
   sodipodi:docname="IGTLayers.svg"
   inkscape:version="0.92.2 (5c3e80d, 2017-08-06)"><metadata
     id="metadata8"><rdf:RDF><cc:Work
         rdf:about=""><dc:format>image/svg+xml</dc:format><dc:type
           rdf:resource="http://purl.org/dc/dcmitype/StillImage" /><dc:title></dc:title></cc:Work></rdf:RDF></metadata><defs
     id="defs6"><clipPath
       clipPathUnits="userSpaceOnUse"
       id="clipPath18"><path
         d="M 0,6.104e-6 H 311.88 V 354.36001 H 0 Z"
         id="path16"
         inkscape:connector-curvature="0"
         style="clip-rule:evenodd" /></clipPath><clipPath
       clipPathUnits="userSpaceOnUse"
       id="clipPath32"><path
         d="m 9.117,92.464 c -3.6534,0 -6.615,-2.962 -6.615,-6.615 v -26.46 c 0,-3.653 2.9616,-6.615 6.615,-6.615 H 302.06 c 3.66,0 6.62,2.962 6.62,6.615 v 26.46 c 0,3.653 -2.96,6.615 -6.62,6.615 z M -2.26e-7,354.36 H 311.88 V 0 H -2.26e-7 Z"
         id="path30"
         inkscape:connector-curvature="0"
         style="clip-rule:evenodd" /></clipPath><clipPath
       clipPathUnits="userSpaceOnUse"
       id="clipPath48"><path
         d="m 13.543,352.14 c -6.0976,0 -11.041,-4.95 -11.041,-11.05 V 114.44 c 0,-6.1 4.9434,-11.04 11.041,-11.04 H 297.64 c 6.09,0 11.04,4.94 11.04,11.04 v 226.65 c 0,6.1 -4.95,11.05 -11.04,11.05 z M -2.26e-7,354.36 H 311.88 V 0 H -2.26e-7 Z"
         id="path46"
         inkscape:connector-curvature="0"
         style="clip-rule:evenodd" /></clipPath><clipPath
       clipPathUnits="userSpaceOnUse"
       id="clipPath64"><path
         d="M 0,0 H 311.88 V 354.36 H 0 Z"
         id="path62"
         inkscape:connector-curvature="0"
         style="clip-rule:evenodd" /></clipPath><clipPath
       clipPathUnits="userSpaceOnUse"
       id="clipPath74"><path
         d="M 0,0 H 311.88 V 354.36 H 0 Z"
         id="path72"
         inkscape:connector-curvature="0"
         style="clip-rule:evenodd" /></clipPath><clipPath
       clipPathUnits="userSpaceOnUse"
       id="clipPath88"><path
         d="M 0,0 H 311.88 V 354.36 H 0 Z"
         id="path86"
         inkscape:connector-curvature="0"
         style="clip-rule:evenodd" /></clipPath><clipPath
       clipPathUnits="userSpaceOnUse"
       id="clipPath98"><path
         d="M 0,0 H 311.88 V 354.36 H 0 Z"
         id="path96"
         inkscape:connector-curvature="0"
         style="clip-rule:evenodd" /></clipPath><clipPath
       clipPathUnits="userSpaceOnUse"
       id="clipPath112"><path
         d="M 0,0 H 311.88 V 354.36 H 0 Z"
         id="path110"
         inkscape:connector-curvature="0"
         style="clip-rule:evenodd" /></clipPath><clipPath
       clipPathUnits="userSpaceOnUse"
       id="clipPath122"><path
         d="M 0,0 H 311.88 V 354.36 H 0 Z"
         id="path120"
         inkscape:connector-curvature="0"
         style="clip-rule:evenodd" /></clipPath><clipPath
       clipPathUnits="userSpaceOnUse"
       id="clipPath136"><path
         d="M -7e-8,354.36 H 311.88 V 9.155e-6 H -7e-8"
         id="path134"
         inkscape:connector-curvature="0"
         style="clip-rule:evenodd" /></clipPath><clipPath
       clipPathUnits="userSpaceOnUse"
       id="clipPath170"><path
         d="M -1.61e-7,354.36 H 311.88 V 6.104e-6 H -1.61e-7"
         id="path168"
         inkscape:connector-curvature="0"
         style="clip-rule:evenodd" /></clipPath><clipPath
       clipPathUnits="userSpaceOnUse"
       id="clipPath188"><path
         d="M -5.66e-7,354.36 H 311.88 V 3.052e-6 H -1.551e-6"
         id="path186"
         inkscape:connector-curvature="0"
         style="clip-rule:evenodd" /></clipPath><clipPath
       clipPathUnits="userSpaceOnUse"
       id="clipPath216"><path
         d="M -3.5e-8,354.36 H 311.88 V -3.052e-6 L -3.5e-8,0"
         id="path214"
         inkscape:connector-curvature="0"
         style="clip-rule:evenodd" /></clipPath><clipPath
       clipPathUnits="userSpaceOnUse"
       id="clipPath226"><path
         d="M -7.5e-7,354.36 H 311.88 V -3.052e-6 H -1.734e-6"
         id="path224"
         inkscape:connector-curvature="0"
         style="clip-rule:evenodd" /></clipPath><clipPath
       clipPathUnits="userSpaceOnUse"
       id="clipPath248"><path
         d="M -7.2e-8,354.36 H 311.88 V 0 H -7.2e-8"
         id="path246"
         inkscape:connector-curvature="0"
         style="clip-rule:evenodd" /></clipPath><clipPath
       clipPathUnits="userSpaceOnUse"
       id="clipPath258"><path
         d="M -7.92e-7,354.36 H 311.88 V 0 H -1.777e-6"
         id="path256"
         inkscape:connector-curvature="0"
         style="clip-rule:evenodd" /></clipPath></defs><sodipodi:namedview
     pagecolor="#ffffff"
     bordercolor="#666666"
     borderopacity="1"
     objecttolerance="10"
     gridtolerance="10"
     guidetolerance="10"
     inkscape:pageopacity="0"
     inkscape:pageshadow="2"
     inkscape:window-width="3840"
     inkscape:window-height="2127"
     id="namedview4"
     showgrid="false"
     inkscape:zoom="0.49949203"
     inkscape:cx="207.92"
     inkscape:cy="236.24001"
     inkscape:window-x="1589"
     inkscape:window-y="-11"
     inkscape:window-maximized="1"
     inkscape:current-layer="g10" /><g
     id="g10"
     inkscape:groupmode="layer"
     inkscape:label="IGTLayers"
     transform="matrix(1.3333333,0,0,-1.3333333,0,472.48)"><g
       id="g12"><g
         id="g14"
         clip-path="url(#clipPath18)"><path
           d="M 0,-0.015015 H 311.88 V 354.36498 H 0 Z"
           style="fill:#ffffff;fill-opacity:1;fill-rule:evenodd;stroke:none"
           id="path20"
           inkscape:connector-curvature="0" /></g></g><g
       id="g22"><path
         d="m 2.502,34.909 c 0,3.653 2.9616,6.615 6.615,6.615 H 302.06 c 3.66,0 6.62,-2.962 6.62,-6.615 V 8.4497 c 0,-3.6534 -2.96,-6.615 -6.62,-6.615 H 9.117 c -3.6534,0 -6.615,2.9616 -6.615,6.615 z"
         style="fill:none;stroke:#7f7f7f;stroke-width:2;stroke-linecap:round;stroke-linejoin:round;stroke-miterlimit:10;stroke-dasharray:4, 4;stroke-dashoffset:0;stroke-opacity:1"
         id="path24"
         inkscape:connector-curvature="0" /></g><g
       id="g26"><g
         id="g28"
         clip-path="url(#clipPath32)"><g
           id="g34"
           transform="matrix(311.88,0,0,50.04,7.61e-7,45.48)" /></g></g><path
       d="m 2.502,85.849 c 0,3.653 2.9616,6.615 6.615,6.615 H 302.06 c 3.66,0 6.62,-2.962 6.62,-6.615 v -26.46 c 0,-3.653 -2.96,-6.615 -6.62,-6.615 H 9.117 c -3.6534,0 -6.615,2.962 -6.615,6.615 z"
       style="fill:#d9d9d9;fill-opacity:1;fill-rule:evenodd;stroke:none"
       id="path36"
       inkscape:connector-curvature="0" /><g
       id="g38"><path
         d="m 2.502,85.849 c 0,3.653 2.9616,6.615 6.615,6.615 H 302.06 c 3.66,0 6.62,-2.962 6.62,-6.615 v -26.46 c 0,-3.653 -2.96,-6.615 -6.62,-6.615 H 9.117 c -3.6534,0 -6.615,2.962 -6.615,6.615 z"
         style="fill:none;stroke:#7f7f7f;stroke-width:2;stroke-linecap:round;stroke-linejoin:round;stroke-miterlimit:10;stroke-dasharray:4, 4;stroke-dashoffset:0;stroke-opacity:1"
         id="path40"
         inkscape:connector-curvature="0" /></g><g
       id="g42"><g
         id="g44"
         clip-path="url(#clipPath48)"><g
           id="g50"
           transform="matrix(311.88,0,0,258.24,7.61e-7,96.12)" /></g></g><path
       d="m 2.502,341.09 c 0,6.1 4.9434,11.05 11.041,11.05 H 297.64 c 6.09,0 11.04,-4.95 11.04,-11.05 V 114.44 c 0,-6.1 -4.95,-11.04 -11.04,-11.04 H 13.543 c -6.0976,0 -11.041,4.94 -11.041,11.04 z"
       style="fill:#d9d9d9;fill-opacity:1;fill-rule:evenodd;stroke:none"
       id="path52"
       inkscape:connector-curvature="0" /><g
       id="g54"><path
         d="m 2.502,341.09 c 0,6.1 4.9434,11.05 11.041,11.05 H 297.64 c 6.09,0 11.04,-4.95 11.04,-11.05 V 114.44 c 0,-6.1 -4.95,-11.04 -11.04,-11.04 H 13.543 c -6.0976,0 -11.041,4.94 -11.041,11.04 z"
         style="fill:none;stroke:#7f7f7f;stroke-width:2;stroke-linecap:round;stroke-linejoin:round;stroke-miterlimit:10;stroke-dasharray:4, 4;stroke-dashoffset:0;stroke-opacity:1"
         id="path56"
         inkscape:connector-curvature="0" /></g><g
       id="g58"><g
         id="g60"
         clip-path="url(#clipPath64)"><g
           id="g66"
           transform="matrix(80.16,0,0,32.64,226.68,7.56)" /></g></g><g
       id="g68"><g
         id="g70"
         clip-path="url(#clipPath74)"><g
           id="g76"
           transform="matrix(85.08,0,0,37.8,225.96,3)" /></g></g><text
       transform="matrix(1,0,0,-1,236.52,21.312)"
       style="font-style:italic;font-variant:normal;font-weight:normal;font-size:14.03999996px;font-family:Calibri;-inkscape-font-specification:'Calibri Italic';writing-mode:lr-tb;fill:#7f7f7f;fill-opacity:1;fill-rule:nonzero;stroke:none"
       id="text80"><tspan
         x="0 8.7469196 15.96348 20.7792 27.99576 38.034359 45.250919 50.066639"
         y="0"
         sodipodi:role="line"
         id="tspan78">Hardware</tspan></text>
<g
       id="g82"><g
         id="g84"
         clip-path="url(#clipPath88)"><g
           id="g90"
           transform="matrix(130.2,0,0,32.64,177.96,57.72)" /></g></g><g
       id="g92"><g
         id="g94"
         clip-path="url(#clipPath98)"><g
           id="g100"
           transform="matrix(110.04,0,0,37.8,201.84,53.16)" /></g></g><text
       transform="matrix(1,0,0,-1,212.42,71.496)"
       style="font-style:italic;font-variant:normal;font-weight:normal;font-size:14.03999996px;font-family:Calibri;-inkscape-font-specification:'Calibri Italic';writing-mode:lr-tb;fill:#17375e;fill-opacity:1;fill-rule:nonzero;stroke:none"
       id="text104"><tspan
         x="0 6.1214399 10.93716 18.153721 23.99436 30.382561 33.611759 40.82832 48.002762 51.34428 57.241081 64.457642 70.663322 77.374443"
         y="0"
         sodipodi:role="line"
         id="tspan102">Tracking Layer</tspan></text>
<g
       id="g106"><g
         id="g108"
         clip-path="url(#clipPath112)"><g
           id="g114"
           transform="matrix(183.96,0,0,32.64,124.2,316.68)" /></g></g><g
       id="g116"><g
         id="g118"
         clip-path="url(#clipPath122)"><g
           id="g124"
           transform="matrix(124.32,0,0,37.8,187.56,312.12)" /></g></g><text
       transform="matrix(1,0,0,-1,198.07,330.58)"
       style="font-style:italic;font-variant:normal;font-weight:normal;font-size:14.03999996px;font-family:Calibri;-inkscape-font-specification:'Calibri Italic';writing-mode:lr-tb;fill:#4f6228;fill-opacity:1;fill-rule:nonzero;stroke:none"
       id="text128"><tspan
         x="0 9.0558004 16.27236 22.534201 25.763399 32.979961 40.196522 44.899921 48.12912 55.331638 62.576279 65.917801 71.814598 79.031158 85.307037 92.018158"
         y="0"
         sodipodi:role="line"
         id="tspan126">Navigation Layer</tspan></text>
<g
       id="g130"><g
         id="g132"
         clip-path="url(#clipPath136)"><path
           d="M 98.253,64.024 98.128,30.274"
           style="fill:none;stroke:#000000;stroke-width:1;stroke-linecap:round;stroke-linejoin:round;stroke-miterlimit:10;stroke-dasharray:none;stroke-opacity:1"
           id="path138"
           inkscape:connector-curvature="0" /></g></g><path
       d="m 14.352,276.96 c 0,11.67 9.466,21.14 21.144,21.14 H 157.64 c 11.67,0 21.14,-9.47 21.14,-21.14 v 0 c 0,-11.68 -9.47,-21.15 -21.14,-21.15 H 35.496 c -11.678,0 -21.144,9.47 -21.144,21.15 z"
       style="fill:#ffffff;fill-opacity:1;fill-rule:evenodd;stroke:none"
       id="path140"
       inkscape:connector-curvature="0" /><path
       d="m 14.352,276.96 c 0,11.67 9.466,21.14 21.144,21.14 H 157.64 c 11.67,0 21.14,-9.47 21.14,-21.14 v 0 c 0,-11.68 -9.47,-21.15 -21.14,-21.15 H 35.496 c -11.678,0 -21.144,9.47 -21.144,21.15 z"
       style="fill:none;stroke:#7f7f7f;stroke-width:1;stroke-linecap:round;stroke-linejoin:round;stroke-miterlimit:10;stroke-dasharray:none;stroke-opacity:1"
       id="path142"
       inkscape:connector-curvature="0" /><text
       transform="matrix(1,0,0,-1,70.704,281.4)"
       style="font-variant:normal;font-weight:normal;font-size:14.03999996px;font-family:Calibri;-inkscape-font-specification:Calibri;writing-mode:lr-tb;fill:#000000;fill-opacity:1;fill-rule:nonzero;stroke:none"
       id="text146"><tspan
         x="0 3.48192 12.24288 19.08036 22.309561 28.75392 32.0112 35.240398 39.81744 46.809361"
         y="0"
         sodipodi:role="line"
         id="tspan144">IGT Filter</tspan></text>
<text
       transform="matrix(1,0,0,-1,46.344,267.36)"
       style="font-variant:normal;font-weight:normal;font-size:11.03999996px;font-family:Calibri;-inkscape-font-specification:Calibri;writing-mode:lr-tb;fill:#000000;fill-opacity:1;fill-rule:nonzero;stroke:none"
       id="text150"><tspan
         x="0 3.34512 7.7059202 10.44384 16.4496 19.23168"
         y="0"
         sodipodi:role="line"
         id="tspan148">(z.B. </tspan></text>
<text
       transform="matrix(1,0,0,-1,68.064,267.36)"
       style="font-variant:normal;font-weight:normal;font-size:11.03999996px;font-family:Calibri;-inkscape-font-specification:Calibri;writing-mode:lr-tb;fill:#000000;fill-opacity:1;fill-rule:nonzero;stroke:none"
       id="text154"><tspan
         x="0 3.6984 9.5937595 15.46704"
         y="0"
         sodipodi:role="line"
         id="tspan152">tool</tspan></text>
<text
       transform="matrix(1,0,0,-1,88.248,267.36)"
       style="font-variant:normal;font-weight:normal;font-size:11.03999996px;font-family:Calibri;-inkscape-font-specification:Calibri;writing-mode:lr-tb;fill:#000000;fill-opacity:1;fill-rule:nonzero;stroke:none"
       id="text158"><tspan
         x="0 5.0342398 7.5734401 11.89008 17.63088 22.919041 25.458241 27.953279 32.26992 37.558079 41.256481 43.795681 49.54752"
         y="0"
         sodipodi:role="line"
         id="tspan156">visualization</tspan></text>
<text
       transform="matrix(1,0,0,-1,143.59,267.36)"
       style="font-variant:normal;font-weight:normal;font-size:11.03999996px;font-family:Calibri;-inkscape-font-specification:Calibri;writing-mode:lr-tb;fill:#000000;fill-opacity:1;fill-rule:nonzero;stroke:none"
       id="text162"><tspan
         x="0"
         y="0"
         id="tspan160">)</tspan></text>
<g
       id="g164"><g
         id="g166"
         clip-path="url(#clipPath170)"><path
           d="m 55.666,333.98 -0.12,-34.31 c -0.002,-0.41 -0.339,-0.75 -0.753,-0.75 -0.414,0 -0.749,0.34 -0.747,0.76 v 0 l 0.12,34.31 c 0.001,0.41 0.338,0.75 0.752,0.75 0.415,-0.01 0.749,-0.34 0.748,-0.76 z m 3.297,-28.7 -4.172,-7.1 -4.123,7.13 c -0.208,0.36 -0.085,0.82 0.273,1.02 0.359,0.21 0.817,0.09 1.025,-0.27 l 3.479,-6.01 h -1.296 l 3.521,5.99 c 0.21,0.36 0.67,0.48 1.027,0.27 0.357,-0.21 0.476,-0.67 0.266,-1.03 z"
           style="fill:#7f7f7f;fill-opacity:1;fill-rule:nonzero;stroke:none"
           id="path172"
           inkscape:connector-curvature="0" /></g></g><path
       d="m 17.917,328.03 c 0,7.18 5.822,13 13.004,13 h 48.236 c 7.182,0 13.004,-5.82 13.004,-13 v 0 c 0,-7.19 -5.822,-13.01 -13.004,-13.01 H 30.921 c -7.182,0 -13.004,5.82 -13.004,13.01 z"
       style="fill:#ffffff;fill-opacity:1;fill-rule:evenodd;stroke:none"
       id="path174"
       inkscape:connector-curvature="0" /><path
       d="m 17.917,328.03 c 0,7.18 5.822,13 13.004,13 h 48.236 c 7.182,0 13.004,-5.82 13.004,-13 v 0 c 0,-7.19 -5.822,-13.01 -13.004,-13.01 H 30.921 c -7.182,0 -13.004,5.82 -13.004,13.01 z"
       style="fill:none;stroke:#7f7f7f;stroke-width:1;stroke-linecap:round;stroke-linejoin:round;stroke-miterlimit:10;stroke-dasharray:none;stroke-opacity:1"
       id="path176"
       inkscape:connector-curvature="0" /><text
       transform="matrix(1,0,0,-1,38.232,324.02)"
       style="font-variant:normal;font-weight:normal;font-size:14.03999996px;font-family:Calibri;-inkscape-font-specification:Calibri;writing-mode:lr-tb;fill:#7f7f7f;fill-opacity:1;fill-rule:nonzero;stroke:none"
       id="text180"><tspan
         x="0 6.8374801 10.06668 21.242519 28.23444"
         y="0"
         sodipodi:role="line"
         id="tspan178">Timer</tspan></text>
<g
       id="g182"><g
         id="g184"
         clip-path="url(#clipPath188)"><path
           d="m 96.628,68.149 v 33.371 h 3 V 68.149 Z m -3,31.871 4.5,9 4.502,-9 z"
           style="fill:#000000;fill-opacity:1;fill-rule:nonzero;stroke:none"
           id="path190"
           inkscape:connector-curvature="0" /></g></g><path
       d="m 13.842,71.283 c 0,7.293 5.912,13.205 13.205,13.205 H 166.13 c 7.3,0 13.21,-5.912 13.21,-13.205 v 0 c 0,-7.293 -5.91,-13.205 -13.21,-13.205 H 27.047 c -7.293,0 -13.205,5.912 -13.205,13.205 z"
       style="fill:#ffffff;fill-opacity:1;fill-rule:evenodd;stroke:none"
       id="path192"
       inkscape:connector-curvature="0" /><path
       d="m 13.842,71.283 c 0,7.293 5.912,13.205 13.205,13.205 H 166.13 c 7.3,0 13.21,-5.912 13.21,-13.205 v 0 c 0,-7.293 -5.91,-13.205 -13.21,-13.205 H 27.047 c -7.293,0 -13.205,5.912 -13.205,13.205 z"
       style="fill:none;stroke:#7f7f7f;stroke-width:1;stroke-linecap:round;stroke-linejoin:round;stroke-miterlimit:10;stroke-dasharray:none;stroke-opacity:1"
       id="path194"
       inkscape:connector-curvature="0" /><text
       transform="matrix(1,0,0,-1,37.92,67.248)"
       style="font-variant:normal;font-weight:normal;font-size:14.06400013px;font-family:Calibri;-inkscape-font-specification:Calibri;writing-mode:lr-tb;fill:#000000;fill-opacity:1;fill-rule:nonzero;stroke:none"
       id="text198"><tspan
         x="0 3.4738081 12.23568 19.084848 22.305504 28.310831 32.994144 39.730801 45.59549 51.99461 55.229328 62.514481 69.138626 72.232704 80.882065 87.717171 94.074097 97.308815 103.20163"
         y="0"
         sodipodi:role="line"
         id="tspan196">IGT Tracking Device</tspan></text>
<path
       d="m 182.5,300.28 c 5.82,0 10.53,-1.1 10.53,-2.46 v -90.44 c 0,-1.36 4.72,-2.46 10.53,-2.46 -5.81,0 -10.53,-1.1 -10.53,-2.46 v -91.79 c 0,-1.35 -4.71,-2.45 -10.53,-2.45"
       style="fill:none;stroke:#000000;stroke-width:1.25;stroke-linecap:round;stroke-linejoin:round;stroke-miterlimit:10;stroke-dasharray:none;stroke-opacity:1"
       id="path200"
       inkscape:connector-curvature="0" /><text
       transform="matrix(1,0,0,-1,216.65,200.14)"
       style="font-style:italic;font-variant:normal;font-weight:normal;font-size:14.03999996px;font-family:Calibri;-inkscape-font-specification:'Calibri Italic';writing-mode:lr-tb;fill:#000000;fill-opacity:1;fill-rule:nonzero;stroke:none"
       id="text204"><tspan
         x="0 3.48192 12.24288 19.08036 22.309561 29.512079 32.74128 39.95784 46.668961 49.898159 53.127361 60.343922"
         y="0"
         sodipodi:role="line"
         id="tspan202">IGT Pipeline</tspan></text>
<path
       d="m 96.103,235.94 c 0,1.55 1.259,2.81 2.813,2.81 1.554,0 2.814,-1.26 2.814,-2.81 0,-1.55 -1.26,-2.81 -2.814,-2.81 -1.554,0 -2.813,1.26 -2.813,2.81 z"
       style="fill:#000000;fill-opacity:1;fill-rule:evenodd;stroke:none"
       id="path206"
       inkscape:connector-curvature="0" /><path
       d="m 90.478,235.94 c 0,4.66 3.778,8.44 8.438,8.44 4.664,0 8.434,-3.78 8.434,-8.44 0,-0.15 0,-0.3 -0.01,-0.44 l -2.71,0.14 c 0.17,3.16 -2.26,5.85 -5.414,6.02 -3.159,0.16 -5.853,-2.26 -6.019,-5.42 -0.005,-0.1 -0.008,-0.2 -0.008,-0.3 z"
       style="fill:#000000;fill-opacity:1;fill-rule:evenodd;stroke:none"
       id="path208"
       inkscape:connector-curvature="0" /><g
       id="g210"><g
         id="g212"
         clip-path="url(#clipPath216)"><path
           d="m 100,217.55 -0.002,6.52 -3,-0.01 0.007,-6.51 z m 3,5.02 -4.509,8.99 -4.491,-9 z"
           style="fill:#000000;fill-opacity:1;fill-rule:nonzero;stroke:none"
           id="path218"
           inkscape:connector-curvature="0" /></g></g><g
       id="g220"><g
         id="g222"
         clip-path="url(#clipPath226)"><path
           d="m 97.364,243.44 0.096,5.04 3,-0.06 -0.1,-5.04 z m -2.932,3.6 4.671,8.91 4.327,-9.08 z"
           style="fill:#000000;fill-opacity:1;fill-rule:nonzero;stroke:none"
           id="path228"
           inkscape:connector-curvature="0" /></g></g><path
       d="m 11.381,122.23 c 0,7.29 5.912,13.2 13.205,13.2 H 163.67 c 7.3,0 13.21,-5.91 13.21,-13.2 v 0 c 0,-7.29 -5.91,-13.21 -13.21,-13.21 H 24.586 c -7.293,0 -13.205,5.92 -13.205,13.21 z"
       style="fill:#ffffff;fill-opacity:1;fill-rule:evenodd;stroke:none"
       id="path230"
       inkscape:connector-curvature="0" /><path
       d="m 11.381,122.23 c 0,7.29 5.912,13.2 13.205,13.2 H 163.67 c 7.3,0 13.21,-5.91 13.21,-13.2 v 0 c 0,-7.29 -5.91,-13.21 -13.21,-13.21 H 24.586 c -7.293,0 -13.205,5.92 -13.205,13.21 z"
       style="fill:none;stroke:#7f7f7f;stroke-width:1;stroke-linecap:round;stroke-linejoin:round;stroke-miterlimit:10;stroke-dasharray:none;stroke-opacity:1"
       id="path232"
       inkscape:connector-curvature="0" /><text
       transform="matrix(1,0,0,-1,34.008,117.6)"
       style="font-variant:normal;font-weight:normal;font-size:14.06400013px;font-family:Calibri;-inkscape-font-specification:Calibri;writing-mode:lr-tb;fill:#000000;fill-opacity:1;fill-rule:nonzero;stroke:none"
       id="text236"><tspan
         x="0 6.0053282 10.68864 17.425297 23.289984 29.689104 32.923824 40.208977 46.833118 55.482479 62.289455 68.646385 71.881104 77.773918 84.735603 91.190979 98.644897 105.95818 110.64149 116.52024"
         y="0"
         sodipodi:role="line"
         id="tspan234">TrackingDeviceSource</tspan></text>
<path
       d="m 95.429,154.79 c 0,1.55 1.26,2.81 2.813,2.81 1.553,0 2.808,-1.26 2.808,-2.81 0,-1.55 -1.255,-2.81 -2.808,-2.81 -1.553,0 -2.813,1.26 -2.813,2.81 z"
       style="fill:#000000;fill-opacity:1;fill-rule:evenodd;stroke:none"
       id="path238"
       inkscape:connector-curvature="0" /><path
       d="m 89.804,154.79 c 0,4.66 3.778,8.44 8.438,8.44 4.658,0 8.438,-3.78 8.438,-8.44 0,-0.15 0,-0.3 -0.01,-0.44 l -2.71,0.14 c 0.17,3.16 -2.26,5.85 -5.418,6.02 -3.159,0.16 -5.853,-2.26 -6.019,-5.42 -0.005,-0.1 -0.008,-0.2 -0.008,-0.3 z"
       style="fill:#000000;fill-opacity:1;fill-rule:evenodd;stroke:none"
       id="path240"
       inkscape:connector-curvature="0" /><g
       id="g242"><g
         id="g244"
         clip-path="url(#clipPath248)"><path
           d="m 99.331,136.4 -0.007,6.52 -3,-0.01 0.007,-6.51 z m 2.999,5.02 -4.513,8.99 -4.491,-9 z"
           style="fill:#000000;fill-opacity:1;fill-rule:nonzero;stroke:none"
           id="path250"
           inkscape:connector-curvature="0" /></g></g><g
       id="g252"><g
         id="g254"
         clip-path="url(#clipPath258)"><path
           d="m 96.69,162.29 0.096,5.04 3,-0.06 -0.096,-5.03 z m -2.932,3.6 4.671,8.91 4.331,-9.08 z"
           style="fill:#000000;fill-opacity:1;fill-rule:nonzero;stroke:none"
           id="path260"
           inkscape:connector-curvature="0" /></g></g><path
       d="m 13.05,196.47 c 0,11.68 9.467,21.14 21.144,21.14 H 156.34 c 11.67,0 21.14,-9.46 21.14,-21.14 v 0 c 0,-11.68 -9.47,-21.15 -21.14,-21.15 l -122.146,0.01 c -11.677,0 -21.144,9.46 -21.144,21.14 z"
       style="fill:#ffffff;fill-opacity:1;fill-rule:evenodd;stroke:none"
       id="path262"
       inkscape:connector-curvature="0" /><path
       d="m 13.05,196.47 c 0,11.68 9.467,21.14 21.144,21.14 H 156.34 c 11.67,0 21.14,-9.46 21.14,-21.14 v 0 c 0,-11.68 -9.47,-21.15 -21.14,-21.15 l -122.146,0.01 c -11.677,0 -21.144,9.46 -21.144,21.14 z"
       style="fill:none;stroke:#7f7f7f;stroke-width:1;stroke-linecap:round;stroke-linejoin:round;stroke-miterlimit:10;stroke-dasharray:none;stroke-opacity:1"
       id="path264"
       inkscape:connector-curvature="0" /><text
       transform="matrix(1,0,0,-1,67.896,199.8)"
       style="font-variant:normal;font-weight:normal;font-size:14.03999996px;font-family:Calibri;-inkscape-font-specification:Calibri;writing-mode:lr-tb;fill:#000000;fill-opacity:1;fill-rule:nonzero;stroke:none"
       id="text268"><tspan
         x="0 3.48192 12.24288 19.08036 22.309561 28.75392 32.0112 35.240398 39.81744 46.809361"
         y="0"
         sodipodi:role="line"
         id="tspan266">IGT Filter</tspan></text>
<text
       transform="matrix(1,0,0,-1,27.096,185.74)"
       style="font-variant:normal;font-weight:normal;font-size:11.06400013px;font-family:Calibri;-inkscape-font-specification:Calibri;writing-mode:lr-tb;fill:#000000;fill-opacity:1;fill-rule:nonzero;stroke:none"
       id="text272"><tspan
         x="0 3.352392 7.6784158 10.466544 16.441105 19.229233"
         y="0"
         sodipodi:role="line"
         id="tspan270">(z.B. </tspan></text>
<text
       transform="matrix(1,0,0,-1,48.816,185.74)"
       style="font-variant:normal;font-weight:normal;font-size:11.06400013px;font-family:Calibri;-inkscape-font-specification:Calibri;writing-mode:lr-tb;fill:#000000;fill-opacity:1;fill-rule:nonzero;stroke:none"
       id="text276"><tspan
         x="0 3.70644 7.5677762 12.867432 17.547504 22.581623 25.082088 30.846432"
         y="0"
         sodipodi:role="line"
         id="tspan274">tracking</tspan></text>
<text
       transform="matrix(1,0,0,-1,87.096,185.74)"
       style="font-variant:normal;font-weight:normal;font-size:11.06400013px;font-family:Calibri;-inkscape-font-specification:Calibri;writing-mode:lr-tb;fill:#000000;fill-opacity:1;fill-rule:nonzero;stroke:none"
       id="text280"><tspan
         x="0 5.7643442 11.064 14.77044"
         y="0"
         sodipodi:role="line"
         id="tspan278">data</tspan></text>
<text
       transform="matrix(1,0,0,-1,109.44,185.74)"
       style="font-variant:normal;font-weight:normal;font-size:11.06400013px;font-family:Calibri;-inkscape-font-specification:Calibri;writing-mode:lr-tb;fill:#000000;fill-opacity:1;fill-rule:nonzero;stroke:none"
       id="text284"><tspan
         x="0 4.3260241 13.188288 19.052208 24.916128 28.511929 34.276272 36.820992 42.552143"
         y="0"
         sodipodi:role="line"
         id="tspan282">smoothing</tspan></text>
<text
       transform="matrix(1,0,0,-1,157.08,185.74)"
       style="font-variant:normal;font-weight:normal;font-size:11.06400013px;font-family:Calibri;-inkscape-font-specification:Calibri;writing-mode:lr-tb;fill:#000000;fill-opacity:1;fill-rule:nonzero;stroke:none"
       id="text288"><tspan
         x="0"
         y="0"
         id="tspan286">)</tspan></text>
<path
       d="M 14.911,36.22 H 177.57 V 15.26 C 96.243,15.26 96.243,7.2733 14.911,11.811 Z"
       style="fill:#ffffff;fill-opacity:1;fill-rule:evenodd;stroke:none"
       id="path290"
       inkscape:connector-curvature="0" /><path
       d="M 14.911,36.22 H 177.57 V 15.26 C 96.243,15.26 96.243,7.2733 14.911,11.811 Z"
       style="fill:none;stroke:#7f7f7f;stroke-width:1;stroke-linecap:round;stroke-linejoin:round;stroke-miterlimit:10;stroke-dasharray:none;stroke-opacity:1"
       id="path292"
       inkscape:connector-curvature="0" /><text
       transform="matrix(1,0,0,-1,22.128,21.312)"
       style="font-variant:normal;font-weight:normal;font-size:14.03999996px;font-family:Calibri;-inkscape-font-specification:Calibri;writing-mode:lr-tb;fill:#000000;fill-opacity:1;fill-rule:nonzero;stroke:none"
       id="text296"><tspan
         x="0 5.99508 10.6704 17.395559 23.26428 29.652479 32.88168 40.18248 46.795319 49.898159 58.532761 65.384277 71.730362 74.959557 80.898483 87.820198 91.16172 99.908638 106.6338 111.32316 118.638 128.59236 135.31752 139.99284"
         y="0"
         sodipodi:role="line"
         id="tspan294">Tracking Device Hardware</tspan></text>
</g></svg>