<?xml version="1.0" encoding="UTF-8" standalone="no"?>
<!-- Created with Inkscape (http://www.inkscape.org/) -->

<svg
   xmlns:dc="http://purl.org/dc/elements/1.1/"
   xmlns:cc="http://creativecommons.org/ns#"
   xmlns:rdf="http://www.w3.org/1999/02/22-rdf-syntax-ns#"
   xmlns:svg="http://www.w3.org/2000/svg"
   xmlns="http://www.w3.org/2000/svg"
   xmlns:sodipodi="http://sodipodi.sourceforge.net/DTD/sodipodi-0.dtd"
   xmlns:inkscape="http://www.inkscape.org/namespaces/inkscape"
   version="1.1"
   id="svg2"
   xml:space="preserve"
   width="5.5cm"
   height="6.25cm"
   viewBox="0 0 207.87403 236.22047"
   sodipodi:docname="IGTLayers.svg"
   inkscape:version="0.92.2 (5c3e80d, 2017-08-06)"><metadata
     id="metadata8"><rdf:RDF><cc:Work
         rdf:about=""><dc:format>image/svg+xml</dc:format><dc:type
           rdf:resource="http://purl.org/dc/dcmitype/StillImage" /><dc:title></dc:title></cc:Work></rdf:RDF></metadata><defs
     id="defs6"><clipPath
       clipPathUnits="userSpaceOnUse"
       id="clipPath18"><path
         d="M 0,6.104e-6 H 311.88 V 354.36001 H 0 Z"
         id="path16"
         inkscape:connector-curvature="0"
         style="clip-rule:evenodd" /></clipPath><clipPath
       clipPathUnits="userSpaceOnUse"
       id="clipPath32"><path
         d="m 9.117,92.464 c -3.6534,0 -6.615,-2.962 -6.615,-6.615 v -26.46 c 0,-3.653 2.9616,-6.615 6.615,-6.615 H 302.06 c 3.66,0 6.62,2.962 6.62,6.615 v 26.46 c 0,3.653 -2.96,6.615 -6.62,6.615 z M -2.26e-7,354.36 H 311.88 V 0 H -2.26e-7 Z"
         id="path30"
         inkscape:connector-curvature="0"
         style="clip-rule:evenodd" /></clipPath><clipPath
       clipPathUnits="userSpaceOnUse"
       id="clipPath48"><path
         d="m 13.543,352.14 c -6.0976,0 -11.041,-4.95 -11.041,-11.05 V 114.44 c 0,-6.1 4.9434,-11.04 11.041,-11.04 H 297.64 c 6.09,0 11.04,4.94 11.04,11.04 v 226.65 c 0,6.1 -4.95,11.05 -11.04,11.05 z M -2.26e-7,354.36 H 311.88 V 0 H -2.26e-7 Z"
         id="path46"
         inkscape:connector-curvature="0"
         style="clip-rule:evenodd" /></clipPath><clipPath
       clipPathUnits="userSpaceOnUse"
       id="clipPath64"><path
         d="M 0,0 H 311.88 V 354.36 H 0 Z"
         id="path62"
         inkscape:connector-curvature="0"
         style="clip-rule:evenodd" /></clipPath><clipPath
       clipPathUnits="userSpaceOnUse"
       id="clipPath74"><path
         d="M 0,0 H 311.88 V 354.36 H 0 Z"
         id="path72"
         inkscape:connector-curvature="0"
         style="clip-rule:evenodd" /></clipPath><clipPath
       clipPathUnits="userSpaceOnUse"
       id="clipPath88"><path
         d="M 0,0 H 311.88 V 354.36 H 0 Z"
         id="path86"
         inkscape:connector-curvature="0"
         style="clip-rule:evenodd" /></clipPath><clipPath
       clipPathUnits="userSpaceOnUse"
       id="clipPath98"><path
         d="M 0,0 H 311.88 V 354.36 H 0 Z"
         id="path96"
         inkscape:connector-curvature="0"
         style="clip-rule:evenodd" /></clipPath><clipPath
       clipPathUnits="userSpaceOnUse"
       id="clipPath112"><path
         d="M 0,0 H 311.88 V 354.36 H 0 Z"
         id="path110"
         inkscape:connector-curvature="0"
         style="clip-rule:evenodd" /></clipPath><clipPath
       clipPathUnits="userSpaceOnUse"
       id="clipPath122"><path
         d="M 0,0 H 311.88 V 354.36 H 0 Z"
         id="path120"
         inkscape:connector-curvature="0"
         style="clip-rule:evenodd" /></clipPath><clipPath
       clipPathUnits="userSpaceOnUse"
       id="clipPath136"><path
         d="M -7e-8,354.36 H 311.88 V 9.155e-6 H -7e-8"
         id="path134"
         inkscape:connector-curvature="0"
         style="clip-rule:evenodd" /></clipPath><clipPath
       clipPathUnits="userSpaceOnUse"
       id="clipPath170"><path
         d="M -1.61e-7,354.36 H 311.88 V 6.104e-6 H -1.61e-7"
         id="path168"
         inkscape:connector-curvature="0"
         style="clip-rule:evenodd" /></clipPath><clipPath
       clipPathUnits="userSpaceOnUse"
       id="clipPath188"><path
         d="M -5.66e-7,354.36 H 311.88 V 3.052e-6 H -1.551e-6"
         id="path186"
         inkscape:connector-curvature="0"
         style="clip-rule:evenodd" /></clipPath><clipPath
       clipPathUnits="userSpaceOnUse"
       id="clipPath216"><path
         d="M -3.5e-8,354.36 H 311.88 V -3.052e-6 L -3.5e-8,0"
         id="path214"
         inkscape:connector-curvature="0"
         style="clip-rule:evenodd" /></clipPath><clipPath
       clipPathUnits="userSpaceOnUse"
       id="clipPath226"><path
         d="M -7.5e-7,354.36 H 311.88 V -3.052e-6 H -1.734e-6"
         id="path224"
         inkscape:connector-curvature="0"
         style="clip-rule:evenodd" /></clipPath><clipPath
       clipPathUnits="userSpaceOnUse"
       id="clipPath248"><path
         d="M -7.2e-8,354.36 H 311.88 V 0 H -7.2e-8"
         id="path246"
         inkscape:connector-curvature="0"
         style="clip-rule:evenodd" /></clipPath><clipPath
       clipPathUnits="userSpaceOnUse"
       id="clipPath258"><path
         d="M -7.92e-7,354.36 H 311.88 V 0 H -1.777e-6"
         id="path256"
         inkscape:connector-curvature="0"
         style="clip-rule:evenodd" /></clipPath></defs><sodipodi:namedview
     pagecolor="#ffffff"
     bordercolor="#666666"
     borderopacity="1"
     objecttolerance="10"
     gridtolerance="10"
     guidetolerance="10"
     inkscape:pageopacity="0"
     inkscape:pageshadow="2"
     inkscape:window-width="3840"
     inkscape:window-height="2127"
     id="namedview4"
     showgrid="false"
     inkscape:zoom="1.0074671"
     inkscape:cx="207.92"
     inkscape:cy="236.24001"
     inkscape:window-x="1589"
     inkscape:window-y="-11"
     inkscape:window-maximized="1"
     inkscape:current-layer="svg2"
     units="cm" /><g
     id="g10"
     inkscape:groupmode="layer"
     inkscape:label="IGTLayers"
     transform="matrix(1.3333333,0,0,-1.3333333,0,236.22045)"><g
       id="g12"
       transform="matrix(0.49988943,0,0,0.49995868,0,3.0522522e-6)"><g
         id="g14"
         clip-path="url(#clipPath18)"><path
           d="M 0,-0.015015 H 311.88 V 354.36498 H 0 Z"
           style="fill:#ffffff;fill-opacity:1;fill-rule:evenodd;stroke:none"
           id="path20"
           inkscape:connector-curvature="0" /></g></g><g
       id="g22"
       transform="matrix(0.49988943,0,0,0.49995868,0,3.0522522e-6)"><path
         d="m 2.502,34.909 c 0,3.653 2.9616,6.615 6.615,6.615 H 302.06 c 3.66,0 6.62,-2.962 6.62,-6.615 V 8.4497 c 0,-3.6534 -2.96,-6.615 -6.62,-6.615 H 9.117 c -3.6534,0 -6.615,2.9616 -6.615,6.615 z"
         style="fill:none;stroke:#7f7f7f;stroke-width:2;stroke-linecap:round;stroke-linejoin:round;stroke-miterlimit:10;stroke-dasharray:4, 4;stroke-dashoffset:0;stroke-opacity:1"
         id="path24"
         inkscape:connector-curvature="0" /></g><g
       id="g26"><g
         id="g28"
         clip-path="url(#clipPath32)"><g
           id="g34"
           transform="matrix(311.88,0,0,50.04,7.61e-7,45.48)" /></g></g><path
       d="m 1.2507233,42.920956 c 0,1.826349 1.4804726,3.307226 3.3067686,3.307226 H 150.9966 c 1.8296,0 3.30927,-1.480877 3.30927,-3.307226 V 29.692049 c 0,-1.826349 -1.47967,-3.307227 -3.30927,-3.307227 H 4.5574919 c -1.826296,0 -3.3067686,1.480878 -3.3067686,3.307227 z"
       style="fill:#d9d9d9;fill-opacity:1;fill-rule:evenodd;stroke:none;stroke-width:0.49992403"
       id="path36"
       inkscape:connector-curvature="0" /><g
       id="g38"
       transform="matrix(0.49988943,0,0,0.49995868,0,3.0522522e-6)"><path
         d="m 2.502,85.849 c 0,3.653 2.9616,6.615 6.615,6.615 H 302.06 c 3.66,0 6.62,-2.962 6.62,-6.615 v -26.46 c 0,-3.653 -2.96,-6.615 -6.62,-6.615 H 9.117 c -3.6534,0 -6.615,2.962 -6.615,6.615 z"
         style="fill:none;stroke:#7f7f7f;stroke-width:2;stroke-linecap:round;stroke-linejoin:round;stroke-miterlimit:10;stroke-dasharray:4, 4;stroke-dashoffset:0;stroke-opacity:1"
         id="path40"
         inkscape:connector-curvature="0" /></g><g
       id="g42"><g
         id="g44"
         clip-path="url(#clipPath48)"><g
           id="g50"
           transform="matrix(311.88,0,0,258.24,7.61e-7,96.12)" /></g></g><path
       d="m 1.2507233,170.53091 c 0,3.04975 2.4711534,5.52454 5.5192792,5.52454 H 148.78709 c 3.04433,0 5.51878,-2.47479 5.51878,-5.52454 V 57.215274 c 0,-3.049748 -2.47445,-5.519544 -5.51878,-5.519544 H 6.7700025 c -3.0481258,0 -5.5192792,2.469796 -5.5192792,5.519544 z"
       style="fill:#d9d9d9;fill-opacity:1;fill-rule:evenodd;stroke:none;stroke-width:0.49992403"
       id="path52"
       inkscape:connector-curvature="0" /><g
       id="g54"
       transform="matrix(0.49988943,0,0,0.49995868,0,3.0522522e-6)"><path
         d="m 2.502,341.09 c 0,6.1 4.9434,11.05 11.041,11.05 H 297.64 c 6.09,0 11.04,-4.95 11.04,-11.05 V 114.44 c 0,-6.1 -4.95,-11.04 -11.04,-11.04 H 13.543 c -6.0976,0 -11.041,4.94 -11.041,11.04 z"
         style="fill:none;stroke:#7f7f7f;stroke-width:2;stroke-linecap:round;stroke-linejoin:round;stroke-miterlimit:10;stroke-dasharray:4, 4;stroke-dashoffset:0;stroke-opacity:1"
         id="path56"
         inkscape:connector-curvature="0" /></g><g
       id="g58"><g
         id="g60"
         clip-path="url(#clipPath64)"><g
           id="g66"
           transform="matrix(80.16,0,0,32.64,226.68,7.56)" /></g></g><g
       id="g68"><g
         id="g70"
         clip-path="url(#clipPath74)"><g
           id="g76"
           transform="matrix(85.08,0,0,37.8,225.96,3)" /></g></g><text
       transform="scale(0.99993074,-1.0000693)"
       style="font-style:italic;font-variant:normal;font-weight:normal;font-size:7.01893377px;font-family:Calibri;-inkscape-font-specification:'Calibri Italic';writing-mode:lr-tb;fill:#7f7f7f;fill-opacity:1;fill-rule:nonzero;stroke:none;stroke-width:0.49992403"
       id="text80"
       x="118.24204"
       y="-10.654385"><tspan
         x="118.24204 122.61483 126.22256 128.63007 132.23779 137.25633 140.86406 143.27156"
         y="-10.654385"
         sodipodi:role="line"
         id="tspan78"
         style="stroke-width:0.49992403">Hardware</tspan></text>
<g
       id="g82"><g
         id="g84"
         clip-path="url(#clipPath88)"><g
           id="g90"
           transform="matrix(130.2,0,0,32.64,177.96,57.72)" /></g></g><g
       id="g92"><g
         id="g94"
         clip-path="url(#clipPath98)"><g
           id="g100"
           transform="matrix(110.04,0,0,37.8,201.84,53.16)" /></g></g><text
       transform="scale(0.99993074,-1.0000693)"
       style="font-style:italic;font-variant:normal;font-weight:normal;font-size:7.01893377px;font-family:Calibri;-inkscape-font-specification:'Calibri Italic';writing-mode:lr-tb;fill:#17375e;fill-opacity:1;fill-rule:nonzero;stroke:none;stroke-width:0.49992403"
       id="text104"
       x="106.19387"
       y="-35.742573"><tspan
         x="106.19387 109.25412 111.66161 115.26934 118.18923 121.38284 122.99719 126.60493 130.1916 131.86211 134.81006 138.4178 141.52016 144.87521"
         y="-35.742573"
         sodipodi:role="line"
         id="tspan102"
         style="stroke-width:0.49992403">Tracking Layer</tspan></text>
<g
       id="g106"><g
         id="g108"
         clip-path="url(#clipPath112)"><g
           id="g114"
           transform="matrix(183.96,0,0,32.64,124.2,316.68)" /></g></g><g
       id="g116"><g
         id="g118"
         clip-path="url(#clipPath122)"><g
           id="g124"
           transform="matrix(124.32,0,0,37.8,187.56,312.12)" /></g></g><text
       transform="scale(0.99993074,-1.0000693)"
       style="font-style:italic;font-variant:normal;font-weight:normal;font-size:7.01893377px;font-family:Calibri;-inkscape-font-specification:'Calibri Italic';writing-mode:lr-tb;fill:#4f6228;fill-opacity:1;fill-rule:nonzero;stroke:none;stroke-width:0.49992403"
       id="text128"
       x="99.019958"
       y="-165.26489"><tspan
         x="99.019958 103.54716 107.1549 110.28535 111.8997 115.50742 119.11517 121.46651 123.08086 126.68157 130.30334 131.97386 134.9218 138.52954 141.66699 145.02205"
         y="-165.26489"
         sodipodi:role="line"
         id="tspan126"
         style="stroke-width:0.49992403">Navigation Layer</tspan></text>
<g
       id="g130"
       transform="matrix(0.49988943,0,0,0.49995868,0,3.0522522e-6)"><g
         id="g132"
         clip-path="url(#clipPath136)"><path
           d="M 98.253,64.024 98.128,30.274"
           style="fill:none;stroke:#000000;stroke-width:1;stroke-linecap:round;stroke-linejoin:round;stroke-miterlimit:10;stroke-dasharray:none;stroke-opacity:1"
           id="path138"
           inkscape:connector-curvature="0" /></g></g><path
       d="m 7.174413,138.46856 c 0,5.83452 4.731954,10.56912 10.569662,10.56912 H 78.80257 c 5.833709,0 10.567662,-4.7346 10.567662,-10.56912 v 0 c 0,-5.83952 -4.733953,-10.57413 -10.567662,-10.57413 H 17.744075 c -5.837708,0 -10.569662,4.73461 -10.569662,10.57413 z"
       style="fill:#ffffff;fill-opacity:1;fill-rule:evenodd;stroke:none;stroke-width:0.49992403"
       id="path140"
       inkscape:connector-curvature="0" /><path
       d="m 7.174413,138.46856 c 0,5.83452 4.731954,10.56912 10.569662,10.56912 H 78.80257 c 5.833709,0 10.567662,-4.7346 10.567662,-10.56912 v 0 c 0,-5.83952 -4.733953,-10.57413 -10.567662,-10.57413 H 17.744075 c -5.837708,0 -10.569662,4.73461 -10.569662,10.57413 z"
       style="fill:none;stroke:#7f7f7f;stroke-width:0.49992403;stroke-linecap:round;stroke-linejoin:round;stroke-miterlimit:10;stroke-dasharray:none;stroke-opacity:1"
       id="path142"
       inkscape:connector-curvature="0" /><text
       transform="scale(0.99993074,-1.0000693)"
       style="font-variant:normal;font-weight:normal;font-size:7.01893377px;font-family:Calibri;-inkscape-font-specification:Calibri;writing-mode:lr-tb;fill:#000000;fill-opacity:1;fill-rule:nonzero;stroke:none;stroke-width:0.49992403"
       id="text146"
       x="35.34663"
       y="-140.67863"><tspan
         x="35.34663 37.087326 41.46714 44.885361 46.499714 49.721409 51.349804 52.964153 55.252331 58.747757"
         y="-140.67863"
         sodipodi:role="line"
         id="tspan144"
         style="stroke-width:0.49992403">IGT Filter</tspan></text>
<text
       transform="scale(0.99993074,-1.0000693)"
       style="font-variant:normal;font-weight:normal;font-size:5.5191617px;font-family:Calibri;-inkscape-font-specification:Calibri;writing-mode:lr-tb;fill:#000000;fill-opacity:1;fill-rule:nonzero;stroke:none;stroke-width:0.49992403"
       id="text150"
       x="23.16848"
       y="-133.6597"><tspan
         x="23.16848 24.840784 27.020857 28.389608 31.392035 32.78286"
         y="-133.6597"
         sodipodi:role="line"
         id="tspan148"
         style="stroke-width:0.49992403">(z.B. </tspan></text>
<text
       transform="scale(0.99993074,-1.0000693)"
       style="font-variant:normal;font-weight:normal;font-size:5.5191617px;font-family:Calibri;-inkscape-font-specification:Calibri;writing-mode:lr-tb;fill:#000000;fill-opacity:1;fill-rule:nonzero;stroke:none;stroke-width:0.49992403"
       id="text154"
       x="34.026833"
       y="-133.6597"><tspan
         x="34.026833 35.875751 38.822983 41.759174"
         y="-133.6597"
         sodipodi:role="line"
         id="tspan152"
         style="stroke-width:0.49992403">tool</tspan></text>
<text
       transform="scale(0.99993074,-1.0000693)"
       style="font-variant:normal;font-weight:normal;font-size:5.5191617px;font-family:Calibri;-inkscape-font-specification:Calibri;writing-mode:lr-tb;fill:#000000;fill-opacity:1;fill-rule:nonzero;stroke:none;stroke-width:0.49992403"
       id="text158"
       x="44.117298"
       y="-133.6597"><tspan
         x="44.117298 46.634033 47.903442 50.061436 52.9314 55.575077 56.844486 58.091812 60.249805 62.893486 64.742409 66.01181 68.887291"
         y="-133.6597"
         sodipodi:role="line"
         id="tspan156"
         style="stroke-width:0.49992403">visualization</tspan></text>
<text
       transform="scale(0.99993074,-1.0000693)"
       style="font-variant:normal;font-weight:normal;font-size:5.5191617px;font-family:Calibri;-inkscape-font-specification:Calibri;writing-mode:lr-tb;fill:#000000;fill-opacity:1;fill-rule:nonzero;stroke:none;stroke-width:0.49992403"
       id="text162"
       x="71.784096"
       y="-133.6597"><tspan
         x="71.784096"
         y="-133.6597"
         id="tspan160"
         style="stroke-width:0.49992403">)</tspan></text>
<g
       id="g164"
       transform="matrix(0.49988943,0,0,0.49995868,0,3.0522522e-6)"><g
         id="g166"
         clip-path="url(#clipPath170)"><path
           d="m 55.666,333.98 -0.12,-34.31 c -0.002,-0.41 -0.339,-0.75 -0.753,-0.75 -0.414,0 -0.749,0.34 -0.747,0.76 v 0 l 0.12,34.31 c 0.001,0.41 0.338,0.75 0.752,0.75 0.415,-0.01 0.749,-0.34 0.748,-0.76 z m 3.297,-28.7 -4.172,-7.1 -4.123,7.13 c -0.208,0.36 -0.085,0.82 0.273,1.02 0.359,0.21 0.817,0.09 1.025,-0.27 l 3.479,-6.01 h -1.296 l 3.521,5.99 c 0.21,0.36 0.67,0.48 1.027,0.27 0.357,-0.21 0.476,-0.67 0.266,-1.03 z"
           style="fill:#7f7f7f;fill-opacity:1;fill-rule:nonzero;stroke:none"
           id="path172"
           inkscape:connector-curvature="0" /></g></g><path
       d="m 8.9565188,164.00145 c 0,3.5897 2.9103562,6.49946 6.5005622,6.49946 h 24.112667 c 3.590205,0 6.500562,-2.90976 6.500562,-6.49946 v 0 c 0,-3.5947 -2.910357,-6.50446 -6.500562,-6.50446 H 15.457081 c -3.590206,0 -6.5005622,2.90976 -6.5005622,6.50446 z"
       style="fill:#ffffff;fill-opacity:1;fill-rule:evenodd;stroke:none;stroke-width:0.49992403"
       id="path174"
       inkscape:connector-curvature="0" /><path
       d="m 8.9565188,164.00145 c 0,3.5897 2.9103562,6.49946 6.5005622,6.49946 h 24.112667 c 3.590205,0 6.500562,-2.90976 6.500562,-6.49946 v 0 c 0,-3.5947 -2.910357,-6.50446 -6.500562,-6.50446 H 15.457081 c -3.590206,0 -6.5005622,2.90976 -6.5005622,6.50446 z"
       style="fill:none;stroke:#7f7f7f;stroke-width:0.49992403;stroke-linecap:round;stroke-linejoin:round;stroke-miterlimit:10;stroke-dasharray:none;stroke-opacity:1"
       id="path176"
       inkscape:connector-curvature="0" /><text
       transform="scale(0.99993074,-1.0000693)"
       style="font-variant:normal;font-weight:normal;font-size:7.01893377px;font-family:Calibri;-inkscape-font-specification:Calibri;writing-mode:lr-tb;fill:#7f7f7f;fill-opacity:1;fill-rule:nonzero;stroke:none;stroke-width:0.49992403"
       id="text180"
       x="19.113096"
       y="-161.9854"><tspan
         x="19.113096 22.531317 24.145672 29.732744 33.228172"
         y="-161.9854"
         sodipodi:role="line"
         id="tspan178"
         style="stroke-width:0.49992403">Timer</tspan></text>
<g
       id="g182"
       transform="matrix(0.49988943,0,0,0.49995868,0,3.0522522e-6)"><g
         id="g184"
         clip-path="url(#clipPath188)"><path
           d="m 96.628,68.149 v 33.371 h 3 V 68.149 Z m -3,31.871 4.5,9 4.502,-9 z"
           style="fill:#000000;fill-opacity:1;fill-rule:nonzero;stroke:none"
           id="path190"
           inkscape:connector-curvature="0" /></g></g><path
       d="m 6.9194694,35.638557 c 0,3.646199 2.9553464,6.601955 6.6010396,6.601955 H 83.04663 c 3.649193,0 6.60354,-2.955756 6.60354,-6.601955 v 0 c 0,-3.646198 -2.954347,-6.601954 -6.60354,-6.601954 H 13.520509 c -3.6456932,0 -6.6010396,2.955756 -6.6010396,6.601954 z"
       style="fill:#ffffff;fill-opacity:1;fill-rule:evenodd;stroke:none;stroke-width:0.49992403"
       id="path192"
       inkscape:connector-curvature="0" /><path
       d="m 6.9194694,35.638557 c 0,3.646199 2.9553464,6.601955 6.6010396,6.601955 H 83.04663 c 3.649193,0 6.60354,-2.955756 6.60354,-6.601955 v 0 c 0,-3.646198 -2.954347,-6.601954 -6.60354,-6.601954 H 13.520509 c -3.6456932,0 -6.6010396,2.955756 -6.6010396,6.601954 z"
       style="fill:none;stroke:#7f7f7f;stroke-width:0.49992403;stroke-linecap:round;stroke-linejoin:round;stroke-miterlimit:10;stroke-dasharray:none;stroke-opacity:1"
       id="path194"
       inkscape:connector-curvature="0" /><text
       transform="scale(0.99993074,-1.0000693)"
       style="font-variant:normal;font-weight:normal;font-size:7.03093195px;font-family:Calibri;-inkscape-font-specification:Calibri;writing-mode:lr-tb;fill:#000000;fill-opacity:1;fill-rule:nonzero;stroke:none;stroke-width:0.49992403"
       id="text198"
       x="18.957121"
       y="-33.618896"><tspan
         x="18.957121 20.69376 25.074034 28.498093 30.108179 33.110386 35.451687 38.819504 41.7514 44.950478 46.567589 50.209618 53.521179 55.067986 59.39201 62.809044 65.987022 67.604141 70.550095"
         y="-33.618896"
         sodipodi:role="line"
         id="tspan196"
         style="stroke-width:0.49992403">IGT Tracking Device</tspan></text>
<path
       d="m 91.229821,150.12759 c 2.909357,0 5.263835,-0.54995 5.263835,-1.22989 v -45.21627 c 0,-0.67994 2.359478,-1.22989 5.263834,-1.22989 -2.904356,0 -5.263834,-0.54996 -5.263834,-1.2299 V 55.33043 c 0,-0.674944 -2.354478,-1.224899 -5.263835,-1.224899"
       style="fill:none;stroke:#000000;stroke-width:0.62490505;stroke-linecap:round;stroke-linejoin:round;stroke-miterlimit:10;stroke-dasharray:none;stroke-opacity:1"
       id="path200"
       inkscape:connector-curvature="0" /><text
       transform="scale(0.99993074,-1.0000693)"
       style="font-style:italic;font-variant:normal;font-weight:normal;font-size:7.01893377px;font-family:Calibri;-inkscape-font-specification:'Calibri Italic';writing-mode:lr-tb;fill:#000000;fill-opacity:1;fill-rule:nonzero;stroke:none;stroke-width:0.49992403"
       id="text204"
       x="108.30856"
       y="-100.0548"><tspan
         x="108.30856 110.04924 114.42906 117.84728 119.46163 123.06235 124.6767 128.28444 131.6395 133.25385 134.86819 138.47592"
         y="-100.0548"
         sodipodi:role="line"
         id="tspan202"
         style="stroke-width:0.49992403">IGT Pipeline</tspan></text>
<path
       d="m 48.040874,117.96025 c 0,0.77494 0.62936,1.40489 1.406188,1.40489 0.776829,0 1.406689,-0.62995 1.406689,-1.40489 0,-0.77493 -0.62986,-1.40488 -1.406689,-1.40488 -0.776828,0 -1.406188,0.62995 -1.406188,1.40488 z"
       style="fill:#000000;fill-opacity:1;fill-rule:evenodd;stroke:none;stroke-width:0.49992403"
       id="path206"
       inkscape:connector-curvature="0" /><path
       d="m 45.228996,117.96025 c 0,2.32981 1.888582,4.21965 4.218066,4.21965 2.331485,0 4.216068,-1.88984 4.216068,-4.21965 0,-0.075 0,-0.14998 -0.005,-0.21998 l -1.354701,0.07 c 0.08499,1.57987 -1.12975,2.92475 -2.706401,3.00975 -1.579151,0.08 -2.925853,-1.12991 -3.008834,-2.70978 -0.0025,-0.05 -0.004,-0.1 -0.004,-0.14999 z"
       style="fill:#000000;fill-opacity:1;fill-rule:evenodd;stroke:none;stroke-width:0.49992403"
       id="path208"
       inkscape:connector-curvature="0" /><g
       id="g210"
       transform="matrix(0.49988943,0,0,0.49995868,0,3.0522522e-6)"><g
         id="g212"
         clip-path="url(#clipPath216)"><path
           d="m 100,217.55 -0.002,6.52 -3,-0.01 0.007,-6.51 z m 3,5.02 -4.509,8.99 -4.491,-9 z"
           style="fill:#000000;fill-opacity:1;fill-rule:nonzero;stroke:none"
           id="path218"
           inkscape:connector-curvature="0" /></g></g><g
       id="g220"
       transform="matrix(0.49988943,0,0,0.49995868,0,3.0522522e-6)"><g
         id="g222"
         clip-path="url(#clipPath226)"><path
           d="m 97.364,243.44 0.096,5.04 3,-0.06 -0.1,-5.04 z m -2.932,3.6 4.671,8.91 4.327,-9.08 z"
           style="fill:#000000;fill-opacity:1;fill-rule:nonzero;stroke:none"
           id="path228"
           inkscape:connector-curvature="0" /></g></g><path
       d="m 5.6892415,61.109952 c 0,3.644699 2.9553464,6.599455 6.6010395,6.599455 h 69.526622 c 3.649193,0 6.603538,-2.954756 6.603538,-6.599455 v 0 c 0,-3.644699 -2.954345,-6.604454 -6.603538,-6.604454 H 12.290281 c -3.6456931,0 -6.6010395,2.959755 -6.6010395,6.604454 z"
       style="fill:#ffffff;fill-opacity:1;fill-rule:evenodd;stroke:none;stroke-width:0.49992403"
       id="path230"
       inkscape:connector-curvature="0" /><path
       d="m 5.6892415,61.109952 c 0,3.644699 2.9553464,6.599455 6.6010395,6.599455 h 69.526622 c 3.649193,0 6.603538,-2.954756 6.603538,-6.599455 v 0 c 0,-3.644699 -2.954345,-6.604454 -6.603538,-6.604454 H 12.290281 c -3.6456931,0 -6.6010395,2.959755 -6.6010395,6.604454 z"
       style="fill:none;stroke:#7f7f7f;stroke-width:0.49992403;stroke-linecap:round;stroke-linejoin:round;stroke-miterlimit:10;stroke-dasharray:none;stroke-opacity:1"
       id="path232"
       inkscape:connector-curvature="0" /><text
       transform="scale(0.99993074,-1.0000693)"
       style="font-variant:normal;font-weight:normal;font-size:7.03093195px;font-family:Calibri;-inkscape-font-specification:Calibri;writing-mode:lr-tb;fill:#000000;fill-opacity:1;fill-rule:nonzero;stroke:none;stroke-width:0.49992403"
       id="text236"
       x="17.001417"
       y="-58.791073"><tspan
         x="17.001417 20.003626 22.344925 25.712746 28.644642 31.843716 33.460827 37.102852 40.414421 44.738445 48.141415 51.319393 52.936512 55.882469 59.362782 62.589981 66.316376 69.972458 72.313751 75.252693"
         y="-58.791073"
         sodipodi:role="line"
         id="tspan234"
         style="stroke-width:0.49992403">TrackingDeviceSource</tspan></text>
<path
       d="m 47.703948,77.388607 c 0,0.774936 0.629861,1.404884 1.40619,1.404884 0.776328,0 1.403689,-0.629948 1.403689,-1.404884 0,-0.774936 -0.627361,-1.404884 -1.403689,-1.404884 -0.776329,0 -1.40619,0.629948 -1.40619,1.404884 z"
       style="fill:#000000;fill-opacity:1;fill-rule:evenodd;stroke:none;stroke-width:0.49992403"
       id="path238"
       inkscape:connector-curvature="0" /><path
       d="m 44.89207,77.388607 c 0,2.329807 1.888582,4.219651 4.218068,4.219651 2.328484,0 4.218066,-1.889844 4.218066,-4.219651 0,-0.07499 0,-0.149988 -0.005,-0.219982 l -1.354699,0.06999 c 0.08499,1.579869 -1.129751,2.924758 -2.708402,3.009751 -1.579151,0.07999 -2.925852,-1.129906 -3.008834,-2.709776 -0.0025,-0.05 -0.004,-0.09999 -0.004,-0.149987 z"
       style="fill:#000000;fill-opacity:1;fill-rule:evenodd;stroke:none;stroke-width:0.49992403"
       id="path240"
       inkscape:connector-curvature="0" /><g
       id="g242"
       transform="matrix(0.49988943,0,0,0.49995868,0,3.0522522e-6)"><g
         id="g244"
         clip-path="url(#clipPath248)"><path
           d="m 99.331,136.4 -0.007,6.52 -3,-0.01 0.007,-6.51 z m 2.999,5.02 -4.513,8.99 -4.491,-9 z"
           style="fill:#000000;fill-opacity:1;fill-rule:nonzero;stroke:none"
           id="path250"
           inkscape:connector-curvature="0" /></g></g><g
       id="g252"
       transform="matrix(0.49988943,0,0,0.49995868,0,3.0522522e-6)"><g
         id="g254"
         clip-path="url(#clipPath258)"><path
           d="m 96.69,162.29 0.096,5.04 3,-0.06 -0.096,-5.03 z m -2.932,3.6 4.671,8.91 4.331,-9.08 z"
           style="fill:#000000;fill-opacity:1;fill-rule:nonzero;stroke:none"
           id="path260"
           inkscape:connector-curvature="0" /></g></g><path
       d="m 6.523557,98.226884 c 0,5.839516 4.732454,10.569126 10.569662,10.569126 h 61.059494 c 5.83371,0 10.567662,-4.72961 10.567662,-10.569126 v 0 c 0,-5.839517 -4.733952,-10.574126 -10.567662,-10.574126 l -61.059494,0.005 c -5.837208,0 -10.569662,4.729609 -10.569662,10.569126 z"
       style="fill:#ffffff;fill-opacity:1;fill-rule:evenodd;stroke:none;stroke-width:0.49992403"
       id="path262"
       inkscape:connector-curvature="0" /><path
       d="m 6.523557,98.226884 c 0,5.839516 4.732454,10.569126 10.569662,10.569126 h 61.059494 c 5.83371,0 10.567662,-4.72961 10.567662,-10.569126 v 0 c 0,-5.839517 -4.733952,-10.574126 -10.567662,-10.574126 l -61.059494,0.005 c -5.837208,0 -10.569662,4.729609 -10.569662,10.569126 z"
       style="fill:none;stroke:#7f7f7f;stroke-width:0.49992403;stroke-linecap:round;stroke-linejoin:round;stroke-miterlimit:10;stroke-dasharray:none;stroke-opacity:1"
       id="path264"
       inkscape:connector-curvature="0" /><text
       transform="scale(0.99993074,-1.0000693)"
       style="font-variant:normal;font-weight:normal;font-size:7.01893377px;font-family:Calibri;-inkscape-font-specification:Calibri;writing-mode:lr-tb;fill:#000000;fill-opacity:1;fill-rule:nonzero;stroke:none;stroke-width:0.49992403"
       id="text268"
       x="33.942844"
       y="-99.884819"><tspan
         x="33.942844 35.68354 40.063351 43.481571 45.095932 48.317623 49.946018 51.560364 53.848537 57.343975"
         y="-99.884819"
         sodipodi:role="line"
         id="tspan266"
         style="stroke-width:0.49992403">IGT Filter</tspan></text>
<text
       transform="scale(0.99993074,-1.0000693)"
       style="font-variant:normal;font-weight:normal;font-size:5.53115988px;font-family:Calibri;-inkscape-font-specification:Calibri;writing-mode:lr-tb;fill:#000000;fill-opacity:1;fill-rule:nonzero;stroke:none;stroke-width:0.49992403"
       id="text272"
       x="13.545942"
       y="-92.855904"><tspan
         x="13.545942 15.221884 17.384567 18.778419 21.765245 23.159098"
         y="-92.855904"
         sodipodi:role="line"
         id="tspan270"
         style="stroke-width:0.49992403">(z.B. </tspan></text>
<text
       transform="scale(0.99993074,-1.0000693)"
       style="font-variant:normal;font-weight:normal;font-size:5.53115988px;font-family:Calibri;-inkscape-font-specification:Calibri;writing-mode:lr-tb;fill:#000000;fill-opacity:1;fill-rule:nonzero;stroke:none;stroke-width:0.49992403"
       id="text276"
       x="24.404291"
       y="-92.855904"><tspan
         x="24.404291 26.257233 28.187605 30.837032 33.176712 35.69339 36.943432 39.825165"
         y="-92.855904"
         sodipodi:role="line"
         id="tspan274"
         style="stroke-width:0.49992403">tracking</tspan></text>
<text
       transform="scale(0.99993074,-1.0000693)"
       style="font-variant:normal;font-weight:normal;font-size:5.53115988px;font-family:Calibri;-inkscape-font-specification:Calibri;writing-mode:lr-tb;fill:#000000;fill-opacity:1;fill-rule:nonzero;stroke:none;stroke-width:0.49992403"
       id="text280"
       x="43.541386"
       y="-92.855904"><tspan
         x="43.541386 46.423122 49.072544 50.925484"
         y="-92.855904"
         sodipodi:role="line"
         id="tspan278"
         style="stroke-width:0.49992403">data</tspan></text>
<text
       transform="scale(0.99993074,-1.0000693)"
       style="font-variant:normal;font-weight:normal;font-size:5.53115988px;font-family:Calibri;-inkscape-font-specification:Calibri;writing-mode:lr-tb;fill:#000000;fill-opacity:1;fill-rule:nonzero;stroke:none;stroke-width:0.49992403"
       id="text284"
       x="54.711693"
       y="-92.855904"><tspan
         x="54.711693 56.874371 61.304832 64.236343 67.167862 68.965485 71.847221 73.119385 75.984528"
         y="-92.855904"
         sodipodi:role="line"
         id="tspan282"
         style="stroke-width:0.49992403">smoothing</tspan></text>
<text
       transform="scale(0.99993074,-1.0000693)"
       style="font-variant:normal;font-weight:normal;font-size:5.53115988px;font-family:Calibri;-inkscape-font-specification:Calibri;writing-mode:lr-tb;fill:#000000;fill-opacity:1;fill-rule:nonzero;stroke:none;stroke-width:0.49992403"
       id="text288"
       x="78.528069"
       y="-92.855904"><tspan
         x="78.528069"
         y="-92.855904"
         id="tspan286"
         style="stroke-width:0.49992403">)</tspan></text>
<path
       d="M 7.4538513,18.108506 H 88.765365 V 7.6293725 c -40.654507,0 -40.654507,-3.99302 -81.3115137,-1.7243575 z"
       style="fill:#ffffff;fill-opacity:1;fill-rule:evenodd;stroke:none;stroke-width:0.49992403"
       id="path290"
       inkscape:connector-curvature="0" /><path
       d="M 7.4538513,18.108506 H 88.765365 V 7.6293725 c -40.654507,0 -40.654507,-3.99302 -81.3115137,-1.7243575 z"
       style="fill:none;stroke:#7f7f7f;stroke-width:0.49992403;stroke-linecap:round;stroke-linejoin:round;stroke-miterlimit:10;stroke-dasharray:none;stroke-opacity:1"
       id="path292"
       inkscape:connector-curvature="0" /><text
       transform="scale(0.99993074,-1.0000693)"
       style="font-variant:normal;font-weight:normal;font-size:7.01893377px;font-family:Calibri;-inkscape-font-specification:Calibri;writing-mode:lr-tb;fill:#000000;fill-opacity:1;fill-rule:nonzero;stroke:none;stroke-width:0.49992403"
       id="text296"
       x="11.06232"
       y="-10.654385"><tspan
         x="11.06232 14.059404 16.396709 19.758778 22.692692 25.886307 27.50066 31.150511 34.456429 36.00761 40.324257 43.749493 46.92205 48.536404 51.505417 54.965748 56.636253 61.009052 64.371124 66.715446 70.372307 75.348732 78.7108 81.048103"
         y="-10.654385"
         sodipodi:role="line"
         id="tspan294"
         style="stroke-width:0.49992403">Tracking Device Hardware</tspan></text>
</g></svg>