<?xml version="1.0" encoding="UTF-8" standalone="no"?>
<!-- Created with Inkscape (http://www.inkscape.org/) -->

<svg
   xmlns:dc="http://purl.org/dc/elements/1.1/"
   xmlns:cc="http://creativecommons.org/ns#"
   xmlns:rdf="http://www.w3.org/1999/02/22-rdf-syntax-ns#"
   xmlns:svg="http://www.w3.org/2000/svg"
   xmlns="http://www.w3.org/2000/svg"
   xmlns:sodipodi="http://sodipodi.sourceforge.net/DTD/sodipodi-0.dtd"
   xmlns:inkscape="http://www.inkscape.org/namespaces/inkscape"
   version="1.1"
   id="svg2"
   xml:space="preserve"
   width="718.23999"
   height="264.64001"
   viewBox="0 0 718.23999 264.64001"
   sodipodi:docname="IGTPipeline.svg"
   inkscape:version="0.92.2 (5c3e80d, 2017-08-06)"><metadata
     id="metadata8"><rdf:RDF><cc:Work
         rdf:about=""><dc:format>image/svg+xml</dc:format><dc:type
           rdf:resource="http://purl.org/dc/dcmitype/StillImage" /><dc:title></dc:title></cc:Work></rdf:RDF></metadata><defs
     id="defs6"><clipPath
       clipPathUnits="userSpaceOnUse"
       id="clipPath18"><path
         d="M 0,4.578e-6 H 538.68 V 198.48 H 0 Z"
         id="path16"
         inkscape:connector-curvature="0"
         style="clip-rule:evenodd" /></clipPath><clipPath
       clipPathUnits="userSpaceOnUse"
       id="clipPath28"><path
         d="M -1.122e-6,198.48 H 538.68 V 4.578e-6 H -1.122e-6"
         id="path26"
         inkscape:connector-curvature="0"
         style="clip-rule:evenodd" /></clipPath><clipPath
       clipPathUnits="userSpaceOnUse"
       id="clipPath38"><path
         d="M -4.7e-8,198.48 H 538.68 V 3.052e-6 H -4.7e-8"
         id="path36"
         inkscape:connector-curvature="0"
         style="clip-rule:evenodd" /></clipPath><clipPath
       clipPathUnits="userSpaceOnUse"
       id="clipPath52"><path
         d="m 77.588,181.04 c -41.939,0 -75.9376,-10.07 -75.9376,-22.5 0,-12.42 33.9986,-22.5 75.9376,-22.5 41.942,0 75.942,10.08 75.942,22.5 0,12.43 -34,22.5 -75.942,22.5 z M 0,198.48 H 538.68 V 1.526e-6 H 0 Z"
         id="path50"
         inkscape:connector-curvature="0"
         style="clip-rule:evenodd" /></clipPath><clipPath
       clipPathUnits="userSpaceOnUse"
       id="clipPath62"><path
         d="m 77.588,181.04 c -41.939,0 -75.9376,-10.07 -75.9376,-22.5 0,-12.42 33.9986,-22.5 75.9376,-22.5 41.942,0 75.942,10.08 75.942,22.5 0,12.43 -34,22.5 -75.942,22.5 z M 0,198.48 H 538.68 V 1.526e-6 H 0 Z"
         id="path60"
         inkscape:connector-curvature="0"
         style="clip-rule:evenodd" /></clipPath><clipPath
       clipPathUnits="userSpaceOnUse"
       id="clipPath76"><path
         d="M 0,0 H 538.68 V 198.48 H 0 Z"
         id="path74"
         inkscape:connector-curvature="0"
         style="clip-rule:evenodd" /></clipPath><clipPath
       clipPathUnits="userSpaceOnUse"
       id="clipPath88"><path
         d="M 0,0 H 538.68 V 198.48 H 0 Z"
         id="path86"
         inkscape:connector-curvature="0"
         style="clip-rule:evenodd" /></clipPath><clipPath
       clipPathUnits="userSpaceOnUse"
       id="clipPath96"><path
         d="M 0,0 H 538.68 V 198.48 H 0 Z"
         id="path94"
         inkscape:connector-curvature="0"
         style="clip-rule:evenodd" /></clipPath><clipPath
       clipPathUnits="userSpaceOnUse"
       id="clipPath108"><path
         d="M 0,0 H 538.68 V 198.48 H 0 Z"
         id="path106"
         inkscape:connector-curvature="0"
         style="clip-rule:evenodd" /></clipPath><clipPath
       clipPathUnits="userSpaceOnUse"
       id="clipPath116"><path
         d="m 268.84,181.04 c -41.94,0 -75.94,-10.07 -75.94,-22.5 0,-12.42 34,-22.5 75.94,-22.5 41.94,0 75.94,10.08 75.94,22.5 0,12.43 -34,22.5 -75.94,22.5 z M 0,198.48 H 538.68 V 1.526e-6 H 0 Z"
         id="path114"
         inkscape:connector-curvature="0"
         style="clip-rule:evenodd" /></clipPath><clipPath
       clipPathUnits="userSpaceOnUse"
       id="clipPath126"><path
         d="m 268.84,181.04 c -41.94,0 -75.94,-10.07 -75.94,-22.5 0,-12.42 34,-22.5 75.94,-22.5 41.94,0 75.94,10.08 75.94,22.5 0,12.43 -34,22.5 -75.94,22.5 z M 0,198.48 H 538.68 V 1.526e-6 H 0 Z"
         id="path124"
         inkscape:connector-curvature="0"
         style="clip-rule:evenodd" /></clipPath><clipPath
       clipPathUnits="userSpaceOnUse"
       id="clipPath140"><path
         d="M 0,0 H 538.68 V 198.48 H 0 Z"
         id="path138"
         inkscape:connector-curvature="0"
         style="clip-rule:evenodd" /></clipPath><clipPath
       clipPathUnits="userSpaceOnUse"
       id="clipPath152"><path
         d="M 0,0 H 538.68 V 198.48 H 0 Z"
         id="path150"
         inkscape:connector-curvature="0"
         style="clip-rule:evenodd" /></clipPath><clipPath
       clipPathUnits="userSpaceOnUse"
       id="clipPath160"><path
         d="m 460.09,181.04 c -41.94,0 -75.94,-10.07 -75.94,-22.5 0,-12.42 34,-22.5 75.94,-22.5 41.94,0 75.94,10.08 75.94,22.5 0,12.43 -34,22.5 -75.94,22.5 z M 0,198.48 H 538.68 V 1.526e-6 H 0 Z"
         id="path158"
         inkscape:connector-curvature="0"
         style="clip-rule:evenodd" /></clipPath><clipPath
       clipPathUnits="userSpaceOnUse"
       id="clipPath170"><path
         d="m 460.09,181.04 c -41.94,0 -75.94,-10.07 -75.94,-22.5 0,-12.42 34,-22.5 75.94,-22.5 41.94,0 75.94,10.08 75.94,22.5 0,12.43 -34,22.5 -75.94,22.5 z M 0,198.48 H 538.68 V 1.526e-6 H 0 Z"
         id="path168"
         inkscape:connector-curvature="0"
         style="clip-rule:evenodd" /></clipPath><clipPath
       clipPathUnits="userSpaceOnUse"
       id="clipPath184"><path
         d="M 0,0 H 538.68 V 198.48 H 0 Z"
         id="path182"
         inkscape:connector-curvature="0"
         style="clip-rule:evenodd" /></clipPath><clipPath
       clipPathUnits="userSpaceOnUse"
       id="clipPath196"><path
         d="M 0,0 H 538.68 V 198.48 H 0 Z"
         id="path194"
         inkscape:connector-curvature="0"
         style="clip-rule:evenodd" /></clipPath><clipPath
       clipPathUnits="userSpaceOnUse"
       id="clipPath204"><path
         d="M 1.644e-6,198.48 H 538.68 V 3.052e-6 H 1.644e-6"
         id="path202"
         inkscape:connector-curvature="0"
         style="clip-rule:evenodd" /></clipPath><clipPath
       clipPathUnits="userSpaceOnUse"
       id="clipPath214"><path
         d="M -1.35e-7,198.48 H 538.68 V 3.052e-6 H -1.35e-7"
         id="path212"
         inkscape:connector-curvature="0"
         style="clip-rule:evenodd" /></clipPath><clipPath
       clipPathUnits="userSpaceOnUse"
       id="clipPath228"><path
         d="M 0,0 H 538.68 V 198.48 H 0 Z"
         id="path226"
         inkscape:connector-curvature="0"
         style="clip-rule:evenodd" /></clipPath><clipPath
       clipPathUnits="userSpaceOnUse"
       id="clipPath240"><path
         d="M 0,0 H 538.68 V 198.48 H 0 Z"
         id="path238"
         inkscape:connector-curvature="0"
         style="clip-rule:evenodd" /></clipPath><clipPath
       clipPathUnits="userSpaceOnUse"
       id="clipPath248"><path
         d="M 0,0 H 538.68 V 198.48 H 0 Z"
         id="path246"
         inkscape:connector-curvature="0"
         style="clip-rule:evenodd" /></clipPath><clipPath
       clipPathUnits="userSpaceOnUse"
       id="clipPath260"><path
         d="M 0,0 H 538.68 V 198.48 H 0 Z"
         id="path258"
         inkscape:connector-curvature="0"
         style="clip-rule:evenodd" /></clipPath><clipPath
       clipPathUnits="userSpaceOnUse"
       id="clipPath268"><path
         d="M -4.76e-7,198.48 H 538.68 V 4.578e-6 H -4.76e-7"
         id="path266"
         inkscape:connector-curvature="0"
         style="clip-rule:evenodd" /></clipPath><clipPath
       clipPathUnits="userSpaceOnUse"
       id="clipPath278"><path
         d="M -7.53e-7,198.48 H 538.68 V 4.578e-6 H -7.53e-7"
         id="path276"
         inkscape:connector-curvature="0"
         style="clip-rule:evenodd" /></clipPath><clipPath
       clipPathUnits="userSpaceOnUse"
       id="clipPath288"><path
         d="M 5.46e-7,198.48 H 538.68 V 4.578e-6 H 5.46e-7"
         id="path286"
         inkscape:connector-curvature="0"
         style="clip-rule:evenodd" /></clipPath><clipPath
       clipPathUnits="userSpaceOnUse"
       id="clipPath306"><path
         d="M 0,0 H 538.68 V 198.48 H 0 Z"
         id="path304"
         inkscape:connector-curvature="0"
         style="clip-rule:evenodd" /></clipPath><clipPath
       clipPathUnits="userSpaceOnUse"
       id="clipPath318"><path
         d="M 0,0 H 538.68 V 198.48 H 0 Z"
         id="path316"
         inkscape:connector-curvature="0"
         style="clip-rule:evenodd" /></clipPath><clipPath
       clipPathUnits="userSpaceOnUse"
       id="clipPath326"><path
         d="M 0,0 H 538.68 V 198.48 H 0 Z"
         id="path324"
         inkscape:connector-curvature="0"
         style="clip-rule:evenodd" /></clipPath><clipPath
       clipPathUnits="userSpaceOnUse"
       id="clipPath338"><path
         d="M 0,0 H 538.68 V 198.48 H 0 Z"
         id="path336"
         inkscape:connector-curvature="0"
         style="clip-rule:evenodd" /></clipPath><clipPath
       clipPathUnits="userSpaceOnUse"
       id="clipPath346"><path
         d="M 0,0 H 538.68 V 198.48 H 0 Z"
         id="path344"
         inkscape:connector-curvature="0"
         style="clip-rule:evenodd" /></clipPath><clipPath
       clipPathUnits="userSpaceOnUse"
       id="clipPath358"><path
         d="M 0,0 H 538.68 V 198.48 H 0 Z"
         id="path356"
         inkscape:connector-curvature="0"
         style="clip-rule:evenodd" /></clipPath><clipPath
       clipPathUnits="userSpaceOnUse"
       id="clipPath366"><path
         d="M 0,0 H 538.68 V 198.48 H 0 Z"
         id="path364"
         inkscape:connector-curvature="0"
         style="clip-rule:evenodd" /></clipPath><clipPath
       clipPathUnits="userSpaceOnUse"
       id="clipPath378"><path
         d="M 0,0 H 538.68 V 198.48 H 0 Z"
         id="path376"
         inkscape:connector-curvature="0"
         style="clip-rule:evenodd" /></clipPath><clipPath
       clipPathUnits="userSpaceOnUse"
       id="clipPath390"><path
         d="M 0,0 H 538.68 V 198.48 H 0 Z"
         id="path388"
         inkscape:connector-curvature="0"
         style="clip-rule:evenodd" /></clipPath><clipPath
       clipPathUnits="userSpaceOnUse"
       id="clipPath398"><path
         d="M 0,0 H 538.68 V 198.48 H 0 Z"
         id="path396"
         inkscape:connector-curvature="0"
         style="clip-rule:evenodd" /></clipPath><clipPath
       clipPathUnits="userSpaceOnUse"
       id="clipPath410"><path
         d="M 0,0 H 538.68 V 198.48 H 0 Z"
         id="path408"
         inkscape:connector-curvature="0"
         style="clip-rule:evenodd" /></clipPath><clipPath
       clipPathUnits="userSpaceOnUse"
       id="clipPath422"><path
         d="M 0,0 H 538.68 V 198.48 H 0 Z"
         id="path420"
         inkscape:connector-curvature="0"
         style="clip-rule:evenodd" /></clipPath><clipPath
       clipPathUnits="userSpaceOnUse"
       id="clipPath430"><path
         d="M 0,0 H 538.68 V 198.48 H 0 Z"
         id="path428"
         inkscape:connector-curvature="0"
         style="clip-rule:evenodd" /></clipPath><clipPath
       clipPathUnits="userSpaceOnUse"
       id="clipPath442"><path
         d="M 0,0 H 538.68 V 198.48 H 0 Z"
         id="path440"
         inkscape:connector-curvature="0"
         style="clip-rule:evenodd" /></clipPath><clipPath
       clipPathUnits="userSpaceOnUse"
       id="clipPath454"><path
         d="M 0,0 H 538.68 V 198.48 H 0 Z"
         id="path452"
         inkscape:connector-curvature="0"
         style="clip-rule:evenodd" /></clipPath></defs><sodipodi:namedview
     pagecolor="#ffffff"
     bordercolor="#666666"
     borderopacity="1"
     objecttolerance="10"
     gridtolerance="10"
     guidetolerance="10"
     inkscape:pageopacity="0"
     inkscape:pageshadow="2"
     inkscape:window-width="3840"
     inkscape:window-height="2127"
     id="namedview4"
     showgrid="false"
     inkscape:zoom="0.71006907"
     inkscape:cx="359.12"
     inkscape:cy="132.32001"
     inkscape:window-x="1589"
     inkscape:window-y="-11"
     inkscape:window-maximized="1"
     inkscape:current-layer="g10" /><g
     id="g10"
     inkscape:groupmode="layer"
     inkscape:label="IGTPipeline"
     transform="matrix(1.3333333,0,0,-1.3333333,0,264.64)"><g
       id="g12"><g
         id="g14"
         clip-path="url(#clipPath18)"><path
           d="M 0,-0.019989 H 538.63 V 198.48001 H 0 Z"
           style="fill:#ffffff;fill-opacity:1;fill-rule:evenodd;stroke:none"
           id="path20"
           inkscape:connector-curvature="0" /></g></g><g
       id="g22"><g
         id="g24"
         clip-path="url(#clipPath28)"><path
           d="m 172.57,161.78 c 1.55,0 2.81,-1.26 2.81,-2.82 0,-1.55 -1.26,-2.81 -2.81,-2.81 -1.55,0 -2.81,1.26 -2.81,2.81 0,1.56 1.26,2.82 2.81,2.82 z"
           style="fill:#000000;fill-opacity:1;fill-rule:evenodd;stroke:none"
           id="path30"
           inkscape:connector-curvature="0" /></g></g><g
       id="g32"><g
         id="g34"
         clip-path="url(#clipPath38)"><path
           d="m 172.57,167.4 c 4.66,0 8.44,-3.78 8.44,-8.44 0,-4.66 -3.78,-8.43 -8.44,-8.43 -0.15,0 -0.3,0 -0.44,0.01 l 0.14,2.7 c 3.16,-0.16 5.85,2.26 6.02,5.42 0.16,3.16 -2.26,5.86 -5.42,6.02 -0.1,0.01 -0.2,0.01 -0.3,0.01 z"
           style="fill:#000000;fill-opacity:1;fill-rule:evenodd;stroke:none"
           id="path40"
           inkscape:connector-curvature="0" /></g></g><path
       d="m 154.18,157.87 6.52,0.01 -0.01,3 -6.51,-0.01 z m 5.02,-2.99 8.99,4.51 -9,4.49 z"
       style="fill:#000000;fill-opacity:1;fill-rule:nonzero;stroke:none"
       id="path42"
       inkscape:connector-curvature="0" /><path
       d="m 180.07,160.51 5.04,-0.09 -0.06,-3 -5.04,0.1 z m 3.6,2.94 8.91,-4.67 -9.08,-4.33 z"
       style="fill:#000000;fill-opacity:1;fill-rule:nonzero;stroke:none"
       id="path44"
       inkscape:connector-curvature="0" /><g
       id="g46"><g
         id="g48"
         clip-path="url(#clipPath52)"><g
           id="g54"
           transform="matrix(160.8,0,0,55.32,9.84e-7,128.76)" /></g></g><g
       id="g56"><g
         id="g58"
         clip-path="url(#clipPath62)"><g
           id="g64"
           transform="matrix(93.6,0,0,54.6,34.44,127.08)" /></g></g><path
       d="m 1.6504,158.54 c 0,12.43 33.9986,22.5 75.9376,22.5 41.942,0 75.942,-10.07 75.942,-22.5 0,-12.42 -34,-22.5 -75.942,-22.5 -41.939,0 -75.9376,10.08 -75.9376,22.5 z"
       style="fill:#ffffff;fill-opacity:1;fill-rule:evenodd;stroke:none"
       id="path66"
       inkscape:connector-curvature="0" /><path
       d="m 1.6504,158.54 c 0,12.43 33.9986,22.5 75.9376,22.5 41.942,0 75.942,-10.07 75.942,-22.5 0,-12.42 -34,-22.5 -75.942,-22.5 -41.939,0 -75.9376,10.08 -75.9376,22.5 z"
       style="fill:none;stroke:#000000;stroke-width:2;stroke-linecap:round;stroke-linejoin:round;stroke-miterlimit:10;stroke-dasharray:none;stroke-opacity:1"
       id="path68"
       inkscape:connector-curvature="0" /><g
       id="g70"><g
         id="g72"
         clip-path="url(#clipPath76)"><text
           transform="matrix(1,0,0,-1,47.112,162.24)"
           style="font-variant:normal;font-weight:normal;font-size:14.03999996px;font-family:Calibri;-inkscape-font-specification:Calibri;writing-mode:lr-tb;fill:#000000;fill-opacity:1;fill-rule:nonzero;stroke:none"
           id="text80"><tspan
             x="0 9.1119604 15.59844 21.944521 25.173719 31.56192 38.160721 42.86412 46.093319 53.492401"
             y="0"
             sodipodi:role="line"
             id="tspan78">Navigation</tspan></text>
</g></g><g
       id="g82"><g
         id="g84"
         clip-path="url(#clipPath88)" /></g><g
       id="g90"><g
         id="g92"
         clip-path="url(#clipPath96)"><text
           transform="matrix(1,0,0,-1,44.952,145.44)"
           style="font-variant:normal;font-weight:normal;font-size:14.03999996px;font-family:Calibri;-inkscape-font-specification:Calibri;writing-mode:lr-tb;fill:#000000;fill-opacity:1;fill-rule:nonzero;stroke:none"
           id="text100"><tspan
             x="0 8.6345997 15.2334 19.7964 26.521561 32.965919 40.421162 47.736 52.41132 58.294079"
             y="0"
             sodipodi:role="line"
             id="tspan98">DataSource</tspan></text>
</g></g><g
       id="g102"><g
         id="g104"
         clip-path="url(#clipPath108)" /></g><g
       id="g110"><g
         id="g112"
         clip-path="url(#clipPath116)"><g
           id="g118"
           transform="matrix(162.24,0,0,55.32,189.84,128.76)" /></g></g><g
       id="g120"><g
         id="g122"
         clip-path="url(#clipPath126)"><g
           id="g128"
           transform="matrix(67.92,0,0,37.8,238.56,135.48)" /></g></g><path
       d="m 192.9,158.54 c 0,12.43 34,22.5 75.94,22.5 41.94,0 75.94,-10.07 75.94,-22.5 0,-12.42 -34,-22.5 -75.94,-22.5 -41.94,0 -75.94,10.08 -75.94,22.5 z"
       style="fill:#ffffff;fill-opacity:1;fill-rule:evenodd;stroke:none"
       id="path130"
       inkscape:connector-curvature="0" /><path
       d="m 192.9,158.54 c 0,12.43 34,22.5 75.94,22.5 41.94,0 75.94,-10.07 75.94,-22.5 0,-12.42 -34,-22.5 -75.94,-22.5 -41.94,0 -75.94,10.08 -75.94,22.5 z"
       style="fill:none;stroke:#000000;stroke-width:2;stroke-linecap:round;stroke-linejoin:round;stroke-miterlimit:10;stroke-dasharray:none;stroke-opacity:1"
       id="path132"
       inkscape:connector-curvature="0" /><g
       id="g134"><g
         id="g136"
         clip-path="url(#clipPath140)"><text
           transform="matrix(1,0,0,-1,249.1,153.84)"
           style="font-variant:normal;font-weight:normal;font-size:14.03999996px;font-family:Calibri;-inkscape-font-specification:Calibri;writing-mode:lr-tb;fill:#000000;fill-opacity:1;fill-rule:nonzero;stroke:none"
           id="text144"><tspan
             x="0 6.4443598 9.7016401 12.93084 17.507879 24.4998 29.399759 32.502602"
             y="0"
             sodipodi:role="line"
             id="tspan142">Filter 1</tspan></text>
</g></g><g
       id="g146"><g
         id="g148"
         clip-path="url(#clipPath152)" /></g><g
       id="g154"><g
         id="g156"
         clip-path="url(#clipPath160)"><g
           id="g162"
           transform="matrix(157.56,0,0,55.32,381.12,128.76)" /></g></g><g
       id="g164"><g
         id="g166"
         clip-path="url(#clipPath170)"><g
           id="g172"
           transform="matrix(67.92,0,0,37.8,429.84,135.48)" /></g></g><path
       d="m 384.15,158.54 c 0,12.43 34,22.5 75.94,22.5 41.94,0 75.94,-10.07 75.94,-22.5 0,-12.42 -34,-22.5 -75.94,-22.5 -41.94,0 -75.94,10.08 -75.94,22.5 z"
       style="fill:#ffffff;fill-opacity:1;fill-rule:evenodd;stroke:none"
       id="path174"
       inkscape:connector-curvature="0" /><path
       d="m 384.15,158.54 c 0,12.43 34,22.5 75.94,22.5 41.94,0 75.94,-10.07 75.94,-22.5 0,-12.42 -34,-22.5 -75.94,-22.5 -41.94,0 -75.94,10.08 -75.94,22.5 z"
       style="fill:none;stroke:#000000;stroke-width:2;stroke-linecap:round;stroke-linejoin:round;stroke-miterlimit:10;stroke-dasharray:none;stroke-opacity:1"
       id="path176"
       inkscape:connector-curvature="0" /><g
       id="g178"><g
         id="g180"
         clip-path="url(#clipPath184)"><text
           transform="matrix(1,0,0,-1,440.4,153.84)"
           style="font-variant:normal;font-weight:normal;font-size:14.03999996px;font-family:Calibri;-inkscape-font-specification:Calibri;writing-mode:lr-tb;fill:#000000;fill-opacity:1;fill-rule:nonzero;stroke:none"
           id="text188"><tspan
             x="0 6.4443598 9.7016401 12.93084 17.507879 24.4998 29.399759 32.502602"
             y="0"
             sodipodi:role="line"
             id="tspan186">Filter 2</tspan></text>
</g></g><g
       id="g190"><g
         id="g192"
         clip-path="url(#clipPath196)" /></g><g
       id="g198"><g
         id="g200"
         clip-path="url(#clipPath204)"><path
           d="m 363.71,161.66 c 1.56,0 2.82,-1.26 2.82,-2.82 0,-1.55 -1.26,-2.81 -2.82,-2.81 -1.55,0 -2.81,1.26 -2.81,2.81 0,1.56 1.26,2.82 2.81,2.82 z"
           style="fill:#000000;fill-opacity:1;fill-rule:evenodd;stroke:none"
           id="path206"
           inkscape:connector-curvature="0" /></g></g><g
       id="g208"><g
         id="g210"
         clip-path="url(#clipPath214)"><path
           d="m 363.71,167.28 c 4.66,0 8.44,-3.78 8.44,-8.44 0,-4.66 -3.78,-8.43 -8.44,-8.43 -0.14,0 -0.29,0 -0.44,0.01 l 0.14,2.7 c 3.16,-0.16 5.86,2.26 6.02,5.42 0.17,3.16 -2.26,5.86 -5.42,6.02 -0.1,0.01 -0.2,0.01 -0.3,0.01 z"
           style="fill:#000000;fill-opacity:1;fill-rule:evenodd;stroke:none"
           id="path216"
           inkscape:connector-curvature="0" /></g></g><path
       d="m 345.33,157.75 6.51,0.01 v 3 l -6.52,-0.01 z m 5.01,-2.99 9,4.51 -9.01,4.49 z"
       style="fill:#000000;fill-opacity:1;fill-rule:nonzero;stroke:none"
       id="path218"
       inkscape:connector-curvature="0" /><path
       d="m 371.22,160.39 5.04,-0.09 -0.06,-3 -5.04,0.1 z m 3.59,2.94 8.92,-4.67 -9.09,-4.33 z"
       style="fill:#000000;fill-opacity:1;fill-rule:nonzero;stroke:none"
       id="path220"
       inkscape:connector-curvature="0" /><g
       id="g222"><g
         id="g224"
         clip-path="url(#clipPath228)"><text
           transform="matrix(1,0,0,-1,138.26,178.37)"
           style="font-variant:normal;font-weight:normal;font-size:11.03999996px;font-family:Calibri;-inkscape-font-specification:Calibri;writing-mode:lr-tb;fill:#000000;fill-opacity:1;fill-rule:nonzero;stroke:none"
           id="text232"><tspan
             x="0 7.0766401 12.3648 17.388 19.9272 25.07184 30.360001 34.058399 36.597599 42.459839 48.222721 54.946079 60.234241 63.822239"
             y="0"
             sodipodi:role="line"
             id="tspan230">NavigationData</tspan></text>
</g></g><g
       id="g234"><g
         id="g236"
         clip-path="url(#clipPath240)" /></g><g
       id="g242"><g
         id="g244"
         clip-path="url(#clipPath248)"><text
           transform="matrix(1,0,0,-1,329.57,178.37)"
           style="font-variant:normal;font-weight:normal;font-size:11.03999996px;font-family:Calibri;-inkscape-font-specification:Calibri;writing-mode:lr-tb;fill:#000000;fill-opacity:1;fill-rule:nonzero;stroke:none"
           id="text252"><tspan
             x="0 7.0766401 12.3648 17.388 19.9272 25.07184 30.360001 34.058399 36.597599 42.459839 48.222721 54.946079 60.234241 63.822239"
             y="0"
             sodipodi:role="line"
             id="tspan250">NavigationData</tspan></text>
</g></g><g
       id="g254"><g
         id="g256"
         clip-path="url(#clipPath260)" /></g><g
       id="g262"><g
         id="g264"
         clip-path="url(#clipPath268)"><path
           d="M 271.78,136.04 271.65,6.6675"
           style="fill:none;stroke:#000000;stroke-width:1.75;stroke-linecap:round;stroke-linejoin:round;stroke-miterlimit:10;stroke-dasharray:0, 3.5;stroke-dashoffset:0;stroke-opacity:1"
           id="path270"
           inkscape:connector-curvature="0" /></g></g><g
       id="g272"><g
         id="g274"
         clip-path="url(#clipPath278)"><path
           d="M 74.901,136.04 74.776,6.6676"
           style="fill:none;stroke:#000000;stroke-width:1.75;stroke-linecap:round;stroke-linejoin:round;stroke-miterlimit:10;stroke-dasharray:0, 3.5;stroke-dashoffset:0;stroke-opacity:1"
           id="path280"
           inkscape:connector-curvature="0" /></g></g><g
       id="g282"><g
         id="g284"
         clip-path="url(#clipPath288)"><path
           d="M 463.03,136.04 462.9,6.6675"
           style="fill:none;stroke:#000000;stroke-width:1.75;stroke-linecap:round;stroke-linejoin:round;stroke-miterlimit:10;stroke-dasharray:0, 3.5;stroke-dashoffset:0;stroke-opacity:1"
           id="path290"
           inkscape:connector-curvature="0" /></g></g><path
       d="M 271.65,90.668 75.516,90.793 c -0.207,0 -0.375,0.168 -0.374,0.375 0,0.207 0.168,0.375 0.375,0.375 L 271.65,91.418 c 0.21,0 0.38,-0.168 0.38,-0.375 0,-0.207 -0.17,-0.375 -0.38,-0.375 z M 81.327,87.34 l -6.553,3.828 6.558,3.82 c 0.179,0.104 0.408,0.044 0.513,-0.135 0.104,-0.179 0.043,-0.409 -0.136,-0.513 l -6.002,-3.496 0.001,0.648 5.997,-3.504 c 0.179,-0.105 0.239,-0.334 0.135,-0.513 -0.105,-0.179 -0.334,-0.239 -0.513,-0.135 z"
       style="fill:#000000;fill-opacity:1;fill-rule:nonzero;stroke:none"
       id="path292"
       inkscape:connector-curvature="0" /><path
       d="m 462.9,113.04 -190.51,0.13 c -0.21,0 -0.37,0.17 -0.37,0.37 0,0.21 0.16,0.38 0.37,0.38 l 190.51,-0.13 c 0.21,0 0.38,-0.16 0.38,-0.37 0,-0.21 -0.17,-0.38 -0.38,-0.38 z m -184.7,-3.32 -6.55,3.82 6.56,3.82 c 0.18,0.11 0.41,0.05 0.51,-0.13 0.11,-0.18 0.04,-0.41 -0.13,-0.52 l -6.01,-3.49 v 0.65 l 6,-3.51 c 0.18,-0.1 0.24,-0.33 0.14,-0.51 -0.11,-0.18 -0.34,-0.24 -0.52,-0.13 z"
       style="fill:#000000;fill-opacity:1;fill-rule:nonzero;stroke:none"
       id="path294"
       inkscape:connector-curvature="0" /><path
       d="M 74.777,50.543 270.91,51.29 c 0.21,10e-4 0.38,0.169 0.38,0.376 -0.01,0.208 -0.17,0.375 -0.38,0.374 v 0 L 74.774,51.293 c -0.207,-10e-4 -0.374,-0.169 -0.373,-0.377 0.001,-0.207 0.169,-0.374 0.376,-0.373 z m 190.333,-2.724 6.54,3.849 -6.57,3.799 c -0.18,0.103 -0.4,0.042 -0.51,-0.137 -0.1,-0.179 -0.04,-0.409 0.14,-0.513 l 6.01,-3.477 v 0.648 l -5.99,-3.523 c -0.18,-0.105 -0.24,-0.335 -0.13,-0.513 0.1,-0.179 0.33,-0.238 0.51,-0.133 z"
       style="fill:#000000;fill-opacity:1;fill-rule:nonzero;stroke:none"
       id="path296"
       inkscape:connector-curvature="0" /><path
       d="m 271.65,29.543 190.52,-0.125 c 0.2,0 0.37,-0.168 0.37,-0.375 0,-0.207 -0.17,-0.375 -0.38,-0.375 l -190.51,0.125 c -0.21,0 -0.37,0.168 -0.37,0.375 0,0.207 0.17,0.375 0.37,0.375 z m 184.7,3.328 6.56,-3.828 -6.56,-3.82 c -0.18,-0.104 -0.41,-0.044 -0.52,0.135 -0.1,0.179 -0.04,0.409 0.14,0.513 l 6,3.496 v -0.648 l -6,3.504 c -0.17,0.105 -0.24,0.334 -0.13,0.513 0.1,0.179 0.33,0.239 0.51,0.135 z"
       style="fill:#000000;fill-opacity:1;fill-rule:nonzero;stroke:none"
       id="path298"
       inkscape:connector-curvature="0" /><g
       id="g300"><g
         id="g302"
         clip-path="url(#clipPath306)"><text
           transform="matrix(1,0,0,-1,151.22,80.784)"
           style="font-variant:normal;font-weight:normal;font-size:11.03999996px;font-family:Calibri;-inkscape-font-specification:Calibri;writing-mode:lr-tb;fill:#000000;fill-opacity:1;fill-rule:nonzero;stroke:none"
           id="text310"><tspan
             x="0 7.0876799 12.83952 18.6024 23.89056 27.588961 33.108959 36.454079"
             y="0"
             sodipodi:role="line"
             id="tspan308">Update()</tspan></text>
</g></g><g
       id="g312"><g
         id="g314"
         clip-path="url(#clipPath318)" /></g><g
       id="g320"><g
         id="g322"
         clip-path="url(#clipPath326)"><text
           transform="matrix(1,0,0,-1,346.44,103.3)"
           style="font-variant:normal;font-weight:normal;font-size:11.03999996px;font-family:Calibri;-inkscape-font-specification:Calibri;writing-mode:lr-tb;fill:#000000;fill-opacity:1;fill-rule:nonzero;stroke:none"
           id="text330"><tspan
             x="0 7.0876799 12.83952 18.6024 23.89056 27.588961 33.108959 36.454079"
             y="0"
             sodipodi:role="line"
             id="tspan328">Update()</tspan></text>
</g></g><g
       id="g332"><g
         id="g334"
         clip-path="url(#clipPath338)" /></g><g
       id="g340"><g
         id="g342"
         clip-path="url(#clipPath346)"><text
           transform="matrix(1,0,0,-1,467.21,122.09)"
           style="font-variant:normal;font-weight:normal;font-size:11.03999996px;font-family:Calibri;-inkscape-font-specification:Calibri;writing-mode:lr-tb;fill:#000000;fill-opacity:1;fill-rule:nonzero;stroke:none"
           id="text350"><tspan
             x="0 7.0876799 12.88368 18.624479 23.91264 27.61104 33.131039 36.476158"
             y="0"
             sodipodi:role="line"
             id="tspan348">Update()</tspan></text>
</g></g><g
       id="g352"><g
         id="g354"
         clip-path="url(#clipPath358)" /></g><g
       id="g360"><g
         id="g362"
         clip-path="url(#clipPath366)"><text
           transform="matrix(1,0,0,-1,138.26,54.552)"
           style="font-variant:normal;font-weight:normal;font-size:11.03999996px;font-family:Calibri;-inkscape-font-specification:Calibri;writing-mode:lr-tb;fill:#000000;fill-opacity:1;fill-rule:nonzero;stroke:none"
           id="text370"><tspan
             x="0 6.9662399 12.46416 18.26016 23.75808 27.61104 32.8992 36.597599 42.09552 48.951359 54.239521 57.93792"
             y="0"
             sodipodi:role="line"
             id="tspan368">GenerateData</tspan></text>
</g></g><g
       id="g372"><g
         id="g374"
         clip-path="url(#clipPath378)"><text
           transform="matrix(1,0,0,-1,201.5,54.552)"
           style="font-variant:normal;font-weight:normal;font-size:11.03999996px;font-family:Calibri;-inkscape-font-specification:Calibri;writing-mode:lr-tb;fill:#000000;fill-opacity:1;fill-rule:nonzero;stroke:none"
           id="text382"><tspan
             x="0 3.3600199"
             y="0"
             sodipodi:role="line"
             id="tspan380">()</tspan></text>
</g></g><g
       id="g384"><g
         id="g386"
         clip-path="url(#clipPath390)" /></g><g
       id="g392"><g
         id="g394"
         clip-path="url(#clipPath398)"><text
           transform="matrix(1,0,0,-1,335.18,32.04)"
           style="font-variant:normal;font-weight:normal;font-size:11.03999996px;font-family:Calibri;-inkscape-font-specification:Calibri;writing-mode:lr-tb;fill:#000000;fill-opacity:1;fill-rule:nonzero;stroke:none"
           id="text402"><tspan
             x="0 6.9662399 12.46416 18.26016 23.75808 27.61104 32.8992 36.597599 42.09552 48.951359 54.239521 57.93792"
             y="0"
             sodipodi:role="line"
             id="tspan400">GenerateData</tspan></text>
</g></g><g
       id="g404"><g
         id="g406"
         clip-path="url(#clipPath410)"><text
           transform="matrix(1,0,0,-1,398.45,32.04)"
           style="font-variant:normal;font-weight:normal;font-size:11.03999996px;font-family:Calibri;-inkscape-font-specification:Calibri;writing-mode:lr-tb;fill:#000000;fill-opacity:1;fill-rule:nonzero;stroke:none"
           id="text414"><tspan
             x="0 3.3600199"
             y="0"
             sodipodi:role="line"
             id="tspan412">()</tspan></text>
</g></g><g
       id="g416"><g
         id="g418"
         clip-path="url(#clipPath422)" /></g><g
       id="g424"><g
         id="g426"
         clip-path="url(#clipPath430)"><text
           transform="matrix(1,0,0,-1,467.26,15.144)"
           style="font-variant:normal;font-weight:normal;font-size:11.03999996px;font-family:Calibri;-inkscape-font-specification:Calibri;writing-mode:lr-tb;fill:#000000;fill-opacity:1;fill-rule:nonzero;stroke:none"
           id="text434"><tspan
             x="0 6.9662399 12.46416 18.26016 23.75808 27.61104 32.8992 36.597599 42.09552 48.951359 54.239521 57.93792"
             y="0"
             sodipodi:role="line"
             id="tspan432">GenerateData</tspan></text>
</g></g><g
       id="g436"><g
         id="g438"
         clip-path="url(#clipPath442)"><text
           transform="matrix(1,0,0,-1,530.5,15.144)"
           style="font-variant:normal;font-weight:normal;font-size:11.03999996px;font-family:Calibri;-inkscape-font-specification:Calibri;writing-mode:lr-tb;fill:#000000;fill-opacity:1;fill-rule:nonzero;stroke:none"
           id="text446"><tspan
             x="0 3.3600199"
             y="0"
             sodipodi:role="line"
             id="tspan444">()</tspan></text>
</g></g><g
       id="g448"><g
         id="g450"
         clip-path="url(#clipPath454)" /></g></g></svg>