/* XPM */
static const char * btnClear_xpm[] = {
"13 9 34 1",
" 	c None",
".	c #090909",
"+	c #080808",
"@	c #000000",
"#	c #0D0D0D",
"$	c #ECECEC",
"%	c #FFFFFF",
"&	c #FCFCFC",
"*	c #E6E6E6",
"=	c #0B0B0B",
"-	c #FBFBFB",
";	c #F5F5F5",
">	c #CDCDCD",
",	c #FEFEFE",
"'	c #FAFAFA",
")	c #F4F4F4",
"!	c #0C0C0C",
"~	c #CCCCCC",
"{	c #D8D8D8",
"]	c #050505",
"^	c #F3F3F3",
"/	c #FDFDFD",
"(	c #CBCBCB",
"_	c #010101",
":	c #040404",
"<	c #D4D4D4",
"[	c #D1D1D1",
"}	c #C9C9C9",
"|	c #EAEAEA",
"1	c #EEEEEE",
"2	c #F8F8F8",
"3	c #020202",
"4	c #0F0F0F",
"5	c #111111",
"     .+@@#+@@",
"    .$%%&*%=@",
"   @-%;%%%@>@",
"  @%,;%')!~{]",
" @^/%&''!>(@ ",
"@#_@:@:@<[@  ",
"@%%,%%&]}@   ",
"!|%/12%3@    ",
"@]@.45@@     "};
