/* XPM */
static const char * notpossible_xpm[] = {
"16 16 5 1",
" 	c None",
".	c #B5B6B5",
"+	c #737573",
"@	c #FF0000",
"#	c #FFFFFF",
"                ",
"                ",
"                ",
"    .+++++.     ",
"   .+@@@@@+.    ",
"   +@@@@@@@+    ",
"   +@@@@@@@+    ",
"   +@#####@+    ",
"   +@@@@@@@+    ",
"   +@@@@@@@+    ",
"   .+@@@@@+.    ",
"    .+++++.     ",
"                ",
"                ",
"                ",
"                "};
