<?xml version="1.0" encoding="UTF-8" standalone="no"?>
<!-- Created with Inkscape (http://www.inkscape.org/) -->

<svg
   xmlns:dc="http://purl.org/dc/elements/1.1/"
   xmlns:cc="http://creativecommons.org/ns#"
   xmlns:rdf="http://www.w3.org/1999/02/22-rdf-syntax-ns#"
   xmlns:svg="http://www.w3.org/2000/svg"
   xmlns="http://www.w3.org/2000/svg"
   xmlns:xlink="http://www.w3.org/1999/xlink"
   xmlns:sodipodi="http://sodipodi.sourceforge.net/DTD/sodipodi-0.dtd"
   xmlns:inkscape="http://www.inkscape.org/namespaces/inkscape"
   version="1.1"
   id="svg2"
   width="250"
   height="250"
   viewBox="0 0 250 250"
   sodipodi:docname="icon_US_navigation.svg"
   inkscape:version="0.92.2 (5c3e80d, 2017-08-06)">
  <metadata
     id="metadata8">
    <rdf:RDF>
      <cc:Work
         rdf:about="">
        <dc:format>image/svg+xml</dc:format>
        <dc:type
           rdf:resource="http://purl.org/dc/dcmitype/StillImage" />
        <dc:title />
      </cc:Work>
    </rdf:RDF>
  </metadata>
  <defs
     id="defs6" />
  <sodipodi:namedview
     pagecolor="#ffffff"
     bordercolor="#666666"
     borderopacity="1"
     objecttolerance="10"
     gridtolerance="10"
     guidetolerance="10"
     inkscape:pageopacity="0"
     inkscape:pageshadow="2"
     inkscape:window-width="3840"
     inkscape:window-height="2127"
     id="namedview4"
     showgrid="false"
     inkscape:zoom="0.944"
     inkscape:cx="-202.33051"
     inkscape:cy="125"
     inkscape:window-x="1589"
     inkscape:window-y="-11"
     inkscape:window-maximized="1"
     inkscape:current-layer="svg2" />
  <path
     style="fill:#00ff00"
     d="m 113.5,224.35148 c -15.134229,-3.15187 -26.17466,-8.70219 -36.5,-18.3495 -3.970456,-3.70973 -5.912117,-4.59523 -16.5,-7.52482 -6.6,-1.82617 -16.05,-4.73267 -21,-6.45889 C 30.246297,188.79121 0,174.59207 0,173.47498 0,172.22309 8.2903498,158.93297 8.8864518,159.22926 32.770833,171.10085 49.252766,178.10055 56.944056,179.63881 l 2.845004,0.569 -1.89453,-6.83226 C 56.852538,169.6178 56,165.28131 56,163.73889 v -2.80439 l 11.137712,0.28275 11.137712,0.28275 1.338069,5.23545 c 4.236455,16.57593 17.250781,29.75659 33.886507,34.31958 l 6,1.64574 0.28275,11.14961 c 0.31091,12.25995 0.51608,11.91703 -6.28275,10.5011 z M 130.21614,213.969 130.5,202.70077 l 6,-1.64574 c 16.63573,-4.56299 29.65005,-17.74365 33.88651,-34.31958 L 171.72458,161.5 182.86229,161.21725 194,160.9345 l -0.0119,2.78275 c -0.0107,2.5081 -1.49004,9.04444 -3.39847,15.0158 -0.68967,2.15795 -0.31639,2.09653 11.09833,-1.82619 6.49661,-2.23258 17.88701,-7.03512 25.31201,-10.67231 7.425,-3.63719 13.83333,-6.64041 14.24073,-6.67381 0.61951,-0.0508 8.75927,12.96015 8.75927,14.00121 0,0.77209 -13.29899,7.69532 -22.57509,11.75222 -12.556,5.49135 -25.5404,9.99514 -39.2247,13.60556 -9.72455,2.56569 -11.18384,3.26794 -16.00418,7.70169 -10.05111,9.24498 -24.38977,16.11028 -37.47989,17.94523 l -4.78386,0.67059 0.28386,-11.26824 z M 111.302,188.8974 c -2.85891,-1.09911 -7.44547,-4.01904 -10.19237,-6.48874 C 95.903656,177.72804 90,167.5809 90,163.31354 v -2.36701 l 14.75,0.27674 14.75,0.27673 0.27673,14.75 c 0.31576,16.83002 0.74366,16.19144 -8.47473,12.6474 z M 130.22327,176.25 130.5,161.5 145.25,161.22327 160,160.94653 v 2.36701 c 0,4.26583 -5.90359,14.41444 -11.10601,19.09186 -4.53254,4.07514 -13.71292,8.5946 -17.45824,8.5946 -1.26415,0 -1.44739,-2.22912 -1.21248,-14.75 z M 56,146.56739 c 0,-2.69094 -0.486151,-3.58002 -2.25,-4.11484 C 49.093835,141.04074 26,129.65489 26,128.77109 c 0,-0.50718 1.816619,-4.03262 4.036931,-7.83432 l 4.03693,-6.91218 5.21307,2.92971 c 8.837293,4.96652 22.132731,10.28671 22.553375,9.02478 1.251441,-3.75432 11.179381,-16.73625 16.591931,-21.69587 l 6.364634,-5.832035 -6.148435,-1.795692 C 75.266796,95.667852 67.673234,92.576049 61.773854,89.784809 L 51.047708,84.709827 54.5512,78.604913 C 56.47812,75.247211 58.462116,71.825 58.960078,71 59.755342,69.682445 60.224626,69.711512 62.818363,71.238977 73.972656,77.807795 93.661455,83.945351 110.25,86.024762 L 120,87.246947 V 98.104421 108.9619 l -2.75,0.60779 C 97.58985,113.91494 82.137167,128.7827 79.383561,146.00281 L 78.744384,150 H 67.372192 56 Z m 34,2.11075 c 0,-0.72702 0.728106,-3.45874 1.618013,-6.07047 C 94.726255,133.48548 108.2194,121.89763 117,120.80974 l 2.5,-0.30974 0.27673,14.75 0.27674,14.75 H 105.02673 C 93.236329,150 90,149.71531 90,148.67814 Z M 130.22327,135.25 130.5,120.5 l 2.5,0.30974 c 8.7806,1.08789 22.27375,12.67574 25.38199,21.79793 2.6522,7.78378 3.36224,7.39233 -13.40872,7.39233 h -15.02674 z m 40.39317,10.75281 C 167.86283,128.7827 152.41015,113.91494 132.75,109.56969 L 130,108.9619 V 98.060542 87.159188 l 6.75,-0.677222 C 152.73127,84.878579 170.00915,80.005609 183.22504,73.374372 186.92381,71.518467 190.14741,70 190.38859,70 190.79513,70 199,83.799144 199,84.482874 c 0,0.766378 -17.30033,8.595827 -24.5,11.087735 -4.4,1.522903 -8.16378,2.893797 -8.36395,3.046432 -0.20017,0.152634 2.4026,2.838849 5.78394,5.969369 5.028,4.65504 15.1121,18.00987 16.30792,21.59731 0.33305,0.99916 10.04751,-2.7865 19.95941,-7.77805 3.71951,-1.87312 7.18509,-3.40567 7.70127,-3.40567 0.51619,0 2.75058,3.14298 4.96533,6.98441 l 4.02681,6.98441 -6.19036,3.3977 c -3.40471,1.86874 -10.35287,5.13104 -15.44037,7.24956 -8.9923,3.74455 -9.25,3.94285 -9.25,7.11789 V 150 H 182.62781 171.25562 Z M 111.5,51.969753 C 103.33966,50.709707 89.75039,46.407586 82.719273,42.85829 l -5.79681,-2.926221 3.566115,-6.216034 c 1.961362,-3.418819 3.919722,-6.797342 4.351909,-7.507829 0.606909,-0.997717 2.206619,-0.586849 7.02708,1.804832 19.137403,9.495059 45.691953,9.554502 66.435963,0.148718 l 6.61674,-3.000174 4.0861,7.087255 c 3.3439,5.799909 3.85066,7.321485 2.78987,8.376768 -2.07431,2.063542 -15.59937,7.326553 -24.29624,9.454403 -9.29953,2.275302 -27.36246,3.223477 -36,1.889745 z"
     id="path7"
     inkscape:connector-curvature="0" />
</svg>
