/* XPM */
static const char * enabled_xpm[] = {
"16 16 2 1",
" 	c None",
".	c #19FF00",
"                ",
"                ",
"             .. ",
"            ... ",
"           ...  ",
"           ..   ",
"          ..    ",
"   ..     ..    ",
"   ...   ..     ",
"    ...  ..     ",
"     ......     ",
"      ....      ",
"       ...      ",
"        ..      ",
"        ..      ",
"                "};
