/* XPM */
static const char * btnSave_xpm[] = {
"13 13 3 1",
" 	c None",
".	c #000000",
"+	c #FFFFFF",
".............",
".+.+++++++.+.",
".+.+++++++.+.",
".+.+++++++.+.",
".+.+++++++.+.",
".++.......++.",
".+++++++++++.",
".+++++++++++.",
".+........++.",
".+.+..+++.++.",
".+.+..+++.++.",
".+.+..+++.++.",
"............."};
