/* XPM */
static char *mapiconbrowse[] = {
/* columns rows colors chars-per-pixel */
"32 32 192 2",
"   c #1B1A1B",
".  c #2C2B2B",
"X  c #2A3131",
"o  c #3C3B3A",
"O  c #623C3C",
"+  c #424243",
"@  c #4C4C4C",
"#  c #514F4C",
"$  c #53514E",
"%  c #525252",
"&  c #585552",
"*  c #5B5B5B",
"=  c #666665",
"-  c #696765",
";  c #6F6E6D",
":  c #706D6A",
">  c #72716F",
",  c #6E7170",
"<  c #767574",
"1  c #7A7978",
"2  c #850100",
"3  c #8D0702",
"4  c #8C0801",
"5  c #9D0704",
"6  c #961207",
"7  c #B30000",
"8  c #A11D03",
"9  c #B22501",
"0  c #BB2602",
"q  c #B12801",
"w  c #B13216",
"e  c #C60000",
"r  c #C62000",
"t  c #C12802",
"y  c #BE4F22",
"u  c #C1481F",
"i  c #CB5712",
"p  c #EC6D0B",
"a  c #FB7909",
"s  c #CC4622",
"d  c #C74D21",
"f  c #CC4B21",
"g  c #D24D21",
"h  c #DA4B28",
"j  c #CF7628",
"k  c #FF9917",
"l  c #FF9619",
"z  c #FFA025",
"x  c #FFB332",
"c  c #FFC738",
"v  c #81807E",
"b  c #F1C74F",
"n  c #FAD04E",
"m  c #FFE24E",
"M  c #FFE450",
"N  c #FFEA53",
"B  c #FCEC5D",
"V  c #FCEF60",
"C  c #0027B5",
"Z  c #042BB7",
"A  c #0F34B9",
"S  c #1E40BE",
"D  c #2143BF",
"F  c #677CA9",
"G  c #627CB6",
"H  c #2D4DC2",
"J  c #3655C5",
"K  c #3957C6",
"L  c #425FC8",
"P  c #4561C9",
"I  c #546ECD",
"U  c #637BD2",
"Y  c #7E8892",
"T  c #6C83B3",
"R  c #7589C5",
"E  c #6C82D4",
"W  c #738DD4",
"Q  c #7AA4DD",
"!  c #6990E3",
"~  c #7A96E1",
"^  c #7D99E6",
"/  c #789BEF",
"(  c #6EA0E9",
")  c #858482",
"_  c #85888C",
"`  c #8C8B8A",
"'  c #908E8B",
"]  c #93918E",
"[  c #848D96",
"{  c #848C99",
"}  c #8E9093",
"|  c #979695",
" . c #979E9E",
".. c #98999A",
"X. c #A4A09B",
"o. c #949BA1",
"O. c #879EB3",
"+. c #87A2BD",
"@. c #99ACBC",
"#. c #AEA5A7",
"$. c #ADABA8",
"%. c #B0AFAC",
"&. c #B4B1AB",
"*. c #A0A5B6",
"=. c #A6ABB0",
"-. c #BAB9B9",
";. c #E0B791",
":. c #E7BD96",
">. c #C1BEBC",
",. c #D9DE9D",
"<. c #C6C4BC",
"1. c #F1F4B2",
"2. c #8799DC",
"3. c #8D9EDE",
"4. c #9CB4C8",
"5. c #90A1DF",
"6. c #B7B9C2",
"7. c #B7BBC9",
"8. c #829CE4",
"9. c #97A9E0",
"0. c #99A9E1",
"q. c #8EB8EB",
"w. c #9ABEE3",
"e. c #82ACFA",
"r. c #83B1F9",
"t. c #8AB4FA",
"y. c #88BCFD",
"u. c #ABB8E7",
"i. c #B2BFE6",
"p. c #ADC0CD",
"a. c #BFC8C8",
"s. c #9FC7ED",
"d. c #8DC6FF",
"f. c #96CBFF",
"g. c #9BCDFF",
"h. c #9FD0FF",
"j. c #A2C7EB",
"k. c #B3C2EC",
"l. c #A3C1FC",
"z. c #A7C8FD",
"x. c #A8CFFF",
"c. c #A3D2FF",
"v. c #AAD5FF",
"b. c #A7D8FF",
"n. c #AED8FF",
"m. c #B7D9F5",
"M. c #B0D0FE",
"N. c #B4DAFF",
"B. c #BBDEFF",
"V. c #BDE0FF",
"C. c #C9C6C0",
"Z. c #CDCBC3",
"A. c #C3C5CB",
"S. c #CECCCB",
"D. c #D0CCC7",
"F. c #CACDD1",
"G. c #D2D6D7",
"H. c #DAD5D5",
"J. c #D2D5DF",
"K. c #DEDDDD",
"L. c #E2DEDB",
"P. c #E5E2DC",
"I. c #C6CFEE",
"U. c #C8D0E0",
"Y. c #C6DCEE",
"T. c #D8DDE3",
"R. c #C2D3F3",
"E. c #CCD4F0",
"W. c #C0DFFF",
"Q. c #D3DAF2",
"!. c #CDE3F5",
"~. c #C3E3FF",
"^. c #CAE6FF",
"/. c #CDE9FF",
"(. c #DCE2F5",
"). c #D1E7FF",
"_. c #D3EBFF",
"`. c #D9EDFF",
"'. c #D5F1FF",
"]. c #DBF1FF",
"[. c #E3E3E5",
"{. c #E2E4E8",
"}. c #E7E8ED",
"|. c #E1E6F6",
" X c #E1EDF7",
".X c #E3F3FF",
"XX c #EAF7FF",
"oX c #F2F2F1",
"OX c #F2F4FB",
"+X c #F6FBFF",
"@X c #FFFFFF",
"#X c None",
/* pixels */
"#X#X#X#X#X#X#X#X#X#X#X#X#X#X#X#X#X#X#X#X#X#X#X#X#X#X#X#X#X#X#X#X",
"#X#X#X#X#X#X#X#X#X#X#X#X#X#X#X#X#X#X#X#X#X#X#X#X#X#X#X#X#X#X#X#X",
"#X#X#X#X#X#X#X#X#X#X; ) ` v = @ #X#X#X#X#X#X#X#X#X#X#X#X#X#X#X#X",
"#X#X#X#X#X#X#X* ] <.S.A.7.6.-.&.) + #X#X#X#X#X#X#X#X#X#X#X#X#X#X",
"#X#X#X#X#X#X< Z.J.9.8.8.^ ~ W R *.&.= #X#X#X#X#X#X#X#X#X#X#X#X#X",
"#X#X#X#X#X) P.i./ l.)..XXX.X).z.! T %.> #X#X#X#X#X#X#X#X#X#X#X#X",
"#X#X#X#X< P.k.e.~.].`.`.`._._._.~.r.G $.* #X#X#X#X#X#X#X#X#X#X#X",
"#X#X#X% D.R.r.V.~.~.^.^.^.^.~.W.B.V.y.F X.. #X#X#X#X#X#X#X#X#X#X",
"#X#X#X` }.t.c.N.N.B.~.~.~.B.B.N.N.v.b.( { : #X#X#X#X#X#X#X#X#X#X",
"#X#X#XC.R.y.c.v.n.N.N.N.N.N.N.n.v.c.g.f.T '   #X#X#X#X#X#X#X#X#X",
"#X#X= L.M.d.g.c.c.v.v.v.v.v.v.c.g.f.f.b.Q } o #X#X#X#X#X#X#X#X#X",
"#X#X1 [.x.g.g.f.g.g.h.c.c.g.g.f.f.g.c.N.q.{ $ #X#X#X#X#X#X#X#X#X",
"#X#X) {.v.n.c.g.g.f.f.f.f.f.f.g.h.v.N.~.s.{ & #X#X#X#X#X#X#X#X#X",
"#X#X1 [.N.B.N.n.v.c.c.h.h.c.c.v.n.N.B./.j.[ # #X#X#X#X#X#X#X#X#X",
"#X#X= H.~.~.~.V.B.N.N.N.N.N.N.B.V.~.^._.w._ o #X#X#X#X#X#X#X#X#X",
"#X#X% >.!.~./.^.~.~.~.~.~.~.~.^.^./._._.+.v   #X#X#X#X#X#X#X#X#X",
"#X#X#X' T.B._._././././././././._._.].m.Y - #X#X#X#X#X#X#X#X#X#X",
"#X#X#X* >.!.~.`._._._._._._._._.`.].'.O.) X #X#X#X#X#X#X#X#X#X#X",
"#X#X#X#X..K. X.XXX.X`.`.`.`.`.`..X].4.` , #X#X#X#X#X#X#X#X#X#X#X",
"#X#X#X@X+X@X@X@X@X+XXX.X.X.X.X.X!.@.` &.a.O e #X#X#X#X#X#X#X#X#X",
"#X#X@X+X3.K Z S I Q.@X.X`.!.Y.p.o.` <  .G.H.:.h #X#X#X#X#X#X#X#X",
"#X@X|.H C C C C C Z 2.@XF.=...` < @ #XO #.U.1.B g #X#X#X#X#X#X#X",
"@X@XJ C C C C C C C C k.oX| - % #X#X#X7 ;.,.n m B g #X#X#X#X#X#X",
"@X0.C C C C C C C C C D @XK.#X#X#X#X#X#Xs z k x m B f #X#X#X#X#X",
"@XI C C C C C C C C C C (.@X#X#X#X#X#X#X#Xr a l x M V d #X#X#X#X",
"@XP C C C C C C C C C C E.@X#X#X#X#X#X#X#X#Xt a l x M B u #X#X#X",
"@XE C C C C C C C C C Z OX@X#X#X#X#X#X#X#X#X#X0 a l x m V y 5 #X",
"@XQ.Z C C C C C C C C U @X#X#X#X#X#X#X#X#X#X#X#X0 a l x N b w #X",
"#X@X3.C C C C C C C D OX@X#X#X#X#X#X#X#X#X#X#X#X#X9 a l c j 6 #X",
"#X#X@X5.A C C C C L |.@X#X#X#X#X#X#X#X#X#X#X#X#X#X#Xq p i 3 #X#X",
"#X#X#X@X+XI.0.u.(.@X@X#X#X#X#X#X#X#X#X#X#X#X#X#X#X#X2 8 4 #X#X#X",
"#X#X#X#X@X@X@X@X@X#X#X#X#X#X#X#X#X#X#X#X#X#X#X#X#X#X#X#X#X#X#X#X"
};
