/* XPM */
static const char * icon_xpm[] = {
"28 28 16 1",
" 	c None",
".	c #000000",
"+	c #555555",
"@	c #222222",
"#	c #777777",
"$	c #444444",
"%	c #BBBBBB",
"&	c #DDDDDD",
"*	c #AAAAAA",
"=	c #FFFFFF",
"-	c #888888",
";	c #993366",
">	c #CC6666",
",	c #663300",
"'	c #440000",
")	c #FFFF00",
"                      ...   ",
"                    ..+@@.  ",
"                  ..++@+@.. ",
"                ..+++##@@.. ",
"              ..+++##@@@@.. ",
"            ..+++##@@@$$..  ",
"          ..#++##@@@$...$   ",
"        ..##++#@@@%&&.$     ",
"      ...*@@+#@@%&&==&.     ",
"    ...*++++@@%&&==&&@@.    ",
"   ..$$==+#-%&&==&&@@$$@.   ",
"   .+##..=-&&==&&@@@$$+@.   ",
"  .##---*.=%=&&@@@@$$++@.   ",
" .===%**%%$=*@@@@@$$+++@.   ",
".=-@+=&%&&.&-@@@@$$++++@.   ",
".&.;.+=&%%.%#@@@$$+++++@.   ",
".&.>,.=&**.*+@$$====++@.    ",
".&.,,.&&--.*+=$$&&&&====... ",
".&+.'.&%##.-=&$+%%%%&&&&===.",
".&%+.*&*++$=&$======%%%%&&&.",
" .&&&&&-++&**$&&&+++%===%%%.",
" .&==&*+++&*--.%%@))++++===.",
" .&**&*+++&-+@@@*+@@)))@&&&.",
" .@&&&*+++@@@@..----@@@+%%%.",
" .+@@$*+@@@@.. .....----***.",
"  .+++$@@@..        ....---.",
"  ..@+$@..              ... ",
"    ....                    "};
