/* XPM */
static const char * btnCropImage_xpm[] = {
"20 20 7 1",
" 	c None",
".	c #000000",
"+	c #FFFFFF",
"@	c #EFEFEF",
"#	c #F7F3F7",
"$	c #F7F7F7",
"%	c #FFFBFF",
". . . . . . . . . . ",
"                   .",
". . .          . .  ",
"   ..          ..  .",
". ...          ...  ",
"                   .",
".     ........      ",
"      .++++++.     .",
".     .+@@@##.      ",
"      .+@###$.     .",
".     .+##$$%.      ",
"      .+#$$%%.     .",
".     .+$$%%+.      ",
"      ........     .",
".                   ",
"  ...          ... .",
".  ..          ..   ",
"  . .          . . .",
".                   ",
" . . . . . . . . . ."};
