/* XPM */
static char * btnGrayValueStatistics_xpm[] = {
"18 12 8 1",
" 	c None",
".	c #000000",
"+	c #FFFFFF",
"@	c #EFEFEF",
"#	c #FFFBFF",
"$	c #F7F7F7",
"%	c #A8A8A8",
"&	c #F7F3F7",
"..................",
".++++++++++++++++.",
".+@@@@@@@@@@@@@@#.",
".+@$%$$$$$$$$$$&#.",
".+@$%%$%$$$$$$$$#.",
".+@%%%$%$$$$$$$$#.",
".+@%%%%%$%$$$$$$#.",
".+%%%%%%$%$$$%$$#.",
".+%%%%%%%%%%$%$$#.",
".+%%%%%%%%%%%%%%#.",
".++++++##########.",
".................."};
