/* XPM */
static const char * btnReinit_xpm[] = {
"10 9 4 1",
" 	c None",
".	c #9A0000",
"+	c #009A00",
"@	c #000000",
"   .     +",
"   .     +",
"  .      +",
"  .  @   +",
"  .   @  +",
" .  @@@@ +",
" .    @  +",
".    @   +",
".        +"};
