/* XPM */
static char * btnThresholdImage_xpm[] = {
"20 20 14 1",
" 	c None",
".	c #000000",
"+	c #B8B8B8",
"@	c #FFFFFF",
"#	c #ADADAD",
"$	c #EFEFEF",
"%	c #FFFBFF",
"&	c #B3B0B3",
"*	c #7A7A7A",
"=	c #B3B3B3",
"-	c #F7F7F7",
";	c #F7F3F7",
">	c #A8A8A8",
",	c #B8B6B8",
"                    ",
"                    ",
" .................. ",
" .++++++@@@@@@@@@@. ",
" .+#####.$$$$$$$$%. ",
" .+#&*==--------;%. ",
" .+#&**=.--------%. ",
" .+#***=>--------%. ",
" .+#****.->------%. ",
" .+*****>->--->--%. ",
" .+*****.>>>>->--%. ",
" .+*****>>>>>>>>>%. ",
" .+,,,,,.%%%%%%%%%. ",
" .................. ",
"                    ",
"        .           ",
"        .           ",
"       ...          ",
"      .....         ",
"      .   .         "};
