/* XPM */
static char * save_chili_xpm[] = {
"32 32 361 2",
"  	c None",
". 	c #2A548F",
"+ 	c #40679D",
"@ 	c #4C71A4",
"# 	c #496FA2",
"$ 	c #345B94",
"% 	c #386097",
"& 	c #6D8DB8",
"* 	c #819FC5",
"= 	c #8DA9CB",
"- 	c #8EA8CB",
"; 	c #7F9CC1",
"> 	c #5A7DAB",
", 	c #1F4C87",
"' 	c #375E95",
") 	c #5375A6",
"! 	c #476CA0",
"~ 	c #5579AA",
"{ 	c #7E9BC2",
"] 	c #91ABCD",
"^ 	c #8CA7CC",
"/ 	c #8CA7CB",
"( 	c #5F81AF",
"_ 	c #224C88",
": 	c #2A538D",
"< 	c #29518C",
"[ 	c #7493BC",
"} 	c #88A4C9",
"| 	c #7F9EC5",
"1 	c #83A0C6",
"2 	c #4B70A4",
"3 	c #1E4986",
"4 	c #3D649A",
"5 	c #7E9CC4",
"6 	c #7A9AC3",
"7 	c #7B9BC4",
"8 	c #6A8BB6",
"9 	c #28538E",
"0 	c #575757",
"a 	c #5B5B5B",
"b 	c #445A7B",
"c 	c #6A8AB5",
"d 	c #7797C2",
"e 	c #7193C0",
"f 	c #7998C1",
"g 	c #3A5F92",
"h 	c #5A5A5A",
"i 	c #565656",
"j 	c #868686",
"k 	c #DCDEE1",
"l 	c #CED6E2",
"m 	c #CED6E1",
"n 	c #CDD5E1",
"o 	c #9EAFC8",
"p 	c #5D7EAD",
"q 	c #7294C0",
"r 	c #688CBB",
"s 	c #41669B",
"t 	c #C8D0DC",
"u 	c #C7CFDB",
"v 	c #C6CEDA",
"w 	c #C7CBD0",
"x 	c #797979",
"y 	c #B2B2B2",
"z 	c #D1D7DF",
"A 	c #476A9A",
"B 	c #365E95",
"C 	c #466CA0",
"D 	c #6C8CB7",
"E 	c #6D8FBD",
"F 	c #6086B7",
"G 	c #7999C3",
"H 	c #6082AF",
"I 	c #5074A5",
"J 	c #446A9E",
"K 	c #325991",
"L 	c #ACB8C8",
"M 	c #A4A4A4",
"N 	c #6F6F6F",
"O 	c #DADADA",
"P 	c #E5E5E5",
"Q 	c #B0BCCC",
"R 	c #5D7DA9",
"S 	c #7292BD",
"T 	c #7092BF",
"U 	c #6C8FBD",
"V 	c #5F85B7",
"W 	c #5880B4",
"X 	c #5A82B5",
"Y 	c #5D84B6",
"Z 	c #7C9BC3",
"` 	c #5F80AE",
" .	c #8498B5",
"..	c #DBDBDB",
"+.	c #C7C7C7",
"@.	c #686868",
"#.	c #8D8D8D",
"$.	c #EBEBEB",
"%.	c #E3E3E3",
"&.	c #E2E3E4",
"*.	c #A1B0C5",
"=.	c #5476A4",
"-.	c #6D90BC",
";.	c #527CB2",
">.	c #4572AC",
",.	c #3A69A6",
"'.	c #3767A5",
").	c #507AB0",
"!.	c #6283B2",
"~.	c #728BAE",
"{.	c #CCD0D5",
"].	c #D9D9D9",
"^.	c #DEDEDE",
"/.	c #818181",
"(.	c #D3D3D3",
"_.	c #E7E7E7",
":.	c #E4E4E4",
"<.	c #E1E1E1",
"[.	c #95A6BD",
"}.	c #4A70A3",
"|.	c #547CB1",
"1.	c #3969A7",
"2.	c #3364A4",
"3.	c #4975AE",
"4.	c #6789B7",
"5.	c #617DA6",
"6.	c #C6CBD1",
"7.	c #DCDCDC",
"8.	c #BDBDBD",
"9.	c #EDEDED",
"0.	c #E2E2E2",
"a.	c #D7D7D8",
"b.	c #778EAF",
"c.	c #5075A7",
"d.	c #577FB3",
"e.	c #416FAA",
"f.	c #6287B6",
"g.	c #5173A1",
"h.	c #B2BAC5",
"i.	c #D5D5D5",
"j.	c #D6D6D6",
"k.	c #A7A7A7",
"l.	c #E0E0E0",
"m.	c #D7D7D7",
"n.	c #D4D4D4",
"o.	c #C1C5CA",
"p.	c #6782A7",
"q.	c #587DAD",
"r.	c #6F91BD",
"s.	c #5174A5",
"t.	c #8A9BB1",
"u.	c #CCCCCC",
"v.	c #CDCDCD",
"w.	c #D0D0D0",
"x.	c #D8D8D8",
"y.	c #959595",
"z.	c #616161",
"A.	c #D1D1D1",
"B.	c #B8BCC2",
"C.	c #5B779E",
"D.	c #476C9F",
"E.	c #768BA7",
"F.	c #BEC0C2",
"G.	c #C8C8C8",
"H.	c #CFCFCF",
"I.	c #C0C0C0",
"J.	c #606060",
"K.	c #DFDFDF",
"L.	c #BDC1C7",
"M.	c #758CAC",
"N.	c #C2C5C9",
"O.	c #D2D2D2",
"P.	c #828282",
"Q.	c #A1A1A1",
"R.	c #DDDDDD",
"S.	c #D2D3D4",
"T.	c #9A9A9A",
"U.	c #A2A2A2",
"V.	c #939393",
"W.	c #9F9F9F",
"X.	c #C6C6C6",
"Y.	c #B6B6B6",
"Z.	c #ACACAC",
"`.	c #ADADAD",
" +	c #AEAEAE",
".+	c #AFAFAF",
"++	c #ABABAB",
"@+	c #A8A8A8",
"#+	c #A5A5A5",
"$+	c #A0A0A0",
"%+	c #858585",
"&+	c #9E9E9E",
"*+	c #C5C5C5",
"=+	c #CC9795",
"-+	c #B55F5D",
";+	c #BD7C7A",
">+	c #C8B0AF",
",+	c #AAA8A8",
"'+	c #A6A6A6",
")+	c #AAAAAA",
"!+	c #B9B9B9",
"~+	c #9D9D9D",
"{+	c #B3B3B3",
"]+	c #848484",
"^+	c #EDC8C7",
"/+	c #DE5856",
"(+	c #DC2626",
"_+	c #E44D4A",
":+	c #B78B8A",
"<+	c #AEA1A0",
"[+	c #B5B5B5",
"}+	c #9C9C9C",
"|+	c #A3A3A3",
"1+	c #999999",
"2+	c #BCBCBC",
"3+	c #C8B1B1",
"4+	c #E06261",
"5+	c #CE1312",
"6+	c #DA2623",
"7+	c #E8716D",
"8+	c #C5A1A0",
"9+	c #BABABA",
"0+	c #7F7F7F",
"a+	c #C9C8C3",
"b+	c #E6E5E2",
"c+	c #757575",
"d+	c #B3B1B1",
"e+	c #D1A1A1",
"f+	c #D54241",
"g+	c #C81010",
"h+	c #D41715",
"i+	c #E34B46",
"j+	c #C5807D",
"k+	c #A69E9E",
"l+	c #A5A2A2",
"m+	c #979797",
"n+	c #969696",
"o+	c #929292",
"p+	c #909090",
"q+	c #8A8A8A",
"r+	c #636363",
"s+	c #9E9D94",
"t+	c #C4C4BF",
"u+	c #242424",
"v+	c #BA8381",
"w+	c #DC4240",
"x+	c #CC0F0F",
"y+	c #D00F0F",
"z+	c #DC1F1C",
"A+	c #E95450",
"B+	c #F4A7A3",
"C+	c #9F7A78",
"D+	c #807473",
"E+	c #232323",
"F+	c #9C9A8E",
"G+	c #757469",
"H+	c #C3C2BC",
"I+	c #EDB6B4",
"J+	c #DA3533",
"K+	c #CA0D0F",
"L+	c #CA0D0E",
"M+	c #CE1110",
"N+	c #DE2724",
"O+	c #EC5D57",
"P+	c #F08D87",
"Q+	c #E39995",
"R+	c #E7C8C6",
"S+	c #E8CCC9",
"T+	c #E6A7A1",
"U+	c #E68983",
"V+	c #EA625C",
"W+	c #CC5B4D",
"X+	c #775C42",
"Y+	c #3E3B2E",
"Z+	c #93928B",
"`+	c #F4C5C2",
" @	c #DE5E5D",
".@	c #CA1A1A",
"+@	c #C30C0E",
"@@	c #C40C0E",
"#@	c #C80C0E",
"$@	c #D0100F",
"%@	c #D91B1A",
"&@	c #E2322E",
"*@	c #EB5B54",
"=@	c #EE6760",
"-@	c #E83A34",
";@	c #E12320",
">@	c #DB201D",
",@	c #D41B1A",
"'@	c #C00D0F",
")@	c #931410",
"!@	c #6A443B",
"~@	c #DBD1CE",
"{@	c #DA5F5D",
"]@	c #CC4242",
"^@	c #BA1013",
"/@	c #B60B0E",
"(@	c #B80B0E",
"_@	c #BB0C0D",
":@	c #C30E0E",
"<@	c #CF1615",
"[@	c #D8201F",
"}@	c #D51717",
"|@	c #C60E0F",
"1@	c #B90C0D",
"2@	c #B60C0D",
"3@	c #B10E0E",
"4@	c #AC1311",
"5@	c #C25550",
"6@	c #F4E5E2",
"7@	c #F1D7D7",
"8@	c #E1A8A8",
"9@	c #BC4849",
"0@	c #A31B1D",
"a@	c #9A0D11",
"b@	c #9D0A0D",
"c@	c #A50A0D",
"d@	c #AA0B0D",
"e@	c #A90A0D",
"f@	c #A50B0D",
"g@	c #A10C0E",
"h@	c #A21717",
"i@	c #AD2D2C",
"j@	c #C96260",
"k@	c #E5AEAB",
"l@	c #F0F4F6",
"m@	c #EDF1F3",
"n@	c #E9ECEE",
"o@	c #DCE0E4",
"p@	c #DCDEDF",
"q@	c #DFE0E0",
"r@	c #DBD9D8",
"s@	c #D8D1CE",
"t@	c #CBB2AD",
"u@	c #AE736B",
"v@	c #97493F",
"w@	c #862E26",
"x@	c #81211C",
"y@	c #7F1B16",
"z@	c #7E1814",
"A@	c #86221B",
"B@	c #993F34",
"C@	c #B4756B",
"D@	c #D5B3AD",
"E@	c #F0EAE9",
"F@	c #D8D6D5",
"G@	c #DCD8D8",
"H@	c #D8CFCD",
"I@	c #CFC4C1",
"J@	c #C8B9B6",
"K@	c #C0ADAC",
"L@	c #B6A19E",
"M@	c #B09892",
"N@	c #B0958F",
"O@	c #BDAAA4",
"P@	c #C8BDB8",
"Q@	c #D0CAC7",
"R@	c #DADBDD",
"S@	c #E7EAED",
"T@	c #F5F6F7",
"                                                                ",
"            . + @ # $                                           ",
"          % & * = - ; > ,                                       ",
"        ' ) ! ~ { ] ^ / (                                       ",
"      _ :       < [ } | 1 2                                     ",
"      3           4 5 6 7 8 9                                   ",
"          0 a a a b c d e f g a a h i                           ",
"        j k l m n o p q r 7 s t u v w x                         ",
"        y z A B C # D E F G H I J K L M                         ",
"      N O P Q R S T U V W X Y Z `  ...+.@.                      ",
"      #.$.%.&.*.=.-.;.>.,.'.).!.~.{.].^./.                      ",
"      (._.:.%.<.[.}.|.1.2.3.4.5.6.O ].7.8.                      ",
"    @.9.0.0.^.O a.b.c.d.e.f.g.h.i.j.].].7.@.                    ",
"    k._.l.l.m.i.n.o.p.q.r.s.t.u.v.w.x.m...y.                    ",
"  z.A...x.7.7.m.(.u.B.C.D.E.F.G.v.n.n.H.(.I.J.                  ",
"  #.K.:...m.].7.x.(.w.L.M.N.H.(.n.O.H.n.l.A.P.                  ",
"  Q.0.P R.O ].].x.].x.j.S.j.m.j.n.n.i.x.<.].T.                  ",
"  U.0.^.^.R.R.7...O ].].x.m.m.m.j.i.i.n.(.(.V.                  ",
"  W.X.Y.Z.`. + +.+.+ +`.++@+Z.#+k.@+$+U.M #+%+                  ",
"  &+*+=+-+;+>+,+'+)+Z.`.)+Q.!+Q.++Y.~+@+{+M ]+                  ",
"  ~+*+^+/+(+_+:+<+)+Z.Z.)+$+!+Q.++[+}+k.{+|+P.                  ",
"  1++.2+3+4+5+6+7+8+.+.+`.M 9+M `.Y.W.@+y M 0+          a+b+    ",
"  c+++.+d+e+f+g+h+i+j+k+l+&+}+1+m+n+V.o+p+q+r+        s+t+      ",
"    u+u+u+u+v+w+x+y+z+A+B+C+D+u+u+u+u+u+u+E+      F+G+H+        ",
"              I+J+K+L+M+N+O+P+Q+R+    S+T+U+V+W+X+Y+Z+          ",
"                `+ @.@+@@@#@$@%@&@*@=@-@;@>@,@'@)@!@~@          ",
"                    {@]@^@/@(@_@:@<@[@}@|@1@2@3@4@5@6@          ",
"                      7@8@9@0@a@b@c@d@e@f@g@h@i@j@k@            ",
"          l@m@n@o@p@q@r@s@t@u@v@w@x@y@z@A@B@C@D@E@              ",
"                        F@G@H@I@J@K@L@M@N@O@P@Q@R@S@            ",
"                                            T@T@                ",
"                                                                "};
