/* XPM */
static const char * 3D_xpm[] = {
"16 16 44 1",
" 	c #FFFFFF",
".	c #EDEDED",
"+	c #696969",
"@	c #5D5D5D",
"#	c #818181",
"$	c #FCFCFC",
"%	c #D9D9D9",
"&	c #616161",
"*	c #646464",
"=	c #E3E3E3",
"-	c #EFEFEF",
";	c #E1E1E1",
">	c #FEFEFE",
",	c #6B6B6B",
"'	c #C2C2C2",
")	c #7B7B7B",
"!	c #F8F8F8",
"~	c #CBCBCB",
"{	c #444444",
"]	c #E5E5E5",
"^	c #FDFDFD",
"/	c #B2B2B2",
"(	c #7E7E7E",
"_	c #B5B5B5",
":	c #878787",
"<	c #9C9C9C",
"[	c #DFDFDF",
"}	c #CCCCCC",
"|	c #757575",
"1	c #A1A1A1",
"2	c #838383",
"3	c #B8B8B8",
"4	c #7C7C7C",
"5	c #9F9F9F",
"6	c #434343",
"7	c #E0E0E0",
"8	c #424242",
"9	c #797979",
"0	c #CFCFCF",
"a	c #BBBBBB",
"b	c #EEEEEE",
"c	c #F5F5F5",
"d	c #D7D7D7",
"e	c #F2F2F2",
"                ",
"                ",
"                ",
"                ",
"                ",
"                ",
"                ",
"   .+@#$%&*#=   ",
"   -;>,'')!~{]  ",
"    ^/@.'(  _:  ",
"    $<@['(  }|  ",
"      1<'(  2/  ",
"   34567'82@9>  ",
"   $0ab cd%e    ",
"                ",
"                "};
