/* XPM */
static const char * Coronal_xpm[] = {
"16 16 33 1",
" 	c #FFFFFF",
".	c #D6D6D6",
"+	c #5B5B5B",
"@	c #373737",
"#	c #343434",
"$	c #5F5F5F",
"%	c #D2D2D2",
"&	c #D9D9D9",
"*	c #242424",
"=	c #C2C2C2",
"-	c #FEFEFE",
";	c #FAFAFA",
">	c #AFAFAF",
",	c #A5A5A5",
"'	c #656565",
")	c #939393",
"!	c #CCCCCC",
"~	c #3C3C3C",
"{	c #C5C5C5",
"]	c #787878",
"^	c #777777",
"/	c #EBEBEB",
"(	c #2B2B2B",
"_	c #818181",
":	c #CECECE",
"<	c #C4C4C4",
"[	c #727272",
"}	c #8B8B8B",
"|	c #F2F2F2",
"1	c #969696",
"2	c #676767",
"3	c #6B6B6B",
"4	c #A1A1A1",
"                ",
"                ",
"                ",
"                ",
"                ",
"       .+@#$%   ",
"      &*=-;>,   ",
"      ')        ",
"      @!        ",
"      ~{        ",
"      ]^    ;   ",
"      /(_:<[}   ",
"       |1234|   ",
"                ",
"                ",
"                "};
