/* XPM */
static const char * NormalScreen_xpm[] = {
"16 13 2 1",
" 	c None",
".	c #000000",
"                ",
"                ",
"                ",
"    ........    ",
"    ........    ",
"    ........    ",
"    ...  ...    ",
"    ........    ",
"    ........    ",
"    ........    ",
"                ",
"                ",
"                "};
