/* XPM */
static char * PlaneCrossLocked_xpm[] = {
"22 22 5 1",
" 	c None",
".	c #08FF00",
"+	c #FFFC00",
"@	c #000000",
"#	c #FF0800",
"                      ",
"                      ",
"          ..          ",
"          ..          ",
"          ..          ",
"          ..+++       ",
"          .+++++@     ",
"          ++@@@++@    ",
"         ++@@   ++@   ",
"  #######++@####++@#  ",
"  #######++@####++@#  ",
"         ++@    ++@   ",
"         +++++++++@   ",
"         +++@@@+++@   ",
"         +++@@@+++@   ",
"         +++@@@+++@   ",
"         +++++++++@   ",
"          @@@@@@@@@   ",
"          ..          ",
"          ..          ",
"                      ",
"                      "};
