/* XPM */
static const char * PlaneCrossMouse_xpm[] = {
"22 22 26 1",
" 	c None",
".	c #02C01D",
"+	c #575757",
"@	c #656565",
"#	c #6D6D6D",
"$	c #FFFFFF",
"%	c #FDFDFD",
"&	c #707070",
"*	c #6B6B6B",
"=	c #D80503",
"-	c #4D4D4D",
";	c #FCFCFC",
">	c #B6B6B6",
",	c #686868",
"'	c #7B7B7B",
")	c #B7B7B7",
"!	c #636363",
"~	c #8C8C8C",
"{	c #4C4C4C",
"]	c #878787",
"^	c #CCCCCC",
"/	c #9E9E9E",
"(	c #797979",
"_	c #5A5A5A",
":	c #767676",
"<	c #C1C1C1",
"                      ",
"                      ",
"          ..          ",
"          ..          ",
"          ..          ",
"          .. +@       ",
"          .. #$#      ",
"          .. #%$&     ",
"          .. #%$$*    ",
"  ========  =#%$$$#=  ",
"  ========  =#%$$$$-  ",
"          .. #;>$,'   ",
"          .. *)!$$~   ",
"          .. {  ]$@   ",
"          ..    ^$$/  ",
"          ..     ($_  ",
"          ..      :<  ",
"          ..          ",
"          ..          ",
"          ..          ",
"                      ",
"                      "};
