/* XPM */
static char * planecross_xpm[] = {
"22 22 3 1",
" 	c None",
".	c #02C01D",
"+	c #D80503",
"                      ",
"                      ",
"          ..          ",
"          ..          ",
"          ..          ",
"          ..          ",
"          ..          ",
"          ..          ",
"          ..          ",
"  ++++++++  ++++++++  ",
"  ++++++++  ++++++++  ",
"          ..          ",
"          ..          ",
"          ..          ",
"          ..          ",
"          ..          ",
"          ..          ",
"          ..          ",
"          ..          ",
"          ..          ",
"                      ",
"                      "};
