/* XPM */
static char * PlaneCrossLocked_xpm[] = {
"22 22 6 1",
" 	c None",
".	c #02C01D",
"+	c #02C31A",
"@	c #E2DF00",
"#	c #000000",
"$	c #E10502",
"                      ",
"                      ",
"          ..          ",
"          ++          ",
"          ++          ",
"          ++          ",
"          ++@@@       ",
"          +@@@@@#     ",
"          @@###@@#    ",
"         @@##   @@#   ",
"  $$$$$$$@@#$$$$@@#$  ",
"  $$$$$$$@@@@@@@@@#$  ",
"         @@@@#@@@@#   ",
"         @@@###@@@#   ",
"         @@@@#@@@@#   ",
"         @@@###@@@#   ",
"         @@@@@@@@@#   ",
"          #########   ",
"          ++          ",
"          ++          ",
"                      ",
"                      "};
