/* XPM */
static const char * PlaneRotation_xpm[] = {
"22 22 4 1",
" 	c None",
".	c #02C01D",
"+	c #000000",
"@	c #FFFFFF",
"                      ",
"                      ",
"          ..++        ",
"          ..@@++      ",
"          ..++@@+ ++  ",
"          ..  ++@+@+  ",
"          ..    +@@+  ",
"          ..   +@@@+  ",
"          ..   +++++  ",
"          ..          ",
"          ..          ",
"          ..          ",
"          ..          ",
"  +++++   ..          ",
"  +@@@+   ..          ",
"  +@@+    ..          ",
"  +@+@++  ..          ",
"  ++ +@@++..          ",
"      ++@@..          ",
"        ++..          ",
"                      ",
"                      "};
