/* XPM */
static char * C:\Builds\MITK\Plugins\org_mitk_gui_qt_ultrasound\resources\icon_xpm[] = {
"100 100 2 1",
" 	c None",
".	c #000000",
"     ..........................................................................................     ",
"     ..........................................................................................     ",
"     ..........................................................................................     ",
"     ...                                                                                     ..     ",
"     ...                                                                                     ..     ",
"     ...                                                                                     ..     ",
"     ...                                                                                     ..     ",
"     ...                                                                                     ..     ",
"     ...                                   ..           ..                                   ..     ",
"     ...                                  ....        .....                                  ..     ",
"     ...                                 ...................                                 ..     ",
"     ...                                .....................                                ..     ",
"     ...                               .......................                               ..     ",
"     ...                              .........................                              ..     ",
"     ...                             ...........................                             ..     ",
"     ...                            .............................                            ..     ",
"     ...                           ...............................                           ..     ",
"     ...                          ............   ..................                          ..     ",
"     ...                         ............     ........      ....                         ..     ",
"     ...                        .............     .......        ....                        ..     ",
"     ...                       ..............     ......          ....                       ..     ",
"     ...                      ...............     .....            ....                      ..     ",
"     ...                     ................     .....             ....                     ..     ",
"     ...                    ................      .....             .....                    ..     ",
"     ...                   .................      ....              ......                   ..     ",
"     ...                  ..................      ....              .......                  ..     ",
"     ...                 ...................       ....             ........                 ..     ",
"     ...                ..........    ......        ...            ..........                ..     ",
"     ...               ..              ......        ...           ...........               ..     ",
"     ...              ..                ......        ..          .............              ..     ",
"     ...             ...                ......         ...      ................             ..     ",
"     ...            ....                .......         .........................            ..     ",
"     ...           .....                ......          ..........................           ..     ",
"     ...          .......               .....            ..........................          ..     ",
"     ...         .................      ...               ..........................         ..     ",
"     ...        ..................      ..                ...........................        ..     ",
"     ...        ..................                        ..........................         ..     ",
"     ...         .................                        .........................          ..     ",
"     ...          ................                       .........................           ..     ",
"     ...           ...............                       ........................            ..     ",
"     ...             .............                     .........................             ..     ",
"     ...              ............                    ........................               ..     ",
"     ...               ...........                  .........................                ..     ",
"     ...                 ..........                ........................                  ..     ",
"     ...                   ........              .........................                   ..     ",
"     ...                     .......            .......................                      ..     ",
"     ...                       .......        .......................                        ..     ",
"     ...                          ......    .......................                          ..     ",
"     ...                             ...........................             ..              ..     ",
"     ...                                 ...................                ...              ..     ",
"     ...                                                                   .....             ..     ",
"     ...                                                                  ......             ..     ",
"     ...                                                                  .......            ..     ",
"     ...                                                                  .......            ..     ",
"     ...                                                                 ........            ..     ",
"     ...                                                                 .........           ..     ",
"     ...                                                                 .........           ..     ",
"     ...                                                                 .........           ..     ",
"     ...                                                                  .........          ..     ",
"     ...                                                                  .........          ..     ",
"     ...                                                                  .........          ..     ",
"     ...                                                                   .........         ..     ",
"     ...                                                                   .........         ..     ",
"     ...                                                                   ..........        ..     ",
"     ...                                                                    .........        ..     ",
"     ...                                                                    .........        ..     ",
"     ...                                                                    ..........       ..     ",
"     ...                                                                    ..........      ...     ",
"     ..........................................................................................     ",
"     ..........................................................................................     ",
"                                                      .................................             ",
"                                                      .................................             ",
"                                                      ..................................            ",
"                                                       .................................            ",
"                                                       ..................................           ",
"                                                       ..................................           ",
"                                                        .................................           ",
"                                                        .................................           ",
"                                                         ................................           ",
"                                                         ................................           ",
"                                                         ................................           ",
"                                                          ...............................           ",
"                                                          ..............................            ",
"                                                          ..............................            ",
"                                                           ............................             ",
"                                                           ............................             ",
"                                                            ...........................             ",
"                                                            ...........................             ",
"                                                             ..........................             ",
"                                                              ..........................            ",
"                                                               .........................            ",
"                                                                 .......................            ",
"                                                                    .....................           ",
"                                                                    .....................           ",
"                                                                     ....................           ",
"                                                                     .....................          ",
"                                                                     .....................          ",
"                                                                      ....................          ",
"                                                                      .....................         ",
"                                                                      .....................         "};
