<svg xmlns="http://www.w3.org/2000/svg" xmlns:xlink="http://www.w3.org/1999/xlink" viewBox="0 0 128.024 105.706" height="399.518" width="483.868" xmlns:v="https://vecta.io/nano"><style><![CDATA[.I{fill:#004d00}.J{stroke-linejoin:round}.K{fill:#4d0000}]]></style><g transform="matrix(.958848 .038482 -.052059 1.296689 -121.79083 -8.36822)"><path d="M214.348 49.479l7.016-5.212-.2 6.114z" class="I"/><path d="M232.89 54.523l3.14.501-4.109 7.717z" class="K"/><g fill="#00254d"><path d="M231.854 62.809l-.738 6.444-.264 2.309-3.207-.768z"/><path d="M214.348 49.479l.267 9.622 17.239 3.708 1.27-10.457z"/><path d="M214.348 49.479l-15.201-2.305 1.169 8.853 4.176.802z"/></g><path d="M203.924 57.229l10.424-7.751.267 9.622-9.455 9.154z" class="I"/><path d="M200.316 56.027l4.176.802-.568.401 1.236 11.025-16.103-4.677z" class="K"/><path d="M206.129 77.542l5.98-7.083-6.949-2.205z" class="I"/><path d="M214.615 59.1l-9.455 9.154 20.513 6.047 6.181-11.493z" class="K"/><g fill="none" stroke-width=".794" class="J"><path stroke="#00b000" d="M212.109 70.459l-5.98 7.083-2.205-20.312 17.439-12.963-.2 6.114"/><path stroke="#0080ff" d="M200.316 56.027l-1.169-8.853 33.977 5.178-2.272 19.21-3.074-.835"/><path stroke="#c00000" d="M200.316 56.027l-11.259 7.55 36.616 10.724 10.357-19.277-3.007-.434"/></g></g><path d="M.5.501h49.471v49.471H.5z" fill="#4a0000" stroke="#c00000" class="J"/><g transform="matrix(1.191465 .047829 -.064688 1.611633 -16.234169 -68.584487)"><path transform="matrix(.837953 -.024868 .033634 .619491 7.391043 36.131644)" d="M65.5 10.5h49.471v49.471H65.5z" stroke="#00b000" class="I J"/><g transform="matrix(1.162098 -.034488 .046645 .859128 0 0)" fill="#00b000" fill-opacity=".992"><path d="M57.319 81.183q0 .412-.203.71-.2.298-.577.456-.374.158-.894.158-.254 0-.485-.029-.231-.029-.437-.082-.203-.057-.371-.136v-.716q.282.124.631.225.349.098.71.098.295 0 .488-.076.196-.079.292-.222.095-.146.095-.339 0-.206-.111-.349-.111-.143-.336-.26-.222-.12-.558-.257-.228-.092-.437-.209-.206-.117-.368-.276-.162-.158-.257-.374-.092-.219-.092-.513 0-.393.187-.672.19-.279.532-.428.345-.149.805-.149.364 0 .684.076.323.076.634.215l-.241.612q-.285-.117-.555-.187-.266-.07-.545-.07-.241 0-.409.073-.168.073-.257.206-.086.13-.086.311 0 .203.098.342.101.136.311.25.212.114.545.254.383.158.65.333.269.174.412.418.143.241.143.605z"/><use xlink:href="#B" x="33.178"/><path d="M62.909 84.003q-.713 0-1.093-.257-.38-.257-.38-.719 0-.323.203-.548.203-.222.58-.307-.143-.063-.247-.196-.101-.136-.101-.301 0-.196.111-.336.111-.139.333-.269-.276-.117-.444-.38-.165-.266-.165-.624 0-.38.162-.646.162-.269.472-.409.311-.143.751-.143.095 0 .206.013.114.01.209.025.098.013.149.029h1.214v.415l-.596.111q.086.12.136.276.051.152.051.333 0 .545-.377.859-.374.311-1.033.311-.158-.006-.307-.025-.114.07-.174.155-.06.082-.06.187 0 .086.06.139.06.051.177.076.12.025.292.025h.605q.577 0 .881.244.304.244.304.716 0 .599-.494.922-.494.326-1.423.326zm.029-.523q.39 0 .656-.076.266-.076.402-.219.136-.139.136-.333 0-.171-.086-.263-.086-.092-.257-.127-.171-.035-.425-.035h-.551q-.206 0-.364.063-.158.067-.247.19-.086.124-.086.298 0 .241.212.371.215.13.608.13zm.146-2.731q.326 0 .485-.177.158-.181.158-.507 0-.355-.165-.532-.162-.177-.482-.177-.314 0-.478.181-.162.181-.162.536 0 .32.162.501.165.177.482.177z"/><use xlink:href="#A" x="42.355"/><use xlink:href="#C"/><use xlink:href="#C" x="2.573"/><use xlink:href="#B" x="47.501"/><path d="M76.978 82.444h-.748v-4.931h.748z"/></g></g><g transform="matrix(1.191465 .047829 -.064688 1.611633 -16.469088 -68.349455)"><path transform="matrix(.837953 -.024868 .033634 .619491 7.391043 36.131644)" d="M10.5 65.5h49.471v49.471H10.5z" fill="#00254d" stroke="#0080ff" class="J"/><g transform="matrix(1.162098 -.034488 .046645 .859128 -.024915 -.458901)" fill="#0080ff"><path d="M17.331 118.579q-.333 0-.596.12-.26.12-.44.349-.181.225-.276.548-.095.32-.095.722 0 .539.152.928.152.387.463.596.311.206.786.206.295 0 .574-.057.279-.057.577-.155v.646q-.282.111-.57.162-.288.051-.665.051-.71 0-1.179-.295-.466-.295-.697-.83-.228-.536-.228-1.255 0-.526.146-.963.146-.437.425-.754.279-.32.688-.491.412-.174.941-.174.349 0 .684.079.339.076.627.219l-.266.627q-.241-.114-.504-.196-.263-.082-.545-.082z"/><use xlink:href="#D"/><path d="M25.145 119.058q.089 0 .193.01.105.01.181.025l-.07.697q-.067-.019-.165-.028-.095-.01-.171-.01-.2 0-.38.067-.181.063-.32.196-.139.13-.219.326-.079.196-.079.456v1.835h-.748v-3.508h.583l.101.618h.035q.105-.187.26-.342.155-.155.355-.247.203-.095.444-.095z"/><use xlink:href="#D" x="6.768"/><path d="M31.965 119.058q.593 0 .922.307.333.304.333.979v2.288h-.745v-2.148q0-.409-.168-.612-.168-.206-.52-.206-.51 0-.71.314-.196.314-.196.909v1.743h-.745v-3.508h.58l.105.475h.041q.114-.184.282-.301.171-.12.38-.181.212-.06.44-.06z"/><use xlink:href="#B" x="9.291" y="40.188"/><path d="M38.768 122.632h-.748v-4.931h.748z"/></g></g><path d="M111.473 19.686h7.128v70.452h-7.128z" fill="#39c"/><path d="M112.098 52.271h5.248m-5.353 23.091h5.248m-5.038 23.092h5.248m-5.668-69.275h5.248m-4.828-23.091h5.248" fill="none" stroke="#f1f1f1" stroke-width=".529"/><g fill="#f1f1f1"><use xlink:href="#E"/><use xlink:href="#F"/><use xlink:href="#E" x="1.597" y="-22.829"/><use xlink:href="#G"/><use xlink:href="#E" x="1.72" y="-45.658"/><path d="M119.771 98.553v-.434h1.453v.434z"/><use xlink:href="#G" x="0.995" y="91.316"/><use xlink:href="#E" x="2.715" y="45.658"/><path d="M119.771 75.724v-.434h1.453v.434z"/><use xlink:href="#F" x="1.117" y="45.658"/><use xlink:href="#E" x="2.715" y="22.829"/></g><path d="M112.278 10.752h3.292m-3.218 4.675h3.292m-3.292 4.676h3.292m-3.44 4.676h3.292m-3.218 8.731h3.292m-3.218 4.675h3.292m-3.292 4.676h3.292m-3.44 4.676h3.292m-3.218 9.129h3.292m-3.218 4.675h3.292m-3.292 4.676h3.292m-3.44 4.676h3.292m-3.218 8.981h3.292m-3.218 4.675h3.292m-3.292 4.676h3.292m-3.44 4.676h3.292" fill="none" stroke="#f1f1f1" stroke-width=".265"/><g fill="#c00000" transform="matrix(1.38683 0 .000001 1.38683 -16.301939 -68.577597)"><path d="M18.228 82.444l-.453-1.287h-1.771l-.453 1.287h-.802l1.724-4.652h.843l1.721 4.652zm-.65-1.939l-.44-1.268q-.025-.082-.073-.231-.048-.152-.095-.307-.048-.158-.079-.266-.032.13-.079.292-.044.158-.089.298-.041.139-.063.215l-.444 1.268zm2.776.146l-1.172-1.714h.849l.802 1.233.805-1.233h.846l-1.179 1.714 1.239 1.794h-.852l-.859-1.315-.862 1.315h-.846z"/><use xlink:href="#A"/><use xlink:href="#B"/><path d="M29.477 82.444h-.748v-4.931h.748z"/></g><defs><path d="M23.897 78.936v3.508h-.745v-3.508zm-.368-1.344q.171 0 .295.092.127.092.127.317 0 .222-.127.317-.124.092-.295.092-.177 0-.301-.092-.12-.095-.12-.317 0-.225.12-.317.124-.092.301-.092z" id="A"/><path d="M26.34 78.87q.665 0 1.004.295.342.295.342.919v2.361h-.529l-.143-.497h-.025q-.149.19-.307.314-.158.124-.368.184-.206.063-.504.063-.314 0-.561-.114-.247-.117-.39-.355-.143-.238-.143-.602 0-.542.402-.814.406-.273 1.223-.301l.608-.022v-.184q0-.364-.171-.52-.168-.155-.475-.155-.263 0-.51.076-.247.076-.482.187l-.241-.526q.257-.136.583-.222.33-.086.684-.086zm.608 1.898l-.453.016q-.558.019-.783.19-.225.171-.225.469 0 .26.155.38.155.117.409.117.387 0 .64-.219.257-.222.257-.65z" id="B"/><path d="M68.625 81.905q.146 0 .288-.025.143-.029.26-.067v.564q-.124.054-.32.092-.196.038-.409.038-.298 0-.536-.098-.238-.101-.377-.345-.139-.244-.139-.675v-1.885h-.478v-.333l.513-.263.244-.751h.469v.78h1.004v.567H68.14v1.876q0 .266.133.396.133.13.352.13z" id="C"/><path d="M22.506 120.871q0 .437-.114.776-.114.339-.333.574-.219.231-.526.355-.307.12-.694.12-.361 0-.662-.12-.301-.124-.523-.355-.219-.234-.339-.574-.12-.339-.12-.776 0-.58.2-.982.203-.406.577-.618.374-.212.89-.212.485 0 .856.212.371.212.58.618.209.406.209.982zm-2.545 0q0 .383.092.656.095.273.292.418.196.143.507.143.311 0 .507-.143.196-.146.288-.418.092-.273.092-.656 0-.383-.092-.65-.092-.269-.288-.409-.196-.143-.51-.143-.463 0-.675.311-.212.311-.212.89z" id="D"/><path id="E" d="M125.309 52.142q0 .521-.079.932-.079.41-.249.694-.17.284-.439.434-.27.146-.647.146-.478 0-.791-.261-.311-.261-.466-.753-.152-.495-.152-1.192 0-.686.138-1.178.141-.495.451-.759.311-.267.82-.267.483 0 .797.264.313.261.466.756.152.492.152 1.184zm-2.335 0q0 .598.091.996.091.398.293.598.205.196.536.196.331 0 .533-.196.205-.196.296-.595.094-.398.094-.999 0-.589-.091-.984-.091-.398-.293-.598-.202-.202-.539-.202-.337 0-.539.202-.202.199-.293.598-.088.396-.088.984z"/><path id="F" d="M122.453 31.46h-.475v-3.035q0-.173 0-.296.003-.126.006-.229.006-.105.015-.214-.091.094-.17.161-.079.064-.196.161l-.489.393-.255-.331 1.16-.894h.404z"/><path id="G" d="M123.572 8.631h-2.807v-.407l1.146-1.163q.319-.322.536-.574.22-.252.334-.495.114-.246.114-.539 0-.363-.217-.554-.214-.193-.565-.193-.308 0-.545.105-.237.105-.486.299l-.261-.328q.17-.144.369-.255.202-.111.431-.176.231-.064.492-.064.396 0 .683.138.287.138.442.393.158.255.158.606 0 .34-.135.633-.135.29-.378.577-.243.284-.568.604l-.932.929v.021h2.188z"/></defs></svg>