<?xml version="1.0" encoding="UTF-8" standalone="no"?>
<svg
   xmlns:dc="http://purl.org/dc/elements/1.1/"
   xmlns:cc="http://creativecommons.org/ns#"
   xmlns:rdf="http://www.w3.org/1999/02/22-rdf-syntax-ns#"
   xmlns:svg="http://www.w3.org/2000/svg"
   xmlns="http://www.w3.org/2000/svg"
   xmlns:sodipodi="http://sodipodi.sourceforge.net/DTD/sodipodi-0.dtd"
   xmlns:inkscape="http://www.inkscape.org/namespaces/inkscape"
   xml:space="preserve"
   enable-background="new 0 0 1792 1792"
   viewBox="0 0 1792 1792"
   height="128"
   width="128"
   y="0px"
   x="0px"
   id="Layer_1"
   version="1.1"
   inkscape:version="0.91 r13725"
   sodipodi:docname="pai.svg"><sodipodi:namedview
     pagecolor="#ffffff"
     bordercolor="#666666"
     borderopacity="1"
     objecttolerance="10"
     gridtolerance="10"
     guidetolerance="10"
     inkscape:pageopacity="0"
     inkscape:pageshadow="2"
     inkscape:window-width="686"
     inkscape:window-height="480"
     id="namedview7"
     showgrid="false"
     inkscape:zoom="0.13169643"
     inkscape:cx="896"
     inkscape:cy="896"
     inkscape:window-x="0"
     inkscape:window-y="0"
     inkscape:window-maximized="0"
     inkscape:current-layer="Layer_1" /><metadata
     id="metadata11"><rdf:RDF><cc:Work
         rdf:about=""><dc:format>image/svg+xml</dc:format><dc:type
           rdf:resource="http://purl.org/dc/dcmitype/StillImage" /><dc:title /></cc:Work></rdf:RDF></metadata><defs
     id="defs9" /><path
     id="path3"
     d="M1081.897,889.075c0,7.193-2.63,13.417-7.885,18.672c-5.256,5.257-11.479,7.885-18.673,7.885s-13.418-2.628-18.673-7.885  c-5.256-5.256-7.885-11.479-7.885-18.672c0-25.45-14.938-45.091-44.813-58.923C954.093,816.32,924.77,809.405,896,809.405  c-7.193,0-13.417-2.628-18.673-7.884c-5.255-5.256-7.884-11.48-7.884-18.673s2.628-13.417,7.884-18.673  c5.256-5.256,11.48-7.884,18.673-7.884c27.663,0,55.188,4.426,82.574,13.278c27.387,8.853,51.453,23.791,72.201,44.814  C1071.522,835.408,1081.897,860.305,1081.897,889.075z M1214.68,889.075c0-39.835-9.544-76.904-28.632-111.206  c-19.087-34.302-43.983-62.38-74.689-84.234s-64.732-39.005-102.078-51.454c-37.345-12.448-75.105-18.672-113.28-18.672  c-38.175,0-75.936,6.224-113.281,18.672c-37.345,12.449-71.371,29.6-102.076,51.454c-30.707,21.854-55.603,49.932-74.691,84.234  c-19.087,34.302-28.631,71.371-28.631,111.206c0,55.879,18.812,105.672,56.433,149.38c5.533,6.086,13.97,15.215,25.312,27.387  c11.342,12.173,19.778,21.301,25.312,27.387c70.817,84.649,109.822,167.085,117.015,247.309h189.216  c7.193-80.224,46.199-162.659,117.017-247.309c5.532-6.086,13.969-15.214,25.312-27.387c11.342-12.172,19.779-21.301,25.311-27.387  C1195.869,994.747,1214.68,944.954,1214.68,889.075z M1320.906,889.075c0,85.755-28.493,159.893-85.479,222.412  c-24.897,27.11-45.505,51.177-61.827,72.201c-16.321,21.023-32.78,47.442-49.379,79.254c-16.597,31.812-26.003,61.551-28.216,89.215  c26.003,15.491,39.006,38.174,39.006,68.051c0,20.472-6.917,38.175-20.748,53.113c13.831,14.938,20.748,32.643,20.748,53.114  c0,28.769-12.448,51.176-37.346,67.221c7.192,12.725,10.788,25.727,10.788,39.005c0,25.45-8.714,45.091-26.142,58.923  c-17.429,13.832-38.867,20.747-64.317,20.747c-11.064,24.344-27.663,43.708-49.793,58.092C946.07,1784.807,922.003,1792,896,1792  s-50.07-7.193-72.201-21.578c-22.131-14.384-38.729-33.748-49.794-58.092c-25.451,0-46.889-6.915-64.317-20.747  s-26.142-33.473-26.142-58.923c0-13.278,3.596-26.28,10.789-39.005c-24.896-16.045-37.345-38.452-37.345-67.221  c0-20.472,6.915-38.176,20.748-53.114c-13.833-14.938-20.748-32.642-20.748-53.113c0-29.877,13.002-52.56,39.005-68.051  c-2.213-27.664-11.618-57.402-28.216-89.215c-16.598-31.812-33.058-58.23-49.379-79.254c-16.321-21.024-36.93-45.091-61.827-72.201  c-56.987-62.519-85.479-136.656-85.479-222.412c0-54.773,12.31-105.812,36.931-153.116c24.621-47.304,56.986-86.586,97.097-117.845  c40.112-31.259,85.479-55.88,136.104-73.861C791.848,526.272,843.44,517.282,896,517.282c52.56,0,104.151,8.991,154.775,26.972  c50.624,17.98,95.991,42.602,136.103,73.861c40.11,31.259,72.478,70.541,97.099,117.845  C1308.597,783.263,1320.906,834.302,1320.906,889.075z"
     style="stroke:none;fill:#00ff00;fill-opacity:1" /><path
     id="path5"
     d="M 1725.825,706 1728,986 c -14.667,55.333 -44.833,100.833 -90.5,136.5 -45.667,35.667 -97.833,53.5 -156.5,53.5 l 0,32 c 0,9.333 -3,17 -9,23 -6,6 -13.667,9 -23,9 l -64,0 c -9.333,0 -17,-3 -23,-9 -6,-6 -9,-13.667 -9,-23 l 0,-576 c 0,-9.333 3,-17 9,-23 6,-6 13.667,-9 23,-9 l 64,0 c 9.333,0 17,3 23,9 6,6 9,13.667 9,23 l 0,32 c 47.333,0 90.667,11.833 130,35.5 l -75,60.5 c 0,0 -9.333,-221.667 -68,-309 -58.667,-87.333 -147.5,-157 -246.5,-209 -99,-52 -214.167,-78 -325.5,-78 -111.333,0 -226.5,26 -325.5,78 -99,52 -187.833,121.667 -246.5,209 -58.667,87.333 -68,309 -68,309 L 181,699.5 C 220.333,675.833 263.667,664 311,664 l 0,-32 c 0,-9.333 3,-17 9,-23 6,-6 13.667,-9 23,-9 l 64,0 c 9.333,0 17,3 23,9 6,6 9,13.667 9,23 l 0,576 c 0,9.333 -3,17 -9,23 -6,6 -13.667,9 -23,9 l -64,0 c -9.333,0 -17,-3 -23,-9 -6,-6 -9,-13.667 -9,-23 l 0,-32 c -58.667,0 -110.833,-17.833 -156.5,-53.5 C 108.833,1086.833 78.667,1041.333 64,986 L 64,760 C 64,659.333 86.333,562.333 131,469 175.667,375.667 235.333,294.833 310,226.5 384.667,158.167 473.333,103.667 576,63 678.667,22.333 785.333,2 896,2 c 110.667,0 217.333,20.333 320,61 102.667,40.667 191.333,95.167 266,163.5 74.667,68.333 134.333,149.167 179,242.5 44.667,93.333 67,190.333 67,291"
     style="stroke:none;fill:#00ff00;fill-opacity:1" /></svg>
