/* XPM */
static char * mouse_middle_xpm[] = {
"11 16 18 1",
" 	c None",
".	c #999999",
"+	c #662121",
"@	c #993131",
"#	c #7F2929",
"$	c #7F7F7F",
"%	c #CCCCCC",
"&	c #CC4242",
"*	c #E54A4A",
"=	c #E5E5E5",
"-	c #666666",
";	c #FFFFFF",
">	c #FF5353",
",	c #000000",
"'	c #B23939",
")	c #B2B2B2",
"!	c #4C4C4C",
"~	c #333333",
"  .+@#+.   ",
" $%#&*#=-  ",
" .;@>*@=., ",
"$%='>*'=%- ",
".;=@>&@=)-,",
"$=%#*&#%.-,",
"-.$+@#+.$-,",
"$=;;;;;=)-,",
".;;;;;;;%$,",
".;;;;;;;%$,",
".;;;;;;=%$,",
".=;;;;;=)-,",
"$%=====%.-,",
"-)%%%)).$!,",
" !-$$--!~,,",
"  ,,,,,,,, "};
