/* XPM */
static char * mouse_right_xpm[] = {
"11 16 17 1",
" 	c None",
".	c #999999",
"+	c #666666",
"@	c #7F7F7F",
"#	c #662121",
"$	c #993131",
"%	c #CCCCCC",
"&	c #E5E5E5",
"*	c #7F2929",
"=	c #E54A4A",
"-	c #FFFFFF",
";	c #000000",
">	c #B2B2B2",
",	c #B23939",
"'	c #CC4242",
")	c #4C4C4C",
"!	c #333333",
"  .+.@#$   ",
" @%@%&*=#  ",
" .-.-&$=$; ",
"@%&>-&,='# ",
".-&.-%$=,#;",
"@&%@&%*'$#;",
"+.@+.@#$*#;",
"@&-----&>+;",
".-------%@;",
".-------%@;",
".------&%@;",
".&-----&>+;",
"@%&&&&&%.+;",
"+>%%%>>.@);",
" )+@@++)!;;",
"  ;;;;;;;; "};
