<?xml version="1.0" encoding="UTF-8" standalone="no"?>
<!-- Generator: Adobe Illustrator 19.1.0, SVG Export Plug-In . SVG Version: 6.00 Build 0)  -->

<svg
   xmlns:dc="http://purl.org/dc/elements/1.1/"
   xmlns:cc="http://creativecommons.org/ns#"
   xmlns:rdf="http://www.w3.org/1999/02/22-rdf-syntax-ns#"
   xmlns:svg="http://www.w3.org/2000/svg"
   xmlns="http://www.w3.org/2000/svg"
   xmlns:sodipodi="http://sodipodi.sourceforge.net/DTD/sodipodi-0.dtd"
   xmlns:inkscape="http://www.inkscape.org/namespaces/inkscape"
   version="1.0"
   id="Ebene_1"
   x="0px"
   y="0px"
   viewBox="0 0 129 129"
   xml:space="preserve"
   sodipodi:docname="fit_inspector_doc.svg"
   inkscape:version="0.92.3 (2405546, 2018-03-11)"
   width="129"
   height="129"><metadata
   id="metadata49"><rdf:RDF><cc:Work
       rdf:about=""><dc:format>image/svg+xml</dc:format><dc:type
         rdf:resource="http://purl.org/dc/dcmitype/StillImage" /><dc:title></dc:title></cc:Work></rdf:RDF></metadata><defs
   id="defs47" /><sodipodi:namedview
   pagecolor="#ffffff"
   bordercolor="#666666"
   borderopacity="1"
   objecttolerance="10"
   gridtolerance="10"
   guidetolerance="10"
   inkscape:pageopacity="0"
   inkscape:pageshadow="2"
   inkscape:window-width="1600"
   inkscape:window-height="1137"
   id="namedview45"
   showgrid="false"
   inkscape:zoom="0.3"
   inkscape:cx="-487.22719"
   inkscape:cy="65.284159"
   inkscape:window-x="1912"
   inkscape:window-y="-8"
   inkscape:window-maximized="1"
   inkscape:current-layer="Ebene_1" />
<style
   type="text/css"
   id="style2">
	.st0{fill:#F39200;}
	.st1{fill:#1D1D1B;}
	.st2{fill:#FFFFFF;}
	.st3{fill:none;stroke:#F39200;stroke-linecap:round;stroke-miterlimit:10;}
	.st4{fill:#F39200;stroke:#F39200;stroke-width:0.25;stroke-miterlimit:10;}
	.st5{fill:none;stroke:#1D1D1B;stroke-linecap:round;stroke-miterlimit:10;}
	.st6{fill:#FFFFFF;stroke:#FFFFFF;stroke-width:4;stroke-linecap:round;stroke-linejoin:round;stroke-miterlimit:10;}
	.st7{fill:none;stroke:#E6007E;stroke-linecap:round;stroke-miterlimit:10;}
	.st8{fill:#009FE3;}
	.st9{fill:#1C2E52;}
	.st10{fill:#C0C5CD;}
	.st11{fill:none;stroke:#1D1D1B;stroke-width:2;stroke-miterlimit:10;}
	.st12{fill:none;stroke:#C0C5CD;stroke-width:2;stroke-miterlimit:10;}
	.st13{fill:#0096AE;}
	.st14{fill:none;stroke:#1D1D1B;stroke-width:7;stroke-miterlimit:10;}
	.st15{fill:#1D1D1B;stroke:#1D1D1B;stroke-width:0.1;stroke-linecap:round;stroke-linejoin:round;stroke-miterlimit:10;}
	.st16{fill:none;}
	.st17{fill:none;stroke:#1D1C1B;stroke-width:2;stroke-linecap:round;stroke-linejoin:round;stroke-miterlimit:10;}
	.st18{fill:#1D1D1B;stroke:#FFFFFF;stroke-width:2;stroke-linecap:round;stroke-linejoin:round;stroke-miterlimit:10;}
	.st19{fill:none;stroke:#1D1D1B;stroke-width:2;stroke-linecap:round;stroke-linejoin:round;stroke-miterlimit:10;}
	.st20{fill:#E71D73;}
	.st21{fill:#F0F0F0;}
	.st22{fill:#E6007E;}
	.st23{fill:none;stroke:#1D1D1B;stroke-width:3;stroke-miterlimit:10;}
	.st24{fill:none;stroke:#1D1D1B;stroke-width:5;stroke-miterlimit:10;}
	.st25{fill:none;stroke:#1D1D1B;stroke-width:10;stroke-miterlimit:10;}
	.st26{fill:none;stroke:#1D1D1B;stroke-width:6;stroke-miterlimit:10;}
	.st27{fill:#009640;}
	.st28{fill:none;stroke:#009FE3;stroke-width:5;stroke-linejoin:round;}
	.st29{fill:none;stroke:#009FE3;stroke-width:3;stroke-linejoin:round;}
	.st30{fill:none;stroke:#1D1D1B;stroke-width:5;stroke-linejoin:round;}
	.st31{fill:#51509C;}
	.st32{fill:none;stroke:#1D1D1B;stroke-miterlimit:10;}
	.st33{fill:none;stroke:#FFFFFF;stroke-miterlimit:10;}
	.st34{fill:none;stroke:#FFFFFF;stroke-width:2;stroke-miterlimit:10;}
	.st35{fill:#1D1D1B;stroke:#FFFFFF;stroke-miterlimit:10;}
	.st36{fill:#FFFFFF;stroke:#1D1D1B;stroke-miterlimit:10;}
	.st37{fill:none;stroke:#1D1D1B;stroke-width:2;stroke-linecap:round;stroke-miterlimit:10;}
	.st38{fill:#009C3E;}
	.st39{fill:#E61883;}
	.st40{fill:#1D1D1B;stroke:#FFFFFF;stroke-linecap:round;stroke-linejoin:round;stroke-miterlimit:10;}
	.st41{fill:#1D1D1B;stroke:#1D1D1B;stroke-width:2;stroke-linecap:round;stroke-linejoin:round;stroke-miterlimit:10;}
	.st42{fill:#FFFFFF;stroke:#FFFFFF;stroke-width:6;stroke-linecap:round;stroke-linejoin:round;stroke-miterlimit:10;}
	.st43{fill:none;stroke:#1D1D1B;stroke-linecap:round;stroke-linejoin:round;stroke-miterlimit:10;}
	.st44{fill:#1D1D1B;stroke:#1D1D1B;stroke-linecap:round;stroke-linejoin:round;stroke-miterlimit:10;}
	.st45{fill:none;stroke:#1D1D1B;stroke-width:2;stroke-linecap:round;stroke-linejoin:round;}
	.st46{fill:none;stroke:#FFFFFF;stroke-width:3;stroke-linecap:round;stroke-miterlimit:10;}
	.st47{fill:none;stroke:#FFFFFF;stroke-width:2;stroke-linecap:round;stroke-miterlimit:10;}
	.st48{fill:#FFFFFF;stroke:#FFFFFF;stroke-width:4;stroke-miterlimit:10;}
	.st49{fill:none;stroke:#F39200;stroke-width:1.5;stroke-linecap:round;stroke-miterlimit:10;}
	.st50{fill:#00FF00;}
	.st51{fill:none;stroke:#1D1D1B;stroke-width:1.5;stroke-linecap:round;stroke-linejoin:round;}
	.st52{fill:#FF00FF;}
</style>

<path
   style="color:#000000;font-style:normal;font-variant:normal;font-weight:normal;font-stretch:normal;font-size:medium;line-height:normal;font-family:sans-serif;font-variant-ligatures:normal;font-variant-position:normal;font-variant-caps:normal;font-variant-numeric:normal;font-variant-alternates:normal;font-feature-settings:normal;text-indent:0;text-align:start;text-decoration:none;text-decoration-line:none;text-decoration-style:solid;text-decoration-color:#000000;letter-spacing:normal;word-spacing:normal;text-transform:none;writing-mode:lr-tb;direction:ltr;text-orientation:mixed;dominant-baseline:auto;baseline-shift:baseline;text-anchor:start;white-space:normal;shape-padding:0;clip-rule:nonzero;display:inline;overflow:visible;visibility:visible;opacity:1;isolation:auto;mix-blend-mode:normal;color-interpolation:sRGB;color-interpolation-filters:linearRGB;solid-color:#000000;solid-opacity:1;vector-effect:none;fill:#000000;fill-opacity:1;fill-rule:evenodd;stroke:none;stroke-width:2;stroke-linecap:butt;stroke-linejoin:miter;stroke-miterlimit:4;stroke-dasharray:6, 6;stroke-dashoffset:0;stroke-opacity:1;color-rendering:auto;image-rendering:auto;shape-rendering:auto;text-rendering:auto;enable-background:accumulate"
   d="m 105.63672,57.921875 c 0.32875,0.697134 0.63892,1.402296 0.92773,2.117187 l 1.02344,0.117188 1.57422,0.271484 0.33789,-1.970703 -1.60156,-0.27539 -0.0273,-0.0039 -0.0273,-0.0039 -2.11133,-0.24414 -0.0332,-0.0039 -0.0332,-0.002 z m 9.79883,1.953125 -0.54297,1.925781 2.50781,0.705078 3.26953,0.917969 0.54102,-1.925781 -3.26953,-0.917969 z m -29.271488,4.060547 -5,2.994141 -0.146484,0.08789 1.027344,1.716797 0.146484,-0.08789 5.001953,-2.996093 z m -10.294921,6.160156 -1.082032,0.646485 -0.01758,0.0098 -3.28125,1.873047 -0.01953,0.01172 -0.771484,0.414062 0.949218,1.761719 0.792969,-0.427734 0.0098,-0.0059 0.0098,-0.0059 3.320313,-1.894531 0.0078,-0.0039 0.0098,-0.0059 1.097656,-0.65625 z m -10.46875,5.701172 -0.640625,0.318359 -0.0039,0.002 -3.318359,1.480468 -0.01953,0.0078 -0.01758,0.0078 -1.416016,0.564453 0.742187,1.857422 1.453126,-0.580078 0.01758,-0.0078 0.01758,-0.0078 3.394531,-1.513672 0.01953,-0.0078 0.01953,-0.0098 0.642578,-0.322265 z m -10.984375,4.167969 -1.148438,0.271484 -0.01367,0.0039 -1.509765,0.28125 -0.0078,0.002 -0.859375,0.111328 c 0.197999,0.650739 0.43937,1.290891 0.714844,1.923828 l 0.410156,-0.05273 0.02539,-0.0039 0.02734,-0.0059 1.613281,-0.298828 0.02344,-0.0039 0.02344,-0.0059 1.162109,-0.275391 z"
   id="path1174-3-7"
   inkscape:connector-curvature="0" /><path
   style="color:#000000;font-style:normal;font-variant:normal;font-weight:normal;font-stretch:normal;font-size:medium;line-height:normal;font-family:sans-serif;font-variant-ligatures:normal;font-variant-position:normal;font-variant-caps:normal;font-variant-numeric:normal;font-variant-alternates:normal;font-feature-settings:normal;text-indent:0;text-align:start;text-decoration:none;text-decoration-line:none;text-decoration-style:solid;text-decoration-color:#000000;letter-spacing:normal;word-spacing:normal;text-transform:none;writing-mode:lr-tb;direction:ltr;text-orientation:mixed;dominant-baseline:auto;baseline-shift:baseline;text-anchor:start;white-space:normal;shape-padding:0;clip-rule:nonzero;display:inline;overflow:visible;visibility:visible;opacity:1;isolation:auto;mix-blend-mode:normal;color-interpolation:sRGB;color-interpolation-filters:linearRGB;solid-color:#000000;solid-opacity:1;vector-effect:none;fill:#000000;fill-opacity:1;fill-rule:evenodd;stroke:none;stroke-width:3.5;stroke-linecap:butt;stroke-linejoin:miter;stroke-miterlimit:4;stroke-dasharray:7, 3.5;stroke-dashoffset:3.5;stroke-opacity:1;color-rendering:auto;image-rendering:auto;shape-rendering:auto;text-rendering:auto;enable-background:accumulate"
   d="m 108.21875,45.533203 -0.78516,0.01172 0.0547,3.5 0.74219,-0.01172 3.13867,0.07617 2.96484,0.203125 0.23829,-3.492188 -3.01172,-0.205078 -0.0371,-0.0039 h -0.0391 l -3.19532,-0.07813 h -0.0352 z m -4.39063,0.183594 -0.69921,0.05664 -0.0332,0.002 -0.0312,0.0039 -1.68945,0.195312 -0.0332,0.0039 -0.0352,0.0059 -1.695312,0.263672 -0.03711,0.0059 -0.03711,0.0078 -1.697265,0.339843 -0.04102,0.0078 -0.03711,0.0098 -0.09961,0.02539 c 0.977862,0.95387 1.89658,1.965436 2.763667,3.019531 l 1.41992,-0.220703 1.59571,-0.183593 0.0254,-0.0039 0.63867,-0.04883 z m 14.32227,0.480469 -0.43164,3.472656 2.05664,0.255859 v -0.002 l 4.43164,0.570313 0.0371,0.0039 0.0371,0.0039 0.45117,0.03906 0.29688,-3.488282 -0.41016,-0.03516 -4.4043,-0.564453 h -0.004 l -0.004,-0.002 z M 80.519531,56.375 l -2.066406,2.21875 2.560547,2.384766 2.416016,-2.59375 0.0098,-0.0098 c -0.913158,-0.751809 -1.886945,-1.423202 -2.919922,-2 z m -4.427734,4.849609 -0.259766,0.291016 -0.01172,0.01172 -0.0098,0.01367 -4.097656,4.761718 -0.0039,0.0059 -0.207031,0.236328 2.644531,2.294922 0.210938,-0.244141 0.002,-0.002 0.002,-0.0039 4.080078,-4.742188 0.02148,-0.02539 0.238281,-0.263672 z m -6.882813,7.964844 -0.933593,1.076172 -0.0078,0.0078 -1.591797,1.703124 -0.01563,0.01758 -1.490234,1.449218 -0.660156,0.564453 2.271484,2.66211 0.707031,-0.601563 0.04297,-0.03711 0.04102,-0.04102 1.58789,-1.546875 0.03125,-0.0293 0.02734,-0.0293 1.615234,-1.728516 0.02148,-0.02344 0.02148,-0.02539 0.974609,-1.125 z m -7.271484,6.757813 -0.597656,0.363281 -0.8125,0.443359 -0.869141,0.414063 -0.197265,0.08203 v 3.748047 l 0.527343,-0.185547 0.04297,-0.01563 0.04297,-0.01758 0.976562,-0.402344 0.04297,-0.01758 0.04102,-0.01953 0.935546,-0.445313 0.04102,-0.01953 0.04102,-0.02148 0.898437,-0.488282 0.04102,-0.02148 0.03711,-0.02344 0.634766,-0.388671 z"
   id="path1174-3"
   inkscape:connector-curvature="0" /><path
   style="color:#000000;font-style:normal;font-variant:normal;font-weight:normal;font-stretch:normal;font-size:medium;line-height:normal;font-family:sans-serif;font-variant-ligatures:normal;font-variant-position:normal;font-variant-caps:normal;font-variant-numeric:normal;font-variant-alternates:normal;font-feature-settings:normal;text-indent:0;text-align:start;text-decoration:none;text-decoration-line:none;text-decoration-style:solid;text-decoration-color:#000000;letter-spacing:normal;word-spacing:normal;text-transform:none;writing-mode:lr-tb;direction:ltr;text-orientation:mixed;dominant-baseline:auto;baseline-shift:baseline;text-anchor:start;white-space:normal;shape-padding:0;clip-rule:nonzero;display:inline;overflow:visible;visibility:visible;opacity:1;isolation:auto;mix-blend-mode:normal;color-interpolation:sRGB;color-interpolation-filters:linearRGB;solid-color:#000000;solid-opacity:1;vector-effect:none;fill:#000000;fill-opacity:1;fill-rule:evenodd;stroke:none;stroke-width:8;stroke-linecap:butt;stroke-linejoin:miter;stroke-miterlimit:4;stroke-dasharray:none;stroke-dashoffset:0;stroke-opacity:1;color-rendering:auto;image-rendering:auto;shape-rendering:auto;text-rendering:auto;enable-background:accumulate"
   d="m 127.12109,22.6875 c -0.32157,0.02955 -1.16117,0.03181 -1.94336,0.03711 v 8.03125 c 0.96685,-0.0074 1.87119,-0.02958 2.67579,-0.103515 z m -21.94336,1.162109 c -8.245493,1.289492 -17.439443,4.119516 -25.003902,10.476563 h 8.458984 c 1.280848,0 2.310547,0.715162 2.310547,1.601562 v 0.722657 c 4.48396,-2.406165 9.422811,-3.857175 14.261721,-4.710938 -0.0104,-0.06182 -0.0273,-0.121735 -0.0273,-0.185547 z M 70.744141,54.027344 c -0.359007,-0.0025 -0.718995,0.0048 -1.078125,0.02734 -1.361211,0.0086 -2.678367,0.173978 -3.945313,0.470703 -1.51878,3.190958 -2.820962,6.229532 -4.099609,8.90039 -0.721125,1.506297 -1.438538,2.85195 -2.160156,4.089844 0.01735,0.07932 0.03516,0.159414 0.03516,0.242187 v 11.84961 c 0.856227,-0.599041 1.655813,-1.257562 2.380859,-1.978516 3.030711,-3.013599 5.054742,-6.772388 6.958985,-10.75 1.934115,-4.040012 3.752493,-8.345783 5.96875,-12.550781 -0.0045,-7.91e-4 -0.0092,-0.0012 -0.01367,-0.002 h -1.535157 c -0.471583,0 -0.908552,-0.0972 -1.273437,-0.263672 -0.05457,-8.35e-4 -0.107388,-0.0075 -0.16211,-0.0078 -0.359132,-0.0123 -0.717165,-0.02479 -1.076171,-0.02734 z M 2.2226562,66.044922 c -0.8526582,-0.005 -1.72436675,-3.43e-4 -2.61718745,0.01563 L -0.25,74.058594 c 1.4447675,-0.02584 2.8104569,-0.01847 4.1269531,0.0098 v -7.99414 c -0.5463397,-0.01196 -1.0910132,-0.02598 -1.6542969,-0.0293 z m 21.6542968,2.800781 v 8.308594 c 1.226195,0.37242 2.423554,0.752582 3.578125,1.142578 1.622407,0.548023 3.216725,1.113455 4.828125,1.654297 -0.218628,-1.487223 -0.33245,-2.973904 -0.292969,-4.4375 -0.06749,-1.375814 -0.04265,-2.743707 0.05469,-4.09961 -0.681931,-0.235348 -1.30465,-0.450538 -2.029297,-0.695312 -1.88003,-0.635044 -3.921222,-1.274276 -6.138672,-1.873047 z"
   id="path1174"
   inkscape:connector-curvature="0" /><rect
   style="opacity:1;fill:#0084c8;fill-opacity:1;stroke:none;stroke-width:3"
   id="rect1145"
   width="15"
   height="15"
   x="6.3015518"
   y="65.003433"
   rx="1.734"
   ry="1.2" /><path
   style="opacity:1;fill:#0084c8;fill-opacity:1;stroke:none;stroke-width:3"
   d="m 80.128906,37.046875 c 2.852326,0.7084 5.627863,1.724332 8.244141,3.068359 0.0026,0.0013 0.0052,0.0026 0.0078,0.0039 v -1.873047 c 0,-0.6648 -0.771786,-1.199219 -1.732421,-1.199219 z"
   id="rect1145-7"
   inkscape:connector-curvature="0" /><path
   style="opacity:1;fill:#0084c8;fill-opacity:1;stroke:none;stroke-width:3"
   d="m 51.144531,68.587891 c -1.599323,4.882084 -1.489278,10.278095 0.9375,15 h 2.878907 c 0.960635,0 1.732421,-0.534419 1.732421,-1.199219 v -12.59961 c 0,-0.6648 -0.771786,-1.201171 -1.732421,-1.201171 z"
   id="rect1145-78"
   inkscape:connector-curvature="0" /><rect
   style="opacity:1;fill:#0084c8;fill-opacity:1;stroke:none;stroke-width:3"
   id="rect1145-2"
   width="15"
   height="15"
   x="107.60796"
   y="15.999483"
   rx="1.734"
   ry="1.2" /><text
   xml:space="preserve"
   style="font-style:normal;font-variant:normal;font-weight:bold;font-stretch:normal;font-size:40px;line-height:1.25;font-family:Arial;-inkscape-font-specification:'Arial Bold';letter-spacing:0px;word-spacing:0px;fill:#000000;fill-opacity:1;stroke:none;stroke-width:1px;stroke-linecap:butt;stroke-linejoin:miter;stroke-opacity:1"
   x="5"
   y="35.5"
   id="text1208"><tspan
     sodipodi:role="line"
     id="tspan1206"
     x="5"
     y="35.5"
     style="font-style:normal;font-variant:normal;font-weight:bold;font-stretch:normal;font-size:40px;font-family:Arial;-inkscape-font-specification:'Arial Bold';fill:#000000">FIT</tspan></text>


<path
   inkscape:connector-curvature="0"
   d="m 29.199975,127.14834 17.62249,-17.6225 c 0.79539,-0.79539 1.23728,-1.8736 1.23728,-3.00482 v -2.88112 c 6.23945,4.87845 14.08739,7.77722 22.62466,7.77722 20.30916,0 36.765075,-16.455832 36.765075,-36.764995 0,-20.30918 -16.455915,-36.76508 -36.765075,-36.76508 -20.30917,0 -36.76508,16.4559 -36.76508,36.76508 0,8.537273 2.89878,16.385193 7.77724,22.624663 h -2.88112 c -1.13121,0 -2.20944,0.44189 -3.00483,1.23728 l -17.62249,17.622422 c -1.6615,1.66149 -1.6615,4.34818 0,5.992 l 5.00218,5.00218 c 1.66148,1.66149 4.34817,1.66149 6.00967,0.0176 z m 18.85977,-52.496215 c 0,-12.49659 10.1104,-22.62467 22.62466,-22.62467 12.49658,0 22.62465,10.1104 22.62465,22.62467 0,12.496593 -10.11038,22.624663 -22.62465,22.624663 -12.49658,0 -22.62466,-10.1104 -22.62466,-22.624663 z"
   id="path2"
   style="fill:#0084c8;stroke:none;stroke-width:4.30000019;stroke-miterlimit:4;stroke-dasharray:none;stroke-opacity:1;paint-order:stroke fill markers" /></svg>