/* XPM */
static const char * QmitkLocalizerDialogBar_xpm[] = {
"11 11 3 1",
" 	c None",
".	c #000000",
"+	c #FFFFFF",
".....+.....",
"....+++....",
"...+++++...",
"..+..+..+..",
".++..+..++.",
"+++++++++++",
".++..+..++.",
"..+..+..+..",
"...+++++...",
"....+++....",
".....+....."};
