/* XPM */
static const char * volumetry_xpm[] = {
"23 23 3 1",
" 	c None",
".	c #000000",
"+	c #FFB2B2",
"                       ",
"             ......    ",
"         .....++++..   ",
"        ..++++++++++.  ",
"    .....+++++++...+.. ",
"   ..++++++++++++..++. ",
"   .++...+++++++.+.++. ",
"   .++..++...++.+++++. ",
"   .++.++..+..+++++++. ",
"   .++++++++..+++++++. ",
"   .+++++++..++++++++. ",
"   .+++++++.++++++++.. ",
"  ..++++++++++++++++.  ",
" ..+++++.++.++.+++++.  ",
" .+++++.++...++.++++.  ",
" .++.+.++++.++++.+.+.  ",
" .++..+++++++++++..+.  ",
" .++...++.....++...+.  ",
" ..+++++..    ..++++.  ",
"  ...+..       ..+++.  ",
"    ...         ..++.  ",
"                  ...  ",
"                       "};
