/* XPM */
static char * btnSetPoints_xpm[] = {
"30 30 8 1",
" 	c None",
".	c #000000",
"+	c #030303",
"@	c #050505",
"#	c #FFFFFF",
"$	c #060606",
"%	c #070707",
"&	c #131313",
"                              ",
"                              ",
"                              ",
"                              ",
"                              ",
"                              ",
"                              ",
"               .              ",
"               .              ",
"               .              ",
"               .              ",
"               .              ",
"               .              ",
"               .              ",
"        ...............       ",
"               ..+            ",
"               . ...          ",
"               . @#..         ",
"               . +##..        ",
"               . +###..       ",
"               . $####...     ",
"               . $####...     ",
"               . @%....       ",
"                 &  ....      ",
"                     ...      ",
"                     &..      ",
"                              ",
"                              ",
"                              ",
"                              "};
