/* XPM */
static const char * iconClose_xpm[] = {
"32 32 256 2",
"  	c #EEB9B9",
". 	c #E6E3E3",
"+ 	c #E9DEDE",
"@ 	c #E18181",
"# 	c #E5A6A6",
"$ 	c #E2A2A2",
"% 	c #D13535",
"& 	c #C00303",
"* 	c #C61818",
"= 	c #EEF6F6",
"- 	c #EFF4F4",
"; 	c #F2F3F3",
"> 	c #D43E3E",
", 	c #EAF5F5",
"' 	c #EDF2F2",
") 	c #F1F0F0",
"! 	c #E9F2F2",
"~ 	c #F1EFEF",
"{ 	c #EAF1F1",
"] 	c #E9F1F1",
"^ 	c #E8EBEB",
"/ 	c #E7EAEA",
"( 	c #D24545",
"_ 	c #DA5656",
": 	c #C10606",
"< 	c #EBB7B7",
"[ 	c #C00404",
"} 	c #F1FEFE",
"| 	c #CA2525",
"1 	c #E7F0F0",
"2 	c #F5EBEB",
"3 	c #EFDDDD",
"4 	c #D24141",
"5 	c #DA5353",
"6 	c #C92323",
"7 	c #D74747",
"8 	c #E9ADAD",
"9 	c #D23C3C",
"0 	c #E29A9A",
"a 	c #C51111",
"b 	c #D64343",
"c 	c #D13D3D",
"d 	c #E16969",
"e 	c #CD2E2E",
"f 	c #D13E3E",
"g 	c #CF3131",
"h 	c #C50F0F",
"i 	c #BF0000",
"j 	c #F3F8F8",
"k 	c #BF0101",
"l 	c #C20909",
"m 	c #F3F6F6",
"n 	c #F3F9F9",
"o 	c #EEF3F3",
"p 	c #F2F8F8",
"q 	c #E6EDED",
"r 	c #F4FAFA",
"s 	c #F4F7F7",
"t 	c #C20808",
"u 	c #C30A0A",
"v 	c #F2F0F0",
"w 	c #F3F7F7",
"x 	c #E9A4A4",
"y 	c #F5FFFF",
"z 	c #F0F9F9",
"A 	c #F0E6E6",
"B 	c #EFFEFE",
"C 	c #F2FBFB",
"D 	c #DD5D5D",
"E 	c #F2EDED",
"F 	c #C20A0A",
"G 	c #F2F9F9",
"H 	c #F1F7F7",
"I 	c #F2F6F6",
"J 	c #F2F5F5",
"K 	c #F3F4F4",
"L 	c #EFF2F2",
"M 	c #F1C6C6",
"N 	c #C30B0B",
"O 	c #DE6D6D",
"P 	c #C30C0C",
"Q 	c #E79F9F",
"R 	c #F0FDFD",
"S 	c #F2FAFA",
"T 	c #C30909",
"U 	c #F2FCFC",
"V 	c #F4F9F9",
"W 	c #E9EEEE",
"X 	c #F0F2F2",
"Y 	c #F2F4F4",
"Z 	c #F4FBFB",
"` 	c #C40C0C",
" .	c #EBE8E8",
"..	c #E2F5F5",
"+.	c #E89D9D",
"@.	c #E9EFEF",
"#.	c #E9F8F8",
"$.	c #F2FDFD",
"%.	c #E9E6E6",
"&.	c #DF7272",
"*.	c #E9E9E9",
"=.	c #E9B0B0",
"-.	c #F1D8D8",
";.	c #E5DBDB",
">.	c #F3E5E5",
",.	c #D23F3F",
"'.	c #F3F5F5",
").	c #ECF0F0",
"!.	c #C40B0B",
"~.	c #EEE1E1",
"{.	c #D95B5B",
"].	c #F1FBFB",
"^.	c #EBF7F7",
"/.	c #E9F6F6",
"(.	c #D44E4E",
"_.	c #F6FCFC",
":.	c #F6F8F8",
"<.	c #F3E9E9",
"[.	c #E1F6F6",
"}.	c #EFFCFC",
"|.	c #F1F8F8",
"1.	c #D44040",
"2.	c #EDF4F4",
"3.	c #D13838",
"4.	c #F1E8E8",
"5.	c #C82A2A",
"6.	c #CB2828",
"7.	c #EFC7C7",
"8.	c #EDC6C6",
"9.	c #CA1F1F",
"0.	c #F6CDCD",
"a.	c #C20B0B",
"b.	c #E8E7E7",
"c.	c #DC5252",
"d.	c #D75656",
"e.	c #E7F2F2",
"f.	c #F4FCFC",
"g.	c #E6F5F5",
"h.	c #EBD6D6",
"i.	c #F7FFFF",
"j.	c #F6EFEF",
"k.	c #E3BCBC",
"l.	c #E5A3A3",
"m.	c #E9A0A0",
"n.	c #DDA8A8",
"o.	c #F4F5F5",
"p.	c #F1F4F4",
"q.	c #CD3B3B",
"r.	c #F2D5D5",
"s.	c #E4B2B2",
"t.	c #CA2D2D",
"u.	c #E8ECEC",
"v.	c #F4D5D5",
"w.	c #E4E8E8",
"x.	c #E6E8E8",
"y.	c #F1E3E3",
"z.	c #DE7A7A",
"A.	c #F2F7F7",
"B.	c #EEF1F1",
"C.	c #D98585",
"D.	c #E8A7A7",
"E.	c #DA4D4D",
"F.	c #E2E8E8",
"G.	c #E18E8E",
"H.	c #E6ABAB",
"I.	c #E58F8F",
"J.	c #D23939",
"K.	c #C10808",
"L.	c #C62121",
"M.	c #D97E7E",
"N.	c #EAECEC",
"O.	c #DD7F7F",
"P.	c #D66464",
"Q.	c #E4F0F0",
"R.	c #EDC8C8",
"S.	c #EFCDCD",
"T.	c #C10707",
"U.	c #BF0202",
"V.	c #CC2727",
"W.	c #E26E6E",
"X.	c #EEF2F2",
"Y.	c #E19090",
"Z.	c #F3C3C3",
"`.	c #E7DEDE",
" +	c #EBADAD",
".+	c #EBAFAF",
"++	c #EAE5E5",
"@+	c #EAE7E7",
"#+	c #DE5959",
"$+	c #E69999",
"%+	c #EEE7E7",
"&+	c #E39C9C",
"*+	c #ECF6F6",
"=+	c #E79494",
"-+	c #E28484",
";+	c #C71616",
">+	c #DD6969",
",+	c #EFC1C1",
"'+	c #F5F3F3",
")+	c #F6F0F0",
"!+	c #E7D8D8",
"~+	c #ECE8E8",
"{+	c #E3F7F7",
"]+	c #F3C8C8",
"^+	c #D95555",
"/+	c #D85757",
"(+	c #D65959",
"_+	c #F4F6F6",
":+	c #F5F7F7",
"<+	c #E5EDED",
"[+	c #F0B9B9",
"}+	c #F1FCFC",
"|+	c #F2CBCB",
"1+	c #F1FDFD",
"2+	c #F1F9F9",
"3+	c #ECB6B6",
"4+	c #EBB5B5",
"5+	c #DF8080",
"6+	c #DF8383",
"7+	c #EEE3E3",
"8+	c #EDBCBC",
"9+	c #ECBEBE",
"0+	c #CD3434",
"a+	c #ECF4F4",
"b+	c #EDF5F5",
"c+	c #EB9C9C",
"d+	c #E58A8A",
"e+	c #D33B3B",
"f+	c #E49E9E",
"g+	c #E6ECEC",
"h+	c #F6F5F5",
"i+	c #CA2B2B",
"j+	c #EFDEDE",
"k+	c #C41212",
"l+	c #C61313",
"m+	c #F3D2D2",
"n+	c #C00101",
"o+	c #EDC0C0",
"p+	c #F4CBCB",
"q+	c #F4F8F8",
"r+	c #E2D1D1",
"s+	c #F2ECEC",
"t+	c #C91C1C",
"u+	c #E9A8A8",
"v+	c #C91F1F",
"w+	c #EEF9F9",
"x+	c #DC5B5B",
"y+	c #F1D1D1",
"z+	c #F4CDCD",
"A+	c #EAF2F2",
"B+	c #EBF3F3",
"C+	c #EDB0B0",
"D+	c #D64545",
"E+	c #EAE9E9",
"F+	c #EEE4E4",
"G+	c #EEB4B4",
"i i i i i i i i i i i i i i i i i i i i i i i i i i i i i i i i ",
"i i i i i i i i i i i i i i i i i i i i i i i i i i i i i i i i ",
"i i i i i i i i i i i i i i i i i i i i i i i i i i i i i i i i ",
"i i i i i i i i i i i i i i i i i i i i i i i i i i i i i i i i ",
"i i i i 5.n.w.;.0 3.[ i i i i i i i i i i 6 O.r+F.k.P.k+n+i i i ",
"i i i i C.x...<+^ 0 % l i i i i i i i U.| z.`.{+[.Q.s.6 i i i i ",
"i i i i M.!+q q 1 *.H.J.t i i i i i [ V.5+/ g.g+q . $ q.i i i i ",
"i i i i g G.. 1 u.W @+l.9 t i i i k V.6++ W ^ e.^ $ ( * i i i i ",
"i i i i T.g Y.b.@.] ! N.&+> u i U.e @ + #.^ ! E+f+4 K.i i i i i ",
"i i i i i & % # ++! ] , ~+Q 1.a 6.@ %./.{ A+{ # 9 & i i i i i i ",
"i i i i i i P > Q  .B+*+o 7+=.O -+h., ^.a+).D.4 l i i i i i i i ",
"i i i i i i i l e+$+%+' o o o 3 F+2.b+X.A 8 ,.: i i i i i i i i ",
"i i i i i i i i t > +.~.o L = B }.- - 4.8 (.T.i i i i i i i i i ",
"i i i i i i i i i u > u+B.= X ) X - = 8./+T.i i i i i i i i i i ",
"i i i i i i i i i i F O j+B Y v ; J v m.% i i i i i i i i i i i ",
"i i i i i i i i i & e I.A U Y K m m v   _ a i i i i i i i i i i ",
"i i i i i i i k P f =+y.G m I j w w I s+ +5 a i i i i i i i i i ",
"i i i i i i i !.> x ~ R S s q+s m j V j E 9+D+N i i i i i i i i ",
"i i i i i i ` 7 x E C $.r )+v.C+,+2 s n H ) < D l+i i i i i i i ",
"i i i i i u D+3+n U m f.j.  >+( ^+c+<.n j z z S.D * i i i i i i ",
"i i i i ` b .+p A.K r y M {.l i F b [+:+Z J H p.7.x+N U.: i i i ",
"i i i i _ 8+; S _+V _.p+d.a.i i i h #+Z.:.n p G ) o+c [ U.i i i ",
"i i i i 4+].R '.Z i.z+E.T i i i i i ;+d 0.h+r j 2+L R.[ i i i i ",
"i i i i -.} } p y |+c.T i i i i i i i 9.W.]+'+C 1+w+A L.i i i i ",
"i i i i (+3 |.; y+5 T.i i i i i i i i k * d M o.}+~ 3+0+i i i i ",
"i i i i : d+>.r._ h i i i i i i i i i i i v+&.m+2 G+f T.i i i i ",
"i i i i i [ * i+t+i i i i i i i i i i i i i i l t.& : i i i i i ",
"i i i i k k & U.i i i i i i i i i i i i i i i i i i i i i i i i ",
"i i i i i i i i i i i i i i i i i i i i i i i i i i i i i i i i ",
"i i i i i i i i i i i i i i i i i i i i i i i i i i i i i i i i ",
"i i i i i i i i i i i i i i i i i i i i i i i i i i i i i i i i ",
"i i i i i i i i i i i i i i i i i i i i i i i i i i i i i i i i "};
