<?xml version="1.0" encoding="UTF-8" standalone="no"?>
<!-- Created with Inkscape (http://www.inkscape.org/) -->

<svg
   xmlns:dc="http://purl.org/dc/elements/1.1/"
   xmlns:cc="http://creativecommons.org/ns#"
   xmlns:rdf="http://www.w3.org/1999/02/22-rdf-syntax-ns#"
   xmlns:svg="http://www.w3.org/2000/svg"
   xmlns="http://www.w3.org/2000/svg"
   xmlns:sodipodi="http://sodipodi.sourceforge.net/DTD/sodipodi-0.dtd"
   xmlns:inkscape="http://www.inkscape.org/namespaces/inkscape"
   width="210mm"
   height="297mm"
   viewBox="0 0 210 297"
   version="1.1"
   id="svg8"
   inkscape:version="0.92.3 (2405546, 2018-03-11)"
   sodipodi:docname="spectralunmixing.svg">
  <defs
     id="defs2" />
  <sodipodi:namedview
     id="base"
     pagecolor="#ffffff"
     bordercolor="#666666"
     borderopacity="1.0"
     inkscape:pageopacity="0.0"
     inkscape:pageshadow="2"
     inkscape:zoom="0.35"
     inkscape:cx="-56.753609"
     inkscape:cy="804.16493"
     inkscape:document-units="mm"
     inkscape:current-layer="layer1-3"
     showgrid="false"
     inkscape:window-width="1316"
     inkscape:window-height="769"
     inkscape:window-x="200"
     inkscape:window-y="200"
     inkscape:window-maximized="0" />
  <metadata
     id="metadata5">
    <rdf:RDF>
      <cc:Work
         rdf:about="">
        <dc:format>image/svg+xml</dc:format>
        <dc:type
           rdf:resource="http://purl.org/dc/dcmitype/StillImage" />
        <dc:title />
      </cc:Work>
    </rdf:RDF>
  </metadata>
  <g
     inkscape:label="Ebene 1"
     inkscape:groupmode="layer"
     id="layer1">
    <g
       id="layer1-2"
       inkscape:label="Ebene 1"
       transform="matrix(0.76531936,0,0,1,-0.10306537,-1.1339248)">
      <g
         transform="matrix(1.3070116,0,0,1.3070116,-45.09611,-64.191141)"
         inkscape:label="Ebene 1"
         id="layer1-3">
        <path
           id="rect20"
           transform="matrix(0.26450893,0,0,0.20243381,34.606257,49.980479)"
           style="fill:#00ff00;stroke-width:1.53117323"
           d="M -4.0078125,-10.871094 V 1113.4316 H 89.154297 V -10.865234 c -5.97527,0.0048 -11.950271,0.0085 -17.925781,0.02148 -8.681591,0.0114 -17.363616,-0.0042 -26.044922,-0.02734 -15.451807,-1.06e-4 -30.903663,10e-6 -46.355469,0 -0.9453247,5e-6 -1.8906238,-1e-6 -2.8359375,0 z" />
        <rect
           style="fill:#00ff00;stroke-width:0.32289201"
           id="rect20-3"
           width="23.459608"
           height="211.68916"
           x="252.68185"
           y="-245.58952"
           transform="matrix(-0.00127548,0.99999919,-0.99994156,-0.01081121,0,0)" />
        <path
           style="fill:#00ff00;stroke-width:0.23139912"
           id="path41"
           d="m 19.276058,217.84299 c 0.917718,-0.73187 1.867974,-1.44063 2.753156,-2.19561 0.827205,-0.70553 1.565184,-1.46997 2.380921,-2.18328 1.594474,-1.39426 3.224408,-2.76592 4.908953,-4.0967 1.673505,-1.32206 7.205259,-5.435 8.540047,-6.43273 5.578069,-3.79157 7.240217,-4.99589 13.175424,-8.70519 2.578459,-1.61144 5.126091,-3.25727 7.821003,-4.75296 3.276227,-1.81831 6.718906,-3.45416 10.078357,-5.18124 3.90115,-2.11585 7.852305,-4.17872 11.703452,-6.34757 3.772431,-2.12452 7.442371,-4.35362 11.163559,-6.53043 15.23886,-8.84234 30.96244,-17.18632 46.66086,-25.54083 3.60958,-1.92098 7.10794,-3.97254 10.84497,-5.74504 4.5008,-2.13477 9.22814,-3.9762 13.84222,-5.9643 14.93791,-5.60538 29.24823,-12.10614 43.82857,-18.21912 10.36268,-4.34467 20.8499,-8.52487 31.33716,-12.69002 3.16617,-1.09591 6.29454,-2.25817 9.49852,-3.287717 3.56362,-1.145105 17.10754,-5.065491 20.87055,-6.188644 2.90643,-0.867488 5.80549,-1.749543 8.69728,-2.645217 2.31482,-0.716966 4.59269,-1.503948 6.92214,-2.192583 1.75777,-0.519633 3.55661,-0.95391 5.33491,-1.430865 1.72642,-0.310353 3.4305,-0.705536 5.17925,-0.931056 3.18428,-0.410647 9.10057,-0.732741 12.30052,-0.750456 14.70807,-0.08143 29.41691,-0.06705 44.12535,-0.04536 3.79515,0.0056 7.58821,0.138631 11.38285,0.186499 14.62243,0.0703 17.69486,0.07813 -28.70554,0.0018 -1.47014,-0.0024 2.94026,-0.01219 4.41029,-0.02589 2.1043,-0.01959 4.20797,-0.08015 6.3124,-0.08413 13.88458,-0.02627 27.76918,-0.03165 41.65376,-0.04748 2.91875,-0.02956 0.8067,-0.213887 0.79815,4.842241 0,0 -41.14891,-4.780598 -41.14891,-4.780598 v 0 c 0.22774,4.876785 2.30154,5.124715 0.0796,4.818724 12.73711,-0.01613 25.47422,-0.02549 38.21131,-0.04839 1.0643,-0.0018 -2.12856,-0.01219 -3.19286,-0.01456 -11.15514,-0.02493 4.18103,0.0199 -8.49667,0.02078 -14.48919,0.001 -28.97843,0.0062 -43.46757,-0.01875 -1.66323,-0.0029 -3.32599,-0.04301 -4.98895,-0.06451 -13.2723,-0.322836 -38.31377,-0.390797 20.99616,-0.249622 2.02995,0.0048 -4.05937,0.0623 -6.08789,0.121036 -1.91134,0.05534 -3.82802,0.07234 -5.73082,0.221161 -1.8318,0.143272 -3.63837,0.435955 -5.45759,0.653932 -2.09118,0.360301 -4.21801,0.61568 -6.27351,1.080903 -1.26187,0.285596 -16.88202,4.600521 -17.22583,4.696851 -10.12165,2.835784 -20.2309,5.732891 -29.98731,9.256101 -11.46842,4.01086 -23.01987,7.92316 -34.24992,12.31825 -14.72333,5.76224 -28.96757,12.21025 -43.54973,18.17274 -4.24579,1.9571 -8.54438,3.84862 -12.73736,5.8713 -8.73785,4.21512 -14.20305,7.32859 -22.7591,11.82018 -3.92318,2.0595 -7.91736,4.03972 -11.81604,6.12629 -9.7309,5.20796 -13.87113,7.70642 -23.29064,13.15599 -3.70459,2.18349 -7.40918,4.36698 -11.11377,6.55047 -3.50792,2.17841 -6.95032,4.42012 -10.52378,6.53524 -2.95644,1.7499 -6.103818,3.30527 -9.059438,5.05599 -6.814961,4.03674 -13.103238,8.56538 -19.249725,13.17655 -1.347942,1.21415 -2.695885,2.4283 -4.043828,3.64245 -0.971131,0.95291 -1.89669,1.93409 -2.913397,2.85875 -3.110479,2.82886 -7.090651,5.10384 -9.462159,8.39476 0,0 -40.279395,-2.18812 -40.279395,-2.18812 z"
           inkscape:connector-curvature="0" />
        <path
           style="fill:#00ff00;stroke-width:0.23139912"
           id="path43"
           d="m 51.515506,76.111002 c 0.925599,1.667619 15.887023,6.267073 16.960508,7.967175 0.389937,0.617551 0.868389,1.20393 1.202373,1.840401 0.456056,0.869092 0.755054,1.781966 1.161951,2.665237 1.045509,2.269538 1.672868,3.394362 2.861413,5.6644 0.898394,1.838761 1.969845,4.216176 3.166624,5.982025 0.345224,0.50938 3.299014,4.08502 3.756873,4.57253 39.869852,2.38092 -30.43975,10.69413 -23.984464,11.29474 26.423849,-14.39645 30.054258,-9.30289 37.533242,-12.7791 1.015714,-0.48335 3.461651,-1.79261 3.461651,-1.79261 v 0 c 0,0 7.576343,-1.3398 7.604283,-2.142074 l 38.09885,-3.007142 v 0 c -0.75545,1.771585 0.61597,-1.592622 -0.35322,1.909228 -0.10902,0.393918 -0.37813,0.751517 -0.56758,1.127166 -0.30397,0.602732 21.4284,3.604132 20.99727,4.159602 -1.2298,1.5845 -24.37026,-0.27929 -26.25968,0.83276 -0.77214,0.42734 -6.03898,3.35885 -6.7082,3.65813 -1.18877,0.53164 -2.47624,0.92297 -3.73509,1.3498 -3.83259,1.29949 -7.76063,2.47 -11.795,3.34753 -1.29214,0.33385 -19.804789,7.48111 -6.65363,0.99643 -6.53734,4.03422 -21.4385,3.12079 0,0 4.08581,5.77769 -40.198201,3.35437 -40.792171,3.35637 -0.47988,0.002 43.662001,-10.40994 32.227306,-1.09619 -79.971949,1.88274 136.499435,-37.968227 0.935185,2.55611 -47.920508,7.10926 -58.468911,-6.30489 -65.25795,-36.003354 z"
           inkscape:connector-curvature="0"
           sodipodi:nodetypes="cscscccccccccccccccscccccccc" />
        <path
           style="fill:#00ff00;stroke-width:0.23139912"
           id="path45"
           d="m 105.2403,99.383762 c 1.88392,-0.852074 3.40596,-2.120856 5.23456,-3.028679 1.04675,-0.519672 2.4112,-0.960271 3.52702,-1.391915 1.83682,-0.330813 3.36769,-1.237633 5.12459,-1.71592 0.54475,-0.148297 1.12658,-0.200164 1.6856,-0.313126 0.32006,-0.06467 21.34138,-5.156379 21.65828,-5.229579 16.08881,-1.639197 18.21591,-0.06672 18.21591,-0.370356 1.83718,6.07e-4 10.08199,0.949425 12.3302,1.558975 2.76709,0.750238 1.91216,1.539136 4.36893,2.828441 0.67574,0.415536 2.32728,3.646298 3.02243,4.037337 0.34255,0.192691 0.27006,-0.119258 0.63865,0.04286 0.18528,0.08149 -0.1265,-0.13182 0,0 1.77593,1.850581 -0.51142,0.64497 1.02112,1.366717 0.82916,0.751929 1.9993,1.261335 2.77384,2.052669 0.71869,0.734276 1.06691,1.504104 1.94969,2.137664 0.8965,0.23582 0.11729,-0.0721 0.72408,0.90689 0.2064,0.33301 0.75836,0.46971 1.03533,0.77123 0.48187,0.52456 0.62156,1.07551 0.85281,1.67633 0.8121,1.04967 1.04035,2.30213 1.74246,3.38459 0.10485,0.16166 0.37599,0.24335 0.4583,0.41248 0.0969,0.19911 0.21937,1.35737 0.24919,1.60608 0.63925,1.01185 0.39908,2.1687 1.01073,3.19244 0.1724,0.28854 0.45439,0.5309 0.69195,0.79093 0.75566,0.82713 0.33512,0.64464 1.23699,0.83523 0.14663,-0.0656 0.31953,-0.28864 0.43988,-0.1969 0.64997,0.49544 0.34251,2.16272 0.18307,2.81115 -0.034,0.13816 -0.29073,0.3511 -0.12446,0.41086 0.16292,0.0586 -20.97679,0.766 0.19735,-0.38467 0,0 1.04189,2.89006 0,0 -53.60469,22.05186 -27.90191,13.42812 -40.34132,4.52512 4.11094,5.43985 -0.57914,-2.19 -0.98351,-3.43044 -0.21602,-0.83111 1.63465,7.70973 0,0 0.93406,-0.65496 0.21469,0.36616 -3.41888,-7.93248 -0.47996,-1.09701 0.663,1.05923 0,0 -0.12098,-0.31446 -0.28522,-0.62036 -0.37116,-0.9415 -0.11922,-0.44546 -0.22825,-1.11445 -0.46289,-1.52577 -0.11226,-0.19679 -1.51524,-2.0831 -1.68072,-2.30686 -0.45333,-0.49502 -0.98921,-0.90155 -1.44634,-1.40319 -0.23663,-0.25967 -0.37801,-0.57354 -0.66362,-0.80255 -0.0584,-0.0468 -0.0859,0.11138 -0.12889,0.16708 -0.13764,-0.18317 -0.27527,-0.36633 -0.41291,-0.54949 -0.22022,-0.32068 -0.53705,-0.82076 -0.84087,-1.09731 -1.08361,-0.98636 -2.5907,-1.70127 -3.73978,-2.639265 -0.24668,-0.244479 -0.49337,-0.488958 -0.74005,-0.733438 -0.10792,0.09477 -0.16335,0.311331 -0.32376,0.284304 -0.23392,-0.03941 -0.2735,-0.310126 -0.46752,-0.417617 -0.2269,-0.125711 -0.51066,-0.17635 -0.76543,-0.265465 -1.54534,-0.540529 -0.71756,-0.289883 -2.27594,-0.702686 -1.3332,-0.02684 -0.57557,0.02685 -2.26109,-0.239196 -0.45748,-0.0185 -0.90961,0.08799 -1.36684,0.109889 -0.31886,0.01526 -1.27795,0.0014 -0.95846,0.0014 40.27275,-0.0039 53.18615,0.278624 38.95747,-0.02524 -15.99937,0.03554 -32.04896,0.78934 -47.99837,-0.166197 13.20311,-0.02117 26.4064,-0.0057 39.60932,-0.06352 0.40928,-0.0018 -0.81094,-0.105144 -1.22023,-0.104573 -0.56456,8.09e-4 -1.12355,0.09267 -1.68773,0.108634 -0.56947,0.01611 -1.15187,-0.102416 -1.70949,-0.01251 -1.06416,0.171573 -2.23941,0.847368 -3.11891,1.28724 -0.40135,0.08356 -0.81407,0.139973 -1.20404,0.250672 -0.81439,0.231182 -1.53596,0.629636 -2.34958,0.862407 -0.4886,0.139782 -1.02447,0.173028 -1.50467,0.328921 -1.87282,0.60798 -2.3123,0.99885 -3.94856,1.95911 l -40.42407,-2.717244 z"
           inkscape:connector-curvature="0"
           sodipodi:nodetypes="cccccccccccccccccccscccccccccccccccscscccccccccccccccccccccccccc" />
        <path
           id="path47"
           transform="matrix(0.26450893,0,0,0.20243381,34.606257,49.980479)"
           style="fill:#00ff00;stroke-width:1"
           d="m 641.65131,422.63926 -113.54584,73.43063 c 171.63791,175.46 -25.48723,-37.83819 30.25781,26.00628 7.38645,8.45965 15.00746,16.71213 22.58399,25.00195 12.03093,13.16357 28.94036,31.7516 42.2832,44.14844 6.14452,5.70888 12.76664,10.88027 19.15039,16.32032 6.83553,4.83753 13.42402,10.0425 20.50586,14.51171 7.90741,4.99018 16.20237,9.34392 24.40625,13.83008 50.19392,27.44774 7.28211,3.03177 65.78906,33.91016 125.8524,66.42157 -20.17176,-8.91167 59.97656,32.24609 0.034,-4.44654 0.12488,-8.89389 0.14649,-13.33398 -0.002,-7.7038 -0.022,-15.40759 -0.0293,-23.11133 -2.4027,-8.83788 -2.65768,-16.50956 -2.1875,-26.13477 0.22567,-3.10695 0.29405,-6.21601 0.28711,-9.32617 -0.0384,-0.69803 -0.0858,-1.39564 -0.12305,-2.09375 -10e-6,-1.71552 10e-6,-3.43096 0,-5.14648 -0.006,-0.21227 -0.01,-0.42446 -0.0156,-0.63672 -0.0151,-3.44391 0.008,-6.88806 0.0156,-10.33203 v -1.29297 c -1.51763,-0.85068 -3.0289,-1.71296 -4.52148,-2.60742 -7.05882,-4.23013 -13.77055,-9.01312 -20.65625,-13.51953 C 767.9235,581.4653 759.80168,576.48132 743.26953,560.64844 717.91818,536.36944 658.51668,453.35582 641.65131,422.63926 Z m 380.49909,309.21035 c 1.4312,2.00917 2.407,3.1467 3.7617,3.79492 0.08,-0.97406 0.117,-1.408 0.1953,-2.32031 -1.3212,-0.48548 -2.6381,-0.98294 -3.957,-1.47461 z"
           inkscape:connector-curvature="0"
           sodipodi:nodetypes="ccsssccsscccccccccccccccccc" />
      </g>
    </g>
  </g>
</svg>
