<?xml version="1.0" ?><svg contentScriptType="text/ecmascript" contentStyleType="text/css" enable-background="new 0 0 2048 2048" height="2048px" id="Layer_1" preserveAspectRatio="xMidYMid meet" version="1.1" viewBox="0.0 0 1536.0 2048" width="1536.0px" xml:space="preserve" xmlns="http://www.w3.org/2000/svg" xmlns:xlink="http://www.w3.org/1999/xlink" zoomAndPan="magnify"><path d="M384,1664h768v-384H384V1664z M1280,1664h128V768c0-9.333-3.333-22.167-10-38.5s-13.333-27.833-20-34.5l-281-281  c-6.667-6.667-18-13.333-34-20s-29-10-39-10v416c0,26.667-9.333,49.333-28,68s-41.333,28-68,28H352c-26.667,0-49.333-9.333-68-28  s-28-41.333-28-68V384H128v1280h128v-416c0-26.667,9.333-49.333,28-68s41.333-28,68-28h832c26.667,0,49.333,9.333,68,28  s28,41.333,28,68V1664z M896,736V416c0-8.667-3.167-16.167-9.5-22.5S872.667,384,864,384H672c-8.667,0-16.167,3.167-22.5,9.5  S640,407.333,640,416v320c0,8.667,3.167,16.167,9.5,22.5s13.833,9.5,22.5,9.5h192c8.667,0,16.167-3.167,22.5-9.5  S896,744.667,896,736z M1536,768v928c0,26.667-9.333,49.333-28,68s-41.333,28-68,28H96c-26.667,0-49.333-9.333-68-28  s-28-41.333-28-68V352c0-26.667,9.333-49.333,28-68s41.333-28,68-28h928c26.667,0,56,6.667,88,20s57.333,29.333,76,48l280,280  c18.667,18.667,34.667,44,48,76S1536,741.333,1536,768z"/></svg>