<?xml version="1.0" encoding="UTF-8" standalone="no"?>
<svg
   xmlns:dc="http://purl.org/dc/elements/1.1/"
   xmlns:cc="http://creativecommons.org/ns#"
   xmlns:rdf="http://www.w3.org/1999/02/22-rdf-syntax-ns#"
   xmlns:svg="http://www.w3.org/2000/svg"
   xmlns="http://www.w3.org/2000/svg"
   xmlns:sodipodi="http://sodipodi.sourceforge.net/DTD/sodipodi-0.dtd"
   xmlns:inkscape="http://www.inkscape.org/namespaces/inkscape"
   contentScriptType="text/ecmascript"
   contentStyleType="text/css"
   enable-background="new 0 0 2048 2048"
   height="2048px"
   id="Layer_1"
   preserveAspectRatio="xMidYMid meet"
   version="1.1"
   viewBox="0.0 0 1536.0 2048"
   width="1536.0px"
   xml:space="preserve"
   zoomAndPan="magnify"
   inkscape:version="0.91 r13725"
   sodipodi:docname="document-save.svg"><metadata
     id="metadata9"><rdf:RDF><cc:Work
         rdf:about=""><dc:format>image/svg+xml</dc:format><dc:type
           rdf:resource="http://purl.org/dc/dcmitype/StillImage" /></cc:Work></rdf:RDF></metadata><defs
     id="defs7" /><sodipodi:namedview
     pagecolor="#ffffff"
     bordercolor="#666666"
     borderopacity="1"
     objecttolerance="10"
     gridtolerance="10"
     guidetolerance="10"
     inkscape:pageopacity="0"
     inkscape:pageshadow="2"
     inkscape:window-width="690"
     inkscape:window-height="480"
     id="namedview5"
     showgrid="false"
     inkscape:zoom="0.11523438"
     inkscape:cx="768"
     inkscape:cy="1024"
     inkscape:window-x="0"
     inkscape:window-y="0"
     inkscape:window-maximized="0"
     inkscape:current-layer="Layer_1" /><path
     d="M384,1664h768v-384H384V1664z M1280,1664h128V768c0-9.333-3.333-22.167-10-38.5s-13.333-27.833-20-34.5l-281-281  c-6.667-6.667-18-13.333-34-20s-29-10-39-10v416c0,26.667-9.333,49.333-28,68s-41.333,28-68,28H352c-26.667,0-49.333-9.333-68-28  s-28-41.333-28-68V384H128v1280h128v-416c0-26.667,9.333-49.333,28-68s41.333-28,68-28h832c26.667,0,49.333,9.333,68,28  s28,41.333,28,68V1664z M896,736V416c0-8.667-3.167-16.167-9.5-22.5S872.667,384,864,384H672c-8.667,0-16.167,3.167-22.5,9.5  S640,407.333,640,416v320c0,8.667,3.167,16.167,9.5,22.5s13.833,9.5,22.5,9.5h192c8.667,0,16.167-3.167,22.5-9.5  S896,744.667,896,736z M1536,768v928c0,26.667-9.333,49.333-28,68s-41.333,28-68,28H96c-26.667,0-49.333-9.333-68-28  s-28-41.333-28-68V352c0-26.667,9.333-49.333,28-68s41.333-28,68-28h928c26.667,0,56,6.667,88,20s57.333,29.333,76,48l280,280  c18.667,18.667,34.667,44,48,76S1536,741.333,1536,768z"
     id="path3"
     style="fill:#00ff00;fill-opacity:1" /></svg>