<?xml version="1.0" encoding="UTF-8" standalone="no"?>
<svg
   xmlns:dc="http://purl.org/dc/elements/1.1/"
   xmlns:cc="http://creativecommons.org/ns#"
   xmlns:rdf="http://www.w3.org/1999/02/22-rdf-syntax-ns#"
   xmlns:svg="http://www.w3.org/2000/svg"
   xmlns="http://www.w3.org/2000/svg"
   xmlns:sodipodi="http://sodipodi.sourceforge.net/DTD/sodipodi-0.dtd"
   xmlns:inkscape="http://www.inkscape.org/namespaces/inkscape"
   contentScriptType="text/ecmascript"
   contentStyleType="text/css"
   enable-background="new 0 0 2048 2048"
   height="2048px"
   id="Layer_1"
   preserveAspectRatio="xMidYMid meet"
   version="1.1"
   viewBox="0.0 0 1909.0 2048"
   width="1909.0px"
   xml:space="preserve"
   zoomAndPan="magnify"
   inkscape:version="0.91 r13725"
   sodipodi:docname="document-open.svg"><metadata
     id="metadata9"><rdf:RDF><cc:Work
         rdf:about=""><dc:format>image/svg+xml</dc:format><dc:type
           rdf:resource="http://purl.org/dc/dcmitype/StillImage" /></cc:Work></rdf:RDF></metadata><defs
     id="defs7" /><sodipodi:namedview
     pagecolor="#ffffff"
     bordercolor="#666666"
     borderopacity="1"
     objecttolerance="10"
     gridtolerance="10"
     guidetolerance="10"
     inkscape:pageopacity="0"
     inkscape:pageshadow="2"
     inkscape:window-width="690"
     inkscape:window-height="480"
     id="namedview5"
     showgrid="false"
     inkscape:zoom="0.11523438"
     inkscape:cx="954.5"
     inkscape:cy="1024"
     inkscape:window-x="0"
     inkscape:window-y="0"
     inkscape:window-maximized="0"
     inkscape:current-layer="Layer_1" /><path
     d="M1781,1059c0-23.333-17.667-35-53-35H640c-26.667,0-55.167,7.167-85.5,21.5s-54.167,31.833-71.5,52.5l-294,363  c-12,16-18,29.333-18,40c0,23.333,17.667,35,53,35h1088c26.667,0,55.333-7.333,86-22s54.333-32.333,71-53l294-363  C1775,1083.333,1781,1070.333,1781,1059z M640,896h768V736c0-26.667-9.333-49.333-28-68s-41.333-28-68-28H736  c-26.667,0-49.333-9.333-68-28s-28-41.333-28-68v-64c0-26.667-9.333-49.333-28-68s-41.333-28-68-28H224  c-26.667,0-49.333,9.333-68,28s-28,41.333-28,68v853l256-315c29.333-35.333,68-64.5,116-87.5S594.667,896,640,896z M1909,1059  c0,41.333-15.333,81.333-46,120l-295,363c-28.667,35.333-67.333,64.5-116,87.5s-95.333,34.5-140,34.5H224c-61.333,0-114-22-158-66  s-66-96.667-66-158V480c0-61.333,22-114,66-158s96.667-66,158-66h320c61.333,0,114,22,158,66s66,96.667,66,158v32h544  c61.333,0,114,22,158,66s66,96.667,66,158v160h192c36,0,69,8.167,99,24.5s52.333,39.833,67,70.5C1904,1012.333,1909,1035,1909,1059z  "
     id="path3"
     style="fill:#00ff00;fill-opacity:1" /></svg>