<?xml version="1.0" encoding="UTF-8" standalone="no"?>
<svg
   xmlns:dc="http://purl.org/dc/elements/1.1/"
   xmlns:cc="http://creativecommons.org/ns#"
   xmlns:rdf="http://www.w3.org/1999/02/22-rdf-syntax-ns#"
   xmlns:svg="http://www.w3.org/2000/svg"
   xmlns="http://www.w3.org/2000/svg"
   xmlns:sodipodi="http://sodipodi.sourceforge.net/DTD/sodipodi-0.dtd"
   xmlns:inkscape="http://www.inkscape.org/namespaces/inkscape"
   contentScriptType="text/ecmascript"
   contentStyleType="text/css"
   enable-background="new 0 0 2048 2048"
   height="2048px"
   id="Layer_1"
   preserveAspectRatio="xMidYMid meet"
   version="1.1"
   viewBox="0.0 0 1536.0 2048"
   width="1536.0px"
   xml:space="preserve"
   zoomAndPan="magnify"
   inkscape:version="0.48.4 r9939"
   sodipodi:docname="edit-redo.svg"><metadata
     id="metadata9"><rdf:RDF><cc:Work
         rdf:about=""><dc:format>image/svg+xml</dc:format><dc:type
           rdf:resource="http://purl.org/dc/dcmitype/StillImage" /><dc:title></dc:title></cc:Work></rdf:RDF></metadata><defs
     id="defs7" /><sodipodi:namedview
     pagecolor="#ffffff"
     bordercolor="#666666"
     borderopacity="1"
     objecttolerance="10"
     gridtolerance="10"
     guidetolerance="10"
     inkscape:pageopacity="0"
     inkscape:pageshadow="2"
     inkscape:window-width="640"
     inkscape:window-height="480"
     id="namedview5"
     showgrid="false"
     inkscape:zoom="0.11523438"
     inkscape:cx="768"
     inkscape:cy="1024"
     inkscape:window-x="0"
     inkscape:window-y="0"
     inkscape:window-maximized="0"
     inkscape:current-layer="Layer_1" /><path
     d="m 0,384 v 448 c 0,17.333 6.333,32.333 19,45 12.667,12.667 27.667,19 45,19 h 448 c 28,0 47.667,-13.333 59,-40 11.333,-26 6.667,-49 -14,-69 L 419,649 c 98.667,-91.333 215,-137 349,-137 69.333,0 135.5,13.5 198.5,40.5 63,27 117.5,63.5 163.5,109.5 46,46 82.5,100.5 109.5,163.5 27,63 40.5,129.167 40.5,198.5 0,69.333 -13.5,135.5 -40.5,198.5 -27,63 -63.5,117.5 -109.5,163.5 -46,46 -100.5,82.5 -163.5,109.5 -63,27 -129.167,40.5 -198.5,40.5 -79.333,0 -154.333,-17.333 -225,-52 -70.667,-34.667 -130.333,-83.667 -179,-147 -4.667,-6.667 -12.333,-10.667 -23,-12 -9.333,0 -17.667,3 -25,9 l -137,138 c -6,5.333 -9.167,12.167 -9.5,20.5 -0.333,8.333 2.167,15.833 7.5,22.5 72.667,88 160.667,156.167 264,204.5 103.333,48.333 212.333,72.5 327,72.5 104,0 203.333,-20.333 298,-61 94.667,-40.667 176.333,-95.333 245,-164 68.667,-68.667 123.333,-150.333 164,-245 40.667,-94.667 61,-194 61,-298 0,-104 -20.333,-203.333 -61,-298 C 1434.333,631.333 1379.667,549.667 1311,481 1242.333,412.333 1160.667,357.667 1066,317 971.333,276.333 872,256 768,256 670,256 575.167,274.5 483.5,311.5 391.833,348.5 310.333,400.667 239,468 L 109,339 C 89.667,318.333 66.333,313.667 39,325 13,336.333 0,356 0,384 z"
     id="path3"
     inkscape:connector-curvature="0" /></svg>