<?xml version="1.0" encoding="UTF-8" standalone="no"?>
<svg
   xmlns:dc="http://purl.org/dc/elements/1.1/"
   xmlns:cc="http://creativecommons.org/ns#"
   xmlns:rdf="http://www.w3.org/1999/02/22-rdf-syntax-ns#"
   xmlns:svg="http://www.w3.org/2000/svg"
   xmlns="http://www.w3.org/2000/svg"
   xmlns:sodipodi="http://sodipodi.sourceforge.net/DTD/sodipodi-0.dtd"
   xmlns:inkscape="http://www.inkscape.org/namespaces/inkscape"
   contentScriptType="text/ecmascript"
   contentStyleType="text/css"
   enable-background="new 0 0 2048 2048"
   height="2048px"
   id="Layer_1"
   preserveAspectRatio="xMidYMid meet"
   version="1.1"
   viewBox="0.0 0 1408.0 2048"
   width="1408.0px"
   xml:space="preserve"
   zoomAndPan="magnify"
   inkscape:version="0.91 r13725"
   sodipodi:docname="edit-delete.svg"><metadata
     id="metadata9"><rdf:RDF><cc:Work
         rdf:about=""><dc:format>image/svg+xml</dc:format><dc:type
           rdf:resource="http://purl.org/dc/dcmitype/StillImage" /></cc:Work></rdf:RDF></metadata><defs
     id="defs7" /><sodipodi:namedview
     pagecolor="#ffffff"
     bordercolor="#666666"
     borderopacity="1"
     objecttolerance="10"
     gridtolerance="10"
     guidetolerance="10"
     inkscape:pageopacity="0"
     inkscape:pageshadow="2"
     inkscape:window-width="690"
     inkscape:window-height="480"
     id="namedview5"
     showgrid="false"
     inkscape:zoom="0.11523438"
     inkscape:cx="704"
     inkscape:cy="1024"
     inkscape:window-x="0"
     inkscape:window-y="0"
     inkscape:window-maximized="0"
     inkscape:current-layer="Layer_1" /><path
     d="M512,864v576c0,9.333-3,17-9,23s-13.667,9-23,9h-64c-9.333,0-17-3-23-9s-9-13.667-9-23V864c0-9.333,3-17,9-23s13.667-9,23-9  h64c9.333,0,17,3,23,9S512,854.667,512,864z M768,864v576c0,9.333-3,17-9,23s-13.667,9-23,9h-64c-9.333,0-17-3-23-9s-9-13.667-9-23  V864c0-9.333,3-17,9-23s13.667-9,23-9h64c9.333,0,17,3,23,9S768,854.667,768,864z M1024,864v576c0,9.333-3,17-9,23s-13.667,9-23,9  h-64c-9.333,0-17-3-23-9s-9-13.667-9-23V864c0-9.333,3-17,9-23s13.667-9,23-9h64c9.333,0,17,3,23,9S1024,854.667,1024,864z   M1152,1588V640H256v948c0,14.667,2.333,28.167,7,40.5s9.5,21.333,14.5,27s8.5,8.5,10.5,8.5h832c2,0,5.5-2.833,10.5-8.5  s9.833-14.667,14.5-27S1152,1602.667,1152,1588z M480,512h448l-48-117c-4.667-6-10.333-9.667-17-11H546c-6.667,1.333-12.333,5-17,11  L480,512z M1408,544v64c0,9.333-3,17-9,23s-13.667,9-23,9h-96v948c0,55.333-15.667,103.167-47,143.5s-69,60.5-113,60.5H288  c-44,0-81.667-19.5-113-58.5s-47-86.167-47-141.5V640H32c-9.333,0-17-3-23-9s-9-13.667-9-23v-64c0-9.333,3-17,9-23s13.667-9,23-9  h309l70-167c10-24.667,28-45.667,54-63s52.333-26,79-26h320c26.667,0,53,8.667,79,26s44,38.333,54,63l70,167h309c9.333,0,17,3,23,9  S1408,534.667,1408,544z"
     id="path3"
     style="fill:#00ff00;fill-opacity:1" /></svg>