<?xml version="1.0" ?><svg contentScriptType="text/ecmascript" contentStyleType="text/css" enable-background="new 0 0 2048 2048" height="2048px" id="Layer_1" preserveAspectRatio="xMidYMid meet" version="1.1" viewBox="0.0 0 1536.0 2048" width="1536.0px" xml:space="preserve" xmlns="http://www.w3.org/2000/svg" xmlns:xlink="http://www.w3.org/1999/xlink" zoomAndPan="magnify"><path d="M1536,384v448c0,17.333-6.333,32.333-19,45s-27.667,19-45,19h-448c-28,0-47.667-13.333-59-40c-11.333-26-6.667-49,14-69  l138-138c-98.667-91.333-215-137-349-137c-69.333,0-135.5,13.5-198.5,40.5S452,616,406,662s-82.5,100.5-109.5,163.5  S256,954.667,256,1024s13.5,135.5,40.5,198.5S360,1340,406,1386s100.5,82.5,163.5,109.5S698.667,1536,768,1536  c79.333,0,154.333-17.333,225-52s130.333-83.667,179-147c4.667-6.667,12.333-10.667,23-12c9.333,0,17.667,3,25,9l137,138  c6,5.333,9.167,12.167,9.5,20.5s-2.167,15.833-7.5,22.5c-72.667,88-160.667,156.167-264,204.5S882.667,1792,768,1792  c-104,0-203.333-20.333-298-61s-176.333-95.333-245-164s-123.333-150.333-164-245S0,1128,0,1024s20.333-203.333,61-298  s95.333-176.333,164-245s150.333-123.333,245-164s194-61,298-61c98,0,192.833,18.5,284.5,55.5S1225.667,400.667,1297,468l130-129  c19.333-20.667,42.667-25.333,70-14C1523,336.333,1536,356,1536,384z"/></svg>