<?xml version="1.0" encoding="UTF-8" standalone="no"?>
<svg
   xmlns:dc="http://purl.org/dc/elements/1.1/"
   xmlns:cc="http://creativecommons.org/ns#"
   xmlns:rdf="http://www.w3.org/1999/02/22-rdf-syntax-ns#"
   xmlns:svg="http://www.w3.org/2000/svg"
   xmlns="http://www.w3.org/2000/svg"
   xmlns:sodipodi="http://sodipodi.sourceforge.net/DTD/sodipodi-0.dtd"
   xmlns:inkscape="http://www.inkscape.org/namespaces/inkscape"
   contentScriptType="text/ecmascript"
   contentStyleType="text/css"
   enable-background="new 0 0 2048 2048"
   height="2048px"
   id="Layer_1"
   preserveAspectRatio="xMidYMid meet"
   version="1.1"
   viewBox="0.0 0 1536.0 2048"
   width="1536.0px"
   xml:space="preserve"
   zoomAndPan="magnify"
   inkscape:version="0.91 r13725"
   sodipodi:docname="edit-redo.svg"><metadata
     id="metadata9"><rdf:RDF><cc:Work
         rdf:about=""><dc:format>image/svg+xml</dc:format><dc:type
           rdf:resource="http://purl.org/dc/dcmitype/StillImage" /></cc:Work></rdf:RDF></metadata><defs
     id="defs7" /><sodipodi:namedview
     pagecolor="#ffffff"
     bordercolor="#666666"
     borderopacity="1"
     objecttolerance="10"
     gridtolerance="10"
     guidetolerance="10"
     inkscape:pageopacity="0"
     inkscape:pageshadow="2"
     inkscape:window-width="690"
     inkscape:window-height="480"
     id="namedview5"
     showgrid="false"
     inkscape:zoom="0.11523438"
     inkscape:cx="768"
     inkscape:cy="1024"
     inkscape:window-x="0"
     inkscape:window-y="0"
     inkscape:window-maximized="0"
     inkscape:current-layer="Layer_1" /><path
     d="M1536,384v448c0,17.333-6.333,32.333-19,45s-27.667,19-45,19h-448c-28,0-47.667-13.333-59-40c-11.333-26-6.667-49,14-69  l138-138c-98.667-91.333-215-137-349-137c-69.333,0-135.5,13.5-198.5,40.5S452,616,406,662s-82.5,100.5-109.5,163.5  S256,954.667,256,1024s13.5,135.5,40.5,198.5S360,1340,406,1386s100.5,82.5,163.5,109.5S698.667,1536,768,1536  c79.333,0,154.333-17.333,225-52s130.333-83.667,179-147c4.667-6.667,12.333-10.667,23-12c9.333,0,17.667,3,25,9l137,138  c6,5.333,9.167,12.167,9.5,20.5s-2.167,15.833-7.5,22.5c-72.667,88-160.667,156.167-264,204.5S882.667,1792,768,1792  c-104,0-203.333-20.333-298-61s-176.333-95.333-245-164s-123.333-150.333-164-245S0,1128,0,1024s20.333-203.333,61-298  s95.333-176.333,164-245s150.333-123.333,245-164s194-61,298-61c98,0,192.833,18.5,284.5,55.5S1225.667,400.667,1297,468l130-129  c19.333-20.667,42.667-25.333,70-14C1523,336.333,1536,356,1536,384z"
     id="path3"
     style="fill:#00ff00;fill-opacity:1" /></svg>