<?xml version="1.0" encoding="UTF-8" standalone="no"?>
<!-- Created with Inkscape (http://www.inkscape.org/) -->

<svg
   xmlns:dc="http://purl.org/dc/elements/1.1/"
   xmlns:cc="http://creativecommons.org/ns#"
   xmlns:rdf="http://www.w3.org/1999/02/22-rdf-syntax-ns#"
   xmlns:svg="http://www.w3.org/2000/svg"
   xmlns="http://www.w3.org/2000/svg"
   xmlns:sodipodi="http://sodipodi.sourceforge.net/DTD/sodipodi-0.dtd"
   xmlns:inkscape="http://www.inkscape.org/namespaces/inkscape"
   width="64px"
   height="64px"
   id="svg2985"
   version="1.1"
   inkscape:version="0.91 r13725"
   sodipodi:docname="view-list-icons.svg">
  <defs
     id="defs2987" />
  <sodipodi:namedview
     id="base"
     pagecolor="#ffffff"
     bordercolor="#666666"
     borderopacity="1.0"
     inkscape:pageopacity="0.0"
     inkscape:pageshadow="2"
     inkscape:zoom="5.5"
     inkscape:cx="32"
     inkscape:cy="32"
     inkscape:current-layer="layer1"
     showgrid="true"
     inkscape:document-units="px"
     inkscape:grid-bbox="true"
     inkscape:window-width="690"
     inkscape:window-height="607"
     inkscape:window-x="161"
     inkscape:window-y="117"
     inkscape:window-maximized="0" />
  <metadata
     id="metadata2990">
    <rdf:RDF>
      <cc:Work
         rdf:about="">
        <dc:format>image/svg+xml</dc:format>
        <dc:type
           rdf:resource="http://purl.org/dc/dcmitype/StillImage" />
        <dc:title />
      </cc:Work>
    </rdf:RDF>
  </metadata>
  <g
     id="layer1"
     inkscape:label="Layer 1"
     inkscape:groupmode="layer">
    <g
       transform="scale(1,-1)"
       style="font-style:normal;font-variant:normal;font-weight:normal;font-stretch:normal;font-size:60.38721085px;line-height:125%;font-family:FontAwesome;-inkscape-font-specification:FontAwesome;letter-spacing:0px;word-spacing:0px;fill:#00ff00;fill-opacity:1;stroke:none"
       id="text2993">
      <path
         d="m 10.037878,-14.705927 c 0,-0.57287 -0.5054736,-1.078343 -1.0783434,-1.078343 l -6.4700583,0 c -0.5728697,0 -1.078343,0.505473 -1.078343,1.078343 l 0,6.4700579 c 0,0.5728698 0.5054733,1.0783431 1.078343,1.0783431 l 6.4700583,0 c 0.5728698,0 1.0783434,-0.5054733 1.0783434,-1.0783431 l 0,-6.4700579 z m 0,-12.940117 c 0,-0.57287 -0.5054736,-1.078343 -1.0783434,-1.078343 l -6.4700583,0 c -0.5728697,0 -1.078343,0.505473 -1.078343,1.078343 l 0,6.470058 c 0,0.57287 0.5054733,1.078343 1.078343,1.078343 l 6.4700583,0 c 0.5728698,0 1.0783434,-0.505473 1.0783434,-1.078343 l 0,-6.470058 z m 0,-12.940117 c 0,-0.572869 -0.5054736,-1.078343 -1.0783434,-1.078343 l -6.4700583,0 c -0.5728697,0 -1.078343,0.505474 -1.078343,1.078343 l 0,6.470059 c 0,0.572869 0.5054733,1.078343 1.078343,1.078343 l 6.4700583,0 c 0.5728698,0 1.0783434,-0.505474 1.0783434,-1.078343 l 0,-6.470059 z m 51.760466,25.880234 c 0,-0.57287 -0.505473,-1.078343 -1.078343,-1.078343 l -45.290408,0 c -0.57287,0 -1.078343,0.505473 -1.078343,1.078343 l 0,6.4700579 c 0,0.5728698 0.505473,1.0783431 1.078343,1.0783431 l 45.290408,0 c 0.57287,0 1.078343,-0.5054733 1.078343,-1.0783431 l 0,-6.4700579 z m -51.760466,-38.82035 c 0,-0.57287 -0.5054736,-1.078343 -1.0783434,-1.078343 l -6.4700583,0 c -0.5728697,0 -1.078343,0.505473 -1.078343,1.078343 l 0,6.470058 c 0,0.57287 0.5054733,1.078343 1.078343,1.078343 l 6.4700583,0 c 0.5728698,0 1.0783434,-0.505473 1.0783434,-1.078343 l 0,-6.470058 z m 51.760466,25.880233 c 0,-0.57287 -0.505473,-1.078343 -1.078343,-1.078343 l -45.290408,0 c -0.57287,0 -1.078343,0.505473 -1.078343,1.078343 l 0,6.470058 c 0,0.57287 0.505473,1.078343 1.078343,1.078343 l 45.290408,0 c 0.57287,0 1.078343,-0.505473 1.078343,-1.078343 l 0,-6.470058 z m 0,-12.940117 c 0,-0.572869 -0.505473,-1.078343 -1.078343,-1.078343 l -45.290408,0 c -0.57287,0 -1.078343,0.505474 -1.078343,1.078343 l 0,6.470059 c 0,0.572869 0.505473,1.078343 1.078343,1.078343 l 45.290408,0 c 0.57287,0 1.078343,-0.505474 1.078343,-1.078343 l 0,-6.470059 z m 0,-12.940116 c 0,-0.57287 -0.505473,-1.078343 -1.078343,-1.078343 l -45.290408,0 c -0.57287,0 -1.078343,0.505473 -1.078343,1.078343 l 0,6.470058 c 0,0.57287 0.505473,1.078343 1.078343,1.078343 l 45.290408,0 c 0.57287,0 1.078343,-0.505473 1.078343,-1.078343 l 0,-6.470058 z"
         style="fill:#00ff00;fill-opacity:1"
         id="path11834" />
    </g>
  </g>
</svg>
