<?xml version="1.0" encoding="utf-8"?>
<!-- Generator: Adobe Illustrator 19.2.0, SVG Export Plug-In . SVG Version: 6.00 Build 0)  -->
<svg version="1.1"
	 id="svg2913" inkscape:output_extension="org.inkscape.output.svg.inkscape" inkscape:version="0.46" sodipodi:docbase="/home/jimmac/src/cvs/tango-icon-theme/scalable/actions" sodipodi:docname="document-save.svg" sodipodi:version="0.32" xmlns:cc="http://creativecommons.org/ns#" xmlns:dc="http://purl.org/dc/elements/1.1/" xmlns:inkscape="http://www.inkscape.org/namespaces/inkscape" xmlns:rdf="http://www.w3.org/1999/02/22-rdf-syntax-ns#" xmlns:sodipodi="http://sodipodi.sourceforge.net/DTD/sodipodi-0.dtd" xmlns:svg="http://www.w3.org/2000/svg"
	 xmlns="http://www.w3.org/2000/svg" xmlns:xlink="http://www.w3.org/1999/xlink" x="0px" y="0px" viewBox="0 0 48 48"
	 style="enable-background:new 0 0 48 48;" xml:space="preserve">
<style type="text/css">
	.st0{fill:#ADB1B6;}
</style>
<defs>
	
	
		<inkscape:perspective  id="perspective104" inkscape:persp3d-origin="24 : 16 : 1" inkscape:vp_x="0 : 24 : 1" inkscape:vp_y="0 : 1000 : 0" inkscape:vp_z="48 : 24 : 1" sodipodi:type="inkscape:persp3d">
		</inkscape:perspective>
</defs>
<sodipodi:namedview  bordercolor="#666666" borderopacity="0.22745098" fill="#3465a4" id="base" inkscape:current-layer="layer2" inkscape:cx="-133.68151" inkscape:cy="11.891468" inkscape:document-units="px" inkscape:grid-bbox="true" inkscape:pageopacity="0.0" inkscape:pageshadow="2" inkscape:showpageshadow="false" inkscape:window-height="818" inkscape:window-width="999" inkscape:window-x="0" inkscape:window-y="30" inkscape:zoom="1" pagecolor="#ffffff" showgrid="false" stroke="#204a87">
	</sodipodi:namedview>
<g>
	<path class="st0" d="M26.2,14.5V6.7c0-0.2-0.1-0.4-0.3-0.5c-0.2-0.2-0.3-0.3-0.5-0.3h-4.6c-0.2,0-0.4,0.1-0.5,0.3
		C20.1,6.3,20,6.5,20,6.7v7.8c0,0.2,0.1,0.4,0.3,0.5c0.2,0.2,0.3,0.3,0.5,0.3h4.6c0.2,0,0.4-0.1,0.5-0.3
		C26.2,14.9,26.2,14.7,26.2,14.5z"/>
	<path class="st0" d="M42.6,16.2c-0.3-0.8-0.7-1.4-1.1-1.8l-6.8-6.8c-0.4-0.4-1-0.9-1.8-1.1s-1.5-0.5-2.2-0.5h-1.1V16
		c0,0.6-0.3,1.2-0.7,1.7s-1,0.7-1.7,0.7h-14c-0.6,0-1.2-0.3-1.7-0.7c-0.4-0.4-0.7-1-0.7-1.7V5.9H8.1c-0.7,0-1.2,0.3-1.7,0.7
		s-0.7,1-0.7,1.7v32.7c0,0.6,0.3,1.2,0.7,1.7s1,0.7,1.7,0.7h2.7V33.2c0-0.6,0.3-1.2,0.7-1.7s1-0.7,1.7-0.7h20.3
		c0.6,0,1.2,0.3,1.7,0.7c0.4,0.4,0.7,1,0.7,1.7v10.1h5.1c0.6,0,1.2-0.3,1.7-0.7c0.4-0.4,0.7-1,0.7-1.7V18.4
		C43.1,17.7,42.9,17,42.6,16.2z"/>
</g>
</svg>
