<?xml version="1.0" encoding="utf-8"?>
<!-- Generator: Adobe Illustrator 19.2.0, SVG Export Plug-In . SVG Version: 6.00 Build 0)  -->
<svg version="1.1"
	 id="svg97" inkscape:export-filename="/home/jimmac/ximian_art/icons/nautilus/snowdunes/gnome-fs-directory-accept.png" inkscape:export-xdpi="90.000000" inkscape:export-ydpi="90.000000" inkscape:output_extension="org.inkscape.output.svg.inkscape" inkscape:version="0.46" sodipodi:docbase="/home/jimmac/src/cvs/tango-icon-theme/scalable/actions" sodipodi:docname="document-open.svg" sodipodi:version="0.32" xmlns:cc="http://creativecommons.org/ns#" xmlns:dc="http://purl.org/dc/elements/1.1/" xmlns:inkscape="http://www.inkscape.org/namespaces/inkscape" xmlns:rdf="http://www.w3.org/1999/02/22-rdf-syntax-ns#" xmlns:sodipodi="http://sodipodi.sourceforge.net/DTD/sodipodi-0.dtd" xmlns:svg="http://www.w3.org/2000/svg"
	 xmlns="http://www.w3.org/2000/svg" xmlns:xlink="http://www.w3.org/1999/xlink" x="0px" y="0px" viewBox="0 0 48 48"
	 style="enable-background:new 0 0 48 48;" xml:space="preserve">
<style type="text/css">
	.st0{fill:#ADB1B6;}
</style>
<defs>
	
	
		<inkscape:perspective  id="perspective90" inkscape:persp3d-origin="24 : 16 : 1" inkscape:vp_x="0 : 24 : 1" inkscape:vp_y="0 : 1000 : 0" inkscape:vp_z="48 : 24 : 1" sodipodi:type="inkscape:persp3d">
		</inkscape:perspective>
</defs>
<sodipodi:namedview  bordercolor="#666666" borderopacity="1.0" id="base" inkscape:current-layer="layer3" inkscape:cx="-123.73861" inkscape:cy="37.388301" inkscape:document-units="px" inkscape:grid-bbox="true" inkscape:pageopacity="0.0" inkscape:pageshadow="2" inkscape:showpageshadow="false" inkscape:window-height="818" inkscape:window-width="1027" inkscape:window-x="407" inkscape:window-y="30" inkscape:zoom="1" pagecolor="#ffffff" showgrid="false">
	</sodipodi:namedview>
<g id="layer1" inkscape:groupmode="layer" inkscape:label="Folder">
</g>
<g id="layer2" inkscape:groupmode="layer" inkscape:label="pattern">
</g>
<path class="st0" d="M47,26.9c0,0.5-0.2,1-0.7,1.6l-7.9,9.3c-0.7,0.8-1.6,1.5-2.8,2c-1.2,0.6-2.3,0.8-3.4,0.8H6.5
	c-0.5,0-1-0.1-1.4-0.3c-0.4-0.2-0.6-0.5-0.6-1c0-0.5,0.2-1,0.7-1.6l7.9-9.3c0.7-0.8,1.6-1.5,2.8-2c1.2-0.6,2.3-0.8,3.4-0.8H45
	c0.5,0,1,0.1,1.4,0.3C46.8,26.1,47,26.4,47,26.9z M38.9,18.8v3.8H19.3c-1.5,0-3,0.4-4.6,1.1s-2.9,1.7-3.9,2.8l-7.9,9.3L2.8,36
	c0-0.1,0-0.2,0-0.3c0-0.1,0-0.2,0-0.3V12.8c0-1.4,0.5-2.7,1.6-3.7S6.6,7.5,8,7.5h7.5c1.4,0,2.7,0.5,3.7,1.6s1.6,2.3,1.6,3.7v0.8
	h12.8c1.4,0,2.7,0.5,3.7,1.6S38.9,17.4,38.9,18.8z"/>
</svg>
