<?xml version="1.0" encoding="utf-8"?>
<!-- Generator: Adobe Illustrator 19.2.0, SVG Export Plug-In . SVG Version: 6.00 Build 0)  -->
<svg version="1.1"
	 id="svg57" inkscape:output_extension="org.inkscape.output.svg.inkscape" inkscape:version="0.46" sodipodi:docbase="/home/jimmac/src/cvs/tango-icon-theme/scalable/actions" sodipodi:docname="edit-delete.svg" sodipodi:version="0.32" xmlns:cc="http://creativecommons.org/ns#" xmlns:dc="http://purl.org/dc/elements/1.1/" xmlns:inkscape="http://www.inkscape.org/namespaces/inkscape" xmlns:rdf="http://www.w3.org/1999/02/22-rdf-syntax-ns#" xmlns:sodipodi="http://sodipodi.sourceforge.net/DTD/sodipodi-0.dtd" xmlns:svg="http://www.w3.org/2000/svg"
	 xmlns="http://www.w3.org/2000/svg" xmlns:xlink="http://www.w3.org/1999/xlink" x="0px" y="0px" viewBox="0 0 48 48"
	 style="enable-background:new 0 0 48 48;" xml:space="preserve">
<style type="text/css">
	.st0{fill:#ADB1B6;}
</style>
<defs>
	
	
		<inkscape:perspective  id="perspective141" inkscape:persp3d-origin="24 : 16 : 1" inkscape:vp_x="0 : 24 : 1" inkscape:vp_y="0 : 1000 : 0" inkscape:vp_z="48 : 24 : 1" sodipodi:type="inkscape:persp3d">
		</inkscape:perspective>
</defs>
<sodipodi:namedview  bordercolor="#666" borderopacity="0.13333333" id="base" inkscape:current-layer="layer1" inkscape:cx="-117.40141" inkscape:cy="39.043402" inkscape:document-units="px" inkscape:grid-bbox="true" inkscape:grid-points="true" inkscape:guide-bbox="false" inkscape:object-bbox="false" inkscape:object-nodes="true" inkscape:object-paths="false" inkscape:object-points="false" inkscape:pageopacity="0.0" inkscape:pageshadow="2" inkscape:showpageshadow="false" inkscape:window-height="688" inkscape:window-width="872" inkscape:window-x="562" inkscape:window-y="156" inkscape:zoom="1" pagecolor="#ffffff" showborder="true" showgrid="false">
	
		<inkscape:grid  color="#0000ff" empcolor="#0000ff" empopacity="0.4" empspacing="4" id="GridFromPre046Settings" opacity="0.2" originx="0px" originy="0px" spacingx="1px" spacingy="1px" type="xygrid">
		</inkscape:grid>
</sodipodi:namedview>
<path class="st0" d="M42.6,35.3c0,0.8-0.3,1.5-0.9,2.1l-4.3,4.3c-0.6,0.6-1.3,0.9-2.1,0.9s-1.5-0.3-2.1-0.9L24,32.5l-9.2,9.2
	c-0.6,0.6-1.3,0.9-2.1,0.9c-0.8,0-1.5-0.3-2.1-0.9l-4.3-4.3c-0.6-0.6-0.9-1.3-0.9-2.1s0.3-1.5,0.9-2.1l9.2-9.2l-9.2-9.2
	c-0.6-0.6-0.9-1.3-0.9-2.1s0.3-1.5,0.9-2.1l4.3-4.3c0.6-0.6,1.3-0.9,2.1-0.9c0.8,0,1.5,0.3,2.1,0.9l9.2,9.2l9.2-9.2
	c0.6-0.6,1.3-0.9,2.1-0.9s1.5,0.3,2.1,0.9l4.3,4.3c0.6,0.6,0.9,1.3,0.9,2.1s-0.3,1.5-0.9,2.1L32.5,24l9.2,9.2
	C42.3,33.8,42.6,34.5,42.6,35.3z"/>
</svg>
