<?xml version="1.0" encoding="utf-8"?>
<!-- Generator: Adobe Illustrator 19.2.0, SVG Export Plug-In . SVG Version: 6.00 Build 0)  -->
<svg version="1.1"
	 id="svg11300" inkscape:export-filename="/home/jimmac/Desktop/wi-fi.png" inkscape:export-xdpi="90.000000" inkscape:export-ydpi="90.000000" inkscape:output_extension="org.inkscape.output.svg.inkscape" inkscape:version="0.46" sodipodi:docbase="/home/tigert/cvs/freedesktop.org/tango-icon-theme/scalable/actions" sodipodi:docname="edit-redo.svg" sodipodi:version="0.32" xmlns:cc="http://creativecommons.org/ns#" xmlns:dc="http://purl.org/dc/elements/1.1/" xmlns:inkscape="http://www.inkscape.org/namespaces/inkscape" xmlns:rdf="http://www.w3.org/1999/02/22-rdf-syntax-ns#" xmlns:sodipodi="http://sodipodi.sourceforge.net/DTD/sodipodi-0.dtd" xmlns:svg="http://www.w3.org/2000/svg"
	 xmlns="http://www.w3.org/2000/svg" xmlns:xlink="http://www.w3.org/1999/xlink" x="0px" y="0px" viewBox="0 0 48 48"
	 style="enable-background:new 0 0 48 48;" xml:space="preserve">
<style type="text/css">
	.st0{fill:#ADB1B6;}
</style>
<defs>
	
	
		<inkscape:perspective  id="perspective31" inkscape:persp3d-origin="24 : 16 : 1" inkscape:vp_x="0 : 24 : 1" inkscape:vp_y="0 : 1000 : 0" inkscape:vp_z="48 : 24 : 1" sodipodi:type="inkscape:persp3d">
		</inkscape:perspective>
</defs>
<sodipodi:namedview  bordercolor="#666666" borderopacity="0.25490196" fill="#99b00b" id="base" inkscape:current-layer="layer1" inkscape:cx="12.500477" inkscape:cy="33.008096" inkscape:document-units="px" inkscape:grid-bbox="true" inkscape:pageopacity="0.0" inkscape:pageshadow="2" inkscape:showpageshadow="false" inkscape:window-height="818" inkscape:window-width="892" inkscape:window-x="368" inkscape:window-y="30" inkscape:zoom="4" pagecolor="#ffffff" showgrid="false" stroke="#788600">
	</sodipodi:namedview>
<path class="st0" d="M5.9,16.4c1-2.5,2.4-4.5,4.2-6.3C11.9,8.3,14,7,16.4,5.9s4.9-1.6,7.6-1.6c2.5,0,4.9,0.5,7.3,1.4s4.5,2.3,6.3,4
	l3.3-3.3C41.4,5.8,42,5.8,42.7,6s1,0.8,1,1.5V19c0,0.5-0.2,0.9-0.5,1.2c-0.4,0.3-0.8,0.5-1.2,0.5H30.6c-0.7,0-1.2-0.3-1.5-1
	c-0.2-0.7-0.1-1.3,0.4-1.8l3.5-3.5c-1.2-1.1-2.6-2-4.1-2.6c-1.5-0.6-3.1-0.9-4.8-0.9c-1.8,0-3.5,0.3-5.1,1s-3,1.6-4.2,2.8
	s-2.1,2.6-2.8,4.2s-1,3.3-1,5.1c0,1.8,0.3,3.5,1,5.1s1.6,3,2.8,4.2s2.6,2.1,4.2,2.8s3.3,1,5.1,1c2.1,0,4-0.4,5.8-1.3
	s3.4-2.2,4.6-3.8c0.1-0.2,0.3-0.3,0.6-0.3c0.2,0,0.4,0,0.6,0.2l3.5,3.5c0.1,0.1,0.2,0.3,0.2,0.5c0,0.2-0.1,0.4-0.2,0.6
	c-1.9,2.2-4.2,4-6.8,5.2c-2.7,1.3-5.5,1.9-8.4,1.9c-2.6,0-5.2-0.6-7.6-1.6c-2.5-1-4.5-2.4-6.3-4.2C8.3,36,6.9,34,5.9,31.5
	c-1.1-2.4-1.6-4.9-1.6-7.6S4.9,18.7,5.9,16.4z"/>
</svg>
