<?xml version="1.0" encoding="utf-8"?>
<!-- Generator: Adobe Illustrator 19.2.0, SVG Export Plug-In . SVG Version: 6.00 Build 0)  -->
<svg version="1.1"
	 id="svg11300" inkscape:export-filename="/home/jimmac/Desktop/wi-fi.png" inkscape:export-xdpi="90.000000" inkscape:export-ydpi="90.000000" inkscape:output_extension="org.inkscape.output.svg.inkscape" inkscape:version="0.46" sodipodi:docbase="/home/tigert/cvs/freedesktop.org/tango-icon-theme/scalable/actions" sodipodi:docname="edit-undo.svg" sodipodi:version="0.32" xmlns:cc="http://creativecommons.org/ns#" xmlns:dc="http://purl.org/dc/elements/1.1/" xmlns:inkscape="http://www.inkscape.org/namespaces/inkscape" xmlns:rdf="http://www.w3.org/1999/02/22-rdf-syntax-ns#" xmlns:sodipodi="http://sodipodi.sourceforge.net/DTD/sodipodi-0.dtd" xmlns:svg="http://www.w3.org/2000/svg"
	 xmlns="http://www.w3.org/2000/svg" xmlns:xlink="http://www.w3.org/1999/xlink" x="0px" y="0px" viewBox="0 0 48 48"
	 style="enable-background:new 0 0 48 48;" xml:space="preserve">
<style type="text/css">
	.st0{fill:#ADB1B6;}
</style>
<defs>
	
	
		<inkscape:perspective  id="perspective31" inkscape:persp3d-origin="24 : 16 : 1" inkscape:vp_x="0 : 24 : 1" inkscape:vp_y="0 : 1000 : 0" inkscape:vp_z="48 : 24 : 1" sodipodi:type="inkscape:persp3d">
		</inkscape:perspective>
</defs>
<sodipodi:namedview  bordercolor="#666666" borderopacity="0.25490196" fill="#edd400" id="base" inkscape:current-layer="layer1" inkscape:cx="-19.855325" inkscape:cy="-15.183692" inkscape:document-units="px" inkscape:grid-bbox="true" inkscape:pageopacity="0.0" inkscape:pageshadow="2" inkscape:showpageshadow="false" inkscape:window-height="818" inkscape:window-width="891" inkscape:window-x="0" inkscape:window-y="30" inkscape:zoom="2.8284271" pagecolor="#ffffff" showgrid="false" stroke="#c4a000">
	</sodipodi:namedview>
<path class="st0" d="M43.7,24c0,2.7-0.5,5.2-1.6,7.6c-1,2.4-2.4,4.5-4.2,6.3c-1.8,1.8-3.8,3.2-6.3,4.2c-2.4,1-5,1.6-7.6,1.6
	c-2.9,0-5.7-0.6-8.4-1.9c-2.6-1.2-4.9-3-6.8-5.2c-0.1-0.2-0.2-0.4-0.2-0.6c0-0.2,0.1-0.4,0.2-0.5l3.5-3.5c0.2-0.2,0.4-0.2,0.6-0.2
	c0.3,0,0.5,0.1,0.6,0.3c1.2,1.6,2.8,2.9,4.6,3.8s3.7,1.3,5.8,1.3c1.8,0,3.5-0.3,5.1-1s3-1.6,4.2-2.8s2.1-2.6,2.8-4.2s1-3.3,1-5.1
	s-0.3-3.5-1-5.1s-1.6-3-2.8-4.2s-2.6-2.1-4.2-2.8s-3.3-1-5.1-1c-1.7,0-3.3,0.3-4.8,0.9c-1.5,0.6-2.9,1.5-4.1,2.6l3.5,3.5
	c0.5,0.5,0.6,1.1,0.4,1.8c-0.3,0.7-0.8,1-1.5,1H6c-0.4,0-0.8-0.2-1.2-0.5c-0.3-0.3-0.5-0.7-0.5-1.2V7.6c0-0.7,0.3-1.2,1-1.5
	C6,5.8,6.6,5.9,7.1,6.5l3.3,3.3c1.8-1.7,3.9-3.1,6.3-4s4.8-1.4,7.3-1.4c2.7,0,5.2,0.5,7.6,1.6s4.5,2.4,6.3,4.2
	c1.8,1.8,3.2,3.8,4.2,6.3C43.1,18.8,43.7,21.3,43.7,24z"/>
</svg>
