<?xml version="1.0" encoding="utf-8"?>
<!-- Generator: Adobe Illustrator 19.2.0, SVG Export Plug-In . SVG Version: 6.00 Build 0)  -->
<svg version="1.1"
	 id="svg2" inkscape:export-filename="/home/tigert/My Downloads/go-home.png" inkscape:export-xdpi="90.000000" inkscape:export-ydpi="90.000000" inkscape:output_extension="org.inkscape.output.svg.inkscape" inkscape:version="0.46" sodipodi:docbase="/home/jimmac/src/cvs/tango-icon-theme/scalable/actions" sodipodi:docname="go-home.svg" sodipodi:version="0.32" xmlns:cc="http://creativecommons.org/ns#" xmlns:dc="http://purl.org/dc/elements/1.1/" xmlns:inkscape="http://www.inkscape.org/namespaces/inkscape" xmlns:rdf="http://www.w3.org/1999/02/22-rdf-syntax-ns#" xmlns:sodipodi="http://sodipodi.sourceforge.net/DTD/sodipodi-0.dtd" xmlns:svg="http://www.w3.org/2000/svg"
	 xmlns="http://www.w3.org/2000/svg" xmlns:xlink="http://www.w3.org/1999/xlink" x="0px" y="0px" viewBox="0 0 48 48"
	 style="enable-background:new 0 0 48 48;" xml:space="preserve">
<style type="text/css">
	.st0{fill:#ADB1B6;}
</style>
<defs>
	
	
		<inkscape:perspective  id="perspective92" inkscape:persp3d-origin="24 : 16 : 1" inkscape:vp_x="0 : 24 : 1" inkscape:vp_y="0 : 1000 : 0" inkscape:vp_z="48 : 24 : 1" sodipodi:type="inkscape:persp3d">
		</inkscape:perspective>
</defs>
<sodipodi:namedview  bordercolor="#666666" borderopacity="0.21568627" fill="#555753" id="base" inkscape:current-layer="svg2" inkscape:cx="25.234802" inkscape:cy="-2.3755359" inkscape:guide-bbox="true" inkscape:pageopacity="0.0" inkscape:pageshadow="2" inkscape:showpageshadow="false" inkscape:window-height="691" inkscape:window-width="872" inkscape:window-x="466" inkscape:window-y="157" inkscape:zoom="1" pagecolor="#ffffff" showgrid="false" showguides="true" stroke="#a40000">
	</sodipodi:namedview>
<path class="st0" d="M39.7,26.7v13.1c0,0.5-0.2,0.9-0.5,1.2s-0.8,0.5-1.2,0.5H27.5V31h-7v10.5H10c-0.5,0-0.9-0.2-1.2-0.5
	c-0.3-0.3-0.5-0.8-0.5-1.2V26.7c0,0,0,0,0-0.1c0,0,0-0.1,0-0.1L24,13.6l15.7,12.9C39.7,26.5,39.7,26.6,39.7,26.7z M45.8,24.8l-1.7,2
	c-0.1,0.2-0.3,0.3-0.6,0.3h-0.1c-0.2,0-0.4-0.1-0.6-0.2L24,11.2L5.1,26.9c-0.2,0.1-0.4,0.2-0.7,0.2c-0.2,0-0.4-0.1-0.6-0.3l-1.7-2
	C2,24.6,2,24.4,2,24.1c0-0.2,0.1-0.4,0.3-0.6L21.9,7.2c0.6-0.5,1.3-0.7,2.1-0.7s1.5,0.2,2.1,0.7l6.7,5.6V7.4c0-0.3,0.1-0.5,0.2-0.6
	c0.2-0.2,0.4-0.2,0.6-0.2h5.2c0.3,0,0.5,0.1,0.6,0.2c0.2,0.2,0.2,0.4,0.2,0.6v11.1l6,5c0.2,0.1,0.3,0.3,0.3,0.6
	C46,24.4,46,24.6,45.8,24.8z"/>
</svg>
