<?xml version="1.0" encoding="utf-8"?>
<!-- Generator: Adobe Illustrator 19.2.0, SVG Export Plug-In . SVG Version: 6.00 Build 0)  -->
<svg version="1.1"
	 id="svg1307" inkscape:export-filename="/home/lapo/Desktop/Grafica/Icone/media-actions-outlines.png" inkscape:export-xdpi="90" inkscape:export-ydpi="90" inkscape:output_extension="org.inkscape.output.svg.inkscape" inkscape:version="0.46" sodipodi:docbase="/home/jimmac/src/cvs/tango-icon-theme/scalable/actions" sodipodi:docname="media-seek-backward.svg" sodipodi:version="0.32" xmlns:cc="http://creativecommons.org/ns#" xmlns:dc="http://purl.org/dc/elements/1.1/" xmlns:inkscape="http://www.inkscape.org/namespaces/inkscape" xmlns:rdf="http://www.w3.org/1999/02/22-rdf-syntax-ns#" xmlns:sodipodi="http://sodipodi.sourceforge.net/DTD/sodipodi-0.dtd" xmlns:svg="http://www.w3.org/2000/svg"
	 xmlns="http://www.w3.org/2000/svg" xmlns:xlink="http://www.w3.org/1999/xlink" x="0px" y="0px" viewBox="0 0 48 48"
	 style="enable-background:new 0 0 48 48;" xml:space="preserve">
<style type="text/css">
	.st0{fill:#ADB1B6;}
</style>
<defs>
	
	
		<inkscape:perspective  id="perspective58" inkscape:persp3d-origin="24 : 16 : 1" inkscape:vp_x="0 : 24 : 1" inkscape:vp_y="0 : 1000 : 0" inkscape:vp_z="48 : 24 : 1" sodipodi:type="inkscape:persp3d">
		</inkscape:perspective>
</defs>
<sodipodi:namedview  bordercolor="#666666" borderlayer="top" borderopacity="0.15294118" fill="#fcaf3e" guidetolerance="1px" id="base" inkscape:current-layer="layer1" inkscape:cx="44.949418" inkscape:cy="17.655272" inkscape:document-units="px" inkscape:grid-bbox="true" inkscape:grid-points="true" inkscape:guide-bbox="true" inkscape:pageopacity="0.0" inkscape:pageshadow="2" inkscape:showpageshadow="false" inkscape:window-height="808" inkscape:window-width="1144" inkscape:window-x="290" inkscape:window-y="34" inkscape:zoom="8" pagecolor="#ffffff" showborder="true" showgrid="false" showguides="false" stroke="#729fcf">
	<sodipodi:guide  id="guide2194" orientation="horizontal" position="38.996647"></sodipodi:guide>
	<sodipodi:guide  id="guide2196" orientation="horizontal" position="9.0140845"></sodipodi:guide>
	<sodipodi:guide  id="guide2198" orientation="vertical" position="9.0140845"></sodipodi:guide>
	<sodipodi:guide  id="guide2200" orientation="vertical" position="38.975184"></sodipodi:guide>
	<sodipodi:guide  id="guide2202" orientation="horizontal" position="22.988281"></sodipodi:guide>
	<sodipodi:guide  id="guide2204" orientation="vertical" position="23.908786"></sodipodi:guide>
	<sodipodi:guide  id="guide4332" orientation="vertical" position="157.99417"></sodipodi:guide>
	<sodipodi:guide  id="guide4334" orientation="horizontal" position="-36.062446"></sodipodi:guide>
	<sodipodi:guide  id="guide4336" orientation="horizontal" position="-58.02695"></sodipodi:guide>
	<sodipodi:guide  id="guide4338" orientation="vertical" position="180.00287"></sodipodi:guide>
	<sodipodi:guide  id="guide4417" orientation="vertical" position="107.92217"></sodipodi:guide>
	<sodipodi:guide  id="guide4419" orientation="vertical" position="129.93087"></sodipodi:guide>
	<sodipodi:guide  id="guide5106" orientation="horizontal" position="19.996875"></sodipodi:guide>
	<sodipodi:guide  id="guide5119" orientation="horizontal" position="63.039674"></sodipodi:guide>
	<sodipodi:guide  id="guide5121" orientation="horizontal" position="49.066305"></sodipodi:guide>
	<sodipodi:guide  id="guide5307" orientation="horizontal" position="-87.043372"></sodipodi:guide>
	<sodipodi:guide  id="guide5309" orientation="horizontal" position="-102.03286"></sodipodi:guide>
	<sodipodi:guide  id="guide3111" orientation="horizontal" position="-100.04058"></sodipodi:guide>
	<sodipodi:guide  id="guide1879" orientation="horizontal" position="-92.545841"></sodipodi:guide>
	
		<inkscape:grid  color="#0000ff" empcolor="#0000ff" empopacity="0.4" empspacing="2" id="GridFromPre046Settings" opacity="0.2" originx="0px" originy="0px" spacingx="0.5px" spacingy="0.5px" type="xygrid">
		</inkscape:grid>
</sodipodi:namedview>
<path class="st0" d="M23.4,23.3c0.1,0.1,0.2,0.2,0.2,0.4V10.5c0-0.3,0.1-0.5,0.2-0.6s0.4,0,0.6,0.2l13.1,13.1
	c0.1,0.1,0.2,0.2,0.2,0.4V11.1c0-0.3,0.1-0.6,0.4-0.8c0.2-0.2,0.5-0.4,0.8-0.4h2.4c0.3,0,0.6,0.1,0.8,0.4s0.4,0.5,0.4,0.8v26.1
	c0,0.3-0.1,0.6-0.4,0.8s-0.5,0.4-0.8,0.4H39c-0.3,0-0.6-0.1-0.8-0.4c-0.2-0.2-0.4-0.5-0.4-0.8V24.6c0,0.1-0.1,0.2-0.2,0.4L24.4,38.1
	c-0.2,0.2-0.4,0.3-0.6,0.2c-0.2-0.1-0.2-0.3-0.2-0.6V24.6c0,0.1-0.1,0.2-0.2,0.4L10.2,38.1c-0.2,0.2-0.4,0.3-0.6,0.2
	c-0.2-0.1-0.2-0.3-0.2-0.6V10.5c0-0.3,0.1-0.5,0.2-0.6c0.2-0.1,0.4,0,0.6,0.2L23.4,23.3z"/>
</svg>
