<?xml version="1.0" encoding="utf-8"?>
<!-- Generator: Adobe Illustrator 19.2.0, SVG Export Plug-In . SVG Version: 6.00 Build 0)  -->
<svg version="1.1"
	 id="svg3027" inkscape:version="0.48.4 r9939" sodipodi:docname="Neues Dokument 2" xmlns:cc="http://creativecommons.org/ns#" xmlns:dc="http://purl.org/dc/elements/1.1/" xmlns:inkscape="http://www.inkscape.org/namespaces/inkscape" xmlns:rdf="http://www.w3.org/1999/02/22-rdf-syntax-ns#" xmlns:sodipodi="http://sodipodi.sourceforge.net/DTD/sodipodi-0.dtd" xmlns:svg="http://www.w3.org/2000/svg"
	 xmlns="http://www.w3.org/2000/svg" xmlns:xlink="http://www.w3.org/1999/xlink" x="0px" y="0px" viewBox="0 0 64 64"
	 style="enable-background:new 0 0 64 64;" xml:space="preserve">
<style type="text/css">
	.st0{fill:#ADB1B6;}
</style>
<defs>
	
	
		<inkscape:perspective  id="perspective24" inkscape:persp3d-origin="24 : 16 : 1" inkscape:vp_x="0 : 24 : 1" inkscape:vp_y="0 : 1000 : 0" inkscape:vp_z="48 : 24 : 1" sodipodi:type="inkscape:persp3d">
		</inkscape:perspective>
	
		<inkscape:perspective  id="perspective90" inkscape:persp3d-origin="24 : 16 : 1" inkscape:vp_x="0 : 24 : 1" inkscape:vp_y="0 : 1000 : 0" inkscape:vp_z="48 : 24 : 1" sodipodi:type="inkscape:persp3d">
		</inkscape:perspective>
</defs>
<sodipodi:namedview  bordercolor="#666666" borderopacity="1.0" id="base" inkscape:current-layer="layer1-0" inkscape:cx="31.818182" inkscape:cy="32" inkscape:document-units="px" inkscape:grid-bbox="true" inkscape:pageopacity="0.0" inkscape:pageshadow="2" inkscape:window-height="744" inkscape:window-maximized="0" inkscape:window-width="1075" inkscape:window-x="441" inkscape:window-y="49" inkscape:zoom="5.5" pagecolor="#ffffff" showgrid="true">
	</sodipodi:namedview>
<path class="st0" d="M58,47.2v4.3c0,0.6-0.2,1.1-0.6,1.5s-0.9,0.6-1.5,0.6H8.2c-0.6,0-1.1-0.2-1.5-0.6C6.2,52.6,6,52.1,6,51.5v-4.3
	c0-0.6,0.2-1.1,0.6-1.5C7.1,45.2,7.6,45,8.2,45h47.7c0.6,0,1.1,0.2,1.5,0.6C57.8,46.1,58,46.6,58,47.2z M58,29.8v4.3
	c0,0.6-0.2,1.1-0.6,1.5c-0.4,0.4-0.9,0.6-1.5,0.6H8.2c-0.6,0-1.1-0.2-1.5-0.6C6.2,35.3,6,34.8,6,34.2v-4.3c0-0.6,0.2-1.1,0.6-1.5
	c0.4-0.4,0.9-0.6,1.5-0.6h47.7c0.6,0,1.1,0.2,1.5,0.6C57.8,28.7,58,29.2,58,29.8z M58,12.5v4.3c0,0.6-0.2,1.1-0.6,1.5
	c-0.4,0.4-0.9,0.6-1.5,0.6H8.2c-0.6,0-1.1-0.2-1.5-0.6C6.2,17.9,6,17.4,6,16.8v-4.3c0-0.6,0.2-1.1,0.6-1.5c0.4-0.4,0.9-0.6,1.5-0.6
	h47.7c0.6,0,1.1,0.2,1.5,0.6C57.8,11.4,58,11.9,58,12.5z"/>
</svg>
