<?xml version="1.0" encoding="utf-8"?>
<!-- Generator: Adobe Illustrator 19.2.0, SVG Export Plug-In . SVG Version: 6.00 Build 0)  -->
<svg version="1.1"
	 id="svg11300" inkscape:export-filename="/home/jimmac/Desktop/wi-fi.png" inkscape:export-xdpi="90.000000" inkscape:export-ydpi="90.000000" inkscape:output_extension="org.inkscape.output.svg.inkscape" inkscape:version="0.46" sodipodi:docbase="/home/jimmac/src/cvs/tango-icon-theme/scalable/actions" sodipodi:docname="view-refresh.svg" sodipodi:version="0.32" xmlns:cc="http://creativecommons.org/ns#" xmlns:dc="http://purl.org/dc/elements/1.1/" xmlns:inkscape="http://www.inkscape.org/namespaces/inkscape" xmlns:rdf="http://www.w3.org/1999/02/22-rdf-syntax-ns#" xmlns:sodipodi="http://sodipodi.sourceforge.net/DTD/sodipodi-0.dtd" xmlns:svg="http://www.w3.org/2000/svg"
	 xmlns="http://www.w3.org/2000/svg" xmlns:xlink="http://www.w3.org/1999/xlink" x="0px" y="0px" viewBox="0 0 48 48"
	 style="enable-background:new 0 0 48 48;" xml:space="preserve">
<style type="text/css">
	.st0{fill:#ADB1B6;}
</style>
<defs>
	
	
		<inkscape:perspective  id="perspective58" inkscape:persp3d-origin="24 : 16 : 1" inkscape:vp_x="0 : 24 : 1" inkscape:vp_y="0 : 1000 : 0" inkscape:vp_z="48 : 24 : 1" sodipodi:type="inkscape:persp3d">
		</inkscape:perspective>
</defs>
<sodipodi:namedview  bordercolor="#666666" borderopacity="0.25490196" fill="#729fcf" id="base" inkscape:current-layer="layer1" inkscape:cx="2.4438651" inkscape:cy="18.153347" inkscape:document-units="px" inkscape:grid-bbox="true" inkscape:pageopacity="0.0" inkscape:pageshadow="2" inkscape:showpageshadow="false" inkscape:window-height="818" inkscape:window-width="891" inkscape:window-x="0" inkscape:window-y="30" inkscape:zoom="5.6568542" pagecolor="#ffffff" showgrid="false" stroke="#3465a4">
	</sodipodi:namedview>
<path class="st0" d="M42.4,28c0,0.1,0,0.1,0,0.2c-1.1,4.4-3.3,8-6.6,10.8c-3.4,2.8-7.3,4.1-11.9,4.1c-2.4,0-4.8-0.5-7-1.4
	s-4.3-2.2-6-3.9L7.6,41c-0.3,0.3-0.7,0.5-1.1,0.5S5.7,41.3,5.4,41s-0.5-0.7-0.5-1.1V28.8c0-0.4,0.2-0.8,0.5-1.1
	c0.3-0.3,0.7-0.5,1.1-0.5h11.1c0.4,0,0.8,0.2,1.1,0.5c0.3,0.3,0.5,0.7,0.5,1.1s-0.2,0.8-0.5,1.1l-3.4,3.4c1.2,1.1,2.5,1.9,4,2.5
	s3,0.9,4.6,0.9c2.2,0,4.3-0.5,6.2-1.6c1.9-1.1,3.5-2.6,4.6-4.4c0.2-0.3,0.6-1.2,1.3-2.9c0.1-0.4,0.4-0.6,0.7-0.6h4.8
	c0.2,0,0.4,0.1,0.6,0.2S42.4,27.8,42.4,28z M43.1,8.1v11.1c0,0.4-0.2,0.8-0.5,1.1c-0.3,0.3-0.7,0.5-1.1,0.5H30.4
	c-0.4,0-0.8-0.2-1.1-0.5c-0.3-0.3-0.5-0.7-0.5-1.1s0.2-0.8,0.5-1.1l3.4-3.4c-2.4-2.3-5.3-3.4-8.7-3.4c-2.2,0-4.3,0.5-6.2,1.6
	s-3.5,2.6-4.6,4.4c-0.2,0.3-0.6,1.2-1.3,2.9c-0.1,0.4-0.4,0.6-0.7,0.6H6.2c-0.2,0-0.4-0.1-0.6-0.2c-0.2-0.2-0.2-0.3-0.2-0.6v-0.2
	c1.1-4.4,3.3-8,6.7-10.8S19.5,4.9,24,4.9c2.4,0,4.8,0.5,7,1.4s4.3,2.2,6.1,3.9L40.4,7c0.3-0.3,0.7-0.5,1.1-0.5
	c0.4,0,0.8,0.2,1.1,0.5C42.9,7.3,43.1,7.7,43.1,8.1z"/>
</svg>
