/* XPM */
static const char * icon_xpm[] = {
"32 31 3 1",
" 	c None",
".	c #000000",
"+	c #FFFFFF",
"      ..                        ",
"      .+.                       ",
"      .++.                      ",
"       .++.                     ",
"       .+++.                    ",
"        .++.                    ",
"        .+++.                   ",
"         .+++.                  ",
"         .++++.          ....   ",
"          .+++.         .++++.. ",
"          .++++.        .+...++.",
"           .+++.     ...+.   .+.",
".....................+++++....+.",
" .++++++++++++++++++.++++++++++.",
"  ..+++++++++++.+++. .......... ",
"    ....++++++++++.             ",
"        ..........              ",
"              .++.              ",
"              .++.              ",
"               ...              ",
"               .++.             ",
"               .++.             ",
"               .+++.            ",
"                .++.            ",
"                 .++.           ",
"                .+.+.           ",
"               .+. .+.          ",
"               .+. .+.          ",
"               .+...++.         ",
"                .++++.          ",
"                 ....           "};
