<?xml version="1.0" encoding="UTF-8" standalone="no"?>
<!-- Generator: Adobe Illustrator 19.1.0, SVG Export Plug-In . SVG Version: 6.00 Build 0)  -->

<svg
   xmlns:dc="http://purl.org/dc/elements/1.1/"
   xmlns:cc="http://creativecommons.org/ns#"
   xmlns:rdf="http://www.w3.org/1999/02/22-rdf-syntax-ns#"
   xmlns:svg="http://www.w3.org/2000/svg"
   xmlns="http://www.w3.org/2000/svg"
   xmlns:sodipodi="http://sodipodi.sourceforge.net/DTD/sodipodi-0.dtd"
   xmlns:inkscape="http://www.inkscape.org/namespaces/inkscape"
   version="1.0"
   id="Ebene_1"
   x="0px"
   y="0px"
   viewBox="0 0 129 129"
   xml:space="preserve"
   sodipodi:docname="pharmacokinetics_pet_mri.svg"
   inkscape:version="0.92.3 (2405546, 2018-03-11)"
   width="129"
   height="129"><metadata
   id="metadata49"><rdf:RDF><cc:Work
       rdf:about=""><dc:format>image/svg+xml</dc:format><dc:type
         rdf:resource="http://purl.org/dc/dcmitype/StillImage" /><dc:title></dc:title></cc:Work></rdf:RDF></metadata><defs
   id="defs47" /><sodipodi:namedview
   pagecolor="#ffffff"
   bordercolor="#666666"
   borderopacity="1"
   objecttolerance="10"
   gridtolerance="10"
   guidetolerance="10"
   inkscape:pageopacity="0"
   inkscape:pageshadow="2"
   inkscape:window-width="1600"
   inkscape:window-height="1137"
   id="namedview45"
   showgrid="false"
   inkscape:zoom="4.1799878"
   inkscape:cx="-23.559488"
   inkscape:cy="59.75"
   inkscape:window-x="1912"
   inkscape:window-y="-8"
   inkscape:window-maximized="1"
   inkscape:current-layer="Ebene_1" />
<style
   type="text/css"
   id="style2">
	.st0{fill:#F39200;}
	.st1{fill:#1D1D1B;}
	.st2{fill:#FFFFFF;}
	.st3{fill:none;stroke:#F39200;stroke-linecap:round;stroke-miterlimit:10;}
	.st4{fill:#F39200;stroke:#F39200;stroke-width:0.25;stroke-miterlimit:10;}
	.st5{fill:none;stroke:#1D1D1B;stroke-linecap:round;stroke-miterlimit:10;}
	.st6{fill:#FFFFFF;stroke:#FFFFFF;stroke-width:4;stroke-linecap:round;stroke-linejoin:round;stroke-miterlimit:10;}
	.st7{fill:none;stroke:#E6007E;stroke-linecap:round;stroke-miterlimit:10;}
	.st8{fill:#009FE3;}
	.st9{fill:#1C2E52;}
	.st10{fill:#C0C5CD;}
	.st11{fill:none;stroke:#1D1D1B;stroke-width:2;stroke-miterlimit:10;}
	.st12{fill:none;stroke:#C0C5CD;stroke-width:2;stroke-miterlimit:10;}
	.st13{fill:#0096AE;}
	.st14{fill:none;stroke:#1D1D1B;stroke-width:7;stroke-miterlimit:10;}
	.st15{fill:#1D1D1B;stroke:#1D1D1B;stroke-width:0.1;stroke-linecap:round;stroke-linejoin:round;stroke-miterlimit:10;}
	.st16{fill:none;}
	.st17{fill:none;stroke:#1D1C1B;stroke-width:2;stroke-linecap:round;stroke-linejoin:round;stroke-miterlimit:10;}
	.st18{fill:#1D1D1B;stroke:#FFFFFF;stroke-width:2;stroke-linecap:round;stroke-linejoin:round;stroke-miterlimit:10;}
	.st19{fill:none;stroke:#1D1D1B;stroke-width:2;stroke-linecap:round;stroke-linejoin:round;stroke-miterlimit:10;}
	.st20{fill:#E71D73;}
	.st21{fill:#F0F0F0;}
	.st22{fill:#E6007E;}
	.st23{fill:none;stroke:#1D1D1B;stroke-width:3;stroke-miterlimit:10;}
	.st24{fill:none;stroke:#1D1D1B;stroke-width:5;stroke-miterlimit:10;}
	.st25{fill:none;stroke:#1D1D1B;stroke-width:10;stroke-miterlimit:10;}
	.st26{fill:none;stroke:#1D1D1B;stroke-width:6;stroke-miterlimit:10;}
	.st27{fill:#009640;}
	.st28{fill:none;stroke:#009FE3;stroke-width:5;stroke-linejoin:round;}
	.st29{fill:none;stroke:#009FE3;stroke-width:3;stroke-linejoin:round;}
	.st30{fill:none;stroke:#1D1D1B;stroke-width:5;stroke-linejoin:round;}
	.st31{fill:#51509C;}
	.st32{fill:none;stroke:#1D1D1B;stroke-miterlimit:10;}
	.st33{fill:none;stroke:#FFFFFF;stroke-miterlimit:10;}
	.st34{fill:none;stroke:#FFFFFF;stroke-width:2;stroke-miterlimit:10;}
	.st35{fill:#1D1D1B;stroke:#FFFFFF;stroke-miterlimit:10;}
	.st36{fill:#FFFFFF;stroke:#1D1D1B;stroke-miterlimit:10;}
	.st37{fill:none;stroke:#1D1D1B;stroke-width:2;stroke-linecap:round;stroke-miterlimit:10;}
	.st38{fill:#009C3E;}
	.st39{fill:#E61883;}
	.st40{fill:#1D1D1B;stroke:#FFFFFF;stroke-linecap:round;stroke-linejoin:round;stroke-miterlimit:10;}
	.st41{fill:#1D1D1B;stroke:#1D1D1B;stroke-width:2;stroke-linecap:round;stroke-linejoin:round;stroke-miterlimit:10;}
	.st42{fill:#FFFFFF;stroke:#FFFFFF;stroke-width:6;stroke-linecap:round;stroke-linejoin:round;stroke-miterlimit:10;}
	.st43{fill:none;stroke:#1D1D1B;stroke-linecap:round;stroke-linejoin:round;stroke-miterlimit:10;}
	.st44{fill:#1D1D1B;stroke:#1D1D1B;stroke-linecap:round;stroke-linejoin:round;stroke-miterlimit:10;}
	.st45{fill:none;stroke:#1D1D1B;stroke-width:2;stroke-linecap:round;stroke-linejoin:round;}
	.st46{fill:none;stroke:#FFFFFF;stroke-width:3;stroke-linecap:round;stroke-miterlimit:10;}
	.st47{fill:none;stroke:#FFFFFF;stroke-width:2;stroke-linecap:round;stroke-miterlimit:10;}
	.st48{fill:#FFFFFF;stroke:#FFFFFF;stroke-width:4;stroke-miterlimit:10;}
	.st49{fill:none;stroke:#F39200;stroke-width:1.5;stroke-linecap:round;stroke-miterlimit:10;}
	.st50{fill:#00FF00;}
	.st51{fill:none;stroke:#1D1D1B;stroke-width:1.5;stroke-linecap:round;stroke-linejoin:round;}
	.st52{fill:#FF00FF;}
</style>
<path
   style="color:#000000;font-style:normal;font-variant:normal;font-weight:normal;font-stretch:normal;font-size:medium;line-height:normal;font-family:sans-serif;font-variant-ligatures:normal;font-variant-position:normal;font-variant-caps:normal;font-variant-numeric:normal;font-variant-alternates:normal;font-feature-settings:normal;text-indent:0;text-align:start;text-decoration:none;text-decoration-line:none;text-decoration-style:solid;text-decoration-color:#000000;letter-spacing:normal;word-spacing:normal;text-transform:none;writing-mode:lr-tb;direction:ltr;text-orientation:mixed;dominant-baseline:auto;baseline-shift:baseline;text-anchor:start;white-space:normal;shape-padding:0;clip-rule:nonzero;display:inline;overflow:visible;visibility:visible;opacity:1;isolation:auto;mix-blend-mode:normal;color-interpolation:sRGB;color-interpolation-filters:linearRGB;solid-color:#000000;solid-opacity:1;vector-effect:none;fill:#000000;fill-opacity:1;fill-rule:evenodd;stroke:none;stroke-width:2;stroke-linecap:butt;stroke-linejoin:miter;stroke-miterlimit:4;stroke-dasharray:6, 6;stroke-dashoffset:0;stroke-opacity:1;color-rendering:auto;image-rendering:auto;shape-rendering:auto;text-rendering:auto;enable-background:accumulate"
   d="m 103.46094,57.818359 -0.11914,0.0039 0.0605,1.998046 0.0898,-0.002 2.04883,0.101563 2.04687,0.236328 1.57422,0.271484 0.33789,-1.970703 -1.60156,-0.27539 -0.0273,-0.0039 -0.0273,-0.0039 -2.11133,-0.24414 -0.0332,-0.0039 -0.0332,-0.002 -2.125,-0.105469 -0.041,-0.002 z m -6.574221,0.835938 -0.0293,0.0078 -0.0293,0.0098 -0.990234,0.320313 -0.02734,0.0078 -0.02539,0.0098 -1.054687,0.408203 -0.02734,0.0098 -0.02734,0.01367 -2.291015,1.046875 -0.02539,0.01172 -0.02344,0.01172 -0.886719,0.464843 0.927734,1.771485 0.871094,-0.455078 0.01758,-0.0098 2.207031,-1.007812 1.023438,-0.394532 0.0098,-0.0039 0.902344,-0.291015 0.275391,-0.07227 -0.5,-1.935547 z m 18.005861,3.146484 2.50781,0.705078 3.26953,0.917969 0.54102,-1.925781 -3.26953,-0.917969 -2.50586,-0.705078 z m -33.728518,5.128907 -0.146484,0.08789 1.027344,1.716797 0.146484,-0.08789 5.001953,-2.996093 -1.029297,-1.714844 z m -6.376953,3.8125 -0.01758,0.0098 -3.28125,1.873047 -0.01953,0.01172 -0.771484,0.414062 0.949218,1.761719 0.792969,-0.427734 0.0098,-0.0059 0.0098,-0.0059 3.320313,-1.894531 0.0078,-0.0039 0.0098,-0.0059 1.097656,-0.65625 -1.02539,-1.716797 z m -10.027343,5.373046 -0.0039,0.002 -3.318359,1.480468 -0.01953,0.0078 -0.01758,0.0078 -1.416016,0.564453 0.742187,1.857422 1.453126,-0.580078 0.01758,-0.0078 0.01758,-0.0078 3.394531,-1.513672 0.01953,-0.0078 0.01953,-0.0098 0.642578,-0.322265 -0.890625,-1.789063 z m -11.492188,4.121094 -0.01367,0.0039 -1.509765,0.28125 -0.0078,0.002 -1.552734,0.201171 -1.527344,0.103516 0.134766,1.996094 1.560546,-0.107422 0.03125,-0.002 0.0293,-0.0039 1.589844,-0.205079 0.02539,-0.0039 0.02734,-0.0059 1.613281,-0.298828 0.02344,-0.0039 0.02344,-0.0059 1.162109,-0.275391 -0.460937,-1.947265 z"
   id="path1174-3-7"
   inkscape:connector-curvature="0" /><path
   style="color:#000000;font-style:normal;font-variant:normal;font-weight:normal;font-stretch:normal;font-size:medium;line-height:normal;font-family:sans-serif;font-variant-ligatures:normal;font-variant-position:normal;font-variant-caps:normal;font-variant-numeric:normal;font-variant-alternates:normal;font-feature-settings:normal;text-indent:0;text-align:start;text-decoration:none;text-decoration-line:none;text-decoration-style:solid;text-decoration-color:#000000;letter-spacing:normal;word-spacing:normal;text-transform:none;writing-mode:lr-tb;direction:ltr;text-orientation:mixed;dominant-baseline:auto;baseline-shift:baseline;text-anchor:start;white-space:normal;shape-padding:0;clip-rule:nonzero;display:inline;overflow:visible;visibility:visible;opacity:1;isolation:auto;mix-blend-mode:normal;color-interpolation:sRGB;color-interpolation-filters:linearRGB;solid-color:#000000;solid-opacity:1;vector-effect:none;fill:#000000;fill-opacity:1;fill-rule:evenodd;stroke:none;stroke-width:3.5;stroke-linecap:butt;stroke-linejoin:miter;stroke-miterlimit:4;stroke-dasharray:7, 3.5;stroke-dashoffset:3.5;stroke-opacity:1;color-rendering:auto;image-rendering:auto;shape-rendering:auto;text-rendering:auto;enable-background:accumulate"
   d="m 108.21875,45.533203 -0.78516,0.01172 0.0547,3.5 0.74219,-0.01172 3.13867,0.07617 2.96484,0.203125 0.23829,-3.492188 -3.01172,-0.205078 -0.0371,-0.0039 h -0.0391 l -3.19532,-0.07813 h -0.0352 z m -4.39063,0.183594 -0.69921,0.05664 -0.0332,0.002 -0.0312,0.0039 -1.68945,0.195312 -0.0332,0.0039 -0.0352,0.0059 -1.695312,0.263672 -0.03711,0.0059 -0.03711,0.0078 -1.697265,0.339843 -0.04102,0.0078 -0.03711,0.0098 -1.115235,0.27539 0.841797,3.396485 1.074219,-0.265625 1.587886,-0.31836 0.0176,-0.002 1.67773,-0.261719 1.59571,-0.183593 0.0254,-0.0039 0.63867,-0.04883 z m 14.32227,0.480469 -0.43164,3.472656 2.05664,0.255859 v -0.002 l 4.43164,0.570313 0.0371,0.0039 0.0371,0.0039 0.45117,0.03906 0.29688,-3.488282 -0.41016,-0.03516 -4.4043,-0.564453 h -0.004 l -0.004,-0.002 z m -25.013671,1.783203 -0.59961,0.214843 -0.04492,0.01563 -0.04492,0.01953 -1.521485,0.640625 v 3.730468 c 0,0.05811 -0.01675,0.11345 -0.02539,0.169922 l 1.283203,-0.630859 1.576172,-0.666016 0.55664,-0.199218 z m -10.410157,6.220703 -0.224609,0.193359 -0.04297,0.03711 -0.04102,0.04102 -1.441407,1.416016 -0.02734,0.02734 -0.02734,0.02734 -2.46875,2.650391 2.560547,2.384766 2.416016,-2.59375 0.02148,-0.02148 1.371094,-1.347656 0.992187,-0.853516 -1.6875,-1.960937 z m 5.705079,0 0.0098,0.01367 0.02148,-0.01367 z m -12.339844,7.023437 -0.259766,0.291016 -0.01172,0.01172 -0.0098,0.01367 -4.097656,4.761718 -0.0039,0.0059 -0.207031,0.236328 2.644531,2.294922 0.210938,-0.244141 0.002,-0.002 0.002,-0.0039 4.080078,-4.742188 0.02148,-0.02539 0.238281,-0.263672 z m -6.882813,7.964844 -0.933593,1.076172 -0.0078,0.0078 -1.591797,1.703124 -0.01563,0.01758 -1.490234,1.449218 -0.660156,0.564453 2.271484,2.66211 0.707031,-0.601563 0.04297,-0.03711 0.04102,-0.04102 1.58789,-1.546875 0.03125,-0.0293 0.02734,-0.0293 1.615234,-1.728516 0.02148,-0.02344 0.02148,-0.02539 0.974609,-1.125 z m -7.271484,6.757813 -0.597656,0.363281 -0.8125,0.443359 -0.869141,0.414063 -0.371094,0.152343 v 3.740235 l 0.701172,-0.248047 0.04297,-0.01563 0.04297,-0.01758 0.976562,-0.402344 0.04297,-0.01758 0.04102,-0.01953 0.935546,-0.445313 0.04102,-0.01953 0.04102,-0.02148 0.898437,-0.488282 0.04102,-0.02148 0.03711,-0.02344 0.634766,-0.388671 z"
   id="path1174-3"
   inkscape:connector-curvature="0" /><path
   style="color:#000000;font-style:normal;font-variant:normal;font-weight:normal;font-stretch:normal;font-size:medium;line-height:normal;font-family:sans-serif;font-variant-ligatures:normal;font-variant-position:normal;font-variant-caps:normal;font-variant-numeric:normal;font-variant-alternates:normal;font-feature-settings:normal;text-indent:0;text-align:start;text-decoration:none;text-decoration-line:none;text-decoration-style:solid;text-decoration-color:#000000;letter-spacing:normal;word-spacing:normal;text-transform:none;writing-mode:lr-tb;direction:ltr;text-orientation:mixed;dominant-baseline:auto;baseline-shift:baseline;text-anchor:start;white-space:normal;shape-padding:0;clip-rule:nonzero;display:inline;overflow:visible;visibility:visible;opacity:1;isolation:auto;mix-blend-mode:normal;color-interpolation:sRGB;color-interpolation-filters:linearRGB;solid-color:#000000;solid-opacity:1;vector-effect:none;fill:#000000;fill-opacity:1;fill-rule:evenodd;stroke:none;stroke-width:8;stroke-linecap:butt;stroke-linejoin:miter;stroke-miterlimit:4;stroke-dasharray:none;stroke-dashoffset:0;stroke-opacity:1;color-rendering:auto;image-rendering:auto;shape-rendering:auto;text-rendering:auto;enable-background:accumulate"
   d="m 127.12109,22.6875 c -0.34516,0.03172 -1.11226,0.04182 -2.01367,0.04687 v 8.021484 c 0.99397,-0.0075 1.93608,-0.02909 2.7461,-0.103515 z m -22.01367,1.173828 C 96.835336,25.162492 87.611925,28.00314 80.044922,34.414062 h 8.484375 c 1.280848,0 2.3125,0.715163 2.3125,1.601563 v 0.703125 c 4.48528,-2.425804 9.424523,-3.895635 14.273433,-4.757812 -10e-4,-0.02057 -0.008,-0.03978 -0.008,-0.06055 z M 70.841797,45.199219 c -4.158803,6.448819 -6.729297,13.022472 -9.220703,18.226562 -0.811977,1.696069 -1.618818,3.213269 -2.433594,4.5625 v 11.826172 c 0.975002,-0.650526 1.878762,-1.379432 2.689453,-2.185547 3.030711,-3.013599 5.054742,-6.772388 6.958985,-10.75 1.92237,-4.015483 3.763543,-8.285345 5.964843,-12.464844 h -1.648437 c -1.280848,0 -2.310547,-0.713209 -2.310547,-1.599609 z M 2.2226562,66.044922 c -0.8526582,-0.005 -1.72436675,-3.43e-4 -2.61718745,0.01563 L -0.25,74.058594 c 1.4608746,-0.02613 2.8262563,-0.01121 4.1523438,0.01953 V 66.082031 C 3.3450209,66.068077 2.8003861,66.04832 2.2226562,66.044922 Z m 21.6796878,2.818359 v 8.300781 c 1.217624,0.368899 2.407363,0.745925 3.552734,1.132813 3.86584,1.305818 7.579883,2.711343 11.732422,3.625 V 73.673828 C 36.295921,72.906273 33.417361,71.867802 30.015625,70.71875 28.14748,70.087721 26.111607,69.456587 23.902344,68.863281 Z"
   id="path1174"
   inkscape:connector-curvature="0" />
<rect
   style="opacity:1;fill:#0084c8;fill-opacity:1;stroke:none;stroke-width:3"
   id="rect1145"
   width="15"
   height="15"
   x="6.3015518"
   y="65.003433"
   rx="1.734"
   ry="1.2" /><rect
   style="opacity:1;fill:#0084c8;fill-opacity:1;stroke:none;stroke-width:3"
   id="rect1145-7"
   width="15"
   height="15"
   x="73.381714"
   y="37.047005"
   rx="1.734"
   ry="1.2" /><rect
   style="opacity:1;fill:#0084c8;fill-opacity:1;stroke:none;stroke-width:3"
   id="rect1145-78"
   width="15"
   height="15"
   x="41.694214"
   y="68.588837"
   rx="1.734"
   ry="1.2" /><rect
   style="opacity:1;fill:#0084c8;fill-opacity:1;stroke:none;stroke-width:3"
   id="rect1145-2"
   width="15"
   height="15"
   x="107.60796"
   y="15.999483"
   rx="1.734"
   ry="1.2" /><text
   xml:space="preserve"
   style="font-style:normal;font-variant:normal;font-weight:bold;font-stretch:normal;font-size:40px;line-height:1.25;font-family:Arial;-inkscape-font-specification:'Arial Bold';letter-spacing:0px;word-spacing:0px;fill:#000000;fill-opacity:1;stroke:none;stroke-width:1px;stroke-linecap:butt;stroke-linejoin:miter;stroke-opacity:1"
   x="5"
   y="35.5"
   id="text1208"><tspan
     sodipodi:role="line"
     id="tspan1206"
     x="5"
     y="35.5"
     style="font-style:normal;font-variant:normal;font-weight:bold;font-stretch:normal;font-size:40px;font-family:Arial;-inkscape-font-specification:'Arial Bold';fill:#000000">FIT</tspan></text>






<text
   xml:space="preserve"
   style="font-style:normal;font-variant:normal;font-weight:bold;font-stretch:normal;font-size:40px;line-height:1.25;font-family:Arial;-inkscape-font-specification:'Arial Bold';text-align:end;letter-spacing:0px;word-spacing:0px;text-anchor:end;fill:#0084c8;fill-opacity:1;stroke:none;stroke-width:1px;stroke-linecap:butt;stroke-linejoin:miter;stroke-opacity:1"
   x="125.02188"
   y="125.31641"
   id="text1208-3"><tspan
     sodipodi:role="line"
     id="tspan1206-6"
     x="125.02188"
     y="125.31641"
     style="font-style:normal;font-variant:normal;font-weight:bold;font-stretch:normal;font-size:48px;font-family:Arial;-inkscape-font-specification:'Arial Bold';text-align:end;letter-spacing:0px;text-anchor:end;fill:#0084c8">MRI</tspan></text>






</svg>