/* XPM */
static const char * btnClearOne_xpm[] = {
"12 10 5 1",
" 	g None",
".	g #000000",
"+	g #FFFFFF",
"@	g #C3C3C3",
"#	g #7F7F7F",
"       .....",
"      .++@..",
"     .++@.#.",
"    .....#. ",
"    .++@..  ",
"  . .....   ",
"  .         ",
".....       ",
"  .         ",
"  .         "};
