/* XPM */
static const char * btnDown_xpm[] = {
"9 10 2 1",
" 	c None",
".	c #000000",
"    .    ",
"    .    ",
"    .    ",
"    .    ",
"    .    ",
".   .   .",
" .  .  . ",
"  . . .  ",
"   ...   ",
"    .    "};
