<?xml version="1.0" encoding="UTF-8" standalone="no"?>
<!-- Generator: Adobe Illustrator 19.1.0, SVG Export Plug-In . SVG Version: 6.00 Build 0)  -->

<svg
   xmlns:dc="http://purl.org/dc/elements/1.1/"
   xmlns:cc="http://creativecommons.org/ns#"
   xmlns:rdf="http://www.w3.org/1999/02/22-rdf-syntax-ns#"
   xmlns:svg="http://www.w3.org/2000/svg"
   xmlns="http://www.w3.org/2000/svg"
   xmlns:sodipodi="http://sodipodi.sourceforge.net/DTD/sodipodi-0.dtd"
   xmlns:inkscape="http://www.inkscape.org/namespaces/inkscape"
   version="1.0"
   id="Ebene_1"
   x="0px"
   y="0px"
   viewBox="0 0 130 130"
   xml:space="preserve"
   sodipodi:docname="map_icon_batch_doc.svg"
   inkscape:version="0.92.3 (2405546, 2018-03-11)"
   width="130"
   height="130"><metadata
   id="metadata3809"><rdf:RDF><cc:Work
       rdf:about=""><dc:format>image/svg+xml</dc:format><dc:type
         rdf:resource="http://purl.org/dc/dcmitype/StillImage" /><dc:title></dc:title></cc:Work></rdf:RDF></metadata><defs
   id="defs3807" /><sodipodi:namedview
   pagecolor="#ffffff"
   bordercolor="#666666"
   borderopacity="1"
   objecttolerance="10"
   gridtolerance="10"
   guidetolerance="10"
   inkscape:pageopacity="0"
   inkscape:pageshadow="2"
   inkscape:window-width="1920"
   inkscape:window-height="1017"
   id="namedview3805"
   showgrid="false"
   inkscape:zoom="9.5035151"
   inkscape:cx="20.451505"
   inkscape:cy="64"
   inkscape:window-x="-8"
   inkscape:window-y="117"
   inkscape:window-maximized="1"
   inkscape:current-layer="g3802" />
<style
   type="text/css"
   id="style3762">
	.st0{fill:#F39200;}
	.st1{fill:#1D1D1B;}
	.st2{fill:#FFFFFF;}
	.st3{fill:none;stroke:#F39200;stroke-linecap:round;stroke-miterlimit:10;}
	.st4{fill:#F39200;stroke:#F39200;stroke-width:0.25;stroke-miterlimit:10;}
	.st5{fill:none;stroke:#1D1D1B;stroke-linecap:round;stroke-miterlimit:10;}
	.st6{fill:#FFFFFF;stroke:#FFFFFF;stroke-width:4;stroke-linecap:round;stroke-linejoin:round;stroke-miterlimit:10;}
	.st7{fill:none;stroke:#E6007E;stroke-linecap:round;stroke-miterlimit:10;}
	.st8{fill:#009FE3;}
	.st9{fill:#1C2E52;}
	.st10{fill:#C0C5CD;}
	.st11{fill:none;stroke:#1D1D1B;stroke-width:2;stroke-miterlimit:10;}
	.st12{fill:none;stroke:#C0C5CD;stroke-width:2;stroke-miterlimit:10;}
	.st13{fill:#0096AE;}
	.st14{fill:none;stroke:#1D1D1B;stroke-width:7;stroke-miterlimit:10;}
	.st15{fill:#1D1D1B;stroke:#1D1D1B;stroke-width:0.1;stroke-linecap:round;stroke-linejoin:round;stroke-miterlimit:10;}
	.st16{fill:none;}
	.st17{fill:none;stroke:#1D1C1B;stroke-width:2;stroke-linecap:round;stroke-linejoin:round;stroke-miterlimit:10;}
	.st18{fill:#1D1D1B;stroke:#FFFFFF;stroke-width:2;stroke-linecap:round;stroke-linejoin:round;stroke-miterlimit:10;}
	.st19{fill:none;stroke:#1D1D1B;stroke-width:2;stroke-linecap:round;stroke-linejoin:round;stroke-miterlimit:10;}
	.st20{fill:#E71D73;}
	.st21{fill:#F0F0F0;}
	.st22{fill:#E6007E;}
	.st23{fill:none;stroke:#1D1D1B;stroke-width:3;stroke-miterlimit:10;}
	.st24{fill:none;stroke:#1D1D1B;stroke-width:5;stroke-miterlimit:10;}
	.st25{fill:none;stroke:#1D1D1B;stroke-width:10;stroke-miterlimit:10;}
	.st26{fill:none;stroke:#1D1D1B;stroke-width:6;stroke-miterlimit:10;}
	.st27{fill:#009640;}
	.st28{fill:none;stroke:#009FE3;stroke-width:5;stroke-linejoin:round;}
	.st29{fill:none;stroke:#009FE3;stroke-width:3;stroke-linejoin:round;}
	.st30{fill:none;stroke:#1D1D1B;stroke-width:5;stroke-linejoin:round;}
	.st31{fill:#51509C;}
	.st32{fill:none;stroke:#1D1D1B;stroke-miterlimit:10;}
	.st33{fill:none;stroke:#FFFFFF;stroke-miterlimit:10;}
	.st34{fill:none;stroke:#FFFFFF;stroke-width:2;stroke-miterlimit:10;}
	.st35{fill:#1D1D1B;stroke:#FFFFFF;stroke-miterlimit:10;}
	.st36{fill:#FFFFFF;stroke:#1D1D1B;stroke-miterlimit:10;}
	.st37{fill:none;stroke:#1D1D1B;stroke-width:2;stroke-linecap:round;stroke-miterlimit:10;}
	.st38{fill:#009C3E;}
	.st39{fill:#E61883;}
	.st40{fill:#1D1D1B;stroke:#FFFFFF;stroke-linecap:round;stroke-linejoin:round;stroke-miterlimit:10;}
	.st41{fill:#1D1D1B;stroke:#1D1D1B;stroke-width:2;stroke-linecap:round;stroke-linejoin:round;stroke-miterlimit:10;}
	.st42{fill:#FFFFFF;stroke:#FFFFFF;stroke-width:6;stroke-linecap:round;stroke-linejoin:round;stroke-miterlimit:10;}
	.st43{fill:none;stroke:#1D1D1B;stroke-linecap:round;stroke-linejoin:round;stroke-miterlimit:10;}
	.st44{fill:#1D1D1B;stroke:#1D1D1B;stroke-linecap:round;stroke-linejoin:round;stroke-miterlimit:10;}
	.st45{fill:none;stroke:#1D1D1B;stroke-width:2;stroke-linecap:round;stroke-linejoin:round;}
	.st46{fill:none;stroke:#FFFFFF;stroke-width:3;stroke-linecap:round;stroke-miterlimit:10;}
	.st47{fill:none;stroke:#FFFFFF;stroke-width:2;stroke-linecap:round;stroke-miterlimit:10;}
	.st48{fill:#FFFFFF;stroke:#FFFFFF;stroke-width:4;stroke-miterlimit:10;}
	.st49{fill:none;stroke:#F39200;stroke-width:1.5;stroke-linecap:round;stroke-miterlimit:10;}
	.st50{fill:#00FF00;}
	.st51{fill:none;stroke:#1D1D1B;stroke-width:1.5;stroke-linecap:round;stroke-linejoin:round;}
	.st52{fill:#FF00FF;}
</style>
<g
   id="g3802"
   transform="translate(0,2)">
	<g
   id="g3784"
   style="fill:#0084c8;fill-opacity:1">
		<path
   class="st52"
   d="m 73.3,48 c -0.9,0.1 -1.7,0.3 -2.6,0.4 L 69.8,59 c 0.9,-0.1 1.7,-0.1 2.6,-0.2 z"
   id="path3764"
   style="fill:#0084c8;fill-opacity:1"
   inkscape:connector-curvature="0" />
		<path
   class="st52"
   d="m 52.1,60.7 c 0.9,-0.1 1.7,-0.2 2.6,-0.3 0.2,-3.1 0.4,-6.1 0.6,-9.2 -0.9,0.2 -1.8,0.4 -2.6,0.5 -0.2,3 -0.4,6 -0.6,9 z"
   id="path3766"
   style="fill:#0084c8;fill-opacity:1"
   inkscape:connector-curvature="0" />
		<path
   class="st52"
   d="m 93.3,24.5 c -0.9,0.2 -1.7,0.4 -2.6,0.6 l -1.2,12.2 c 0.9,-0.1 1.8,-0.2 2.6,-0.3 z"
   id="path3768"
   style="fill:#0084c8;fill-opacity:1"
   inkscape:connector-curvature="0" />
		<path
   class="st52"
   d="m 50,52.3 v 0.4 c 0.9,-0.3 1.8,-0.6 2.7,-0.9 -1,0.2 -1.9,0.3 -2.7,0.5 z"
   id="path3770"
   style="fill:#0084c8;fill-opacity:1"
   inkscape:connector-curvature="0" />
		<path
   class="st52"
   d="m 71.5,39.1 -0.1,0.8 c 0.9,-0.1 1.7,-0.3 2.6,-0.4 l 1,-10.7 c -0.9,0.2 -1.8,0.5 -2.6,0.7 -0.3,3.2 -0.6,6.4 -0.9,9.6 z"
   id="path3772"
   style="fill:#0084c8;fill-opacity:1"
   inkscape:connector-curvature="0" />
		<path
   class="st52"
   d="m 71.7,67.1 c -0.9,0.1 -1.7,0.1 -2.6,0.2 -0.3,3 -0.5,6.1 -0.8,9.1 -1.1,0.1 -2.3,0.3 -3.5,0.5 L 64.7,78 c 2.9,0 5.8,0.1 8.7,0.1 l 0.3,-2.3 c -0.9,0.1 -1.9,0.2 -2.8,0.3 z"
   id="path3774"
   style="fill:#0084c8;fill-opacity:1"
   inkscape:connector-curvature="0" />
		<path
   class="st52"
   d="m 75.6,58.6 c 0,0 0,-0.1 0,0 -0.1,0 -0.3,0 -0.4,0 0.2,0 0.3,0 0.4,0 z"
   id="path3776"
   style="fill:#0084c8;fill-opacity:1"
   inkscape:connector-curvature="0" />
		<path
   class="st52"
   d="m 70,86.3 c -0.9,0 -1.7,0 -2.6,0 -0.2,1.9 -0.3,3.9 -0.5,5.8 l -0.1,1 c -1.2,0 -2.4,0.1 -3.7,0.2 l -0.3,2.6 c 1.3,-0.1 2.5,-0.1 3.7,-0.2 l -0.5,5.4 c -0.3,3.3 -0.6,6.7 -0.9,10.1 0,0.3 0.1,0.7 0.3,0.9 0.2,0.3 0.5,0.4 0.9,0.5 0.7,0.1 1.3,-0.5 1.4,-1.2 l 1.4,-15.7 c 0.7,0 1.5,0 2.2,-0.1 L 71.6,93 c -0.8,0 -1.5,0 -2.3,0.1 z"
   id="path3778"
   style="fill:#0084c8;fill-opacity:1"
   inkscape:connector-curvature="0" />
		<path
   class="st52"
   d="m 127.4,29.3 c -0.3,-0.2 -0.6,-0.3 -1,-0.2 -4.9,1 -10.3,2.1 -16.4,3.5 0.7,-6.2 1.4,-12.4 2.1,-18.6 0.1,-0.7 -0.4,-1.3 -1.1,-1.4 -0.4,0 -0.7,0.1 -1,0.3 -0.3,0.2 -0.4,0.5 -0.5,0.9 -0.7,6.5 -1.4,13 -2.2,19.5 -4.5,1.1 -9.1,2.2 -13.7,3.4 1.7,-0.2 3.4,-0.4 5.1,-0.6 0.1,0 0.3,0 0.4,0 1.1,0 2.1,0.4 2.8,1.1 1.7,-0.4 3.4,-0.9 5.1,-1.3 -0.6,5.8 -1.3,11.5 -1.9,17.3 -4.9,0.7 -10,1.5 -15.1,2.4 l 1,-10.4 c -0.9,0.1 -1.7,0.2 -2.6,0.3 L 87.3,56 c -1.2,0.2 -2.3,0.4 -3.4,0.6 l -0.1,1.3 c 3.6,-0.2 6.8,-0.3 9.8,-0.4 3.8,-0.7 7.5,-1.3 11.1,-1.8 -0.7,5.8 -1.3,11.5 -2,17.2 -4.8,0.3 -9.8,0.6 -14.7,1.1 0.3,-2.7 0.5,-5.4 0.8,-8.1 -0.9,0 -1.7,0.1 -2.6,0.1 l -0.8,8.3 c -1.2,0.1 -2.4,0.2 -3.6,0.4 l -0.3,2.6 c 1.2,-0.1 2.4,-0.2 3.6,-0.4 0,0.5 -0.1,0.9 -0.1,1.4 0.9,0 1.7,0.1 2.6,0.1 l 0.2,-1.8 c 5,-0.5 9.9,-0.8 14.7,-1.1 l -0.3,2.4 c -0.6,4.9 -1.1,9.9 -1.7,14.8 -4.5,-0.1 -9.1,-0.2 -13.7,-0.2 -0.2,0 -0.4,0 -0.6,0 l 0.6,-5.9 c -0.8,0 -1.7,-0.1 -2.6,-0.1 -0.2,2 -0.4,4 -0.6,6 -1.3,0 -2.5,0 -3.8,0 -0.1,0.9 -0.2,1.7 -0.3,2.6 1.2,0 2.5,0 3.8,0 l -1.7,16.8 c 0,0.3 0.1,0.7 0.3,0.9 0.2,0.3 0.5,0.4 0.9,0.5 0.7,0.1 1.3,-0.4 1.4,-1.2 L 85.9,95 c 4.9,0 9.7,0.1 14.3,0.2 -0.7,6.1 -1.4,12.2 -2.1,18.2 -0.1,0.7 0.4,1.3 1.1,1.4 0.1,0 0.1,0 0.2,0 0.7,0 1.2,-0.5 1.3,-1.1 0.7,-6.1 1.4,-12.3 2.1,-18.4 5.8,0.2 10.9,0.5 15.6,0.8 0.3,0 0.7,-0.1 0.9,-0.3 0.3,-0.2 0.4,-0.5 0.5,-0.9 0,-0.3 -0.1,-0.7 -0.3,-0.9 -0.2,-0.3 -0.5,-0.4 -0.9,-0.4 -4.7,-0.3 -9.7,-0.6 -15.5,-0.8 0.7,-5.8 1.3,-11.6 2,-17.4 6,-0.3 11.3,-0.5 16.2,-0.6 0.3,0 0.7,-0.1 0.9,-0.4 0.2,-0.2 0.4,-0.6 0.4,-0.9 0,-0.7 -0.6,-1.3 -1.3,-1.3 v 0 c -4.8,0.1 -10,0.3 -15.8,0.6 0.7,-5.8 1.3,-11.6 2,-17.5 6.2,-0.9 11.6,-1.6 16.7,-2.1 0.3,0 0.6,-0.2 0.9,-0.5 0.2,-0.3 0.3,-0.6 0.3,-0.9 0,-0.3 -0.2,-0.6 -0.5,-0.9 -0.3,-0.2 -0.6,-0.3 -0.9,-0.3 -4.8,0.5 -10.1,1.2 -16.1,2 l 0.1,-1.2 c 0.6,-5.4 1.2,-10.9 1.8,-16.3 6.3,-1.5 11.9,-2.7 17.2,-3.7 0.3,-0.1 0.6,-0.3 0.8,-0.5 0.2,-0.3 0.3,-0.6 0.2,-1 -0.1,-0.1 -0.3,-0.4 -0.6,-0.6 z"
   id="path3780"
   style="fill:#0084c8;fill-opacity:1"
   inkscape:connector-curvature="0" />
		<path
   class="st52"
   d="M 54.1,34.6 C 54,34.8 54,34.9 54,35.1 c -0.2,2.7 -0.4,5.4 -0.6,8.2 0.9,-0.2 1.7,-0.3 2.6,-0.5 0.2,-2.5 0.4,-5 0.5,-7.5 0,-0.5 -0.2,-1 -0.6,-1.2 -0.7,0.1 -1.2,0.3 -1.8,0.5 z"
   id="path3782"
   style="fill:#0084c8;fill-opacity:1"
   inkscape:connector-curvature="0" />
	</g>
	<g
   id="g3788"
   style="fill:#000000">
		<path
   class="st50"
   d="m 101.5,16.5 c -5,1 -10.1,2.1 -15.3,3.3 C 86.8,14 87.5,8.1 88.1,2.3 88.2,1.2 87.4,0.2 86.3,0 85.2,-0.1 84.2,0.7 84,1.8 83.3,8.1 82.6,14.4 81.9,20.7 77.3,21.8 72.7,22.9 68.1,24.2 68.6,19 69.1,13.8 69.7,8.6 69.8,7.5 69,6.5 67.9,6.3 66.8,6.2 65.8,7 65.6,8.1 65,14 64.4,19.7 63.8,25.4 c -4.6,1.3 -9.2,2.6 -13.9,4 0.4,-4.5 0.8,-9.1 1.2,-13.6 0.1,-1.1 -0.7,-2.1 -1.9,-2.2 -1.1,-0.1 -2.1,0.7 -2.2,1.9 -0.4,5.1 -0.9,10.1 -1.3,15.2 -4.6,1.4 -9.3,2.9 -14,4.4 0.3,-3.9 0.6,-7.8 0.8,-11.7 0.1,-1.1 -0.8,-2.1 -1.9,-2.2 -1.1,-0.1 -2.1,0.8 -2.2,1.9 -0.3,4.4 -0.6,8.9 -1,13.4 -5.6,1.9 -11.2,3.8 -17,5.9 -1.1,0.4 -1.6,1.6 -1.2,2.6 0.3,0.8 1.1,1.4 1.9,1.4 0.2,0 0.5,0 0.7,-0.1 5.2,-1.9 10.3,-3.6 15.3,-5.3 -0.2,3.1 -0.4,6.3 -0.7,9.5 4.2,0.2 8.2,1 11.9,2.4 1.8,-0.4 3.7,-0.9 5.5,-1.3 -0.1,1.2 -0.2,2.4 -0.3,3.6 1.4,0.8 2.7,1.6 3.9,2.5 0.2,-2.4 0.4,-4.7 0.6,-7.1 4.6,-1 9.1,-1.8 13.5,-2.7 -0.5,4.7 -0.9,9.3 -1.4,14 -2.3,0.2 -4.7,0.5 -7.1,0.8 1.1,1.2 2.2,2.5 3.1,3.8 1.2,-0.1 2.4,-0.3 3.6,-0.4 -0.2,1.8 -0.4,3.6 -0.5,5.4 2,3.9 3.3,8.2 3.9,12.7 3.9,0 7.9,0 11.7,0.1 -0.7,5.8 -1.3,11.6 -2,17.4 -0.1,1.1 0.7,2.2 1.8,2.3 0.1,0 0.2,0 0.2,0 1,0 1.9,-0.8 2,-1.8 0.7,-5.9 1.3,-11.8 2,-17.7 5,0.2 10,0.4 14.9,0.7 1.2,0.1 2.1,-0.8 2.2,-1.9 0.1,-1.1 -0.8,-2.1 -1.9,-2.2 -4.9,-0.3 -9.8,-0.6 -14.7,-0.7 0.6,-5.3 1.2,-10.6 1.8,-15.9 5.2,-0.3 10.4,-0.5 15.5,-0.6 1.1,0 2,-1 2,-2.1 0,-1.1 -0.9,-2 -2.1,-2 0,0 0,0 0,0 -4.9,0.1 -9.9,0.3 -15,0.6 0.6,-5.3 1.2,-10.6 1.8,-16 5.4,-0.8 10.8,-1.5 16,-2 1.1,-0.1 1.9,-1.1 1.8,-2.3 -0.1,-1.1 -1.2,-1.9 -2.3,-1.8 -5,0.5 -10,1.2 -15.1,1.9 0.6,-5.3 1.2,-10.7 1.8,-16 5.6,-1.3 11.1,-2.5 16.6,-3.6 1.1,-0.2 1.8,-1.3 1.6,-2.4 0,-1.2 -1.1,-2 -2.2,-1.7 z M 44.2,47.2 c -4.5,1 -9,2 -13.6,3.1 0.3,-3.6 0.5,-7.2 0.8,-10.8 4.7,-1.6 9.4,-3 13.9,-4.4 -0.4,4 -0.7,8.1 -1.1,12.1 z m 4.2,-0.9 c 0.4,-4.2 0.7,-8.4 1.1,-12.6 4.7,-1.4 9.3,-2.7 13.8,-4 -0.5,4.6 -0.9,9.3 -1.4,13.9 -4.4,0.9 -8.9,1.8 -13.5,2.7 z M 75.2,80.2 C 71,80.1 66.8,80 62.4,80 c 0.5,-4.8 1,-9.6 1.5,-14.4 4.4,-0.4 8.8,-0.7 13.1,-1 -0.6,5.2 -1.2,10.4 -1.8,15.6 z m 2.3,-19.7 c -4.3,0.3 -8.7,0.6 -13.1,1 0.5,-4.8 1,-9.5 1.4,-14.3 4.5,-0.8 9,-1.6 13.5,-2.2 -0.7,5.1 -1.2,10.3 -1.8,15.5 z m 2.2,-19.8 c -4.4,0.7 -8.9,1.4 -13.5,2.2 0.5,-4.8 1,-9.5 1.4,-14.3 4.7,-1.3 9.3,-2.4 13.8,-3.5 -0.5,5.2 -1.1,10.4 -1.7,15.6 z"
   id="path3786"
   style="fill:#000000"
   inkscape:connector-curvature="0" />
	</g>
	<g
   id="g3798"
   style="fill:#000000">
		<path
   class="st50"
   d="m 51,108.9 -24.4,9.4 -24.4,-9.4 c -0.8,-0.3 -1.6,0.1 -1.9,0.9 -0.3,0.8 0.1,1.6 0.9,1.9 l 25,9.6 c 0.2,0.1 0.4,0.1 0.5,0.1 0.2,0 0.4,0 0.5,-0.1 l 25,-9.6 c 0.8,-0.3 1.2,-1.2 0.9,-1.9 -0.4,-0.9 -1.3,-1.2 -2.1,-0.9 z"
   id="path3790"
   style="fill:#000000"
   inkscape:connector-curvature="0" />
		<path
   class="st50"
   d="M 51,102.5 26.6,112 2.2,102.6 c -0.8,-0.3 -1.6,0.1 -1.9,0.9 -0.3,0.8 0.1,1.6 0.9,1.9 l 25,9.6 c 0.2,0.1 0.4,0.1 0.5,0.1 0.2,0 0.4,0 0.5,-0.1 l 25,-9.6 c 0.8,-0.3 1.2,-1.2 0.9,-1.9 -0.4,-0.9 -1.3,-1.3 -2.1,-1 z"
   id="path3792"
   style="fill:#000000"
   inkscape:connector-curvature="0" />
		<path
   class="st50"
   d="M 51,96.2 26.6,105.6 2.1,96.2 c -0.8,-0.3 -1.6,0.1 -1.9,0.9 -0.3,0.8 0.1,1.6 0.9,1.9 l 25,9.6 c 0.2,0.1 0.4,0.1 0.5,0.1 0.2,0 0.4,0 0.5,-0.1 l 25,-9.6 c 0.8,-0.3 1.2,-1.2 0.9,-1.9 -0.3,-0.8 -1.2,-1.2 -2,-0.9 z"
   id="path3794"
   style="fill:#000000"
   inkscape:connector-curvature="0" />
		<path
   class="st50"
   d="m 1.1,92.7 25,9.6 c 0.2,0.1 0.4,0.1 0.5,0.1 0.2,0 0.4,0 0.5,-0.1 l 25,-9.6 c 0.6,-0.2 0.9,-0.8 1,-1.4 0,-0.6 -0.3,-1.2 -0.9,-1.4 l -25,-11 c -0.4,-0.2 -0.8,-0.2 -1.2,0 l -25,11 c -0.6,0.2 -0.9,0.8 -0.9,1.4 0,0.6 0.4,1.2 1,1.4 z"
   id="path3796"
   style="fill:#000000"
   inkscape:connector-curvature="0" />
	</g>
	<path
   class="st50"
   d="M 49.5,76.5 C 46.1,63.6 32.9,56 20,59.4 c -0.8,0.2 -1.5,0.5 -2.3,0.7 l -4.6,-5.4 -6,16.9 17.7,-3.2 -4.2,-5 c 0.2,-0.1 0.3,-0.1 0.5,-0.2 10.7,-2.9 21.7,3.5 24.6,14.2 0.2,0.9 1,1.5 1.9,1.5 0.2,0 0.3,0 0.5,-0.1 1.1,-0.2 1.7,-1.3 1.4,-2.3 z"
   id="path3800"
   style="fill:#000000"
   inkscape:connector-curvature="0" />
</g>
</svg>