/* XPM */
static const char * mitkClippingPlaneTranslationTool_xpm[] = {
"22 25 2 1",
" 	c None",
".	c #000000",
"                      ",
"                      ",
"                      ",
"                      ",
"    ...............   ",
"    ...............   ",
"    ...............   ",
"         .....        ",
"         .....        ",
"         .....        ",
"         .....        ",
"         .....        ",
"         .....        ",
"         .....        ",
"         .....        ",
"         .....        ",
"         .....        ",
"         .....        ",
"         .....        ",
"         .....        ",
"         .....        ",
"         .....        ",
"                      ",
"                      ",
"                      "};
