<?xml version="1.0" encoding="UTF-8" standalone="no"?>
<svg
   xmlns:dc="http://purl.org/dc/elements/1.1/"
   xmlns:cc="http://creativecommons.org/ns#"
   xmlns:rdf="http://www.w3.org/1999/02/22-rdf-syntax-ns#"
   xmlns:svg="http://www.w3.org/2000/svg"
   xmlns="http://www.w3.org/2000/svg"
   version="1.1"
   id="svg2"
   viewBox="0 0 1792 1792"
   height="128"
   width="128">
  <metadata
     id="metadata10">
    <rdf:RDF>
      <cc:Work
         rdf:about="">
        <dc:format>image/svg+xml</dc:format>
        <dc:type
           rdf:resource="http://purl.org/dc/dcmitype/StillImage" />
        <dc:title></dc:title>
      </cc:Work>
    </rdf:RDF>
  </metadata>
  <defs
     id="defs8" />
  <path
     style="fill:#00ff00;fill-opacity:1;stroke:none;stroke-opacity:1"
     id="path4"
     d="M621 1280h595v-595zm-45-45l595-595h-595v595zm1152 77v192q0 14-9 23t-23 9h-224v224q0 14-9 23t-23 9h-192q-14 0-23-9t-9-23v-224h-864q-14 0-23-9t-9-23v-864h-224q-14 0-23-9t-9-23v-192q0-14 9-23t23-9h224v-224q0-14 9-23t23-9h192q14 0 23 9t9 23v224h851l246-247q10-9 23-9t23 9q9 10 9 23t-9 23l-247 246v851h224q14 0 23 9t9 23z" />
</svg>
