/* XPM */
static char *datamanager_xpm[]={
"16 13 4 1",
". c None",
"# c #000000",
"a c #585858",
"b c #fffff6",
"................",
".#..............",
".#..............",
".#############..",
".#...#....#.....",
".#...#....a###..",
".#...a###.......",
".#..............",
".#############..",
".#b.......#.....",
".#........a###..",
".a#####.........",
"................"};
